<svg version="1.1" xmlns="http://www.w3.org/2000/svg" xmlns:xlink="http://www.w3.org/1999/xlink" stroke-linecap="round" stroke-linejoin="round" stroke-width="0" fill-rule="evenodd" width="47.5968mm" height="42.504mm" viewBox="-4456.3 -127 47596.8 42504" id="LSrqzPL1kGTZCIaJl4nM"><defs><rect x="-304.8" y="-787.4" width="609.6" height="1574.8" id="LSrqzPL1kGTZCIaJl4nM_pad-11"/><rect x="-125" y="-125" width="250" height="250" id="LSrqzPL1kGTZCIaJl4nM_pad-12"/><rect x="-787.4" y="-304.8" width="1574.8" height="609.6" id="LSrqzPL1kGTZCIaJl4nM_pad-13"/></defs><g transform="translate(0,42250) scale(1,-1)" fill="currentColor" stroke="currentColor"><path d="M 13601.6 3016.5 14312.8 3016.5 M 13957.2 2660.9 13957.2 3372.1 M 14880.1 3431.3 15176.4 3668.4 15176.4 2601.6 M 14880.1 2601.6 15472.7 2601.6 M 16349 3668.4 16359.2 3668.2 16369.4 3667.6 16379.6 3666.6 16389.7 3665.3 16399.8 3663.5 16409.8 3661.4 16419.7 3658.9 16429.5 3656 16439.1 3652.7 16448.7 3649.1 16458.1 3645.1 16467.3 3640.7 16476.4 3636 16485.3 3630.9 16494 3625.6 16502.4 3619.8 16510.7 3613.8 16518.7 3607.5 16526.4 3600.8 16533.9 3593.9 16541.2 3586.6 16548.1 3579.1 16554.8 3571.4 16561.1 3563.4 16567.1 3555.1 16572.9 3546.7 16578.2 3538 16583.3 3529.1 16588 3520 16592.4 3510.8 16596.4 3501.4 16600 3491.8 16603.3 3482.2 16606.2 3472.4 16608.7 3462.5 16610.8 3452.5 16612.6 3442.4 16613.9 3432.3 16614.9 3422.1 16615.5 3411.9 16615.7 3401.7 M 16349 3668.4 16337.4 3668.2 16325.7 3667.6 16314.1 3666.6 16302.6 3665.2 16291.1 3663.5 16279.6 3661.3 16268.3 3658.7 16257 3655.8 16245.8 3652.5 16234.8 3648.8 16223.9 3644.7 16213.1 3640.3 16202.5 3635.5 16192.1 3630.3 16181.8 3624.8 16171.7 3619 16161.9 3612.8 16152.2 3606.3 16142.8 3599.4 16133.6 3592.2 16124.7 3584.8 16116 3577 16107.6 3568.9 16099.5 3560.6 16091.7 3552 16084.1 3543.1 16076.9 3534 16070 3524.6 16063.4 3515 16057.1 3505.2 16051.2 3495.2 16045.6 3485 16040.4 3474.6 16035.5 3464 16031 3453.3 16026.8 3442.4 16023.1 3431.4 M 16526.9 3194.2 16534.4 3201.6 16541.6 3209.3 16548.5 3217.3 16555.2 3225.5 16561.5 3233.9 16567.5 3242.6 16573.2 3251.4 16578.6 3260.5 16583.6 3269.8 16588.3 3279.2 16592.6 3288.8 16596.6 3298.6 16600.2 3308.5 16603.5 3318.5 16606.3 3328.7 16608.8 3338.9 16611 3349.3 16612.7 3359.7 16614.1 3370.1 16615 3380.6 16615.6 3391.2 16615.8 3401.7 M 16526.8 3194.3 16023.1 2601.6 16615.7 2601.6 M 17462.4 2601.6 17106.8 3668.4 M 17818 3668.4 17462.4 2601.6 M 1312.8 3016.5 601.6 3016.5 M 1880.1 3431.3 2176.4 3668.4 2176.4 2601.6 M 1880.1 2601.6 2472.7 2601.6 M 3349 3668.4 3359.2 3668.2 3369.4 3667.6 3379.6 3666.6 3389.7 3665.3 3399.8 3663.5 3409.8 3661.4 3419.7 3658.9 3429.5 3656 3439.1 3652.7 3448.7 3649.1 3458.1 3645.1 3467.3 3640.7 3476.4 3636 3485.3 3630.9 3494 3625.6 3502.4 3619.8 3510.7 3613.8 3518.7 3607.5 3526.4 3600.8 3533.9 3593.9 3541.2 3586.6 3548.1 3579.1 3554.8 3571.4 3561.1 3563.4 3567.1 3555.1 3572.9 3546.7 3578.2 3538 3583.3 3529.1 3588 3520 3592.4 3510.8 3596.4 3501.4 3600 3491.8 3603.3 3482.2 3606.2 3472.4 3608.7 3462.5 3610.8 3452.5 3612.6 3442.4 3613.9 3432.3 3614.9 3422.1 3615.5 3411.9 3615.7 3401.7 M 3349 3668.4 3337.4 3668.2 3325.7 3667.6 3314.1 3666.6 3302.6 3665.2 3291.1 3663.5 3279.6 3661.3 3268.3 3658.7 3257 3655.8 3245.8 3652.5 3234.8 3648.8 3223.9 3644.7 3213.1 3640.3 3202.5 3635.5 3192.1 3630.3 3181.8 3624.8 3171.7 3619 3161.9 3612.8 3152.2 3606.3 3142.8 3599.4 3133.6 3592.2 3124.7 3584.8 3116 3577 3107.6 3568.9 3099.5 3560.6 3091.7 3552 3084.1 3543.1 3076.9 3534 3070 3524.6 3063.4 3515 3057.1 3505.2 3051.2 3495.2 3045.6 3485 3040.4 3474.6 3035.5 3464 3031 3453.3 3026.8 3442.4 3023.1 3431.4 M 3526.9 3194.2 3534.4 3201.6 3541.6 3209.3 3548.5 3217.3 3555.2 3225.5 3561.5 3233.9 3567.5 3242.6 3573.2 3251.4 3578.6 3260.5 3583.6 3269.8 3588.3 3279.2 3592.6 3288.8 3596.6 3298.6 3600.2 3308.5 3603.5 3318.5 3606.3 3328.7 3608.8 3338.9 3611 3349.3 3612.7 3359.7 3614.1 3370.1 3615 3380.6 3615.6 3391.2 3615.8 3401.7 M 3526.8 3194.3 3023.1 2601.6 3615.7 2601.6 M 4462.4 2601.6 4106.8 3668.4 M 4818 3668.4 4462.4 2601.6 M 8016.5 1194.3 8194.3 1194.3 8194.3 601.6 7838.7 601.6 7829.2 601.8 7819.6 602.4 7810.1 603.3 7800.7 604.7 7791.3 606.4 7782 608.5 7772.7 611 7763.6 613.8 7754.6 617 7745.8 620.6 7737.1 624.5 7728.5 628.8 7720.1 633.4 7712 638.3 7704 643.6 7696.3 649.2 7688.7 655 7681.5 661.2 7674.5 667.7 7667.7 674.5 7661.2 681.5 7655 688.7 7649.2 696.3 7643.6 704 7638.3 712 7633.4 720.2 7628.8 728.5 7624.5 737.1 7620.6 745.8 7617 754.6 7613.8 763.6 7611 772.7 7608.5 782 7606.4 791.3 7604.7 800.7 7603.3 810.1 7602.4 819.6 7601.8 829.2 7601.6 838.7 7601.6 1431.3 7601.8 1440.8 7602.4 1450.4 7603.3 1459.9 7604.7 1469.3 7606.4 1478.7 7608.5 1488 7611 1497.3 7613.8 1506.4 7617 1515.4 7620.6 1524.2 7624.5 1532.9 7628.8 1541.5 7633.4 1549.8 7638.3 1558 7643.6 1566 7649.2 1573.7 7655 1581.3 7661.2 1588.5 7667.7 1595.5 7674.5 1602.3 7681.5 1608.8 7688.7 1615 7696.3 1620.8 7704 1626.4 7712 1631.7 7720.1 1636.6 7728.5 1641.2 7737.1 1645.5 7745.8 1649.4 7754.6 1653 7763.6 1656.2 7772.7 1659 7782 1661.5 7791.3 1663.6 7800.7 1665.3 7810.1 1666.7 7819.6 1667.6 7829.1 1668.2 7838.7 1668.4 8194.3 1668.4 M 8820.8 1668.4 8820.8 601.6 M 9413.5 601.6 8820.8 1668.4 M 9413.5 1668.4 9413.5 601.6 M 10040 601.6 10040 1668.4 10336.3 1668.4 10346.9 1668.2 10357.4 1667.6 10368 1666.7 10378.5 1665.4 10388.9 1663.7 10399.3 1661.6 10409.6 1659.2 10419.8 1656.4 10429.9 1653.2 10439.8 1649.7 10449.7 1645.8 10459.4 1641.6 10468.9 1637.1 10478.3 1632.2 10487.5 1626.9 10496.5 1621.4 10505.3 1615.5 10513.9 1609.3 10522.2 1602.8 10530.3 1596 10538.2 1589 10545.8 1581.6 10553.2 1574 10560.2 1566.1 10567 1558 10573.5 1549.7 10579.7 1541.1 10585.6 1532.3 10591.1 1523.3 10596.4 1514.1 10601.3 1504.7 10605.8 1495.2 10610 1485.5 10613.9 1475.6 10617.4 1465.7 10620.6 1455.6 10623.4 1445.4 10625.8 1435.1 10627.9 1424.7 10629.6 1414.3 10630.9 1403.8 10631.8 1393.2 10632.4 1382.7 10632.6 1372.1 M 10632.7 1372.1 10632.7 897.9 M 10632.6 897.9 10632.4 887.3 10631.8 876.8 10630.9 866.2 10629.6 855.7 10627.9 845.3 10625.8 834.9 10623.4 824.6 10620.6 814.4 10617.4 804.3 10613.9 794.4 10610 784.5 10605.8 774.8 10601.3 765.3 10596.4 755.9 10591.1 746.7 10585.6 737.7 10579.7 728.9 10573.5 720.3 10567 712 10560.2 703.9 10553.2 696 10545.8 688.4 10538.2 681 10530.3 674 10522.2 667.2 10513.9 660.7 10505.3 654.5 10496.5 648.6 10487.5 643.1 10478.3 637.8 10468.9 632.9 10459.4 628.4 10449.7 624.2 10439.8 620.3 10429.9 616.8 10419.8 613.6 10409.6 610.8 10399.3 608.4 10388.9 606.3 10378.5 604.6 10368 603.3 10357.4 602.4 10346.9 601.8 10336.3 601.6 10040 601.6 M 11395.1 16179.6 11395.1 17246.4 M 11276.6 16179.6 11513.7 16179.6 M 11513.7 17246.4 11276.6 17246.4 M 12245.3 16179.6 12482.4 16179.6 M 12245.3 16179.6 12235.8 16179.8 12226.2 16180.4 12216.7 16181.3 12207.3 16182.7 12197.9 16184.4 12188.6 16186.5 12179.3 16189 12170.2 16191.8 12161.2 16195 12152.4 16198.6 12143.7 16202.5 12135.1 16206.8 12126.7 16211.4 12118.6 16216.3 12110.6 16221.6 12102.9 16227.2 12095.3 16233 12088.1 16239.2 12081.1 16245.7 12074.3 16252.5 12067.8 16259.5 12061.6 16266.7 12055.8 16274.3 12050.2 16282 12044.9 16290 12040 16298.2 12035.4 16306.5 12031.1 16315.1 12027.2 16323.8 12023.6 16332.6 12020.4 16341.6 12017.6 16350.7 12015.1 16360 12013 16369.3 12011.3 16378.7 12009.9 16388.1 12009 16397.6 12008.4 16407.2 12008.2 16416.7 12008.2 17009.3 12008.4 17018.8 12009 17028.4 12009.9 17037.9 12011.3 17047.3 12013 17056.7 12015.1 17066 12017.6 17075.3 12020.4 17084.4 12023.6 17093.4 12027.2 17102.2 12031.1 17110.9 12035.4 17119.5 12040 17127.8 12044.9 17136 12050.2 17144 12055.8 17151.7 12061.6 17159.3 12067.8 17166.5 12074.3 17173.5 12081.1 17180.3 12088.1 17186.8 12095.3 17193 12102.9 17198.8 12110.6 17204.4 12118.6 17209.7 12126.7 17214.6 12135.1 17219.2 12143.7 17223.5 12152.4 17227.4 12161.2 17231 12170.2 17234.2 12179.3 17237 12188.6 17239.5 12197.9 17241.6 12207.3 17243.3 12216.7 17244.7 12226.2 17245.6 12235.7 17246.2 12245.3 17246.4 12482.4 17246.4 M 12965.7 17009.3 13262 17246.4 13262 16179.6 M 12965.7 16179.6 13558.4 16179.6 M 37871.6 16563.4 37871.6 15496.6 M 37871.6 16563.4 38167.9 16563.4 38178.6 16563.2 38189.3 16562.6 38199.9 16561.7 38210.5 16560.3 38221.1 16558.6 38231.6 16556.5 38242 16554 38252.3 16551.1 38262.5 16547.9 38272.6 16544.3 38282.5 16540.3 38292.3 16536 38301.9 16531.3 38311.4 16526.3 38320.7 16521 38329.7 16515.3 38338.6 16509.3 38347.2 16503 38355.6 16496.4 38363.8 16489.4 38371.7 16482.2 38379.3 16474.7 38386.7 16466.9 38393.7 16458.9 38400.5 16450.6 38407 16442.1 38413.1 16433.4 38419 16424.4 38424.5 16415.2 38429.7 16405.9 38434.5 16396.3 38439 16386.6 38443.2 16376.8 38446.9 16366.8 38450.4 16356.6 38453.4 16346.4 38456.1 16336 38458.4 16325.6 38460.3 16315 38461.8 16304.4 38463 16293.8 38463.8 16283.1 38464.2 16272.4 38464.2 16261.8 38463.8 16251.1 38463 16240.4 38461.8 16229.8 38460.3 16219.2 38458.4 16208.6 38456.1 16198.2 38453.4 16187.8 38450.4 16177.6 38446.9 16167.4 38443.2 16157.4 38439 16147.6 38434.5 16137.9 38429.7 16128.3 38424.5 16119 38419 16109.8 38413.1 16100.8 38407 16092.1 38400.5 16083.6 38393.7 16075.3 38386.7 16067.3 38379.3 16059.5 38371.7 16052 38363.8 16044.8 38355.6 16037.8 38347.2 16031.2 38338.6 16024.9 38329.7 16018.9 38320.7 16013.2 38311.4 16007.9 38301.9 16002.9 38292.3 15998.2 38282.5 15993.9 38272.6 15989.9 38262.5 15986.3 38252.3 15983.1 38242 15980.2 38231.6 15977.7 38221.1 15975.6 38210.5 15973.9 38199.9 15972.5 38189.3 15971.6 38178.6 15971 38167.9 15970.8 M 38167.9 15970.7 37871.6 15970.7 M 38227.2 15970.7 38464.3 15496.6 M 39003.6 16326.3 39299.9 16563.4 39299.9 15496.6 M 39003.6 15496.6 39596.2 15496.6 M 37871.6 12483.4 37871.6 11416.6 M 37871.6 12483.4 38167.9 12483.4 38178.6 12483.2 38189.3 12482.6 38199.9 12481.7 38210.5 12480.3 38221.1 12478.6 38231.6 12476.5 38242 12474 38252.3 12471.1 38262.5 12467.9 38272.6 12464.3 38282.5 12460.3 38292.3 12456 38301.9 12451.3 38311.4 12446.3 38320.7 12441 38329.7 12435.3 38338.6 12429.3 38347.2 12423 38355.6 12416.4 38363.8 12409.4 38371.7 12402.2 38379.3 12394.7 38386.7 12386.9 38393.7 12378.9 38400.5 12370.6 38407 12362.1 38413.1 12353.4 38419 12344.4 38424.5 12335.2 38429.7 12325.9 38434.5 12316.3 38439 12306.6 38443.2 12296.8 38446.9 12286.8 38450.4 12276.6 38453.4 12266.4 38456.1 12256 38458.4 12245.6 38460.3 12235 38461.8 12224.4 38463 12213.8 38463.8 12203.1 38464.2 12192.4 38464.2 12181.8 38463.8 12171.1 38463 12160.4 38461.8 12149.8 38460.3 12139.2 38458.4 12128.6 38456.1 12118.2 38453.4 12107.8 38450.4 12097.6 38446.9 12087.4 38443.2 12077.4 38439 12067.6 38434.5 12057.9 38429.7 12048.3 38424.5 12038.9 38419 12029.8 38413.1 12020.8 38407 12012.1 38400.5 12003.6 38393.7 11995.3 38386.7 11987.3 38379.3 11979.5 38371.7 11972 38363.8 11964.8 38355.6 11957.8 38347.2 11951.2 38338.6 11944.9 38329.7 11938.9 38320.7 11933.2 38311.4 11927.9 38301.9 11922.9 38292.3 11918.2 38282.5 11913.9 38272.6 11909.9 38262.5 11906.3 38252.3 11903.1 38242 11900.2 38231.6 11897.7 38221.1 11895.6 38210.5 11893.9 38199.9 11892.5 38189.3 11891.6 38178.6 11891 38167.9 11890.8 M 38167.9 11890.7 37871.6 11890.7 M 38227.2 11890.7 38464.3 11416.6 M 39329.5 12483.4 39339.7 12483.2 39349.9 12482.6 39360.1 12481.6 39370.2 12480.3 39380.3 12478.5 39390.3 12476.4 39400.2 12473.9 39410 12471 39419.6 12467.7 39429.2 12464.1 39438.6 12460.1 39447.8 12455.7 39456.9 12451 39465.8 12445.9 39474.5 12440.6 39482.9 12434.8 39491.2 12428.8 39499.2 12422.5 39506.9 12415.8 39514.4 12408.9 39521.7 12401.6 39528.6 12394.1 39535.3 12386.4 39541.6 12378.4 39547.6 12370.1 39553.4 12361.7 39558.7 12353 39563.8 12344.1 39568.5 12335 39572.9 12325.8 39576.9 12316.4 39580.5 12306.8 39583.8 12297.2 39586.7 12287.4 39589.2 12277.5 39591.3 12267.5 39593.1 12257.4 39594.4 12247.3 39595.4 12237.1 39596 12226.9 39596.2 12216.7 M 39329.5 12483.4 39317.9 12483.2 39306.2 12482.6 39294.6 12481.6 39283.1 12480.2 39271.6 12478.5 39260.1 12476.3 39248.8 12473.7 39237.5 12470.8 39226.3 12467.5 39215.3 12463.8 39204.4 12459.7 39193.6 12455.3 39183 12450.5 39172.6 12445.3 39162.3 12439.8 39152.2 12434 39142.4 12427.8 39132.7 12421.3 39123.3 12414.4 39114.1 12407.2 39105.2 12399.8 39096.5 12392 39088.1 12383.9 39080 12375.6 39072.2 12367 39064.6 12358.1 39057.4 12349 39050.5 12339.6 39043.9 12330 39037.6 12320.2 39031.7 12310.2 39026.1 12300 39020.9 12289.6 39016 12279 39011.5 12268.3 39007.3 12257.4 39003.6 12246.4 M 39507.4 12009.2 39514.9 12016.6 39522.1 12024.3 39529 12032.3 39535.7 12040.5 39542 12048.9 39548 12057.6 39553.7 12066.4 39559.1 12075.5 39564.1 12084.8 39568.8 12094.2 39573.1 12103.8 39577.1 12113.6 39580.7 12123.5 39584 12133.5 39586.8 12143.7 39589.3 12153.9 39591.5 12164.3 39593.2 12174.7 39594.6 12185.1 39595.5 12195.6 39596.1 12206.2 39596.3 12216.7 M 39507.3 12009.3 39003.6 11416.6 39596.2 11416.6 M 37913 29000 38913 29600 37913 30200 37913 29000" fill="none" stroke-width="203.2"/><use xlink:href="#LSrqzPL1kGTZCIaJl4nM_pad-11" x="39098.8" y="29600"/><path d="M 37688.6 30788.6 37688.6 31855.4 37985 31855.4 37995.6 31855.2 38006.1 31854.6 38016.7 31853.7 38027.2 31852.4 38037.6 31850.7 38048 31848.6 38058.3 31846.2 38068.5 31843.4 38078.6 31840.2 38088.5 31836.7 38098.4 31832.8 38108.1 31828.6 38117.6 31824.1 38127 31819.2 38136.2 31813.9 38145.2 31808.4 38154 31802.5 38162.6 31796.3 38170.9 31789.8 38179 31783 38186.9 31776 38194.5 31768.6 38201.9 31761 38208.9 31753.1 38215.7 31745 38222.2 31736.7 38228.4 31728.1 38234.3 31719.3 38239.8 31710.3 38245.1 31701.1 38250 31691.7 38254.5 31682.2 38258.7 31672.5 38262.6 31662.6 38266.1 31652.7 38269.3 31642.6 38272.1 31632.4 38274.5 31622.1 38276.6 31611.7 38278.3 31601.3 38279.6 31590.8 38280.5 31580.2 38281.1 31569.7 38281.3 31559.1 38281.3 31084.9 38281.1 31074.3 38280.5 31063.8 38279.6 31053.2 38278.3 31042.7 38276.6 31032.3 38274.5 31021.9 38272.1 31011.6 38269.3 31001.4 38266.1 30991.3 38262.6 30981.4 38258.7 30971.5 38254.5 30961.8 38250 30952.3 38245.1 30942.9 38239.8 30933.7 38234.3 30924.7 38228.4 30915.9 38222.2 30907.3 38215.7 30899 38208.9 30890.9 38201.9 30883 38194.5 30875.4 38186.9 30868 38179 30861 38170.9 30854.2 38162.6 30847.7 38154 30841.5 38145.2 30835.6 38136.2 30830.1 38127 30824.8 38117.6 30819.9 38108.1 30815.4 38098.4 30811.2 38088.5 30807.3 38078.6 30803.8 38068.5 30800.6 38058.3 30797.8 38048 30795.4 38037.6 30793.3 38027.2 30791.6 38016.7 30790.3 38006.1 30789.4 37995.6 30788.8 37985 30788.6 37688.6 30788.6 M 39195.7 31855.4 39205.9 31855.2 39216.1 31854.6 39226.3 31853.6 39236.4 31852.3 39246.5 31850.5 39256.5 31848.4 39266.4 31845.9 39276.2 31843 39285.8 31839.7 39295.4 31836.1 39304.8 31832.1 39314 31827.7 39323.1 31823 39332 31817.9 39340.7 31812.6 39349.1 31806.8 39357.4 31800.8 39365.4 31794.5 39373.1 31787.8 39380.6 31780.9 39387.9 31773.6 39394.8 31766.1 39401.5 31758.4 39407.8 31750.4 39413.8 31742.1 39419.6 31733.7 39424.9 31725 39430 31716.1 39434.7 31707 39439.1 31697.8 39443.1 31688.4 39446.7 31678.8 39450 31669.2 39452.9 31659.4 39455.4 31649.5 39457.5 31639.5 39459.3 31629.4 39460.6 31619.3 39461.6 31609.1 39462.2 31598.9 39462.4 31588.7 M 39195.7 31855.4 39184.1 31855.2 39172.4 31854.6 39160.8 31853.6 39149.3 31852.2 39137.8 31850.5 39126.3 31848.3 39115 31845.7 39103.7 31842.8 39092.5 31839.5 39081.5 31835.8 39070.6 31831.7 39059.8 31827.3 39049.2 31822.5 39038.8 31817.3 39028.5 31811.8 39018.4 31806 39008.6 31799.8 38998.9 31793.3 38989.5 31786.4 38980.3 31779.2 38971.4 31771.8 38962.7 31764 38954.3 31755.9 38946.2 31747.6 38938.4 31739 38930.8 31730.1 38923.6 31721 38916.7 31711.6 38910.1 31702 38903.8 31692.2 38897.9 31682.2 38892.3 31672 38887.1 31661.6 38882.2 31651 38877.7 31640.3 38873.5 31629.4 38869.8 31618.4 M 39373.6 31381.2 39381.1 31388.6 39388.3 31396.3 39395.2 31404.3 39401.9 31412.5 39408.2 31420.9 39414.2 31429.6 39419.9 31438.4 39425.3 31447.5 39430.3 31456.8 39435 31466.2 39439.3 31475.8 39443.3 31485.6 39446.9 31495.5 39450.2 31505.5 39453 31515.7 39455.5 31525.9 39457.7 31536.3 39459.4 31546.7 39460.8 31557.1 39461.7 31567.6 39462.3 31578.2 39462.5 31588.7 M 39373.5 31381.3 38869.7 30788.6 39462.4 30788.6 M 30506.6 33371.6 30506.6 34438.4 30802.9 34438.4 30813.6 34438.2 30824.3 34437.6 30834.9 34436.7 30845.5 34435.3 30856.1 34433.6 30866.6 34431.5 30877 34429 30887.3 34426.1 30897.5 34422.9 30907.6 34419.3 30917.5 34415.3 30927.3 34411 30936.9 34406.3 30946.4 34401.3 30955.7 34396 30964.7 34390.3 30973.6 34384.3 30982.2 34378 30990.6 34371.4 30998.8 34364.4 31006.7 34357.2 31014.3 34349.7 31021.7 34341.9 31028.7 34333.9 31035.5 34325.6 31042 34317.1 31048.1 34308.4 31054 34299.4 31059.5 34290.3 31064.7 34280.9 31069.5 34271.3 31074 34261.6 31078.2 34251.8 31081.9 34241.8 31085.4 34231.6 31088.4 34221.4 31091.1 34211 31093.4 34200.6 31095.3 34190 31096.8 34179.4 31098 34168.8 31098.8 34158.1 31099.2 34147.4 31099.2 34136.8 31098.8 34126.1 31098 34115.4 31096.8 34104.8 31095.3 34094.2 31093.4 34083.6 31091.1 34073.2 31088.4 34062.8 31085.4 34052.6 31081.9 34042.4 31078.2 34032.4 31074 34022.6 31069.5 34012.9 31064.7 34003.3 31059.5 33994 31054 33984.8 31048.1 33975.8 31042 33967.1 31035.5 33958.6 31028.7 33950.3 31021.7 33942.3 31014.3 33934.5 31006.7 33927 30998.8 33919.8 30990.6 33912.8 30982.2 33906.2 30973.6 33899.9 30964.7 33893.9 30955.7 33888.2 30946.4 33882.9 30936.9 33877.9 30927.3 33873.2 30917.5 33868.9 30907.6 33864.9 30897.5 33861.3 30887.3 33858.1 30877 33855.2 30866.6 33852.7 30856.1 33850.6 30845.5 33848.9 30834.9 33847.5 30824.3 33846.6 30813.6 33846 30802.9 33845.8 M 30802.9 33845.7 30506.6 33845.7 M 30862.2 33845.7 31099.3 33371.6 M 31638.6 33371.6 31934.9 33371.6 31945.6 33371.8 31956.3 33372.4 31966.9 33373.3 31977.5 33374.7 31988.1 33376.4 31998.6 33378.5 32009 33381 32019.3 33383.9 32029.5 33387.1 32039.6 33390.7 32049.5 33394.7 32059.3 33399 32068.9 33403.7 32078.4 33408.7 32087.7 33414 32096.7 33419.7 32105.6 33425.7 32114.2 33432 32122.6 33438.6 32130.8 33445.6 32138.7 33452.8 32146.3 33460.3 32153.7 33468.1 32160.7 33476.1 32167.5 33484.4 32174 33492.9 32180.1 33501.6 32186 33510.6 32191.5 33519.8 32196.7 33529.1 32201.5 33538.7 32206 33548.4 32210.2 33558.2 32213.9 33568.2 32217.4 33578.4 32220.4 33588.6 32223.1 33599 32225.4 33609.4 32227.3 33620 32228.8 33630.6 32230 33641.2 32230.8 33651.9 32231.2 33662.6 32231.2 33673.2 32230.8 33683.9 32230 33694.6 32228.8 33705.2 32227.3 33715.8 32225.4 33726.4 32223.1 33736.8 32220.4 33747.2 32217.4 33757.4 32213.9 33767.6 32210.2 33777.6 32206 33787.4 32201.5 33797.1 32196.7 33806.7 32191.5 33816.1 32186 33825.2 32180.1 33834.2 32174 33842.9 32167.5 33851.4 32160.7 33859.7 32153.7 33867.7 32146.3 33875.5 32138.7 33883 32130.8 33890.2 32122.6 33897.2 32114.2 33903.8 32105.6 33910.1 32096.7 33916.1 32087.7 33921.8 32078.4 33927.1 32068.9 33932.1 32059.3 33936.8 32049.5 33941.1 32039.6 33945.1 32029.5 33948.7 32019.3 33951.9 32009 33954.8 31998.6 33957.3 31988.1 33959.4 31977.5 33961.1 31966.9 33962.5 31956.3 33963.4 31945.6 33964 31934.9 33964.2 M 31994.2 34438.4 31638.6 34438.4 M 31994.2 34438.4 32003.9 34438.2 32013.5 34437.6 32023.1 34436.6 32032.7 34435.2 32042.2 34433.5 32051.7 34431.3 32061 34428.8 32070.2 34425.9 32079.3 34422.6 32088.3 34418.9 32097.1 34414.9 32105.7 34410.5 32114.1 34405.8 32122.4 34400.8 32130.4 34395.4 32138.2 34389.6 32145.8 34383.6 32153.1 34377.3 32160.1 34370.7 32166.9 34363.7 32173.4 34356.6 32179.6 34349.1 32185.4 34341.4 32191 34333.5 32196.2 34325.4 32201.1 34317 32205.7 34308.5 32209.9 34299.8 32213.7 34290.9 32217.2 34281.9 32220.3 34272.7 32223 34263.4 32225.4 34254.1 32227.3 34244.6 32228.9 34235 32230.1 34225.4 32230.9 34215.8 32231.3 34206.1 32231.3 34196.5 32230.9 34186.8 32230.1 34177.2 32228.9 34167.6 32227.3 34158 32225.4 34148.5 32223 34139.2 32220.3 34129.9 32217.2 34120.7 32213.7 34111.7 32209.9 34102.8 32205.7 34094.1 32201.1 34085.6 32196.2 34077.2 32191 34069.1 32185.4 34061.2 32179.6 34053.5 32173.4 34046 32166.9 34038.9 32160.1 34031.9 32153.1 34025.3 32145.8 34019 32138.2 34013 32130.4 34007.2 32122.4 34001.8 32114.1 33996.8 32105.7 33992.1 32097.1 33987.7 32088.3 33983.7 32079.3 33980 32070.2 33976.7 32061 33973.8 32051.7 33971.3 32042.2 33969.1 32032.7 33967.4 32023.1 33966 32013.5 33965 32003.9 33964.4 31994.2 33964.2 M 31994.2 33964.3 31757.1 33964.3 M 27006.6 34438.4 27006.6 33371.6 M 27006.6 34438.4 27302.9 34438.4 27313.6 34438.2 27324.3 34437.6 27334.9 34436.7 27345.5 34435.3 27356.1 34433.6 27366.6 34431.5 27377 34429 27387.3 34426.1 27397.5 34422.9 27407.6 34419.3 27417.5 34415.3 27427.3 34411 27436.9 34406.3 27446.4 34401.3 27455.7 34396 27464.7 34390.3 27473.6 34384.3 27482.2 34378 27490.6 34371.4 27498.8 34364.4 27506.7 34357.2 27514.3 34349.7 27521.7 34341.9 27528.7 34333.9 27535.5 34325.6 27542 34317.1 27548.1 34308.4 27554 34299.4 27559.5 34290.3 27564.7 34280.9 27569.5 34271.3 27574 34261.6 27578.2 34251.8 27581.9 34241.8 27585.4 34231.6 27588.4 34221.4 27591.1 34211 27593.4 34200.6 27595.3 34190 27596.8 34179.4 27598 34168.8 27598.8 34158.1 27599.2 34147.4 27599.2 34136.8 27598.8 34126.1 27598 34115.4 27596.8 34104.8 27595.3 34094.2 27593.4 34083.6 27591.1 34073.2 27588.4 34062.8 27585.4 34052.6 27581.9 34042.4 27578.2 34032.4 27574 34022.6 27569.5 34012.9 27564.7 34003.3 27559.5 33994 27554 33984.8 27548.1 33975.8 27542 33967.1 27535.5 33958.6 27528.7 33950.3 27521.7 33942.3 27514.3 33934.5 27506.7 33927 27498.8 33919.8 27490.6 33912.8 27482.2 33906.2 27473.6 33899.9 27464.7 33893.9 27455.7 33888.2 27446.4 33882.9 27436.9 33877.9 27427.3 33873.2 27417.5 33868.9 27407.6 33864.9 27397.5 33861.3 27387.3 33858.1 27377 33855.2 27366.6 33852.7 27356.1 33850.6 27345.5 33848.9 27334.9 33847.5 27324.3 33846.6 27313.6 33846 27302.9 33845.8 M 27302.9 33845.7 27006.6 33845.7 M 27362.2 33845.7 27599.3 33371.6 M 28138.6 33608.7 28375.6 34438.4 M 28138.6 33608.7 28731.2 33608.7 M 28553.4 33845.7 28553.4 33371.6" fill="none" stroke-width="203.2"/><use xlink:href="#LSrqzPL1kGTZCIaJl4nM_pad-12" x="36125" y="32000"/><path d="M 33331.6 33236.6 33331.6 34303.4 M 33331.6 33236.6 33805.7 33236.6 M 34322.2 33236.6 34796.3 33236.6 M 34322.2 33236.6 34322.2 34303.4 34796.3 34303.4 M 34677.8 33829.3 34322.2 33829.3 M 35309.4 34303.4 35309.4 33236.6 M 35309.4 34303.4 35605.7 34303.4 35616.3 34303.2 35626.8 34302.6 35637.4 34301.7 35647.9 34300.4 35658.3 34298.7 35668.7 34296.6 35679 34294.2 35689.2 34291.4 35699.3 34288.2 35709.2 34284.7 35719.1 34280.8 35728.8 34276.6 35738.3 34272.1 35747.7 34267.2 35756.9 34261.9 35765.9 34256.4 35774.7 34250.5 35783.3 34244.3 35791.6 34237.8 35799.7 34231 35807.6 34224 35815.2 34216.6 35822.6 34209 35829.6 34201.1 35836.4 34193 35842.9 34184.7 35849.1 34176.1 35855 34167.3 35860.5 34158.3 35865.8 34149.1 35870.7 34139.7 35875.2 34130.2 35879.4 34120.5 35883.3 34110.6 35886.8 34100.7 35890 34090.6 35892.8 34080.4 35895.2 34070.1 35897.3 34059.7 35899 34049.3 35900.3 34038.8 35901.2 34028.2 35901.8 34017.7 35902 34007.1 M 35902.1 34007.1 35902.1 33532.9 M 35902 33532.9 35901.8 33522.3 35901.2 33511.8 35900.3 33501.2 35899 33490.7 35897.3 33480.3 35895.2 33469.9 35892.8 33459.6 35890 33449.4 35886.8 33439.3 35883.3 33429.4 35879.4 33419.5 35875.2 33409.8 35870.7 33400.3 35865.8 33390.9 35860.5 33381.7 35855 33372.7 35849.1 33363.9 35842.9 33355.3 35836.4 33347 35829.6 33338.9 35822.6 33331 35815.2 33323.4 35807.6 33316 35799.7 33309 35791.6 33302.2 35783.3 33295.7 35774.7 33289.5 35765.9 33283.6 35756.9 33278.1 35747.7 33272.8 35738.3 33267.9 35728.8 33263.4 35719.1 33259.2 35709.2 33255.3 35699.3 33251.8 35689.2 33248.6 35679 33245.8 35668.7 33243.4 35658.3 33241.3 35647.9 33239.6 35637.4 33238.3 35626.8 33237.4 35616.3 33236.8 35605.7 33236.6 35309.4 33236.6 M 36490.5 34066.3 36786.8 34303.4 36786.8 33236.6 M 36490.5 33236.6 37083.2 33236.6 M 33230 12843 33830 11843 M 33230 12843 32630 11843 33830 11843" fill="none" stroke-width="203.2"/><use xlink:href="#LSrqzPL1kGTZCIaJl4nM_pad-13" x="33230" y="13028.8"/><path d="M 32474.6 9662.4 32474.6 8595.6 M 32474.6 9662.4 32770.9 9662.4 32781.5 9662.2 32792 9661.6 32802.6 9660.7 32813.1 9659.4 32823.5 9657.7 32833.9 9655.6 32844.2 9653.2 32854.4 9650.4 32864.5 9647.2 32874.4 9643.7 32884.3 9639.8 32894 9635.6 32903.5 9631.1 32912.9 9626.2 32922.1 9620.9 32931.1 9615.4 32939.9 9609.5 32948.5 9603.3 32956.8 9596.8 32964.9 9590 32972.8 9583 32980.4 9575.6 32987.8 9568 32994.8 9560.1 33001.6 9552 33008.1 9543.7 33014.3 9535.1 33020.2 9526.3 33025.7 9517.3 33031 9508.1 33035.9 9498.7 33040.4 9489.2 33044.6 9479.5 33048.5 9469.6 33052 9459.7 33055.2 9449.6 33058 9439.4 33060.4 9429.1 33062.5 9418.7 33064.2 9408.3 33065.5 9397.8 33066.4 9387.2 33067 9376.7 33067.2 9366.1 M 33067.3 9366.1 33067.3 8891.9 M 33067.2 8891.9 33067 8881.3 33066.4 8870.8 33065.5 8860.2 33064.2 8849.7 33062.5 8839.3 33060.4 8828.9 33058 8818.6 33055.2 8808.4 33052 8798.3 33048.5 8788.4 33044.6 8778.5 33040.4 8768.8 33035.9 8759.3 33031 8749.9 33025.7 8740.7 33020.2 8731.7 33014.3 8722.9 33008.1 8714.3 33001.6 8706 32994.8 8697.9 32987.8 8690 32980.4 8682.4 32972.8 8675 32964.9 8668 32956.8 8661.2 32948.5 8654.7 32939.9 8648.5 32931.1 8642.6 32922.1 8637.1 32912.9 8631.8 32903.5 8626.9 32894 8622.4 32884.3 8618.2 32874.4 8614.3 32864.5 8610.8 32854.4 8607.6 32844.2 8604.8 32833.9 8602.4 32823.5 8600.3 32813.1 8598.6 32802.6 8597.3 32792 8596.4 32781.5 8595.8 32770.9 8595.6 32474.6 8595.6 M 33655.7 9425.3 33952 9662.4 33952 8595.6 M 33655.7 8595.6 34248.4 8595.6 M 24791.6 21426.6 24791.6 22493.4 25087.9 22493.4 25098.6 22493.2 25109.3 22492.6 25119.9 22491.7 25130.5 22490.3 25141.1 22488.6 25151.6 22486.5 25162 22484 25172.3 22481.1 25182.5 22477.9 25192.6 22474.3 25202.5 22470.3 25212.3 22466 25221.9 22461.3 25231.4 22456.3 25240.7 22451 25249.7 22445.3 25258.6 22439.3 25267.2 22433 25275.6 22426.4 25283.8 22419.4 25291.7 22412.2 25299.3 22404.7 25306.7 22396.9 25313.7 22388.9 25320.5 22380.6 25327 22372.1 25333.1 22363.4 25339 22354.4 25344.5 22345.2 25349.7 22335.9 25354.5 22326.3 25359 22316.6 25363.2 22306.8 25366.9 22296.8 25370.4 22286.6 25373.4 22276.4 25376.1 22266 25378.4 22255.6 25380.3 22245 25381.8 22234.4 25383 22223.8 25383.8 22213.1 25384.2 22202.4 25384.2 22191.8 25383.8 22181.1 25383 22170.4 25381.8 22159.8 25380.3 22149.2 25378.4 22138.6 25376.1 22128.2 25373.4 22117.8 25370.4 22107.6 25366.9 22097.4 25363.2 22087.4 25359 22077.6 25354.5 22067.9 25349.7 22058.3 25344.5 22049 25339 22039.8 25333.1 22030.8 25327 22022.1 25320.5 22013.6 25313.7 22005.3 25306.7 21997.3 25299.3 21989.5 25291.7 21982 25283.8 21974.8 25275.6 21967.8 25267.2 21961.2 25258.6 21954.9 25249.7 21948.9 25240.7 21943.2 25231.4 21937.9 25221.9 21932.9 25212.3 21928.2 25202.5 21923.9 25192.6 21919.9 25182.5 21916.3 25172.3 21913.1 25162 21910.2 25151.6 21907.7 25141.1 21905.6 25130.5 21903.9 25119.9 21902.5 25109.3 21901.6 25098.6 21901 25087.9 21900.8 M 25087.9 21900.7 24791.6 21900.7 M 25147.2 21900.7 25384.3 21426.6 M 25923.6 22019.3 26279.2 22019.3 26288.7 22019.1 26298.3 22018.5 26307.8 22017.6 26317.2 22016.2 26326.6 22014.5 26335.9 22012.4 26345.2 22009.9 26354.3 22007.1 26363.3 22003.9 26372.1 22000.3 26380.8 21996.4 26389.4 21992.1 26397.8 21987.5 26405.9 21982.6 26413.9 21977.3 26421.6 21971.7 26429.2 21965.9 26436.4 21959.7 26443.4 21953.2 26450.2 21946.4 26456.7 21939.4 26462.9 21932.2 26468.7 21924.6 26474.3 21916.9 26479.6 21908.9 26484.5 21900.8 26489.1 21892.4 26493.4 21883.8 26497.3 21875.1 26500.9 21866.3 26504.1 21857.3 26506.9 21848.2 26509.4 21838.9 26511.5 21829.6 26513.2 21820.2 26514.6 21810.8 26515.5 21801.3 26516.1 21791.7 26516.3 21782.2 M 26516.2 21782.2 26516.2 21722.9 26516 21712.2 26515.4 21701.5 26514.5 21690.9 26513.1 21680.3 26511.4 21669.7 26509.3 21659.2 26506.8 21648.8 26503.9 21638.5 26500.7 21628.3 26497.1 21618.2 26493.1 21608.3 26488.8 21598.5 26484.1 21588.9 26479.1 21579.4 26473.8 21570.1 26468.1 21561.1 26462.1 21552.2 26455.8 21543.6 26449.2 21535.2 26442.2 21527 26435 21519.1 26427.5 21511.5 26419.7 21504.1 26411.7 21497.1 26403.4 21490.3 26394.9 21483.8 26386.2 21477.7 26377.2 21471.8 26368.1 21466.3 26358.7 21461.1 26349.1 21456.3 26339.4 21451.8 26329.6 21447.6 26319.6 21443.9 26309.4 21440.4 26299.2 21437.4 26288.8 21434.7 26278.4 21432.4 26267.8 21430.5 26257.2 21429 26246.6 21427.8 26235.9 21427 26225.2 21426.6 26214.6 21426.6 26203.9 21427 26193.2 21427.8 26182.6 21429 26172 21430.5 26161.4 21432.4 26151 21434.7 26140.6 21437.4 26130.4 21440.4 26120.2 21443.9 26110.2 21447.6 26100.4 21451.8 26090.7 21456.3 26081.1 21461.1 26071.8 21466.3 26062.6 21471.8 26053.6 21477.7 26044.9 21483.8 26036.4 21490.3 26028.1 21497.1 26020.1 21504.1 26012.3 21511.5 26004.8 21519.1 25997.6 21527 25990.6 21535.2 25984 21543.6 25977.7 21552.2 25971.7 21561.1 25966 21570.1 25960.7 21579.4 25955.7 21588.9 25951 21598.5 25946.7 21608.3 25942.7 21618.2 25939.1 21628.3 25935.9 21638.5 25933 21648.8 25930.5 21659.2 25928.4 21669.7 25926.7 21680.3 25925.3 21690.9 25924.4 21701.5 25923.8 21712.2 25923.6 21722.9 25923.6 22019.3 25923.8 22032.8 25924.4 22046.4 25925.3 22059.9 25926.7 22073.3 25928.4 22086.8 25930.5 22100.1 25933 22113.5 25935.9 22126.7 25939.2 22139.8 25942.8 22152.9 25946.8 22165.8 25951.2 22178.6 25955.9 22191.3 25961 22203.9 25966.4 22216.2 25972.2 22228.5 25978.4 22240.5 25984.9 22252.4 25991.7 22264.1 25998.9 22275.6 26006.3 22286.9 26014.1 22298 26022.3 22308.8 26030.7 22319.4 26039.4 22329.8 26048.4 22339.9 26057.7 22349.7 26067.3 22359.3 26077.1 22368.6 26087.2 22377.6 26097.6 22386.3 26108.2 22394.7 26119 22402.9 26130.1 22410.7 26141.4 22418.1 26152.9 22425.3 26164.6 22432.1 26176.5 22438.6 26188.5 22444.8 26200.7 22450.6 26213.1 22456 26225.7 22461.1 26238.4 22465.8 26251.2 22470.2 26264.1 22474.2 26277.2 22477.8 26290.3 22481.1 26303.5 22484 26316.9 22486.5 26330.2 22488.6 26343.7 22490.3 26357.1 22491.7 26370.6 22492.6 26384.2 22493.2 26397.7 22493.4 M 20291.6 16993.4 20291.6 15926.6 M 20291.6 16993.4 20587.9 16993.4 20598.6 16993.2 20609.3 16992.6 20619.9 16991.7 20630.5 16990.3 20641.1 16988.6 20651.6 16986.5 20662 16984 20672.3 16981.1 20682.5 16977.9 20692.6 16974.3 20702.5 16970.3 20712.3 16966 20721.9 16961.3 20731.4 16956.3 20740.7 16951 20749.7 16945.3 20758.6 16939.3 20767.2 16933 20775.6 16926.4 20783.8 16919.4 20791.7 16912.2 20799.3 16904.7 20806.7 16896.9 20813.7 16888.9 20820.5 16880.6 20827 16872.1 20833.1 16863.4 20839 16854.4 20844.5 16845.2 20849.7 16835.9 20854.5 16826.3 20859 16816.6 20863.2 16806.8 20866.9 16796.8 20870.4 16786.6 20873.4 16776.4 20876.1 16766 20878.4 16755.6 20880.3 16745 20881.8 16734.4 20883 16723.8 20883.8 16713.1 20884.2 16702.4 20884.2 16691.8 20883.8 16681.1 20883 16670.4 20881.8 16659.8 20880.3 16649.2 20878.4 16638.6 20876.1 16628.2 20873.4 16617.8 20870.4 16607.6 20866.9 16597.4 20863.2 16587.4 20859 16577.6 20854.5 16567.9 20849.7 16558.3 20844.5 16549 20839 16539.8 20833.1 16530.8 20827 16522.1 20820.5 16513.6 20813.7 16505.3 20806.7 16497.3 20799.3 16489.5 20791.7 16482 20783.8 16474.8 20775.6 16467.8 20767.2 16461.2 20758.6 16454.9 20749.7 16448.9 20740.7 16443.2 20731.4 16437.9 20721.9 16432.9 20712.3 16428.2 20702.5 16423.9 20692.6 16419.9 20682.5 16416.3 20672.3 16413.1 20662 16410.2 20651.6 16407.7 20641.1 16405.6 20630.5 16403.9 20619.9 16402.5 20609.3 16401.6 20598.6 16401 20587.9 16400.8 M 20587.9 16400.7 20291.6 16400.7 M 20647.2 16400.7 20884.3 15926.6 M 21423.6 16874.9 21423.6 16993.4 22016.2 16993.4 21719.9 15926.6 M 19603 29000 20603 29600 19603 30200 19603 29000" fill="none" stroke-width="203.2"/><use xlink:href="#LSrqzPL1kGTZCIaJl4nM_pad-11" x="20788.8" y="29600"/><path d="M 23378.6 29288.6 23378.6 30355.4 23675 30355.4 23685.6 30355.2 23696.1 30354.6 23706.7 30353.7 23717.2 30352.4 23727.6 30350.7 23738 30348.6 23748.3 30346.2 23758.5 30343.4 23768.6 30340.2 23778.5 30336.7 23788.4 30332.8 23798.1 30328.6 23807.6 30324.1 23817 30319.2 23826.2 30313.9 23835.2 30308.4 23844 30302.5 23852.6 30296.3 23860.9 30289.8 23869 30283 23876.9 30276 23884.5 30268.6 23891.9 30261 23898.9 30253.1 23905.7 30245 23912.2 30236.7 23918.4 30228.1 23924.3 30219.3 23929.8 30210.3 23935.1 30201.1 23940 30191.7 23944.5 30182.2 23948.7 30172.5 23952.6 30162.6 23956.1 30152.7 23959.3 30142.6 23962.1 30132.4 23964.5 30122.1 23966.6 30111.7 23968.3 30101.3 23969.6 30090.8 23970.5 30080.2 23971.1 30069.7 23971.3 30059.1 23971.3 29584.9 23971.1 29574.3 23970.5 29563.8 23969.6 29553.2 23968.3 29542.7 23966.6 29532.3 23964.5 29521.9 23962.1 29511.6 23959.3 29501.4 23956.1 29491.3 23952.6 29481.4 23948.7 29471.5 23944.5 29461.8 23940 29452.3 23935.1 29442.9 23929.8 29433.7 23924.3 29424.7 23918.4 29415.9 23912.2 29407.3 23905.7 29399 23898.9 29390.9 23891.9 29383 23884.5 29375.4 23876.9 29368 23869 29361 23860.9 29354.2 23852.6 29347.7 23844 29341.5 23835.2 29335.6 23826.2 29330.1 23817 29324.8 23807.6 29319.9 23798.1 29315.4 23788.4 29311.2 23778.5 29307.3 23768.6 29303.8 23758.5 29300.6 23748.3 29297.8 23738 29295.4 23727.6 29293.3 23717.2 29291.6 23706.7 29290.3 23696.1 29289.4 23685.6 29288.8 23675 29288.6 23378.6 29288.6 M 24559.7 29525.7 24796.8 30355.4 M 24559.7 29525.7 25152.4 29525.7 M 24974.6 29762.7 24974.6 29288.6 M 13006.6 33371.6 13006.6 34438.4 13302.9 34438.4 13313.6 34438.2 13324.3 34437.6 13334.9 34436.7 13345.5 34435.3 13356.1 34433.6 13366.6 34431.5 13377 34429 13387.3 34426.1 13397.5 34422.9 13407.6 34419.3 13417.5 34415.3 13427.3 34411 13436.9 34406.3 13446.4 34401.3 13455.7 34396 13464.7 34390.3 13473.6 34384.3 13482.2 34378 13490.6 34371.4 13498.8 34364.4 13506.7 34357.2 13514.3 34349.7 13521.7 34341.9 13528.7 34333.9 13535.5 34325.6 13542 34317.1 13548.1 34308.4 13554 34299.4 13559.5 34290.3 13564.7 34280.9 13569.5 34271.3 13574 34261.6 13578.2 34251.8 13581.9 34241.8 13585.4 34231.6 13588.4 34221.4 13591.1 34211 13593.4 34200.6 13595.3 34190 13596.8 34179.4 13598 34168.8 13598.8 34158.1 13599.2 34147.4 13599.2 34136.8 13598.8 34126.1 13598 34115.4 13596.8 34104.8 13595.3 34094.2 13593.4 34083.6 13591.1 34073.2 13588.4 34062.8 13585.4 34052.6 13581.9 34042.4 13578.2 34032.4 13574 34022.6 13569.5 34012.9 13564.7 34003.3 13559.5 33994 13554 33984.8 13548.1 33975.8 13542 33967.1 13535.5 33958.6 13528.7 33950.3 13521.7 33942.3 13514.3 33934.5 13506.7 33927 13498.8 33919.8 13490.6 33912.8 13482.2 33906.2 13473.6 33899.9 13464.7 33893.9 13455.7 33888.2 13446.4 33882.9 13436.9 33877.9 13427.3 33873.2 13417.5 33868.9 13407.6 33864.9 13397.5 33861.3 13387.3 33858.1 13377 33855.2 13366.6 33852.7 13356.1 33850.6 13345.5 33848.9 13334.9 33847.5 13324.3 33846.6 13313.6 33846 13302.9 33845.8 M 13302.9 33845.7 13006.6 33845.7 M 13362.2 33845.7 13599.3 33371.6 M 14138.6 33667.9 14138.8 33678.6 14139.4 33689.3 14140.3 33699.9 14141.7 33710.5 14143.4 33721.1 14145.5 33731.6 14148 33742 14150.9 33752.3 14154.1 33762.5 14157.7 33772.6 14161.7 33782.5 14166 33792.3 14170.7 33801.9 14175.7 33811.4 14181 33820.7 14186.7 33829.7 14192.7 33838.6 14199 33847.2 14205.6 33855.6 14212.6 33863.8 14219.8 33871.7 14227.3 33879.3 14235.1 33886.7 14243.1 33893.7 14251.4 33900.5 14259.9 33907 14268.6 33913.1 14277.6 33919 14286.8 33924.5 14296.1 33929.7 14305.7 33934.5 14315.4 33939 14325.2 33943.2 14335.2 33946.9 14345.4 33950.4 14355.6 33953.4 14366 33956.1 14376.4 33958.4 14387 33960.3 14397.6 33961.8 14408.2 33963 14418.9 33963.8 14429.6 33964.2 14440.2 33964.2 14450.9 33963.8 14461.6 33963 14472.2 33961.8 14482.8 33960.3 14493.4 33958.4 14503.8 33956.1 14514.2 33953.4 14524.4 33950.4 14534.6 33946.9 14544.6 33943.2 14554.4 33939 14564.1 33934.5 14573.7 33929.7 14583.1 33924.5 14592.2 33919 14601.2 33913.1 14609.9 33907 14618.4 33900.5 14626.7 33893.7 14634.7 33886.7 14642.5 33879.3 14650 33871.7 14657.2 33863.8 14664.2 33855.6 14670.8 33847.2 14677.1 33838.6 14683.1 33829.7 14688.8 33820.7 14694.1 33811.4 14699.1 33801.9 14703.8 33792.3 14708.1 33782.5 14712.1 33772.6 14715.7 33762.5 14718.9 33752.3 14721.8 33742 14724.3 33731.6 14726.4 33721.1 14728.1 33710.5 14729.5 33699.9 14730.4 33689.3 14731 33678.6 14731.2 33667.9 14731 33657.2 14730.4 33646.5 14729.5 33635.9 14728.1 33625.3 14726.4 33614.7 14724.3 33604.2 14721.8 33593.8 14718.9 33583.5 14715.7 33573.3 14712.1 33563.2 14708.1 33553.3 14703.8 33543.5 14699.1 33533.9 14694.1 33524.4 14688.8 33515.1 14683.1 33506.1 14677.1 33497.2 14670.8 33488.6 14664.2 33480.2 14657.2 33472 14650 33464.1 14642.5 33456.5 14634.7 33449.1 14626.7 33442.1 14618.4 33435.3 14609.9 33428.8 14601.2 33422.7 14592.2 33416.8 14583 33411.3 14573.7 33406.1 14564.1 33401.3 14554.4 33396.8 14544.6 33392.6 14534.6 33388.9 14524.4 33385.4 14514.2 33382.4 14503.8 33379.7 14493.4 33377.4 14482.8 33375.5 14472.2 33374 14461.6 33372.8 14450.9 33372 14440.2 33371.6 14429.6 33371.6 14418.9 33372 14408.2 33372.8 14397.6 33374 14387 33375.5 14376.4 33377.4 14366 33379.7 14355.6 33382.4 14345.4 33385.4 14335.2 33388.9 14325.2 33392.6 14315.4 33396.8 14305.7 33401.3 14296.1 33406.1 14286.8 33411.3 14277.6 33416.8 14268.6 33422.7 14259.9 33428.8 14251.4 33435.3 14243.1 33442.1 14235.1 33449.1 14227.3 33456.5 14219.8 33464.1 14212.6 33472 14205.6 33480.2 14199 33488.6 14192.7 33497.2 14186.7 33506.1 14181 33515.1 14175.7 33524.4 14170.7 33533.9 14166 33543.5 14161.7 33553.3 14157.7 33563.2 14154.1 33573.3 14150.9 33583.5 14148 33593.8 14145.5 33604.2 14143.4 33614.7 14141.7 33625.3 14140.3 33635.9 14139.4 33646.5 14138.8 33657.2 14138.6 33667.9 M 14197.8 34201.3 14198 34211 14198.6 34220.6 14199.6 34230.2 14201 34239.8 14202.7 34249.3 14204.9 34258.8 14207.4 34268.1 14210.3 34277.3 14213.6 34286.4 14217.3 34295.4 14221.3 34304.2 14225.7 34312.8 14230.4 34321.2 14235.4 34329.5 14240.8 34337.5 14246.6 34345.3 14252.6 34352.9 14258.9 34360.2 14265.5 34367.2 14272.5 34374 14279.6 34380.5 14287.1 34386.7 14294.8 34392.5 14302.7 34398.1 14310.8 34403.3 14319.2 34408.2 14327.7 34412.8 14336.4 34417 14345.3 34420.8 14354.3 34424.3 14363.5 34427.4 14372.8 34430.1 14382.1 34432.5 14391.6 34434.4 14401.2 34436 14410.8 34437.2 14420.4 34438 14430.1 34438.4 14439.7 34438.4 14449.4 34438 14459 34437.2 14468.6 34436 14478.2 34434.4 14487.7 34432.5 14497 34430.1 14506.3 34427.4 14515.5 34424.3 14524.5 34420.8 14533.4 34417 14542.1 34412.8 14550.6 34408.2 14559 34403.3 14567.1 34398.1 14575 34392.5 14582.7 34386.7 14590.2 34380.5 14597.3 34374 14604.3 34367.2 14610.9 34360.2 14617.2 34352.9 14623.2 34345.3 14629 34337.5 14634.4 34329.5 14639.4 34321.2 14644.1 34312.8 14648.5 34304.2 14652.5 34295.4 14656.2 34286.4 14659.5 34277.3 14662.4 34268.1 14664.9 34258.8 14667.1 34249.3 14668.8 34239.8 14670.2 34230.2 14671.2 34220.6 14671.8 34211 14672 34201.3 14671.8 34191.6 14671.2 34182 14670.2 34172.4 14668.8 34162.8 14667.1 34153.3 14664.9 34143.8 14662.4 34134.5 14659.5 34125.3 14656.2 34116.2 14652.5 34107.2 14648.5 34098.4 14644.1 34089.8 14639.4 34081.4 14634.4 34073.1 14629 34065.1 14623.2 34057.3 14617.2 34049.7 14610.9 34042.4 14604.3 34035.4 14597.3 34028.6 14590.2 34022.1 14582.7 34015.9 14575 34010.1 14567.1 34004.5 14559 33999.3 14550.6 33994.4 14542.1 33989.8 14533.4 33985.6 14524.5 33981.8 14515.5 33978.3 14506.3 33975.2 14497 33972.5 14487.7 33970.1 14478.2 33968.2 14468.6 33966.6 14459 33965.4 14449.4 33964.6 14439.7 33964.2 14430.1 33964.2 14420.4 33964.6 14410.8 33965.4 14401.2 33966.6 14391.6 33968.2 14382.1 33970.1 14372.8 33972.5 14363.5 33975.2 14354.3 33978.3 14345.3 33981.8 14336.4 33985.6 14327.7 33989.8 14319.2 33994.4 14310.8 33999.3 14302.7 34004.5 14294.8 34010.1 14287.1 34015.9 14279.6 34022.1 14272.5 34028.6 14265.5 34035.4 14258.9 34042.4 14252.6 34049.7 14246.6 34057.3 14240.8 34065.1 14235.4 34073.1 14230.4 34081.4 14225.7 34089.8 14221.3 34098.4 14217.3 34107.2 14213.6 34116.2 14210.3 34125.3 14207.4 34134.5 14204.9 34143.8 14202.7 34153.3 14201 34162.8 14199.6 34172.4 14198.6 34182 14198 34191.6 14197.8 34201.3 M 9006.6 34438.4 9006.6 33371.6 M 9006.6 34438.4 9302.9 34438.4 9313.6 34438.2 9324.3 34437.6 9334.9 34436.7 9345.5 34435.3 9356.1 34433.6 9366.6 34431.5 9377 34429 9387.3 34426.1 9397.5 34422.9 9407.6 34419.3 9417.5 34415.3 9427.3 34411 9436.9 34406.3 9446.4 34401.3 9455.7 34396 9464.7 34390.3 9473.6 34384.3 9482.2 34378 9490.6 34371.4 9498.8 34364.4 9506.7 34357.2 9514.3 34349.7 9521.7 34341.9 9528.7 34333.9 9535.5 34325.6 9542 34317.1 9548.1 34308.4 9554 34299.4 9559.5 34290.3 9564.7 34280.9 9569.5 34271.3 9574 34261.6 9578.2 34251.8 9581.9 34241.8 9585.4 34231.6 9588.4 34221.4 9591.1 34211 9593.4 34200.6 9595.3 34190 9596.8 34179.4 9598 34168.8 9598.8 34158.1 9599.2 34147.4 9599.2 34136.8 9598.8 34126.1 9598 34115.4 9596.8 34104.8 9595.3 34094.2 9593.4 34083.6 9591.1 34073.2 9588.4 34062.8 9585.4 34052.6 9581.9 34042.4 9578.2 34032.4 9574 34022.6 9569.5 34012.9 9564.7 34003.3 9559.5 33994 9554 33984.8 9548.1 33975.8 9542 33967.1 9535.5 33958.6 9528.7 33950.3 9521.7 33942.3 9514.3 33934.5 9506.7 33927 9498.8 33919.8 9490.6 33912.8 9482.2 33906.2 9473.6 33899.9 9464.7 33893.9 9455.7 33888.2 9446.4 33882.9 9436.9 33877.9 9427.3 33873.2 9417.5 33868.9 9407.6 33864.9 9397.5 33861.3 9387.3 33858.1 9377 33855.2 9366.6 33852.7 9356.1 33850.6 9345.5 33848.9 9334.9 33847.5 9324.3 33846.6 9313.6 33846 9302.9 33845.8 M 9302.9 33845.7 9006.6 33845.7 M 9362.2 33845.7 9599.3 33371.6 M 10375.6 33845.7 10731.2 33845.7 M 10375.6 33845.7 10366.1 33845.9 10356.5 33846.5 10347 33847.4 10337.6 33848.8 10328.2 33850.5 10318.9 33852.6 10309.6 33855.1 10300.5 33857.9 10291.5 33861.1 10282.7 33864.7 10274 33868.6 10265.4 33872.9 10257 33877.5 10248.9 33882.4 10240.9 33887.7 10233.2 33893.3 10225.6 33899.1 10218.4 33905.3 10211.4 33911.8 10204.6 33918.6 10198.1 33925.6 10191.9 33932.8 10186.1 33940.4 10180.5 33948.1 10175.2 33956.1 10170.3 33964.3 10165.7 33972.6 10161.4 33981.2 10157.5 33989.9 10153.9 33998.7 10150.7 34007.7 10147.9 34016.8 10145.4 34026.1 10143.3 34035.4 10141.6 34044.8 10140.2 34054.2 10139.3 34063.7 10138.7 34073.3 10138.5 34082.8 M 10138.6 34082.8 10138.6 34142.1 10138.8 34152.8 10139.4 34163.5 10140.3 34174.1 10141.7 34184.7 10143.4 34195.3 10145.5 34205.8 10148 34216.2 10150.9 34226.5 10154.1 34236.7 10157.7 34246.8 10161.7 34256.7 10166 34266.5 10170.7 34276.1 10175.7 34285.6 10181 34294.9 10186.7 34303.9 10192.7 34312.8 10199 34321.4 10205.6 34329.8 10212.6 34338 10219.8 34345.9 10227.3 34353.5 10235.1 34360.9 10243.1 34367.9 10251.4 34374.7 10259.9 34381.2 10268.6 34387.3 10277.6 34393.2 10286.8 34398.7 10296.1 34403.9 10305.7 34408.7 10315.4 34413.2 10325.2 34417.4 10335.2 34421.1 10345.4 34424.6 10355.6 34427.6 10366 34430.3 10376.4 34432.6 10387 34434.5 10397.6 34436 10408.2 34437.2 10418.9 34438 10429.6 34438.4 10440.2 34438.4 10450.9 34438 10461.6 34437.2 10472.2 34436 10482.8 34434.5 10493.4 34432.6 10503.8 34430.3 10514.2 34427.6 10524.4 34424.6 10534.6 34421.1 10544.6 34417.4 10554.4 34413.2 10564.1 34408.7 10573.7 34403.9 10583.1 34398.7 10592.2 34393.2 10601.2 34387.3 10609.9 34381.2 10618.4 34374.7 10626.7 34367.9 10634.7 34360.9 10642.5 34353.5 10650 34345.9 10657.2 34338 10664.2 34329.8 10670.8 34321.4 10677.1 34312.8 10683.1 34303.9 10688.8 34294.9 10694.1 34285.6 10699.1 34276.1 10703.8 34266.5 10708.1 34256.7 10712.1 34246.8 10715.7 34236.7 10718.9 34226.5 10721.8 34216.2 10724.3 34205.8 10726.4 34195.3 10728.1 34184.7 10729.5 34174.1 10730.4 34163.5 10731 34152.8 10731.2 34142.1 10731.2 33845.7 10731 33832.2 10730.4 33818.6 10729.5 33805.1 10728.1 33791.7 10726.4 33778.2 10724.3 33764.9 10721.8 33751.5 10718.9 33738.3 10715.6 33725.2 10712 33712.1 10708 33699.2 10703.6 33686.4 10698.9 33673.7 10693.8 33661.1 10688.4 33648.8 10682.6 33636.5 10676.4 33624.5 10669.9 33612.6 10663.1 33600.9 10655.9 33589.4 10648.5 33578.1 10640.7 33567 10632.5 33556.2 10624.1 33545.6 10615.4 33535.2 10606.4 33525.1 10597.1 33515.3 10587.5 33505.7 10577.7 33496.4 10567.6 33487.4 10557.2 33478.7 10546.6 33470.3 10535.8 33462.1 10524.7 33454.3 10513.4 33446.9 10501.9 33439.7 10490.2 33432.9 10478.3 33426.4 10466.3 33420.2 10454 33414.4 10441.7 33409 10429.1 33403.9 10416.4 33399.2 10403.6 33394.8 10390.7 33390.8 10377.6 33387.2 10364.5 33383.9 10351.3 33381 10337.9 33378.5 10324.6 33376.4 10311.1 33374.7 10297.7 33373.3 10284.2 33372.4 10270.6 33371.8 10257.1 33371.6" fill="none" stroke-width="203.2"/><use xlink:href="#LSrqzPL1kGTZCIaJl4nM_pad-12" x="18125" y="32000"/><path d="M 16831.6 33236.6 16831.6 34303.4 M 16831.6 33236.6 17305.7 33236.6 M 17822.2 33236.6 18296.3 33236.6 M 17822.2 33236.6 17822.2 34303.4 18296.3 34303.4 M 18177.8 33829.3 17822.2 33829.3 M 18809.4 34303.4 18809.4 33236.6 M 18809.4 34303.4 19105.7 34303.4 19116.3 34303.2 19126.8 34302.6 19137.4 34301.7 19147.9 34300.4 19158.3 34298.7 19168.7 34296.6 19179 34294.2 19189.2 34291.4 19199.3 34288.2 19209.2 34284.7 19219.1 34280.8 19228.8 34276.6 19238.3 34272.1 19247.7 34267.2 19256.9 34261.9 19265.9 34256.4 19274.7 34250.5 19283.3 34244.3 19291.6 34237.8 19299.7 34231 19307.6 34224 19315.2 34216.6 19322.6 34209 19329.6 34201.1 19336.4 34193 19342.9 34184.7 19349.1 34176.1 19355 34167.3 19360.5 34158.3 19365.8 34149.1 19370.7 34139.7 19375.2 34130.2 19379.4 34120.5 19383.3 34110.6 19386.8 34100.7 19390 34090.6 19392.8 34080.4 19395.2 34070.1 19397.3 34059.7 19399 34049.3 19400.3 34038.8 19401.2 34028.2 19401.8 34017.7 19402 34007.1 M 19402.1 34007.1 19402.1 33532.9 M 19402 33532.9 19401.8 33522.3 19401.2 33511.8 19400.3 33501.2 19399 33490.7 19397.3 33480.3 19395.2 33469.9 19392.8 33459.6 19390 33449.4 19386.8 33439.3 19383.3 33429.4 19379.4 33419.5 19375.2 33409.8 19370.7 33400.3 19365.8 33390.9 19360.5 33381.7 19355 33372.7 19349.1 33363.9 19342.9 33355.3 19336.4 33347 19329.6 33338.9 19322.6 33331 19315.2 33323.4 19307.6 33316 19299.7 33309 19291.6 33302.2 19283.3 33295.7 19274.7 33289.5 19265.9 33283.6 19256.9 33278.1 19247.7 33272.8 19238.3 33267.9 19228.8 33263.4 19219.1 33259.2 19209.2 33255.3 19199.3 33251.8 19189.2 33248.6 19179 33245.8 19168.7 33243.4 19158.3 33241.3 19147.9 33239.6 19137.4 33238.3 19126.8 33237.4 19116.3 33236.8 19105.7 33236.6 18809.4 33236.6 M 20316.5 34303.4 20326.7 34303.2 20336.9 34302.6 20347.1 34301.6 20357.2 34300.3 20367.3 34298.5 20377.3 34296.4 20387.2 34293.9 20397 34291 20406.6 34287.7 20416.2 34284.1 20425.6 34280.1 20434.8 34275.7 20443.9 34271 20452.8 34265.9 20461.5 34260.6 20469.9 34254.8 20478.2 34248.8 20486.2 34242.5 20493.9 34235.8 20501.4 34228.9 20508.7 34221.6 20515.6 34214.1 20522.3 34206.4 20528.6 34198.4 20534.6 34190.1 20540.4 34181.7 20545.7 34173 20550.8 34164.1 20555.5 34155 20559.9 34145.8 20563.9 34136.4 20567.5 34126.8 20570.8 34117.2 20573.7 34107.4 20576.2 34097.5 20578.3 34087.5 20580.1 34077.4 20581.4 34067.3 20582.4 34057.1 20583 34046.9 20583.2 34036.7 M 20316.5 34303.4 20304.9 34303.2 20293.2 34302.6 20281.6 34301.6 20270.1 34300.2 20258.6 34298.5 20247.1 34296.3 20235.8 34293.7 20224.5 34290.8 20213.3 34287.5 20202.3 34283.8 20191.4 34279.7 20180.6 34275.3 20170 34270.5 20159.6 34265.3 20149.3 34259.8 20139.2 34254 20129.4 34247.8 20119.7 34241.3 20110.3 34234.4 20101.1 34227.2 20092.2 34219.8 20083.5 34212 20075.1 34203.9 20067 34195.6 20059.2 34187 20051.6 34178.1 20044.4 34169 20037.5 34159.6 20030.9 34150 20024.6 34140.2 20018.7 34130.2 20013.1 34120 20007.9 34109.6 20003 34099 19998.5 34088.3 19994.3 34077.4 19990.6 34066.4 M 20494.3 33829.2 20501.8 33836.6 20509 33844.3 20515.9 33852.3 20522.6 33860.5 20528.9 33868.9 20534.9 33877.6 20540.6 33886.4 20546 33895.5 20551 33904.8 20555.7 33914.2 20560 33923.8 20564 33933.6 20567.6 33943.5 20570.9 33953.5 20573.7 33963.7 20576.2 33973.9 20578.4 33984.3 20580.1 33994.7 20581.5 34005.1 20582.4 34015.6 20583 34026.2 20583.2 34036.7 M 20494.3 33829.3 19990.5 33236.6 20583.2 33236.6 M 26120 16483 26720 15483 M 26120 16483 25520 15483 26720 15483" fill="none" stroke-width="203.2"/><use xlink:href="#LSrqzPL1kGTZCIaJl4nM_pad-13" x="26120" y="16668.8"/><path d="M 25364.6 19235.6 25364.6 20302.4 25660.9 20302.4 25671.5 20302.2 25682 20301.6 25692.6 20300.7 25703.1 20299.4 25713.5 20297.7 25723.9 20295.6 25734.2 20293.2 25744.4 20290.4 25754.5 20287.2 25764.4 20283.7 25774.3 20279.8 25784 20275.6 25793.5 20271.1 25802.9 20266.2 25812.1 20260.9 25821.1 20255.4 25829.9 20249.5 25838.5 20243.3 25846.8 20236.8 25854.9 20230 25862.8 20223 25870.4 20215.6 25877.8 20208 25884.8 20200.1 25891.6 20192 25898.1 20183.7 25904.3 20175.1 25910.2 20166.3 25915.7 20157.3 25921 20148.1 25925.9 20138.7 25930.4 20129.2 25934.6 20119.5 25938.5 20109.6 25942 20099.7 25945.2 20089.6 25948 20079.4 25950.4 20069.1 25952.5 20058.7 25954.2 20048.3 25955.5 20037.8 25956.4 20027.2 25957 20016.7 25957.2 20006.1 M 25957.3 20006.1 25957.3 19531.9 M 25957.2 19531.9 25957 19521.3 25956.4 19510.8 25955.5 19500.2 25954.2 19489.7 25952.5 19479.3 25950.4 19468.9 25948 19458.6 25945.2 19448.4 25942 19438.3 25938.5 19428.4 25934.6 19418.5 25930.4 19408.8 25925.9 19399.3 25921 19389.9 25915.7 19380.7 25910.2 19371.7 25904.3 19362.9 25898.1 19354.3 25891.6 19346 25884.8 19337.9 25877.8 19330 25870.4 19322.4 25862.8 19315 25854.9 19308 25846.8 19301.2 25838.5 19294.7 25829.9 19288.5 25821.1 19282.6 25812.1 19277.1 25802.9 19271.8 25793.5 19266.9 25784 19262.4 25774.3 19258.2 25764.4 19254.3 25754.5 19250.8 25744.4 19247.6 25734.2 19244.8 25723.9 19242.4 25713.5 19240.3 25703.1 19238.6 25692.6 19237.3 25682 19236.4 25671.5 19235.8 25660.9 19235.6 25364.6 19235.6 M 26545.7 19235.6 26842 19235.6 26852.7 19235.8 26863.4 19236.4 26874 19237.3 26884.6 19238.7 26895.2 19240.4 26905.7 19242.5 26916.1 19245 26926.4 19247.9 26936.6 19251.1 26946.7 19254.7 26956.6 19258.7 26966.4 19263 26976 19267.7 26985.5 19272.7 26994.8 19278 27003.8 19283.7 27012.7 19289.7 27021.3 19296 27029.7 19302.6 27037.9 19309.6 27045.8 19316.8 27053.4 19324.3 27060.8 19332.1 27067.8 19340.1 27074.6 19348.4 27081.1 19356.9 27087.2 19365.6 27093.1 19374.6 27098.6 19383.8 27103.8 19393.1 27108.6 19402.7 27113.1 19412.4 27117.3 19422.2 27121 19432.2 27124.5 19442.4 27127.5 19452.6 27130.2 19463 27132.5 19473.4 27134.4 19484 27135.9 19494.6 27137.1 19505.2 27137.9 19515.9 27138.3 19526.6 27138.3 19537.2 27137.9 19547.9 27137.1 19558.6 27135.9 19569.2 27134.4 19579.8 27132.5 19590.4 27130.2 19600.8 27127.5 19611.2 27124.5 19621.4 27121 19631.6 27117.3 19641.6 27113.1 19651.4 27108.6 19661.1 27103.8 19670.7 27098.6 19680 27093.1 19689.2 27087.2 19698.2 27081.1 19706.9 27074.6 19715.4 27067.8 19723.7 27060.8 19731.7 27053.4 19739.5 27045.8 19747 27037.9 19754.2 27029.7 19761.2 27021.3 19767.8 27012.7 19774.1 27003.8 19780.1 26994.8 19785.8 26985.5 19791.1 26976 19796.1 26966.4 19800.8 26956.6 19805.1 26946.7 19809.1 26936.6 19812.7 26926.4 19815.9 26916.1 19818.8 26905.7 19821.3 26895.2 19823.4 26884.6 19825.1 26874 19826.5 26863.4 19827.4 26852.7 19828 26842 19828.2 M 26901.3 20302.4 26545.7 20302.4 M 26901.3 20302.4 26911 20302.2 26920.6 20301.6 26930.2 20300.6 26939.8 20299.2 26949.3 20297.5 26958.8 20295.3 26968.1 20292.8 26977.3 20289.9 26986.4 20286.6 26995.4 20282.9 27004.2 20278.9 27012.8 20274.5 27021.2 20269.8 27029.5 20264.8 27037.5 20259.4 27045.3 20253.6 27052.9 20247.6 27060.2 20241.3 27067.2 20234.7 27074 20227.7 27080.5 20220.6 27086.7 20213.1 27092.5 20205.4 27098.1 20197.5 27103.3 20189.4 27108.2 20181 27112.8 20172.5 27117 20163.8 27120.8 20154.9 27124.3 20145.9 27127.4 20136.7 27130.1 20127.4 27132.5 20118.1 27134.4 20108.6 27136 20099 27137.2 20089.4 27138 20079.8 27138.4 20070.1 27138.4 20060.5 27138 20050.8 27137.2 20041.2 27136 20031.6 27134.4 20022 27132.5 20012.5 27130.1 20003.2 27127.4 19993.9 27124.3 19984.7 27120.8 19975.7 27117 19966.8 27112.8 19958.1 27108.2 19949.6 27103.3 19941.2 27098.1 19933.1 27092.5 19925.2 27086.7 19917.5 27080.5 19910 27074 19902.9 27067.2 19895.9 27060.2 19889.3 27052.9 19883 27045.3 19877 27037.5 19871.2 27029.5 19865.8 27021.2 19860.8 27012.8 19856.1 27004.2 19851.7 26995.4 19847.7 26986.4 19844 26977.3 19840.7 26968.1 19837.8 26958.8 19835.3 26949.3 19833.1 26939.8 19831.4 26930.2 19830 26920.6 19829 26911 19828.4 26901.3 19828.2 M 26901.3 19828.3 26664.2 19828.3" fill="none" stroke-width="203.2"/><path d="M 7365 4450 6095 4450 M 7365 4450 8000 3815 8000 2545 7365 1910 M 8000 3815 8635 4450 9905 4450 10540 3815 10540 2545 9905 1910 8635 1910 8000 2545 M 5460 2545 5460 3815 6095 4450 M 5460 2545 6095 1910 7365 1910 M 10540 3815 11175 4450 12445 4450 13080 3815 13080 2545 12445 1910 11175 1910 10540 2545" fill="none" stroke-width="152.4"/><path d="M 561.6 5432.6 561.6 6651.8 900.3 6651.8 911.9 6651.6 923.4 6651 934.9 6650 946.4 6648.6 957.8 6646.9 969.2 6644.7 980.5 6642.2 991.7 6639.2 1002.8 6635.9 1013.7 6632.2 1024.6 6628.2 1035.2 6623.8 1045.8 6619 1056.1 6613.8 1066.3 6608.3 1076.3 6602.5 1086.1 6596.3 1095.6 6589.8 1105 6583 1114 6575.8 1122.9 6568.4 1131.5 6560.6 1139.8 6552.6 1147.8 6544.3 1155.6 6535.7 1163 6526.8 1170.2 6517.8 1177 6508.4 1183.5 6498.9 1189.7 6489.1 1195.5 6479.1 1201 6468.9 1206.2 6458.6 1211 6448 1215.4 6437.4 1219.4 6426.5 1223.1 6415.6 1226.4 6404.5 1229.4 6393.3 1231.9 6382 1234.1 6370.6 1235.8 6359.2 1237.2 6347.7 1238.2 6336.2 1238.8 6324.7 1239 6313.1 1238.8 6301.5 1238.2 6290 1237.2 6278.5 1235.8 6267 1234.1 6255.6 1231.9 6244.2 1229.4 6232.9 1226.4 6221.7 1223.1 6210.6 1219.4 6199.7 1215.4 6188.8 1211 6178.2 1206.2 6167.6 1201 6157.3 1195.5 6147.1 1189.7 6137.1 1183.5 6127.3 1177 6117.8 1170.2 6108.4 1163 6099.4 1155.6 6090.5 1147.8 6081.9 1139.8 6073.6 1131.5 6065.6 1122.9 6057.8 1114 6050.4 1105 6043.2 1095.6 6036.4 1086.1 6029.9 1076.3 6023.7 1066.3 6017.9 1056.1 6012.4 1045.8 6007.2 1035.2 6002.4 1024.6 5998 1013.7 5994 1002.8 5990.3 991.7 5987 980.5 5984 969.2 5981.5 957.8 5979.3 946.4 5977.6 934.9 5976.2 923.4 5975.2 911.9 5974.6 900.3 5974.4 M 900.3 5974.5 561.6 5974.5 M 1772.7 5771.3 1772.7 6313.1 M 1772.6 6313.1 1772.8 6324.7 1773.4 6336.2 1774.4 6347.7 1775.8 6359.2 1777.5 6370.6 1779.7 6382 1782.2 6393.3 1785.2 6404.5 1788.5 6415.6 1792.2 6426.5 1796.2 6437.4 1800.6 6448 1805.4 6458.6 1810.6 6468.9 1816.1 6479.1 1821.9 6489.1 1828.1 6498.9 1834.6 6508.4 1841.4 6517.8 1848.6 6526.8 1856 6535.7 1863.8 6544.3 1871.8 6552.6 1880.1 6560.6 1888.7 6568.4 1897.6 6575.8 1906.6 6583 1916 6589.8 1925.5 6596.3 1935.3 6602.5 1945.3 6608.3 1955.5 6613.8 1965.8 6619 1976.4 6623.8 1987 6628.2 1997.9 6632.2 2008.8 6635.9 2019.9 6639.2 2031.1 6642.2 2042.4 6644.7 2053.8 6646.9 2065.2 6648.6 2076.7 6650 2088.2 6651 2099.7 6651.6 2111.3 6651.8 2122.9 6651.6 2134.4 6651 2145.9 6650 2157.4 6648.6 2168.8 6646.9 2180.2 6644.7 2191.5 6642.2 2202.7 6639.2 2213.8 6635.9 2224.7 6632.2 2235.6 6628.2 2246.2 6623.8 2256.8 6619 2267.1 6613.8 2277.3 6608.3 2287.3 6602.5 2297.1 6596.3 2306.6 6589.8 2316 6583 2325 6575.8 2333.9 6568.4 2342.5 6560.6 2350.8 6552.6 2358.8 6544.3 2366.6 6535.7 2374 6526.8 2381.2 6517.8 2388 6508.4 2394.5 6498.9 2400.7 6489.1 2406.5 6479.1 2412 6468.9 2417.2 6458.6 2422 6448 2426.4 6437.4 2430.4 6426.5 2434.1 6415.6 2437.4 6404.5 2440.4 6393.3 2442.9 6382 2445.1 6370.6 2446.8 6359.2 2448.2 6347.7 2449.2 6336.2 2449.8 6324.7 2450 6313.1 2450 5771.3 2449.8 5759.7 2449.2 5748.2 2448.2 5736.7 2446.8 5725.2 2445.1 5713.8 2442.9 5702.4 2440.4 5691.1 2437.4 5679.9 2434.1 5668.8 2430.4 5657.9 2426.4 5647 2422 5636.4 2417.2 5625.8 2412 5615.5 2406.5 5605.3 2400.7 5595.3 2394.5 5585.5 2388 5576 2381.2 5566.6 2374 5557.6 2366.6 5548.7 2358.8 5540.1 2350.8 5531.8 2342.5 5523.8 2333.9 5516 2325 5508.6 2316 5501.4 2306.6 5494.6 2297.1 5488.1 2287.3 5481.9 2277.3 5476.1 2267.1 5470.6 2256.8 5465.4 2246.2 5460.6 2235.6 5456.2 2224.7 5452.2 2213.8 5448.5 2202.7 5445.2 2191.5 5442.2 2180.2 5439.7 2168.8 5437.5 2157.4 5435.8 2145.9 5434.4 2134.4 5433.4 2122.9 5432.8 2111.3 5432.6 2099.7 5432.8 2088.2 5433.4 2076.7 5434.4 2065.2 5435.8 2053.8 5437.5 2042.4 5439.7 2031.1 5442.2 2019.9 5445.2 2008.8 5448.5 1997.9 5452.2 1987 5456.2 1976.4 5460.6 1965.8 5465.4 1955.5 5470.6 1945.3 5476.1 1935.3 5481.9 1925.5 5488.1 1916 5494.6 1906.6 5501.4 1897.6 5508.6 1888.7 5516 1880.1 5523.8 1871.8 5531.8 1863.8 5540.1 1856 5548.7 1848.6 5557.6 1841.4 5566.6 1834.6 5576 1828.1 5585.5 1821.9 5595.3 1816.1 5605.3 1810.6 5615.5 1805.4 5625.8 1800.6 5636.4 1796.2 5647 1792.2 5657.9 1788.5 5668.8 1785.2 5679.9 1782.2 5691.1 1779.7 5702.4 1777.5 5713.8 1775.8 5725.2 1774.4 5736.7 1773.4 5748.2 1772.8 5759.7 1772.6 5771.3 M 3020.3 6651.8 3291.2 5432.6 3562.2 6245.4 3833.1 5432.6 4104 6651.8 M 4720.6 5432.6 5262.4 5432.6 M 4720.6 5432.6 4720.6 6651.8 5262.4 6651.8 M 5127 6109.9 4720.6 6109.9 M 5838 6651.8 5838 5432.6 M 5838 6651.8 6176.7 6651.8 6188.3 6651.6 6199.8 6651 6211.3 6650 6222.8 6648.6 6234.2 6646.9 6245.6 6644.7 6256.9 6642.2 6268.1 6639.2 6279.2 6635.9 6290.1 6632.2 6301 6628.2 6311.6 6623.8 6322.2 6619 6332.5 6613.8 6342.7 6608.3 6352.7 6602.5 6362.5 6596.3 6372 6589.8 6381.4 6583 6390.4 6575.8 6399.3 6568.4 6407.9 6560.6 6416.2 6552.6 6424.2 6544.3 6432 6535.7 6439.4 6526.8 6446.6 6517.8 6453.4 6508.4 6459.9 6498.9 6466.1 6489.1 6471.9 6479.1 6477.4 6468.9 6482.6 6458.6 6487.4 6448 6491.8 6437.4 6495.8 6426.5 6499.5 6415.6 6502.8 6404.5 6505.8 6393.3 6508.3 6382 6510.5 6370.6 6512.2 6359.2 6513.6 6347.7 6514.6 6336.2 6515.2 6324.7 6515.4 6313.1 6515.2 6301.5 6514.6 6290 6513.6 6278.5 6512.2 6267 6510.5 6255.6 6508.3 6244.2 6505.8 6232.9 6502.8 6221.7 6499.5 6210.6 6495.8 6199.7 6491.8 6188.8 6487.4 6178.2 6482.6 6167.6 6477.4 6157.3 6471.9 6147.1 6466.1 6137.1 6459.9 6127.3 6453.4 6117.8 6446.6 6108.4 6439.4 6099.4 6432 6090.5 6424.2 6081.9 6416.2 6073.6 6407.9 6065.6 6399.3 6057.8 6390.4 6050.4 6381.4 6043.2 6372 6036.4 6362.5 6029.9 6352.7 6023.7 6342.7 6017.9 6332.5 6012.4 6322.2 6007.2 6311.6 6002.4 6301 5998 6290.1 5994 6279.2 5990.3 6268.1 5987 6256.9 5984 6245.6 5981.5 6234.2 5979.3 6222.8 5977.6 6211.3 5976.2 6199.8 5975.2 6188.3 5974.6 6176.7 5974.4 M 6176.7 5974.5 5838 5974.5 M 6244.4 5974.5 6515.3 5432.6" fill="none" stroke-width="203.2"/><path d="M 23540 38635 24175 39270 25445 39270 26080 38635 26080 37365 25445 36730 24175 36730 23540 37365 M 20365 39270 19095 39270 M 20365 39270 21000 38635 21000 37365 20365 36730 M 21000 38635 21635 39270 22905 39270 23540 38635 23540 37365 22905 36730 21635 36730 21000 37365 M 18460 37365 18460 38635 19095 39270 M 18460 37365 19095 36730 20365 36730 M 26715 39270 27985 39270 28620 38635 28620 37365 27985 36730 M 26080 38635 26715 39270 M 26080 37365 26715 36730 27985 36730" fill="none" stroke-width="152.4"/><path d="M 23738.9 40523.5 23738.7 40513.4 23738.1 40503.3 23737.2 40493.2 23735.9 40483.1 23734.2 40473.1 23732.1 40463.2 23729.7 40453.4 23726.9 40443.7 23723.7 40434 23720.2 40424.5 23716.3 40415.2 23712.1 40406 23707.5 40396.9 23702.6 40388.1 23697.4 40379.4 23691.8 40370.9 23686 40362.6 23679.8 40354.6 23673.3 40346.8 23666.6 40339.2 23659.6 40331.9 23652.3 40324.9 23644.7 40318.2 23636.9 40311.7 23628.9 40305.5 23620.6 40299.7 23612.1 40294.1 23603.5 40288.9 23594.6 40284 23585.5 40279.4 23576.3 40275.2 23567 40271.3 23557.5 40267.8 23547.8 40264.6 23538.1 40261.8 23528.3 40259.4 23518.4 40257.3 23508.4 40255.6 23498.3 40254.3 23488.2 40253.4 23478.1 40252.8 23468 40252.6 23452.9 40252.8 23437.9 40253.4 23422.9 40254.4 23407.9 40255.8 23392.9 40257.5 23378 40259.7 23363.1 40262.3 23348.4 40265.2 23333.7 40268.6 23319.1 40272.3 23304.6 40276.4 23290.2 40280.9 23276 40285.8 23261.8 40291 23247.8 40296.6 23234 40302.6 23220.4 40308.9 23206.9 40315.6 23193.5 40322.7 23180.4 40330.1 23167.5 40337.8 23154.8 40345.9 23142.3 40354.3 23130 40363 23118 40372.1 23106.2 40381.5 23094.6 40391.1 23083.3 40401.1 23072.3 40411.4 23061.6 40421.9 M 23095.5 41200.9 23095.7 41211 23096.3 41221.1 23097.2 41231.2 23098.5 41241.3 23100.2 41251.3 23102.3 41261.2 23104.7 41271 23107.5 41280.7 23110.7 41290.4 23114.2 41299.9 23118.1 41309.2 23122.3 41318.4 23126.9 41327.5 23131.8 41336.4 23137 41345 23142.6 41353.5 23148.4 41361.8 23154.6 41369.8 23161.1 41377.6 23167.8 41385.2 23174.8 41392.5 23182.1 41399.5 23189.7 41406.2 23197.5 41412.7 23205.5 41418.9 23213.8 41424.7 23222.3 41430.3 23231 41435.5 23239.8 41440.4 23248.9 41445 23258.1 41449.2 23267.4 41453.1 23276.9 41456.6 23286.6 41459.8 23296.3 41462.6 23306.1 41465 23316 41467.1 23326 41468.8 23336.1 41470.1 23346.2 41471 23356.3 41471.6 23366.4 41471.8 23380.6 41471.6 23394.8 41471 23409 41470 23423.1 41468.6 23437.2 41466.8 23451.3 41464.7 23465.3 41462.1 23479.2 41459.1 23493 41455.8 23506.7 41452 23520.3 41447.9 23533.8 41443.4 23547.1 41438.6 23560.3 41433.3 23573.4 41427.7 23586.3 41421.7 23599 41415.4 23611.6 41408.7 23623.9 41401.7 23636.1 41394.3 23648 41386.6 23659.7 41378.6 23671.2 41370.2 M 23230.9 40963.8 23222.2 40969.1 23213.7 40974.8 23205.4 40980.8 23197.4 40987.1 23189.6 40993.6 23182 41000.5 23174.7 41007.6 23167.7 41015 23160.9 41022.7 23154.5 41030.6 23148.3 41038.7 23142.4 41047 23136.9 41055.6 23131.7 41064.4 23126.8 41073.3 23122.2 41082.4 23118 41091.7 23114.1 41101.2 23110.6 41110.8 23107.4 41120.5 23104.6 41130.3 23102.2 41140.2 23100.1 41150.2 23098.4 41160.2 23097.1 41170.3 23096.2 41180.5 23095.6 41190.7 23095.4 41200.9 M 23603.5 40760.6 23612.2 40755.3 23620.7 40749.6 23629 40743.6 23637 40737.3 23644.8 40730.8 23652.4 40723.9 23659.7 40716.8 23666.7 40709.4 23673.5 40701.7 23679.9 40693.8 23686.1 40685.7 23692 40677.4 23697.5 40668.8 23702.7 40660 23707.6 40651.1 23712.2 40642 23716.4 40632.7 23720.3 40623.2 23723.8 40613.6 23727 40603.9 23729.8 40594.1 23732.2 40584.2 23734.3 40574.2 23736 40564.2 23737.3 40554.1 23738.2 40543.9 23738.8 40533.7 23739 40523.5 M 23603.5 40760.6 23230.9 40963.8 M 24381.7 41471.8 24381.7 40252.6 M 24246.3 40252.6 24517.2 40252.6 M 24517.2 41471.8 24246.3 41471.8 M 25584 40929.9 25787.2 40929.9 25787.2 40252.6 25380.8 40252.6 25370.7 40252.8 25360.6 40253.4 25350.5 40254.3 25340.4 40255.6 25330.4 40257.3 25320.5 40259.4 25310.7 40261.8 25301 40264.6 25291.3 40267.8 25281.8 40271.3 25272.5 40275.2 25263.3 40279.4 25254.2 40284 25245.4 40288.9 25236.7 40294.1 25228.2 40299.7 25219.9 40305.5 25211.9 40311.7 25204.1 40318.2 25196.5 40324.9 25189.2 40331.9 25182.2 40339.2 25175.5 40346.8 25169 40354.6 25162.8 40362.6 25157 40370.9 25151.4 40379.4 25146.2 40388.1 25141.3 40396.9 25136.7 40406 25132.5 40415.2 25128.6 40424.5 25125.1 40434 25121.9 40443.7 25119.1 40453.4 25116.7 40463.2 25114.6 40473.1 25112.9 40483.1 25111.6 40493.2 25110.7 40503.3 25110.1 40513.4 25109.9 40523.5 25109.9 41200.9 25110.1 41211.3 25110.7 41221.6 25111.7 41232 25113.1 41242.3 25114.9 41252.5 25117 41262.6 25119.6 41272.7 25122.5 41282.6 25125.8 41292.5 25129.5 41302.2 25133.6 41311.7 25138 41321.1 25142.8 41330.3 25147.9 41339.3 25153.4 41348.2 25159.2 41356.8 25165.4 41365.1 25171.8 41373.3 25178.6 41381.1 25185.6 41388.7 25192.9 41396.1 25200.6 41403.1 25208.4 41409.9 25216.6 41416.3 25224.9 41422.5 25233.5 41428.3 25242.4 41433.8 25251.4 41438.9 25260.6 41443.7 25270 41448.1 25279.5 41452.2 25289.2 41455.9 25299.1 41459.2 25309 41462.1 25319.1 41464.7 25329.2 41466.8 25339.4 41468.6 25349.7 41470 25360.1 41471 25370.4 41471.6 25380.8 41471.8 25787.2 41471.8 M 38736.6 40398.4 38736.6 39331.6 M 38736.6 40398.4 39032.9 40398.4 39043.6 40398.2 39054.3 40397.6 39064.9 40396.7 39075.5 40395.3 39086.1 40393.6 39096.6 40391.5 39107 40389 39117.3 40386.1 39127.5 40382.9 39137.6 40379.3 39147.5 40375.3 39157.3 40371 39166.9 40366.3 39176.4 40361.3 39185.7 40356 39194.7 40350.3 39203.6 40344.3 39212.2 40338 39220.6 40331.4 39228.8 40324.4 39236.7 40317.2 39244.3 40309.7 39251.7 40301.9 39258.7 40293.9 39265.5 40285.6 39272 40277.1 39278.1 40268.4 39284 40259.4 39289.5 40250.3 39294.7 40240.9 39299.5 40231.3 39304 40221.6 39308.2 40211.8 39311.9 40201.8 39315.4 40191.6 39318.4 40181.4 39321.1 40171 39323.4 40160.6 39325.3 40150 39326.8 40139.4 39328 40128.8 39328.8 40118.1 39329.2 40107.4 39329.2 40096.8 39328.8 40086.1 39328 40075.4 39326.8 40064.8 39325.3 40054.2 39323.4 40043.6 39321.1 40033.2 39318.4 40022.8 39315.4 40012.6 39311.9 40002.4 39308.2 39992.4 39304 39982.6 39299.5 39972.9 39294.7 39963.3 39289.5 39954 39284 39944.8 39278.1 39935.8 39272 39927.1 39265.5 39918.6 39258.7 39910.3 39251.7 39902.3 39244.3 39894.5 39236.7 39887 39228.8 39879.8 39220.6 39872.8 39212.2 39866.2 39203.6 39859.9 39194.7 39853.9 39185.7 39848.2 39176.4 39842.9 39166.9 39837.9 39157.3 39833.2 39147.5 39828.9 39137.6 39824.9 39127.5 39821.3 39117.3 39818.1 39107 39815.2 39096.6 39812.7 39086.1 39810.6 39075.5 39808.9 39064.9 39807.5 39054.3 39806.6 39043.6 39806 39032.9 39805.8 M 39032.9 39805.7 38736.6 39805.7 M 39092.2 39805.7 39329.3 39331.6 M 39868.6 39331.6 40224.2 39331.6 40233.7 39331.8 40243.3 39332.4 40252.8 39333.3 40262.2 39334.7 40271.6 39336.4 40280.9 39338.5 40290.2 39341 40299.3 39343.8 40308.3 39347 40317.1 39350.6 40325.8 39354.5 40334.4 39358.8 40342.8 39363.4 40350.9 39368.3 40358.9 39373.6 40366.6 39379.2 40374.2 39385 40381.4 39391.2 40388.4 39397.7 40395.2 39404.5 40401.7 39411.5 40407.9 39418.7 40413.7 39426.3 40419.3 39434 40424.6 39442 40429.5 39450.2 40434.1 39458.5 40438.4 39467.1 40442.3 39475.8 40445.9 39484.6 40449.1 39493.6 40451.9 39502.7 40454.4 39512 40456.5 39521.3 40458.2 39530.7 40459.6 39540.1 40460.5 39549.6 40461.1 39559.2 40461.3 39568.7 M 40461.2 39568.7 40461.2 39687.2 M 40461.3 39687.2 40461.1 39696.7 40460.5 39706.3 40459.6 39715.8 40458.2 39725.2 40456.5 39734.6 40454.4 39743.9 40451.9 39753.2 40449.1 39762.3 40445.9 39771.3 40442.3 39780.1 40438.4 39788.8 40434.1 39797.4 40429.5 39805.8 40424.6 39813.9 40419.3 39821.9 40413.7 39829.6 40407.9 39837.2 40401.7 39844.4 40395.2 39851.4 40388.4 39858.2 40381.4 39864.7 40374.2 39870.9 40366.6 39876.7 40358.9 39882.3 40350.9 39887.6 40342.8 39892.5 40334.4 39897.1 40325.8 39901.4 40317.1 39905.3 40308.3 39908.9 40299.3 39912.1 40290.2 39914.9 40280.9 39917.4 40271.6 39919.5 40262.2 39921.2 40252.8 39922.6 40243.3 39923.5 40233.7 39924.1 40224.2 39924.3 39868.6 39924.3 39868.6 40398.4 40461.2 40398.4 M 3466.6 40438.4 3466.6 39371.6 M 3466.6 40438.4 3762.9 40438.4 3773.6 40438.2 3784.3 40437.6 3794.9 40436.7 3805.5 40435.3 3816.1 40433.6 3826.6 40431.5 3837 40429 3847.3 40426.1 3857.5 40422.9 3867.6 40419.3 3877.5 40415.3 3887.3 40411 3896.9 40406.3 3906.4 40401.3 3915.7 40396 3924.7 40390.3 3933.6 40384.3 3942.2 40378 3950.6 40371.4 3958.8 40364.4 3966.7 40357.2 3974.3 40349.7 3981.7 40341.9 3988.7 40333.9 3995.5 40325.6 4002 40317.1 4008.1 40308.4 4014 40299.4 4019.5 40290.3 4024.7 40280.9 4029.5 40271.3 4034 40261.6 4038.2 40251.8 4041.9 40241.8 4045.4 40231.6 4048.4 40221.4 4051.1 40211 4053.4 40200.6 4055.3 40190 4056.8 40179.4 4058 40168.8 4058.8 40158.1 4059.2 40147.4 4059.2 40136.8 4058.8 40126.1 4058 40115.4 4056.8 40104.8 4055.3 40094.2 4053.4 40083.6 4051.1 40073.2 4048.4 40062.8 4045.4 40052.6 4041.9 40042.4 4038.2 40032.4 4034 40022.6 4029.5 40012.9 4024.7 40003.3 4019.5 39994 4014 39984.8 4008.1 39975.8 4002 39967.1 3995.5 39958.6 3988.7 39950.3 3981.7 39942.3 3974.3 39934.5 3966.7 39927 3958.8 39919.8 3950.6 39912.8 3942.2 39906.2 3933.6 39899.9 3924.7 39893.9 3915.7 39888.2 3906.4 39882.9 3896.9 39877.9 3887.3 39873.2 3877.5 39868.9 3867.6 39864.9 3857.5 39861.3 3847.3 39858.1 3837 39855.2 3826.6 39852.7 3816.1 39850.6 3805.5 39848.9 3794.9 39847.5 3784.3 39846.6 3773.6 39846 3762.9 39845.8 M 3762.9 39845.7 3466.6 39845.7 M 3822.2 39845.7 4059.3 39371.6 M 4598.6 40201.3 4894.9 40438.4 4894.9 39371.6 M 4598.6 39371.6 5191.2 39371.6 M 5741.6 39905 5741.9 39926 5742.6 39947 5743.9 39967.9 5745.6 39988.8 5747.9 40009.7 5750.6 40030.5 5753.8 40051.2 5757.6 40071.9 5761.8 40092.4 5766.5 40112.9 5771.7 40133.2 5777.4 40153.4 5783.6 40173.5 5790.2 40193.4 5797.4 40213.1 5805 40232.7 5813 40252.1 5821.5 40271.3 5830.5 40290.2 5833.6 40298.7 5837 40307.1 5840.8 40315.3 5845 40323.4 5849.5 40331.3 5854.3 40339 5859.4 40346.5 5864.8 40353.7 5870.5 40360.8 5876.5 40367.6 5882.8 40374.1 5889.3 40380.4 5896.1 40386.4 5903.2 40392.1 5910.4 40397.5 5917.9 40402.7 5925.6 40407.5 5933.5 40412 5941.6 40416.1 5949.8 40419.9 5958.2 40423.4 5966.7 40426.5 5975.3 40429.3 5984 40431.7 5992.9 40433.7 6001.8 40435.4 6010.8 40436.7 6019.8 40437.7 6028.8 40438.2 6037.9 40438.4 6047 40438.2 6056 40437.7 6065 40436.7 6074 40435.4 6082.9 40433.7 6091.8 40431.7 6100.5 40429.3 6109.1 40426.5 6117.6 40423.4 6126 40419.9 6134.2 40416.1 6142.3 40412 6150.2 40407.5 6157.9 40402.7 6165.4 40397.6 6172.6 40392.1 6179.7 40386.4 6186.5 40380.4 6193 40374.1 6199.3 40367.6 6205.3 40360.8 6211 40353.7 6216.4 40346.5 6221.5 40339 6226.3 40331.3 6230.8 40323.4 6235 40315.3 6238.8 40307.1 6242.2 40298.7 6245.3 40290.2 6254.3 40271.3 6262.8 40252.1 6270.8 40232.7 6278.4 40213.1 6285.6 40193.4 6292.2 40173.5 6298.4 40153.4 6304.1 40133.2 6309.3 40112.9 6314 40092.4 6318.2 40071.9 6322 40051.2 6325.2 40030.5 6327.9 40009.7 6330.2 39988.8 6331.9 39967.9 6333.2 39947 6333.9 39926 6334.2 39905 M 5741.6 39905 5741.9 39884 5742.6 39863 5743.9 39842.1 5745.6 39821.2 5747.9 39800.3 5750.6 39779.5 5753.8 39758.8 5757.6 39738.1 5761.8 39717.6 5766.5 39697.1 5771.7 39676.8 5777.4 39656.6 5783.6 39636.5 5790.2 39616.6 5797.4 39596.9 5805 39577.3 5813 39557.9 5821.5 39538.8 5830.5 39519.8 5833.6 39511.3 5837 39502.9 5840.8 39494.7 5845 39486.6 5849.5 39478.7 5854.3 39471 5859.4 39463.5 5864.8 39456.3 5870.5 39449.2 5876.5 39442.4 5882.8 39435.9 5889.3 39429.6 5896.1 39423.6 5903.2 39417.9 5910.4 39412.4 5917.9 39407.3 5925.6 39402.5 5933.5 39398 5941.6 39393.9 5949.8 39390.1 5958.2 39386.6 5966.7 39383.5 5975.3 39380.7 5984 39378.3 5992.9 39376.3 6001.8 39374.6 6010.8 39373.3 6019.8 39372.3 6028.8 39371.8 6037.9 39371.6 M 6245.3 39519.8 6254.3 39538.8 6262.8 39557.9 6270.8 39577.3 6278.4 39596.9 6285.6 39616.6 6292.2 39636.5 6298.4 39656.6 6304.1 39676.8 6309.3 39697.1 6314 39717.6 6318.2 39738.1 6322 39758.8 6325.2 39779.5 6327.9 39800.3 6330.2 39821.2 6331.9 39842.1 6333.2 39863 6333.9 39884 6334.2 39905 M 6245.3 39519.8 6242.2 39511.3 6238.8 39502.9 6235 39494.7 6230.8 39486.6 6226.3 39478.7 6221.5 39471 6216.4 39463.5 6211 39456.3 6205.3 39449.2 6199.3 39442.4 6193 39435.9 6186.5 39429.6 6179.7 39423.6 6172.6 39417.9 6165.4 39412.4 6157.9 39407.3 6150.2 39402.5 6142.3 39398 6134.2 39393.9 6126 39390.1 6117.6 39386.6 6109.1 39383.5 6100.5 39380.7 6091.8 39378.3 6082.9 39376.3 6074 39374.6 6065 39373.3 6056 39372.3 6047 39371.8 6037.9 39371.6 M 5800.8 39608.7 6275 40201.3" fill="none" stroke-width="203.2"/><path d="M 0 0 43013.5 0 43013.5 42250 4000 42250 0 38250 0 27342.8 -378.4 27325.1 -753.9 27274.5 -1123.5 27191.3 -1484.5 27076.3 -1834.1 26930.2 -2169.6 26754.2 -2488.5 26549.6 -2788.3 26318.1 -3066.9 26061.2 -3321.9 25781.1 -3551.6 25479.8 -3754.2 25159.7 -3928.1 24823.1 -4072 24472.6 -4184.8 24110.9 -4265.6 23740.8 -4313.9 23365 -4329.3 22986.5 -4311.6 22608 -4260.9 22232.5 -4177.8 21862.9 -4062.7 21501.9 -3916.6 21152.4 -3740.7 20816.9 -3536.1 20498 -3304.5 20198.1 -3047.7 19919.6 -2767.6 19664.5 -2466.3 19434.8 -2146.1 19232.3 -1809.5 19058.4 -1459.1 18914.5 -1097.4 18801.7 -727.2 18720.8 -351.5 18672.5 0 18657.2 0 0 M 1913.5 22942.6 1906.6 22828 1892.7 22714 1872 22601 1844.6 22489.6 1810.4 22379.9 1769.7 22272.6 1722.5 22167.9 1669.2 22066.2 1609.8 21967.9 1544.6 21873.4 1473.7 21783 1397.6 21697.1 1316.4 21615.9 1230.5 21539.8 1140.1 21468.9 1045.6 21403.7 947.3 21344.3 845.6 21291 740.9 21243.8 633.6 21203.1 523.9 21169 412.5 21141.5 299.5 21120.8 185.5 21106.9 70.9 21100 -43.9 21100 -158.5 21106.9 -272.5 21120.8 -385.5 21141.5 -496.9 21169 -606.6 21203.1 -713.9 21243.8 -818.6 21291 -920.3 21344.3 -1018.6 21403.7 -1113.1 21468.9 -1203.5 21539.8 -1289.4 21615.9 -1370.6 21697.1 -1446.7 21783 -1517.6 21873.4 -1582.8 21967.9 -1642.2 22066.2 -1695.5 22167.9 -1742.7 22272.6 -1783.4 22379.9 -1817.6 22489.6 -1845 22601 -1865.7 22714 -1879.6 22828 -1886.5 22942.6 -1886.5 23057.4 -1879.6 23172 -1865.7 23286 -1845 23399 -1817.6 23510.4 -1783.4 23620.1 -1742.7 23727.4 -1695.5 23832.1 -1642.2 23933.8 -1582.8 24032.1 -1517.6 24126.6 -1446.7 24217 -1370.6 24302.9 -1289.4 24384.1 -1203.5 24460.2 -1113.1 24531.1 -1018.6 24596.3 -920.3 24655.7 -818.6 24709 -713.9 24756.2 -606.6 24796.9 -496.9 24831.1 -385.5 24858.5 -272.5 24879.2 -158.5 24893.1 -43.9 24900 70.9 24900 185.5 24893.1 299.5 24879.2 412.5 24858.5 523.9 24831.1 633.6 24796.9 740.9 24756.2 845.6 24709 947.3 24655.7 1045.6 24596.3 1140.1 24531.1 1230.5 24460.2 1316.4 24384.1 1397.6 24302.9 1473.7 24217 1544.6 24126.6 1609.8 24032.1 1669.2 23933.8 1722.5 23832.1 1769.7 23727.4 1810.4 23620.1 1844.6 23510.4 1872 23399 1892.7 23286 1906.6 23172 1913.5 23057.4 1913.5 22942.6 M 37913.5 22942.6 37906.6 22828 37892.7 22714 37872 22601 37844.6 22489.6 37810.4 22379.9 37769.7 22272.6 37722.5 22167.9 37669.2 22066.2 37609.8 21967.9 37544.6 21873.4 37473.7 21783 37397.6 21697.1 37316.4 21615.9 37230.5 21539.8 37140.1 21468.9 37045.6 21403.7 36947.3 21344.3 36845.6 21291 36740.9 21243.8 36633.6 21203.1 36523.9 21169 36412.5 21141.5 36299.5 21120.8 36185.5 21106.9 36070.9 21100 35956.1 21100 35841.5 21106.9 35727.5 21120.8 35614.5 21141.5 35503.1 21169 35393.4 21203.1 35286.1 21243.8 35181.4 21291 35079.7 21344.3 34981.4 21403.7 34886.9 21468.9 34796.5 21539.8 34710.6 21615.9 34629.4 21697.1 34553.3 21783 34482.4 21873.4 34417.2 21967.9 34357.8 22066.2 34304.5 22167.9 34257.3 22272.6 34216.6 22379.9 34182.5 22489.6 34155 22601 34134.3 22714 34120.4 22828 34113.5 22942.6 34113.5 23057.4 34120.4 23172 34134.3 23286 34155 23399 34182.5 23510.4 34216.6 23620.1 34257.3 23727.4 34304.5 23832.1 34357.8 23933.8 34417.2 24032.1 34482.4 24126.6 34553.3 24217 34629.4 24302.9 34710.6 24384.1 34796.5 24460.2 34886.9 24531.1 34981.4 24596.3 35079.7 24655.7 35181.4 24709 35286.1 24756.2 35393.4 24796.9 35503.1 24831.1 35614.5 24858.5 35727.5 24879.2 35841.5 24893.1 35956.1 24900 36070.9 24900 36185.5 24893.1 36299.5 24879.2 36412.5 24858.5 36523.9 24831.1 36633.6 24796.9 36740.9 24756.2 36845.6 24709 36947.3 24655.7 37045.6 24596.3 37140.1 24531.1 37230.5 24460.2 37316.4 24384.1 37397.6 24302.9 37473.7 24217 37544.6 24126.6 37609.8 24032.1 37669.2 23933.8 37722.5 23832.1 37769.7 23727.4 37810.4 23620.1 37844.6 23510.4 37872 23399 37892.7 23286 37906.6 23172 37913.5 23057.4 37913.5 22942.6 M 19913.5 22942.6 19906.6 22828 19892.7 22714 19872 22601 19844.6 22489.6 19810.4 22379.9 19769.7 22272.6 19722.5 22167.9 19669.2 22066.2 19609.8 21967.9 19544.6 21873.4 19473.7 21783 19397.6 21697.1 19316.4 21615.9 19230.5 21539.8 19140.1 21468.9 19045.6 21403.7 18947.3 21344.3 18845.6 21291 18740.9 21243.8 18633.6 21203.1 18523.9 21169 18412.5 21141.5 18299.5 21120.8 18185.5 21106.9 18070.9 21100 17956.1 21100 17841.5 21106.9 17727.5 21120.8 17614.5 21141.5 17503.1 21169 17393.4 21203.1 17286.1 21243.8 17181.4 21291 17079.7 21344.3 16981.4 21403.7 16886.9 21468.9 16796.5 21539.8 16710.6 21615.9 16629.4 21697.1 16553.3 21783 16482.4 21873.4 16417.2 21967.9 16357.8 22066.2 16304.5 22167.9 16257.3 22272.6 16216.6 22379.9 16182.5 22489.6 16155 22601 16134.3 22714 16120.4 22828 16113.5 22942.6 16113.5 23057.4 16120.4 23172 16134.3 23286 16155 23399 16182.5 23510.4 16216.6 23620.1 16257.3 23727.4 16304.5 23832.1 16357.8 23933.8 16417.2 24032.1 16482.4 24126.6 16553.3 24217 16629.4 24302.9 16710.6 24384.1 16796.5 24460.2 16886.9 24531.1 16981.4 24596.3 17079.7 24655.7 17181.4 24709 17286.1 24756.2 17393.4 24796.9 17503.1 24831.1 17614.5 24858.5 17727.5 24879.2 17841.5 24893.1 17956.1 24900 18070.9 24900 18185.5 24893.1 18299.5 24879.2 18412.5 24858.5 18523.9 24831.1 18633.6 24796.9 18740.9 24756.2 18845.6 24709 18947.3 24655.7 19045.6 24596.3 19140.1 24531.1 19230.5 24460.2 19316.4 24384.1 19397.6 24302.9 19473.7 24217 19544.6 24126.6 19609.8 24032.1 19669.2 23933.8 19722.5 23832.1 19769.7 23727.4 19810.4 23620.1 19844.6 23510.4 19872 23399 19892.7 23286 19906.6 23172 19913.5 23057.4 19913.5 22942.6 M 18500 31971.9 18493.7 31916.1 18481.2 31861.4 18462.7 31808.4 18438.3 31757.8 18408.4 31710.2 18373.4 31666.3 18333.7 31626.6 18289.8 31591.6 18242.2 31561.7 18191.6 31537.3 18138.6 31518.8 18083.9 31506.3 18028.1 31500 17971.9 31500 17916.1 31506.3 17861.4 31518.8 17808.4 31537.3 17757.8 31561.7 17710.2 31591.6 17666.3 31626.6 17626.6 31666.3 17591.6 31710.2 17561.7 31757.8 17537.3 31808.4 17518.8 31861.4 17506.3 31916.1 17500 31971.9 17500 32028.1 17506.3 32083.9 17518.8 32138.6 17537.3 32191.6 17561.7 32242.2 17591.6 32289.8 17626.6 32333.7 17666.3 32373.4 17710.2 32408.4 17757.8 32438.3 17808.4 32462.7 17861.4 32481.2 17916.1 32493.7 17971.9 32500 18028.1 32500 18083.9 32493.7 18138.6 32481.2 18191.6 32462.7 18242.2 32438.3 18289.8 32408.4 18333.7 32373.4 18373.4 32333.7 18408.4 32289.8 18438.3 32242.2 18462.7 32191.6 18481.2 32138.6 18493.7 32083.9 18500 32028.1 18500 31971.9 M 36500 31971.9 36493.7 31916.1 36481.2 31861.4 36462.7 31808.4 36438.3 31757.8 36408.4 31710.2 36373.4 31666.3 36333.7 31626.6 36289.8 31591.6 36242.2 31561.7 36191.6 31537.3 36138.6 31518.8 36083.9 31506.3 36028.1 31500 35971.9 31500 35916.1 31506.3 35861.4 31518.8 35808.4 31537.3 35757.8 31561.7 35710.2 31591.6 35666.3 31626.6 35626.6 31666.3 35591.6 31710.2 35561.7 31757.8 35537.3 31808.4 35518.8 31861.4 35506.3 31916.1 35500 31971.9 35500 32028.1 35506.3 32083.9 35518.8 32138.6 35537.3 32191.6 35561.7 32242.2 35591.6 32289.8 35626.6 32333.7 35666.3 32373.4 35710.2 32408.4 35757.8 32438.3 35808.4 32462.7 35861.4 32481.2 35916.1 32493.7 35971.9 32500 36028.1 32500 36083.9 32493.7 36138.6 32481.2 36191.6 32462.7 36242.2 32438.3 36289.8 32408.4 36333.7 32373.4 36373.4 32333.7 36408.4 32289.8 36438.3 32242.2 36462.7 32191.6 36481.2 32138.6 36493.7 32083.9 36500 32028.1 36500 31971.9" fill="none" stroke-width="254"/></g></svg>