<svg version="1.1" xmlns="http://www.w3.org/2000/svg" xmlns:xlink="http://www.w3.org/1999/xlink" stroke-linecap="round" stroke-linejoin="round" stroke-width="0" fill-rule="evenodd" width="40.254mm" height="40.254mm" viewBox="-127 -127 40254 40254" id="SCk3TO9t6j3HidVuUY9O"><defs><mask id="SCk3TO9t6j3HidVuUY9O_clear-1" fill="#000" stroke="#000"><g><rect x="0" y="0" width="40000" height="40000" fill="#fff"/><path d="M 36201.6 35000 36798.4 35000 37349.7 35228.4 37771.6 35650.3 38000 36201.6 38000 36798.4 37771.6 37349.7 37349.7 37771.6 36798.4 38000 36201.6 38000 35650.3 37771.6 35228.4 37349.7 35000 36798.4 35000 36201.6 35228.4 35650.3 35650.3 35228.4 36201.6 35000"/><path d="M 3201.6 35000 3798.4 35000 4349.7 35228.4 4771.6 35650.3 5000 36201.6 5000 36798.4 4771.6 37349.7 4349.7 37771.6 3798.4 38000 3201.6 38000 2650.3 37771.6 2228.4 37349.7 2000 36798.4 2000 36201.6 2228.4 35650.3 2650.3 35228.4 3201.6 35000"/><path d="M 20189.8 4425.2 29340.3 4425.2 29580.9 4524.9 31555.1 6499.1 31654.8 6739.8 31654.8 8218.3 31660.4 8246.9 31677.1 8272.1 31696.1 8291.1 31719.2 8306.9 31748.8 8313.5 31778.6 8307.9 31803.9 8291.1 31955 8140 33045 8140 33117.9 8212.9 33142 8229.2 33171.7 8235.2 33900.3 8235.2 34140.9 8334.9 36115.1 10309.1 36214.8 10549.8 36214.8 10673.8 36219.9 10701.3 36236.3 10726.8 36261.3 10744 36291 10750 36455 10750 36660 10955 36660 12545 36491 12714 36475.2 12737.1 36468.7 12766.7 36474.2 12796.5 36491 12821.8 36564 12894.8 36564 13573.8 34556 13573.8 34556 12894.8 34629 12821.8 34644.8 12798.7 34651.3 12769.1 34645.8 12739.3 34629 12714 34460 12545 34460 10955 34630.6 10784.4 34646.4 10761.4 34652.9 10731.7 34647.4 10701.9 34630.6 10676.6 33521.1 9567.1 33496.9 9550.8 33467.2 9544.8 33171.7 9544.8 33143.1 9550.4 33117.9 9567.1 33045 9640 31955 9640 31803.9 9488.9 31780.8 9473.1 31751.2 9466.5 31721.4 9472.1 31696.1 9488.9 31545 9640 30455 9640 30250 9435 30250 8345 30322.9 8272.1 30339.2 8248 30345.2 8218.3 30345.2 7172.8 30339.6 7144.2 30322.9 7118.9 28961.1 5757.1 28936.9 5740.8 28907.2 5734.8 20622.8 5734.8 20594.2 5740.4 20568.9 5757.1 19376.9 6949.1 19360.7 6973.3 19354.6 7003 19354.6 8416 19359.1 8441.8 19374.8 8467.7 19399.4 8485.5 19429 8492.2 19458.9 8486.9 19484.3 8470.4 19501.2 8445.2 19809.7 7700.4 20400.4 7109.7 21172.3 6790 22007.7 6790 22779.6 7109.7 23370.3 7700.4 23690 8472.3 23690 9307.7 23370.3 10079.6 22779.6 10670.3 22291.8 10872.3 22268 10888 22250.8 10913 22244.8 10942.7 22244.8 14535.4 22145.1 14776 18656 18265.1 18640.7 18287.1 18633.8 18316.6 18638.8 18346.5 18655.2 18372 18680.2 18389.2 18709.9 18395.2 18747.2 18395.2 18775.8 18389.6 18801.1 18372.9 22489.1 14684.9 22729.8 14585.2 28070.3 14585.2 28310.9 14684.9 31555.1 17929.1 31654.8 18169.8 31654.8 19648.3 31660.4 19676.9 31677.1 19702.1 31696.1 19721.1 31719.2 19736.9 31748.8 19743.5 31778.6 19737.9 31803.9 19721.1 31955 19570 33045 19570 33117.9 19642.9 33142 19659.2 33171.7 19665.2 33467.2 19665.2 33495.8 19659.6 33521.1 19642.9 34437.7 18726.3 34454 18702.1 34460 18672.4 34460 17155 34629 16986 34644.8 16963 34651.3 16933.3 34645.8 16903.5 34629 16878.2 34556 16805.2 34556 16126.2 36564 16126.2 36564 16805.2 36491 16878.2 36475.2 16901.3 36468.7 16930.9 36474.2 16960.7 36491 16986 36660 17155 36660 18745 36455 18950 36097.6 18950 36069 18955.6 36043.7 18972.3 34140.9 20875.1 33900.3 20974.8 33171.7 20974.8 33143.1 20980.4 33117.9 20997.1 33045 21070 31955 21070 31803.9 20918.9 31780.8 20903.1 31751.2 20896.5 31721.4 20902.1 31696.1 20918.9 31545 21070 30455 21070 30250 20865 30250 19775 30322.9 19702.1 30339.2 19678 30345.2 19648.3 30345.2 18602.8 30339.6 18574.2 30322.9 18548.9 27691.1 15917.1 27666.9 15900.8 27637.2 15894.8 23162.8 15894.8 23134.2 15900.4 23108.9 15917.1 20817.9 18208.1 20802.9 18229.5 20795.7 18258.9 20800.5 18288.9 20816.7 18314.6 20841.5 18331.9 20871.2 18338.2 20901 18332.4 21172.3 18220 22007.7 18220 22779.6 18539.7 23370.3 19130.4 23690 19902.3 23690 20737.7 23370.3 21509.6 22779.6 22100.3 22007.7 22420 21399.1 22420 21372.8 22424.7 21346.9 22440.6 21329.4 22465.4 21322.9 22495 21328.5 22524.8 21345.2 22550.1 22248 23452.9 22272.2 23469.2 22301.9 23475.2 28070.3 23475.2 28310.9 23574.9 31555.1 26819.1 31654.8 27059.8 31654.8 30078.3 31660.4 30106.9 31677.1 30132.1 31696.1 30151.1 31719.2 30166.9 31748.8 30173.5 31778.6 30167.9 31803.9 30151.1 31955 30000 32292.4 30000 32321 29994.4 32346.3 29977.7 33573.9 28750.1 33589.2 28728.1 33596.2 28698.6 33591.1 28668.7 33574.7 28643.2 33549.7 28626 33520 28620 33395 28620 33190 28415 33190 26825 33359 26656 33374.8 26633 33381.3 26603.3 33375.8 26573.5 33359 26548.2 33286 26475.2 33286 25796.2 35294 25796.2 35294 26475.2 35221 26548.2 35205.2 26571.3 35198.7 26600.9 35204.2 26630.7 35221 26656 35390 26825 35390 28415 35185 28620 35021 28620 34993.5 28625.1 34968 28641.5 34950.8 28666.5 34944.8 28696.2 34944.8 29090.3 34845.1 29330.9 33272.3 30903.7 33256 30927.9 33250 30957.6 33250 31295 33045 31500 31955 31500 31803.9 31348.9 31780.8 31333.1 31751.2 31326.5 31721.4 31332.1 31696.1 31348.9 31545 31500 30455 31500 30250 31295 30250 30205 30322.9 30132.1 30339.2 30108 30345.2 30078.3 30345.2 27492.8 30339.6 27464.2 30322.9 27438.9 27691.1 24807.1 27666.9 24790.8 27637.2 24784.8 22171.9 24784.8 22145.5 24789.5 22119.7 24805.4 22102.2 24830.2 22095.7 24859.8 22101.2 24889.6 22118 24914.9 22145.1 24942 22244.8 25182.7 22244.8 29697.3 22250.1 29725.3 22266.7 29750.7 22291.8 29767.7 22779.6 29969.7 23370.3 30560.4 23690 31332.3 23690 32167.7 23370.3 32939.6 22779.6 33530.3 22007.7 33850 21172.3 33850 20400.4 33530.3 19809.7 32939.6 19490 32167.7 19490 31332.3 19809.7 30560.4 20400.4 29969.7 20888.2 29767.7 20912 29752 20929.2 29727 20935.2 29697.3 20935.2 25615.7 20929.6 25587.1 20912.9 25561.8 18888.2 23537.1 18864 23520.8 18834.3 23514.8 18274.8 23514.8 18248.5 23519.5 18222.7 23535.4 18205.1 23560.2 18198.6 23589.8 18204.2 23619.6 18220.9 23644.9 18335.1 23759.1 18434.8 23999.8 18434.8 32717.2 18440.4 32745.8 18457.1 32771.1 20568.9 34882.9 20593.1 34899.2 20622.8 34905.2 28907.2 34905.2 28935.8 34899.6 28961.1 34882.9 30322.9 33521.1 30339.2 33496.9 30345.2 33467.2 30345.2 33421.7 30339.6 33393.1 30322.9 33367.9 30250 33295 30250 32205 30455 32000 31545 32000 31696.1 32151.1 31719.2 32166.9 31748.8 32173.5 31778.6 32167.9 31803.9 32151.1 31955 32000 33045 32000 33117.9 32072.9 33142 32089.2 33171.7 32095.2 34257.2 32095.2 34285.8 32089.6 34311.1 32072.9 37422.9 28961.1 37439.2 28936.9 37445.2 28907.2 37445.2 28696.2 37440.1 28668.7 37423.7 28643.2 37398.7 28626 37369 28620 37205 28620 37000 28415 37000 26825 37169 26656 37184.8 26633 37191.3 26603.3 37185.8 26573.5 37169 26548.2 37096 26475.2 37096 25796.2 39104 25796.2 39104 26475.2 39031 26548.2 39015.2 26571.3 39008.7 26600.9 39014.2 26630.7 39031 26656 39200 26825 39200 28415 38995 28620 38831 28620 38803.5 28625.1 38778 28641.5 38760.8 28666.5 38754.8 28696.2 38754.8 29340.3 38655.1 29580.9 34930.9 33305.1 34690.3 33404.8 33171.7 33404.8 33143.1 33410.4 33117.9 33427.1 33045 33500 31955 33500 31803.9 33348.9 31780.8 33333.1 31751.2 33326.5 31721.4 33332.1 31696.1 33348.9 31677.1 33367.9 31660.8 33392 31654.8 33421.7 31654.8 33900.3 31555.1 34140.9 29580.9 36115.1 29340.3 36214.8 20189.8 36214.8 19949.1 36115.1 17224.9 33390.9 17125.2 33150.3 17125.2 27397 17120.1 27369.5 17103.7 27343.9 17078.7 27326.8 17049 27320.8 16767.5 27320.8 16740 27325.9 16714.5 27342.2 16697.3 27367.2 16691.3 27397 16691.3 29340.3 16591.6 29580.9 16407.4 29765.1 16166.8 29864.8 4251.4 29864.8 4222.8 29870.4 4197.5 29887.1 3931.9 30152.7 3523.2 30322 1556.8 30322 1148.1 30152.7 835.3 29839.9 666 29431.2 666 28988.8 835.3 28580.1 1148.1 28267.3 1556.8 28098 3523.2 28098 3931.9 28267.3 4197.5 28532.9 4221.6 28549.2 4251.4 28555.2 9429 28555.2 9456.5 28550.1 9482 28533.7 9499.2 28508.7 9505.2 28479 9505.2 21892.8 9499.6 21864.2 9482.9 21838.9 8641.1 20997.1 8616.9 20980.8 8587.2 20974.8 8004.1 20974.8 7977.7 20979.5 7951.9 20995.4 7934.4 21020.2 7927.9 21049.8 7933.4 21079.6 7950.2 21104.9 8029.4 21184 8029.4 21513.8 5617.7 21513.8 5617.7 21184 5724.9 21076.8 5740.7 21053.7 5747.2 21024.1 5741.7 20994.3 5724.9 20969 5521.7 20765.7 5521.7 19874.3 5561 19834.9 5576.3 19812.9 5583.3 19783.4 5578.2 19753.5 5561.9 19728 5536.9 19710.8 5507.2 19704.8 4251.4 19704.8 4222.8 19710.4 4197.5 19727.1 3931.9 19992.7 3523.2 20162 1556.8 20162 1148.1 19992.7 835.3 19679.9 666 19271.2 666 18828.8 835.3 18420.1 1148.1 18107.3 1556.8 17938 3523.2 17938 3931.9 18107.3 4197.5 18372.9 4221.6 18389.2 4251.4 18395.2 4585.2 18395.2 4611.5 18390.5 4637.3 18374.6 4654.9 18349.8 4661.4 18320.2 4655.8 18290.4 4639.1 18265.1 3893.5 17519.5 3869.9 17503.5 3840.2 17497.2 3810.5 17503 3523.2 17622 1556.8 17622 1148.1 17452.7 835.3 17139.9 666 16731.2 666 16288.8 835.3 15880.1 1148.1 15567.3 1556.8 15398 3523.2 15398 3931.9 15567.3 4244.7 15880.1 4336.9 16102.7 4353.4 16127.4 5328.9 17102.9 5353.1 17119.2 5382.8 17125.2 5642.9 17125.2 5669.3 17120.5 5695.1 17104.6 5712.6 17079.8 5719.1 17050.2 5713.6 17020.4 5696.8 16995.1 5617.7 16916 5617.7 16586.2 8029.4 16586.2 8029.4 16916 7922.1 17023.2 7906.3 17046.3 7899.8 17075.9 7905.3 17105.7 7922.1 17131 8125.4 17334.3 8125.4 18225.7 7990 18361.1 7974.2 18384.2 7967.6 18413.8 7973.2 18443.6 7990 18468.9 8125.4 18604.3 8125.4 19495.7 8086 19535.1 8070.7 19557.1 8063.7 19586.6 8068.8 19616.5 8085.1 19642 8110.1 19659.2 8139.8 19665.2 9020.3 19665.2 9260.9 19764.9 10715.1 21219.1 10814.8 21459.8 10814.8 28479 10819.9 28506.5 10836.3 28532 10861.3 28549.2 10891 28555.2 15305.5 28555.2 15333 28550.1 15358.5 28533.7 15375.7 28508.7 15381.7 28479 15381.7 27397 15376.6 27369.5 15360.2 27343.9 15335.2 27326.8 15305.5 27320.8 14939.7 27320.8 14734.7 27115.7 14734.7 26224.3 14870 26088.9 14885.8 26065.8 14892.4 26036.2 14886.8 26006.4 14870 25981.1 14734.7 25845.7 14734.7 24954.3 14870 24818.9 14885.8 24795.8 14892.4 24766.2 14886.8 24736.4 14870 24711.1 14734.7 24575.7 14734.7 23684.3 14870 23548.9 14885.8 23525.8 14892.4 23496.2 14886.8 23466.4 14870 23441.1 14734.7 23305.7 14734.7 22414.3 14870 22278.9 14885.8 22255.8 14892.4 22226.2 14886.8 22196.4 14870 22171.1 14734.7 22035.7 14734.7 21144.3 14870 21008.9 14885.8 20985.8 14892.4 20956.2 14886.8 20926.4 14870 20901.1 14734.7 20765.7 14734.7 19874.3 14870 19738.9 14885.8 19715.8 14892.4 19686.2 14886.8 19656.4 14870 19631.1 14734.7 19495.7 14734.7 18604.3 14870 18468.9 14885.8 18445.8 14892.4 18416.2 14886.8 18386.4 14870 18361.1 14734.7 18225.7 14734.7 17334.3 14870 17198.9 14885.8 17175.8 14892.4 17146.2 14886.8 17116.4 14870 17091.1 14734.7 16955.7 14734.7 16064.3 14939.7 15859.3 15305.5 15859.3 15333 15854.1 15358.5 15837.8 15375.7 15812.8 15381.7 15783.1 15381.7 14234.3 15481.4 13993.6 18022.7 11452.3 18039 11428.2 18045 11398.4 18045 6569.9 18144.7 6329.3 19949.1 4524.9 20189.8 4425.2"/><path d="M 26746.2 31826.2 28448 31826.2 28448 31952.1 28293.3 32325.5 28007.5 32611.3 27634.1 32766 26746.2 32766 26746.2 31826.2"/><path d="M 24892 31826.2 26593.8 31826.2 26593.8 32766 25705.9 32766 25332.5 32611.3 25046.7 32325.5 24892 31952.1 24892 31826.2"/><path d="M 25705.9 30734 26593.8 30734 26593.8 31673.8 24892 31673.8 24892 31547.9 25046.7 31174.5 25332.5 30888.7 25705.9 30734"/><path d="M 26746.2 30734 27634.1 30734 28007.5 30888.7 28293.3 31174.5 28448 31547.9 28448 31673.8 26746.2 31673.8 26746.2 30734"/><path d="M 1556.8 20478 3523.2 20478 3931.9 20647.3 4244.7 20960.1 4414 21368.8 4414 21671.5 4419.6 21700.1 4436.3 21725.4 5487.6 22776.7 5509.5 22792 5539 22798.9 5568.9 22793.9 5594.5 22777.5 5611.6 22752.5 5617.7 22722.8 5617.7 22454 5766.4 22305.3 6747.3 22305.3 6747.3 22936.2 8029.4 22936.2 8029.4 23266 7922.1 23373.2 7906.3 23396.3 7899.8 23425.9 7905.3 23455.7 7922.1 23481 8125.4 23684.3 8125.4 24575.7 7990 24711.1 7974.2 24734.2 7967.6 24763.8 7973.2 24793.6 7990 24818.9 8125.4 24954.3 8125.4 25845.7 7990 25981.1 7974.2 26004.2 7967.6 26033.8 7973.2 26063.6 7990 26088.9 8125.4 26224.3 8125.4 27115.7 7920.3 27320.8 6978.7 27320.8 6958.3 27324.8 4251.4 27324.8 4222.8 27330.4 4197.5 27347.1 3931.9 27612.7 3523.2 27782 1556.8 27782 1148.1 27612.7 835.3 27299.9 666 26891.2 666 26448.8 835.3 26040.1 1148.1 25727.3 1556.8 25558 3523.2 25558 3931.9 25727.3 4197.5 25992.9 4221.6 26009.2 4251.4 26015.2 4585.2 26015.2 4611.5 26010.5 4637.3 25994.6 4654.9 25969.8 4661.4 25940.2 4655.8 25910.4 4639.1 25885.1 3893.5 25139.5 3869.9 25123.5 3840.2 25117.2 3810.5 25123 3523.2 25242 1556.8 25242 1148.1 25072.7 835.3 24759.9 666 24351.2 666 23908.8 835.3 23500.1 1148.1 23187.3 1556.8 23018 3523.2 23018 3773 23121.5 3798.5 23127.2 3828.5 23122.6 3854.3 23106.6 3871.8 23081.9 3878.4 23052.3 3872.8 23022.5 3856 22997.2 3583.2 22724.3 3559 22708 3529.3 22702 1556.8 22702 1148.1 22532.7 835.3 22219.9 666 21811.2 666 21368.8 835.3 20960.1 1148.1 20647.3 1556.8 20478"/><path d="M 34366.2 24816 35145.2 24816 35294 24964.8 35294 25643.8 34366.2 25643.8 34366.2 24816"/><path d="M 37244.8 24816 38023.8 24816 38023.8 25643.8 37096 25643.8 37096 24964.8 37244.8 24816"/><path d="M 38176.2 24816 38955.2 24816 39104 24964.8 39104 25643.8 38176.2 25643.8 38176.2 24816"/><path d="M 33434.8 24816 34213.8 24816 34213.8 25643.8 33286 25643.8 33286 24964.8 33434.8 24816"/><path d="M 6899.7 22305.3 7880.6 22305.3 8029.4 22454 8029.4 22783.8 6899.7 22783.8 6899.7 22305.3"/><path d="M 5617.7 21666.2 6747.3 21666.2 6747.3 22144.8 5766.4 22144.8 5617.7 21996 5617.7 21666.2"/><path d="M 6899.7 21666.2 8029.4 21666.2 8029.4 21996 7880.6 22144.8 6899.7 22144.8 6899.7 21666.2"/><path d="M 24892 20396.2 26593.8 20396.2 26593.8 21336 25705.9 21336 25332.5 21181.3 25046.7 20895.5 24892 20522.1 24892 20396.2"/><path d="M 26746.2 20396.2 28448 20396.2 28448 20522.1 28293.3 20895.5 28007.5 21181.3 27634.1 21336 26746.2 21336 26746.2 20396.2"/><path d="M 26746.2 19304 27634.1 19304 28007.5 19458.7 28293.3 19744.5 28448 20117.9 28448 20243.8 26746.2 20243.8 26746.2 19304"/><path d="M 25705.9 19304 26593.8 19304 26593.8 20243.8 24892 20243.8 24892 20117.9 25046.7 19744.5 25332.5 19458.7 25705.9 19304"/><path d="M 6899.7 15955.3 7880.6 15955.3 8029.4 16104 8029.4 16433.8 6899.7 16433.8 6899.7 15955.3"/><path d="M 5766.4 15955.3 6747.3 15955.3 6747.3 16433.8 5617.7 16433.8 5617.7 16104 5766.4 15955.3"/><path d="M 34704.8 15146 35483.8 15146 35483.8 15973.8 34556 15973.8 34556 15294.8 34704.8 15146"/><path d="M 35636.2 15146 36415.2 15146 36564 15294.8 36564 15973.8 35636.2 15973.8 35636.2 15146"/><path d="M 2616.2 14046.2 4318 14046.2 4318 14172.1 4163.3 14545.5 3877.5 14831.3 3504.1 14986 2616.2 14986 2616.2 14046.2"/><path d="M 762 14046.2 2463.8 14046.2 2463.8 14986 1575.9 14986 1202.5 14831.3 916.7 14545.5 762 14172.1 762 14046.2"/><path d="M 34556 13726.2 35483.8 13726.2 35483.8 14554 34704.8 14554 34556 14405.2 34556 13726.2"/><path d="M 35636.2 13726.2 36564 13726.2 36564 14405.2 36415.2 14554 35636.2 14554 35636.2 13726.2"/><path d="M 1575.9 12954 2463.8 12954 2463.8 13893.8 762 13893.8 762 13767.9 916.7 13394.5 1202.5 13108.7 1575.9 12954"/><path d="M 2616.2 12954 3504.1 12954 3877.5 13108.7 4163.3 13394.5 4318 13767.9 4318 13893.8 2616.2 13893.8 2616.2 12954"/><path d="M 5429.1 5918.9 5813.7 5918.9 6085.7 6190.9 6085.7 6299.8 6090.8 6327.3 6107.1 6352.8 6132.1 6370 6161.9 6376 6194.6 6376 6196.6 6378 6212.4 6390.1 6525.6 6571 6542.9 6578.3 6573.1 6580.6 6601.8 6571 6915.1 6390.1 6930.8 6378 6932.9 6376 7698.4 6376 7858 6535.5 7890.9 6554.9 7921.2 6557.3 7949.9 6547.6 8222.8 6390.1 8238.5 6378 8240.6 6376 8432.9 6376 8432.9 6376 8701.4 6376 8841.9 6516.6 8874.9 6536 8905.2 6538.3 8933.9 6528.7 9198.4 6376 9901.5 6376 10033.4 6507.9 10066.4 6527.3 10096.7 6529.7 10125.4 6520 10374.9 6376 10787 6376 11105.4 6559.8 11142.3 6570 11172.1 6564.5 11197.4 6547.7 11369.1 6376 11753.7 6376 11812.3 6434.6 11835.3 6450.4 11864.9 6456.9 11894.8 6451.3 11920 6434.6 11978.6 6376 12363.2 6376 12522.7 6535.5 12555.7 6554.9 12586 6557.3 12614.7 6547.6 12887.6 6390.1 12903.3 6378 12905.3 6376 13097.6 6376 13097.7 6376 13366.2 6376 13438 6447.8 13461.1 6463.6 13490.7 6470.2 13520.5 6464.6 13545.8 6447.8 13617.6 6376 14002.2 6376 14274.2 6648 14274.2 6675.5 14276 6691.7 14288.2 6719.4 14310.2 6740.2 14338.7 6750.8 14369 6749.4 14396.3 6736.3 14416.4 6713.6 14492.4 6582.1 14849.3 6376 15261.4 6376 15618.4 6582.1 15644.7 6591.4 15675 6590 15702.4 6576.9 15713.5 6564.3 16039.8 6376 16212.6 6376 16528.1 6484.9 16548.7 6489 16578.7 6484.6 16592.6 6479.6 16592.6 6479.6 16868.7 6380.2 17162.2 6376.1 17162.2 6376 17401.4 6372.6 17773.7 6673.4 17867.6 7142.7 17712.7 7428.5 17703.5 7466.5 17710.2 7496.1 17785.4 7663.1 17649.1 8022.8 17473.7 8101.7 17222.4 8214.9 16946.9 8218.8 16723 8222 16723 8222 16707.6 8222.2 16585.2 8123.4 16569.3 8113.4 16539.8 8106.5 16509.9 8111.5 16484.3 8127.9 16467.2 8152.9 16461.1 8182.6 16461.1 8404 16189.2 8676 15804.5 8676 15532.5 8404 15532.5 8194.3 15523.5 8158.3 15504.2 8135 15477.2 8121 15447 8118.7 15418.2 8128.3 15261.4 8218.9 14849.3 8218.9 14652.7 8105.4 14615.8 8095.2 14586 8100.7 14560.7 8117.5 14459.4 8218.9 13617.6 8218.9 13545.8 8147 13522.7 8131.2 13493.1 8124.7 13463.3 8130.3 13438 8147 13355.7 8229.3 13339.4 8253.5 13333.4 8283.2 13333.4 8404 13060.4 8677 13039.6 8680.7 13013.8 8696.6 12996.3 8721.4 12989.8 8751 12995.3 8780.8 13012.1 8806.1 13223.8 9017.8 13258.8 9037.8 13289.1 9039.3 13317.6 9028.9 13339.7 9008.2 13352.1 8980.5 13358.4 8951.8 13394.4 8929 13421.6 8898.8 13440.7 8860.6 13560 8820.9 13576.8 8812.9 13682.9 8745.3 13724.5 8754.6 13765.2 8752.5 13805.6 8739 13918.1 8795.3 13935.6 8801.5 14058.2 8828.7 14091.2 8828.7 14213.8 8801.5 14231.3 8795.3 14343.8 8739 14384.3 8752.5 14424.9 8754.6 14466.5 8745.3 14572.6 8812.9 14589.4 8820.9 14708.7 8860.6 14727.8 8898.8 14755 8929 14791 8951.8 14818.3 9074.6 14824.5 9092.2 14880.8 9204.7 14867.3 9245.1 14865.2 9285.7 15179.2 10698.7 14972.7 11023.2 14597.2 11106.7 14272.7 10900.2 14228.8 10702.5 14223.6 10687.1 14205.7 10662.7 14179.6 10647.1 14149.6 10643 14120.3 10650.9 14110.3 10655.9 14098.8 10652 14080.7 10648.3 14050.6 10652 14039.1 10655.9 14029.1 10650.9 14013.9 10645.2 13983.6 10643.7 13955.2 10654.1 13933 10674.8 13920.7 10702.5 13876.7 10900.2 13552.2 11106.7 13176.7 11023.2 13172.5 11016.6 13139.1 10987.8 13109.5 10981.3 13079.6 10986.9 13054.4 11003.6 12982 11076 12597.3 11076 12462.6 10941.3 12439.6 10925.5 12409.9 10918.9 12380.1 10924.5 12354.8 10941.3 12220.1 11076 11835.5 11076 11563.5 10804 11563.5 9628.4 11558.4 9601 11542 9575.4 11517 9558.3 11487.3 9552.2 10683.6 9552.2 10656.1 9557.3 10630.6 9573.7 10613.4 9598.7 10607.4 9628.4 10607.4 10118.3 10605.4 10120.3 10593.3 10136.1 10421.7 10433.2 10124.6 10604.7 10108.8 10616.9 10106.8 10618.9 9341.3 10618.9 9169.5 10447.2 9136.6 10427.8 9106.3 10425.4 9077.6 10435.1 8759.2 10618.9 8347.1 10618.9 8022.4 10431.4 7985.5 10421.2 7955.7 10426.8 7930.4 10443.5 7755 10618.9 6984.9 10618.9 6978 10614.1 6948.5 10607.1 6918.6 10612.2 6893.1 10628.5 6875.9 10653.5 6869.9 10683.3 6869.9 10804 6597.9 11076 5603.8 11076 5331.8 10804 5331.8 9628.4 5326.7 9601 5310.3 9575.4 5285.3 9558.3 5255.6 9552.2 4524.2 9552.2 4496.7 9557.3 4471.2 9573.7 4454 9598.7 4448 9628.4 4448 9750.6 4247.8 10100.8 4238.8 10126.6 4240 10156.9 4253 10184.3 4394.3 10372.7 4339.9 10753.5 4186.1 10868.9 4051.6 10969.7 3732.7 11076 3358.6 11076 2993.8 10865.4 2991.7 10862.9 2964.7 10848.9 2934.5 10846.6 2905.7 10856.2 2525.1 11076 1725.3 11076 1453.3 10804 1453.3 9048 1725.3 8776 1960.9 8776 1977.1 8774.3 2004.9 8762.1 2025.7 8740 2036.2 8711.6 2034.8 8681.3 2021.7 8653.9 1999 8633.8 1679.8 8449.5 1453.3 8057.2 1453.3 6994.8 1679.8 6602.5 2072.1 6376 2525.1 6376 2917.3 6602.5 2928.7 6622.1 2954.5 6648.8 2982.9 6659.3 3013.2 6657.9 3040.6 6644.8 3060.7 6622.1 3095.6 6561.7 3392.7 6390.1 3408.5 6378 3410.5 6376 4176 6376 4335.6 6535.5 4368.6 6554.9 4398.8 6557.3 4427.5 6547.6 4700.4 6390.1 4716.2 6378 4718.2 6376 4910.5 6376 4910.5 6376 5080.9 6376 5108.3 6370.9 5133.9 6354.5 5151 6329.5 5157.1 6299.8 5157.1 6190.9 5429.1 5918.9"/><path d="M 24892 8966.2 26593.8 8966.2 26593.8 9906 25705.9 9906 25332.5 9751.3 25046.7 9465.5 24892 9092.1 24892 8966.2"/><path d="M 26746.2 8966.2 28448 8966.2 28448 9092.1 28293.3 9465.5 28007.5 9751.3 27634.1 9906 26746.2 9906 26746.2 8966.2"/><path d="M 26746.2 7874 27634.1 7874 28007.5 8028.7 28293.3 8314.5 28448 8687.9 28448 8813.8 26746.2 8813.8 26746.2 7874"/><path d="M 25705.9 7874 26593.8 7874 26593.8 8813.8 24892 8813.8 24892 8687.9 25046.7 8314.5 25332.5 8028.7 25705.9 7874"/><path d="M 36201.6 2000 36798.4 2000 37349.7 2228.4 37771.6 2650.3 38000 3201.6 38000 3798.4 37771.6 4349.7 37349.7 4771.6 36798.4 5000 36201.6 5000 35650.3 4771.6 35228.4 4349.7 35000 3798.4 35000 3201.6 35228.4 2650.3 35650.3 2228.4 36201.6 2000"/><path d="M 3201.6 2000 3798.4 2000 4349.7 2228.4 4771.6 2650.3 5000 3201.6 5000 3798.4 4771.6 4349.7 4349.7 4771.6 3798.4 5000 3201.6 5000 2650.3 4771.6 2228.4 4349.7 2000 3798.4 2000 3201.6 2228.4 2650.3 2650.3 2228.4 3201.6 2000"/></g></mask><rect x="-951.85" y="-300.75" width="1903.7" height="601.5" id="SCk3TO9t6j3HidVuUY9O_pad-11"/><rect x="-400" y="-400" width="800" height="800" id="SCk3TO9t6j3HidVuUY9O_pad-13"/><rect x="-750" y="-650" width="1500" height="1300" id="SCk3TO9t6j3HidVuUY9O_pad-14"/><circle cx="0" cy="0" r="1750" id="SCk3TO9t6j3HidVuUY9O_pad-15"/></defs><g transform="translate(0,40000) scale(1,-1)" fill="currentColor" stroke="currentColor"><g mask="url(#SCk3TO9t6j3HidVuUY9O_clear-1)"><path d="M 39953.5 6 39923.8 0 76.2 0 48.7 5.1 23.2 21.5 6 46.5 0 76.2 0 39923.8 5.1 39951.3 21.5 39976.8 46.5 39994 76.2 40000 39923.8 40000 39951.3 39994.9 39976.8 39978.5 39994 39953.5 40000 39923.8 40000 76.2 39994.9 48.7 39978.5 23.2 39953.5 6"/></g><path d="M 1917.6 9240.3 1917.6 10611.7 2298.6 10611.7 2310.8 10611.5 2323 10610.9 2335.2 10609.9 2347.3 10608.6 2359.4 10606.8 2371.4 10604.7 2383.4 10602.2 2395.2 10599.2 2407 10596 2418.6 10592.3 2430.1 10588.3 2441.5 10583.9 2452.8 10579.1 2463.9 10574 2474.8 10568.5 2485.5 10562.7 2496.1 10556.5 2506.4 10550 2516.5 10543.2 2526.4 10536.1 2536.1 10528.6 2545.5 10520.8 2554.7 10512.8 2563.6 10504.4 2572.2 10495.8 2580.6 10486.9 2588.6 10477.7 2596.4 10468.3 2603.9 10458.6 2611 10448.7 2617.8 10438.6 2624.3 10428.3 2630.5 10417.7 2636.3 10407 2641.8 10396.1 2646.9 10385 2651.7 10373.7 2656.1 10362.3 2660.1 10350.8 2663.8 10339.2 2667 10327.4 2670 10315.6 2672.5 10303.6 2674.6 10291.6 2676.4 10279.5 2677.7 10267.4 2678.7 10255.2 2679.3 10243 2679.5 10230.8 2679.3 10218.6 2678.7 10206.4 2677.7 10194.2 2676.4 10182.1 2674.6 10170 2672.5 10158 2670 10146 2667 10134.2 2663.8 10122.4 2660.1 10110.8 2656.1 10099.3 2651.7 10087.9 2646.9 10076.6 2641.8 10065.5 2636.3 10054.6 2630.5 10043.9 2624.3 10033.3 2617.8 10023 2611 10012.9 2603.9 10003 2596.4 9993.3 2588.6 9983.9 2580.6 9974.7 2572.2 9965.8 2563.6 9957.2 2554.7 9948.8 2545.5 9940.8 2536.1 9933 2526.4 9925.5 2516.5 9918.4 2506.4 9911.6 2496.1 9905.1 2485.5 9898.9 2474.8 9893.1 2463.9 9887.6 2452.8 9882.5 2441.5 9877.7 2430.1 9873.3 2418.6 9869.3 2407 9865.6 2395.2 9862.4 2383.4 9859.4 2371.4 9856.9 2359.4 9854.8 2347.3 9853 2335.2 9851.7 2323 9850.7 2310.8 9850.1 2298.6 9849.9 M 2298.6 9849.8 1917.6 9849.8 M 3678.9 9240.3 3689.8 9240.5 3700.6 9241.1 3711.5 9242 3722.3 9243.4 3733 9245.1 3743.7 9247.3 3754.3 9249.8 3764.8 9252.6 3775.2 9255.9 3785.4 9259.5 3795.5 9263.5 3805.5 9267.8 3815.3 9272.5 3825 9277.6 3834.4 9283 3843.7 9288.7 3852.7 9294.7 3861.6 9301.1 3870.2 9307.8 3878.5 9314.7 3886.6 9322 3894.4 9329.6 3902 9337.4 3909.3 9345.5 3916.2 9353.8 3922.9 9362.4 3929.3 9371.3 3935.3 9380.3 3941 9389.6 3946.4 9399 3951.5 9408.7 3956.2 9418.5 3960.5 9428.5 3964.5 9438.6 3968.1 9448.8 3971.4 9459.2 3974.2 9469.7 3976.7 9480.3 3978.9 9491 3980.6 9501.7 3982 9512.5 3982.9 9523.4 3983.5 9534.2 3983.7 9545.1 M 3678.9 9240.3 3663 9240.5 3647.1 9241.1 3631.3 9242.1 3615.5 9243.4 3599.7 9245.2 3583.9 9247.3 3568.3 9249.9 3552.6 9252.8 3537.1 9256.1 3521.7 9259.8 3506.3 9263.9 3491 9268.3 3475.9 9273.1 3460.9 9278.3 3446 9283.9 3431.3 9289.8 3416.7 9296.1 3402.3 9302.8 3388 9309.8 3373.9 9317.1 3360 9324.8 3346.3 9332.8 3332.8 9341.2 3319.5 9349.9 3306.5 9359 3293.6 9368.3 3281 9378 3268.7 9387.9 3256.5 9398.2 3244.7 9408.8 3233.1 9419.6 3221.8 9430.8 M 3259.8 10306.9 3260 10317.8 3260.6 10328.6 3261.5 10339.5 3262.9 10350.3 3264.6 10361 3266.8 10371.7 3269.3 10382.3 3272.1 10392.8 3275.4 10403.2 3279 10413.4 3283 10423.5 3287.3 10433.5 3292 10443.3 3297.1 10453 3302.5 10462.4 3308.2 10471.7 3314.2 10480.7 3320.6 10489.6 3327.3 10498.2 3334.2 10506.5 3341.5 10514.6 3349.1 10522.4 3356.9 10530 3365 10537.3 3373.3 10544.2 3381.9 10550.9 3390.8 10557.3 3399.8 10563.3 3409.1 10569 3418.5 10574.4 3428.2 10579.5 3438 10584.2 3448 10588.5 3458.1 10592.5 3468.3 10596.1 3478.7 10599.4 3489.2 10602.2 3499.8 10604.7 3510.5 10606.9 3521.2 10608.6 3532 10610 3542.9 10610.9 3553.7 10611.5 3564.6 10611.7 3579.3 10611.5 3594 10610.9 3608.7 10610 3623.3 10608.7 3637.9 10607 3652.5 10604.9 3667 10602.4 3681.4 10599.6 3695.8 10596.4 3710.1 10592.9 3724.2 10588.9 3738.3 10584.7 3752.3 10580 3766.1 10575 3779.8 10569.6 3793.3 10563.9 3806.7 10557.9 3820 10551.5 3833 10544.7 3845.9 10537.6 3858.6 10530.2 3871.2 10522.5 3883.5 10514.5 3895.6 10506.1 3907.4 10497.4 M 3412.3 10040.3 3402.8 10046 3393.6 10052.2 3384.6 10058.6 3375.8 10065.4 3367.3 10072.5 3359 10079.9 3351 10087.6 3343.3 10095.5 3335.9 10103.7 3328.8 10112.2 3322 10121 3315.5 10129.9 3309.3 10139.1 3303.5 10148.6 3298 10158.2 3292.8 10168 3288 10178 3283.6 10188.1 3279.5 10198.4 3275.8 10208.9 3272.5 10219.5 3269.6 10230.1 3267 10240.9 3264.8 10251.8 3263.1 10262.7 3261.7 10273.7 3260.7 10284.8 3260.1 10295.8 3259.9 10306.9 M 3831.3 9811.7 3840.8 9805.9 3850 9799.8 3859 9793.4 3867.8 9786.6 3876.3 9779.5 3884.6 9772.1 3892.6 9764.4 3900.3 9756.5 3907.7 9748.3 3914.8 9739.8 3921.6 9731 3928.1 9722.1 3934.3 9712.9 3940.1 9703.4 3945.6 9693.8 3950.8 9684 3955.6 9674 3960 9663.9 3964.1 9653.6 3967.8 9643.1 3971.1 9632.5 3974 9621.9 3976.6 9611.1 3978.8 9600.2 3980.5 9589.3 3981.9 9578.3 3982.9 9567.2 3983.5 9556.2 3983.7 9545.1 M 3831.3 9811.7 3412.3 10040.3 M 4535.6 9087.9 5145.1 9087.9 M 5796.1 9240.3 5796.1 10611.7 6405.6 10611.7 M 6405.6 10002.2 5796.1 10002.2 M 7181.8 9240.3 7562.7 9240.3 M 7181.8 9240.3 7172.4 9240.5 7162.9 9241.1 7153.5 9242.1 7144.2 9243.4 7134.9 9245.2 7125.7 9247.3 7116.6 9249.8 7107.6 9252.7 7098.7 9255.9 7090 9259.6 7081.4 9263.5 7073 9267.9 7064.8 9272.5 7056.8 9277.5 7049 9282.9 7041.4 9288.5 7034.1 9294.5 7027 9300.7 7020.2 9307.3 7013.6 9314.1 7007.4 9321.2 7001.4 9328.5 6995.8 9336.1 6990.4 9343.9 6985.4 9351.9 6980.8 9360.1 6976.4 9368.5 6972.5 9377.1 6968.8 9385.8 6965.6 9394.7 6962.7 9403.7 6960.2 9412.8 6958.1 9422 6956.3 9431.3 6955 9440.6 6954 9450 6953.4 9459.5 6953.2 9468.9 6953.2 9926 6953.4 9935.4 6954 9944.9 6955 9954.3 6956.3 9963.6 6958.1 9972.9 6960.2 9982.1 6962.7 9991.2 6965.6 10000.2 6968.8 10009.1 6972.5 10017.8 6976.4 10026.4 6980.8 10034.8 6985.4 10043 6990.4 10051 6995.8 10058.8 7001.4 10066.4 7007.4 10073.7 7013.6 10080.8 7020.2 10087.6 7027 10094.2 7034.1 10100.4 7041.4 10106.4 7049 10112 7056.8 10117.4 7064.8 10122.4 7073 10127 7081.4 10131.4 7090 10135.3 7098.7 10139 7107.6 10142.2 7116.6 10145.1 7125.7 10147.6 7134.9 10149.7 7144.2 10151.5 7153.5 10152.8 7162.9 10153.8 7172.4 10154.4 7181.8 10154.6 7562.7 10154.6 7562.7 9011.7 M 7562.8 9011.7 7562.6 9002.3 7562 8992.8 7561 8983.4 7559.7 8974.1 7557.9 8964.8 7555.8 8955.6 7553.3 8946.5 7550.4 8937.5 7547.2 8928.6 7543.5 8919.9 7539.6 8911.3 7535.2 8902.9 7530.6 8894.7 7525.6 8886.7 7520.2 8878.9 7514.6 8871.3 7508.6 8864 7502.4 8856.9 7495.8 8850.1 7489 8843.5 7481.9 8837.3 7474.6 8831.3 7467 8825.7 7459.2 8820.3 7451.2 8815.3 7443 8810.7 7434.6 8806.3 7426 8802.4 7417.3 8798.7 7408.4 8795.5 7399.4 8792.6 7390.3 8790.1 7381.1 8788 7371.8 8786.2 7362.5 8784.9 7353.1 8783.9 7343.6 8783.3 7334.2 8783.1 M 7334.2 8783.2 7029.4 8783.2 M 8476.9 9240.3 8857.9 9240.3 M 8476.9 9240.3 8467.5 9240.5 8458 9241.1 8448.6 9242.1 8439.3 9243.4 8430 9245.2 8420.8 9247.3 8411.7 9249.8 8402.7 9252.7 8393.8 9255.9 8385.1 9259.6 8376.5 9263.5 8368.1 9267.9 8359.9 9272.5 8351.9 9277.5 8344.1 9282.9 8336.5 9288.5 8329.2 9294.5 8322.1 9300.7 8315.3 9307.3 8308.7 9314.1 8302.5 9321.2 8296.5 9328.5 8290.9 9336.1 8285.5 9343.9 8280.5 9351.9 8275.9 9360.1 8271.5 9368.5 8267.6 9377.1 8263.9 9385.8 8260.7 9394.7 8257.8 9403.7 8255.3 9412.8 8253.2 9422 8251.4 9431.3 8250.1 9440.6 8249.1 9450 8248.5 9459.5 8248.3 9468.9 M 8248.4 9468.9 8248.4 9849.8 M 8248.3 9849.8 8248.5 9860.7 8249.1 9871.5 8250 9882.4 8251.4 9893.2 8253.1 9903.9 8255.3 9914.6 8257.8 9925.2 8260.6 9935.7 8263.9 9946.1 8267.5 9956.3 8271.5 9966.4 8275.8 9976.4 8280.5 9986.2 8285.6 9995.9 8291 10005.3 8296.7 10014.6 8302.7 10023.6 8309.1 10032.5 8315.8 10041.1 8322.7 10049.4 8330 10057.5 8337.6 10065.3 8345.4 10072.9 8353.5 10080.2 8361.8 10087.1 8370.4 10093.8 8379.3 10100.2 8388.3 10106.2 8397.6 10111.9 8407 10117.3 8416.7 10122.4 8426.5 10127.1 8436.5 10131.4 8446.6 10135.4 8456.8 10139 8467.2 10142.3 8477.7 10145.1 8488.3 10147.6 8499 10149.8 8509.7 10151.5 8520.5 10152.9 8531.4 10153.8 8542.2 10154.4 8553.1 10154.6 8564 10154.4 8574.8 10153.8 8585.7 10152.9 8596.5 10151.5 8607.2 10149.8 8617.9 10147.6 8628.5 10145.1 8639 10142.3 8649.4 10139 8659.6 10135.4 8669.7 10131.4 8679.7 10127.1 8689.5 10122.4 8699.2 10117.3 8708.6 10111.9 8717.9 10106.2 8726.9 10100.2 8735.8 10093.8 8744.4 10087.1 8752.7 10080.2 8760.8 10072.9 8768.6 10065.3 8776.2 10057.5 8783.5 10049.4 8790.4 10041.1 8797.1 10032.5 8803.5 10023.6 8809.5 10014.6 8815.2 10005.3 8820.6 9995.9 8825.7 9986.2 8830.4 9976.4 8834.7 9966.4 8838.7 9956.3 8842.3 9946.1 8845.6 9935.7 8848.4 9925.2 8850.9 9914.6 8853.1 9903.9 8854.8 9893.2 8856.2 9882.4 8857.1 9871.5 8857.7 9860.7 8857.9 9849.8 8857.9 9697.4 8248.4 9697.4 M 9533.6 9240.3 9533.6 10154.6 9914.5 10154.6 9923.9 10154.4 9933.4 10153.8 9942.8 10152.8 9952.1 10151.5 9961.4 10149.7 9970.6 10147.6 9979.7 10145.1 9988.7 10142.2 9997.6 10139 10006.3 10135.3 10014.9 10131.4 10023.3 10127 10031.5 10122.4 10039.5 10117.4 10047.3 10112 10054.9 10106.4 10062.2 10100.4 10069.3 10094.2 10076.1 10087.6 10082.7 10080.8 10088.9 10073.7 10094.9 10066.4 10100.5 10058.8 10105.9 10051 10110.9 10043 10115.5 10034.8 10119.9 10026.4 10123.8 10017.8 10127.5 10009.1 10130.7 10000.2 10133.6 9991.2 10136.1 9982.1 10138.2 9972.9 10140 9963.6 10141.3 9954.3 10142.3 9944.9 10142.9 9935.4 10143.1 9926 10143.1 9240.3 M 10771.2 9087.9 11380.7 9087.9 M 12027.8 9240.3 12027.8 10611.7 M 12027.8 10002.2 12789.7 10002.2 M 12789.7 10611.7 12789.7 9240.3 M 13770 9240.3 13465.2 10611.7 M 14074.7 10154.6 13770 9240.3 M 14379.5 9240.3 14074.7 10154.6 M 14684.2 10611.7 14379.5 9240.3 M 1917.6 7830.8 1917.6 7221.2 M 1917.7 7830.8 1917.9 7843 1918.5 7855.2 1919.5 7867.4 1920.8 7879.5 1922.6 7891.6 1924.7 7903.6 1927.2 7915.6 1930.2 7927.4 1933.4 7939.2 1937.1 7950.8 1941.1 7962.3 1945.5 7973.7 1950.3 7985 1955.4 7996.1 1960.9 8007 1966.7 8017.7 1972.9 8028.3 1979.4 8038.6 1986.2 8048.7 1993.3 8058.6 2000.8 8068.3 2008.6 8077.7 2016.6 8086.9 2025 8095.8 2033.6 8104.4 2042.5 8112.8 2051.7 8120.8 2061.1 8128.6 2070.8 8136.1 2080.7 8143.2 2090.8 8150 2101.1 8156.5 2111.7 8162.7 2122.4 8168.5 2133.3 8174 2144.4 8179.1 2155.7 8183.9 2167.1 8188.3 2178.6 8192.3 2190.2 8196 2202 8199.2 2213.8 8202.2 2225.8 8204.7 2237.8 8206.8 2249.9 8208.6 2262 8209.9 2274.2 8210.9 2286.4 8211.5 2298.6 8211.7 2310.8 8211.5 2323 8210.9 2335.2 8209.9 2347.3 8208.6 2359.4 8206.8 2371.4 8204.7 2383.4 8202.2 2395.2 8199.2 2407 8196 2418.6 8192.3 2430.1 8188.3 2441.5 8183.9 2452.8 8179.1 2463.9 8174 2474.8 8168.5 2485.5 8162.7 2496.1 8156.5 2506.4 8150 2516.5 8143.2 2526.4 8136.1 2536.1 8128.6 2545.5 8120.8 2554.7 8112.8 2563.6 8104.4 2572.2 8095.8 2580.6 8086.9 2588.6 8077.7 2596.4 8068.3 2603.9 8058.6 2611 8048.7 2617.8 8038.6 2624.3 8028.3 2630.5 8017.7 2636.3 8007 2641.8 7996.1 2646.9 7985 2651.7 7973.7 2656.1 7962.3 2660.1 7950.8 2663.8 7939.2 2667 7927.4 2670 7915.6 2672.5 7903.6 2674.6 7891.6 2676.4 7879.5 2677.7 7867.4 2678.7 7855.2 2679.3 7843 2679.5 7830.8 2679.5 7221.2 2679.3 7209 2678.7 7196.8 2677.7 7184.6 2676.4 7172.5 2674.6 7160.4 2672.5 7148.4 2670 7136.4 2667 7124.6 2663.8 7112.8 2660.1 7101.2 2656.1 7089.7 2651.7 7078.3 2646.9 7067 2641.8 7055.9 2636.3 7045 2630.5 7034.3 2624.3 7023.7 2617.8 7013.4 2611 7003.3 2603.9 6993.4 2596.4 6983.7 2588.6 6974.3 2580.6 6965.1 2572.2 6956.2 2563.6 6947.6 2554.7 6939.2 2545.5 6931.2 2536.1 6923.4 2526.4 6915.9 2516.5 6908.8 2506.4 6902 2496.1 6895.5 2485.5 6889.3 2474.8 6883.5 2463.9 6878 2452.8 6872.9 2441.5 6868.1 2430.1 6863.7 2418.6 6859.7 2407 6856 2395.2 6852.8 2383.4 6849.8 2371.4 6847.3 2359.4 6845.2 2347.3 6843.4 2335.2 6842.1 2323 6841.1 2310.8 6840.5 2298.6 6840.3 2286.4 6840.5 2274.2 6841.1 2262 6842.1 2249.9 6843.4 2237.8 6845.2 2225.8 6847.3 2213.8 6849.8 2202 6852.8 2190.2 6856 2178.6 6859.7 2167.1 6863.7 2155.7 6868.1 2144.4 6872.9 2133.3 6878 2122.4 6883.5 2111.7 6889.3 2101.1 6895.5 2090.8 6902 2080.7 6908.8 2070.8 6915.9 2061.1 6923.4 2051.7 6931.2 2042.5 6939.2 2033.6 6947.6 2025 6956.2 2016.6 6965.1 2008.6 6974.3 2000.8 6983.7 1993.3 6993.4 1986.2 7003.3 1979.4 7013.4 1972.9 7023.7 1966.7 7034.3 1960.9 7045 1955.4 7055.9 1950.3 7067 1945.5 7078.3 1941.1 7089.7 1937.1 7101.2 1933.4 7112.8 1930.2 7124.6 1927.2 7136.4 1924.7 7148.4 1922.6 7160.4 1920.8 7172.5 1919.5 7184.6 1918.5 7196.8 1917.9 7209 1917.7 7221.2 M 3374.2 7068.9 3374.2 7754.6 M 3374.2 7068.9 3374.4 7059.5 3375 7050 3376 7040.6 3377.3 7031.3 3379.1 7022 3381.2 7012.8 3383.7 7003.7 3386.6 6994.7 3389.8 6985.8 3393.5 6977.1 3397.4 6968.5 3401.8 6960.1 3406.4 6951.9 3411.4 6943.9 3416.8 6936.1 3422.4 6928.5 3428.4 6921.2 3434.6 6914.1 3441.2 6907.3 3448 6900.7 3455.1 6894.5 3462.4 6888.5 3470 6882.9 3477.8 6877.5 3485.8 6872.5 3494 6867.9 3502.4 6863.5 3511 6859.6 3519.7 6855.9 3528.6 6852.7 3537.6 6849.8 3546.7 6847.3 3555.9 6845.2 3565.2 6843.4 3574.5 6842.1 3583.9 6841.1 3593.4 6840.5 3602.8 6840.3 3983.7 6840.3 3983.7 7754.6 M 4529.5 7754.6 4986.7 7754.6 M 4681.9 8211.7 4681.9 7068.9 4682.1 7059.5 4682.7 7050 4683.7 7040.6 4685 7031.3 4686.8 7022 4688.9 7012.8 4691.4 7003.7 4694.3 6994.7 4697.5 6985.8 4701.2 6977.1 4705.1 6968.5 4709.5 6960.1 4714.1 6951.9 4719.1 6943.9 4724.5 6936.1 4730.1 6928.5 4736.1 6921.2 4742.3 6914.1 4748.9 6907.3 4755.7 6900.7 4762.8 6894.5 4770.1 6888.5 4777.7 6882.9 4785.5 6877.5 4793.5 6872.5 4801.7 6867.9 4810.1 6863.5 4818.7 6859.6 4827.4 6855.9 4836.3 6852.7 4845.3 6849.8 4854.4 6847.3 4863.6 6845.2 4872.9 6843.4 4882.2 6842.1 4891.6 6841.1 4901.1 6840.5 4910.5 6840.3 4986.7 6840.3 M 5621.4 6383.2 5621.4 7754.6 6002.3 7754.6 6011.7 7754.4 6021.2 7753.8 6030.6 7752.8 6039.9 7751.5 6049.2 7749.7 6058.4 7747.6 6067.5 7745.1 6076.5 7742.2 6085.4 7739 6094.1 7735.3 6102.7 7731.4 6111.1 7727 6119.3 7722.4 6127.3 7717.4 6135.1 7712 6142.7 7706.4 6150 7700.4 6157.1 7694.2 6163.9 7687.6 6170.5 7680.8 6176.7 7673.7 6182.7 7666.4 6188.3 7658.8 6193.7 7651 6198.7 7643 6203.3 7634.8 6207.7 7626.4 6211.6 7617.8 6215.3 7609.1 6218.5 7600.2 6221.4 7591.2 6223.9 7582.1 6226 7572.9 6227.8 7563.6 6229.1 7554.3 6230.1 7544.9 6230.7 7535.4 6230.9 7526 6230.9 7068.9 6230.7 7059.5 6230.1 7050 6229.1 7040.6 6227.8 7031.3 6226 7022 6223.9 7012.8 6221.4 7003.7 6218.5 6994.7 6215.3 6985.8 6211.6 6977.1 6207.7 6968.5 6203.3 6960.1 6198.7 6951.9 6193.7 6943.9 6188.3 6936.1 6182.7 6928.5 6176.7 6921.2 6170.5 6914.1 6163.9 6907.3 6157.1 6900.7 6150 6894.5 6142.7 6888.5 6135.1 6882.9 6127.3 6877.5 6119.3 6872.5 6111.1 6867.9 6102.7 6863.5 6094.1 6859.6 6085.4 6855.9 6076.5 6852.7 6067.5 6849.8 6058.4 6847.3 6049.2 6845.2 6039.9 6843.4 6030.6 6842.1 6021.2 6841.1 6011.7 6840.5 6002.3 6840.3 5621.4 6840.3 M 6896.6 7068.9 6896.6 7754.6 M 6896.6 7068.9 6896.8 7059.5 6897.4 7050 6898.4 7040.6 6899.7 7031.3 6901.5 7022 6903.6 7012.8 6906.1 7003.7 6909 6994.7 6912.2 6985.8 6915.9 6977.1 6919.8 6968.5 6924.2 6960.1 6928.8 6951.9 6933.8 6943.9 6939.2 6936.1 6944.8 6928.5 6950.8 6921.2 6957 6914.1 6963.6 6907.3 6970.4 6900.7 6977.5 6894.5 6984.8 6888.5 6992.4 6882.9 7000.2 6877.5 7008.2 6872.5 7016.4 6867.9 7024.8 6863.5 7033.4 6859.6 7042.1 6855.9 7051 6852.7 7060 6849.8 7069.1 6847.3 7078.3 6845.2 7087.6 6843.4 7096.9 6842.1 7106.3 6841.1 7115.8 6840.5 7125.2 6840.3 7506.1 6840.3 7506.1 7754.6 M 8051.9 7754.6 8509.1 7754.6 M 8204.3 8211.7 8204.3 7068.9 8204.5 7059.5 8205.1 7050 8206.1 7040.6 8207.4 7031.3 8209.2 7022 8211.3 7012.8 8213.8 7003.7 8216.7 6994.7 8219.9 6985.8 8223.6 6977.1 8227.5 6968.5 8231.9 6960.1 8236.5 6951.9 8241.5 6943.9 8246.9 6936.1 8252.5 6928.5 8258.5 6921.2 8264.7 6914.1 8271.3 6907.3 8278.1 6900.7 8285.2 6894.5 8292.5 6888.5 8300.1 6882.9 8307.9 6877.5 8315.9 6872.5 8324.1 6867.9 8332.5 6863.5 8341.1 6859.6 8349.8 6855.9 8358.7 6852.7 8367.7 6849.8 8376.8 6847.3 8386 6845.2 8395.3 6843.4 8404.6 6842.1 8414 6841.1 8423.5 6840.5 8432.9 6840.3 8509.1 6840.3 M 9404.4 6840.3 9709.2 6840.3 M 9404.4 6840.3 9393.5 6840.5 9382.7 6841.1 9371.8 6842 9361 6843.4 9350.3 6845.1 9339.6 6847.3 9329 6849.8 9318.5 6852.6 9308.1 6855.9 9297.9 6859.5 9287.8 6863.5 9277.8 6867.8 9268 6872.5 9258.3 6877.6 9248.9 6883 9239.6 6888.7 9230.6 6894.7 9221.7 6901.1 9213.1 6907.8 9204.8 6914.7 9196.7 6922 9188.9 6929.6 9181.3 6937.4 9174 6945.5 9167.1 6953.8 9160.4 6962.4 9154 6971.3 9148 6980.3 9142.3 6989.6 9136.9 6999 9131.8 7008.7 9127.1 7018.5 9122.8 7028.5 9118.8 7038.6 9115.2 7048.8 9111.9 7059.2 9109.1 7069.7 9106.6 7080.3 9104.4 7091 9102.7 7101.7 9101.3 7112.5 9100.4 7123.4 9099.8 7134.2 9099.6 7145.1 M 9099.7 7145.1 9099.7 7906.9 M 9099.6 7906.9 9099.8 7917.8 9100.4 7928.6 9101.3 7939.5 9102.7 7950.3 9104.4 7961 9106.6 7971.7 9109.1 7982.3 9111.9 7992.8 9115.2 8003.2 9118.8 8013.4 9122.8 8023.5 9127.1 8033.5 9131.8 8043.3 9136.9 8053 9142.3 8062.4 9148 8071.7 9154 8080.7 9160.4 8089.6 9167.1 8098.2 9174 8106.5 9181.3 8114.6 9188.9 8122.4 9196.7 8130 9204.8 8137.3 9213.1 8144.2 9221.7 8150.9 9230.6 8157.3 9239.6 8163.3 9248.9 8169 9258.3 8174.4 9268 8179.5 9277.8 8184.2 9287.8 8188.5 9297.9 8192.5 9308.1 8196.1 9318.5 8199.4 9329 8202.2 9339.6 8204.7 9350.3 8206.9 9361 8208.6 9371.8 8210 9382.7 8210.9 9393.5 8211.5 9404.4 8211.7 9709.2 8211.7 M 10276.2 7449.8 10276.2 7145.1 M 10276.2 7449.8 10276.4 7460.7 10277 7471.5 10277.9 7482.4 10279.3 7493.2 10281 7503.9 10283.2 7514.6 10285.7 7525.2 10288.5 7535.7 10291.8 7546.1 10295.4 7556.3 10299.4 7566.4 10303.7 7576.4 10308.4 7586.2 10313.5 7595.9 10318.9 7605.3 10324.6 7614.6 10330.6 7623.6 10337 7632.5 10343.7 7641.1 10350.6 7649.4 10357.9 7657.5 10365.5 7665.3 10373.3 7672.9 10381.4 7680.2 10389.7 7687.1 10398.3 7693.8 10407.2 7700.2 10416.2 7706.2 10425.5 7711.9 10434.9 7717.3 10444.6 7722.4 10454.4 7727.1 10464.4 7731.4 10474.5 7735.4 10484.7 7739 10495.1 7742.3 10505.6 7745.1 10516.2 7747.6 10526.9 7749.8 10537.6 7751.5 10548.4 7752.9 10559.3 7753.8 10570.1 7754.4 10581 7754.6 10591.9 7754.4 10602.7 7753.8 10613.6 7752.9 10624.4 7751.5 10635.1 7749.8 10645.8 7747.6 10656.4 7745.1 10666.9 7742.3 10677.3 7739 10687.5 7735.4 10697.6 7731.4 10707.6 7727.1 10717.4 7722.4 10727.1 7717.3 10736.5 7711.9 10745.8 7706.2 10754.8 7700.2 10763.7 7693.8 10772.3 7687.1 10780.6 7680.2 10788.7 7672.9 10796.5 7665.3 10804.1 7657.5 10811.4 7649.4 10818.3 7641.1 10825 7632.5 10831.4 7623.6 10837.4 7614.6 10843.1 7605.3 10848.5 7595.9 10853.6 7586.2 10858.3 7576.4 10862.6 7566.4 10866.6 7556.3 10870.2 7546.1 10873.5 7535.7 10876.3 7525.2 10878.8 7514.6 10881 7503.9 10882.7 7493.2 10884.1 7482.4 10885 7471.5 10885.6 7460.7 10885.8 7449.8 M 10885.7 7449.8 10885.7 7145.1 M 10885.8 7145.1 10885.6 7134.2 10885 7123.4 10884.1 7112.5 10882.7 7101.7 10881 7091 10878.8 7080.3 10876.3 7069.7 10873.5 7059.2 10870.2 7048.8 10866.6 7038.6 10862.6 7028.5 10858.3 7018.5 10853.6 7008.7 10848.5 6999 10843.1 6989.6 10837.4 6980.3 10831.4 6971.3 10825 6962.4 10818.3 6953.8 10811.4 6945.5 10804.1 6937.4 10796.5 6929.6 10788.7 6922 10780.6 6914.7 10772.3 6907.8 10763.7 6901.1 10754.8 6894.7 10745.8 6888.7 10736.5 6883 10727.1 6877.6 10717.4 6872.5 10707.6 6867.8 10697.6 6863.5 10687.5 6859.5 10677.3 6855.9 10666.9 6852.6 10656.4 6849.8 10645.8 6847.3 10635.1 6845.1 10624.4 6843.4 10613.6 6842 10602.7 6841.1 10591.9 6840.5 10581 6840.3 10570.1 6840.5 10559.3 6841.1 10548.4 6842 10537.6 6843.4 10526.9 6845.1 10516.2 6847.3 10505.6 6849.8 10495.1 6852.6 10484.7 6855.9 10474.5 6859.5 10464.4 6863.5 10454.4 6867.8 10444.6 6872.5 10434.9 6877.6 10425.5 6883 10416.2 6888.7 10407.2 6894.7 10398.3 6901.1 10389.7 6907.8 10381.4 6914.7 10373.3 6922 10365.5 6929.6 10357.9 6937.4 10350.6 6945.5 10343.7 6953.8 10337 6962.4 10330.6 6971.3 10324.6 6980.3 10318.9 6989.6 10313.5 6999 10308.4 7008.7 10303.7 7018.5 10299.4 7028.5 10295.4 7038.6 10291.8 7048.8 10288.5 7059.2 10285.7 7069.7 10283.2 7080.3 10281 7091 10279.3 7101.7 10277.9 7112.5 10277 7123.4 10276.4 7134.2 10276.2 7145.1 M 11561.4 6840.3 11561.4 7754.6 11942.3 7754.6 11951.7 7754.4 11961.2 7753.8 11970.6 7752.8 11979.9 7751.5 11989.2 7749.7 11998.4 7747.6 12007.5 7745.1 12016.5 7742.2 12025.4 7739 12034.1 7735.3 12042.7 7731.4 12051.1 7727 12059.3 7722.4 12067.3 7717.4 12075.1 7712 12082.7 7706.4 12090 7700.4 12097.1 7694.2 12103.9 7687.6 12110.5 7680.8 12116.7 7673.7 12122.7 7666.4 12128.3 7658.8 12133.7 7651 12138.7 7643 12143.3 7634.8 12147.7 7626.4 12151.6 7617.8 12155.3 7609.1 12158.5 7600.2 12161.4 7591.2 12163.9 7582.1 12166 7572.9 12167.8 7563.6 12169.1 7554.3 12170.1 7544.9 12170.7 7535.4 12170.9 7526 12170.9 6840.3 M 12716.7 7754.6 13173.8 7754.6 M 12869.1 8211.7 12869.1 7068.9 12869.3 7059.5 12869.9 7050 12870.9 7040.6 12872.2 7031.3 12874 7022 12876.1 7012.8 12878.6 7003.7 12881.5 6994.7 12884.7 6985.8 12888.4 6977.1 12892.3 6968.5 12896.7 6960.1 12901.3 6951.9 12906.3 6943.9 12911.7 6936.1 12917.3 6928.5 12923.3 6921.2 12929.5 6914.1 12936.1 6907.3 12942.9 6900.7 12950 6894.5 12957.3 6888.5 12964.9 6882.9 12972.7 6877.5 12980.7 6872.5 12988.9 6867.9 12997.3 6863.5 13005.9 6859.6 13014.6 6855.9 13023.5 6852.7 13032.5 6849.8 13041.6 6847.3 13050.8 6845.2 13060.1 6843.4 13069.4 6842.1 13078.8 6841.1 13088.3 6840.5 13097.7 6840.3 13173.8 6840.3 M 13809.9 6840.3 13809.9 7754.6 14267.1 7754.6 14267.1 7602.2 M 14750.6 7449.8 14750.6 7145.1 M 14750.5 7449.8 14750.7 7460.7 14751.3 7471.5 14752.2 7482.4 14753.6 7493.2 14755.3 7503.9 14757.5 7514.6 14760 7525.2 14762.8 7535.7 14766.1 7546.1 14769.7 7556.3 14773.7 7566.4 14778 7576.4 14782.7 7586.2 14787.8 7595.9 14793.2 7605.3 14798.9 7614.6 14804.9 7623.6 14811.3 7632.5 14818 7641.1 14824.9 7649.4 14832.2 7657.5 14839.8 7665.3 14847.6 7672.9 14855.7 7680.2 14864 7687.1 14872.6 7693.8 14881.5 7700.2 14890.5 7706.2 14899.8 7711.9 14909.2 7717.3 14918.9 7722.4 14928.7 7727.1 14938.7 7731.4 14948.8 7735.4 14959 7739 14969.4 7742.3 14979.9 7745.1 14990.5 7747.6 15001.2 7749.8 15011.9 7751.5 15022.7 7752.9 15033.6 7753.8 15044.4 7754.4 15055.3 7754.6 15066.2 7754.4 15077 7753.8 15087.9 7752.9 15098.7 7751.5 15109.4 7749.8 15120.1 7747.6 15130.7 7745.1 15141.2 7742.3 15151.6 7739 15161.8 7735.4 15171.9 7731.4 15181.9 7727.1 15191.7 7722.4 15201.4 7717.3 15210.8 7711.9 15220.1 7706.2 15229.1 7700.2 15238 7693.8 15246.6 7687.1 15254.9 7680.2 15263 7672.9 15270.8 7665.3 15278.4 7657.5 15285.7 7649.4 15292.6 7641.1 15299.3 7632.5 15305.7 7623.6 15311.7 7614.6 15317.4 7605.3 15322.8 7595.9 15327.9 7586.2 15332.6 7576.4 15336.9 7566.4 15340.9 7556.3 15344.5 7546.1 15347.8 7535.7 15350.6 7525.2 15353.1 7514.6 15355.3 7503.9 15357 7493.2 15358.4 7482.4 15359.3 7471.5 15359.9 7460.7 15360.1 7449.8 15360.1 7145.1 15359.9 7134.2 15359.3 7123.4 15358.4 7112.5 15357 7101.7 15355.3 7091 15353.1 7080.3 15350.6 7069.7 15347.8 7059.2 15344.5 7048.8 15340.9 7038.6 15336.9 7028.5 15332.6 7018.5 15327.9 7008.7 15322.8 6999 15317.4 6989.6 15311.7 6980.3 15305.7 6971.3 15299.3 6962.4 15292.6 6953.8 15285.7 6945.5 15278.4 6937.4 15270.8 6929.6 15263 6922 15254.9 6914.7 15246.6 6907.8 15238 6901.1 15229.1 6894.7 15220.1 6888.7 15210.8 6883 15201.4 6877.6 15191.7 6872.5 15181.9 6867.8 15171.9 6863.5 15161.8 6859.5 15151.6 6855.9 15141.2 6852.6 15130.7 6849.8 15120.1 6847.3 15109.4 6845.1 15098.7 6843.4 15087.9 6842 15077 6841.1 15066.2 6840.5 15055.3 6840.3 15044.4 6840.5 15033.6 6841.1 15022.7 6842 15011.9 6843.4 15001.2 6845.1 14990.5 6847.3 14979.9 6849.8 14969.4 6852.6 14959 6855.9 14948.8 6859.5 14938.7 6863.5 14928.7 6867.8 14918.9 6872.5 14909.2 6877.6 14899.8 6883 14890.5 6888.7 14881.5 6894.7 14872.6 6901.1 14864 6907.8 14855.7 6914.7 14847.6 6922 14839.8 6929.6 14832.2 6937.4 14824.9 6945.5 14818 6953.8 14811.3 6962.4 14804.9 6971.3 14798.9 6980.3 14793.2 6989.6 14787.8 6999 14782.7 7008.7 14778 7018.5 14773.7 7028.5 14769.7 7038.6 14766.1 7048.8 14762.8 7059.2 14760 7069.7 14757.5 7080.3 14755.3 7091 14753.6 7101.7 14752.2 7112.5 14751.3 7123.4 14750.7 7134.2 14750.5 7145.1 M 15996.8 7068.9 15996.8 8211.7 M 15996.8 7068.9 15997 7059.5 15997.6 7050 15998.6 7040.6 15999.9 7031.3 16001.7 7022 16003.8 7012.8 16006.3 7003.7 16009.2 6994.7 16012.4 6985.8 16016.1 6977.1 16020 6968.5 16024.4 6960.1 16029 6951.9 16034 6943.9 16039.4 6936.1 16045 6928.5 16051 6921.2 16057.2 6914.1 16063.8 6907.3 16070.6 6900.7 16077.7 6894.5 16085 6888.5 16092.6 6882.9 16100.4 6877.5 16108.4 6872.5 16116.6 6867.9 16125 6863.5 16133.6 6859.6 16142.3 6855.9 16151.2 6852.7 16160.2 6849.8 16169.3 6847.3 16178.5 6845.2 16187.8 6843.4 16197.1 6842.1 16206.5 6841.1 16216 6840.5 16225.4 6840.3 M 16864.1 7373.6 17245 7221.2 M 16864.1 7373.6 16855.9 7377.1 16847.9 7380.9 16840.2 7385.1 16832.6 7389.6 16825.2 7394.5 16818 7399.7 16811.1 7405.2 16804.4 7411 16798 7417.1 16791.9 7423.4 16786.1 7430.1 16780.5 7437 16775.3 7444.1 16770.4 7451.5 16765.9 7459.1 16761.7 7466.8 16757.8 7474.8 16754.3 7482.9 16751.2 7491.2 16748.4 7499.6 16746.1 7508.1 16744.1 7516.7 16742.4 7525.4 16741.2 7534.2 16740.4 7543 16740 7551.8 16739.9 7560.6 16740.3 7569.5 16741 7578.3 16742.2 7587 16743.7 7595.7 16745.7 7604.4 16748 7612.9 16750.7 7621.3 16753.7 7629.6 16757.2 7637.8 16761 7645.7 16765.1 7653.5 16769.6 7661.2 16774.4 7668.6 16779.6 7675.7 16785.1 7682.7 16790.8 7689.4 16796.9 7695.8 16803.3 7702 16809.9 7707.8 16816.8 7713.4 16823.9 7718.6 16831.2 7723.5 16838.8 7728.1 16846.5 7732.4 16854.5 7736.2 16862.6 7739.8 16870.8 7742.9 16879.2 7745.7 16887.7 7748.1 16896.3 7750.2 16905 7751.8 16913.8 7753.1 16922.6 7753.9 16931.4 7754.4 16940.2 7754.5 M 16940.3 7754.6 16961.1 7754.1 16981.9 7753 17002.6 7751.5 17023.3 7749.4 17044 7746.9 17064.5 7743.8 17085 7740.3 17105.4 7736.3 17125.8 7731.8 17146 7726.8 17166 7721.3 17186 7715.3 17205.7 7708.9 17225.4 7702 17244.8 7694.6 17264.1 7686.7 17283.1 7678.4 M 17244.9 7221.2 17253.1 7217.7 17261 7213.9 17268.8 7209.7 17276.4 7205.2 17283.8 7200.3 17291 7195.1 17297.9 7189.6 17304.6 7183.8 17311 7177.7 17317.1 7171.4 17322.9 7164.7 17328.5 7157.8 17333.7 7150.7 17338.6 7143.3 17343.1 7135.7 17347.3 7128 17351.2 7120 17354.7 7111.9 17357.8 7103.6 17360.6 7095.2 17362.9 7086.7 17364.9 7078.1 17366.6 7069.4 17367.8 7060.6 17368.6 7051.8 17369 7043 17369.1 7034.2 17368.7 7025.3 17368 7016.5 17366.8 7007.8 17365.3 6999.1 17363.3 6990.4 17361 6981.9 17358.3 6973.5 17355.3 6965.2 17351.8 6957 17348 6949.1 17343.9 6941.3 17339.4 6933.6 17334.6 6926.2 17329.4 6919.1 17323.9 6912.1 17318.2 6905.4 17312.1 6899 17305.7 6892.8 17299.1 6887 17292.2 6881.4 17285.1 6876.2 17277.8 6871.3 17270.2 6866.7 17262.5 6862.4 17254.5 6858.6 17246.4 6855 17238.2 6851.9 17229.8 6849.1 17221.3 6846.7 17212.7 6844.6 17204 6843 17195.2 6841.7 17186.4 6840.9 17177.6 6840.4 17168.8 6840.3 17138.3 6841.1 17107.8 6842.7 17077.3 6844.9 17046.9 6847.9 17016.5 6851.5 16986.3 6855.9 16956.1 6861 16926.1 6866.9 16896.3 6873.4 16866.6 6880.6 16837.1 6888.6 16807.8 6897.2 16778.7 6906.5 16749.8 6916.5" fill="none" stroke-width="228.6"/><use xlink:href="#SCk3TO9t6j3HidVuUY9O_pad-11" x="6823.5" y="26670"/><use xlink:href="#SCk3TO9t6j3HidVuUY9O_pad-11" x="6823.5" y="25400"/><use xlink:href="#SCk3TO9t6j3HidVuUY9O_pad-11" x="6823.5" y="24130"/><use xlink:href="#SCk3TO9t6j3HidVuUY9O_pad-11" x="6823.5" y="22860"/><use xlink:href="#SCk3TO9t6j3HidVuUY9O_pad-11" x="6823.5" y="21590"/><use xlink:href="#SCk3TO9t6j3HidVuUY9O_pad-11" x="6823.5" y="20320"/><use xlink:href="#SCk3TO9t6j3HidVuUY9O_pad-11" x="6823.5" y="19050"/><use xlink:href="#SCk3TO9t6j3HidVuUY9O_pad-11" x="6823.5" y="17780"/><use xlink:href="#SCk3TO9t6j3HidVuUY9O_pad-11" x="6823.5" y="16510"/><use xlink:href="#SCk3TO9t6j3HidVuUY9O_pad-11" x="16036.5" y="16510"/><use xlink:href="#SCk3TO9t6j3HidVuUY9O_pad-11" x="16036.5" y="17780"/><use xlink:href="#SCk3TO9t6j3HidVuUY9O_pad-11" x="16036.5" y="19050"/><use xlink:href="#SCk3TO9t6j3HidVuUY9O_pad-11" x="16036.5" y="20320"/><use xlink:href="#SCk3TO9t6j3HidVuUY9O_pad-11" x="16036.5" y="21590"/><use xlink:href="#SCk3TO9t6j3HidVuUY9O_pad-11" x="16036.5" y="22860"/><use xlink:href="#SCk3TO9t6j3HidVuUY9O_pad-11" x="16036.5" y="24130"/><use xlink:href="#SCk3TO9t6j3HidVuUY9O_pad-11" x="16036.5" y="25400"/><use xlink:href="#SCk3TO9t6j3HidVuUY9O_pad-11" x="16036.5" y="26670"/><path d="M 20828 8890 22352 8890 M 25908 8890 27432 8890 M 22352 20320 20828 20320 M 25908 20320 27432 20320 M 22352 31750 20828 31750 M 25908 31750 27432 31750" fill="none" stroke-width="1524"/><use xlink:href="#SCk3TO9t6j3HidVuUY9O_pad-13" x="32500" y="8890"/><use xlink:href="#SCk3TO9t6j3HidVuUY9O_pad-13" x="31000" y="8890"/><use xlink:href="#SCk3TO9t6j3HidVuUY9O_pad-13" x="32500" y="20320"/><use xlink:href="#SCk3TO9t6j3HidVuUY9O_pad-13" x="31000" y="20320"/><use xlink:href="#SCk3TO9t6j3HidVuUY9O_pad-13" x="32500" y="30750"/><use xlink:href="#SCk3TO9t6j3HidVuUY9O_pad-13" x="31000" y="30750"/><use xlink:href="#SCk3TO9t6j3HidVuUY9O_pad-14" x="35560" y="11750"/><use xlink:href="#SCk3TO9t6j3HidVuUY9O_pad-14" x="35560" y="13650"/><use xlink:href="#SCk3TO9t6j3HidVuUY9O_pad-14" x="35560" y="17950"/><use xlink:href="#SCk3TO9t6j3HidVuUY9O_pad-14" x="35560" y="16050"/><use xlink:href="#SCk3TO9t6j3HidVuUY9O_pad-14" x="34290" y="27620"/><use xlink:href="#SCk3TO9t6j3HidVuUY9O_pad-14" x="34290" y="25720"/><path d="M 3302 29210 1778 29210 M 1778 26670 3302 26670 M 3302 24130 1778 24130 M 1778 21590 3302 21590 M 3302 19050 1778 19050 M 1778 16510 3302 16510 M 3302 13970 1778 13970" fill="none" stroke-width="1524"/><use xlink:href="#SCk3TO9t6j3HidVuUY9O_pad-13" x="32500" y="32750"/><use xlink:href="#SCk3TO9t6j3HidVuUY9O_pad-13" x="31000" y="32750"/><use xlink:href="#SCk3TO9t6j3HidVuUY9O_pad-14" x="38100" y="27620"/><use xlink:href="#SCk3TO9t6j3HidVuUY9O_pad-14" x="38100" y="25720"/><use xlink:href="#SCk3TO9t6j3HidVuUY9O_pad-15" x="26670" y="8890"/><path d="M 35560 10680 35560 11750 M 35560 10680 33770 8890 32500 8890 M 35560 17950 35560 18530 33770 20320 32500 20320 M 34290 28960 32500 30750 M 34290 28960 34290 27620 M 6823.5 26670 2540 26670 M 5080 25400 6823.5 25400 M 3810 24130 2540 24130 M 3810 24130 5080 25400 M 5914.9 24130 3374.9 21590 2540 21590 M 5914.9 24130 6823.5 24130 M 6823.5 19050 2540 19050 M 5080 17780 6823.5 17780 M 5080 17780 3810 16510 2540 16510 M 12700 29210 15240 29210 16036.5 29210 16036.5 26670 M 8890 20320 6823.5 20320 M 8890 20320 10160 21590 10160 29210 2540 29210 M 10160 29210 12700 29210 M 32500 32750 34560 32750 38100 29210 38100 27620 M 29210 5080 20320 5080 M 29210 5080 31000 6870 31000 8890 M 16036.5 14364.5 16036.5 16510 M 18699.8 11701.2 18699.8 6700.2 20320 5080 M 18699.8 11701.2 16036.5 14364.5" fill="none" stroke-width="609.6"/><use xlink:href="#SCk3TO9t6j3HidVuUY9O_pad-15" x="21590" y="8890"/><path d="M 18215.1 17780 16036.5 17780 M 21590 14405.1 21590 8890 M 21590 14405.1 18215.1 17780 M 19050 19050 16036.5 19050 M 19050 19050 20320 17780 22860 15240 26670 15240 27940 15240 30480 17780 31000 18300 31000 20320 M 21590 20320 16036.5 20320" fill="none" stroke-width="609.6"/><use xlink:href="#SCk3TO9t6j3HidVuUY9O_pad-15" x="21590" y="20320"/><path d="M 27940 24130 31000 27190 31000 30750 M 19459.1 21590 16036.5 21590 M 19459.1 21590 21999.1 24130 27940 24130 M 19137.1 22860 16036.5 22860 M 19137.1 22860 21590 25312.9 21590 31750" fill="none" stroke-width="609.6"/><use xlink:href="#SCk3TO9t6j3HidVuUY9O_pad-15" x="21590" y="31750"/><path d="M 17780 24130 16036.5 24130 M 17780 24130 17780 33020 20320 35560 29210 35560 31000 33770 31000 32750" fill="none" stroke-width="609.6"/><path d="M 0 0 40000 0 40000 40000 0 40000 0 0" fill="none" stroke-width="254"/></g></svg>