<svg version="1.1" xmlns="http://www.w3.org/2000/svg" xmlns:xlink="http://www.w3.org/1999/xlink" stroke-linecap="round" stroke-linejoin="round" stroke-width="0" fill-rule="evenodd" width="40.254mm" height="40.254mm" viewBox="-127 -127 40254 40254" id="KchBXasipqfFTw6788Al"><defs><circle cx="0" cy="0" r="250" id="KchBXasipqfFTw6788Al_pad-12"/><rect x="-125" y="-125" width="250" height="250" id="KchBXasipqfFTw6788Al_pad-16"/></defs><g transform="translate(0,40000) scale(1,-1)" fill="currentColor" stroke="currentColor"><path d="M 21691.6 26771.6 21691.6 27838.4 21987.9 27838.4 21998.6 27838.2 22009.3 27837.6 22019.9 27836.7 22030.5 27835.3 22041.1 27833.6 22051.6 27831.5 22062 27829 22072.3 27826.1 22082.5 27822.9 22092.6 27819.3 22102.5 27815.3 22112.3 27811 22121.9 27806.3 22131.4 27801.3 22140.7 27796 22149.7 27790.3 22158.6 27784.3 22167.2 27778 22175.6 27771.4 22183.8 27764.4 22191.7 27757.2 22199.3 27749.7 22206.7 27741.9 22213.7 27733.9 22220.5 27725.6 22227 27717.1 22233.1 27708.4 22239 27699.4 22244.5 27690.3 22249.7 27680.9 22254.5 27671.3 22259 27661.6 22263.2 27651.8 22266.9 27641.8 22270.4 27631.6 22273.4 27621.4 22276.1 27611 22278.4 27600.6 22280.3 27590 22281.8 27579.4 22283 27568.8 22283.8 27558.1 22284.2 27547.4 22284.2 27536.8 22283.8 27526.1 22283 27515.4 22281.8 27504.8 22280.3 27494.2 22278.4 27483.6 22276.1 27473.2 22273.4 27462.8 22270.4 27452.6 22266.9 27442.4 22263.2 27432.4 22259 27422.6 22254.5 27412.9 22249.7 27403.3 22244.5 27394 22239 27384.8 22233.1 27375.8 22227 27367.1 22220.5 27358.6 22213.7 27350.3 22206.7 27342.3 22199.3 27334.5 22191.7 27327 22183.8 27319.8 22175.6 27312.8 22167.2 27306.2 22158.6 27299.9 22149.7 27293.9 22140.7 27288.2 22131.4 27282.9 22121.9 27277.9 22112.3 27273.2 22102.5 27268.9 22092.6 27264.9 22082.5 27261.3 22072.3 27258.1 22062 27255.2 22051.6 27252.7 22041.1 27250.6 22030.5 27248.9 22019.9 27247.5 22009.3 27246.6 21998.6 27246 21987.9 27245.8 M 21987.9 27245.7 21691.6 27245.7 M 23088.6 26771.6 23098.2 26771.8 23107.7 26772.4 23117.2 26773.3 23126.6 26774.7 23136 26776.4 23145.3 26778.5 23154.6 26781 23163.7 26783.8 23172.7 26787 23181.5 26790.6 23190.2 26794.5 23198.8 26798.8 23207.2 26803.4 23215.3 26808.3 23223.3 26813.6 23231 26819.2 23238.6 26825 23245.8 26831.2 23252.8 26837.7 23259.6 26844.5 23266.1 26851.5 23272.3 26858.7 23278.1 26866.3 23283.7 26874 23289 26882 23293.9 26890.2 23298.5 26898.5 23302.8 26907.1 23306.7 26915.8 23310.3 26924.6 23313.5 26933.6 23316.3 26942.7 23318.8 26952 23320.9 26961.3 23322.6 26970.7 23324 26980.1 23324.9 26989.6 23325.5 26999.2 23325.7 27008.7 M 23088.6 26771.6 23075 26771.8 23061.3 26772.3 23047.7 26773.3 23034.2 26774.6 23020.6 26776.2 23007.2 26778.3 22993.7 26780.7 22980.4 26783.4 22967.1 26786.6 22953.9 26790 22940.8 26793.9 22927.9 26798.1 22915 26802.6 22902.3 26807.5 22889.7 26812.8 22877.3 26818.4 22865 26824.3 22852.9 26830.5 22840.9 26837.1 22829.2 26844 22817.6 26851.3 22806.2 26858.8 22795.1 26866.6 22784.1 26874.8 22773.4 26883.2 22763 26891.9 22752.7 26900.9 22742.7 26910.2 22733 26919.8 M 22762.6 27601.3 22762.8 27610.8 22763.4 27620.4 22764.3 27629.9 22765.7 27639.3 22767.4 27648.7 22769.5 27658 22772 27667.3 22774.8 27676.4 22778 27685.4 22781.6 27694.2 22785.5 27702.9 22789.8 27711.5 22794.4 27719.9 22799.3 27728 22804.6 27736 22810.2 27743.7 22816 27751.3 22822.2 27758.5 22828.7 27765.5 22835.5 27772.3 22842.5 27778.8 22849.7 27785 22857.3 27790.8 22865 27796.4 22873 27801.7 22881.2 27806.6 22889.5 27811.2 22898.1 27815.5 22906.8 27819.4 22915.6 27823 22924.6 27826.2 22933.7 27829 22943 27831.5 22952.3 27833.6 22961.7 27835.3 22971.1 27836.7 22980.6 27837.6 22990.2 27838.2 22999.7 27838.4 23012.7 27838.2 23025.7 27837.6 23038.7 27836.7 23051.6 27835.4 23064.5 27833.7 23077.3 27831.6 23090.1 27829.1 23102.8 27826.3 23115.4 27823.1 23127.9 27819.5 23140.3 27815.6 23152.5 27811.3 23164.7 27806.7 23176.7 27801.6 23188.5 27796.3 23200.2 27790.6 23211.7 27784.6 23223.1 27778.2 23234.2 27771.5 23245.2 27764.5 23255.9 27757.1 23266.4 27749.5 M 22881.2 27393.8 22873 27398.9 22865 27404.3 22857.2 27409.9 22849.7 27415.9 22842.4 27422.2 22835.4 27428.8 22828.7 27435.6 22822.2 27442.7 22816 27450.1 22810.1 27457.7 22804.5 27465.5 22799.3 27473.6 22794.3 27481.8 22789.7 27490.3 22785.5 27498.9 22781.5 27507.7 22778 27516.6 22774.8 27525.7 22771.9 27534.9 22769.5 27544.2 22767.4 27553.5 22765.7 27563 22764.3 27572.5 22763.4 27582.1 22762.8 27591.7 22762.6 27601.3 M 23207.2 27216.2 23215.3 27211.1 23223.3 27205.7 23231.1 27200.1 23238.6 27194.1 23245.9 27187.8 23252.9 27181.2 23259.6 27174.4 23266.1 27167.3 23272.3 27159.9 23278.2 27152.3 23283.8 27144.5 23289 27136.4 23294 27128.2 23298.6 27119.7 23302.8 27111.1 23306.8 27102.3 23310.3 27093.4 23313.5 27084.3 23316.4 27075.1 23318.8 27065.8 23320.9 27056.5 23322.6 27047 23324 27037.5 23324.9 27027.9 23325.5 27018.3 23325.7 27008.7 M 23207.1 27216.1 22881.2 27393.9 M 21691.6 16408.4 21691.6 15341.6 M 21691.6 16408.4 21987.9 16408.4 21998.5 16408.2 22009 16407.6 22019.6 16406.7 22030.1 16405.4 22040.5 16403.7 22050.9 16401.6 22061.2 16399.2 22071.4 16396.4 22081.5 16393.2 22091.4 16389.7 22101.3 16385.8 22111 16381.6 22120.5 16377.1 22129.9 16372.2 22139.1 16366.9 22148.1 16361.4 22156.9 16355.5 22165.5 16349.3 22173.8 16342.8 22181.9 16336 22189.8 16329 22197.4 16321.6 22204.8 16314 22211.8 16306.1 22218.6 16298 22225.1 16289.7 22231.3 16281.1 22237.2 16272.3 22242.7 16263.3 22248 16254.1 22252.9 16244.7 22257.4 16235.2 22261.6 16225.5 22265.5 16215.6 22269 16205.7 22272.2 16195.6 22275 16185.4 22277.4 16175.1 22279.5 16164.7 22281.2 16154.3 22282.5 16143.8 22283.4 16133.2 22284 16122.7 22284.2 16112.1 M 22284.3 16112.1 22284.3 15637.9 M 22284.2 15637.9 22284 15627.3 22283.4 15616.8 22282.5 15606.2 22281.2 15595.7 22279.5 15585.3 22277.4 15574.9 22275 15564.6 22272.2 15554.4 22269 15544.3 22265.5 15534.4 22261.6 15524.5 22257.4 15514.8 22252.9 15505.3 22248 15495.9 22242.7 15486.7 22237.2 15477.7 22231.3 15468.9 22225.1 15460.3 22218.6 15452 22211.8 15443.9 22204.8 15436 22197.4 15428.4 22189.8 15421 22181.9 15414 22173.8 15407.2 22165.5 15400.7 22156.9 15394.5 22148.1 15388.6 22139.1 15383.1 22129.9 15377.8 22120.5 15372.9 22111 15368.4 22101.3 15364.2 22091.4 15360.3 22081.5 15356.8 22071.4 15353.6 22061.2 15350.8 22050.9 15348.4 22040.5 15346.3 22030.1 15344.6 22019.6 15343.3 22009 15342.4 21998.5 15341.8 21987.9 15341.6 21691.6 15341.6 M 22910.8 15341.6 22910.8 16408.4 23207.1 16408.4 23217.7 16408.2 23228.2 16407.6 23238.8 16406.7 23249.3 16405.4 23259.7 16403.7 23270.1 16401.6 23280.4 16399.2 23290.6 16396.4 23300.7 16393.2 23310.6 16389.7 23320.5 16385.8 23330.2 16381.6 23339.7 16377.1 23349.1 16372.2 23358.3 16366.9 23367.3 16361.4 23376.1 16355.5 23384.7 16349.3 23393 16342.8 23401.1 16336 23409 16329 23416.6 16321.6 23424 16314 23431 16306.1 23437.8 16298 23444.3 16289.7 23450.5 16281.1 23456.4 16272.3 23461.9 16263.3 23467.2 16254.1 23472.1 16244.7 23476.6 16235.2 23480.8 16225.5 23484.7 16215.6 23488.2 16205.7 23491.4 16195.6 23494.2 16185.4 23496.6 16175.1 23498.7 16164.7 23500.4 16154.3 23501.7 16143.8 23502.6 16133.2 23503.2 16122.7 23503.4 16112.1 M 23503.5 16112.1 23503.5 15637.9 M 23503.4 15637.9 23503.2 15627.3 23502.6 15616.8 23501.7 15606.2 23500.4 15595.7 23498.7 15585.3 23496.6 15574.9 23494.2 15564.6 23491.4 15554.4 23488.2 15544.3 23484.7 15534.4 23480.8 15524.5 23476.6 15514.8 23472.1 15505.3 23467.2 15495.9 23461.9 15486.7 23456.4 15477.7 23450.5 15468.9 23444.3 15460.3 23437.8 15452 23431 15443.9 23424 15436 23416.6 15428.4 23409 15421 23401.1 15414 23393 15407.2 23384.7 15400.7 23376.1 15394.5 23367.3 15388.6 23358.3 15383.1 23349.1 15377.8 23339.7 15372.9 23330.2 15368.4 23320.5 15364.2 23310.6 15360.3 23300.7 15356.8 23290.6 15353.6 23280.4 15350.8 23270.1 15348.4 23259.7 15346.3 23249.3 15344.6 23238.8 15343.3 23228.2 15342.4 23217.7 15341.8 23207.1 15341.6 22910.8 15341.6 M 24409.4 15341.6 24419 15341.8 24428.5 15342.4 24438 15343.3 24447.4 15344.7 24456.8 15346.4 24466.1 15348.5 24475.4 15351 24484.5 15353.8 24493.5 15357 24502.3 15360.6 24511 15364.5 24519.6 15368.8 24528 15373.4 24536.1 15378.3 24544.1 15383.6 24551.8 15389.2 24559.4 15395 24566.6 15401.2 24573.6 15407.7 24580.4 15414.5 24586.9 15421.5 24593.1 15428.7 24598.9 15436.3 24604.5 15444 24609.8 15452 24614.7 15460.2 24619.3 15468.5 24623.6 15477.1 24627.5 15485.8 24631.1 15494.6 24634.3 15503.6 24637.1 15512.7 24639.6 15522 24641.7 15531.3 24643.4 15540.7 24644.8 15550.1 24645.7 15559.6 24646.3 15569.2 24646.5 15578.7 M 24409.4 15341.6 24395.8 15341.8 24382.1 15342.3 24368.5 15343.3 24355 15344.6 24341.4 15346.2 24328 15348.3 24314.5 15350.7 24301.2 15353.4 24287.9 15356.6 24274.7 15360 24261.6 15363.9 24248.7 15368.1 24235.8 15372.6 24223.1 15377.5 24210.5 15382.8 24198.1 15388.4 24185.8 15394.3 24173.7 15400.5 24161.7 15407.1 24150 15414 24138.4 15421.3 24127 15428.8 24115.9 15436.6 24104.9 15444.8 24094.2 15453.2 24083.8 15461.9 24073.5 15470.9 24063.5 15480.2 24053.8 15489.8 M 24083.4 16171.3 24083.6 16180.8 24084.2 16190.4 24085.1 16199.9 24086.5 16209.3 24088.2 16218.7 24090.3 16228 24092.8 16237.3 24095.6 16246.4 24098.8 16255.4 24102.4 16264.2 24106.3 16272.9 24110.6 16281.5 24115.2 16289.9 24120.1 16298 24125.4 16306 24131 16313.7 24136.8 16321.3 24143 16328.5 24149.5 16335.5 24156.3 16342.3 24163.3 16348.8 24170.5 16355 24178.1 16360.8 24185.8 16366.4 24193.8 16371.7 24202 16376.6 24210.3 16381.2 24218.9 16385.5 24227.6 16389.4 24236.4 16393 24245.4 16396.2 24254.5 16399 24263.8 16401.5 24273.1 16403.6 24282.5 16405.3 24291.9 16406.7 24301.4 16407.6 24311 16408.2 24320.5 16408.4 24333.5 16408.2 24346.5 16407.6 24359.5 16406.7 24372.4 16405.4 24385.3 16403.7 24398.1 16401.6 24410.9 16399.1 24423.6 16396.3 24436.2 16393.1 24448.7 16389.5 24461.1 16385.6 24473.3 16381.3 24485.5 16376.7 24497.5 16371.6 24509.3 16366.3 24521 16360.6 24532.5 16354.6 24543.9 16348.2 24555 16341.5 24566 16334.5 24576.7 16327.1 24587.2 16319.5 M 24202 15963.8 24193.8 15968.9 24185.8 15974.3 24178 15979.9 24170.5 15985.9 24163.2 15992.2 24156.2 15998.8 24149.5 16005.6 24143 16012.7 24136.8 16020.1 24130.9 16027.7 24125.3 16035.5 24120.1 16043.6 24115.1 16051.8 24110.5 16060.3 24106.3 16068.9 24102.3 16077.7 24098.8 16086.6 24095.6 16095.7 24092.7 16104.9 24090.3 16114.2 24088.2 16123.5 24086.5 16133 24085.1 16142.5 24084.2 16152.1 24083.6 16161.7 24083.4 16171.3 M 24528 15786.2 24536.1 15781.1 24544.1 15775.7 24551.9 15770.1 24559.4 15764.1 24566.7 15757.8 24573.7 15751.2 24580.4 15744.4 24586.9 15737.3 24593.1 15729.9 24599 15722.3 24604.6 15714.5 24609.8 15706.4 24614.8 15698.2 24619.4 15689.7 24623.6 15681.1 24627.6 15672.3 24631.1 15663.4 24634.3 15654.3 24637.2 15645.1 24639.6 15635.8 24641.7 15626.5 24643.4 15617 24644.8 15607.5 24645.7 15597.9 24646.3 15588.3 24646.5 15578.7 M 24527.9 15786.1 24202 15963.9 M 25158.7 16171.3 25455 16408.4 25455 15341.6 M 25158.7 15341.6 25751.4 15341.6 M 21691.6 4978.4 21691.6 3911.6 M 21691.6 4978.4 21987.9 4978.4 21998.5 4978.2 22009 4977.6 22019.6 4976.7 22030.1 4975.4 22040.5 4973.7 22050.9 4971.6 22061.2 4969.2 22071.4 4966.4 22081.5 4963.2 22091.4 4959.7 22101.3 4955.8 22111 4951.6 22120.5 4947.1 22129.9 4942.2 22139.1 4936.9 22148.1 4931.4 22156.9 4925.5 22165.5 4919.3 22173.8 4912.8 22181.9 4906 22189.8 4899 22197.4 4891.6 22204.8 4884 22211.8 4876.1 22218.6 4868 22225.1 4859.7 22231.3 4851.1 22237.2 4842.3 22242.7 4833.3 22248 4824.1 22252.9 4814.7 22257.4 4805.2 22261.6 4795.5 22265.5 4785.6 22269 4775.7 22272.2 4765.6 22275 4755.4 22277.4 4745.1 22279.5 4734.7 22281.2 4724.3 22282.5 4713.8 22283.4 4703.2 22284 4692.7 22284.2 4682.1 M 22284.3 4682.1 22284.3 4207.9 M 22284.2 4207.9 22284 4197.3 22283.4 4186.8 22282.5 4176.2 22281.2 4165.7 22279.5 4155.3 22277.4 4144.9 22275 4134.6 22272.2 4124.4 22269 4114.3 22265.5 4104.4 22261.6 4094.5 22257.4 4084.8 22252.9 4075.3 22248 4065.9 22242.7 4056.7 22237.2 4047.7 22231.3 4038.9 22225.1 4030.3 22218.6 4022 22211.8 4013.9 22204.8 4006 22197.4 3998.4 22189.8 3991 22181.9 3984 22173.8 3977.2 22165.5 3970.7 22156.9 3964.5 22148.1 3958.6 22139.1 3953.1 22129.9 3947.8 22120.5 3942.9 22111 3938.4 22101.3 3934.2 22091.4 3930.3 22081.5 3926.8 22071.4 3923.6 22061.2 3920.8 22050.9 3918.4 22040.5 3916.3 22030.1 3914.6 22019.6 3913.3 22009 3912.4 21998.5 3911.8 21987.9 3911.6 21691.6 3911.6 M 22910.8 3911.6 22910.8 4978.4 23207.1 4978.4 23217.7 4978.2 23228.2 4977.6 23238.8 4976.7 23249.3 4975.4 23259.7 4973.7 23270.1 4971.6 23280.4 4969.2 23290.6 4966.4 23300.7 4963.2 23310.6 4959.7 23320.5 4955.8 23330.2 4951.6 23339.7 4947.1 23349.1 4942.2 23358.3 4936.9 23367.3 4931.4 23376.1 4925.5 23384.7 4919.3 23393 4912.8 23401.1 4906 23409 4899 23416.6 4891.6 23424 4884 23431 4876.1 23437.8 4868 23444.3 4859.7 23450.5 4851.1 23456.4 4842.3 23461.9 4833.3 23467.2 4824.1 23472.1 4814.7 23476.6 4805.2 23480.8 4795.5 23484.7 4785.6 23488.2 4775.7 23491.4 4765.6 23494.2 4755.4 23496.6 4745.1 23498.7 4734.7 23500.4 4724.3 23501.7 4713.8 23502.6 4703.2 23503.2 4692.7 23503.4 4682.1 M 23503.5 4682.1 23503.5 4207.9 M 23503.4 4207.9 23503.2 4197.3 23502.6 4186.8 23501.7 4176.2 23500.4 4165.7 23498.7 4155.3 23496.6 4144.9 23494.2 4134.6 23491.4 4124.4 23488.2 4114.3 23484.7 4104.4 23480.8 4094.5 23476.6 4084.8 23472.1 4075.3 23467.2 4065.9 23461.9 4056.7 23456.4 4047.7 23450.5 4038.9 23444.3 4030.3 23437.8 4022 23431 4013.9 23424 4006 23416.6 3998.4 23409 3991 23401.1 3984 23393 3977.2 23384.7 3970.7 23376.1 3964.5 23367.3 3958.6 23358.3 3953.1 23349.1 3947.8 23339.7 3942.9 23330.2 3938.4 23320.5 3934.2 23310.6 3930.3 23300.7 3926.8 23290.6 3923.6 23280.4 3920.8 23270.1 3918.4 23259.7 3916.3 23249.3 3914.6 23238.8 3913.3 23228.2 3912.4 23217.7 3911.8 23207.1 3911.6 22910.8 3911.6 M 24409.4 3911.6 24419 3911.8 24428.5 3912.4 24438 3913.3 24447.4 3914.7 24456.8 3916.4 24466.1 3918.5 24475.4 3921 24484.5 3923.8 24493.5 3927 24502.3 3930.6 24511 3934.5 24519.6 3938.8 24528 3943.4 24536.1 3948.3 24544.1 3953.6 24551.8 3959.2 24559.4 3965 24566.6 3971.2 24573.6 3977.7 24580.4 3984.5 24586.9 3991.5 24593.1 3998.7 24598.9 4006.3 24604.5 4014 24609.8 4022 24614.7 4030.2 24619.3 4038.5 24623.6 4047.1 24627.5 4055.8 24631.1 4064.6 24634.3 4073.6 24637.1 4082.7 24639.6 4092 24641.7 4101.3 24643.4 4110.7 24644.8 4120.1 24645.7 4129.6 24646.3 4139.2 24646.5 4148.7 M 24409.4 3911.6 24395.8 3911.8 24382.1 3912.3 24368.5 3913.3 24355 3914.6 24341.4 3916.2 24328 3918.3 24314.5 3920.7 24301.2 3923.4 24287.9 3926.6 24274.7 3930 24261.6 3933.9 24248.7 3938.1 24235.8 3942.6 24223.1 3947.5 24210.5 3952.8 24198.1 3958.4 24185.8 3964.3 24173.7 3970.5 24161.7 3977.1 24150 3984 24138.4 3991.3 24127 3998.8 24115.9 4006.6 24104.9 4014.8 24094.2 4023.2 24083.8 4031.9 24073.5 4040.9 24063.5 4050.2 24053.8 4059.8 M 24083.4 4741.3 24083.6 4750.8 24084.2 4760.4 24085.1 4769.9 24086.5 4779.3 24088.2 4788.7 24090.3 4798 24092.8 4807.3 24095.6 4816.4 24098.8 4825.4 24102.4 4834.2 24106.3 4842.9 24110.6 4851.5 24115.2 4859.9 24120.1 4868 24125.4 4876 24131 4883.7 24136.8 4891.3 24143 4898.5 24149.5 4905.5 24156.3 4912.3 24163.3 4918.8 24170.5 4925 24178.1 4930.8 24185.8 4936.4 24193.8 4941.7 24202 4946.6 24210.3 4951.2 24218.9 4955.5 24227.6 4959.4 24236.4 4963 24245.4 4966.2 24254.5 4969 24263.8 4971.5 24273.1 4973.6 24282.5 4975.3 24291.9 4976.7 24301.4 4977.6 24311 4978.2 24320.5 4978.4 24333.5 4978.2 24346.5 4977.6 24359.5 4976.7 24372.4 4975.4 24385.3 4973.7 24398.1 4971.6 24410.9 4969.1 24423.6 4966.3 24436.2 4963.1 24448.7 4959.5 24461.1 4955.6 24473.3 4951.3 24485.5 4946.7 24497.5 4941.6 24509.3 4936.3 24521 4930.6 24532.5 4924.6 24543.9 4918.2 24555 4911.5 24566 4904.5 24576.7 4897.1 24587.2 4889.5 M 24202 4533.8 24193.8 4538.9 24185.8 4544.3 24178 4549.9 24170.5 4555.9 24163.2 4562.2 24156.2 4568.8 24149.5 4575.6 24143 4582.7 24136.8 4590.1 24130.9 4597.7 24125.3 4605.5 24120.1 4613.6 24115.1 4621.8 24110.5 4630.3 24106.3 4638.9 24102.3 4647.7 24098.8 4656.6 24095.6 4665.7 24092.7 4674.9 24090.3 4684.2 24088.2 4693.5 24086.5 4703 24085.1 4712.5 24084.2 4722.1 24083.6 4731.7 24083.4 4741.3 M 24528 4356.2 24536.1 4351.1 24544.1 4345.7 24551.9 4340.1 24559.4 4334.1 24566.7 4327.8 24573.7 4321.2 24580.4 4314.4 24586.9 4307.3 24593.1 4299.9 24599 4292.3 24604.6 4284.5 24609.8 4276.4 24614.8 4268.2 24619.4 4259.7 24623.6 4251.1 24627.6 4242.3 24631.1 4233.4 24634.3 4224.3 24637.2 4215.1 24639.6 4205.8 24641.7 4196.5 24643.4 4187 24644.8 4177.5 24645.7 4167.9 24646.3 4158.3 24646.5 4148.7 M 24527.9 4356.1 24202 4533.9 M 25484.7 4978.4 25494.9 4978.2 25505.1 4977.6 25515.3 4976.6 25525.4 4975.3 25535.5 4973.5 25545.5 4971.4 25555.4 4968.9 25565.2 4966 25574.8 4962.7 25584.4 4959.1 25593.8 4955.1 25603 4950.7 25612.1 4946 25621 4940.9 25629.7 4935.6 25638.1 4929.8 25646.4 4923.8 25654.4 4917.5 25662.1 4910.8 25669.6 4903.9 25676.9 4896.6 25683.8 4889.1 25690.5 4881.4 25696.8 4873.4 25702.8 4865.1 25708.6 4856.7 25713.9 4848 25719 4839.1 25723.7 4830 25728.1 4820.8 25732.1 4811.4 25735.7 4801.8 25739 4792.2 25741.9 4782.4 25744.4 4772.5 25746.5 4762.5 25748.3 4752.4 25749.6 4742.3 25750.6 4732.1 25751.2 4721.9 25751.4 4711.7 M 25484.7 4978.4 25473.1 4978.2 25461.4 4977.6 25449.8 4976.6 25438.3 4975.2 25426.8 4973.5 25415.3 4971.3 25404 4968.7 25392.7 4965.8 25381.5 4962.5 25370.5 4958.8 25359.6 4954.7 25348.8 4950.3 25338.2 4945.5 25327.8 4940.3 25317.5 4934.8 25307.4 4929 25297.6 4922.8 25287.9 4916.3 25278.5 4909.4 25269.3 4902.2 25260.4 4894.8 25251.7 4887 25243.3 4878.9 25235.2 4870.6 25227.4 4862 25219.8 4853.1 25212.6 4844 25205.7 4834.6 25199.1 4825 25192.8 4815.2 25186.9 4805.2 25181.3 4795 25176.1 4784.6 25171.2 4774 25166.7 4763.3 25162.5 4752.4 25158.8 4741.4 M 25662.5 4504.2 25670 4511.6 25677.2 4519.3 25684.1 4527.3 25690.8 4535.5 25697.1 4543.9 25703.1 4552.6 25708.8 4561.4 25714.2 4570.5 25719.2 4579.8 25723.9 4589.2 25728.2 4598.8 25732.2 4608.6 25735.8 4618.5 25739.1 4628.5 25741.9 4638.7 25744.4 4648.9 25746.6 4659.3 25748.3 4669.7 25749.7 4680.1 25750.6 4690.6 25751.2 4701.2 25751.4 4711.7 M 25662.5 4504.3 25158.7 3911.6 25751.4 3911.6" fill="none" stroke-width="203.2"/><path d="M 3500 35000 3500 38000 M 2000 36500 5000 36500 M 5000 3480 2000 3480 M 35020 3480 38020 3480 M 38020 36500 35020 36500 M 36520 38000 36520 35000 M 36520 4980 36520 1980 M 3500 1980 3500 4980" fill="none" stroke-width="300"/><use xlink:href="#KchBXasipqfFTw6788Al_pad-12" x="6775.8" y="27474.8"/><path d="M 7680 27365 7680 27224.8 M 7680 27365 15180 27365 15180 27224.8 M 7680 15955.2 7680 15815 15180 15815 15180 15955.2" fill="none" stroke-width="120"/><path d="M 10407.7 28461.4 10407.7 29528.2 M 10289.1 28461.4 10526.2 28461.4 M 10526.2 29528.2 10289.1 29528.2 M 11257.8 28461.4 11494.9 28461.4 M 11257.8 28461.4 11248.3 28461.6 11238.7 28462.2 11229.2 28463.1 11219.8 28464.5 11210.4 28466.2 11201.1 28468.3 11191.8 28470.8 11182.7 28473.6 11173.7 28476.8 11164.9 28480.4 11156.2 28484.3 11147.6 28488.6 11139.2 28493.2 11131.1 28498.1 11123.1 28503.4 11115.4 28509 11107.8 28514.8 11100.6 28521 11093.6 28527.5 11086.8 28534.3 11080.3 28541.3 11074.1 28548.5 11068.3 28556.1 11062.7 28563.8 11057.4 28571.8 11052.5 28580 11047.9 28588.3 11043.6 28596.9 11039.7 28605.6 11036.1 28614.4 11032.9 28623.4 11030.1 28632.5 11027.6 28641.8 11025.5 28651.1 11023.8 28660.5 11022.4 28669.9 11021.5 28679.4 11020.9 28689 11020.7 28698.5 11020.7 29291.1 11020.9 29300.6 11021.5 29310.2 11022.4 29319.7 11023.8 29329.1 11025.5 29338.5 11027.6 29347.8 11030.1 29357.1 11032.9 29366.2 11036.1 29375.2 11039.7 29384 11043.6 29392.7 11047.9 29401.3 11052.5 29409.6 11057.4 29417.8 11062.7 29425.8 11068.3 29433.5 11074.1 29441.1 11080.3 29448.3 11086.8 29455.3 11093.6 29462.1 11100.6 29468.6 11107.8 29474.8 11115.4 29480.6 11123.1 29486.2 11131.1 29491.5 11139.2 29496.4 11147.6 29501 11156.2 29505.3 11164.9 29509.2 11173.7 29512.8 11182.7 29516 11191.8 29518.8 11201.1 29521.3 11210.4 29523.4 11219.8 29525.1 11229.2 29526.5 11238.7 29527.4 11248.2 29528 11257.8 29528.2 11494.9 29528.2 M 11978.2 29291.1 12274.5 29528.2 12274.5 28461.4 M 11978.2 28461.4 12570.9 28461.4" fill="none" stroke-width="203.2"/><path d="M 21130 11990 27130 11990 27130 5790 21130 5790 21130 11990" fill="none" stroke-width="127"/><path d="M 22352 8890 22352.5 8933.6 22354.1 8977.2 22356.8 9020.8 22360.6 9064.3 22365.4 9107.6 22371.2 9150.9 22378.2 9194 22386.2 9236.9 22395.2 9279.6 22405.3 9322 22416.4 9364.2 22428.6 9406.1 22441.7 9447.7 22455.9 9489 22471.1 9529.9 22487.3 9570.4 22504.5 9610.5 22522.7 9650.2 22541.8 9689.4 22561.9 9728.1 22583 9766.4 22605 9804.1 22627.9 9841.2 22651.6 9877.8 22676.3 9913.8 22701.9 9949.2 22728.3 9983.9 22755.6 10018 22783.7 10051.3 22812.6 10084 22842.3 10116 22872.8 10147.2 22904 10177.7 22936 10207.4 22968.7 10236.3 23002 10264.4 23036.1 10291.7 23070.8 10318.1 23106.2 10343.7 23142.2 10368.4 23178.8 10392.1 23215.9 10415 23253.6 10437 23291.9 10458.1 23330.6 10478.2 23369.8 10497.3 23409.5 10515.5 23449.6 10532.7 23490.1 10548.9 23531 10564.1 23572.3 10578.3 23613.9 10591.4 23655.8 10603.6 23698 10614.7 23740.4 10624.8 23783.1 10633.8 23826 10641.8 23869.1 10648.8 23912.4 10654.6 23955.7 10659.4 23999.2 10663.2 24042.8 10665.9 24086.4 10667.5 24130 10668 24173.6 10667.5 24217.2 10665.9 24260.8 10663.2 24304.3 10659.4 24347.6 10654.6 24390.9 10648.8 24434 10641.8 24476.9 10633.8 24519.6 10624.8 24562 10614.7 24604.2 10603.6 24646.1 10591.4 24687.7 10578.3 24729 10564.1 24769.9 10548.9 24810.4 10532.7 24850.5 10515.5 24890.2 10497.3 24929.4 10478.2 24968.1 10458.1 25006.4 10437 25044.1 10415 25081.2 10392.1 25117.8 10368.4 25153.8 10343.7 25189.2 10318.1 25223.9 10291.7 25258 10264.4 25291.3 10236.3 25324 10207.4 25356 10177.7 25387.2 10147.2 25417.7 10116 25447.4 10084 25476.3 10051.3 25504.4 10018 25531.7 9983.9 25558.1 9949.2 25583.7 9913.8 25608.4 9877.8 25632.1 9841.2 25655 9804.1 25677 9766.4 25698.1 9728.1 25718.2 9689.4 25737.3 9650.2 25755.5 9610.5 25772.7 9570.4 25788.9 9529.9 25804.1 9489 25818.3 9447.7 25831.4 9406.1 25843.6 9364.2 25854.7 9322 25864.8 9279.6 25873.8 9236.9 25881.8 9194 25888.8 9150.9 25894.6 9107.6 25899.4 9064.3 25903.2 9020.8 25905.9 8977.2 25907.5 8933.6 25908 8890 25907.5 8846.4 25905.9 8802.8 25903.2 8759.2 25899.4 8715.7 25894.6 8672.4 25888.8 8629.1 25881.8 8586 25873.8 8543.1 25864.8 8500.4 25854.7 8458 25843.6 8415.8 25831.4 8373.9 25818.3 8332.3 25804.1 8291 25788.9 8250.1 25772.7 8209.6 25755.5 8169.5 25737.3 8129.8 25718.2 8090.6 25698.1 8051.9 25677 8013.6 25655 7975.9 25632.1 7938.8 25608.4 7902.2 25583.7 7866.2 25558.1 7830.8 25531.7 7796.1 25504.4 7762 25476.3 7728.7 25447.4 7696 25417.7 7664 25387.2 7632.8 25356 7602.3 25324 7572.6 25291.3 7543.7 25258 7515.6 25223.9 7488.3 25189.2 7461.9 25153.8 7436.3 25117.8 7411.6 25081.2 7387.9 25044.1 7365 25006.4 7343 24968.1 7321.9 24929.4 7301.8 24890.2 7282.7 24850.5 7264.5 24810.4 7247.3 24769.9 7231.1 24729 7215.9 24687.7 7201.7 24646.1 7188.6 24604.2 7176.4 24562 7165.3 24519.6 7155.2 24476.9 7146.2 24434 7138.2 24390.9 7131.2 24347.6 7125.4 24304.3 7120.6 24260.8 7116.8 24217.2 7114.1 24173.6 7112.5 24130 7112 24086.4 7112.5 24042.8 7114.1 23999.2 7116.8 23955.7 7120.6 23912.4 7125.4 23869.1 7131.2 23826 7138.2 23783.1 7146.2 23740.4 7155.2 23698 7165.3 23655.8 7176.4 23613.9 7188.6 23572.3 7201.7 23531 7215.9 23490.1 7231.1 23449.6 7247.3 23409.5 7264.5 23369.8 7282.7 23330.6 7301.8 23291.9 7321.9 23253.6 7343 23215.9 7365 23178.8 7387.9 23142.2 7411.6 23106.2 7436.3 23070.8 7461.9 23036.1 7488.3 23002 7515.6 22968.7 7543.7 22936 7572.6 22904 7602.3 22872.8 7632.8 22842.3 7664 22812.6 7696 22783.7 7728.7 22755.6 7762 22728.3 7796.1 22701.9 7830.8 22676.3 7866.2 22651.6 7902.2 22627.9 7938.8 22605 7975.9 22583 8013.6 22561.9 8051.9 22541.8 8090.6 22522.7 8129.8 22504.5 8169.5 22487.3 8209.6 22471.1 8250.1 22455.9 8291 22441.7 8332.3 22428.6 8373.9 22416.4 8415.8 22405.3 8458 22395.2 8500.4 22386.2 8543.1 22378.2 8586 22371.2 8629.1 22365.4 8672.4 22360.6 8715.7 22356.8 8759.2 22354.1 8802.8 22352.5 8846.4 22352 8890 M 23876 8890 23876.2 8900 23876.8 8910.1 23877.8 8920 23879.2 8930 23880.9 8939.9 23883.1 8949.7 23885.7 8959.4 23888.6 8969 23891.9 8978.4 23895.6 8987.8 23899.6 8997 23904 9006 23908.8 9014.8 23913.9 9023.5 23919.3 9031.9 23925.1 9040.1 23931.2 9048.1 23937.6 9055.8 23944.3 9063.3 23951.3 9070.5 23958.6 9077.4 23966.1 9084 23973.9 9090.4 23981.9 9096.4 23990.2 9102.1 23998.7 9107.4 24007.4 9112.4 24016.3 9117.1 24025.3 9121.4 24034.5 9125.4 24043.9 9129 24053.4 9132.2 24063 9135 24072.8 9137.5 24082.6 9139.5 24092.5 9141.2 24102.5 9142.5 24112.4 9143.4 24122.5 9143.9 24132.5 9144 24142.5 9143.7 24152.6 9143 24162.5 9141.9 24172.5 9140.4 24182.3 9138.6 24192.1 9136.3 24201.8 9133.6 24211.3 9130.6 24220.8 9127.2 24230.1 9123.4 24239.2 9119.3 24248.2 9114.8 24257 9110 24265.6 9104.8 24274 9099.3 24282.1 9093.4 24290 9087.2 24297.7 9080.8 24305.1 9074 24312.2 9066.9 24319.1 9059.6 24325.6 9052 24331.9 9044.1 24337.8 9036 24343.4 9027.7 24348.7 9019.2 24353.6 9010.4 24358.2 9001.5 24362.4 8992.4 24366.3 8983.1 24369.8 8973.7 24372.9 8964.2 24375.7 8954.5 24378 8944.8 24380 8934.9 24381.6 8925 24382.8 8915.1 24383.6 8905 24384 8895 24384 8885 24383.6 8875 24382.8 8864.9 24381.6 8855 24380 8845.1 24378 8835.2 24375.7 8825.5 24372.9 8815.8 24369.8 8806.3 24366.3 8796.9 24362.4 8787.6 24358.2 8778.5 24353.6 8769.6 24348.7 8760.8 24343.4 8752.3 24337.8 8744 24331.9 8735.9 24325.6 8728 24319.1 8720.4 24312.2 8713.1 24305.1 8706 24297.7 8699.2 24290 8692.8 24282.1 8686.6 24274 8680.7 24265.6 8675.2 24257 8670 24248.2 8665.2 24239.2 8660.7 24230.1 8656.6 24220.8 8652.8 24211.3 8649.4 24201.8 8646.4 24192.1 8643.7 24182.3 8641.4 24172.5 8639.6 24162.5 8638.1 24152.6 8637 24142.5 8636.3 24132.5 8636 24122.5 8636.1 24112.4 8636.6 24102.5 8637.5 24092.5 8638.8 24082.6 8640.5 24072.8 8642.5 24063 8645 24053.4 8647.8 24043.9 8651 24034.5 8654.6 24025.3 8658.6 24016.3 8662.9 24007.4 8667.6 23998.7 8672.6 23990.2 8677.9 23981.9 8683.6 23973.9 8689.6 23966.1 8696 23958.6 8702.6 23951.3 8709.5 23944.3 8716.7 23937.6 8724.2 23931.2 8731.9 23925.1 8739.9 23919.3 8748.1 23913.9 8756.5 23908.8 8765.2 23904 8774 23899.6 8783 23895.6 8792.2 23891.9 8801.6 23888.6 8811 23885.7 8820.6 23883.1 8830.3 23880.9 8840.1 23879.2 8850 23877.8 8860 23876.8 8869.9 23876.2 8880 23876 8890" fill="none" stroke-width="152.4"/><path d="M 21539.2 12674.6 21548.8 12674.8 21558.3 12675.4 21567.8 12676.3 21577.2 12677.7 21586.6 12679.4 21595.9 12681.5 21605.2 12684 21614.3 12686.8 21623.3 12690 21632.1 12693.6 21640.8 12697.5 21649.4 12701.8 21657.8 12706.4 21665.9 12711.3 21673.9 12716.6 21681.6 12722.2 21689.2 12728 21696.4 12734.2 21703.4 12740.7 21710.2 12747.5 21716.7 12754.5 21722.9 12761.7 21728.7 12769.3 21734.3 12777 21739.6 12785 21744.5 12793.2 21749.1 12801.5 21753.4 12810.1 21757.3 12818.8 21760.9 12827.6 21764.1 12836.6 21766.9 12845.7 21769.4 12855 21771.5 12864.3 21773.2 12873.7 21774.6 12883.1 21775.5 12892.6 21776.1 12902.2 21776.3 12911.7 M 21539.2 12674.6 21525.6 12674.8 21511.9 12675.3 21498.3 12676.3 21484.8 12677.6 21471.2 12679.2 21457.8 12681.3 21444.3 12683.7 21431 12686.4 21417.7 12689.6 21404.5 12693 21391.4 12696.9 21378.5 12701.1 21365.6 12705.6 21352.9 12710.5 21340.3 12715.8 21327.9 12721.4 21315.6 12727.3 21303.5 12733.5 21291.5 12740.1 21279.8 12747 21268.2 12754.3 21256.8 12761.8 21245.7 12769.6 21234.7 12777.8 21224 12786.2 21213.6 12794.9 21203.3 12803.9 21193.3 12813.2 21183.6 12822.8 M 21213.2 13504.3 21213.4 13513.8 21214 13523.4 21214.9 13532.9 21216.3 13542.3 21218 13551.7 21220.1 13561 21222.6 13570.3 21225.4 13579.4 21228.6 13588.4 21232.2 13597.2 21236.1 13605.9 21240.4 13614.5 21245 13622.9 21249.9 13631 21255.2 13639 21260.8 13646.7 21266.6 13654.3 21272.8 13661.5 21279.3 13668.5 21286.1 13675.3 21293.1 13681.8 21300.3 13688 21307.9 13693.8 21315.6 13699.4 21323.6 13704.7 21331.8 13709.6 21340.1 13714.2 21348.7 13718.5 21357.4 13722.4 21366.2 13726 21375.2 13729.2 21384.3 13732 21393.6 13734.5 21402.9 13736.6 21412.3 13738.3 21421.7 13739.7 21431.2 13740.6 21440.8 13741.2 21450.3 13741.4 21463.3 13741.2 21476.3 13740.6 21489.3 13739.7 21502.2 13738.4 21515.1 13736.7 21527.9 13734.6 21540.7 13732.1 21553.4 13729.3 21566 13726.1 21578.5 13722.5 21590.9 13718.6 21603.1 13714.3 21615.3 13709.7 21627.3 13704.6 21639.1 13699.3 21650.8 13693.6 21662.3 13687.6 21673.7 13681.2 21684.8 13674.5 21695.8 13667.5 21706.5 13660.1 21717 13652.5 M 21331.8 13296.8 21323.6 13301.9 21315.6 13307.3 21307.8 13312.9 21300.3 13318.9 21293 13325.2 21286 13331.8 21279.3 13338.6 21272.8 13345.7 21266.6 13353.1 21260.7 13360.7 21255.1 13368.5 21249.9 13376.6 21244.9 13384.8 21240.3 13393.3 21236.1 13401.9 21232.1 13410.7 21228.6 13419.6 21225.4 13428.7 21222.5 13437.9 21220.1 13447.2 21218 13456.5 21216.3 13466 21214.9 13475.5 21214 13485.1 21213.4 13494.7 21213.2 13504.3 M 21657.8 13119.2 21665.9 13114.1 21673.9 13108.7 21681.7 13103.1 21689.2 13097.1 21696.5 13090.8 21703.5 13084.2 21710.2 13077.4 21716.7 13070.3 21722.9 13062.9 21728.8 13055.3 21734.4 13047.5 21739.6 13039.4 21744.6 13031.2 21749.2 13022.7 21753.4 13014.1 21757.4 13005.3 21760.9 12996.4 21764.1 12987.3 21767 12978.1 21769.4 12968.8 21771.5 12959.5 21773.2 12950 21774.6 12940.5 21775.5 12930.9 21776.1 12921.3 21776.3 12911.7 M 21657.7 13119.1 21331.8 13296.9 M 22288.5 13504.3 22584.8 13741.4 22584.8 12674.6 M 22288.5 12674.6 22881.2 12674.6" fill="none" stroke-width="203.2"/><path d="M 21130 23420 27130 23420 27130 17220 21130 17220 21130 23420" fill="none" stroke-width="127"/><path d="M 22352 20320 22352.5 20363.6 22354.1 20407.2 22356.8 20450.8 22360.6 20494.3 22365.4 20537.6 22371.2 20580.9 22378.2 20624 22386.2 20666.9 22395.2 20709.6 22405.3 20752 22416.4 20794.2 22428.6 20836.1 22441.7 20877.7 22455.9 20919 22471.1 20959.9 22487.3 21000.4 22504.5 21040.5 22522.7 21080.2 22541.8 21119.4 22561.9 21158.1 22583 21196.4 22605 21234.1 22627.9 21271.2 22651.6 21307.8 22676.3 21343.8 22701.9 21379.2 22728.3 21413.9 22755.6 21448 22783.7 21481.3 22812.6 21514 22842.3 21546 22872.8 21577.2 22904 21607.7 22936 21637.4 22968.7 21666.3 23002 21694.4 23036.1 21721.7 23070.8 21748.1 23106.2 21773.7 23142.2 21798.4 23178.8 21822.1 23215.9 21845 23253.6 21867 23291.9 21888.1 23330.6 21908.2 23369.8 21927.3 23409.5 21945.5 23449.6 21962.7 23490.1 21978.9 23531 21994.1 23572.3 22008.3 23613.9 22021.4 23655.8 22033.6 23698 22044.7 23740.4 22054.8 23783.1 22063.8 23826 22071.8 23869.1 22078.8 23912.4 22084.6 23955.7 22089.4 23999.2 22093.2 24042.8 22095.9 24086.4 22097.5 24130 22098 24173.6 22097.5 24217.2 22095.9 24260.8 22093.2 24304.3 22089.4 24347.6 22084.6 24390.9 22078.8 24434 22071.8 24476.9 22063.8 24519.6 22054.8 24562 22044.7 24604.2 22033.6 24646.1 22021.4 24687.7 22008.3 24729 21994.1 24769.9 21978.9 24810.4 21962.7 24850.5 21945.5 24890.2 21927.3 24929.4 21908.2 24968.1 21888.1 25006.4 21867 25044.1 21845 25081.2 21822.1 25117.8 21798.4 25153.8 21773.7 25189.2 21748.1 25223.9 21721.7 25258 21694.4 25291.3 21666.3 25324 21637.4 25356 21607.7 25387.2 21577.2 25417.7 21546 25447.4 21514 25476.3 21481.3 25504.4 21448 25531.7 21413.9 25558.1 21379.2 25583.7 21343.8 25608.4 21307.8 25632.1 21271.2 25655 21234.1 25677 21196.4 25698.1 21158.1 25718.2 21119.4 25737.3 21080.2 25755.5 21040.5 25772.7 21000.4 25788.9 20959.9 25804.1 20919 25818.3 20877.7 25831.4 20836.1 25843.6 20794.2 25854.7 20752 25864.8 20709.6 25873.8 20666.9 25881.8 20624 25888.8 20580.9 25894.6 20537.6 25899.4 20494.3 25903.2 20450.8 25905.9 20407.2 25907.5 20363.6 25908 20320 25907.5 20276.4 25905.9 20232.8 25903.2 20189.2 25899.4 20145.7 25894.6 20102.4 25888.8 20059.1 25881.8 20016 25873.8 19973.1 25864.8 19930.4 25854.7 19888 25843.6 19845.8 25831.4 19803.9 25818.3 19762.3 25804.1 19721 25788.9 19680.1 25772.7 19639.6 25755.5 19599.5 25737.3 19559.8 25718.2 19520.6 25698.1 19481.9 25677 19443.6 25655 19405.9 25632.1 19368.8 25608.4 19332.2 25583.7 19296.2 25558.1 19260.8 25531.7 19226.1 25504.4 19192 25476.3 19158.7 25447.4 19126 25417.7 19094 25387.2 19062.8 25356 19032.3 25324 19002.6 25291.3 18973.7 25258 18945.6 25223.9 18918.3 25189.2 18891.9 25153.8 18866.3 25117.8 18841.6 25081.2 18817.9 25044.1 18795 25006.4 18773 24968.1 18751.9 24929.4 18731.8 24890.2 18712.7 24850.5 18694.5 24810.4 18677.3 24769.9 18661.1 24729 18645.9 24687.7 18631.7 24646.1 18618.6 24604.2 18606.4 24562 18595.3 24519.6 18585.2 24476.9 18576.2 24434 18568.2 24390.9 18561.2 24347.6 18555.4 24304.3 18550.6 24260.8 18546.8 24217.2 18544.1 24173.6 18542.5 24130 18542 24086.4 18542.5 24042.8 18544.1 23999.2 18546.8 23955.7 18550.6 23912.4 18555.4 23869.1 18561.2 23826 18568.2 23783.1 18576.2 23740.4 18585.2 23698 18595.3 23655.8 18606.4 23613.9 18618.6 23572.3 18631.7 23531 18645.9 23490.1 18661.1 23449.6 18677.3 23409.5 18694.5 23369.8 18712.7 23330.6 18731.8 23291.9 18751.9 23253.6 18773 23215.9 18795 23178.8 18817.9 23142.2 18841.6 23106.2 18866.3 23070.8 18891.9 23036.1 18918.3 23002 18945.6 22968.7 18973.7 22936 19002.6 22904 19032.3 22872.8 19062.8 22842.3 19094 22812.6 19126 22783.7 19158.7 22755.6 19192 22728.3 19226.1 22701.9 19260.8 22676.3 19296.2 22651.6 19332.2 22627.9 19368.8 22605 19405.9 22583 19443.6 22561.9 19481.9 22541.8 19520.6 22522.7 19559.8 22504.5 19599.5 22487.3 19639.6 22471.1 19680.1 22455.9 19721 22441.7 19762.3 22428.6 19803.9 22416.4 19845.8 22405.3 19888 22395.2 19930.4 22386.2 19973.1 22378.2 20016 22371.2 20059.1 22365.4 20102.4 22360.6 20145.7 22356.8 20189.2 22354.1 20232.8 22352.5 20276.4 22352 20320 M 23876 20320 23876.2 20330 23876.8 20340.1 23877.8 20350 23879.2 20360 23880.9 20369.9 23883.1 20379.7 23885.7 20389.4 23888.6 20399 23891.9 20408.4 23895.6 20417.8 23899.6 20427 23904 20436 23908.8 20444.8 23913.9 20453.5 23919.3 20461.9 23925.1 20470.1 23931.2 20478.1 23937.6 20485.8 23944.3 20493.3 23951.3 20500.5 23958.6 20507.4 23966.1 20514 23973.9 20520.4 23981.9 20526.4 23990.2 20532.1 23998.7 20537.4 24007.4 20542.4 24016.3 20547.1 24025.3 20551.4 24034.5 20555.4 24043.9 20559 24053.4 20562.2 24063 20565 24072.8 20567.5 24082.6 20569.5 24092.5 20571.2 24102.5 20572.5 24112.4 20573.4 24122.5 20573.9 24132.5 20574 24142.5 20573.7 24152.6 20573 24162.5 20571.9 24172.5 20570.4 24182.3 20568.6 24192.1 20566.3 24201.8 20563.6 24211.3 20560.6 24220.8 20557.2 24230.1 20553.4 24239.2 20549.3 24248.2 20544.8 24257 20540 24265.6 20534.8 24274 20529.3 24282.1 20523.4 24290 20517.2 24297.7 20510.8 24305.1 20504 24312.2 20496.9 24319.1 20489.6 24325.6 20482 24331.9 20474.1 24337.8 20466 24343.4 20457.7 24348.7 20449.2 24353.6 20440.4 24358.2 20431.5 24362.4 20422.4 24366.3 20413.1 24369.8 20403.7 24372.9 20394.2 24375.7 20384.5 24378 20374.8 24380 20364.9 24381.6 20355 24382.8 20345.1 24383.6 20335 24384 20325 24384 20315 24383.6 20305 24382.8 20294.9 24381.6 20285 24380 20275.1 24378 20265.2 24375.7 20255.5 24372.9 20245.8 24369.8 20236.3 24366.3 20226.9 24362.4 20217.6 24358.2 20208.5 24353.6 20199.6 24348.7 20190.8 24343.4 20182.3 24337.8 20174 24331.9 20165.9 24325.6 20158 24319.1 20150.4 24312.2 20143.1 24305.1 20136 24297.7 20129.2 24290 20122.8 24282.1 20116.6 24274 20110.7 24265.6 20105.2 24257 20100 24248.2 20095.2 24239.2 20090.7 24230.1 20086.6 24220.8 20082.8 24211.3 20079.4 24201.8 20076.4 24192.1 20073.7 24182.3 20071.4 24172.5 20069.6 24162.5 20068.1 24152.6 20067 24142.5 20066.3 24132.5 20066 24122.5 20066.1 24112.4 20066.6 24102.5 20067.5 24092.5 20068.8 24082.6 20070.5 24072.8 20072.5 24063 20075 24053.4 20077.8 24043.9 20081 24034.5 20084.6 24025.3 20088.6 24016.3 20092.9 24007.4 20097.6 23998.7 20102.6 23990.2 20107.9 23981.9 20113.6 23973.9 20119.6 23966.1 20126 23958.6 20132.6 23951.3 20139.5 23944.3 20146.7 23937.6 20154.2 23931.2 20161.9 23925.1 20169.9 23919.3 20178.1 23913.9 20186.5 23908.8 20195.2 23904 20204 23899.6 20213 23895.6 20222.2 23891.9 20231.6 23888.6 20241 23885.7 20250.6 23883.1 20260.3 23880.9 20270.1 23879.2 20280 23877.8 20290 23876.8 20299.9 23876.2 20310 23876 20320" fill="none" stroke-width="152.4"/><path d="M 21539.2 24104.6 21548.8 24104.8 21558.3 24105.4 21567.8 24106.3 21577.2 24107.7 21586.6 24109.4 21595.9 24111.5 21605.2 24114 21614.3 24116.8 21623.3 24120 21632.1 24123.6 21640.8 24127.5 21649.4 24131.8 21657.8 24136.4 21665.9 24141.3 21673.9 24146.6 21681.6 24152.2 21689.2 24158 21696.4 24164.2 21703.4 24170.7 21710.2 24177.5 21716.7 24184.5 21722.9 24191.7 21728.7 24199.3 21734.3 24207 21739.6 24215 21744.5 24223.2 21749.1 24231.5 21753.4 24240.1 21757.3 24248.8 21760.9 24257.6 21764.1 24266.6 21766.9 24275.7 21769.4 24285 21771.5 24294.3 21773.2 24303.7 21774.6 24313.1 21775.5 24322.6 21776.1 24332.2 21776.3 24341.7 M 21539.2 24104.6 21525.6 24104.8 21511.9 24105.3 21498.3 24106.3 21484.8 24107.6 21471.2 24109.2 21457.8 24111.3 21444.3 24113.7 21431 24116.4 21417.7 24119.6 21404.5 24123 21391.4 24126.9 21378.5 24131.1 21365.6 24135.6 21352.9 24140.5 21340.3 24145.8 21327.9 24151.4 21315.6 24157.3 21303.5 24163.5 21291.5 24170.1 21279.8 24177 21268.2 24184.3 21256.8 24191.8 21245.7 24199.6 21234.7 24207.8 21224 24216.2 21213.6 24224.9 21203.3 24233.9 21193.3 24243.2 21183.6 24252.8 M 21213.2 24934.3 21213.4 24943.8 21214 24953.4 21214.9 24962.9 21216.3 24972.3 21218 24981.7 21220.1 24991 21222.6 25000.3 21225.4 25009.4 21228.6 25018.4 21232.2 25027.2 21236.1 25035.9 21240.4 25044.5 21245 25052.9 21249.9 25061 21255.2 25069 21260.8 25076.7 21266.6 25084.3 21272.8 25091.5 21279.3 25098.5 21286.1 25105.3 21293.1 25111.8 21300.3 25118 21307.9 25123.8 21315.6 25129.4 21323.6 25134.7 21331.8 25139.6 21340.1 25144.2 21348.7 25148.5 21357.4 25152.4 21366.2 25156 21375.2 25159.2 21384.3 25162 21393.6 25164.5 21402.9 25166.6 21412.3 25168.3 21421.7 25169.7 21431.2 25170.6 21440.8 25171.2 21450.3 25171.4 21463.3 25171.2 21476.3 25170.6 21489.3 25169.7 21502.2 25168.4 21515.1 25166.7 21527.9 25164.6 21540.7 25162.1 21553.4 25159.3 21566 25156.1 21578.5 25152.5 21590.9 25148.6 21603.1 25144.3 21615.3 25139.7 21627.3 25134.6 21639.1 25129.3 21650.8 25123.6 21662.3 25117.6 21673.7 25111.2 21684.8 25104.5 21695.8 25097.5 21706.5 25090.1 21717 25082.5 M 21331.8 24726.8 21323.6 24731.9 21315.6 24737.3 21307.8 24742.9 21300.3 24748.9 21293 24755.2 21286 24761.8 21279.3 24768.6 21272.8 24775.7 21266.6 24783.1 21260.7 24790.7 21255.1 24798.5 21249.9 24806.6 21244.9 24814.8 21240.3 24823.3 21236.1 24831.9 21232.1 24840.7 21228.6 24849.6 21225.4 24858.7 21222.5 24867.9 21220.1 24877.2 21218 24886.5 21216.3 24896 21214.9 24905.5 21214 24915.1 21213.4 24924.7 21213.2 24934.3 M 21657.8 24549.2 21665.9 24544.1 21673.9 24538.7 21681.7 24533.1 21689.2 24527.1 21696.5 24520.8 21703.5 24514.2 21710.2 24507.4 21716.7 24500.3 21722.9 24492.9 21728.8 24485.3 21734.4 24477.5 21739.6 24469.4 21744.6 24461.2 21749.2 24452.7 21753.4 24444.1 21757.4 24435.3 21760.9 24426.4 21764.1 24417.3 21767 24408.1 21769.4 24398.8 21771.5 24389.5 21773.2 24380 21774.6 24370.5 21775.5 24360.9 21776.1 24351.3 21776.3 24341.7 M 21657.7 24549.1 21331.8 24726.9 M 22614.5 25171.4 22624.7 25171.2 22634.9 25170.6 22645.1 25169.6 22655.2 25168.3 22665.3 25166.5 22675.3 25164.4 22685.2 25161.9 22695 25159 22704.6 25155.7 22714.2 25152.1 22723.6 25148.1 22732.8 25143.7 22741.9 25139 22750.8 25133.9 22759.5 25128.6 22767.9 25122.8 22776.2 25116.8 22784.2 25110.5 22791.9 25103.8 22799.4 25096.9 22806.7 25089.6 22813.6 25082.1 22820.3 25074.4 22826.6 25066.4 22832.6 25058.1 22838.4 25049.7 22843.7 25041 22848.8 25032.1 22853.5 25023 22857.9 25013.8 22861.9 25004.4 22865.5 24994.8 22868.8 24985.2 22871.7 24975.4 22874.2 24965.5 22876.3 24955.5 22878.1 24945.4 22879.4 24935.3 22880.4 24925.1 22881 24914.9 22881.2 24904.7 M 22614.5 25171.4 22602.9 25171.2 22591.2 25170.6 22579.6 25169.6 22568.1 25168.2 22556.6 25166.5 22545.1 25164.3 22533.8 25161.7 22522.5 25158.8 22511.3 25155.5 22500.3 25151.8 22489.4 25147.7 22478.6 25143.3 22468 25138.5 22457.6 25133.3 22447.3 25127.8 22437.2 25122 22427.4 25115.8 22417.7 25109.3 22408.3 25102.4 22399.1 25095.2 22390.2 25087.8 22381.5 25080 22373.1 25071.9 22365 25063.6 22357.2 25055 22349.6 25046.1 22342.4 25037 22335.5 25027.6 22328.9 25018 22322.6 25008.2 22316.7 24998.2 22311.1 24988 22305.9 24977.6 22301 24967 22296.5 24956.3 22292.3 24945.4 22288.6 24934.4 M 22792.3 24697.2 22799.8 24704.6 22807 24712.3 22813.9 24720.3 22820.6 24728.5 22826.9 24736.9 22832.9 24745.6 22838.6 24754.4 22844 24763.5 22849 24772.8 22853.7 24782.2 22858 24791.8 22862 24801.6 22865.6 24811.5 22868.9 24821.5 22871.7 24831.7 22874.2 24841.9 22876.4 24852.3 22878.1 24862.7 22879.5 24873.1 22880.4 24883.6 22881 24894.2 22881.2 24904.7 M 22792.3 24697.3 22288.5 24104.6 22881.2 24104.6" fill="none" stroke-width="203.2"/><path d="M 21130 34850 27130 34850 27130 28650 21130 28650 21130 34850" fill="none" stroke-width="127"/><path d="M 22352 31750 22352.5 31793.6 22354.1 31837.2 22356.8 31880.8 22360.6 31924.3 22365.4 31967.6 22371.2 32010.9 22378.2 32054 22386.2 32096.9 22395.2 32139.6 22405.3 32182 22416.4 32224.2 22428.6 32266.1 22441.7 32307.7 22455.9 32349 22471.1 32389.9 22487.3 32430.4 22504.5 32470.5 22522.7 32510.2 22541.8 32549.4 22561.9 32588.1 22583 32626.4 22605 32664.1 22627.9 32701.2 22651.6 32737.8 22676.3 32773.8 22701.9 32809.2 22728.3 32843.9 22755.6 32878 22783.7 32911.3 22812.6 32944 22842.3 32976 22872.8 33007.2 22904 33037.7 22936 33067.4 22968.7 33096.3 23002 33124.4 23036.1 33151.7 23070.8 33178.1 23106.2 33203.7 23142.2 33228.4 23178.8 33252.1 23215.9 33275 23253.6 33297 23291.9 33318.1 23330.6 33338.2 23369.8 33357.3 23409.5 33375.5 23449.6 33392.7 23490.1 33408.9 23531 33424.1 23572.3 33438.3 23613.9 33451.4 23655.8 33463.6 23698 33474.7 23740.4 33484.8 23783.1 33493.8 23826 33501.8 23869.1 33508.8 23912.4 33514.6 23955.7 33519.4 23999.2 33523.2 24042.8 33525.9 24086.4 33527.5 24130 33528 24173.6 33527.5 24217.2 33525.9 24260.8 33523.2 24304.3 33519.4 24347.6 33514.6 24390.9 33508.8 24434 33501.8 24476.9 33493.8 24519.6 33484.8 24562 33474.7 24604.2 33463.6 24646.1 33451.4 24687.7 33438.3 24729 33424.1 24769.9 33408.9 24810.4 33392.7 24850.5 33375.5 24890.2 33357.3 24929.4 33338.2 24968.1 33318.1 25006.4 33297 25044.1 33275 25081.2 33252.1 25117.8 33228.4 25153.8 33203.7 25189.2 33178.1 25223.9 33151.7 25258 33124.4 25291.3 33096.3 25324 33067.4 25356 33037.7 25387.2 33007.2 25417.7 32976 25447.4 32944 25476.3 32911.3 25504.4 32878 25531.7 32843.9 25558.1 32809.2 25583.7 32773.8 25608.4 32737.8 25632.1 32701.2 25655 32664.1 25677 32626.4 25698.1 32588.1 25718.2 32549.4 25737.3 32510.2 25755.5 32470.5 25772.7 32430.4 25788.9 32389.9 25804.1 32349 25818.3 32307.7 25831.4 32266.1 25843.6 32224.2 25854.7 32182 25864.8 32139.6 25873.8 32096.9 25881.8 32054 25888.8 32010.9 25894.6 31967.6 25899.4 31924.3 25903.2 31880.8 25905.9 31837.2 25907.5 31793.6 25908 31750 25907.5 31706.4 25905.9 31662.8 25903.2 31619.2 25899.4 31575.7 25894.6 31532.4 25888.8 31489.1 25881.8 31446 25873.8 31403.1 25864.8 31360.4 25854.7 31318 25843.6 31275.8 25831.4 31233.9 25818.3 31192.3 25804.1 31151 25788.9 31110.1 25772.7 31069.6 25755.5 31029.5 25737.3 30989.8 25718.2 30950.6 25698.1 30911.9 25677 30873.6 25655 30835.9 25632.1 30798.8 25608.4 30762.2 25583.7 30726.2 25558.1 30690.8 25531.7 30656.1 25504.4 30622 25476.3 30588.7 25447.4 30556 25417.7 30524 25387.2 30492.8 25356 30462.3 25324 30432.6 25291.3 30403.7 25258 30375.6 25223.9 30348.3 25189.2 30321.9 25153.8 30296.3 25117.8 30271.6 25081.2 30247.9 25044.1 30225 25006.4 30203 24968.1 30181.9 24929.4 30161.8 24890.2 30142.7 24850.5 30124.5 24810.4 30107.3 24769.9 30091.1 24729 30075.9 24687.7 30061.7 24646.1 30048.6 24604.2 30036.4 24562 30025.3 24519.6 30015.2 24476.9 30006.2 24434 29998.2 24390.9 29991.2 24347.6 29985.4 24304.3 29980.6 24260.8 29976.8 24217.2 29974.1 24173.6 29972.5 24130 29972 24086.4 29972.5 24042.8 29974.1 23999.2 29976.8 23955.7 29980.6 23912.4 29985.4 23869.1 29991.2 23826 29998.2 23783.1 30006.2 23740.4 30015.2 23698 30025.3 23655.8 30036.4 23613.9 30048.6 23572.3 30061.7 23531 30075.9 23490.1 30091.1 23449.6 30107.3 23409.5 30124.5 23369.8 30142.7 23330.6 30161.8 23291.9 30181.9 23253.6 30203 23215.9 30225 23178.8 30247.9 23142.2 30271.6 23106.2 30296.3 23070.8 30321.9 23036.1 30348.3 23002 30375.6 22968.7 30403.7 22936 30432.6 22904 30462.3 22872.8 30492.8 22842.3 30524 22812.6 30556 22783.7 30588.7 22755.6 30622 22728.3 30656.1 22701.9 30690.8 22676.3 30726.2 22651.6 30762.2 22627.9 30798.8 22605 30835.9 22583 30873.6 22561.9 30911.9 22541.8 30950.6 22522.7 30989.8 22504.5 31029.5 22487.3 31069.6 22471.1 31110.1 22455.9 31151 22441.7 31192.3 22428.6 31233.9 22416.4 31275.8 22405.3 31318 22395.2 31360.4 22386.2 31403.1 22378.2 31446 22371.2 31489.1 22365.4 31532.4 22360.6 31575.7 22356.8 31619.2 22354.1 31662.8 22352.5 31706.4 22352 31750 M 23876 31750 23876.2 31760 23876.8 31770.1 23877.8 31780 23879.2 31790 23880.9 31799.9 23883.1 31809.7 23885.7 31819.4 23888.6 31829 23891.9 31838.4 23895.6 31847.8 23899.6 31857 23904 31866 23908.8 31874.8 23913.9 31883.5 23919.3 31891.9 23925.1 31900.1 23931.2 31908.1 23937.6 31915.8 23944.3 31923.3 23951.3 31930.5 23958.6 31937.4 23966.1 31944 23973.9 31950.4 23981.9 31956.4 23990.2 31962.1 23998.7 31967.4 24007.4 31972.4 24016.3 31977.1 24025.3 31981.4 24034.5 31985.4 24043.9 31989 24053.4 31992.2 24063 31995 24072.8 31997.5 24082.6 31999.5 24092.5 32001.2 24102.5 32002.5 24112.4 32003.4 24122.5 32003.9 24132.5 32004 24142.5 32003.7 24152.6 32003 24162.5 32001.9 24172.5 32000.4 24182.3 31998.6 24192.1 31996.3 24201.8 31993.6 24211.3 31990.6 24220.8 31987.2 24230.1 31983.4 24239.2 31979.3 24248.2 31974.8 24257 31970 24265.6 31964.8 24274 31959.3 24282.1 31953.4 24290 31947.2 24297.7 31940.8 24305.1 31934 24312.2 31926.9 24319.1 31919.6 24325.6 31912 24331.9 31904.1 24337.8 31896 24343.4 31887.7 24348.7 31879.2 24353.6 31870.4 24358.2 31861.5 24362.4 31852.4 24366.3 31843.1 24369.8 31833.7 24372.9 31824.2 24375.7 31814.5 24378 31804.8 24380 31794.9 24381.6 31785 24382.8 31775.1 24383.6 31765 24384 31755 24384 31745 24383.6 31735 24382.8 31724.9 24381.6 31715 24380 31705.1 24378 31695.2 24375.7 31685.5 24372.9 31675.8 24369.8 31666.3 24366.3 31656.9 24362.4 31647.6 24358.2 31638.5 24353.6 31629.6 24348.7 31620.8 24343.4 31612.3 24337.8 31604 24331.9 31595.9 24325.6 31588 24319.1 31580.4 24312.2 31573.1 24305.1 31566 24297.7 31559.2 24290 31552.8 24282.1 31546.6 24274 31540.7 24265.6 31535.2 24257 31530 24248.2 31525.2 24239.2 31520.7 24230.1 31516.6 24220.8 31512.8 24211.3 31509.4 24201.8 31506.4 24192.1 31503.7 24182.3 31501.4 24172.5 31499.6 24162.5 31498.1 24152.6 31497 24142.5 31496.3 24132.5 31496 24122.5 31496.1 24112.4 31496.6 24102.5 31497.5 24092.5 31498.8 24082.6 31500.5 24072.8 31502.5 24063 31505 24053.4 31507.8 24043.9 31511 24034.5 31514.6 24025.3 31518.6 24016.3 31522.9 24007.4 31527.6 23998.7 31532.6 23990.2 31537.9 23981.9 31543.6 23973.9 31549.6 23966.1 31556 23958.6 31562.6 23951.3 31569.5 23944.3 31576.7 23937.6 31584.2 23931.2 31591.9 23925.1 31599.9 23919.3 31608.1 23913.9 31616.5 23908.8 31625.2 23904 31634 23899.6 31643 23895.6 31652.2 23891.9 31661.6 23888.6 31671 23885.7 31680.6 23883.1 31690.3 23880.9 31700.1 23879.2 31710 23877.8 31720 23876.8 31729.9 23876.2 31740 23876 31750" fill="none" stroke-width="152.4"/><path d="M 21539.2 35534.6 21548.8 35534.8 21558.3 35535.4 21567.8 35536.3 21577.2 35537.7 21586.6 35539.4 21595.9 35541.5 21605.2 35544 21614.3 35546.8 21623.3 35550 21632.1 35553.6 21640.8 35557.5 21649.4 35561.8 21657.8 35566.4 21665.9 35571.3 21673.9 35576.6 21681.6 35582.2 21689.2 35588 21696.4 35594.2 21703.4 35600.7 21710.2 35607.5 21716.7 35614.5 21722.9 35621.7 21728.7 35629.3 21734.3 35637 21739.6 35645 21744.5 35653.2 21749.1 35661.5 21753.4 35670.1 21757.3 35678.8 21760.9 35687.6 21764.1 35696.6 21766.9 35705.7 21769.4 35715 21771.5 35724.3 21773.2 35733.7 21774.6 35743.1 21775.5 35752.6 21776.1 35762.2 21776.3 35771.7 M 21539.2 35534.6 21525.6 35534.8 21511.9 35535.3 21498.3 35536.3 21484.8 35537.6 21471.2 35539.2 21457.8 35541.3 21444.3 35543.7 21431 35546.4 21417.7 35549.6 21404.5 35553 21391.4 35556.9 21378.5 35561.1 21365.6 35565.6 21352.9 35570.5 21340.3 35575.8 21327.9 35581.4 21315.6 35587.3 21303.5 35593.5 21291.5 35600.1 21279.8 35607 21268.2 35614.3 21256.8 35621.8 21245.7 35629.6 21234.7 35637.8 21224 35646.2 21213.6 35654.9 21203.3 35663.9 21193.3 35673.2 21183.6 35682.8 M 21213.2 36364.3 21213.4 36373.8 21214 36383.4 21214.9 36392.9 21216.3 36402.3 21218 36411.7 21220.1 36421 21222.6 36430.3 21225.4 36439.4 21228.6 36448.4 21232.2 36457.2 21236.1 36465.9 21240.4 36474.5 21245 36482.9 21249.9 36491 21255.2 36499 21260.8 36506.7 21266.6 36514.3 21272.8 36521.5 21279.3 36528.5 21286.1 36535.3 21293.1 36541.8 21300.3 36548 21307.9 36553.8 21315.6 36559.4 21323.6 36564.7 21331.8 36569.6 21340.1 36574.2 21348.7 36578.5 21357.4 36582.4 21366.2 36586 21375.2 36589.2 21384.3 36592 21393.6 36594.5 21402.9 36596.6 21412.3 36598.3 21421.7 36599.7 21431.2 36600.6 21440.8 36601.2 21450.3 36601.4 21463.3 36601.2 21476.3 36600.6 21489.3 36599.7 21502.2 36598.4 21515.1 36596.7 21527.9 36594.6 21540.7 36592.1 21553.4 36589.3 21566 36586.1 21578.5 36582.5 21590.9 36578.6 21603.1 36574.3 21615.3 36569.7 21627.3 36564.6 21639.1 36559.3 21650.8 36553.6 21662.3 36547.6 21673.7 36541.2 21684.8 36534.5 21695.8 36527.5 21706.5 36520.1 21717 36512.5 M 21331.8 36156.8 21323.6 36161.9 21315.6 36167.3 21307.8 36172.9 21300.3 36178.9 21293 36185.2 21286 36191.8 21279.3 36198.6 21272.8 36205.7 21266.6 36213.1 21260.7 36220.7 21255.1 36228.5 21249.9 36236.6 21244.9 36244.8 21240.3 36253.3 21236.1 36261.9 21232.1 36270.7 21228.6 36279.6 21225.4 36288.7 21222.5 36297.9 21220.1 36307.2 21218 36316.5 21216.3 36326 21214.9 36335.5 21214 36345.1 21213.4 36354.7 21213.2 36364.3 M 21657.8 35979.2 21665.9 35974.1 21673.9 35968.7 21681.7 35963.1 21689.2 35957.1 21696.5 35950.8 21703.5 35944.2 21710.2 35937.4 21716.7 35930.3 21722.9 35922.9 21728.8 35915.3 21734.4 35907.5 21739.6 35899.4 21744.6 35891.2 21749.2 35882.7 21753.4 35874.1 21757.4 35865.3 21760.9 35856.4 21764.1 35847.3 21767 35838.1 21769.4 35828.8 21771.5 35819.5 21773.2 35810 21774.6 35800.5 21775.5 35790.9 21776.1 35781.3 21776.3 35771.7 M 21657.7 35979.1 21331.8 36156.9 M 22288.5 35534.6 22584.8 35534.6 22595.5 35534.8 22606.2 35535.4 22616.8 35536.3 22627.4 35537.7 22638 35539.4 22648.5 35541.5 22658.9 35544 22669.2 35546.9 22679.4 35550.1 22689.5 35553.7 22699.4 35557.7 22709.2 35562 22718.8 35566.7 22728.3 35571.7 22737.6 35577 22746.6 35582.7 22755.5 35588.7 22764.1 35595 22772.5 35601.6 22780.7 35608.6 22788.6 35615.8 22796.2 35623.3 22803.6 35631.1 22810.6 35639.1 22817.4 35647.4 22823.9 35655.9 22830 35664.6 22835.9 35673.6 22841.4 35682.8 22846.6 35692.1 22851.4 35701.7 22855.9 35711.4 22860.1 35721.2 22863.8 35731.2 22867.3 35741.4 22870.3 35751.6 22873 35762 22875.3 35772.4 22877.2 35783 22878.7 35793.6 22879.9 35804.2 22880.7 35814.9 22881.1 35825.6 22881.1 35836.2 22880.7 35846.9 22879.9 35857.6 22878.7 35868.2 22877.2 35878.8 22875.3 35889.4 22873 35899.8 22870.3 35910.2 22867.3 35920.4 22863.8 35930.6 22860.1 35940.6 22855.9 35950.4 22851.4 35960.1 22846.6 35969.7 22841.4 35979.1 22835.9 35988.2 22830 35997.2 22823.9 36005.9 22817.4 36014.4 22810.6 36022.7 22803.6 36030.7 22796.2 36038.5 22788.6 36046 22780.7 36053.2 22772.5 36060.2 22764.1 36066.8 22755.5 36073.1 22746.6 36079.1 22737.6 36084.8 22728.3 36090.1 22718.8 36095.1 22709.2 36099.8 22699.4 36104.1 22689.5 36108.1 22679.4 36111.7 22669.2 36114.9 22658.9 36117.8 22648.5 36120.3 22638 36122.4 22627.4 36124.1 22616.8 36125.5 22606.2 36126.4 22595.5 36127 22584.8 36127.2 M 22644.1 36601.4 22288.5 36601.4 M 22644.1 36601.4 22653.8 36601.2 22663.4 36600.6 22673 36599.6 22682.6 36598.2 22692.1 36596.5 22701.6 36594.3 22710.9 36591.8 22720.1 36588.9 22729.2 36585.6 22738.2 36581.9 22747 36577.9 22755.6 36573.5 22764 36568.8 22772.3 36563.8 22780.3 36558.4 22788.1 36552.6 22795.7 36546.6 22803 36540.3 22810 36533.7 22816.8 36526.7 22823.3 36519.6 22829.5 36512.1 22835.3 36504.4 22840.9 36496.5 22846.1 36488.4 22851 36480 22855.6 36471.5 22859.8 36462.8 22863.6 36453.9 22867.1 36444.9 22870.2 36435.7 22872.9 36426.4 22875.3 36417.1 22877.2 36407.6 22878.8 36398 22880 36388.4 22880.8 36378.8 22881.2 36369.1 22881.2 36359.5 22880.8 36349.8 22880 36340.2 22878.8 36330.6 22877.2 36321 22875.3 36311.5 22872.9 36302.2 22870.2 36292.9 22867.1 36283.7 22863.6 36274.7 22859.8 36265.8 22855.6 36257.1 22851 36248.6 22846.1 36240.2 22840.9 36232.1 22835.3 36224.2 22829.5 36216.5 22823.3 36209 22816.8 36201.9 22810 36194.9 22803 36188.3 22795.7 36182 22788.1 36176 22780.3 36170.2 22772.3 36164.8 22764 36159.8 22755.6 36155.1 22747 36150.7 22738.2 36146.7 22729.2 36143 22720.1 36139.7 22710.9 36136.8 22701.6 36134.3 22692.1 36132.1 22682.6 36130.4 22673 36129 22663.4 36128 22653.8 36127.4 22644.1 36127.2 M 22644.1 36127.3 22407 36127.3" fill="none" stroke-width="203.2"/><use xlink:href="#KchBXasipqfFTw6788Al_pad-16" x="31875" y="8890"/><path d="M 30581.6 9626.6 30581.6 10693.4 M 30581.6 9626.6 31055.7 9626.6 M 31572.2 9626.6 32046.3 9626.6 M 31572.2 9626.6 31572.2 10693.4 32046.3 10693.4 M 31927.8 10219.3 31572.2 10219.3 M 32559.4 10693.4 32559.4 9626.6 M 32559.4 10693.4 32855.7 10693.4 32866.3 10693.2 32876.8 10692.6 32887.4 10691.7 32897.9 10690.4 32908.3 10688.7 32918.7 10686.6 32929 10684.2 32939.2 10681.4 32949.3 10678.2 32959.2 10674.7 32969.1 10670.8 32978.8 10666.6 32988.3 10662.1 32997.7 10657.2 33006.9 10651.9 33015.9 10646.4 33024.7 10640.5 33033.3 10634.3 33041.6 10627.8 33049.7 10621 33057.6 10614 33065.2 10606.6 33072.6 10599 33079.6 10591.1 33086.4 10583 33092.9 10574.7 33099.1 10566.1 33105 10557.3 33110.5 10548.3 33115.8 10539.1 33120.7 10529.7 33125.2 10520.2 33129.4 10510.5 33133.3 10500.6 33136.8 10490.7 33140 10480.6 33142.8 10470.4 33145.2 10460.1 33147.3 10449.7 33149 10439.3 33150.3 10428.8 33151.2 10418.2 33151.8 10407.7 33152 10397.1 M 33152.1 10397.1 33152.1 9922.9 M 33152 9922.9 33151.8 9912.3 33151.2 9901.8 33150.3 9891.2 33149 9880.7 33147.3 9870.3 33145.2 9859.9 33142.8 9849.6 33140 9839.4 33136.8 9829.3 33133.3 9819.4 33129.4 9809.5 33125.2 9799.8 33120.7 9790.3 33115.8 9780.9 33110.5 9771.7 33105 9762.7 33099.1 9753.9 33092.9 9745.3 33086.4 9737 33079.6 9728.9 33072.6 9721 33065.2 9713.4 33057.6 9706 33049.7 9699 33041.6 9692.2 33033.3 9685.7 33024.7 9679.5 33015.9 9673.6 33006.9 9668.1 32997.7 9662.8 32988.3 9657.9 32978.8 9653.4 32969.1 9649.2 32959.2 9645.3 32949.3 9641.8 32939.2 9638.6 32929 9635.8 32918.7 9633.4 32908.3 9631.3 32897.9 9629.6 32887.4 9628.3 32876.8 9627.4 32866.3 9626.8 32855.7 9626.6 32559.4 9626.6 M 33740.5 10456.3 34036.8 10693.4 34036.8 9626.6 M 33740.5 9626.6 34333.2 9626.6" fill="none" stroke-width="203.2"/><use xlink:href="#KchBXasipqfFTw6788Al_pad-16" x="31875" y="20320"/><path d="M 30581.6 21056.6 30581.6 22123.4 M 30581.6 21056.6 31055.7 21056.6 M 31572.2 21056.6 32046.3 21056.6 M 31572.2 21056.6 31572.2 22123.4 32046.3 22123.4 M 31927.8 21649.3 31572.2 21649.3 M 32559.4 22123.4 32559.4 21056.6 M 32559.4 22123.4 32855.7 22123.4 32866.3 22123.2 32876.8 22122.6 32887.4 22121.7 32897.9 22120.4 32908.3 22118.7 32918.7 22116.6 32929 22114.2 32939.2 22111.4 32949.3 22108.2 32959.2 22104.7 32969.1 22100.8 32978.8 22096.6 32988.3 22092.1 32997.7 22087.2 33006.9 22081.9 33015.9 22076.4 33024.7 22070.5 33033.3 22064.3 33041.6 22057.8 33049.7 22051 33057.6 22044 33065.2 22036.6 33072.6 22029 33079.6 22021.1 33086.4 22013 33092.9 22004.7 33099.1 21996.1 33105 21987.3 33110.5 21978.3 33115.8 21969.1 33120.7 21959.7 33125.2 21950.2 33129.4 21940.5 33133.3 21930.6 33136.8 21920.7 33140 21910.6 33142.8 21900.4 33145.2 21890.1 33147.3 21879.7 33149 21869.3 33150.3 21858.8 33151.2 21848.2 33151.8 21837.7 33152 21827.1 M 33152.1 21827.1 33152.1 21352.9 M 33152 21352.9 33151.8 21342.3 33151.2 21331.8 33150.3 21321.2 33149 21310.7 33147.3 21300.3 33145.2 21289.9 33142.8 21279.6 33140 21269.4 33136.8 21259.3 33133.3 21249.4 33129.4 21239.5 33125.2 21229.8 33120.7 21220.3 33115.8 21210.9 33110.5 21201.7 33105 21192.7 33099.1 21183.9 33092.9 21175.3 33086.4 21167 33079.6 21158.9 33072.6 21151 33065.2 21143.4 33057.6 21136 33049.7 21129 33041.6 21122.2 33033.3 21115.7 33024.7 21109.5 33015.9 21103.6 33006.9 21098.1 32997.7 21092.8 32988.3 21087.9 32978.8 21083.4 32969.1 21079.2 32959.2 21075.3 32949.3 21071.8 32939.2 21068.6 32929 21065.8 32918.7 21063.4 32908.3 21061.3 32897.9 21059.6 32887.4 21058.3 32876.8 21057.4 32866.3 21056.8 32855.7 21056.6 32559.4 21056.6 M 34066.5 22123.4 34076.7 22123.2 34086.9 22122.6 34097.1 22121.6 34107.2 22120.3 34117.3 22118.5 34127.3 22116.4 34137.2 22113.9 34147 22111 34156.6 22107.7 34166.2 22104.1 34175.6 22100.1 34184.8 22095.7 34193.9 22091 34202.8 22085.9 34211.5 22080.6 34219.9 22074.8 34228.2 22068.8 34236.2 22062.5 34243.9 22055.8 34251.4 22048.9 34258.7 22041.6 34265.6 22034.1 34272.3 22026.4 34278.6 22018.4 34284.6 22010.1 34290.4 22001.7 34295.7 21993 34300.8 21984.1 34305.5 21975 34309.9 21965.8 34313.9 21956.4 34317.5 21946.8 34320.8 21937.2 34323.7 21927.4 34326.2 21917.5 34328.3 21907.5 34330.1 21897.4 34331.4 21887.3 34332.4 21877.1 34333 21866.9 34333.2 21856.7 M 34066.5 22123.4 34054.9 22123.2 34043.2 22122.6 34031.6 22121.6 34020.1 22120.2 34008.6 22118.5 33997.1 22116.3 33985.8 22113.7 33974.5 22110.8 33963.3 22107.5 33952.3 22103.8 33941.4 22099.7 33930.6 22095.3 33920 22090.5 33909.6 22085.3 33899.3 22079.8 33889.2 22074 33879.4 22067.8 33869.7 22061.3 33860.3 22054.4 33851.1 22047.2 33842.2 22039.8 33833.5 22032 33825.1 22023.9 33817 22015.6 33809.2 22007 33801.6 21998.1 33794.4 21989 33787.5 21979.6 33780.9 21970 33774.6 21960.2 33768.7 21950.2 33763.1 21940 33757.9 21929.6 33753 21919 33748.5 21908.3 33744.3 21897.4 33740.6 21886.4 M 34244.3 21649.2 34251.8 21656.6 34259 21664.3 34265.9 21672.3 34272.6 21680.5 34278.9 21688.9 34284.9 21697.6 34290.6 21706.4 34296 21715.5 34301 21724.8 34305.7 21734.2 34310 21743.8 34314 21753.6 34317.6 21763.5 34320.9 21773.5 34323.7 21783.7 34326.2 21793.9 34328.4 21804.3 34330.1 21814.7 34331.5 21825.1 34332.4 21835.6 34333 21846.2 34333.2 21856.7 M 34244.3 21649.3 33740.5 21056.6 34333.2 21056.6" fill="none" stroke-width="203.2"/><use xlink:href="#KchBXasipqfFTw6788Al_pad-16" x="31875" y="30750"/><path d="M 30581.6 30128.4 30581.6 29061.6 31055.7 29061.6 M 31572.2 29061.6 32046.3 29061.6 M 31572.2 29061.6 31572.2 30128.4 32046.3 30128.4 M 31927.8 29654.3 31572.2 29654.3 M 32559.4 30128.4 32559.4 29061.6 M 32559.4 30128.4 32855.7 30128.4 32866.3 30128.2 32876.8 30127.6 32887.4 30126.7 32897.9 30125.4 32908.3 30123.7 32918.7 30121.6 32929 30119.2 32939.2 30116.4 32949.3 30113.2 32959.2 30109.7 32969.1 30105.8 32978.8 30101.6 32988.3 30097.1 32997.7 30092.2 33006.9 30086.9 33015.9 30081.4 33024.7 30075.5 33033.3 30069.3 33041.6 30062.8 33049.7 30056 33057.6 30049 33065.2 30041.6 33072.6 30034 33079.6 30026.1 33086.4 30018 33092.9 30009.7 33099.1 30001.1 33105 29992.3 33110.5 29983.3 33115.8 29974.1 33120.7 29964.7 33125.2 29955.2 33129.4 29945.5 33133.3 29935.6 33136.8 29925.7 33140 29915.6 33142.8 29905.4 33145.2 29895.1 33147.3 29884.7 33149 29874.3 33150.3 29863.8 33151.2 29853.2 33151.8 29842.7 33152 29832.1 M 33152.1 29832.1 33152.1 29357.9 M 33152 29357.9 33151.8 29347.3 33151.2 29336.8 33150.3 29326.2 33149 29315.7 33147.3 29305.3 33145.2 29294.9 33142.8 29284.6 33140 29274.4 33136.8 29264.3 33133.3 29254.4 33129.4 29244.5 33125.2 29234.8 33120.7 29225.3 33115.8 29215.9 33110.5 29206.7 33105 29197.7 33099.1 29188.9 33092.9 29180.3 33086.4 29172 33079.6 29163.9 33072.6 29156 33065.2 29148.4 33057.6 29141 33049.7 29134 33041.6 29127.2 33033.3 29120.7 33024.7 29114.5 33015.9 29108.6 33006.9 29103.1 32997.7 29097.8 32988.3 29092.9 32978.8 29088.4 32969.1 29084.2 32959.2 29080.3 32949.3 29076.8 32939.2 29073.6 32929 29070.8 32918.7 29068.4 32908.3 29066.3 32897.9 29064.6 32887.4 29063.3 32876.8 29062.4 32866.3 29061.8 32855.7 29061.6 32559.4 29061.6 M 33740.5 29061.6 34036.8 29061.6 34047.5 29061.8 34058.2 29062.4 34068.8 29063.3 34079.4 29064.7 34090 29066.4 34100.5 29068.5 34110.9 29071 34121.2 29073.9 34131.4 29077.1 34141.5 29080.7 34151.4 29084.7 34161.2 29089 34170.8 29093.7 34180.3 29098.7 34189.6 29104 34198.6 29109.7 34207.5 29115.7 34216.1 29122 34224.5 29128.6 34232.7 29135.6 34240.6 29142.8 34248.2 29150.3 34255.6 29158.1 34262.6 29166.1 34269.4 29174.4 34275.9 29182.9 34282 29191.6 34287.9 29200.6 34293.4 29209.8 34298.6 29219.1 34303.4 29228.7 34307.9 29238.4 34312.1 29248.2 34315.8 29258.2 34319.3 29268.4 34322.3 29278.6 34325 29289 34327.3 29299.4 34329.2 29310 34330.7 29320.6 34331.9 29331.2 34332.7 29341.9 34333.1 29352.6 34333.1 29363.2 34332.7 29373.9 34331.9 29384.6 34330.7 29395.2 34329.2 29405.8 34327.3 29416.4 34325 29426.8 34322.3 29437.2 34319.3 29447.4 34315.8 29457.6 34312.1 29467.6 34307.9 29477.4 34303.4 29487.1 34298.6 29496.7 34293.4 29506.1 34287.9 29515.2 34282 29524.2 34275.9 29532.9 34269.4 29541.4 34262.6 29549.7 34255.6 29557.7 34248.2 29565.5 34240.6 29573 34232.7 29580.2 34224.5 29587.2 34216.1 29593.8 34207.5 29600.1 34198.6 29606.1 34189.6 29611.8 34180.3 29617.1 34170.8 29622.1 34161.2 29626.8 34151.4 29631.1 34141.5 29635.1 34131.4 29638.7 34121.2 29641.9 34110.9 29644.8 34100.5 29647.3 34090 29649.4 34079.4 29651.1 34068.8 29652.5 34058.2 29653.4 34047.5 29654 34036.8 29654.2 M 34096.1 30128.4 33740.5 30128.4 M 34096.1 30128.4 34105.8 30128.2 34115.4 30127.6 34125 30126.6 34134.6 30125.2 34144.1 30123.5 34153.6 30121.3 34162.9 30118.8 34172.1 30115.9 34181.2 30112.6 34190.2 30108.9 34199 30104.9 34207.6 30100.5 34216 30095.8 34224.3 30090.8 34232.3 30085.4 34240.1 30079.6 34247.7 30073.6 34255 30067.3 34262 30060.7 34268.8 30053.7 34275.3 30046.6 34281.5 30039.1 34287.3 30031.4 34292.9 30023.5 34298.1 30015.4 34303 30007 34307.6 29998.5 34311.8 29989.8 34315.6 29980.9 34319.1 29971.9 34322.2 29962.7 34324.9 29953.4 34327.3 29944.1 34329.2 29934.6 34330.8 29925 34332 29915.4 34332.8 29905.8 34333.2 29896.1 34333.2 29886.5 34332.8 29876.8 34332 29867.2 34330.8 29857.6 34329.2 29848 34327.3 29838.5 34324.9 29829.2 34322.2 29819.9 34319.1 29810.7 34315.6 29801.7 34311.8 29792.8 34307.6 29784.1 34303 29775.6 34298.1 29767.2 34292.9 29759.1 34287.3 29751.2 34281.5 29743.5 34275.3 29736 34268.8 29728.9 34262 29721.9 34255 29715.3 34247.7 29709 34240.1 29703 34232.3 29697.2 34224.3 29691.8 34216 29686.8 34207.6 29682.1 34199 29677.7 34190.2 29673.7 34181.2 29670 34172.1 29666.7 34162.9 29663.8 34153.6 29661.3 34144.1 29659.1 34134.6 29657.4 34125 29656 34115.4 29655 34105.8 29654.4 34096.1 29654.2 M 34096.1 29654.3 33859 29654.3 M 32486.6 13868.4 32486.6 12801.6 M 32486.6 13868.4 32782.9 13868.4 32793.6 13868.2 32804.3 13867.6 32814.9 13866.7 32825.5 13865.3 32836.1 13863.6 32846.6 13861.5 32857 13859 32867.3 13856.1 32877.5 13852.9 32887.6 13849.3 32897.5 13845.3 32907.3 13841 32916.9 13836.3 32926.4 13831.3 32935.7 13826 32944.7 13820.3 32953.6 13814.3 32962.2 13808 32970.6 13801.4 32978.8 13794.4 32986.7 13787.2 32994.3 13779.7 33001.7 13771.9 33008.7 13763.9 33015.5 13755.6 33022 13747.1 33028.1 13738.4 33034 13729.4 33039.5 13720.2 33044.7 13710.9 33049.5 13701.3 33054 13691.6 33058.2 13681.8 33061.9 13671.8 33065.4 13661.6 33068.4 13651.4 33071.1 13641 33073.4 13630.6 33075.3 13620 33076.8 13609.4 33078 13598.8 33078.8 13588.1 33079.2 13577.4 33079.2 13566.8 33078.8 13556.1 33078 13545.4 33076.8 13534.8 33075.3 13524.2 33073.4 13513.6 33071.1 13503.2 33068.4 13492.8 33065.4 13482.6 33061.9 13472.4 33058.2 13462.4 33054 13452.6 33049.5 13442.9 33044.7 13433.3 33039.5 13424 33034 13414.8 33028.1 13405.8 33022 13397.1 33015.5 13388.6 33008.7 13380.3 33001.7 13372.3 32994.3 13364.5 32986.7 13357 32978.8 13349.8 32970.6 13342.8 32962.2 13336.2 32953.6 13329.9 32944.7 13323.9 32935.7 13318.2 32926.4 13312.9 32916.9 13307.9 32907.3 13303.2 32897.5 13298.9 32887.6 13294.9 32877.5 13291.3 32867.3 13288.1 32857 13285.2 32846.6 13282.7 32836.1 13280.6 32825.5 13278.9 32814.9 13277.5 32804.3 13276.6 32793.6 13276 32782.9 13275.8 M 32782.9 13275.7 32486.6 13275.7 M 32842.2 13275.7 33079.3 12801.6 M 33618.6 13631.3 33914.9 13868.4 33914.9 12801.6 M 33618.6 12801.6 34211.2 12801.6 M 32486.6 17101.6 32486.6 18168.4 32782.9 18168.4 32793.6 18168.2 32804.3 18167.6 32814.9 18166.7 32825.5 18165.3 32836.1 18163.6 32846.6 18161.5 32857 18159 32867.3 18156.1 32877.5 18152.9 32887.6 18149.3 32897.5 18145.3 32907.3 18141 32916.9 18136.3 32926.4 18131.3 32935.7 18126 32944.7 18120.3 32953.6 18114.3 32962.2 18108 32970.6 18101.4 32978.8 18094.4 32986.7 18087.2 32994.3 18079.7 33001.7 18071.9 33008.7 18063.9 33015.5 18055.6 33022 18047.1 33028.1 18038.4 33034 18029.4 33039.5 18020.2 33044.7 18010.9 33049.5 18001.3 33054 17991.6 33058.2 17981.8 33061.9 17971.8 33065.4 17961.6 33068.4 17951.4 33071.1 17941 33073.4 17930.6 33075.3 17920 33076.8 17909.4 33078 17898.8 33078.8 17888.1 33079.2 17877.4 33079.2 17866.8 33078.8 17856.1 33078 17845.4 33076.8 17834.8 33075.3 17824.2 33073.4 17813.6 33071.1 17803.2 33068.4 17792.8 33065.4 17782.6 33061.9 17772.4 33058.2 17762.4 33054 17752.6 33049.5 17742.9 33044.7 17733.3 33039.5 17724 33034 17714.8 33028.1 17705.8 33022 17697.1 33015.5 17688.6 33008.7 17680.3 33001.7 17672.3 32994.3 17664.5 32986.7 17657 32978.8 17649.8 32970.6 17642.8 32962.2 17636.2 32953.6 17629.9 32944.7 17623.9 32935.7 17618.2 32926.4 17612.9 32916.9 17607.9 32907.3 17603.2 32897.5 17598.9 32887.6 17594.9 32877.5 17591.3 32867.3 17588.1 32857 17585.2 32846.6 17582.7 32836.1 17580.6 32825.5 17578.9 32814.9 17577.5 32804.3 17576.6 32793.6 17576 32782.9 17575.8 M 32782.9 17575.7 32486.6 17575.7 M 32842.2 17575.7 33079.3 17101.6 M 33944.5 18168.4 33954.7 18168.2 33964.9 18167.6 33975.1 18166.6 33985.2 18165.3 33995.3 18163.5 34005.3 18161.4 34015.2 18158.9 34025 18156 34034.6 18152.7 34044.2 18149.1 34053.6 18145.1 34062.8 18140.7 34071.9 18136 34080.8 18130.9 34089.5 18125.6 34097.9 18119.8 34106.2 18113.8 34114.2 18107.5 34121.9 18100.8 34129.4 18093.9 34136.7 18086.6 34143.6 18079.1 34150.3 18071.4 34156.6 18063.4 34162.6 18055.1 34168.4 18046.7 34173.7 18038 34178.8 18029.1 34183.5 18020 34187.9 18010.8 34191.9 18001.4 34195.5 17991.8 34198.8 17982.2 34201.7 17972.4 34204.2 17962.5 34206.3 17952.5 34208.1 17942.4 34209.4 17932.3 34210.4 17922.1 34211 17911.9 34211.2 17901.7 M 33944.5 18168.4 33932.9 18168.2 33921.2 18167.6 33909.6 18166.6 33898.1 18165.2 33886.6 18163.5 33875.1 18161.3 33863.8 18158.7 33852.5 18155.8 33841.3 18152.5 33830.3 18148.8 33819.4 18144.7 33808.6 18140.3 33798 18135.5 33787.6 18130.3 33777.3 18124.8 33767.2 18119 33757.4 18112.8 33747.7 18106.3 33738.3 18099.4 33729.1 18092.2 33720.2 18084.8 33711.5 18077 33703.1 18068.9 33695 18060.6 33687.2 18052 33679.6 18043.1 33672.4 18034 33665.5 18024.6 33658.9 18015 33652.6 18005.2 33646.7 17995.2 33641.1 17985 33635.9 17974.6 33631 17964 33626.5 17953.3 33622.3 17942.4 33618.6 17931.4 M 34122.4 17694.2 34129.9 17701.6 34137.1 17709.3 34144 17717.3 34150.7 17725.5 34157 17733.9 34163 17742.6 34168.7 17751.4 34174.1 17760.5 34179.1 17769.8 34183.8 17779.2 34188.1 17788.8 34192.1 17798.6 34195.7 17808.5 34199 17818.5 34201.8 17828.7 34204.3 17838.9 34206.5 17849.3 34208.2 17859.7 34209.6 17870.1 34210.5 17880.6 34211.1 17891.2 34211.3 17901.7 M 34122.3 17694.3 33618.6 17101.6 34211.2 17101.6 M 33450.6 22961.6 33450.6 24028.4 33746.9 24028.4 33757.6 24028.2 33768.3 24027.6 33778.9 24026.7 33789.5 24025.3 33800.1 24023.6 33810.6 24021.5 33821 24019 33831.3 24016.1 33841.5 24012.9 33851.6 24009.3 33861.5 24005.3 33871.3 24001 33880.9 23996.3 33890.4 23991.3 33899.7 23986 33908.7 23980.3 33917.6 23974.3 33926.2 23968 33934.6 23961.4 33942.8 23954.4 33950.7 23947.2 33958.3 23939.7 33965.7 23931.9 33972.7 23923.9 33979.5 23915.6 33986 23907.1 33992.1 23898.4 33998 23889.4 34003.5 23880.2 34008.7 23870.9 34013.5 23861.3 34018 23851.6 34022.2 23841.8 34025.9 23831.8 34029.4 23821.6 34032.4 23811.4 34035.1 23801 34037.4 23790.6 34039.3 23780 34040.8 23769.4 34042 23758.8 34042.8 23748.1 34043.2 23737.4 34043.2 23726.8 34042.8 23716.1 34042 23705.4 34040.8 23694.8 34039.3 23684.2 34037.4 23673.6 34035.1 23663.2 34032.4 23652.8 34029.4 23642.6 34025.9 23632.4 34022.2 23622.4 34018 23612.6 34013.5 23602.9 34008.7 23593.3 34003.5 23584 33998 23574.8 33992.1 23565.8 33986 23557.1 33979.5 23548.6 33972.7 23540.3 33965.7 23532.3 33958.3 23524.5 33950.7 23517 33942.8 23509.8 33934.6 23502.8 33926.2 23496.2 33917.6 23489.9 33908.7 23483.9 33899.7 23478.2 33890.4 23472.9 33880.9 23467.9 33871.3 23463.2 33861.5 23458.9 33851.6 23454.9 33841.5 23451.3 33831.3 23448.1 33821 23445.2 33810.6 23442.7 33800.1 23440.6 33789.5 23438.9 33778.9 23437.5 33768.3 23436.6 33757.6 23436 33746.9 23435.8 M 33746.9 23435.7 33450.6 23435.7 M 33806.2 23435.7 34043.3 22961.6 M 34582.6 22961.6 34878.9 22961.6 34889.6 22961.8 34900.3 22962.4 34910.9 22963.3 34921.5 22964.7 34932.1 22966.4 34942.6 22968.5 34953 22971 34963.3 22973.9 34973.5 22977.1 34983.6 22980.7 34993.5 22984.7 35003.3 22989 35012.9 22993.7 35022.4 22998.7 35031.7 23004 35040.7 23009.7 35049.6 23015.7 35058.2 23022 35066.6 23028.6 35074.8 23035.6 35082.7 23042.8 35090.3 23050.3 35097.7 23058.1 35104.7 23066.1 35111.5 23074.4 35118 23082.9 35124.1 23091.6 35130 23100.6 35135.5 23109.8 35140.7 23119.1 35145.5 23128.7 35150 23138.4 35154.2 23148.2 35157.9 23158.2 35161.4 23168.4 35164.4 23178.6 35167.1 23189 35169.4 23199.4 35171.3 23210 35172.8 23220.6 35174 23231.2 35174.8 23241.9 35175.2 23252.6 35175.2 23263.2 35174.8 23273.9 35174 23284.6 35172.8 23295.2 35171.3 23305.8 35169.4 23316.4 35167.1 23326.8 35164.4 23337.2 35161.4 23347.4 35157.9 23357.6 35154.2 23367.6 35150 23377.4 35145.5 23387.1 35140.7 23396.7 35135.5 23406 35130 23415.2 35124.1 23424.2 35118 23432.9 35111.5 23441.4 35104.7 23449.7 35097.7 23457.7 35090.3 23465.5 35082.7 23473 35074.8 23480.2 35066.6 23487.2 35058.2 23493.8 35049.6 23500.1 35040.7 23506.1 35031.7 23511.8 35022.4 23517.1 35012.9 23522.1 35003.3 23526.8 34993.5 23531.1 34983.6 23535.1 34973.5 23538.7 34963.3 23541.9 34953 23544.8 34942.6 23547.3 34932.1 23549.4 34921.5 23551.1 34910.9 23552.5 34900.3 23553.4 34889.6 23554 34878.9 23554.2 M 34938.2 24028.4 34582.6 24028.4 M 34938.2 24028.4 34947.9 24028.2 34957.5 24027.6 34967.1 24026.6 34976.7 24025.2 34986.2 24023.5 34995.7 24021.3 35005 24018.8 35014.2 24015.9 35023.3 24012.6 35032.3 24008.9 35041.1 24004.9 35049.7 24000.5 35058.1 23995.8 35066.4 23990.8 35074.4 23985.4 35082.2 23979.6 35089.8 23973.6 35097.1 23967.3 35104.1 23960.7 35110.9 23953.7 35117.4 23946.6 35123.6 23939.1 35129.4 23931.4 35135 23923.5 35140.2 23915.4 35145.1 23907 35149.7 23898.5 35153.9 23889.8 35157.7 23880.9 35161.2 23871.9 35164.3 23862.7 35167 23853.4 35169.4 23844.1 35171.3 23834.6 35172.9 23825 35174.1 23815.4 35174.9 23805.8 35175.3 23796.1 35175.3 23786.5 35174.9 23776.8 35174.1 23767.2 35172.9 23757.6 35171.3 23748 35169.4 23738.5 35167 23729.2 35164.3 23719.9 35161.2 23710.7 35157.7 23701.7 35153.9 23692.8 35149.7 23684.1 35145.1 23675.6 35140.2 23667.2 35135 23659.1 35129.4 23651.2 35123.6 23643.5 35117.4 23636 35110.9 23628.9 35104.1 23621.9 35097.1 23615.3 35089.8 23609 35082.2 23603 35074.4 23597.2 35066.4 23591.8 35058.1 23586.8 35049.7 23582.1 35041.1 23577.7 35032.3 23573.7 35023.3 23570 35014.2 23566.7 35005 23563.8 34995.7 23561.3 34986.2 23559.1 34976.7 23557.4 34967.1 23556 34957.5 23555 34947.9 23554.4 34938.2 23554.2 M 34938.2 23554.3 34701.1 23554.3" fill="none" stroke-width="203.2"/><use xlink:href="#KchBXasipqfFTw6788Al_pad-16" x="31875" y="32750"/><path d="M 30581.6 33486.6 30581.6 34553.4 M 30581.6 33486.6 31055.7 33486.6 M 31572.2 33486.6 32046.3 33486.6 M 31572.2 33486.6 31572.2 34553.4 32046.3 34553.4 M 31927.8 34079.3 31572.2 34079.3 M 32559.4 34553.4 32559.4 33486.6 M 32559.4 34553.4 32855.7 34553.4 32866.3 34553.2 32876.8 34552.6 32887.4 34551.7 32897.9 34550.4 32908.3 34548.7 32918.7 34546.6 32929 34544.2 32939.2 34541.4 32949.3 34538.2 32959.2 34534.7 32969.1 34530.8 32978.8 34526.6 32988.3 34522.1 32997.7 34517.2 33006.9 34511.9 33015.9 34506.4 33024.7 34500.5 33033.3 34494.3 33041.6 34487.8 33049.7 34481 33057.6 34474 33065.2 34466.6 33072.6 34459 33079.6 34451.1 33086.4 34443 33092.9 34434.7 33099.1 34426.1 33105 34417.3 33110.5 34408.3 33115.8 34399.1 33120.7 34389.7 33125.2 34380.2 33129.4 34370.5 33133.3 34360.6 33136.8 34350.7 33140 34340.6 33142.8 34330.4 33145.2 34320.1 33147.3 34309.7 33149 34299.3 33150.3 34288.8 33151.2 34278.2 33151.8 34267.7 33152 34257.1 M 33152.1 34257.1 33152.1 33782.9 M 33152 33782.9 33151.8 33772.3 33151.2 33761.8 33150.3 33751.2 33149 33740.7 33147.3 33730.3 33145.2 33719.9 33142.8 33709.6 33140 33699.4 33136.8 33689.3 33133.3 33679.4 33129.4 33669.5 33125.2 33659.8 33120.7 33650.3 33115.8 33640.9 33110.5 33631.7 33105 33622.7 33099.1 33613.9 33092.9 33605.3 33086.4 33597 33079.6 33588.9 33072.6 33581 33065.2 33573.4 33057.6 33566 33049.7 33559 33041.6 33552.2 33033.3 33545.7 33024.7 33539.5 33015.9 33533.6 33006.9 33528.1 32997.7 33522.8 32988.3 33517.9 32978.8 33513.4 32969.1 33509.2 32959.2 33505.3 32949.3 33501.8 32939.2 33498.6 32929 33495.8 32918.7 33493.4 32908.3 33491.3 32897.9 33489.6 32887.4 33488.3 32876.8 33487.4 32866.3 33486.8 32855.7 33486.6 32559.4 33486.6 M 33740.5 33723.7 33977.6 34553.4 M 33740.5 33723.7 34333.2 33723.7 M 34155.4 33960.7 34155.4 33486.6 M 37566.6 24028.4 37566.6 22961.6 M 37566.6 24028.4 37862.9 24028.4 37873.6 24028.2 37884.3 24027.6 37894.9 24026.7 37905.5 24025.3 37916.1 24023.6 37926.6 24021.5 37937 24019 37947.3 24016.1 37957.5 24012.9 37967.6 24009.3 37977.5 24005.3 37987.3 24001 37996.9 23996.3 38006.4 23991.3 38015.7 23986 38024.7 23980.3 38033.6 23974.3 38042.2 23968 38050.6 23961.4 38058.8 23954.4 38066.7 23947.2 38074.3 23939.7 38081.7 23931.9 38088.7 23923.9 38095.5 23915.6 38102 23907.1 38108.1 23898.4 38114 23889.4 38119.5 23880.2 38124.7 23870.9 38129.5 23861.3 38134 23851.6 38138.2 23841.8 38141.9 23831.8 38145.4 23821.6 38148.4 23811.4 38151.1 23801 38153.4 23790.6 38155.3 23780 38156.8 23769.4 38158 23758.8 38158.8 23748.1 38159.2 23737.4 38159.2 23726.8 38158.8 23716.1 38158 23705.4 38156.8 23694.8 38155.3 23684.2 38153.4 23673.6 38151.1 23663.2 38148.4 23652.8 38145.4 23642.6 38141.9 23632.4 38138.2 23622.4 38134 23612.6 38129.5 23602.9 38124.7 23593.3 38119.5 23584 38114 23574.8 38108.1 23565.8 38102 23557.1 38095.5 23548.6 38088.7 23540.3 38081.7 23532.3 38074.3 23524.5 38066.7 23517 38058.8 23509.8 38050.6 23502.8 38042.2 23496.2 38033.6 23489.9 38024.7 23483.9 38015.7 23478.2 38006.4 23472.9 37996.9 23467.9 37987.3 23463.2 37977.5 23458.9 37967.6 23454.9 37957.5 23451.3 37947.3 23448.1 37937 23445.2 37926.6 23442.7 37916.1 23440.6 37905.5 23438.9 37894.9 23437.5 37884.3 23436.6 37873.6 23436 37862.9 23435.8 M 37862.9 23435.7 37566.6 23435.7 M 37922.2 23435.7 38159.3 22961.6 M 38698.6 23198.7 38935.6 24028.4 M 38698.6 23198.7 39291.2 23198.7 M 39113.4 23435.7 39113.4 22961.6" fill="none" stroke-width="203.2"/><path d="M 0 0 40000 0 40000 40000 0 40000 0 0" fill="none" stroke-width="254"/></g></svg>