<svg version="1.1" xmlns="http://www.w3.org/2000/svg" xmlns:xlink="http://www.w3.org/1999/xlink" stroke-linecap="round" stroke-linejoin="round" stroke-width="0" fill-rule="evenodd" width="40.254mm" height="40.254mm" viewBox="-127 -127 40254 40254" id="VuOzTdEbpdfKbt6JJk8e"><g transform="translate(0,40000) scale(1,-1)" fill="currentColor" stroke="currentColor"><path d="M 1905 17780 1270 17145 1270 15875 1905 15240 3175 15240 3810 15875 3810 17145 3175 17780 M 1270 20955 1270 22225 M 1270 20955 1905 20320 3175 20320 3810 20955 M 1905 20320 1270 19685 1270 18415 1905 17780 3175 17780 3810 18415 3810 19685 3175 20320 M 1270 24765 1905 25400 M 1270 24765 1270 23495 1905 22860 3175 22860 3810 23495 3810 24765 3175 25400 M 1905 22860 1270 22225 M 3175 22860 3810 22225 3810 20955 M 1270 28575 1270 29845 M 1270 28575 1905 27940 3175 27940 3810 28575 M 1905 27940 1270 27305 1270 26035 1905 25400 3175 25400 3810 26035 3810 27305 3175 27940 M 3175 30480 1905 30480 1270 29845 M 3175 30480 3810 29845 3810 28575 M 1270 14605 1270 13335 1905 12700 3175 12700 3810 13335 M 1905 15240 1270 14605 M 3175 15240 3810 14605 3810 13335" fill="none" stroke-width="152.4"/><path d="M 3429 31377.5 3429 32207.2 M 3429 31377.5 3429.2 31368 3429.8 31358.4 3430.7 31348.9 3432.1 31339.5 3433.8 31330.1 3435.9 31320.8 3438.4 31311.5 3441.2 31302.4 3444.4 31293.4 3448 31284.6 3451.9 31275.9 3456.2 31267.3 3460.8 31259 3465.7 31250.8 3471 31242.8 3476.6 31235.1 3482.4 31227.5 3488.6 31220.3 3495.1 31213.3 3501.9 31206.5 3508.9 31200 3516.1 31193.8 3523.7 31188 3531.4 31182.4 3539.4 31177.1 3547.5 31172.2 3555.9 31167.6 3564.5 31163.3 3573.2 31159.4 3582 31155.8 3591 31152.6 3600.1 31149.8 3609.4 31147.3 3618.7 31145.2 3628.1 31143.5 3637.5 31142.1 3647 31141.2 3656.6 31140.6 3666.1 31140.4 3784.6 31140.4 M 2784 31140.4 2784 32207.2 2487.7 32207.2 2477 32207 2466.3 32206.4 2455.7 32205.5 2445.1 32204.1 2434.5 32202.4 2424 32200.3 2413.6 32197.8 2403.3 32194.9 2393.1 32191.7 2383 32188.1 2373.1 32184.1 2363.3 32179.8 2353.7 32175.1 2344.2 32170.1 2334.9 32164.8 2325.9 32159.1 2317 32153.1 2308.4 32146.8 2300 32140.2 2291.8 32133.2 2283.9 32126 2276.3 32118.5 2268.9 32110.7 2261.9 32102.7 2255.1 32094.4 2248.6 32085.9 2242.5 32077.2 2236.6 32068.2 2231.1 32059.1 2225.9 32049.7 2221.1 32040.1 2216.6 32030.4 2212.4 32020.6 2208.7 32010.6 2205.2 32000.4 2202.2 31990.2 2199.5 31979.8 2197.2 31969.4 2195.3 31958.8 2193.8 31948.2 2192.6 31937.6 2191.8 31926.9 2191.4 31916.2 2191.4 31905.6 2191.8 31894.9 2192.6 31884.2 2193.8 31873.6 2195.3 31863 2197.2 31852.4 2199.5 31842 2202.2 31831.6 2205.2 31821.4 2208.7 31811.2 2212.4 31801.2 2216.6 31791.4 2221.1 31781.7 2225.9 31772.1 2231.1 31762.8 2236.6 31753.6 2242.5 31744.6 2248.6 31735.9 2255.1 31727.4 2261.9 31719.1 2268.9 31711.1 2276.3 31703.3 2283.9 31695.8 2291.8 31688.6 2300 31681.6 2308.4 31675 2317 31668.7 2325.9 31662.7 2334.9 31657 2344.2 31651.7 2353.7 31646.7 2363.3 31642 2373.1 31637.7 2383 31633.7 2393.1 31630.1 2403.3 31626.9 2413.6 31624 2424 31621.5 2434.5 31619.4 2445.1 31617.7 2455.7 31616.3 2466.3 31615.4 2477 31614.8 2487.7 31614.6 M 2487.7 31614.5 2784 31614.5 M 1704.5 31970.1 1408.2 32207.2 1408.2 31140.4 M 1704.5 31140.4 1111.9 31140.4" fill="none" stroke-width="203.2"/><path d="M 0 0 40000 0 40000 40000 0 40000 0 0" fill="none" stroke-width="254"/></g></svg>