G04 EAGLE Gerber RS-274X export*
G75*
%MOMM*%
%FSLAX34Y34*%
%LPD*%
%IN*%
%IPPOS*%
%AMOC8*
5,1,8,0,0,1.08239X$1,22.5*%
G01*
%ADD10C,0.254000*%


D10*
X300000Y0D02*
X1300000Y0D01*
X1300000Y1000000D01*
X300000Y1000000D01*
X300000Y0D01*
X1130000Y899563D02*
X1129924Y898694D01*
X1129772Y897834D01*
X1129546Y896990D01*
X1129248Y896170D01*
X1128879Y895378D01*
X1128442Y894622D01*
X1127941Y893907D01*
X1127380Y893238D01*
X1126762Y892620D01*
X1126093Y892059D01*
X1125378Y891558D01*
X1124622Y891121D01*
X1123830Y890752D01*
X1123010Y890454D01*
X1122166Y890228D01*
X1121307Y890076D01*
X1120437Y890000D01*
X1119563Y890000D01*
X1118694Y890076D01*
X1117834Y890228D01*
X1116990Y890454D01*
X1116170Y890752D01*
X1115378Y891121D01*
X1114622Y891558D01*
X1113907Y892059D01*
X1113238Y892620D01*
X1112620Y893238D01*
X1112059Y893907D01*
X1111558Y894622D01*
X1111121Y895378D01*
X1110752Y896170D01*
X1110454Y896990D01*
X1110228Y897834D01*
X1110076Y898694D01*
X1110000Y899563D01*
X1110000Y900437D01*
X1110076Y901307D01*
X1110228Y902166D01*
X1110454Y903010D01*
X1110752Y903830D01*
X1111121Y904622D01*
X1111558Y905378D01*
X1112059Y906093D01*
X1112620Y906762D01*
X1113238Y907380D01*
X1113907Y907941D01*
X1114622Y908442D01*
X1115378Y908879D01*
X1116170Y909248D01*
X1116990Y909546D01*
X1117834Y909772D01*
X1118694Y909924D01*
X1119563Y910000D01*
X1120437Y910000D01*
X1121307Y909924D01*
X1122166Y909772D01*
X1123010Y909546D01*
X1123830Y909248D01*
X1124622Y908879D01*
X1125378Y908442D01*
X1126093Y907941D01*
X1126762Y907380D01*
X1127380Y906762D01*
X1127941Y906093D01*
X1128442Y905378D01*
X1128879Y904622D01*
X1129248Y903830D01*
X1129546Y903010D01*
X1129772Y902166D01*
X1129924Y901307D01*
X1130000Y900437D01*
X1130000Y899563D01*
X360000Y899563D02*
X359924Y898694D01*
X359772Y897834D01*
X359546Y896990D01*
X359248Y896170D01*
X358879Y895378D01*
X358442Y894622D01*
X357941Y893907D01*
X357380Y893238D01*
X356762Y892620D01*
X356093Y892059D01*
X355378Y891558D01*
X354622Y891121D01*
X353830Y890752D01*
X353010Y890454D01*
X352166Y890228D01*
X351307Y890076D01*
X350437Y890000D01*
X349563Y890000D01*
X348694Y890076D01*
X347834Y890228D01*
X346990Y890454D01*
X346170Y890752D01*
X345378Y891121D01*
X344622Y891558D01*
X343907Y892059D01*
X343238Y892620D01*
X342620Y893238D01*
X342059Y893907D01*
X341558Y894622D01*
X341121Y895378D01*
X340752Y896170D01*
X340454Y896990D01*
X340228Y897834D01*
X340076Y898694D01*
X340000Y899563D01*
X340000Y900437D01*
X340076Y901307D01*
X340228Y902166D01*
X340454Y903010D01*
X340752Y903830D01*
X341121Y904622D01*
X341558Y905378D01*
X342059Y906093D01*
X342620Y906762D01*
X343238Y907380D01*
X343907Y907941D01*
X344622Y908442D01*
X345378Y908879D01*
X346170Y909248D01*
X346990Y909546D01*
X347834Y909772D01*
X348694Y909924D01*
X349563Y910000D01*
X350437Y910000D01*
X351307Y909924D01*
X352166Y909772D01*
X353010Y909546D01*
X353830Y909248D01*
X354622Y908879D01*
X355378Y908442D01*
X356093Y907941D01*
X356762Y907380D01*
X357380Y906762D01*
X357941Y906093D01*
X358442Y905378D01*
X358879Y904622D01*
X359248Y903830D01*
X359546Y903010D01*
X359772Y902166D01*
X359924Y901307D01*
X360000Y900437D01*
X360000Y899563D01*
X340000Y29563D02*
X339924Y28694D01*
X339772Y27834D01*
X339546Y26990D01*
X339248Y26170D01*
X338879Y25378D01*
X338442Y24622D01*
X337941Y23907D01*
X337380Y23238D01*
X336762Y22620D01*
X336093Y22059D01*
X335378Y21558D01*
X334622Y21121D01*
X333830Y20752D01*
X333010Y20454D01*
X332166Y20228D01*
X331307Y20076D01*
X330437Y20000D01*
X329563Y20000D01*
X328694Y20076D01*
X327834Y20228D01*
X326990Y20454D01*
X326170Y20752D01*
X325378Y21121D01*
X324622Y21558D01*
X323907Y22059D01*
X323238Y22620D01*
X322620Y23238D01*
X322059Y23907D01*
X321558Y24622D01*
X321121Y25378D01*
X320752Y26170D01*
X320454Y26990D01*
X320228Y27834D01*
X320076Y28694D01*
X320000Y29563D01*
X320000Y30437D01*
X320076Y31307D01*
X320228Y32166D01*
X320454Y33010D01*
X320752Y33830D01*
X321121Y34622D01*
X321558Y35378D01*
X322059Y36093D01*
X322620Y36762D01*
X323238Y37380D01*
X323907Y37941D01*
X324622Y38442D01*
X325378Y38879D01*
X326170Y39248D01*
X326990Y39546D01*
X327834Y39772D01*
X328694Y39924D01*
X329563Y40000D01*
X330437Y40000D01*
X331307Y39924D01*
X332166Y39772D01*
X333010Y39546D01*
X333830Y39248D01*
X334622Y38879D01*
X335378Y38442D01*
X336093Y37941D01*
X336762Y37380D01*
X337380Y36762D01*
X337941Y36093D01*
X338442Y35378D01*
X338879Y34622D01*
X339248Y33830D01*
X339546Y33010D01*
X339772Y32166D01*
X339924Y31307D01*
X340000Y30437D01*
X340000Y29563D01*
X1270000Y29563D02*
X1269924Y28694D01*
X1269772Y27834D01*
X1269546Y26990D01*
X1269248Y26170D01*
X1268879Y25378D01*
X1268442Y24622D01*
X1267941Y23907D01*
X1267380Y23238D01*
X1266762Y22620D01*
X1266093Y22059D01*
X1265378Y21558D01*
X1264622Y21121D01*
X1263830Y20752D01*
X1263010Y20454D01*
X1262166Y20228D01*
X1261307Y20076D01*
X1260437Y20000D01*
X1259563Y20000D01*
X1258694Y20076D01*
X1257834Y20228D01*
X1256990Y20454D01*
X1256170Y20752D01*
X1255378Y21121D01*
X1254622Y21558D01*
X1253907Y22059D01*
X1253238Y22620D01*
X1252620Y23238D01*
X1252059Y23907D01*
X1251558Y24622D01*
X1251121Y25378D01*
X1250752Y26170D01*
X1250454Y26990D01*
X1250228Y27834D01*
X1250076Y28694D01*
X1250000Y29563D01*
X1250000Y30437D01*
X1250076Y31307D01*
X1250228Y32166D01*
X1250454Y33010D01*
X1250752Y33830D01*
X1251121Y34622D01*
X1251558Y35378D01*
X1252059Y36093D01*
X1252620Y36762D01*
X1253238Y37380D01*
X1253907Y37941D01*
X1254622Y38442D01*
X1255378Y38879D01*
X1256170Y39248D01*
X1256990Y39546D01*
X1257834Y39772D01*
X1258694Y39924D01*
X1259563Y40000D01*
X1260437Y40000D01*
X1261307Y39924D01*
X1262166Y39772D01*
X1263010Y39546D01*
X1263830Y39248D01*
X1264622Y38879D01*
X1265378Y38442D01*
X1266093Y37941D01*
X1266762Y37380D01*
X1267380Y36762D01*
X1267941Y36093D01*
X1268442Y35378D01*
X1268879Y34622D01*
X1269248Y33830D01*
X1269546Y33010D01*
X1269772Y32166D01*
X1269924Y31307D01*
X1270000Y30437D01*
X1270000Y29563D01*
M02*
