G04 EAGLE Gerber RS-274X export*
G75*
%MOMM*%
%FSLAX34Y34*%
%LPD*%
%INSoldermask Top*%
%IPPOS*%
%AMOC8*
5,1,8,0,0,1.08239X$1,22.5*%
G01*
%ADD10C,3.203200*%
%ADD11C,1.524000*%
%ADD12P,2.969212X8X22.500000*%
%ADD13P,1.649562X8X202.500000*%
%ADD14P,1.649562X8X22.500000*%
%ADD15C,1.727200*%
%ADD16P,1.759533X8X292.500000*%
%ADD17P,1.759533X8X112.500000*%
%ADD18P,1.649562X8X292.500000*%
%ADD19P,1.759533X8X22.500000*%
%ADD20C,1.524000*%
%ADD21C,3.530600*%
%ADD22C,1.631200*%
%ADD23P,1.759533X8X202.500000*%
%ADD24R,0.800000X1.100000*%
%ADD25R,1.703200X1.503200*%
%ADD26C,1.711200*%
%ADD27R,1.403200X1.403200*%
%ADD28P,1.798066X8X112.500000*%
%ADD29C,3.519200*%
%ADD30C,1.703200*%
%ADD31C,1.109600*%


D10*
X1120000Y900000D03*
X350000Y900000D03*
X330000Y35000D03*
X1260000Y35000D03*
D11*
X541020Y712216D02*
X541020Y725424D01*
X566420Y725424D02*
X566420Y712216D01*
X591820Y712216D02*
X591820Y725424D01*
X617220Y725424D02*
X617220Y712216D01*
X642620Y712216D02*
X642620Y725424D01*
X668020Y725424D02*
X668020Y712216D01*
X693420Y712216D02*
X693420Y725424D01*
X718820Y725424D02*
X718820Y712216D01*
X744220Y712216D02*
X744220Y725424D01*
X769620Y725424D02*
X769620Y712216D01*
X795020Y712216D02*
X795020Y725424D01*
X820420Y725424D02*
X820420Y712216D01*
X845820Y712216D02*
X845820Y725424D01*
X871220Y725424D02*
X871220Y712216D01*
X896620Y712216D02*
X896620Y725424D01*
X922020Y725424D02*
X922020Y712216D01*
X947420Y712216D02*
X947420Y725424D01*
X972820Y725424D02*
X972820Y712216D01*
X998220Y712216D02*
X998220Y725424D01*
X1023620Y725424D02*
X1023620Y712216D01*
X1023620Y864616D02*
X1023620Y877824D01*
X998220Y877824D02*
X998220Y864616D01*
X972820Y864616D02*
X972820Y877824D01*
X947420Y877824D02*
X947420Y864616D01*
X922020Y864616D02*
X922020Y877824D01*
X896620Y877824D02*
X896620Y864616D01*
X871220Y864616D02*
X871220Y877824D01*
X845820Y877824D02*
X845820Y864616D01*
X820420Y864616D02*
X820420Y877824D01*
X795020Y877824D02*
X795020Y864616D01*
X769620Y864616D02*
X769620Y877824D01*
X744220Y877824D02*
X744220Y864616D01*
X718820Y864616D02*
X718820Y877824D01*
X693420Y877824D02*
X693420Y864616D01*
X668020Y864616D02*
X668020Y877824D01*
X642620Y877824D02*
X642620Y864616D01*
X617220Y864616D02*
X617220Y877824D01*
X591820Y877824D02*
X591820Y864616D01*
X566420Y864616D02*
X566420Y877824D01*
X541020Y877824D02*
X541020Y864616D01*
D12*
X1010000Y85000D03*
X1090000Y85000D03*
X1050000Y85000D03*
X930000Y85000D03*
D13*
X1219200Y408940D03*
X1193800Y383540D03*
X1219200Y358140D03*
X1038860Y381000D03*
X1013460Y355600D03*
X1038860Y330200D03*
D14*
X1043940Y147320D03*
X1069340Y172720D03*
X1043940Y198120D03*
X1221740Y172720D03*
X1247140Y198120D03*
X1221740Y223520D03*
D15*
X469900Y367030D02*
X454660Y367030D01*
X454660Y392430D02*
X469900Y392430D01*
X469900Y417830D02*
X454660Y417830D01*
D16*
X734060Y519430D03*
X734060Y367030D03*
D17*
X675640Y367030D03*
X675640Y519430D03*
D18*
X654050Y335280D03*
X673100Y322580D03*
X654050Y309880D03*
D12*
X970000Y85000D03*
D19*
X495300Y591820D03*
X495300Y617220D03*
X520700Y591820D03*
X520700Y617220D03*
X546100Y591820D03*
X546100Y617220D03*
X571500Y591820D03*
X571500Y617220D03*
X596900Y591820D03*
X596900Y617220D03*
D20*
X857250Y640080D03*
X808990Y640080D03*
D17*
X1130300Y358140D03*
X1130300Y510540D03*
D16*
X1140460Y193040D03*
X1140460Y40640D03*
D21*
X1167130Y837946D03*
X1224026Y838200D03*
X1167130Y969518D03*
X1224026Y969264D03*
D22*
X1197102Y891794D03*
X1197102Y913130D03*
X1170940Y891794D03*
X1170940Y912876D03*
X1197102Y940308D03*
X1197102Y867410D03*
X1170940Y940308D03*
X1170940Y867410D03*
D12*
X1168400Y510540D03*
X1197610Y93980D03*
X1229360Y510540D03*
X1263650Y95250D03*
X805180Y327660D03*
X819150Y210820D03*
D23*
X970280Y962660D03*
X970280Y937260D03*
X944880Y962660D03*
X944880Y937260D03*
X919480Y962660D03*
X919480Y937260D03*
X894080Y962660D03*
X894080Y937260D03*
X868680Y962660D03*
X868680Y937260D03*
X843280Y962660D03*
X843280Y937260D03*
X817880Y962660D03*
X817880Y937260D03*
D12*
X1090000Y40000D03*
X1010000Y40000D03*
X970000Y40000D03*
X1050000Y40000D03*
X930000Y40000D03*
X890000Y85000D03*
X890000Y40000D03*
X850000Y85000D03*
D24*
X1064140Y533100D03*
X1049140Y533100D03*
X1049140Y559100D03*
X1064140Y559100D03*
D25*
X1037590Y492100D03*
X1037590Y473100D03*
X1075690Y492608D03*
X1075690Y473608D03*
D26*
X775970Y64690D02*
X775970Y49610D01*
X801370Y49610D02*
X801370Y64690D01*
D25*
X762000Y560680D03*
X762000Y541680D03*
D27*
X762000Y615020D03*
X762000Y594020D03*
D12*
X568960Y960120D03*
X737870Y965200D03*
X440690Y960120D03*
D28*
X1177180Y750370D03*
X1177180Y725370D03*
X1197180Y725370D03*
X1197180Y750370D03*
D29*
X1224280Y677670D03*
X1224280Y798070D03*
D18*
X549910Y367030D03*
X568960Y379730D03*
X549910Y392430D03*
D12*
X308610Y-44450D03*
X308610Y-92710D03*
D30*
X1260348Y274574D03*
D31*
X401320Y699770D03*
X947420Y240030D03*
X947420Y274574D03*
X454152Y318008D03*
X431800Y229108D03*
X830326Y281432D03*
X914400Y521970D03*
X518414Y963422D03*
X431038Y484632D03*
D30*
X969010Y151130D03*
D31*
X638810Y254000D03*
X662686Y267208D03*
X849122Y414020D03*
X432054Y592582D03*
X832104Y490982D03*
X375920Y321310D03*
X374650Y172720D03*
X373380Y358394D03*
X560832Y533908D03*
X719074Y614172D03*
X898144Y450850D03*
X589788Y817118D03*
X676656Y243586D03*
X1127760Y598170D03*
X1108710Y566420D03*
M02*
