G04 EAGLE Gerber RS-274X export*
G75*
%MOMM*%
%FSLAX34Y34*%
%LPD*%
%INSolderpaste Bottom*%
%IPPOS*%
%AMOC8*
5,1,8,0,0,1.08239X$1,22.5*%
G01*
%ADD10R,2.200000X0.600000*%
%ADD11R,1.300000X1.500000*%
%ADD12R,1.500000X1.300000*%
%ADD13R,1.800000X1.400000*%
%ADD14R,1.400000X1.800000*%
%ADD15R,3.000000X1.400000*%
%ADD16R,1.500000X0.400000*%
%ADD17R,0.250000X1.250000*%
%ADD18R,1.650000X2.050000*%


D10*
X870620Y246380D03*
X922620Y246380D03*
X870620Y233680D03*
X870620Y259080D03*
X870620Y271780D03*
X922620Y233680D03*
X922620Y259080D03*
X922620Y271780D03*
X870620Y297180D03*
X922620Y297180D03*
X870620Y284480D03*
X870620Y309880D03*
X922620Y284480D03*
X922620Y309880D03*
X385480Y267970D03*
X437480Y267970D03*
X385480Y255270D03*
X385480Y280670D03*
X385480Y293370D03*
X437480Y255270D03*
X437480Y280670D03*
X437480Y293370D03*
X1114460Y248920D03*
X1166460Y248920D03*
X1114460Y236220D03*
X1114460Y261620D03*
X1114460Y274320D03*
X1166460Y236220D03*
X1166460Y261620D03*
X1166460Y274320D03*
X1114460Y299720D03*
X1166460Y299720D03*
X1114460Y287020D03*
X1114460Y312420D03*
X1166460Y287020D03*
X1166460Y312420D03*
X537880Y234950D03*
X589880Y234950D03*
X537880Y222250D03*
X537880Y247650D03*
X537880Y260350D03*
X589880Y222250D03*
X589880Y247650D03*
X589880Y260350D03*
X537880Y285750D03*
X589880Y285750D03*
X537880Y273050D03*
X537880Y298450D03*
X589880Y273050D03*
X589880Y298450D03*
D11*
X922680Y207010D03*
X941680Y207010D03*
D12*
X967740Y266040D03*
X967740Y247040D03*
D11*
X1023010Y224790D03*
X1042010Y224790D03*
X1023010Y246380D03*
X1042010Y246380D03*
D12*
X1066800Y226720D03*
X1066800Y245720D03*
X1089660Y245720D03*
X1089660Y226720D03*
X1087120Y321920D03*
X1087120Y302920D03*
D11*
X958240Y339090D03*
X977240Y339090D03*
D12*
X993140Y291490D03*
X993140Y310490D03*
D11*
X1256640Y323850D03*
X1237640Y323850D03*
X1256640Y300990D03*
X1237640Y300990D03*
D12*
X1214120Y321920D03*
X1214120Y302920D03*
X1191260Y302920D03*
X1191260Y321920D03*
X1191260Y226720D03*
X1191260Y245720D03*
X474980Y261010D03*
X474980Y280010D03*
X474980Y216560D03*
X474980Y235560D03*
X500380Y236830D03*
X500380Y217830D03*
X513080Y339700D03*
X513080Y320700D03*
X734060Y433730D03*
X734060Y452730D03*
X695960Y192430D03*
X695960Y211430D03*
X734060Y309270D03*
X734060Y328270D03*
X734060Y264820D03*
X734060Y283820D03*
D13*
X723900Y224010D03*
X723900Y190010D03*
D11*
X890880Y207010D03*
X871880Y207010D03*
D12*
X993140Y266040D03*
X993140Y247040D03*
X967740Y291490D03*
X967740Y310490D03*
X411480Y214020D03*
X411480Y233020D03*
X474980Y323190D03*
X474980Y304190D03*
X617220Y240690D03*
X617220Y259690D03*
D14*
X638320Y190500D03*
X672320Y190500D03*
D12*
X617220Y189890D03*
X617220Y208890D03*
X560070Y909980D03*
X560070Y928980D03*
X530860Y928980D03*
X530860Y909980D03*
D13*
X508000Y901210D03*
X508000Y935210D03*
X631190Y907560D03*
X631190Y941560D03*
X654050Y907560D03*
X654050Y941560D03*
D14*
X780270Y798830D03*
X746270Y798830D03*
D12*
X810260Y598780D03*
X810260Y579780D03*
X858520Y598780D03*
X858520Y579780D03*
D11*
X753770Y824230D03*
X772770Y824230D03*
D15*
X809120Y773430D03*
X857120Y773430D03*
D16*
X1067380Y621960D03*
X1067380Y628460D03*
X1067380Y634960D03*
X1067380Y641460D03*
X1067380Y647960D03*
X1067380Y654460D03*
X1067380Y660960D03*
X1067380Y667460D03*
X1067380Y673960D03*
X1067380Y680460D03*
X1067380Y686960D03*
X1067380Y693460D03*
X1067380Y699960D03*
X1067380Y706460D03*
X1139880Y706460D03*
X1139880Y699960D03*
X1139880Y693460D03*
X1139880Y686960D03*
X1139880Y680460D03*
X1139880Y673960D03*
X1139880Y667460D03*
X1139880Y660960D03*
X1139880Y654460D03*
X1139880Y647960D03*
X1139880Y641460D03*
X1139880Y634960D03*
X1139880Y628460D03*
X1139880Y621960D03*
D12*
X1037590Y687680D03*
X1037590Y668680D03*
D11*
X1137260Y742950D03*
X1118260Y742950D03*
X779170Y104140D03*
X798170Y104140D03*
D17*
X657050Y109970D03*
X652050Y109970D03*
X647050Y109970D03*
X642050Y109970D03*
X637050Y109970D03*
X632050Y109970D03*
X627050Y109970D03*
X622050Y109970D03*
X617050Y109970D03*
X612050Y109970D03*
X607050Y109970D03*
X602050Y109970D03*
X597050Y109970D03*
X592050Y109970D03*
X587050Y109970D03*
X582050Y109970D03*
X577050Y109970D03*
X572050Y109970D03*
X567050Y109970D03*
X562050Y109970D03*
X557050Y109970D03*
X552050Y109970D03*
X547050Y109970D03*
X542050Y109970D03*
X537050Y109970D03*
X532050Y109970D03*
X527050Y109970D03*
X522050Y109970D03*
X517050Y109970D03*
X512050Y109970D03*
X507050Y109970D03*
X502050Y109970D03*
X497050Y109970D03*
X492050Y109970D03*
X487050Y109970D03*
X482050Y109970D03*
X477050Y109970D03*
X472050Y109970D03*
X467050Y109970D03*
X462050Y109970D03*
X457050Y109970D03*
X452050Y109970D03*
X447050Y109970D03*
X442050Y109970D03*
X437050Y109970D03*
D18*
X418050Y77470D03*
X676050Y77470D03*
D11*
X732180Y104140D03*
X751180Y104140D03*
X614070Y151130D03*
X633070Y151130D03*
X572110Y182880D03*
X553110Y182880D03*
X572110Y160020D03*
X553110Y160020D03*
D12*
X523240Y160680D03*
X523240Y179680D03*
X501650Y160680D03*
X501650Y179680D03*
X480060Y160680D03*
X480060Y179680D03*
X458470Y160680D03*
X458470Y179680D03*
X436880Y160680D03*
X436880Y179680D03*
D11*
X414630Y160020D03*
X395630Y160020D03*
X414630Y120650D03*
X395630Y120650D03*
D12*
X603250Y930250D03*
X603250Y911250D03*
X603250Y975970D03*
X603250Y956970D03*
D13*
X678180Y907560D03*
X678180Y941560D03*
D12*
X731520Y926440D03*
X731520Y907440D03*
D11*
X681380Y965200D03*
X700380Y965200D03*
D13*
X702310Y907560D03*
X702310Y941560D03*
D11*
X479450Y760730D03*
X498450Y760730D03*
X488340Y699770D03*
X507340Y699770D03*
D12*
X363220Y214020D03*
X363220Y233020D03*
X374650Y137820D03*
X374650Y156820D03*
D11*
X365150Y699770D03*
X384150Y699770D03*
X446380Y699770D03*
X427380Y699770D03*
X382930Y193040D03*
X401930Y193040D03*
D12*
X394970Y80670D03*
X394970Y99670D03*
M02*
