G04 EAGLE Gerber RS-274X export*
G75*
%MOMM*%
%FSLAX34Y34*%
%LPD*%
%INSoldermask Top*%
%IPPOS*%
%AMOC8*
5,1,8,0,0,1.08239X$1,22.5*%
G01*
%ADD10C,2.203200*%
%ADD11C,1.524000*%
%ADD12P,2.969212X8X22.500000*%
%ADD13P,1.649562X8X202.500000*%
%ADD14P,1.649562X8X22.500000*%
%ADD15C,1.727200*%
%ADD16P,1.759533X8X112.500000*%
%ADD17P,1.759533X8X292.500000*%
%ADD18P,1.649562X8X292.500000*%
%ADD19P,1.759533X8X22.500000*%
%ADD20C,1.524000*%
%ADD21C,3.530600*%
%ADD22C,1.631200*%
%ADD23P,1.759533X8X202.500000*%
%ADD24R,0.800000X1.100000*%
%ADD25R,1.703200X1.503200*%
%ADD26C,1.711200*%
%ADD27R,1.403200X1.403200*%
%ADD28P,1.798066X8X112.500000*%
%ADD29C,3.519200*%
%ADD30C,1.703200*%


D10*
X1120000Y900000D03*
X150000Y900000D03*
X150000Y40000D03*
X1260000Y40000D03*
D11*
X541020Y712216D02*
X541020Y725424D01*
X566420Y725424D02*
X566420Y712216D01*
X591820Y712216D02*
X591820Y725424D01*
X617220Y725424D02*
X617220Y712216D01*
X642620Y712216D02*
X642620Y725424D01*
X668020Y725424D02*
X668020Y712216D01*
X693420Y712216D02*
X693420Y725424D01*
X718820Y725424D02*
X718820Y712216D01*
X744220Y712216D02*
X744220Y725424D01*
X769620Y725424D02*
X769620Y712216D01*
X795020Y712216D02*
X795020Y725424D01*
X820420Y725424D02*
X820420Y712216D01*
X845820Y712216D02*
X845820Y725424D01*
X871220Y725424D02*
X871220Y712216D01*
X896620Y712216D02*
X896620Y725424D01*
X922020Y725424D02*
X922020Y712216D01*
X947420Y712216D02*
X947420Y725424D01*
X972820Y725424D02*
X972820Y712216D01*
X998220Y712216D02*
X998220Y725424D01*
X1023620Y725424D02*
X1023620Y712216D01*
X1023620Y864616D02*
X1023620Y877824D01*
X998220Y877824D02*
X998220Y864616D01*
X972820Y864616D02*
X972820Y877824D01*
X947420Y877824D02*
X947420Y864616D01*
X922020Y864616D02*
X922020Y877824D01*
X896620Y877824D02*
X896620Y864616D01*
X871220Y864616D02*
X871220Y877824D01*
X845820Y877824D02*
X845820Y864616D01*
X820420Y864616D02*
X820420Y877824D01*
X795020Y877824D02*
X795020Y864616D01*
X769620Y864616D02*
X769620Y877824D01*
X744220Y877824D02*
X744220Y864616D01*
X718820Y864616D02*
X718820Y877824D01*
X693420Y877824D02*
X693420Y864616D01*
X668020Y864616D02*
X668020Y877824D01*
X642620Y877824D02*
X642620Y864616D01*
X617220Y864616D02*
X617220Y877824D01*
X591820Y877824D02*
X591820Y864616D01*
X566420Y864616D02*
X566420Y877824D01*
X541020Y877824D02*
X541020Y864616D01*
D12*
X944880Y85090D03*
X1041400Y85090D03*
X993140Y85090D03*
X848360Y85090D03*
D13*
X1219200Y408940D03*
X1193800Y383540D03*
X1219200Y358140D03*
X1038860Y381000D03*
X1013460Y355600D03*
X1038860Y330200D03*
D14*
X1043940Y147320D03*
X1069340Y172720D03*
X1043940Y198120D03*
X1221740Y172720D03*
X1247140Y198120D03*
X1221740Y223520D03*
D15*
X436880Y353060D02*
X421640Y353060D01*
X421640Y378460D02*
X436880Y378460D01*
X436880Y403860D02*
X421640Y403860D01*
X535940Y353060D02*
X551180Y353060D01*
X551180Y378460D02*
X535940Y378460D01*
X535940Y403860D02*
X551180Y403860D01*
D16*
X645160Y353060D03*
X645160Y505460D03*
D17*
X701040Y505460D03*
X701040Y353060D03*
D18*
X621030Y321310D03*
X640080Y308610D03*
X621030Y295910D03*
D12*
X896620Y85090D03*
D19*
X495300Y591820D03*
X495300Y617220D03*
X520700Y591820D03*
X520700Y617220D03*
X546100Y591820D03*
X546100Y617220D03*
X571500Y591820D03*
X571500Y617220D03*
X596900Y591820D03*
X596900Y617220D03*
D12*
X914400Y520700D03*
D20*
X857250Y640080D03*
X808990Y640080D03*
D16*
X1130300Y358140D03*
X1130300Y510540D03*
D17*
X1140460Y193040D03*
X1140460Y40640D03*
D21*
X1167130Y837946D03*
X1224026Y838200D03*
X1167130Y969518D03*
X1224026Y969264D03*
D22*
X1197102Y891794D03*
X1197102Y913130D03*
X1170940Y891794D03*
X1170940Y912876D03*
X1197102Y940308D03*
X1197102Y867410D03*
X1170940Y940308D03*
X1170940Y867410D03*
D12*
X1168400Y510540D03*
X1197610Y93980D03*
X1229360Y510540D03*
X1263650Y95250D03*
X774700Y314960D03*
X775970Y220980D03*
D23*
X970280Y962660D03*
X970280Y937260D03*
X944880Y962660D03*
X944880Y937260D03*
X919480Y962660D03*
X919480Y937260D03*
X894080Y962660D03*
X894080Y937260D03*
X868680Y962660D03*
X868680Y937260D03*
X843280Y962660D03*
X843280Y937260D03*
X817880Y962660D03*
X817880Y937260D03*
D12*
X1041400Y39370D03*
X944880Y39370D03*
X896620Y39370D03*
X993140Y39370D03*
X848360Y39370D03*
X800100Y85090D03*
X800100Y39370D03*
X751840Y85090D03*
X1087120Y786130D03*
D24*
X1064140Y533100D03*
X1049140Y533100D03*
X1049140Y559100D03*
X1064140Y559100D03*
D25*
X1037590Y492100D03*
X1037590Y473100D03*
X1075690Y492608D03*
X1075690Y473608D03*
D26*
X635000Y51990D02*
X635000Y36910D01*
X660400Y36910D02*
X660400Y51990D01*
D25*
X762000Y560680D03*
X762000Y541680D03*
D27*
X762000Y606130D03*
X762000Y585130D03*
D12*
X568960Y960120D03*
X737870Y965200D03*
X440690Y960120D03*
D28*
X1177180Y750370D03*
X1177180Y725370D03*
X1197180Y725370D03*
X1197180Y750370D03*
D29*
X1224280Y677670D03*
X1224280Y798070D03*
D30*
X1260348Y274574D03*
X818896Y281432D03*
X947420Y240030D03*
X947420Y274574D03*
X358902Y263398D03*
X288290Y211328D03*
X518414Y963422D03*
X375158Y451612D03*
X929640Y152400D03*
X629666Y253238D03*
X840232Y364490D03*
X406654Y591312D03*
X832104Y465582D03*
X256540Y294640D03*
X256540Y212090D03*
X240030Y334264D03*
X527812Y526288D03*
X719074Y614172D03*
X898144Y431800D03*
X589788Y817118D03*
X643636Y229616D03*
X1127760Y598170D03*
X1108710Y566420D03*
M02*
