G04 EAGLE Gerber RS-274X export*
G75*
%MOMM*%
%FSLAX34Y34*%
%LPD*%
%INSolderpaste Bottom*%
%IPPOS*%
%AMOC8*
5,1,8,0,0,1.08239X$1,22.5*%
G01*
%ADD10R,2.200000X0.600000*%
%ADD11R,1.300000X1.500000*%
%ADD12R,1.500000X1.300000*%
%ADD13R,1.800000X1.400000*%
%ADD14R,1.400000X1.800000*%
%ADD15R,3.000000X1.400000*%
%ADD16R,1.500000X0.400000*%
%ADD17R,0.250000X1.250000*%
%ADD18R,1.650000X2.050000*%


D10*
X870620Y246380D03*
X922620Y246380D03*
X870620Y233680D03*
X870620Y259080D03*
X870620Y271780D03*
X922620Y233680D03*
X922620Y259080D03*
X922620Y271780D03*
X870620Y297180D03*
X922620Y297180D03*
X870620Y284480D03*
X870620Y309880D03*
X922620Y284480D03*
X922620Y309880D03*
X278800Y250190D03*
X330800Y250190D03*
X278800Y237490D03*
X278800Y262890D03*
X278800Y275590D03*
X330800Y237490D03*
X330800Y262890D03*
X330800Y275590D03*
X1114460Y248920D03*
X1166460Y248920D03*
X1114460Y236220D03*
X1114460Y261620D03*
X1114460Y274320D03*
X1166460Y236220D03*
X1166460Y261620D03*
X1166460Y274320D03*
X1114460Y299720D03*
X1166460Y299720D03*
X1114460Y287020D03*
X1114460Y312420D03*
X1166460Y287020D03*
X1166460Y312420D03*
X504860Y220980D03*
X556860Y220980D03*
X504860Y208280D03*
X504860Y233680D03*
X504860Y246380D03*
X556860Y208280D03*
X556860Y233680D03*
X556860Y246380D03*
X504860Y271780D03*
X556860Y271780D03*
X504860Y259080D03*
X504860Y284480D03*
X556860Y259080D03*
X556860Y284480D03*
D11*
X922680Y207010D03*
X941680Y207010D03*
D12*
X967740Y266040D03*
X967740Y247040D03*
D11*
X1026820Y226060D03*
X1045820Y226060D03*
X1026820Y246380D03*
X1045820Y246380D03*
D12*
X1066800Y226720D03*
X1066800Y245720D03*
X1087120Y245720D03*
X1087120Y226720D03*
X1087120Y321920D03*
X1087120Y302920D03*
D11*
X958240Y339090D03*
X977240Y339090D03*
D12*
X993140Y291490D03*
X993140Y310490D03*
D11*
X1251560Y322580D03*
X1232560Y322580D03*
X1251560Y302260D03*
X1232560Y302260D03*
D12*
X1211580Y321920D03*
X1211580Y302920D03*
X1191260Y302920D03*
X1191260Y321920D03*
X1191260Y226720D03*
X1191260Y245720D03*
X381000Y235610D03*
X381000Y254610D03*
D11*
X412140Y213360D03*
X431140Y213360D03*
D12*
X459740Y222860D03*
X459740Y203860D03*
X468630Y310490D03*
X468630Y291490D03*
X701040Y419760D03*
X701040Y438760D03*
X662940Y178460D03*
X662940Y197460D03*
X701040Y295300D03*
X701040Y314300D03*
X701040Y254660D03*
X701040Y273660D03*
D13*
X690880Y210040D03*
X690880Y176040D03*
X731520Y281160D03*
X731520Y247160D03*
D11*
X890880Y207010D03*
X871880Y207010D03*
D12*
X993140Y266040D03*
X993140Y247040D03*
X967740Y291490D03*
X967740Y310490D03*
D11*
X302870Y189230D03*
X283870Y189230D03*
D12*
X381000Y299060D03*
X381000Y280060D03*
X584200Y226720D03*
X584200Y245720D03*
D14*
X605300Y176530D03*
X639300Y176530D03*
D12*
X584200Y175920D03*
X584200Y194920D03*
X560070Y909980D03*
X560070Y928980D03*
X530860Y928980D03*
X530860Y909980D03*
D13*
X508000Y901210D03*
X508000Y935210D03*
X631190Y907560D03*
X631190Y941560D03*
X654050Y907560D03*
X654050Y941560D03*
D14*
X780270Y798830D03*
X746270Y798830D03*
D12*
X810260Y598780D03*
X810260Y579780D03*
X858520Y598780D03*
X858520Y579780D03*
D11*
X753770Y824230D03*
X772770Y824230D03*
D15*
X809120Y773430D03*
X857120Y773430D03*
D16*
X1067380Y621960D03*
X1067380Y628460D03*
X1067380Y634960D03*
X1067380Y641460D03*
X1067380Y647960D03*
X1067380Y654460D03*
X1067380Y660960D03*
X1067380Y667460D03*
X1067380Y673960D03*
X1067380Y680460D03*
X1067380Y686960D03*
X1067380Y693460D03*
X1067380Y699960D03*
X1067380Y706460D03*
X1139880Y706460D03*
X1139880Y699960D03*
X1139880Y693460D03*
X1139880Y686960D03*
X1139880Y680460D03*
X1139880Y673960D03*
X1139880Y667460D03*
X1139880Y660960D03*
X1139880Y654460D03*
X1139880Y647960D03*
X1139880Y641460D03*
X1139880Y634960D03*
X1139880Y628460D03*
X1139880Y621960D03*
D12*
X1037590Y687680D03*
X1037590Y668680D03*
D11*
X1137260Y742950D03*
X1118260Y742950D03*
X662280Y99060D03*
X643280Y99060D03*
D17*
X542750Y93460D03*
X537750Y93460D03*
X532750Y93460D03*
X527750Y93460D03*
X522750Y93460D03*
X517750Y93460D03*
X512750Y93460D03*
X507750Y93460D03*
X502750Y93460D03*
X497750Y93460D03*
X492750Y93460D03*
X487750Y93460D03*
X482750Y93460D03*
X477750Y93460D03*
X472750Y93460D03*
X467750Y93460D03*
X462750Y93460D03*
X457750Y93460D03*
X452750Y93460D03*
X447750Y93460D03*
X442750Y93460D03*
X437750Y93460D03*
X432750Y93460D03*
X427750Y93460D03*
X422750Y93460D03*
X417750Y93460D03*
X412750Y93460D03*
X407750Y93460D03*
X402750Y93460D03*
X397750Y93460D03*
X392750Y93460D03*
X387750Y93460D03*
X382750Y93460D03*
X377750Y93460D03*
X372750Y93460D03*
X367750Y93460D03*
X362750Y93460D03*
X357750Y93460D03*
X352750Y93460D03*
X347750Y93460D03*
X342750Y93460D03*
X337750Y93460D03*
X332750Y93460D03*
X327750Y93460D03*
X322750Y93460D03*
D18*
X303750Y60960D03*
X561750Y60960D03*
D11*
X592480Y99060D03*
X611480Y99060D03*
X499770Y134620D03*
X518770Y134620D03*
X457810Y166370D03*
X438810Y166370D03*
X457810Y143510D03*
X438810Y143510D03*
D12*
X408940Y144170D03*
X408940Y163170D03*
X387350Y144170D03*
X387350Y163170D03*
X365760Y144170D03*
X365760Y163170D03*
X344170Y144170D03*
X344170Y163170D03*
X322580Y144170D03*
X322580Y163170D03*
D11*
X295250Y143510D03*
X276250Y143510D03*
X295250Y104140D03*
X276250Y104140D03*
D12*
X603250Y930250D03*
X603250Y911250D03*
X603250Y975970D03*
X603250Y956970D03*
D13*
X678180Y907560D03*
X678180Y941560D03*
D12*
X731520Y926440D03*
X731520Y907440D03*
D11*
X681380Y965200D03*
X700380Y965200D03*
D13*
X702310Y907560D03*
X702310Y941560D03*
M02*
