G04 EAGLE Gerber RS-274X export*
G75*
%MOMM*%
%FSLAX34Y34*%
%LPD*%
%INSoldermask Bottom*%
%IPPOS*%
%AMOC8*
5,1,8,0,0,1.08239X$1,22.5*%
G01*
%ADD10C,2.203200*%
%ADD11C,1.524000*%
%ADD12R,2.403200X0.803200*%
%ADD13R,1.503200X1.703200*%
%ADD14R,1.703200X1.503200*%
%ADD15P,2.969212X8X22.500000*%
%ADD16P,1.649562X8X202.500000*%
%ADD17P,1.649562X8X22.500000*%
%ADD18C,1.727200*%
%ADD19P,1.759533X8X112.500000*%
%ADD20P,1.759533X8X292.500000*%
%ADD21P,1.649562X8X292.500000*%
%ADD22R,2.003200X1.603200*%
%ADD23R,1.603200X2.003200*%
%ADD24P,1.759533X8X22.500000*%
%ADD25C,1.524000*%
%ADD26R,3.203200X1.603200*%
%ADD27R,1.703200X0.603200*%
%ADD28C,3.530600*%
%ADD29C,1.631200*%
%ADD30P,1.759533X8X202.500000*%
%ADD31C,1.711200*%
%ADD32R,0.400000X1.400000*%
%ADD33R,1.900000X2.350000*%
%ADD34P,1.798066X8X112.500000*%
%ADD35C,3.519200*%
%ADD36C,1.703200*%


D10*
X1120000Y900000D03*
X150000Y900000D03*
X150000Y40000D03*
X1260000Y40000D03*
D11*
X541020Y712216D02*
X541020Y725424D01*
X566420Y725424D02*
X566420Y712216D01*
X591820Y712216D02*
X591820Y725424D01*
X617220Y725424D02*
X617220Y712216D01*
X642620Y712216D02*
X642620Y725424D01*
X668020Y725424D02*
X668020Y712216D01*
X693420Y712216D02*
X693420Y725424D01*
X718820Y725424D02*
X718820Y712216D01*
X744220Y712216D02*
X744220Y725424D01*
X769620Y725424D02*
X769620Y712216D01*
X795020Y712216D02*
X795020Y725424D01*
X820420Y725424D02*
X820420Y712216D01*
X845820Y712216D02*
X845820Y725424D01*
X871220Y725424D02*
X871220Y712216D01*
X896620Y712216D02*
X896620Y725424D01*
X922020Y725424D02*
X922020Y712216D01*
X947420Y712216D02*
X947420Y725424D01*
X972820Y725424D02*
X972820Y712216D01*
X998220Y712216D02*
X998220Y725424D01*
X1023620Y725424D02*
X1023620Y712216D01*
X1023620Y864616D02*
X1023620Y877824D01*
X998220Y877824D02*
X998220Y864616D01*
X972820Y864616D02*
X972820Y877824D01*
X947420Y877824D02*
X947420Y864616D01*
X922020Y864616D02*
X922020Y877824D01*
X896620Y877824D02*
X896620Y864616D01*
X871220Y864616D02*
X871220Y877824D01*
X845820Y877824D02*
X845820Y864616D01*
X820420Y864616D02*
X820420Y877824D01*
X795020Y877824D02*
X795020Y864616D01*
X769620Y864616D02*
X769620Y877824D01*
X744220Y877824D02*
X744220Y864616D01*
X718820Y864616D02*
X718820Y877824D01*
X693420Y877824D02*
X693420Y864616D01*
X668020Y864616D02*
X668020Y877824D01*
X642620Y877824D02*
X642620Y864616D01*
X617220Y864616D02*
X617220Y877824D01*
X591820Y877824D02*
X591820Y864616D01*
X566420Y864616D02*
X566420Y877824D01*
X541020Y877824D02*
X541020Y864616D01*
D12*
X870620Y246380D03*
X922620Y246380D03*
X870620Y233680D03*
X870620Y259080D03*
X870620Y271780D03*
X922620Y233680D03*
X922620Y259080D03*
X922620Y271780D03*
X870620Y297180D03*
X922620Y297180D03*
X870620Y284480D03*
X870620Y309880D03*
X922620Y284480D03*
X922620Y309880D03*
X278800Y250190D03*
X330800Y250190D03*
X278800Y237490D03*
X278800Y262890D03*
X278800Y275590D03*
X330800Y237490D03*
X330800Y262890D03*
X330800Y275590D03*
X1114460Y248920D03*
X1166460Y248920D03*
X1114460Y236220D03*
X1114460Y261620D03*
X1114460Y274320D03*
X1166460Y236220D03*
X1166460Y261620D03*
X1166460Y274320D03*
X1114460Y299720D03*
X1166460Y299720D03*
X1114460Y287020D03*
X1114460Y312420D03*
X1166460Y287020D03*
X1166460Y312420D03*
X504860Y220980D03*
X556860Y220980D03*
X504860Y208280D03*
X504860Y233680D03*
X504860Y246380D03*
X556860Y208280D03*
X556860Y233680D03*
X556860Y246380D03*
X504860Y271780D03*
X556860Y271780D03*
X504860Y259080D03*
X504860Y284480D03*
X556860Y259080D03*
X556860Y284480D03*
D13*
X922680Y207010D03*
X941680Y207010D03*
D14*
X967740Y266040D03*
X967740Y247040D03*
D13*
X1026820Y226060D03*
X1045820Y226060D03*
X1026820Y246380D03*
X1045820Y246380D03*
D14*
X1066800Y226720D03*
X1066800Y245720D03*
X1087120Y245720D03*
X1087120Y226720D03*
D15*
X944880Y85090D03*
X1041400Y85090D03*
X993140Y85090D03*
X848360Y85090D03*
D14*
X1087120Y321920D03*
X1087120Y302920D03*
D16*
X1219200Y408940D03*
X1193800Y383540D03*
X1219200Y358140D03*
X1038860Y381000D03*
X1013460Y355600D03*
X1038860Y330200D03*
D13*
X958240Y339090D03*
X977240Y339090D03*
D14*
X993140Y291490D03*
X993140Y310490D03*
D13*
X1251560Y322580D03*
X1232560Y322580D03*
X1251560Y302260D03*
X1232560Y302260D03*
D14*
X1211580Y321920D03*
X1211580Y302920D03*
X1191260Y302920D03*
X1191260Y321920D03*
X1191260Y226720D03*
X1191260Y245720D03*
D17*
X1043940Y147320D03*
X1069340Y172720D03*
X1043940Y198120D03*
X1221740Y172720D03*
X1247140Y198120D03*
X1221740Y223520D03*
D14*
X381000Y235610D03*
X381000Y254610D03*
D13*
X412140Y213360D03*
X431140Y213360D03*
D14*
X459740Y222860D03*
X459740Y203860D03*
X468630Y310490D03*
X468630Y291490D03*
D18*
X436880Y353060D02*
X421640Y353060D01*
X421640Y378460D02*
X436880Y378460D01*
X436880Y403860D02*
X421640Y403860D01*
X535940Y353060D02*
X551180Y353060D01*
X551180Y378460D02*
X535940Y378460D01*
X535940Y403860D02*
X551180Y403860D01*
D19*
X645160Y353060D03*
X645160Y505460D03*
D20*
X701040Y505460D03*
X701040Y353060D03*
D14*
X701040Y419760D03*
X701040Y438760D03*
X662940Y178460D03*
X662940Y197460D03*
D21*
X621030Y321310D03*
X640080Y308610D03*
X621030Y295910D03*
D14*
X701040Y295300D03*
X701040Y314300D03*
X701040Y254660D03*
X701040Y273660D03*
D22*
X690880Y210040D03*
X690880Y176040D03*
X731520Y281160D03*
X731520Y247160D03*
D13*
X890880Y207010D03*
X871880Y207010D03*
D14*
X993140Y266040D03*
X993140Y247040D03*
X967740Y291490D03*
X967740Y310490D03*
D13*
X302870Y189230D03*
X283870Y189230D03*
D14*
X381000Y299060D03*
X381000Y280060D03*
X584200Y226720D03*
X584200Y245720D03*
D23*
X605300Y176530D03*
X639300Y176530D03*
D14*
X584200Y175920D03*
X584200Y194920D03*
X560070Y909980D03*
X560070Y928980D03*
X530860Y928980D03*
X530860Y909980D03*
D22*
X508000Y901210D03*
X508000Y935210D03*
X631190Y907560D03*
X631190Y941560D03*
X654050Y907560D03*
X654050Y941560D03*
D15*
X896620Y85090D03*
D24*
X495300Y591820D03*
X495300Y617220D03*
X520700Y591820D03*
X520700Y617220D03*
X546100Y591820D03*
X546100Y617220D03*
X571500Y591820D03*
X571500Y617220D03*
X596900Y591820D03*
X596900Y617220D03*
D15*
X914400Y520700D03*
D23*
X780270Y798830D03*
X746270Y798830D03*
D14*
X810260Y598780D03*
X810260Y579780D03*
X858520Y598780D03*
X858520Y579780D03*
D13*
X753770Y824230D03*
X772770Y824230D03*
D25*
X857250Y640080D03*
X808990Y640080D03*
D26*
X809120Y773430D03*
X857120Y773430D03*
D19*
X1130300Y358140D03*
X1130300Y510540D03*
D20*
X1140460Y193040D03*
X1140460Y40640D03*
D27*
X1067380Y621960D03*
X1067380Y628460D03*
X1067380Y634960D03*
X1067380Y641460D03*
X1067380Y647960D03*
X1067380Y654460D03*
X1067380Y660960D03*
X1067380Y667460D03*
X1067380Y673960D03*
X1067380Y680460D03*
X1067380Y686960D03*
X1067380Y693460D03*
X1067380Y699960D03*
X1067380Y706460D03*
X1139880Y706460D03*
X1139880Y699960D03*
X1139880Y693460D03*
X1139880Y686960D03*
X1139880Y680460D03*
X1139880Y673960D03*
X1139880Y667460D03*
X1139880Y660960D03*
X1139880Y654460D03*
X1139880Y647960D03*
X1139880Y641460D03*
X1139880Y634960D03*
X1139880Y628460D03*
X1139880Y621960D03*
D14*
X1037590Y687680D03*
X1037590Y668680D03*
D13*
X1137260Y742950D03*
X1118260Y742950D03*
D28*
X1167130Y837946D03*
X1224026Y838200D03*
X1167130Y969518D03*
X1224026Y969264D03*
D29*
X1197102Y891794D03*
X1197102Y913130D03*
X1170940Y891794D03*
X1170940Y912876D03*
X1197102Y940308D03*
X1197102Y867410D03*
X1170940Y940308D03*
X1170940Y867410D03*
D15*
X1168400Y510540D03*
X1197610Y93980D03*
X1229360Y510540D03*
X1263650Y95250D03*
X774700Y314960D03*
X775970Y220980D03*
D30*
X970280Y962660D03*
X970280Y937260D03*
X944880Y962660D03*
X944880Y937260D03*
X919480Y962660D03*
X919480Y937260D03*
X894080Y962660D03*
X894080Y937260D03*
X868680Y962660D03*
X868680Y937260D03*
X843280Y962660D03*
X843280Y937260D03*
X817880Y962660D03*
X817880Y937260D03*
D15*
X1041400Y39370D03*
X944880Y39370D03*
X896620Y39370D03*
X993140Y39370D03*
X848360Y39370D03*
X800100Y85090D03*
X800100Y39370D03*
X751840Y85090D03*
X1087120Y786130D03*
D31*
X635000Y51990D02*
X635000Y36910D01*
X660400Y36910D02*
X660400Y51990D01*
D13*
X662280Y99060D03*
X643280Y99060D03*
D32*
X542750Y93460D03*
X537750Y93460D03*
X532750Y93460D03*
X527750Y93460D03*
X522750Y93460D03*
X517750Y93460D03*
X512750Y93460D03*
X507750Y93460D03*
X502750Y93460D03*
X497750Y93460D03*
X492750Y93460D03*
X487750Y93460D03*
X482750Y93460D03*
X477750Y93460D03*
X472750Y93460D03*
X467750Y93460D03*
X462750Y93460D03*
X457750Y93460D03*
X452750Y93460D03*
X447750Y93460D03*
X442750Y93460D03*
X437750Y93460D03*
X432750Y93460D03*
X427750Y93460D03*
X422750Y93460D03*
X417750Y93460D03*
X412750Y93460D03*
X407750Y93460D03*
X402750Y93460D03*
X397750Y93460D03*
X392750Y93460D03*
X387750Y93460D03*
X382750Y93460D03*
X377750Y93460D03*
X372750Y93460D03*
X367750Y93460D03*
X362750Y93460D03*
X357750Y93460D03*
X352750Y93460D03*
X347750Y93460D03*
X342750Y93460D03*
X337750Y93460D03*
X332750Y93460D03*
X327750Y93460D03*
X322750Y93460D03*
D33*
X303750Y60960D03*
X561750Y60960D03*
D13*
X592480Y99060D03*
X611480Y99060D03*
X499770Y134620D03*
X518770Y134620D03*
X457810Y166370D03*
X438810Y166370D03*
X457810Y143510D03*
X438810Y143510D03*
D14*
X408940Y144170D03*
X408940Y163170D03*
X387350Y144170D03*
X387350Y163170D03*
X365760Y144170D03*
X365760Y163170D03*
X344170Y144170D03*
X344170Y163170D03*
X322580Y144170D03*
X322580Y163170D03*
D13*
X295250Y143510D03*
X276250Y143510D03*
X295250Y104140D03*
X276250Y104140D03*
D14*
X603250Y930250D03*
X603250Y911250D03*
X603250Y975970D03*
X603250Y956970D03*
D22*
X678180Y907560D03*
X678180Y941560D03*
D14*
X731520Y926440D03*
X731520Y907440D03*
D13*
X681380Y965200D03*
X700380Y965200D03*
D22*
X702310Y907560D03*
X702310Y941560D03*
D15*
X568960Y960120D03*
X737870Y965200D03*
X440690Y960120D03*
D34*
X1177180Y750370D03*
X1177180Y725370D03*
X1197180Y725370D03*
X1197180Y750370D03*
D35*
X1224280Y677670D03*
X1224280Y798070D03*
D36*
X1260348Y274574D03*
X818896Y281432D03*
X947420Y240030D03*
X947420Y274574D03*
X358902Y263398D03*
X288290Y211328D03*
X518414Y963422D03*
X375158Y451612D03*
X929640Y152400D03*
X629666Y253238D03*
X840232Y364490D03*
X406654Y591312D03*
X832104Y465582D03*
X256540Y294640D03*
X256540Y212090D03*
X240030Y334264D03*
X527812Y526288D03*
X719074Y614172D03*
X898144Y431800D03*
X589788Y817118D03*
X643636Y229616D03*
X1127760Y598170D03*
X1108710Y566420D03*
M02*
