G04 EAGLE Gerber RS-274X export*
G75*
%MOMM*%
%FSLAX34Y34*%
%LPD*%
%INBottom Copper*%
%IPPOS*%
%AMOC8*
5,1,8,0,0,1.08239X$1,22.5*%
G01*
G04 Define Apertures*
%ADD10C,1.524000*%
%ADD11R,1.508000X1.508000*%
%ADD12R,3.216000X3.216000*%
%ADD13R,1.500000X1.300000*%
%ADD14R,1.300000X1.500000*%
%ADD15C,0.406400*%
%ADD16C,0.152400*%
%ADD17C,1.500000*%
%ADD18C,0.254000*%
G36*
X13044Y408946D02*
X12257Y408760D01*
X11460Y408895D01*
X10778Y409331D01*
X10321Y409998D01*
X10160Y410791D01*
X10160Y447808D01*
X10297Y448541D01*
X10732Y449222D01*
X11399Y449679D01*
X12192Y449840D01*
X45700Y449840D01*
X46402Y449715D01*
X47090Y449290D01*
X47558Y448630D01*
X47731Y447840D01*
X47583Y447045D01*
X47136Y446371D01*
X27717Y426952D01*
X26480Y423965D01*
X26480Y421108D01*
X26343Y420376D01*
X25908Y419694D01*
X25241Y419237D01*
X24448Y419076D01*
X24260Y419076D01*
X19219Y416988D01*
X15360Y413129D01*
X14069Y410013D01*
X13696Y409424D01*
X13044Y408946D01*
G37*
G36*
X868615Y354993D02*
X867824Y354826D01*
X867030Y354980D01*
X865467Y355628D01*
X860809Y355628D01*
X860092Y355759D01*
X859407Y356189D01*
X858944Y356853D01*
X858777Y357644D01*
X858932Y358438D01*
X862060Y365990D01*
X862060Y374010D01*
X858991Y381420D01*
X853320Y387091D01*
X845910Y390160D01*
X837890Y390160D01*
X830480Y387091D01*
X824809Y381420D01*
X821740Y374010D01*
X821740Y365990D01*
X824868Y358438D01*
X825022Y357725D01*
X824886Y356928D01*
X824451Y356246D01*
X823784Y355789D01*
X822991Y355628D01*
X796488Y355628D01*
X795726Y355777D01*
X795052Y356223D01*
X748144Y403131D01*
X745157Y404368D01*
X596311Y404368D01*
X595548Y404517D01*
X594874Y404963D01*
X591969Y407868D01*
X586928Y409956D01*
X566232Y409956D01*
X561191Y407868D01*
X557332Y404009D01*
X555244Y398968D01*
X555244Y393512D01*
X557332Y388471D01*
X560826Y384977D01*
X561247Y384362D01*
X561421Y383572D01*
X561272Y382777D01*
X560826Y382103D01*
X557446Y378723D01*
X556802Y378289D01*
X556009Y378128D01*
X542823Y378128D01*
X539836Y376891D01*
X537377Y374432D01*
X536792Y374024D01*
X536005Y373837D01*
X535208Y373973D01*
X534526Y374409D01*
X534069Y375076D01*
X533908Y375868D01*
X533908Y416677D01*
X532671Y419664D01*
X505964Y446371D01*
X505556Y446956D01*
X505369Y447743D01*
X505505Y448541D01*
X505941Y449222D01*
X506608Y449679D01*
X507400Y449840D01*
X867808Y449840D01*
X868541Y449703D01*
X869222Y449268D01*
X869679Y448601D01*
X869840Y447808D01*
X869840Y356858D01*
X869709Y356140D01*
X869279Y355456D01*
X868615Y354993D01*
G37*
G36*
X340298Y430726D02*
X339508Y430553D01*
X338713Y430701D01*
X338039Y431148D01*
X333084Y436103D01*
X332676Y436688D01*
X332489Y437475D01*
X332625Y438273D01*
X333061Y438954D01*
X333728Y439411D01*
X334520Y439572D01*
X344432Y439572D01*
X345134Y439447D01*
X345822Y439022D01*
X346290Y438362D01*
X346463Y437572D01*
X346315Y436777D01*
X345868Y436103D01*
X340913Y431148D01*
X340298Y430726D01*
G37*
G36*
X559291Y228362D02*
X558501Y228188D01*
X557706Y228336D01*
X557032Y228783D01*
X511903Y273912D01*
X511469Y274556D01*
X511308Y275348D01*
X511308Y360796D01*
X511329Y360904D01*
X511308Y362793D01*
X511308Y362815D01*
X511308Y364422D01*
X510676Y365901D01*
X510668Y365921D01*
X510053Y367406D01*
X508904Y368530D01*
X508888Y368545D01*
X507552Y369881D01*
X507461Y369942D01*
X479954Y396851D01*
X479510Y397496D01*
X479343Y398287D01*
X479497Y399081D01*
X480968Y402632D01*
X480968Y408088D01*
X478880Y413129D01*
X475021Y416988D01*
X469980Y419076D01*
X468790Y419076D01*
X468042Y419219D01*
X467365Y419660D01*
X466913Y420330D01*
X466523Y421272D01*
X451692Y436103D01*
X451284Y436688D01*
X451097Y437475D01*
X451233Y438273D01*
X451669Y438954D01*
X452336Y439411D01*
X453128Y439572D01*
X488932Y439572D01*
X489694Y439423D01*
X490368Y438977D01*
X517057Y412288D01*
X517491Y411644D01*
X517652Y410852D01*
X517652Y328583D01*
X518889Y325596D01*
X531336Y313149D01*
X534323Y311912D01*
X556849Y311912D01*
X557612Y311763D01*
X558286Y311317D01*
X560826Y308777D01*
X561247Y308162D01*
X561421Y307372D01*
X561272Y306577D01*
X560826Y305903D01*
X557332Y302409D01*
X555244Y297368D01*
X555244Y291912D01*
X557332Y286871D01*
X560826Y283377D01*
X561247Y282762D01*
X561421Y281972D01*
X561272Y281177D01*
X560826Y280503D01*
X557332Y277009D01*
X555244Y271968D01*
X555244Y266512D01*
X557332Y261471D01*
X560826Y257977D01*
X561247Y257362D01*
X561421Y256572D01*
X561272Y255777D01*
X560826Y255103D01*
X557332Y251609D01*
X555244Y246568D01*
X555244Y241112D01*
X557332Y236071D01*
X560826Y232577D01*
X561247Y231962D01*
X561421Y231172D01*
X561272Y230377D01*
X560826Y229703D01*
X559906Y228783D01*
X559291Y228362D01*
G37*
G36*
X57977Y48659D02*
X57189Y48479D01*
X56392Y48621D01*
X55715Y49063D01*
X55263Y49733D01*
X53856Y53129D01*
X49997Y56988D01*
X44956Y59076D01*
X44768Y59076D01*
X44036Y59213D01*
X43354Y59648D01*
X42897Y60315D01*
X42736Y61108D01*
X42736Y149612D01*
X42873Y150345D01*
X43308Y151026D01*
X43975Y151483D01*
X44768Y151644D01*
X44956Y151644D01*
X49997Y153732D01*
X53856Y157591D01*
X55944Y162632D01*
X55944Y168088D01*
X53856Y173129D01*
X49997Y176988D01*
X44956Y179076D01*
X44768Y179076D01*
X44036Y179213D01*
X43354Y179648D01*
X42897Y180315D01*
X42736Y181108D01*
X42736Y269612D01*
X42873Y270345D01*
X43308Y271026D01*
X43975Y271483D01*
X44768Y271644D01*
X44956Y271644D01*
X49997Y273732D01*
X53856Y277591D01*
X55944Y282632D01*
X55944Y288088D01*
X53856Y293129D01*
X49997Y296988D01*
X44956Y299076D01*
X44768Y299076D01*
X44036Y299213D01*
X43354Y299648D01*
X42897Y300315D01*
X42736Y301108D01*
X42736Y389612D01*
X42873Y390345D01*
X43308Y391026D01*
X43975Y391483D01*
X44768Y391644D01*
X44956Y391644D01*
X49997Y393732D01*
X53856Y397591D01*
X55944Y402632D01*
X55944Y408088D01*
X53856Y413129D01*
X49997Y416988D01*
X46263Y418535D01*
X45650Y418930D01*
X45182Y419590D01*
X45009Y420380D01*
X45157Y421175D01*
X45604Y421849D01*
X62732Y438977D01*
X63376Y439411D01*
X64168Y439572D01*
X95512Y439572D01*
X96214Y439447D01*
X96902Y439022D01*
X97370Y438362D01*
X97543Y437572D01*
X97395Y436777D01*
X96948Y436103D01*
X92741Y431896D01*
X91504Y428909D01*
X91504Y421108D01*
X91367Y420376D01*
X90932Y419694D01*
X90265Y419237D01*
X89472Y419076D01*
X89284Y419076D01*
X84243Y416988D01*
X80384Y413129D01*
X78296Y408088D01*
X78296Y402632D01*
X80384Y397591D01*
X84243Y393732D01*
X89284Y391644D01*
X109980Y391644D01*
X111442Y392250D01*
X112155Y392403D01*
X112953Y392268D01*
X113634Y391832D01*
X114091Y391165D01*
X114252Y390372D01*
X114252Y388768D01*
X114103Y388006D01*
X113657Y387332D01*
X93109Y366784D01*
X91872Y363797D01*
X91872Y363444D01*
X91747Y362742D01*
X91322Y362054D01*
X90662Y361586D01*
X89872Y361412D01*
X89077Y361561D01*
X88403Y362007D01*
X83320Y367091D01*
X75910Y370160D01*
X67890Y370160D01*
X60480Y367091D01*
X54809Y361420D01*
X51740Y354010D01*
X51740Y345990D01*
X54809Y338580D01*
X60480Y332909D01*
X67890Y329840D01*
X75910Y329840D01*
X83320Y332909D01*
X88403Y337993D01*
X88988Y338401D01*
X89775Y338587D01*
X90573Y338451D01*
X91254Y338015D01*
X91711Y337348D01*
X91872Y336556D01*
X91872Y301108D01*
X91735Y300376D01*
X91300Y299694D01*
X90633Y299237D01*
X89840Y299076D01*
X89284Y299076D01*
X84243Y296988D01*
X80384Y293129D01*
X78296Y288088D01*
X78296Y282632D01*
X80384Y277591D01*
X84243Y273732D01*
X89284Y271644D01*
X109980Y271644D01*
X113522Y273111D01*
X114235Y273265D01*
X115033Y273129D01*
X115714Y272693D01*
X116171Y272026D01*
X116332Y271234D01*
X116332Y268308D01*
X116183Y267546D01*
X115737Y266872D01*
X93109Y244244D01*
X91872Y241257D01*
X91872Y181108D01*
X91735Y180376D01*
X91300Y179694D01*
X90633Y179237D01*
X89840Y179076D01*
X89284Y179076D01*
X84243Y176988D01*
X80384Y173129D01*
X78296Y168088D01*
X78296Y162632D01*
X80384Y157591D01*
X84243Y153732D01*
X89284Y151644D01*
X109980Y151644D01*
X115021Y153732D01*
X118880Y157591D01*
X120968Y162632D01*
X120968Y168088D01*
X118880Y173129D01*
X115021Y176988D01*
X109833Y179137D01*
X109428Y179213D01*
X108746Y179648D01*
X108289Y180315D01*
X108128Y181108D01*
X108128Y235432D01*
X108277Y236194D01*
X108723Y236868D01*
X131351Y259496D01*
X132588Y262483D01*
X132588Y275457D01*
X132713Y276159D01*
X133138Y276847D01*
X133798Y277315D01*
X134588Y277489D01*
X135383Y277340D01*
X136057Y276894D01*
X139219Y273732D01*
X144260Y271644D01*
X144448Y271644D01*
X145181Y271507D01*
X145862Y271072D01*
X146319Y270405D01*
X146480Y269612D01*
X146480Y181108D01*
X146343Y180376D01*
X145908Y179694D01*
X145241Y179237D01*
X144448Y179076D01*
X144260Y179076D01*
X139219Y176988D01*
X135360Y173129D01*
X133272Y168088D01*
X133272Y162632D01*
X135360Y157591D01*
X139219Y153732D01*
X144260Y151644D01*
X144448Y151644D01*
X145181Y151507D01*
X145862Y151072D01*
X146319Y150405D01*
X146480Y149612D01*
X146480Y87980D01*
X146343Y87248D01*
X145908Y86566D01*
X145241Y86109D01*
X144448Y85948D01*
X76730Y85948D01*
X76043Y86068D01*
X75351Y86487D01*
X74878Y87143D01*
X74698Y87931D01*
X74840Y88728D01*
X75281Y89405D01*
X75952Y89857D01*
X83320Y92909D01*
X88991Y98580D01*
X92060Y105990D01*
X92060Y114010D01*
X88991Y121420D01*
X83320Y127091D01*
X75910Y130160D01*
X67890Y130160D01*
X60480Y127091D01*
X54809Y121420D01*
X51740Y114010D01*
X51740Y105990D01*
X54809Y98580D01*
X60480Y92909D01*
X67848Y89857D01*
X68437Y89484D01*
X68915Y88832D01*
X69101Y88045D01*
X68966Y87248D01*
X68530Y86566D01*
X67863Y86109D01*
X67071Y85948D01*
X65683Y85948D01*
X62696Y84711D01*
X60409Y82424D01*
X59172Y79437D01*
X59172Y50511D01*
X59052Y49824D01*
X58633Y49132D01*
X57977Y48659D01*
G37*
G36*
X220378Y430494D02*
X219588Y430321D01*
X218793Y430469D01*
X218119Y430916D01*
X212932Y436103D01*
X212524Y436688D01*
X212337Y437475D01*
X212473Y438273D01*
X212909Y438954D01*
X213576Y439411D01*
X214368Y439572D01*
X224744Y439572D01*
X225446Y439447D01*
X226134Y439022D01*
X226602Y438362D01*
X226775Y437572D01*
X226627Y436777D01*
X226180Y436103D01*
X220993Y430916D01*
X220378Y430494D01*
G37*
G36*
X113027Y418483D02*
X112236Y418316D01*
X111442Y418470D01*
X109980Y419076D01*
X109792Y419076D01*
X109060Y419213D01*
X108378Y419648D01*
X107921Y420315D01*
X107760Y421108D01*
X107760Y423084D01*
X107909Y423846D01*
X108355Y424520D01*
X110783Y426948D01*
X111368Y427356D01*
X112155Y427543D01*
X112953Y427407D01*
X113634Y426971D01*
X114091Y426304D01*
X114252Y425512D01*
X114252Y420348D01*
X114121Y419630D01*
X113691Y418946D01*
X113027Y418483D01*
G37*
G36*
X358962Y414885D02*
X358172Y414711D01*
X357377Y414860D01*
X356703Y415306D01*
X355021Y416988D01*
X354098Y417370D01*
X353486Y417766D01*
X353018Y418425D01*
X352844Y419215D01*
X352993Y420010D01*
X353439Y420684D01*
X359642Y426887D01*
X360286Y427321D01*
X361078Y427482D01*
X362822Y427482D01*
X363524Y427357D01*
X364212Y426932D01*
X364680Y426272D01*
X364853Y425482D01*
X364705Y424687D01*
X364258Y424013D01*
X361409Y421164D01*
X360172Y418177D01*
X360172Y416743D01*
X360047Y416041D01*
X359622Y415353D01*
X358962Y414885D01*
G37*
G36*
X438752Y410597D02*
X437965Y410411D01*
X437168Y410547D01*
X436486Y410983D01*
X436029Y411650D01*
X435868Y412442D01*
X435868Y424032D01*
X435993Y424734D01*
X436418Y425422D01*
X437078Y425890D01*
X437868Y426063D01*
X438663Y425915D01*
X439337Y425468D01*
X444620Y420185D01*
X445035Y419586D01*
X445215Y418797D01*
X445073Y418001D01*
X444631Y417323D01*
X444467Y417212D01*
X440384Y413129D01*
X439777Y411665D01*
X439404Y411076D01*
X438752Y410597D01*
G37*
G36*
X418417Y407597D02*
X417629Y407417D01*
X416832Y407559D01*
X416155Y408000D01*
X415703Y408671D01*
X414472Y411642D01*
X414318Y412355D01*
X414454Y413153D01*
X414890Y413834D01*
X415557Y414291D01*
X416349Y414452D01*
X417580Y414452D01*
X418313Y414315D01*
X418994Y413880D01*
X419451Y413213D01*
X419612Y412420D01*
X419612Y409449D01*
X419492Y408762D01*
X419073Y408070D01*
X418417Y407597D01*
G37*
G36*
X531144Y188249D02*
X530351Y188088D01*
X511318Y188088D01*
X510556Y188237D01*
X509882Y188683D01*
X465614Y232951D01*
X462627Y234188D01*
X404768Y234188D01*
X404036Y234325D01*
X403354Y234760D01*
X402897Y235427D01*
X402736Y236220D01*
X402736Y269612D01*
X402873Y270345D01*
X403308Y271026D01*
X403975Y271483D01*
X404768Y271644D01*
X404956Y271644D01*
X409997Y273732D01*
X413856Y277591D01*
X415944Y282632D01*
X415944Y288088D01*
X413856Y293129D01*
X409997Y296988D01*
X404956Y299076D01*
X404768Y299076D01*
X404036Y299213D01*
X403354Y299648D01*
X402897Y300315D01*
X402736Y301108D01*
X402736Y389612D01*
X402873Y390345D01*
X403308Y391026D01*
X403975Y391483D01*
X404768Y391644D01*
X404956Y391644D01*
X409997Y393732D01*
X413856Y397591D01*
X415703Y402049D01*
X416076Y402638D01*
X416728Y403116D01*
X417515Y403302D01*
X418313Y403167D01*
X418994Y402731D01*
X419451Y402064D01*
X419612Y401272D01*
X419612Y383143D01*
X420849Y380156D01*
X448777Y352228D01*
X449211Y351584D01*
X449372Y350792D01*
X449372Y300470D01*
X449229Y299723D01*
X448788Y299045D01*
X448118Y298593D01*
X444243Y296988D01*
X440384Y293129D01*
X438296Y288088D01*
X438296Y282632D01*
X440384Y277591D01*
X444243Y273732D01*
X449284Y271644D01*
X450950Y271644D01*
X451698Y271501D01*
X452375Y271060D01*
X452577Y270761D01*
X453907Y269431D01*
X455313Y268025D01*
X455314Y268024D01*
X531788Y191557D01*
X532196Y190972D01*
X532382Y190185D01*
X532247Y189388D01*
X531811Y188706D01*
X531144Y188249D01*
G37*
G36*
X13044Y288946D02*
X12257Y288760D01*
X11460Y288895D01*
X10778Y289331D01*
X10321Y289998D01*
X10160Y290791D01*
X10160Y399929D01*
X10280Y400616D01*
X10699Y401308D01*
X11355Y401781D01*
X12143Y401961D01*
X12940Y401819D01*
X13617Y401377D01*
X14069Y400707D01*
X15360Y397591D01*
X19219Y393732D01*
X24260Y391644D01*
X24448Y391644D01*
X25181Y391507D01*
X25862Y391072D01*
X26319Y390405D01*
X26480Y389612D01*
X26480Y301108D01*
X26343Y300376D01*
X25908Y299694D01*
X25241Y299237D01*
X24448Y299076D01*
X24260Y299076D01*
X19219Y296988D01*
X15360Y293129D01*
X14069Y290013D01*
X13696Y289424D01*
X13044Y288946D01*
G37*
G36*
X557062Y200749D02*
X556269Y200588D01*
X546588Y200588D01*
X545826Y200737D01*
X545151Y201183D01*
X475246Y271083D01*
X474824Y271697D01*
X474651Y272487D01*
X474799Y273282D01*
X475246Y273956D01*
X478880Y277591D01*
X480968Y282632D01*
X480968Y288088D01*
X478880Y293129D01*
X475021Y296988D01*
X469980Y299076D01*
X467660Y299076D01*
X466928Y299213D01*
X466246Y299648D01*
X465789Y300315D01*
X465628Y301108D01*
X465628Y356617D01*
X464391Y359604D01*
X436463Y387532D01*
X436029Y388176D01*
X435868Y388968D01*
X435868Y398278D01*
X435988Y398965D01*
X436407Y399656D01*
X437063Y400129D01*
X437851Y400309D01*
X438648Y400167D01*
X439325Y399726D01*
X439777Y399056D01*
X440384Y397591D01*
X444243Y393732D01*
X449284Y391644D01*
X461201Y391644D01*
X461943Y391504D01*
X462622Y391065D01*
X494441Y359937D01*
X494891Y359277D01*
X495052Y358485D01*
X495052Y269523D01*
X496289Y266536D01*
X551276Y211549D01*
X554263Y210312D01*
X556849Y210312D01*
X557612Y210163D01*
X558286Y209717D01*
X560826Y207177D01*
X561247Y206562D01*
X561421Y205772D01*
X561272Y204977D01*
X560826Y204303D01*
X557706Y201183D01*
X557062Y200749D01*
G37*
G36*
X358933Y385909D02*
X358140Y385748D01*
X330168Y385748D01*
X329406Y385897D01*
X328732Y386343D01*
X326516Y388559D01*
X326114Y389130D01*
X325922Y389915D01*
X326051Y390713D01*
X326482Y391398D01*
X327145Y391861D01*
X327936Y392028D01*
X328730Y391873D01*
X329284Y391644D01*
X349980Y391644D01*
X355021Y393732D01*
X356703Y395414D01*
X357288Y395822D01*
X358075Y396008D01*
X358873Y395872D01*
X359554Y395437D01*
X360011Y394770D01*
X360172Y393977D01*
X360172Y387780D01*
X360035Y387048D01*
X359600Y386366D01*
X358933Y385909D01*
G37*
G36*
X383398Y58719D02*
X382685Y58565D01*
X381888Y58701D01*
X381206Y59137D01*
X380749Y59804D01*
X380588Y60596D01*
X380588Y92337D01*
X379351Y95324D01*
X348723Y125952D01*
X348289Y126596D01*
X348128Y127388D01*
X348128Y149612D01*
X348265Y150345D01*
X348700Y151026D01*
X349367Y151483D01*
X349807Y151572D01*
X355021Y153732D01*
X358880Y157591D01*
X360968Y162632D01*
X360968Y168088D01*
X358880Y173129D01*
X355021Y176988D01*
X349980Y179076D01*
X329284Y179076D01*
X324243Y176988D01*
X323478Y176223D01*
X322834Y175789D01*
X322041Y175628D01*
X317460Y175628D01*
X316728Y175765D01*
X316046Y176200D01*
X315589Y176867D01*
X315428Y177660D01*
X315428Y279340D01*
X315548Y280027D01*
X315967Y280719D01*
X316623Y281192D01*
X317411Y281372D01*
X318208Y281230D01*
X318885Y280788D01*
X319337Y280118D01*
X320384Y277591D01*
X324243Y273732D01*
X329284Y271644D01*
X349980Y271644D01*
X355021Y273732D01*
X358880Y277591D01*
X360968Y282632D01*
X360968Y288088D01*
X358880Y293129D01*
X355021Y296988D01*
X351962Y298255D01*
X351326Y298673D01*
X350869Y299340D01*
X350708Y300132D01*
X350708Y367460D01*
X350845Y368193D01*
X351280Y368874D01*
X351947Y369331D01*
X352740Y369492D01*
X369077Y369492D01*
X372064Y370729D01*
X375191Y373856D01*
X376428Y376843D01*
X376428Y391847D01*
X376559Y392564D01*
X376989Y393249D01*
X377653Y393712D01*
X378444Y393879D01*
X379238Y393724D01*
X384260Y391644D01*
X384448Y391644D01*
X385181Y391507D01*
X385862Y391072D01*
X386319Y390405D01*
X386480Y389612D01*
X386480Y301108D01*
X386343Y300376D01*
X385908Y299694D01*
X385241Y299237D01*
X384448Y299076D01*
X384260Y299076D01*
X379219Y296988D01*
X375360Y293129D01*
X373272Y288088D01*
X373272Y282632D01*
X375360Y277591D01*
X379219Y273732D01*
X384260Y271644D01*
X384448Y271644D01*
X385181Y271507D01*
X385862Y271072D01*
X386319Y270405D01*
X386480Y269612D01*
X386480Y181108D01*
X386343Y180376D01*
X385908Y179694D01*
X385241Y179237D01*
X384448Y179076D01*
X384260Y179076D01*
X379219Y176988D01*
X375360Y173129D01*
X373272Y168088D01*
X373272Y162632D01*
X375360Y157591D01*
X379219Y153732D01*
X384260Y151644D01*
X384448Y151644D01*
X385181Y151507D01*
X385862Y151072D01*
X386319Y150405D01*
X386480Y149612D01*
X386480Y61108D01*
X386343Y60376D01*
X385908Y59694D01*
X385241Y59237D01*
X384448Y59076D01*
X384260Y59076D01*
X383398Y58719D01*
G37*
G36*
X177977Y288659D02*
X177189Y288479D01*
X176392Y288621D01*
X175715Y289063D01*
X175263Y289733D01*
X173856Y293129D01*
X169997Y296988D01*
X164956Y299076D01*
X164768Y299076D01*
X164036Y299213D01*
X163354Y299648D01*
X162897Y300315D01*
X162736Y301108D01*
X162736Y389612D01*
X162873Y390345D01*
X163308Y391026D01*
X163975Y391483D01*
X164768Y391644D01*
X164956Y391644D01*
X169402Y393486D01*
X170115Y393639D01*
X170913Y393504D01*
X171594Y393068D01*
X172051Y392401D01*
X172212Y391608D01*
X172212Y370063D01*
X173449Y367076D01*
X178577Y361948D01*
X179011Y361304D01*
X179172Y360512D01*
X179172Y290511D01*
X179052Y289824D01*
X178633Y289132D01*
X177977Y288659D01*
G37*
G36*
X297977Y288659D02*
X297189Y288479D01*
X296392Y288621D01*
X295715Y289063D01*
X295263Y289733D01*
X293856Y293129D01*
X289997Y296988D01*
X284956Y299076D01*
X284768Y299076D01*
X284036Y299213D01*
X283354Y299648D01*
X282897Y300315D01*
X282736Y301108D01*
X282736Y389612D01*
X282873Y390345D01*
X283308Y391026D01*
X283975Y391483D01*
X284768Y391644D01*
X284956Y391644D01*
X288782Y393229D01*
X289495Y393382D01*
X290293Y393247D01*
X290974Y392811D01*
X291431Y392144D01*
X291592Y391352D01*
X291592Y375763D01*
X292829Y372776D01*
X298577Y367028D01*
X299011Y366384D01*
X299172Y365592D01*
X299172Y290511D01*
X299052Y289824D01*
X298633Y289132D01*
X297977Y288659D01*
G37*
G36*
X215291Y385503D02*
X214513Y385348D01*
X206108Y385348D01*
X205346Y385497D01*
X204672Y385943D01*
X204303Y386312D01*
X203869Y386956D01*
X203708Y387748D01*
X203708Y390912D01*
X203839Y391630D01*
X204269Y392315D01*
X204933Y392777D01*
X205724Y392944D01*
X206518Y392790D01*
X209284Y391644D01*
X229980Y391644D01*
X231642Y392332D01*
X232355Y392486D01*
X233153Y392351D01*
X233834Y391915D01*
X234291Y391248D01*
X234452Y390455D01*
X234452Y387380D01*
X234315Y386648D01*
X233880Y385966D01*
X233213Y385509D01*
X232420Y385348D01*
X220487Y385348D01*
X219709Y385503D01*
X219117Y385748D01*
X215883Y385748D01*
X215291Y385503D01*
G37*
G36*
X263398Y298719D02*
X262685Y298565D01*
X261888Y298701D01*
X261206Y299137D01*
X260749Y299804D01*
X260588Y300596D01*
X260588Y390124D01*
X260719Y390841D01*
X261149Y391526D01*
X261813Y391988D01*
X262604Y392156D01*
X263398Y392001D01*
X264260Y391644D01*
X264448Y391644D01*
X265181Y391507D01*
X265862Y391072D01*
X266319Y390405D01*
X266480Y389612D01*
X266480Y301108D01*
X266343Y300376D01*
X265908Y299694D01*
X265241Y299237D01*
X264448Y299076D01*
X264260Y299076D01*
X263398Y298719D01*
G37*
G36*
X143398Y298719D02*
X142685Y298565D01*
X141888Y298701D01*
X141206Y299137D01*
X140749Y299804D01*
X140588Y300596D01*
X140588Y390124D01*
X140719Y390841D01*
X141149Y391526D01*
X141813Y391988D01*
X142604Y392156D01*
X143398Y392001D01*
X144260Y391644D01*
X144448Y391644D01*
X145181Y391507D01*
X145862Y391072D01*
X146319Y390405D01*
X146480Y389612D01*
X146480Y301108D01*
X146343Y300376D01*
X145908Y299694D01*
X145241Y299237D01*
X144448Y299076D01*
X144260Y299076D01*
X143398Y298719D01*
G37*
G36*
X673804Y123249D02*
X673012Y123088D01*
X662378Y123088D01*
X661616Y123237D01*
X660942Y123683D01*
X653923Y130702D01*
X653489Y131346D01*
X653328Y132138D01*
X653328Y334077D01*
X653317Y334102D01*
X653164Y334815D01*
X653299Y335613D01*
X653735Y336294D01*
X654402Y336751D01*
X655195Y336912D01*
X688252Y336912D01*
X689014Y336763D01*
X689688Y336317D01*
X727889Y298116D01*
X728323Y297472D01*
X728484Y296680D01*
X728484Y286607D01*
X729412Y284367D01*
X731127Y282652D01*
X733367Y281724D01*
X750873Y281724D01*
X753113Y282652D01*
X754828Y284367D01*
X755756Y286607D01*
X755756Y304113D01*
X754828Y306353D01*
X753113Y308068D01*
X750873Y308996D01*
X740840Y308996D01*
X740078Y309145D01*
X739404Y309591D01*
X697064Y351931D01*
X694077Y353168D01*
X596711Y353168D01*
X595948Y353317D01*
X595274Y353763D01*
X592334Y356703D01*
X591913Y357318D01*
X591739Y358108D01*
X591888Y358903D01*
X592334Y359577D01*
X595828Y363071D01*
X597916Y368112D01*
X597916Y373568D01*
X595828Y378609D01*
X592334Y382103D01*
X591913Y382718D01*
X591739Y383508D01*
X591888Y384303D01*
X592334Y384977D01*
X594874Y387517D01*
X595518Y387951D01*
X596311Y388112D01*
X739332Y388112D01*
X740094Y387963D01*
X740768Y387517D01*
X787676Y340609D01*
X790663Y339372D01*
X853690Y339372D01*
X854423Y339235D01*
X855104Y338800D01*
X855561Y338133D01*
X855722Y337340D01*
X855722Y201928D01*
X855585Y201196D01*
X855150Y200514D01*
X854483Y200057D01*
X853690Y199896D01*
X837107Y199896D01*
X834867Y198968D01*
X833152Y197253D01*
X832998Y196882D01*
X832581Y196246D01*
X831914Y195789D01*
X831121Y195628D01*
X703039Y195628D01*
X702291Y195771D01*
X701614Y196212D01*
X701162Y196882D01*
X701008Y197253D01*
X699293Y198968D01*
X697053Y199896D01*
X679627Y199896D01*
X677387Y198968D01*
X675672Y197253D01*
X674744Y195013D01*
X674744Y179587D01*
X675162Y178578D01*
X675317Y177816D01*
X675162Y177022D01*
X674744Y176013D01*
X674744Y160587D01*
X675672Y158347D01*
X677387Y156632D01*
X679627Y155704D01*
X679840Y155704D01*
X680573Y155567D01*
X681254Y155132D01*
X681711Y154465D01*
X681872Y153672D01*
X681872Y148588D01*
X681735Y147856D01*
X681300Y147174D01*
X680633Y146717D01*
X679840Y146556D01*
X679627Y146556D01*
X677387Y145628D01*
X675672Y143913D01*
X674744Y141673D01*
X674744Y126247D01*
X674889Y125898D01*
X675043Y125185D01*
X674907Y124388D01*
X674471Y123706D01*
X673804Y123249D01*
G37*
%LPC*%
G36*
X782040Y297392D02*
X790088Y297392D01*
X790088Y305440D01*
X783528Y305440D01*
X782040Y303952D01*
X782040Y297392D01*
G37*
G36*
X794152Y297392D02*
X802200Y297392D01*
X802200Y303952D01*
X800712Y305440D01*
X794152Y305440D01*
X794152Y297392D01*
G37*
G36*
X794152Y285280D02*
X800712Y285280D01*
X802200Y286768D01*
X802200Y293328D01*
X794152Y293328D01*
X794152Y285280D01*
G37*
G36*
X783528Y285280D02*
X790088Y285280D01*
X790088Y293328D01*
X782040Y293328D01*
X782040Y286768D01*
X783528Y285280D01*
G37*
G36*
X830152Y227392D02*
X846740Y227392D01*
X846740Y242492D01*
X845252Y243980D01*
X830152Y243980D01*
X830152Y227392D01*
G37*
G36*
X687500Y227392D02*
X704088Y227392D01*
X704088Y243980D01*
X688988Y243980D01*
X687500Y242492D01*
X687500Y227392D01*
G37*
G36*
X809500Y227392D02*
X826088Y227392D01*
X826088Y243980D01*
X810988Y243980D01*
X809500Y242492D01*
X809500Y227392D01*
G37*
G36*
X708152Y227392D02*
X724740Y227392D01*
X724740Y242492D01*
X723252Y243980D01*
X708152Y243980D01*
X708152Y227392D01*
G37*
G36*
X708152Y206740D02*
X723252Y206740D01*
X724740Y208228D01*
X724740Y223328D01*
X708152Y223328D01*
X708152Y206740D01*
G37*
G36*
X688988Y206740D02*
X704088Y206740D01*
X704088Y223328D01*
X687500Y223328D01*
X687500Y208228D01*
X688988Y206740D01*
G37*
G36*
X830152Y206740D02*
X845252Y206740D01*
X846740Y208228D01*
X846740Y223328D01*
X830152Y223328D01*
X830152Y206740D01*
G37*
G36*
X810988Y206740D02*
X826088Y206740D01*
X826088Y223328D01*
X809500Y223328D01*
X809500Y208228D01*
X810988Y206740D01*
G37*
%LPD*%
G36*
X318312Y289535D02*
X317525Y289349D01*
X316728Y289485D01*
X316046Y289920D01*
X315589Y290587D01*
X315428Y291380D01*
X315428Y371752D01*
X315553Y372454D01*
X315978Y373142D01*
X316638Y373610D01*
X317428Y373783D01*
X318223Y373635D01*
X318897Y373188D01*
X321356Y370729D01*
X324343Y369492D01*
X332420Y369492D01*
X333153Y369355D01*
X333834Y368920D01*
X334291Y368253D01*
X334452Y367460D01*
X334452Y301108D01*
X334315Y300376D01*
X333880Y299694D01*
X333213Y299237D01*
X332420Y299076D01*
X329284Y299076D01*
X324243Y296988D01*
X320384Y293129D01*
X319337Y290602D01*
X318964Y290013D01*
X318312Y289535D01*
G37*
G36*
X118530Y295318D02*
X117740Y295144D01*
X116945Y295292D01*
X116270Y295739D01*
X115021Y296988D01*
X109833Y299137D01*
X109428Y299213D01*
X108746Y299648D01*
X108289Y300315D01*
X108128Y301108D01*
X108128Y357972D01*
X108277Y358734D01*
X108723Y359408D01*
X120863Y371548D01*
X121448Y371956D01*
X122235Y372143D01*
X123033Y372007D01*
X123714Y371571D01*
X124171Y370904D01*
X124332Y370112D01*
X124332Y301768D01*
X124183Y301006D01*
X123737Y300332D01*
X119144Y295739D01*
X118530Y295318D01*
G37*
G36*
X198312Y289535D02*
X197525Y289349D01*
X196728Y289485D01*
X196046Y289920D01*
X195589Y290587D01*
X195428Y291380D01*
X195428Y366337D01*
X194922Y367558D01*
X194769Y368255D01*
X194898Y369053D01*
X195329Y369738D01*
X195992Y370200D01*
X196783Y370368D01*
X197577Y370213D01*
X200283Y369092D01*
X207340Y369092D01*
X208073Y368955D01*
X208754Y368520D01*
X209211Y367853D01*
X209372Y367060D01*
X209372Y300470D01*
X209229Y299723D01*
X208788Y299045D01*
X208118Y298593D01*
X204243Y296988D01*
X200384Y293129D01*
X199337Y290602D01*
X198964Y290013D01*
X198312Y289535D01*
G37*
G36*
X243137Y288331D02*
X242349Y288151D01*
X241552Y288293D01*
X240875Y288734D01*
X240423Y289405D01*
X238880Y293129D01*
X235021Y296988D01*
X229980Y299076D01*
X227660Y299076D01*
X226928Y299213D01*
X226246Y299648D01*
X225789Y300315D01*
X225628Y301108D01*
X225628Y367060D01*
X225765Y367793D01*
X226200Y368474D01*
X226867Y368931D01*
X227660Y369092D01*
X242300Y369092D01*
X243033Y368955D01*
X243714Y368520D01*
X244171Y367853D01*
X244332Y367060D01*
X244332Y290182D01*
X244212Y289495D01*
X243793Y288804D01*
X243137Y288331D01*
G37*
G36*
X555452Y350079D02*
X554665Y349892D01*
X553868Y350028D01*
X553186Y350464D01*
X552729Y351131D01*
X552568Y351923D01*
X552568Y359840D01*
X552705Y360573D01*
X553140Y361254D01*
X553807Y361711D01*
X554600Y361872D01*
X557689Y361872D01*
X558452Y361723D01*
X559126Y361277D01*
X560826Y359577D01*
X561247Y358962D01*
X561421Y358172D01*
X561272Y357377D01*
X560826Y356703D01*
X557332Y353209D01*
X556477Y351146D01*
X556104Y350557D01*
X555452Y350079D01*
G37*
G36*
X543164Y328329D02*
X542372Y328168D01*
X540148Y328168D01*
X539386Y328317D01*
X538712Y328763D01*
X534503Y332972D01*
X534069Y333616D01*
X533908Y334408D01*
X533908Y336632D01*
X534033Y337334D01*
X534458Y338022D01*
X535118Y338490D01*
X535908Y338663D01*
X536703Y338515D01*
X537377Y338068D01*
X543808Y331637D01*
X544216Y331052D01*
X544403Y330265D01*
X544267Y329468D01*
X543831Y328786D01*
X543164Y328329D01*
G37*
G36*
X635862Y287750D02*
X635072Y287577D01*
X634277Y287725D01*
X633603Y288172D01*
X620244Y301531D01*
X617257Y302768D01*
X596311Y302768D01*
X595548Y302917D01*
X594874Y303363D01*
X592334Y305903D01*
X591913Y306518D01*
X591739Y307308D01*
X591888Y308103D01*
X592334Y308777D01*
X595828Y312271D01*
X597916Y317312D01*
X597916Y322300D01*
X598053Y323033D01*
X598488Y323714D01*
X599155Y324171D01*
X599948Y324332D01*
X635040Y324332D01*
X635773Y324195D01*
X636454Y323760D01*
X636911Y323093D01*
X637072Y322300D01*
X637072Y289608D01*
X636947Y288906D01*
X636522Y288218D01*
X635862Y287750D01*
G37*
G36*
X623242Y262670D02*
X622452Y262497D01*
X621657Y262645D01*
X620983Y263092D01*
X607944Y276131D01*
X604957Y277368D01*
X596311Y277368D01*
X595548Y277517D01*
X594874Y277963D01*
X592334Y280503D01*
X591913Y281118D01*
X591739Y281908D01*
X591888Y282703D01*
X592334Y283377D01*
X594874Y285917D01*
X595518Y286351D01*
X596311Y286512D01*
X611432Y286512D01*
X612194Y286363D01*
X612868Y285917D01*
X623857Y274928D01*
X624291Y274284D01*
X624452Y273492D01*
X624452Y264528D01*
X624327Y263826D01*
X623902Y263138D01*
X623242Y262670D01*
G37*
G36*
X230354Y260429D02*
X229562Y260268D01*
X197460Y260268D01*
X196728Y260405D01*
X196046Y260840D01*
X195589Y261507D01*
X195428Y262300D01*
X195428Y279340D01*
X195548Y280027D01*
X195967Y280719D01*
X196623Y281192D01*
X197411Y281372D01*
X198208Y281230D01*
X198885Y280788D01*
X199337Y280118D01*
X200384Y277591D01*
X204243Y273732D01*
X209284Y271644D01*
X229980Y271644D01*
X235021Y273732D01*
X238880Y277591D01*
X240423Y281315D01*
X240796Y281904D01*
X241448Y282382D01*
X242235Y282569D01*
X243033Y282433D01*
X243714Y281997D01*
X244171Y281330D01*
X244332Y280538D01*
X244332Y275038D01*
X244183Y274276D01*
X243737Y273602D01*
X230998Y260863D01*
X230354Y260429D01*
G37*
G36*
X177977Y168659D02*
X177189Y168479D01*
X176392Y168621D01*
X175715Y169063D01*
X175263Y169733D01*
X173856Y173129D01*
X169997Y176988D01*
X164956Y179076D01*
X164768Y179076D01*
X164036Y179213D01*
X163354Y179648D01*
X162897Y180315D01*
X162736Y181108D01*
X162736Y269612D01*
X162873Y270345D01*
X163308Y271026D01*
X163975Y271483D01*
X164768Y271644D01*
X164956Y271644D01*
X169997Y273732D01*
X173856Y277591D01*
X175263Y280987D01*
X175636Y281576D01*
X176288Y282054D01*
X177075Y282240D01*
X177873Y282105D01*
X178554Y281669D01*
X179011Y281002D01*
X179172Y280209D01*
X179172Y170511D01*
X179052Y169824D01*
X178633Y169132D01*
X177977Y168659D01*
G37*
G36*
X297977Y168659D02*
X297189Y168479D01*
X296392Y168621D01*
X295715Y169063D01*
X295263Y169733D01*
X293856Y173129D01*
X289997Y176988D01*
X284956Y179076D01*
X284768Y179076D01*
X284036Y179213D01*
X283354Y179648D01*
X282897Y180315D01*
X282736Y181108D01*
X282736Y269612D01*
X282873Y270345D01*
X283308Y271026D01*
X283975Y271483D01*
X284768Y271644D01*
X284956Y271644D01*
X289997Y273732D01*
X293856Y277591D01*
X295263Y280987D01*
X295636Y281576D01*
X296288Y282054D01*
X297075Y282240D01*
X297873Y282105D01*
X298554Y281669D01*
X299011Y281002D01*
X299172Y280209D01*
X299172Y170511D01*
X299052Y169824D01*
X298633Y169132D01*
X297977Y168659D01*
G37*
G36*
X13044Y168946D02*
X12257Y168760D01*
X11460Y168895D01*
X10778Y169331D01*
X10321Y169998D01*
X10160Y170791D01*
X10160Y279929D01*
X10280Y280616D01*
X10699Y281308D01*
X11355Y281781D01*
X12143Y281961D01*
X12940Y281819D01*
X13617Y281377D01*
X14069Y280707D01*
X15360Y277591D01*
X19219Y273732D01*
X24260Y271644D01*
X24448Y271644D01*
X25181Y271507D01*
X25862Y271072D01*
X26319Y270405D01*
X26480Y269612D01*
X26480Y181108D01*
X26343Y180376D01*
X25908Y179694D01*
X25241Y179237D01*
X24448Y179076D01*
X24260Y179076D01*
X19219Y176988D01*
X15360Y173129D01*
X14069Y170013D01*
X13696Y169424D01*
X13044Y168946D01*
G37*
G36*
X198998Y35669D02*
X198206Y35508D01*
X176034Y35508D01*
X175317Y35639D01*
X174632Y36069D01*
X174170Y36733D01*
X174002Y37524D01*
X174157Y38318D01*
X175944Y42632D01*
X175944Y48088D01*
X173856Y53129D01*
X169997Y56988D01*
X164956Y59076D01*
X164768Y59076D01*
X164036Y59213D01*
X163354Y59648D01*
X162897Y60315D01*
X162736Y61108D01*
X162736Y149612D01*
X162873Y150345D01*
X163308Y151026D01*
X163975Y151483D01*
X164768Y151644D01*
X164956Y151644D01*
X169997Y153732D01*
X173856Y157591D01*
X175944Y162632D01*
X175944Y163461D01*
X176064Y164148D01*
X176483Y164839D01*
X177139Y165312D01*
X177927Y165492D01*
X178724Y165350D01*
X179401Y164909D01*
X179853Y164238D01*
X180409Y162896D01*
X182696Y160609D01*
X185683Y159372D01*
X198289Y159372D01*
X199036Y159229D01*
X199714Y158788D01*
X200166Y158118D01*
X200384Y157590D01*
X204243Y153732D01*
X209284Y151644D01*
X229980Y151644D01*
X235021Y153732D01*
X238880Y157591D01*
X240968Y162632D01*
X240968Y168088D01*
X238880Y173129D01*
X235021Y176988D01*
X229980Y179076D01*
X209284Y179076D01*
X204243Y176988D01*
X203478Y176223D01*
X202834Y175789D01*
X202041Y175628D01*
X197460Y175628D01*
X196728Y175765D01*
X196046Y176200D01*
X195589Y176867D01*
X195428Y177660D01*
X195428Y241980D01*
X195565Y242713D01*
X196000Y243394D01*
X196667Y243851D01*
X197460Y244012D01*
X235387Y244012D01*
X238374Y245249D01*
X259351Y266226D01*
X260588Y269213D01*
X260588Y270124D01*
X260719Y270841D01*
X261149Y271526D01*
X261813Y271988D01*
X262604Y272156D01*
X263398Y272001D01*
X264260Y271644D01*
X264448Y271644D01*
X265181Y271507D01*
X265862Y271072D01*
X266319Y270405D01*
X266480Y269612D01*
X266480Y181108D01*
X266343Y180376D01*
X265908Y179694D01*
X265241Y179237D01*
X264448Y179076D01*
X264260Y179076D01*
X259219Y176988D01*
X255360Y173129D01*
X253272Y168088D01*
X253272Y162632D01*
X255360Y157591D01*
X259219Y153732D01*
X264260Y151644D01*
X264448Y151644D01*
X265181Y151507D01*
X265862Y151072D01*
X266319Y150405D01*
X266480Y149612D01*
X266480Y61108D01*
X266343Y60376D01*
X265908Y59694D01*
X265241Y59237D01*
X264448Y59076D01*
X264260Y59076D01*
X259219Y56988D01*
X255360Y53129D01*
X253272Y48088D01*
X253272Y42632D01*
X255059Y38318D01*
X255213Y37605D01*
X255077Y36808D01*
X254641Y36126D01*
X253974Y35669D01*
X253182Y35508D01*
X241058Y35508D01*
X240341Y35639D01*
X239656Y36069D01*
X239194Y36733D01*
X239026Y37524D01*
X239181Y38318D01*
X240968Y42632D01*
X240968Y48088D01*
X238880Y53129D01*
X235021Y56988D01*
X229980Y59076D01*
X209284Y59076D01*
X204243Y56988D01*
X200384Y53129D01*
X198296Y48088D01*
X198296Y42632D01*
X200083Y38318D01*
X200237Y37605D01*
X200101Y36808D01*
X199665Y36126D01*
X198998Y35669D01*
G37*
G36*
X610622Y245210D02*
X609832Y245037D01*
X609037Y245185D01*
X608363Y245632D01*
X603264Y250731D01*
X600277Y251968D01*
X596311Y251968D01*
X595548Y252117D01*
X594874Y252563D01*
X592334Y255103D01*
X591913Y255718D01*
X591739Y256508D01*
X591888Y257303D01*
X592334Y257977D01*
X594874Y260517D01*
X595518Y260951D01*
X596311Y261112D01*
X599132Y261112D01*
X599894Y260963D01*
X600568Y260517D01*
X611237Y249848D01*
X611671Y249204D01*
X611832Y248412D01*
X611832Y247068D01*
X611707Y246366D01*
X611282Y245678D01*
X610622Y245210D01*
G37*
G36*
X598002Y225873D02*
X597212Y225699D01*
X596417Y225848D01*
X595743Y226294D01*
X592334Y229703D01*
X591913Y230318D01*
X591739Y231108D01*
X591888Y231903D01*
X592334Y232577D01*
X593944Y234187D01*
X594559Y234608D01*
X595349Y234782D01*
X596144Y234634D01*
X596818Y234187D01*
X598617Y232388D01*
X599051Y231744D01*
X599212Y230952D01*
X599212Y227731D01*
X599087Y227029D01*
X598662Y226341D01*
X598002Y225873D01*
G37*
G36*
X412302Y56521D02*
X411512Y56347D01*
X410717Y56496D01*
X410043Y56942D01*
X409997Y56988D01*
X404956Y59076D01*
X404768Y59076D01*
X404036Y59213D01*
X403354Y59648D01*
X402897Y60315D01*
X402736Y61108D01*
X402736Y149612D01*
X402873Y150345D01*
X403308Y151026D01*
X403975Y151483D01*
X404768Y151644D01*
X404956Y151644D01*
X409997Y153732D01*
X413856Y157591D01*
X415944Y162632D01*
X415944Y168088D01*
X413856Y173129D01*
X409997Y176988D01*
X404956Y179076D01*
X404768Y179076D01*
X404036Y179213D01*
X403354Y179648D01*
X402897Y180315D01*
X402736Y181108D01*
X402736Y215900D01*
X402873Y216633D01*
X403308Y217314D01*
X403975Y217771D01*
X404768Y217932D01*
X456802Y217932D01*
X457564Y217783D01*
X458238Y217337D01*
X496478Y179097D01*
X496886Y178512D01*
X497073Y177725D01*
X496937Y176928D01*
X496501Y176246D01*
X495834Y175789D01*
X495042Y175628D01*
X477223Y175628D01*
X476460Y175777D01*
X475786Y176223D01*
X475021Y176988D01*
X469980Y179076D01*
X449284Y179076D01*
X444243Y176988D01*
X440384Y173129D01*
X438296Y168088D01*
X438296Y162632D01*
X439860Y158856D01*
X440014Y158111D01*
X439866Y157316D01*
X439419Y156642D01*
X414749Y131972D01*
X413512Y128985D01*
X413512Y58379D01*
X413387Y57677D01*
X412962Y56989D01*
X412302Y56521D01*
G37*
G36*
X598002Y200473D02*
X597212Y200299D01*
X596417Y200448D01*
X595743Y200894D01*
X592334Y204303D01*
X591913Y204918D01*
X591739Y205708D01*
X591888Y206503D01*
X592334Y207177D01*
X595743Y210586D01*
X596328Y210994D01*
X597115Y211180D01*
X597913Y211044D01*
X598594Y210609D01*
X599051Y209942D01*
X599212Y209149D01*
X599212Y202331D01*
X599087Y201629D01*
X598662Y200941D01*
X598002Y200473D01*
G37*
G36*
X830985Y160789D02*
X830192Y160628D01*
X806395Y160628D01*
X805632Y160777D01*
X804958Y161223D01*
X803113Y163068D01*
X800873Y163996D01*
X790160Y163996D01*
X789428Y164133D01*
X788746Y164568D01*
X788289Y165235D01*
X788128Y166028D01*
X788128Y177340D01*
X788265Y178073D01*
X788700Y178754D01*
X789367Y179211D01*
X790160Y179372D01*
X830574Y179372D01*
X831292Y179241D01*
X831976Y178811D01*
X832439Y178147D01*
X832606Y177356D01*
X832452Y176562D01*
X832224Y176013D01*
X832224Y162660D01*
X832087Y161928D01*
X831652Y161246D01*
X830985Y160789D01*
G37*
G36*
X562352Y50189D02*
X561559Y50028D01*
X544440Y50028D01*
X543708Y50165D01*
X543026Y50600D01*
X542569Y51267D01*
X542408Y52060D01*
X542408Y89217D01*
X542577Y90029D01*
X543042Y90692D01*
X558373Y105232D01*
X558949Y105616D01*
X559739Y105790D01*
X560534Y105641D01*
X561167Y105222D01*
X563893Y104093D01*
X564494Y103708D01*
X564967Y103053D01*
X565147Y102264D01*
X565005Y101468D01*
X564563Y100790D01*
X563893Y100338D01*
X563205Y100053D01*
X560347Y97195D01*
X558805Y93472D01*
X594355Y93472D01*
X592813Y97195D01*
X589955Y100053D01*
X589267Y100338D01*
X588666Y100723D01*
X588193Y101378D01*
X588013Y102167D01*
X588155Y102963D01*
X588597Y103641D01*
X589267Y104093D01*
X591969Y105212D01*
X595828Y109071D01*
X597916Y114112D01*
X597916Y119880D01*
X598053Y120613D01*
X598488Y121294D01*
X599155Y121751D01*
X599948Y121912D01*
X634197Y121912D01*
X636850Y123011D01*
X637595Y123166D01*
X638390Y123017D01*
X639065Y122571D01*
X653566Y108069D01*
X656553Y106832D01*
X673558Y106832D01*
X674306Y106689D01*
X674984Y106248D01*
X675436Y105578D01*
X675672Y105007D01*
X677387Y103292D01*
X679627Y102364D01*
X697053Y102364D01*
X699293Y103292D01*
X701008Y105007D01*
X701228Y105538D01*
X701646Y106174D01*
X702313Y106631D01*
X703105Y106792D01*
X710107Y106792D01*
X710855Y106649D01*
X711533Y106208D01*
X711985Y105538D01*
X712892Y103347D01*
X714607Y101632D01*
X716847Y100704D01*
X732273Y100704D01*
X734513Y101632D01*
X736469Y103588D01*
X736504Y103642D01*
X737171Y104099D01*
X737964Y104260D01*
X741528Y104260D01*
X741528Y124340D01*
X737964Y124340D01*
X737216Y124483D01*
X736538Y124924D01*
X736500Y124982D01*
X734513Y126968D01*
X732273Y127896D01*
X716847Y127896D01*
X714607Y126968D01*
X712892Y125253D01*
X712498Y124302D01*
X712081Y123666D01*
X711414Y123209D01*
X710621Y123048D01*
X703652Y123048D01*
X702934Y123179D01*
X702250Y123609D01*
X701787Y124273D01*
X701620Y125064D01*
X701775Y125858D01*
X701936Y126247D01*
X701936Y141774D01*
X701828Y142275D01*
X701964Y143073D01*
X702399Y143754D01*
X703066Y144211D01*
X703859Y144372D01*
X726452Y144372D01*
X727185Y144235D01*
X727866Y143800D01*
X728323Y143133D01*
X728484Y142340D01*
X728484Y141607D01*
X729412Y139367D01*
X731127Y137652D01*
X733367Y136724D01*
X750873Y136724D01*
X753113Y137652D01*
X754828Y139367D01*
X755015Y139819D01*
X755411Y140432D01*
X756070Y140900D01*
X756860Y141073D01*
X757655Y140925D01*
X758329Y140478D01*
X758528Y140280D01*
X765088Y140280D01*
X765088Y160440D01*
X758528Y160440D01*
X758329Y160242D01*
X757730Y159827D01*
X756941Y159647D01*
X756145Y159789D01*
X755467Y160230D01*
X755015Y160901D01*
X754828Y161353D01*
X753113Y163068D01*
X750873Y163996D01*
X733367Y163996D01*
X731127Y163068D01*
X729282Y161223D01*
X728638Y160789D01*
X727845Y160628D01*
X703968Y160628D01*
X703236Y160765D01*
X702554Y161200D01*
X702097Y161867D01*
X701936Y162660D01*
X701936Y176013D01*
X701708Y176562D01*
X701555Y177275D01*
X701690Y178073D01*
X702126Y178754D01*
X702793Y179211D01*
X703586Y179372D01*
X769840Y179372D01*
X770573Y179235D01*
X771254Y178800D01*
X771711Y178133D01*
X771872Y177340D01*
X771872Y162472D01*
X771735Y161740D01*
X771300Y161058D01*
X770633Y160601D01*
X769840Y160440D01*
X769152Y160440D01*
X769152Y140280D01*
X769840Y140280D01*
X770573Y140143D01*
X771254Y139708D01*
X771711Y139041D01*
X771872Y138248D01*
X771872Y135803D01*
X773109Y132816D01*
X777896Y128029D01*
X781102Y126702D01*
X781296Y126667D01*
X781985Y126242D01*
X782452Y125582D01*
X782626Y124792D01*
X782478Y123997D01*
X782031Y123323D01*
X781560Y122852D01*
X781560Y116332D01*
X792632Y116332D01*
X792632Y104260D01*
X796196Y104260D01*
X796944Y104117D01*
X797622Y103676D01*
X797660Y103619D01*
X799647Y101632D01*
X801887Y100704D01*
X809566Y100704D01*
X810283Y100573D01*
X810968Y100143D01*
X811431Y99479D01*
X811598Y98688D01*
X811443Y97894D01*
X809364Y92874D01*
X809364Y88910D01*
X809215Y88148D01*
X808769Y87474D01*
X771918Y50623D01*
X771274Y50189D01*
X770482Y50028D01*
X591601Y50028D01*
X590914Y50148D01*
X590222Y50567D01*
X589749Y51223D01*
X589569Y52011D01*
X589711Y52808D01*
X590153Y53485D01*
X590823Y53937D01*
X591969Y54412D01*
X595828Y58271D01*
X597916Y63312D01*
X597916Y68768D01*
X595828Y73809D01*
X591969Y77668D01*
X589267Y78787D01*
X588666Y79172D01*
X588193Y79827D01*
X588013Y80616D01*
X588155Y81412D01*
X588597Y82090D01*
X589267Y82542D01*
X589955Y82827D01*
X592813Y85685D01*
X594355Y89408D01*
X558805Y89408D01*
X560347Y85685D01*
X563205Y82827D01*
X563893Y82542D01*
X564494Y82157D01*
X564967Y81502D01*
X565147Y80713D01*
X565005Y79917D01*
X564563Y79239D01*
X563893Y78787D01*
X561191Y77668D01*
X557332Y73809D01*
X555244Y68768D01*
X555244Y63312D01*
X557332Y58271D01*
X561191Y54412D01*
X562337Y53937D01*
X562926Y53564D01*
X563404Y52912D01*
X563590Y52125D01*
X563455Y51328D01*
X563019Y50646D01*
X562352Y50189D01*
G37*
%LPC*%
G36*
X745592Y116332D02*
X752600Y116332D01*
X752600Y122852D01*
X751112Y124340D01*
X745592Y124340D01*
X745592Y116332D01*
G37*
G36*
X783048Y104260D02*
X788568Y104260D01*
X788568Y112268D01*
X781560Y112268D01*
X781560Y105748D01*
X783048Y104260D01*
G37*
G36*
X745592Y104260D02*
X751112Y104260D01*
X752600Y105748D01*
X752600Y112268D01*
X745592Y112268D01*
X745592Y104260D01*
G37*
%LPD*%
G36*
X610593Y163329D02*
X609800Y163168D01*
X599948Y163168D01*
X599216Y163305D01*
X598534Y163740D01*
X598077Y164407D01*
X597916Y165200D01*
X597916Y169800D01*
X598053Y170533D01*
X598488Y171214D01*
X599155Y171671D01*
X599948Y171832D01*
X608957Y171832D01*
X609022Y171859D01*
X609735Y172013D01*
X610533Y171877D01*
X611214Y171441D01*
X611671Y170774D01*
X611832Y169982D01*
X611832Y165200D01*
X611695Y164468D01*
X611260Y163786D01*
X610593Y163329D01*
G37*
G36*
X363093Y73409D02*
X362300Y73248D01*
X284768Y73248D01*
X284036Y73385D01*
X283354Y73820D01*
X282897Y74487D01*
X282736Y75280D01*
X282736Y149612D01*
X282873Y150345D01*
X283308Y151026D01*
X283975Y151483D01*
X284768Y151644D01*
X284956Y151644D01*
X289997Y153732D01*
X293856Y157591D01*
X295944Y162632D01*
X295944Y163461D01*
X296064Y164148D01*
X296483Y164839D01*
X297139Y165312D01*
X297927Y165492D01*
X298724Y165350D01*
X299401Y164909D01*
X299853Y164238D01*
X300409Y162896D01*
X302696Y160609D01*
X305683Y159372D01*
X318289Y159372D01*
X319036Y159229D01*
X319714Y158788D01*
X320166Y158118D01*
X320384Y157590D01*
X324243Y153732D01*
X329284Y151644D01*
X329840Y151644D01*
X330573Y151507D01*
X331254Y151072D01*
X331711Y150405D01*
X331872Y149612D01*
X331872Y121563D01*
X333109Y118576D01*
X363737Y87948D01*
X364171Y87304D01*
X364332Y86512D01*
X364332Y75280D01*
X364195Y74548D01*
X363760Y73866D01*
X363093Y73409D01*
G37*
G36*
X13044Y48946D02*
X12257Y48760D01*
X11460Y48895D01*
X10778Y49331D01*
X10321Y49998D01*
X10160Y50791D01*
X10160Y159929D01*
X10280Y160616D01*
X10699Y161308D01*
X11355Y161781D01*
X12143Y161961D01*
X12940Y161819D01*
X13617Y161377D01*
X14069Y160707D01*
X15360Y157591D01*
X19219Y153732D01*
X24260Y151644D01*
X24448Y151644D01*
X25181Y151507D01*
X25862Y151072D01*
X26319Y150405D01*
X26480Y149612D01*
X26480Y61108D01*
X26343Y60376D01*
X25908Y59694D01*
X25241Y59237D01*
X24448Y59076D01*
X24260Y59076D01*
X19219Y56988D01*
X15360Y53129D01*
X14069Y50013D01*
X13696Y49424D01*
X13044Y48946D01*
G37*
G36*
X432652Y99844D02*
X431865Y99657D01*
X431068Y99793D01*
X430386Y100229D01*
X429929Y100896D01*
X429768Y101688D01*
X429768Y123160D01*
X429917Y123922D01*
X430363Y124596D01*
X456816Y151049D01*
X457460Y151483D01*
X458252Y151644D01*
X469980Y151644D01*
X475021Y153732D01*
X478880Y157590D01*
X479098Y158118D01*
X479516Y158754D01*
X480183Y159211D01*
X480976Y159372D01*
X487452Y159372D01*
X488154Y159247D01*
X488842Y158822D01*
X489310Y158162D01*
X489483Y157372D01*
X489335Y156577D01*
X488888Y155903D01*
X433237Y100252D01*
X432652Y99844D01*
G37*
G36*
X623213Y138329D02*
X622420Y138168D01*
X599948Y138168D01*
X599216Y138305D01*
X598534Y138740D01*
X598077Y139407D01*
X597916Y140200D01*
X597916Y144880D01*
X598053Y145613D01*
X598488Y146294D01*
X599155Y146751D01*
X599948Y146912D01*
X621577Y146912D01*
X621642Y146939D01*
X622355Y147093D01*
X623153Y146957D01*
X623834Y146521D01*
X624291Y145854D01*
X624452Y145062D01*
X624452Y140200D01*
X624315Y139468D01*
X623880Y138786D01*
X623213Y138329D01*
G37*
G36*
X445278Y57417D02*
X444565Y57263D01*
X443768Y57399D01*
X443086Y57834D01*
X442629Y58501D01*
X442468Y59294D01*
X442468Y85652D01*
X442617Y86414D01*
X443063Y87088D01*
X502292Y146317D01*
X502936Y146751D01*
X503728Y146912D01*
X512532Y146912D01*
X513234Y146787D01*
X513922Y146362D01*
X514390Y145702D01*
X514563Y144912D01*
X514415Y144117D01*
X513968Y143443D01*
X452741Y82216D01*
X451504Y79229D01*
X451504Y61108D01*
X451367Y60376D01*
X450932Y59694D01*
X450265Y59237D01*
X449472Y59076D01*
X449284Y59076D01*
X445278Y57417D01*
G37*
G36*
X483437Y47607D02*
X482649Y47427D01*
X481852Y47569D01*
X481175Y48010D01*
X480723Y48681D01*
X478880Y53129D01*
X475021Y56988D01*
X469980Y59076D01*
X469792Y59076D01*
X469060Y59213D01*
X468378Y59648D01*
X467921Y60315D01*
X467760Y61108D01*
X467760Y73404D01*
X467909Y74166D01*
X468355Y74840D01*
X527452Y133937D01*
X528096Y134371D01*
X528888Y134532D01*
X534692Y134532D01*
X535394Y134407D01*
X536082Y133982D01*
X536550Y133322D01*
X536723Y132532D01*
X536575Y131737D01*
X536128Y131063D01*
X485869Y80804D01*
X484632Y77817D01*
X484632Y49458D01*
X484512Y48771D01*
X484093Y48080D01*
X483437Y47607D01*
G37*
G36*
X868601Y10321D02*
X867808Y10160D01*
X501442Y10160D01*
X500725Y10291D01*
X500040Y10721D01*
X499578Y11385D01*
X499411Y12176D01*
X499565Y12970D01*
X500888Y16163D01*
X500888Y71992D01*
X501037Y72754D01*
X501483Y73428D01*
X522669Y94614D01*
X523303Y95044D01*
X524095Y95209D01*
X524888Y95053D01*
X525558Y94599D01*
X525997Y93920D01*
X526137Y93124D01*
X526106Y91951D01*
X526152Y91702D01*
X526152Y40283D01*
X527389Y37296D01*
X529676Y35009D01*
X532663Y33772D01*
X776307Y33772D01*
X779294Y35009D01*
X818271Y73986D01*
X818856Y74394D01*
X819643Y74581D01*
X820441Y74445D01*
X821122Y74009D01*
X821579Y73342D01*
X821740Y72550D01*
X821740Y65990D01*
X824809Y58580D01*
X830480Y52909D01*
X837890Y49840D01*
X845910Y49840D01*
X853320Y52909D01*
X858991Y58580D01*
X862060Y65990D01*
X862060Y74010D01*
X858991Y81420D01*
X853320Y87091D01*
X845910Y90160D01*
X838588Y90160D01*
X837856Y90297D01*
X837174Y90732D01*
X836717Y91399D01*
X836556Y92192D01*
X836556Y92874D01*
X834486Y97872D01*
X834355Y98003D01*
X833954Y98573D01*
X833761Y99359D01*
X833891Y100157D01*
X834321Y100842D01*
X834984Y101304D01*
X835776Y101471D01*
X836569Y101317D01*
X837107Y101094D01*
X854533Y101094D01*
X856773Y102022D01*
X858488Y103737D01*
X859153Y105343D01*
X859582Y105991D01*
X860253Y106443D01*
X861114Y106799D01*
X866371Y112056D01*
X866956Y112464D01*
X867743Y112651D01*
X868541Y112515D01*
X869222Y112079D01*
X869679Y111412D01*
X869840Y110620D01*
X869840Y12192D01*
X869703Y11460D01*
X869268Y10778D01*
X868601Y10321D01*
G37*
G36*
X831741Y101918D02*
X830950Y101751D01*
X830156Y101906D01*
X829294Y102263D01*
X828705Y102636D01*
X828227Y103288D01*
X828040Y104075D01*
X828176Y104873D01*
X828612Y105554D01*
X829279Y106011D01*
X830071Y106172D01*
X830786Y106172D01*
X831533Y106030D01*
X832211Y105588D01*
X832663Y104918D01*
X832811Y104561D01*
X832964Y103864D01*
X832835Y103066D01*
X832404Y102381D01*
X831741Y101918D01*
G37*
G36*
X133974Y35669D02*
X133182Y35508D01*
X121828Y35508D01*
X121066Y35657D01*
X120392Y36103D01*
X119847Y36648D01*
X119419Y37277D01*
X119252Y38068D01*
X119407Y38862D01*
X120968Y42632D01*
X120968Y48088D01*
X118880Y53129D01*
X115021Y56988D01*
X109980Y59076D01*
X89284Y59076D01*
X84243Y56988D01*
X80384Y53129D01*
X79337Y50602D01*
X78964Y50013D01*
X78312Y49535D01*
X77525Y49349D01*
X76728Y49485D01*
X76046Y49920D01*
X75589Y50587D01*
X75428Y51380D01*
X75428Y67660D01*
X75565Y68393D01*
X76000Y69074D01*
X76667Y69531D01*
X77460Y69692D01*
X144448Y69692D01*
X145181Y69555D01*
X145862Y69120D01*
X146319Y68453D01*
X146480Y67660D01*
X146480Y61108D01*
X146343Y60376D01*
X145908Y59694D01*
X145241Y59237D01*
X144448Y59076D01*
X144260Y59076D01*
X139219Y56988D01*
X135360Y53129D01*
X133272Y48088D01*
X133272Y42632D01*
X135059Y38318D01*
X135213Y37605D01*
X135077Y36808D01*
X134641Y36126D01*
X133974Y35669D01*
G37*
G36*
X318998Y35669D02*
X318206Y35508D01*
X296034Y35508D01*
X295317Y35639D01*
X294632Y36069D01*
X294170Y36733D01*
X294002Y37524D01*
X294157Y38318D01*
X295944Y42632D01*
X295944Y48088D01*
X293856Y53129D01*
X293462Y53523D01*
X293054Y54108D01*
X292868Y54895D01*
X293004Y55693D01*
X293439Y56374D01*
X294106Y56831D01*
X294899Y56992D01*
X319341Y56992D01*
X320043Y56867D01*
X320731Y56442D01*
X321199Y55782D01*
X321373Y54992D01*
X321224Y54197D01*
X320778Y53523D01*
X320384Y53129D01*
X318296Y48088D01*
X318296Y42632D01*
X320083Y38318D01*
X320237Y37605D01*
X320101Y36808D01*
X319665Y36126D01*
X318998Y35669D01*
G37*
G36*
X481404Y18129D02*
X480612Y17968D01*
X464648Y17968D01*
X463946Y18093D01*
X463258Y18518D01*
X462790Y19178D01*
X462617Y19968D01*
X462765Y20763D01*
X463212Y21437D01*
X466523Y24748D01*
X467760Y27735D01*
X467760Y29612D01*
X467897Y30345D01*
X468332Y31026D01*
X468999Y31483D01*
X469792Y31644D01*
X469980Y31644D01*
X475021Y33732D01*
X478880Y37591D01*
X480723Y42039D01*
X481096Y42628D01*
X481748Y43107D01*
X482535Y43293D01*
X483333Y43157D01*
X484014Y42721D01*
X484471Y42054D01*
X484632Y41262D01*
X484632Y21988D01*
X484483Y21226D01*
X484037Y20552D01*
X482048Y18563D01*
X481404Y18129D01*
G37*
G36*
X66252Y10321D02*
X65460Y10160D01*
X12192Y10160D01*
X11460Y10297D01*
X10778Y10732D01*
X10321Y11399D01*
X10160Y12192D01*
X10160Y39929D01*
X10280Y40616D01*
X10699Y41308D01*
X11355Y41781D01*
X12143Y41961D01*
X12940Y41819D01*
X13617Y41377D01*
X14069Y40707D01*
X15360Y37591D01*
X19219Y33732D01*
X24260Y31644D01*
X44956Y31644D01*
X49997Y33732D01*
X53856Y37591D01*
X55263Y40987D01*
X55636Y41576D01*
X56288Y42054D01*
X57075Y42240D01*
X57873Y42105D01*
X58554Y41669D01*
X59011Y41002D01*
X59172Y40209D01*
X59172Y23103D01*
X60409Y20116D01*
X66896Y13629D01*
X67304Y13044D01*
X67491Y12257D01*
X67355Y11460D01*
X66919Y10778D01*
X66252Y10321D01*
G37*
G36*
X111424Y18129D02*
X110632Y17968D01*
X86388Y17968D01*
X85626Y18117D01*
X84952Y18563D01*
X76023Y27492D01*
X75589Y28136D01*
X75428Y28928D01*
X75428Y39340D01*
X75548Y40027D01*
X75967Y40719D01*
X76623Y41192D01*
X77411Y41372D01*
X78208Y41230D01*
X78885Y40788D01*
X79337Y40118D01*
X80384Y37591D01*
X84243Y33732D01*
X89284Y31644D01*
X101020Y31644D01*
X101782Y31495D01*
X102456Y31049D01*
X112068Y21437D01*
X112476Y20852D01*
X112663Y20065D01*
X112527Y19268D01*
X112091Y18586D01*
X111424Y18129D01*
G37*
G36*
X445352Y26744D02*
X444565Y26557D01*
X443768Y26693D01*
X443086Y27129D01*
X442629Y27796D01*
X442468Y28588D01*
X442468Y31426D01*
X442599Y32143D01*
X443029Y32828D01*
X443693Y33291D01*
X444484Y33458D01*
X445278Y33303D01*
X447284Y32472D01*
X447897Y32077D01*
X448365Y31417D01*
X448538Y30627D01*
X448390Y29832D01*
X447943Y29158D01*
X445937Y27152D01*
X445352Y26744D01*
G37*
G36*
X335713Y18129D02*
X334920Y17968D01*
X329408Y17968D01*
X328706Y18093D01*
X328018Y18518D01*
X327550Y19178D01*
X327377Y19968D01*
X327525Y20763D01*
X327972Y21437D01*
X333483Y26948D01*
X334068Y27356D01*
X334855Y27543D01*
X335653Y27407D01*
X336334Y26971D01*
X336791Y26304D01*
X336952Y25512D01*
X336952Y20000D01*
X336815Y19268D01*
X336380Y18586D01*
X335713Y18129D01*
G37*
D10*
X568960Y396240D02*
X584200Y396240D01*
X584200Y370840D02*
X568960Y370840D01*
X568960Y345440D02*
X584200Y345440D01*
X584200Y320040D02*
X568960Y320040D01*
X568960Y294640D02*
X584200Y294640D01*
X584200Y269240D02*
X568960Y269240D01*
X568960Y243840D02*
X584200Y243840D01*
X584200Y218440D02*
X568960Y218440D01*
X568960Y193040D02*
X584200Y193040D01*
X584200Y167640D02*
X568960Y167640D01*
X568960Y142240D02*
X584200Y142240D01*
X584200Y116840D02*
X568960Y116840D01*
X568960Y91440D02*
X584200Y91440D01*
X584200Y66040D02*
X568960Y66040D01*
D11*
X742120Y150360D03*
X767120Y150360D03*
X792120Y150360D03*
X742120Y295360D03*
X792120Y295360D03*
D12*
X706120Y225360D03*
X828120Y225360D03*
D10*
X42228Y405360D02*
X26988Y405360D01*
X92012Y405360D02*
X107252Y405360D01*
X146988Y405360D02*
X162228Y405360D01*
X212012Y405360D02*
X227252Y405360D01*
X266988Y405360D02*
X282228Y405360D01*
X332012Y405360D02*
X347252Y405360D01*
X386988Y405360D02*
X402228Y405360D01*
X452012Y405360D02*
X467252Y405360D01*
X42228Y285360D02*
X26988Y285360D01*
X92012Y285360D02*
X107252Y285360D01*
X146988Y285360D02*
X162228Y285360D01*
X212012Y285360D02*
X227252Y285360D01*
X266988Y285360D02*
X282228Y285360D01*
X332012Y285360D02*
X347252Y285360D01*
X386988Y285360D02*
X402228Y285360D01*
X452012Y285360D02*
X467252Y285360D01*
X42228Y165360D02*
X26988Y165360D01*
X92012Y165360D02*
X107252Y165360D01*
X146988Y165360D02*
X162228Y165360D01*
X212012Y165360D02*
X227252Y165360D01*
X266988Y165360D02*
X282228Y165360D01*
X332012Y165360D02*
X347252Y165360D01*
X386988Y165360D02*
X402228Y165360D01*
X452012Y165360D02*
X467252Y165360D01*
X42228Y45360D02*
X26988Y45360D01*
X92012Y45360D02*
X107252Y45360D01*
X146988Y45360D02*
X162228Y45360D01*
X212012Y45360D02*
X227252Y45360D01*
X266988Y45360D02*
X282228Y45360D01*
X332012Y45360D02*
X347252Y45360D01*
X386988Y45360D02*
X402228Y45360D01*
X452012Y45360D02*
X467252Y45360D01*
D13*
X688340Y114960D03*
X688340Y133960D03*
X688340Y168300D03*
X688340Y187300D03*
X845820Y168300D03*
X845820Y187300D03*
X845820Y132690D03*
X845820Y113690D03*
D14*
X724560Y114300D03*
X743560Y114300D03*
X809600Y114300D03*
X790600Y114300D03*
D15*
X790000Y114920D02*
X767500Y114920D01*
X745000Y114920D01*
X743560Y114300D01*
X790000Y114920D02*
X790600Y114300D01*
X767500Y114920D02*
X767500Y150000D01*
D16*
X767120Y150360D01*
D17*
X662940Y91440D03*
X662940Y142240D03*
D15*
X662260Y142920D01*
X34608Y285360D02*
X34608Y405360D01*
X34608Y285360D02*
X34608Y165360D01*
X34608Y45360D01*
X535940Y320040D02*
X576580Y320040D01*
X535940Y320040D02*
X525780Y330200D01*
X525780Y415060D01*
X493140Y447700D01*
X59960Y447700D01*
X34608Y422348D01*
X34608Y405360D01*
X154608Y405360D02*
X154608Y285360D01*
X154608Y165360D01*
X154608Y77820D01*
X615640Y294640D02*
X632580Y277700D01*
X615640Y294640D02*
X576580Y294640D01*
X632580Y277700D02*
X632580Y130040D01*
X546600Y130040D01*
X82180Y9840D02*
X67300Y24720D01*
X67300Y77820D01*
X154608Y77820D01*
X82180Y9840D02*
X484820Y9840D01*
X492760Y17780D01*
X492760Y76200D01*
X546600Y130040D01*
X154608Y77820D02*
X154608Y45360D01*
X274608Y285360D02*
X274608Y405360D01*
X274608Y285360D02*
X274608Y165360D01*
X274608Y65120D01*
X274608Y45360D01*
X603340Y269240D02*
X619960Y252620D01*
X603340Y269240D02*
X576580Y269240D01*
X619960Y252620D02*
X619960Y155040D01*
X499520Y155040D01*
X362580Y65120D02*
X362580Y24920D01*
X362580Y65120D02*
X274608Y65120D01*
X434340Y89860D02*
X434340Y25400D01*
X433860Y24920D01*
X362580Y24920D01*
X434340Y89860D02*
X499520Y155040D01*
X394608Y285360D02*
X394608Y405360D01*
X394608Y285360D02*
X394608Y226060D01*
X394608Y165360D01*
X394608Y45360D01*
X598660Y243840D02*
X607340Y235160D01*
X598660Y243840D02*
X576580Y243840D01*
X607340Y235160D02*
X607340Y179960D01*
X461010Y226060D02*
X394608Y226060D01*
X507110Y179960D02*
X607340Y179960D01*
X507110Y179960D02*
X461010Y226060D01*
X99632Y405360D02*
X99632Y427292D01*
X110490Y438150D01*
X199390Y438150D01*
X219632Y417908D01*
X219632Y405360D01*
X219632Y418060D02*
X239722Y438150D01*
X219632Y418060D02*
X219632Y405360D01*
X319542Y438150D02*
X339632Y418060D01*
X339632Y405360D01*
X319542Y438150D02*
X239722Y438150D01*
X339632Y418372D02*
X339632Y405360D01*
X339632Y418372D02*
X356870Y435610D01*
X440690Y435610D01*
X459632Y416668D01*
X459632Y405360D01*
X503180Y271140D02*
X555880Y218440D01*
X503180Y271140D02*
X503180Y362759D01*
X555880Y218440D02*
X576580Y218440D01*
X503180Y362759D02*
X459632Y405360D01*
D16*
X576580Y193040D02*
X576000Y192460D01*
D15*
X542380Y192460D01*
X459632Y275201D01*
X459632Y285360D01*
X100000Y287500D02*
X100000Y362180D01*
X122380Y384560D01*
X122380Y428850D01*
D16*
X217500Y377620D02*
X217900Y377220D01*
D15*
X217500Y377620D02*
X217500Y287500D01*
D16*
X100000Y287500D02*
X99632Y285360D01*
X217500Y287500D02*
X219632Y285360D01*
D15*
X339632Y285360D02*
X342580Y288308D01*
X342580Y377620D01*
X242580Y377220D02*
X242580Y428850D01*
X242580Y377220D02*
X217900Y377220D01*
X457500Y355000D02*
X457500Y287500D01*
X457500Y355000D02*
X427740Y384760D01*
X427740Y422580D01*
X457500Y287500D02*
X459632Y285360D01*
X368300Y416560D02*
X374320Y422580D01*
X368300Y416560D02*
X368300Y378460D01*
X367460Y377620D01*
X342580Y377620D01*
X374320Y422580D02*
X427740Y422580D01*
X314960Y421640D02*
X314960Y388620D01*
X325960Y377620D01*
X342580Y377620D01*
X307750Y428850D02*
X242580Y428850D01*
X307750Y428850D02*
X314960Y421640D01*
X195580Y419100D02*
X195580Y383540D01*
X201900Y377220D01*
X217900Y377220D01*
X185830Y428850D02*
X122380Y428850D01*
X185830Y428850D02*
X195580Y419100D01*
X100000Y239640D02*
X100000Y167500D01*
X187300Y167500D02*
X187300Y252140D01*
X187300Y364720D01*
X187300Y167500D02*
X217500Y167500D01*
D16*
X100000Y167500D02*
X99632Y165360D01*
X217500Y167500D02*
X219632Y165360D01*
D15*
X340000Y165000D02*
X340000Y123180D01*
X372460Y90720D01*
X372460Y32460D01*
X421640Y32460D01*
D16*
X340000Y165000D02*
X339632Y165360D01*
D15*
X460000Y167500D02*
X574640Y167500D01*
D16*
X576580Y167640D01*
D15*
X460000Y167500D02*
X459632Y165360D01*
X233770Y252140D02*
X187300Y252140D01*
X233770Y252140D02*
X252460Y270830D01*
X252460Y420040D01*
X307300Y369800D02*
X307300Y167500D01*
X337500Y167500D01*
D16*
X339632Y165360D01*
D15*
X124460Y264100D02*
X124460Y289560D01*
X124460Y264100D02*
X100000Y239640D01*
X132460Y297560D02*
X132460Y417500D01*
X132460Y297560D02*
X124460Y289560D01*
X421640Y127368D02*
X459632Y165360D01*
X421640Y127368D02*
X421640Y32460D01*
X299720Y411480D02*
X291160Y420040D01*
X252460Y420040D01*
X299720Y377380D02*
X307300Y369800D01*
X299720Y377380D02*
X299720Y411480D01*
X176860Y417500D02*
X132460Y417500D01*
X176860Y417500D02*
X180340Y414020D01*
X180340Y371680D02*
X187300Y364720D01*
X180340Y371680D02*
X180340Y414020D01*
X100000Y45000D02*
X117620Y27380D01*
X212580Y27380D01*
X219632Y34432D02*
X219632Y45360D01*
X219632Y34432D02*
X212580Y27380D01*
D16*
X100000Y45000D02*
X99632Y45360D01*
X339632Y45360D02*
X339632Y44592D01*
D15*
X322420Y27380D01*
X212580Y27380D01*
X459632Y29352D02*
X459632Y45360D01*
X459632Y29352D02*
X447660Y17380D01*
X345080Y17380D01*
X345080Y40030D01*
X339632Y45360D01*
D16*
X576160Y142660D02*
X576580Y142240D01*
D15*
X576160Y142660D02*
X524680Y142660D01*
X459632Y77612D01*
X459632Y45360D01*
X740000Y297500D02*
X692460Y345040D01*
X577089Y345040D01*
D16*
X740000Y297500D02*
X742120Y295360D01*
X577089Y345040D02*
X576580Y345440D01*
D15*
X780000Y187500D02*
X845000Y187500D01*
X780000Y187500D02*
X690000Y187500D01*
D16*
X688340Y187300D01*
X845000Y187500D02*
X845820Y187300D01*
D15*
X534280Y93584D02*
X534280Y41900D01*
X774690Y41900D01*
X822960Y90170D01*
X782500Y134920D02*
X780000Y137420D01*
X780000Y187500D01*
X576580Y116840D02*
X558800Y116840D01*
X534280Y93584D01*
D17*
X822960Y134620D03*
X822960Y90170D03*
D15*
X822960Y134620D02*
X822660Y134920D01*
X782500Y134920D01*
X690000Y152500D02*
X690000Y167500D01*
X690000Y152500D02*
X690000Y134880D01*
D16*
X688340Y133960D01*
X690000Y167500D02*
X688340Y168300D01*
D15*
X690000Y152500D02*
X740000Y152500D01*
X742120Y150360D01*
X847500Y152500D02*
X847500Y167500D01*
X847500Y152500D02*
X847500Y133610D01*
D16*
X845820Y132690D01*
X847500Y167500D02*
X845820Y168300D01*
D15*
X847500Y152500D02*
X792500Y152500D01*
D16*
X792120Y150360D01*
D15*
X809600Y114300D02*
X845210Y114300D01*
X845820Y113690D01*
X856510Y113690D02*
X863850Y121030D01*
X856510Y113690D02*
X845820Y113690D01*
X863850Y121030D02*
X863850Y347500D01*
X792280Y347500D01*
X743540Y396240D01*
X576580Y396240D01*
X688380Y114920D02*
X722500Y114920D01*
X688380Y114920D02*
X688340Y114960D01*
X722500Y114920D02*
X724560Y114300D01*
X688340Y114960D02*
X658170Y114960D01*
X645200Y127930D01*
X645200Y332460D01*
X554480Y332460D01*
X544440Y342500D01*
X544440Y370000D01*
X574640Y370000D01*
D16*
X576580Y370840D01*
D18*
X0Y0D02*
X880000Y0D01*
X880000Y460000D01*
X0Y460000D01*
X0Y0D01*
M02*
