G04 EAGLE Gerber RS-274X export*
G75*
%MOMM*%
%FSLAX34Y34*%
%LPD*%
%INSoldermask Top*%
%IPPOS*%
%AMOC8*
5,1,8,0,0,1.08239X$1,22.5*%
G01*
%ADD10C,2.203200*%
%ADD11C,1.727200*%
%ADD12R,1.711200X1.711200*%
%ADD13R,3.419200X3.419200*%
%ADD14C,1.703200*%


D10*
X71900Y110000D03*
X71900Y350000D03*
X841900Y370000D03*
X841900Y70000D03*
D11*
X584200Y396240D02*
X568960Y396240D01*
X568960Y370840D02*
X584200Y370840D01*
X584200Y345440D02*
X568960Y345440D01*
X568960Y320040D02*
X584200Y320040D01*
X584200Y294640D02*
X568960Y294640D01*
X568960Y269240D02*
X584200Y269240D01*
X584200Y243840D02*
X568960Y243840D01*
X568960Y218440D02*
X584200Y218440D01*
X584200Y193040D02*
X568960Y193040D01*
X568960Y167640D02*
X584200Y167640D01*
X584200Y142240D02*
X568960Y142240D01*
X568960Y116840D02*
X584200Y116840D01*
X584200Y91440D02*
X568960Y91440D01*
X568960Y66040D02*
X584200Y66040D01*
D12*
X742120Y150360D03*
X767120Y150360D03*
X792120Y150360D03*
X742120Y295360D03*
X792120Y295360D03*
D13*
X706120Y225360D03*
X828120Y225360D03*
D11*
X42228Y405360D02*
X26988Y405360D01*
X92012Y405360D02*
X107252Y405360D01*
X146988Y405360D02*
X162228Y405360D01*
X212012Y405360D02*
X227252Y405360D01*
X266988Y405360D02*
X282228Y405360D01*
X332012Y405360D02*
X347252Y405360D01*
X386988Y405360D02*
X402228Y405360D01*
X452012Y405360D02*
X467252Y405360D01*
X42228Y285360D02*
X26988Y285360D01*
X92012Y285360D02*
X107252Y285360D01*
X146988Y285360D02*
X162228Y285360D01*
X212012Y285360D02*
X227252Y285360D01*
X266988Y285360D02*
X282228Y285360D01*
X332012Y285360D02*
X347252Y285360D01*
X386988Y285360D02*
X402228Y285360D01*
X452012Y285360D02*
X467252Y285360D01*
X42228Y165360D02*
X26988Y165360D01*
X92012Y165360D02*
X107252Y165360D01*
X146988Y165360D02*
X162228Y165360D01*
X212012Y165360D02*
X227252Y165360D01*
X266988Y165360D02*
X282228Y165360D01*
X332012Y165360D02*
X347252Y165360D01*
X386988Y165360D02*
X402228Y165360D01*
X452012Y165360D02*
X467252Y165360D01*
X42228Y45360D02*
X26988Y45360D01*
X92012Y45360D02*
X107252Y45360D01*
X146988Y45360D02*
X162228Y45360D01*
X212012Y45360D02*
X227252Y45360D01*
X266988Y45360D02*
X282228Y45360D01*
X332012Y45360D02*
X347252Y45360D01*
X386988Y45360D02*
X402228Y45360D01*
X452012Y45360D02*
X467252Y45360D01*
D14*
X662940Y91440D03*
X662940Y142240D03*
X822960Y134620D03*
X822960Y90170D03*
M02*
