G04 EAGLE Gerber RS-274X export*
G75*
%MOMM*%
%FSLAX34Y34*%
%LPD*%
%INBottom Copper*%
%IPPOS*%
%AMOC8*
5,1,8,0,0,1.08239X$1,22.5*%
G01*
%ADD10C,1.524000*%
%ADD11C,7.800000*%
%ADD12C,1.500000*%
%ADD13C,0.508000*%
%ADD14C,0.254000*%


D10*
X67300Y24180D02*
X67300Y39420D01*
X92700Y39420D02*
X92700Y24180D01*
X118100Y24180D02*
X118100Y39420D01*
X197300Y372380D02*
X197300Y387620D01*
X222700Y387620D02*
X222700Y372380D01*
X248100Y372380D02*
X248100Y387620D01*
X273500Y387620D02*
X273500Y372380D01*
D11*
X0Y230000D03*
D12*
X50000Y250000D03*
X50000Y175000D03*
D13*
X50000Y250000D01*
D12*
X150000Y125000D03*
X150000Y60000D03*
X175000Y125000D03*
X175000Y167500D03*
D13*
X175000Y125000D01*
X150000Y125000D02*
X150000Y60000D01*
D12*
X335000Y360000D03*
X335000Y400000D03*
D13*
X335000Y360000D01*
D11*
X360000Y230000D03*
D12*
X310000Y160000D03*
X310000Y55000D03*
D13*
X310000Y160000D01*
D11*
X180000Y230000D03*
D14*
X0Y0D02*
X430135Y0D01*
X430135Y422500D01*
X40000Y422500D01*
X0Y382500D01*
X0Y273428D01*
X-3784Y273251D01*
X-7539Y272745D01*
X-11235Y271913D01*
X-14845Y270763D01*
X-18341Y269302D01*
X-21696Y267542D01*
X-24885Y265496D01*
X-27883Y263181D01*
X-30669Y260612D01*
X-33219Y257811D01*
X-35516Y254798D01*
X-37542Y251597D01*
X-39281Y248231D01*
X-40720Y244726D01*
X-41848Y241109D01*
X-42656Y237408D01*
X-43139Y233650D01*
X-43293Y229865D01*
X-43116Y226080D01*
X-42609Y222325D01*
X-41778Y218629D01*
X-40627Y215019D01*
X-39166Y211524D01*
X-37407Y208169D01*
X-35361Y204980D01*
X-33045Y201981D01*
X-30477Y199196D01*
X-27676Y196645D01*
X-24663Y194348D01*
X-21461Y192323D01*
X-18095Y190584D01*
X-14591Y189145D01*
X-10974Y188017D01*
X-7272Y187208D01*
X-3515Y186725D01*
X0Y186572D01*
X0Y0D01*
M02*
