G04 EAGLE Gerber RS-274X export*
G75*
%MOMM*%
%FSLAX34Y34*%
%LPD*%
%IN*%
%IPPOS*%
%AMOC8*
5,1,8,0,0,1.08239X$1,22.5*%
G01*
%ADD10C,0.254000*%


D10*
X0Y0D02*
X430135Y0D01*
X430135Y422500D01*
X40000Y422500D01*
X0Y382500D01*
X0Y273428D01*
X-3784Y273251D01*
X-7539Y272745D01*
X-11235Y271913D01*
X-14845Y270763D01*
X-18341Y269302D01*
X-21696Y267542D01*
X-24885Y265496D01*
X-27883Y263181D01*
X-30669Y260612D01*
X-33219Y257811D01*
X-35516Y254798D01*
X-37542Y251597D01*
X-39281Y248231D01*
X-40720Y244726D01*
X-41848Y241109D01*
X-42656Y237408D01*
X-43139Y233650D01*
X-43293Y229865D01*
X-43116Y226080D01*
X-42609Y222325D01*
X-41778Y218629D01*
X-40627Y215019D01*
X-39166Y211524D01*
X-37407Y208169D01*
X-35361Y204980D01*
X-33045Y201981D01*
X-30477Y199196D01*
X-27676Y196645D01*
X-24663Y194348D01*
X-21461Y192323D01*
X-18095Y190584D01*
X-14591Y189145D01*
X-10974Y188017D01*
X-7272Y187208D01*
X-3515Y186725D01*
X0Y186572D01*
X0Y0D01*
X19135Y229426D02*
X19066Y228280D01*
X18927Y227140D01*
X18720Y226010D01*
X18446Y224896D01*
X18104Y223799D01*
X17697Y222726D01*
X17225Y221679D01*
X16692Y220662D01*
X16098Y219679D01*
X15446Y218734D01*
X14737Y217830D01*
X13976Y216971D01*
X13164Y216159D01*
X12305Y215398D01*
X11401Y214689D01*
X10456Y214037D01*
X9473Y213443D01*
X8456Y212910D01*
X7409Y212438D01*
X6336Y212031D01*
X5239Y211690D01*
X4125Y211415D01*
X2995Y211208D01*
X1855Y211069D01*
X709Y211000D01*
X-439Y211000D01*
X-1585Y211069D01*
X-2725Y211208D01*
X-3855Y211415D01*
X-4969Y211690D01*
X-6066Y212031D01*
X-7139Y212438D01*
X-8186Y212910D01*
X-9203Y213443D01*
X-10186Y214037D01*
X-11131Y214689D01*
X-12035Y215398D01*
X-12894Y216159D01*
X-13706Y216971D01*
X-14467Y217830D01*
X-15176Y218734D01*
X-15828Y219679D01*
X-16422Y220662D01*
X-16955Y221679D01*
X-17427Y222726D01*
X-17834Y223799D01*
X-18176Y224896D01*
X-18450Y226010D01*
X-18657Y227140D01*
X-18796Y228280D01*
X-18865Y229426D01*
X-18865Y230574D01*
X-18796Y231720D01*
X-18657Y232860D01*
X-18450Y233990D01*
X-18176Y235104D01*
X-17834Y236201D01*
X-17427Y237274D01*
X-16955Y238321D01*
X-16422Y239338D01*
X-15828Y240321D01*
X-15176Y241266D01*
X-14467Y242170D01*
X-13706Y243029D01*
X-12894Y243841D01*
X-12035Y244602D01*
X-11131Y245311D01*
X-10186Y245963D01*
X-9203Y246557D01*
X-8186Y247090D01*
X-7139Y247562D01*
X-6066Y247969D01*
X-4969Y248311D01*
X-3855Y248585D01*
X-2725Y248792D01*
X-1585Y248931D01*
X-439Y249000D01*
X709Y249000D01*
X1855Y248931D01*
X2995Y248792D01*
X4125Y248585D01*
X5239Y248311D01*
X6336Y247969D01*
X7409Y247562D01*
X8456Y247090D01*
X9473Y246557D01*
X10456Y245963D01*
X11401Y245311D01*
X12305Y244602D01*
X13164Y243841D01*
X13976Y243029D01*
X14737Y242170D01*
X15446Y241266D01*
X16098Y240321D01*
X16692Y239338D01*
X17225Y238321D01*
X17697Y237274D01*
X18104Y236201D01*
X18446Y235104D01*
X18720Y233990D01*
X18927Y232860D01*
X19066Y231720D01*
X19135Y230574D01*
X19135Y229426D01*
X379135Y229426D02*
X379066Y228280D01*
X378927Y227140D01*
X378720Y226010D01*
X378446Y224896D01*
X378104Y223799D01*
X377697Y222726D01*
X377225Y221679D01*
X376692Y220662D01*
X376098Y219679D01*
X375446Y218734D01*
X374737Y217830D01*
X373976Y216971D01*
X373164Y216159D01*
X372305Y215398D01*
X371401Y214689D01*
X370456Y214037D01*
X369473Y213443D01*
X368456Y212910D01*
X367409Y212438D01*
X366336Y212031D01*
X365239Y211690D01*
X364125Y211415D01*
X362995Y211208D01*
X361855Y211069D01*
X360709Y211000D01*
X359561Y211000D01*
X358415Y211069D01*
X357275Y211208D01*
X356145Y211415D01*
X355031Y211690D01*
X353934Y212031D01*
X352861Y212438D01*
X351814Y212910D01*
X350797Y213443D01*
X349814Y214037D01*
X348869Y214689D01*
X347965Y215398D01*
X347106Y216159D01*
X346294Y216971D01*
X345533Y217830D01*
X344824Y218734D01*
X344172Y219679D01*
X343578Y220662D01*
X343045Y221679D01*
X342573Y222726D01*
X342166Y223799D01*
X341825Y224896D01*
X341550Y226010D01*
X341343Y227140D01*
X341204Y228280D01*
X341135Y229426D01*
X341135Y230574D01*
X341204Y231720D01*
X341343Y232860D01*
X341550Y233990D01*
X341825Y235104D01*
X342166Y236201D01*
X342573Y237274D01*
X343045Y238321D01*
X343578Y239338D01*
X344172Y240321D01*
X344824Y241266D01*
X345533Y242170D01*
X346294Y243029D01*
X347106Y243841D01*
X347965Y244602D01*
X348869Y245311D01*
X349814Y245963D01*
X350797Y246557D01*
X351814Y247090D01*
X352861Y247562D01*
X353934Y247969D01*
X355031Y248311D01*
X356145Y248585D01*
X357275Y248792D01*
X358415Y248931D01*
X359561Y249000D01*
X360709Y249000D01*
X361855Y248931D01*
X362995Y248792D01*
X364125Y248585D01*
X365239Y248311D01*
X366336Y247969D01*
X367409Y247562D01*
X368456Y247090D01*
X369473Y246557D01*
X370456Y245963D01*
X371401Y245311D01*
X372305Y244602D01*
X373164Y243841D01*
X373976Y243029D01*
X374737Y242170D01*
X375446Y241266D01*
X376098Y240321D01*
X376692Y239338D01*
X377225Y238321D01*
X377697Y237274D01*
X378104Y236201D01*
X378446Y235104D01*
X378720Y233990D01*
X378927Y232860D01*
X379066Y231720D01*
X379135Y230574D01*
X379135Y229426D01*
X199135Y229426D02*
X199066Y228280D01*
X198927Y227140D01*
X198720Y226010D01*
X198446Y224896D01*
X198104Y223799D01*
X197697Y222726D01*
X197225Y221679D01*
X196692Y220662D01*
X196098Y219679D01*
X195446Y218734D01*
X194737Y217830D01*
X193976Y216971D01*
X193164Y216159D01*
X192305Y215398D01*
X191401Y214689D01*
X190456Y214037D01*
X189473Y213443D01*
X188456Y212910D01*
X187409Y212438D01*
X186336Y212031D01*
X185239Y211690D01*
X184125Y211415D01*
X182995Y211208D01*
X181855Y211069D01*
X180709Y211000D01*
X179561Y211000D01*
X178415Y211069D01*
X177275Y211208D01*
X176145Y211415D01*
X175031Y211690D01*
X173934Y212031D01*
X172861Y212438D01*
X171814Y212910D01*
X170797Y213443D01*
X169814Y214037D01*
X168869Y214689D01*
X167965Y215398D01*
X167106Y216159D01*
X166294Y216971D01*
X165533Y217830D01*
X164824Y218734D01*
X164172Y219679D01*
X163578Y220662D01*
X163045Y221679D01*
X162573Y222726D01*
X162166Y223799D01*
X161825Y224896D01*
X161550Y226010D01*
X161343Y227140D01*
X161204Y228280D01*
X161135Y229426D01*
X161135Y230574D01*
X161204Y231720D01*
X161343Y232860D01*
X161550Y233990D01*
X161825Y235104D01*
X162166Y236201D01*
X162573Y237274D01*
X163045Y238321D01*
X163578Y239338D01*
X164172Y240321D01*
X164824Y241266D01*
X165533Y242170D01*
X166294Y243029D01*
X167106Y243841D01*
X167965Y244602D01*
X168869Y245311D01*
X169814Y245963D01*
X170797Y246557D01*
X171814Y247090D01*
X172861Y247562D01*
X173934Y247969D01*
X175031Y248311D01*
X176145Y248585D01*
X177275Y248792D01*
X178415Y248931D01*
X179561Y249000D01*
X180709Y249000D01*
X181855Y248931D01*
X182995Y248792D01*
X184125Y248585D01*
X185239Y248311D01*
X186336Y247969D01*
X187409Y247562D01*
X188456Y247090D01*
X189473Y246557D01*
X190456Y245963D01*
X191401Y245311D01*
X192305Y244602D01*
X193164Y243841D01*
X193976Y243029D01*
X194737Y242170D01*
X195446Y241266D01*
X196098Y240321D01*
X196692Y239338D01*
X197225Y238321D01*
X197697Y237274D01*
X198104Y236201D01*
X198446Y235104D01*
X198720Y233990D01*
X198927Y232860D01*
X199066Y231720D01*
X199135Y230574D01*
X199135Y229426D01*
X185000Y319719D02*
X184937Y319161D01*
X184812Y318614D01*
X184627Y318084D01*
X184383Y317578D01*
X184084Y317102D01*
X183734Y316663D01*
X183337Y316266D01*
X182898Y315916D01*
X182422Y315617D01*
X181916Y315373D01*
X181386Y315188D01*
X180839Y315063D01*
X180281Y315000D01*
X179719Y315000D01*
X179161Y315063D01*
X178614Y315188D01*
X178084Y315373D01*
X177578Y315617D01*
X177102Y315916D01*
X176663Y316266D01*
X176266Y316663D01*
X175916Y317102D01*
X175617Y317578D01*
X175373Y318084D01*
X175188Y318614D01*
X175063Y319161D01*
X175000Y319719D01*
X175000Y320281D01*
X175063Y320839D01*
X175188Y321386D01*
X175373Y321916D01*
X175617Y322422D01*
X175916Y322898D01*
X176266Y323337D01*
X176663Y323734D01*
X177102Y324084D01*
X177578Y324383D01*
X178084Y324627D01*
X178614Y324812D01*
X179161Y324937D01*
X179719Y325000D01*
X180281Y325000D01*
X180839Y324937D01*
X181386Y324812D01*
X181916Y324627D01*
X182422Y324383D01*
X182898Y324084D01*
X183337Y323734D01*
X183734Y323337D01*
X184084Y322898D01*
X184383Y322422D01*
X184627Y321916D01*
X184812Y321386D01*
X184937Y320839D01*
X185000Y320281D01*
X185000Y319719D01*
X365000Y319719D02*
X364937Y319161D01*
X364812Y318614D01*
X364627Y318084D01*
X364383Y317578D01*
X364084Y317102D01*
X363734Y316663D01*
X363337Y316266D01*
X362898Y315916D01*
X362422Y315617D01*
X361916Y315373D01*
X361386Y315188D01*
X360839Y315063D01*
X360281Y315000D01*
X359719Y315000D01*
X359161Y315063D01*
X358614Y315188D01*
X358084Y315373D01*
X357578Y315617D01*
X357102Y315916D01*
X356663Y316266D01*
X356266Y316663D01*
X355916Y317102D01*
X355617Y317578D01*
X355373Y318084D01*
X355188Y318614D01*
X355063Y319161D01*
X355000Y319719D01*
X355000Y320281D01*
X355063Y320839D01*
X355188Y321386D01*
X355373Y321916D01*
X355617Y322422D01*
X355916Y322898D01*
X356266Y323337D01*
X356663Y323734D01*
X357102Y324084D01*
X357578Y324383D01*
X358084Y324627D01*
X358614Y324812D01*
X359161Y324937D01*
X359719Y325000D01*
X360281Y325000D01*
X360839Y324937D01*
X361386Y324812D01*
X361916Y324627D01*
X362422Y324383D01*
X362898Y324084D01*
X363337Y323734D01*
X363734Y323337D01*
X364084Y322898D01*
X364383Y322422D01*
X364627Y321916D01*
X364812Y321386D01*
X364937Y320839D01*
X365000Y320281D01*
X365000Y319719D01*
M02*
