G04 EAGLE Gerber RS-274X export*
G75*
%MOMM*%
%FSLAX34Y34*%
%LPD*%
%INSilkscreen Top*%
%IPPOS*%
%AMOC8*
5,1,8,0,0,1.08239X$1,22.5*%
G01*
%ADD10C,0.203200*%
%ADD11R,0.609600X1.574800*%
%ADD12R,0.250000X0.250000*%
%ADD13R,1.574800X0.609600*%
%ADD14C,0.152400*%
%ADD15C,0.254000*%


D10*
X136016Y30165D02*
X143128Y30165D01*
X139572Y26609D02*
X139572Y33721D01*
X148801Y34313D02*
X151764Y36684D01*
X151764Y26016D01*
X148801Y26016D02*
X154727Y26016D01*
X163490Y36684D02*
X163592Y36682D01*
X163694Y36676D01*
X163796Y36666D01*
X163897Y36653D01*
X163998Y36635D01*
X164098Y36614D01*
X164197Y36589D01*
X164295Y36560D01*
X164391Y36527D01*
X164487Y36491D01*
X164581Y36451D01*
X164673Y36407D01*
X164764Y36360D01*
X164853Y36309D01*
X164940Y36256D01*
X165024Y36198D01*
X165107Y36138D01*
X165187Y36075D01*
X165264Y36008D01*
X165339Y35939D01*
X165412Y35866D01*
X165481Y35791D01*
X165548Y35714D01*
X165611Y35634D01*
X165671Y35551D01*
X165729Y35467D01*
X165782Y35380D01*
X165833Y35291D01*
X165880Y35200D01*
X165924Y35108D01*
X165964Y35014D01*
X166000Y34918D01*
X166033Y34822D01*
X166062Y34724D01*
X166087Y34625D01*
X166108Y34525D01*
X166126Y34424D01*
X166139Y34323D01*
X166149Y34221D01*
X166155Y34119D01*
X166157Y34017D01*
X163490Y36684D02*
X163374Y36682D01*
X163257Y36676D01*
X163141Y36666D01*
X163026Y36652D01*
X162911Y36635D01*
X162796Y36613D01*
X162683Y36587D01*
X162570Y36558D01*
X162458Y36525D01*
X162348Y36488D01*
X162239Y36447D01*
X162131Y36403D01*
X162025Y36355D01*
X161921Y36303D01*
X161818Y36248D01*
X161717Y36190D01*
X161619Y36128D01*
X161522Y36063D01*
X161428Y35994D01*
X161336Y35922D01*
X161247Y35848D01*
X161160Y35770D01*
X161076Y35689D01*
X160995Y35606D01*
X160917Y35520D01*
X160841Y35431D01*
X160769Y35340D01*
X160700Y35246D01*
X160634Y35150D01*
X160571Y35052D01*
X160512Y34952D01*
X160456Y34850D01*
X160404Y34746D01*
X160355Y34640D01*
X160310Y34533D01*
X160268Y34424D01*
X160231Y34314D01*
X165269Y31942D02*
X165344Y32016D01*
X165416Y32093D01*
X165485Y32173D01*
X165552Y32255D01*
X165615Y32339D01*
X165675Y32426D01*
X165732Y32514D01*
X165786Y32605D01*
X165836Y32698D01*
X165883Y32792D01*
X165926Y32888D01*
X165966Y32986D01*
X166002Y33085D01*
X166035Y33185D01*
X166063Y33287D01*
X166088Y33389D01*
X166110Y33493D01*
X166127Y33597D01*
X166141Y33701D01*
X166150Y33806D01*
X166156Y33912D01*
X166158Y34017D01*
X165268Y31943D02*
X160231Y26016D01*
X166157Y26016D01*
X174624Y26016D02*
X171068Y36684D01*
X178180Y36684D02*
X174624Y26016D01*
X13128Y30165D02*
X6016Y30165D01*
X18801Y34313D02*
X21764Y36684D01*
X21764Y26016D01*
X18801Y26016D02*
X24727Y26016D01*
X33490Y36684D02*
X33592Y36682D01*
X33694Y36676D01*
X33796Y36666D01*
X33897Y36653D01*
X33998Y36635D01*
X34098Y36614D01*
X34197Y36589D01*
X34295Y36560D01*
X34391Y36527D01*
X34487Y36491D01*
X34581Y36451D01*
X34673Y36407D01*
X34764Y36360D01*
X34853Y36309D01*
X34940Y36256D01*
X35024Y36198D01*
X35107Y36138D01*
X35187Y36075D01*
X35264Y36008D01*
X35339Y35939D01*
X35412Y35866D01*
X35481Y35791D01*
X35548Y35714D01*
X35611Y35634D01*
X35671Y35551D01*
X35729Y35467D01*
X35782Y35380D01*
X35833Y35291D01*
X35880Y35200D01*
X35924Y35108D01*
X35964Y35014D01*
X36000Y34918D01*
X36033Y34822D01*
X36062Y34724D01*
X36087Y34625D01*
X36108Y34525D01*
X36126Y34424D01*
X36139Y34323D01*
X36149Y34221D01*
X36155Y34119D01*
X36157Y34017D01*
X33490Y36684D02*
X33374Y36682D01*
X33257Y36676D01*
X33141Y36666D01*
X33026Y36652D01*
X32911Y36635D01*
X32796Y36613D01*
X32683Y36587D01*
X32570Y36558D01*
X32458Y36525D01*
X32348Y36488D01*
X32239Y36447D01*
X32131Y36403D01*
X32025Y36355D01*
X31921Y36303D01*
X31818Y36248D01*
X31717Y36190D01*
X31619Y36128D01*
X31522Y36063D01*
X31428Y35994D01*
X31336Y35922D01*
X31247Y35848D01*
X31160Y35770D01*
X31076Y35689D01*
X30995Y35606D01*
X30917Y35520D01*
X30841Y35431D01*
X30769Y35340D01*
X30700Y35246D01*
X30634Y35150D01*
X30571Y35052D01*
X30512Y34952D01*
X30456Y34850D01*
X30404Y34746D01*
X30355Y34640D01*
X30310Y34533D01*
X30268Y34424D01*
X30231Y34314D01*
X35269Y31942D02*
X35344Y32016D01*
X35416Y32093D01*
X35485Y32173D01*
X35552Y32255D01*
X35615Y32339D01*
X35675Y32426D01*
X35732Y32514D01*
X35786Y32605D01*
X35836Y32698D01*
X35883Y32792D01*
X35926Y32888D01*
X35966Y32986D01*
X36002Y33085D01*
X36035Y33185D01*
X36063Y33287D01*
X36088Y33389D01*
X36110Y33493D01*
X36127Y33597D01*
X36141Y33701D01*
X36150Y33806D01*
X36156Y33912D01*
X36158Y34017D01*
X35268Y31943D02*
X30231Y26016D01*
X36157Y26016D01*
X44624Y26016D02*
X41068Y36684D01*
X48180Y36684D02*
X44624Y26016D01*
X80165Y11943D02*
X81943Y11943D01*
X81943Y6016D01*
X78387Y6016D01*
X78292Y6018D01*
X78196Y6024D01*
X78101Y6033D01*
X78007Y6047D01*
X77913Y6064D01*
X77820Y6085D01*
X77727Y6110D01*
X77636Y6138D01*
X77546Y6170D01*
X77458Y6206D01*
X77371Y6245D01*
X77285Y6288D01*
X77201Y6334D01*
X77120Y6383D01*
X77040Y6436D01*
X76963Y6492D01*
X76887Y6550D01*
X76815Y6612D01*
X76745Y6677D01*
X76677Y6745D01*
X76612Y6815D01*
X76550Y6887D01*
X76492Y6963D01*
X76436Y7040D01*
X76383Y7120D01*
X76334Y7202D01*
X76288Y7285D01*
X76245Y7371D01*
X76206Y7458D01*
X76170Y7546D01*
X76138Y7636D01*
X76110Y7727D01*
X76085Y7820D01*
X76064Y7913D01*
X76047Y8007D01*
X76033Y8101D01*
X76024Y8196D01*
X76018Y8292D01*
X76016Y8387D01*
X76016Y14313D01*
X76018Y14408D01*
X76024Y14504D01*
X76033Y14599D01*
X76047Y14693D01*
X76064Y14787D01*
X76085Y14880D01*
X76110Y14973D01*
X76138Y15064D01*
X76170Y15154D01*
X76206Y15242D01*
X76245Y15329D01*
X76288Y15415D01*
X76334Y15498D01*
X76383Y15580D01*
X76436Y15660D01*
X76492Y15737D01*
X76550Y15813D01*
X76612Y15885D01*
X76677Y15955D01*
X76745Y16023D01*
X76815Y16088D01*
X76887Y16150D01*
X76963Y16208D01*
X77040Y16264D01*
X77120Y16317D01*
X77201Y16366D01*
X77285Y16412D01*
X77371Y16455D01*
X77458Y16494D01*
X77546Y16530D01*
X77636Y16562D01*
X77727Y16590D01*
X77820Y16615D01*
X77913Y16636D01*
X78007Y16653D01*
X78101Y16667D01*
X78196Y16676D01*
X78291Y16682D01*
X78387Y16684D01*
X81943Y16684D01*
X88208Y16684D02*
X88208Y6016D01*
X94135Y6016D02*
X88208Y16684D01*
X94135Y16684D02*
X94135Y6016D01*
X100400Y6016D02*
X100400Y16684D01*
X103363Y16684D01*
X103469Y16682D01*
X103574Y16676D01*
X103680Y16667D01*
X103785Y16654D01*
X103889Y16637D01*
X103993Y16616D01*
X104096Y16592D01*
X104198Y16564D01*
X104299Y16532D01*
X104398Y16497D01*
X104497Y16458D01*
X104594Y16416D01*
X104689Y16371D01*
X104783Y16322D01*
X104875Y16269D01*
X104965Y16214D01*
X105053Y16155D01*
X105139Y16093D01*
X105222Y16028D01*
X105303Y15960D01*
X105382Y15890D01*
X105458Y15816D01*
X105532Y15740D01*
X105602Y15661D01*
X105670Y15580D01*
X105735Y15497D01*
X105797Y15411D01*
X105856Y15323D01*
X105911Y15233D01*
X105964Y15141D01*
X106013Y15047D01*
X106058Y14952D01*
X106100Y14855D01*
X106139Y14756D01*
X106174Y14657D01*
X106206Y14556D01*
X106234Y14454D01*
X106258Y14351D01*
X106279Y14247D01*
X106296Y14143D01*
X106309Y14038D01*
X106318Y13932D01*
X106324Y13827D01*
X106326Y13721D01*
X106327Y13721D02*
X106327Y8979D01*
X106326Y8979D02*
X106324Y8873D01*
X106318Y8768D01*
X106309Y8662D01*
X106296Y8557D01*
X106279Y8453D01*
X106258Y8349D01*
X106234Y8246D01*
X106206Y8144D01*
X106174Y8043D01*
X106139Y7944D01*
X106100Y7845D01*
X106058Y7748D01*
X106013Y7653D01*
X105964Y7559D01*
X105911Y7467D01*
X105856Y7377D01*
X105797Y7289D01*
X105735Y7203D01*
X105670Y7120D01*
X105602Y7039D01*
X105532Y6960D01*
X105458Y6884D01*
X105382Y6810D01*
X105303Y6740D01*
X105222Y6672D01*
X105139Y6607D01*
X105053Y6545D01*
X104965Y6486D01*
X104875Y6431D01*
X104783Y6378D01*
X104689Y6329D01*
X104594Y6284D01*
X104497Y6242D01*
X104398Y6203D01*
X104299Y6168D01*
X104198Y6136D01*
X104096Y6108D01*
X103993Y6084D01*
X103889Y6063D01*
X103785Y6046D01*
X103680Y6033D01*
X103574Y6024D01*
X103469Y6018D01*
X103363Y6016D01*
X100400Y6016D01*
X113951Y161796D02*
X113951Y172464D01*
X112766Y161796D02*
X115137Y161796D01*
X115137Y172464D02*
X112766Y172464D01*
X122453Y161796D02*
X124824Y161796D01*
X122453Y161796D02*
X122358Y161798D01*
X122262Y161804D01*
X122167Y161813D01*
X122073Y161827D01*
X121979Y161844D01*
X121886Y161865D01*
X121793Y161890D01*
X121702Y161918D01*
X121612Y161950D01*
X121524Y161986D01*
X121437Y162025D01*
X121351Y162068D01*
X121267Y162114D01*
X121186Y162163D01*
X121106Y162216D01*
X121029Y162272D01*
X120953Y162330D01*
X120881Y162392D01*
X120811Y162457D01*
X120743Y162525D01*
X120678Y162595D01*
X120616Y162667D01*
X120558Y162743D01*
X120502Y162820D01*
X120449Y162900D01*
X120400Y162982D01*
X120354Y163065D01*
X120311Y163151D01*
X120272Y163238D01*
X120236Y163326D01*
X120204Y163416D01*
X120176Y163507D01*
X120151Y163600D01*
X120130Y163693D01*
X120113Y163787D01*
X120099Y163881D01*
X120090Y163976D01*
X120084Y164072D01*
X120082Y164167D01*
X120082Y170093D01*
X120084Y170188D01*
X120090Y170284D01*
X120099Y170379D01*
X120113Y170473D01*
X120130Y170567D01*
X120151Y170660D01*
X120176Y170753D01*
X120204Y170844D01*
X120236Y170934D01*
X120272Y171022D01*
X120311Y171109D01*
X120354Y171195D01*
X120400Y171278D01*
X120449Y171360D01*
X120502Y171440D01*
X120558Y171517D01*
X120616Y171593D01*
X120678Y171665D01*
X120743Y171735D01*
X120811Y171803D01*
X120881Y171868D01*
X120953Y171930D01*
X121029Y171988D01*
X121106Y172044D01*
X121186Y172097D01*
X121267Y172146D01*
X121351Y172192D01*
X121437Y172235D01*
X121524Y172274D01*
X121612Y172310D01*
X121702Y172342D01*
X121793Y172370D01*
X121886Y172395D01*
X121979Y172416D01*
X122073Y172433D01*
X122167Y172447D01*
X122262Y172456D01*
X122357Y172462D01*
X122453Y172464D01*
X124824Y172464D01*
X129657Y170093D02*
X132620Y172464D01*
X132620Y161796D01*
X129657Y161796D02*
X135584Y161796D01*
X378716Y165634D02*
X378716Y154966D01*
X378716Y165634D02*
X381679Y165634D01*
X381786Y165632D01*
X381893Y165626D01*
X381999Y165617D01*
X382105Y165603D01*
X382211Y165586D01*
X382316Y165565D01*
X382420Y165540D01*
X382523Y165511D01*
X382625Y165479D01*
X382726Y165443D01*
X382825Y165403D01*
X382923Y165360D01*
X383019Y165313D01*
X383114Y165263D01*
X383207Y165210D01*
X383297Y165153D01*
X383386Y165093D01*
X383472Y165030D01*
X383556Y164964D01*
X383638Y164894D01*
X383717Y164822D01*
X383793Y164747D01*
X383867Y164669D01*
X383937Y164589D01*
X384005Y164506D01*
X384070Y164421D01*
X384131Y164334D01*
X384190Y164244D01*
X384245Y164152D01*
X384297Y164059D01*
X384345Y163963D01*
X384390Y163866D01*
X384432Y163768D01*
X384469Y163668D01*
X384504Y163566D01*
X384534Y163464D01*
X384561Y163360D01*
X384584Y163256D01*
X384603Y163150D01*
X384618Y163044D01*
X384630Y162938D01*
X384638Y162831D01*
X384642Y162724D01*
X384642Y162618D01*
X384638Y162511D01*
X384630Y162404D01*
X384618Y162298D01*
X384603Y162192D01*
X384584Y162086D01*
X384561Y161982D01*
X384534Y161878D01*
X384504Y161776D01*
X384469Y161674D01*
X384432Y161574D01*
X384390Y161476D01*
X384345Y161379D01*
X384297Y161283D01*
X384245Y161190D01*
X384190Y161098D01*
X384131Y161008D01*
X384070Y160921D01*
X384005Y160836D01*
X383937Y160753D01*
X383867Y160673D01*
X383793Y160595D01*
X383717Y160520D01*
X383638Y160448D01*
X383556Y160378D01*
X383472Y160312D01*
X383386Y160249D01*
X383297Y160189D01*
X383207Y160132D01*
X383114Y160079D01*
X383019Y160029D01*
X382923Y159982D01*
X382825Y159939D01*
X382726Y159899D01*
X382625Y159863D01*
X382523Y159831D01*
X382420Y159802D01*
X382316Y159777D01*
X382211Y159756D01*
X382105Y159739D01*
X381999Y159725D01*
X381893Y159716D01*
X381786Y159710D01*
X381679Y159708D01*
X381679Y159707D02*
X378716Y159707D01*
X382272Y159707D02*
X384643Y154966D01*
X390036Y163263D02*
X392999Y165634D01*
X392999Y154966D01*
X390036Y154966D02*
X395962Y154966D01*
X378716Y124834D02*
X378716Y114166D01*
X378716Y124834D02*
X381679Y124834D01*
X381786Y124832D01*
X381893Y124826D01*
X381999Y124817D01*
X382105Y124803D01*
X382211Y124786D01*
X382316Y124765D01*
X382420Y124740D01*
X382523Y124711D01*
X382625Y124679D01*
X382726Y124643D01*
X382825Y124603D01*
X382923Y124560D01*
X383019Y124513D01*
X383114Y124463D01*
X383207Y124410D01*
X383297Y124353D01*
X383386Y124293D01*
X383472Y124230D01*
X383556Y124164D01*
X383638Y124094D01*
X383717Y124022D01*
X383793Y123947D01*
X383867Y123869D01*
X383937Y123789D01*
X384005Y123706D01*
X384070Y123621D01*
X384131Y123534D01*
X384190Y123444D01*
X384245Y123352D01*
X384297Y123259D01*
X384345Y123163D01*
X384390Y123066D01*
X384432Y122968D01*
X384469Y122868D01*
X384504Y122766D01*
X384534Y122664D01*
X384561Y122560D01*
X384584Y122456D01*
X384603Y122350D01*
X384618Y122244D01*
X384630Y122138D01*
X384638Y122031D01*
X384642Y121924D01*
X384642Y121818D01*
X384638Y121711D01*
X384630Y121604D01*
X384618Y121498D01*
X384603Y121392D01*
X384584Y121286D01*
X384561Y121182D01*
X384534Y121078D01*
X384504Y120976D01*
X384469Y120874D01*
X384432Y120774D01*
X384390Y120676D01*
X384345Y120579D01*
X384297Y120483D01*
X384245Y120389D01*
X384190Y120298D01*
X384131Y120208D01*
X384070Y120121D01*
X384005Y120036D01*
X383937Y119953D01*
X383867Y119873D01*
X383793Y119795D01*
X383717Y119720D01*
X383638Y119648D01*
X383556Y119578D01*
X383472Y119512D01*
X383386Y119449D01*
X383297Y119389D01*
X383207Y119332D01*
X383114Y119279D01*
X383019Y119229D01*
X382923Y119182D01*
X382825Y119139D01*
X382726Y119099D01*
X382625Y119063D01*
X382523Y119031D01*
X382420Y119002D01*
X382316Y118977D01*
X382211Y118956D01*
X382105Y118939D01*
X381999Y118925D01*
X381893Y118916D01*
X381786Y118910D01*
X381679Y118908D01*
X381679Y118907D02*
X378716Y118907D01*
X382272Y118907D02*
X384643Y114166D01*
X393295Y124834D02*
X393397Y124832D01*
X393499Y124826D01*
X393601Y124816D01*
X393702Y124803D01*
X393803Y124785D01*
X393903Y124764D01*
X394002Y124739D01*
X394100Y124710D01*
X394196Y124677D01*
X394292Y124641D01*
X394386Y124601D01*
X394478Y124557D01*
X394569Y124510D01*
X394658Y124459D01*
X394745Y124406D01*
X394829Y124348D01*
X394912Y124288D01*
X394992Y124225D01*
X395069Y124158D01*
X395144Y124089D01*
X395217Y124016D01*
X395286Y123941D01*
X395353Y123864D01*
X395416Y123784D01*
X395476Y123701D01*
X395534Y123617D01*
X395587Y123530D01*
X395638Y123441D01*
X395685Y123350D01*
X395729Y123258D01*
X395769Y123164D01*
X395805Y123068D01*
X395838Y122972D01*
X395867Y122874D01*
X395892Y122775D01*
X395913Y122675D01*
X395931Y122574D01*
X395944Y122473D01*
X395954Y122371D01*
X395960Y122269D01*
X395962Y122167D01*
X393295Y124834D02*
X393179Y124832D01*
X393062Y124826D01*
X392946Y124816D01*
X392831Y124802D01*
X392716Y124785D01*
X392601Y124763D01*
X392488Y124737D01*
X392375Y124708D01*
X392263Y124675D01*
X392153Y124638D01*
X392044Y124597D01*
X391936Y124553D01*
X391830Y124505D01*
X391726Y124453D01*
X391623Y124398D01*
X391522Y124340D01*
X391424Y124278D01*
X391327Y124213D01*
X391233Y124144D01*
X391141Y124072D01*
X391052Y123998D01*
X390965Y123920D01*
X390881Y123839D01*
X390800Y123756D01*
X390722Y123670D01*
X390646Y123581D01*
X390574Y123490D01*
X390505Y123396D01*
X390439Y123300D01*
X390376Y123202D01*
X390317Y123102D01*
X390261Y123000D01*
X390209Y122896D01*
X390160Y122790D01*
X390115Y122683D01*
X390073Y122574D01*
X390036Y122464D01*
X395074Y120092D02*
X395149Y120166D01*
X395221Y120243D01*
X395290Y120323D01*
X395357Y120405D01*
X395420Y120489D01*
X395480Y120576D01*
X395537Y120664D01*
X395591Y120755D01*
X395641Y120848D01*
X395688Y120942D01*
X395731Y121038D01*
X395771Y121136D01*
X395807Y121235D01*
X395840Y121335D01*
X395868Y121437D01*
X395893Y121539D01*
X395915Y121643D01*
X395932Y121747D01*
X395946Y121851D01*
X395955Y121956D01*
X395961Y122062D01*
X395963Y122167D01*
X395073Y120093D02*
X390036Y114166D01*
X395962Y114166D01*
X379130Y290000D02*
X389130Y296000D01*
X379130Y302000D01*
X379130Y290000D01*
D11*
X390988Y296000D03*
D10*
X376886Y307886D02*
X376886Y318554D01*
X379850Y318554D01*
X379956Y318552D01*
X380061Y318546D01*
X380167Y318537D01*
X380272Y318524D01*
X380376Y318507D01*
X380480Y318486D01*
X380583Y318462D01*
X380685Y318434D01*
X380786Y318402D01*
X380885Y318367D01*
X380984Y318328D01*
X381081Y318286D01*
X381176Y318241D01*
X381270Y318192D01*
X381362Y318139D01*
X381452Y318084D01*
X381540Y318025D01*
X381626Y317963D01*
X381709Y317898D01*
X381790Y317830D01*
X381869Y317760D01*
X381945Y317686D01*
X382019Y317610D01*
X382089Y317531D01*
X382157Y317450D01*
X382222Y317367D01*
X382284Y317281D01*
X382343Y317193D01*
X382398Y317103D01*
X382451Y317011D01*
X382500Y316917D01*
X382545Y316822D01*
X382587Y316725D01*
X382626Y316626D01*
X382661Y316527D01*
X382693Y316426D01*
X382721Y316324D01*
X382745Y316221D01*
X382766Y316117D01*
X382783Y316013D01*
X382796Y315908D01*
X382805Y315802D01*
X382811Y315697D01*
X382813Y315591D01*
X382813Y310849D01*
X382811Y310743D01*
X382805Y310638D01*
X382796Y310532D01*
X382783Y310427D01*
X382766Y310323D01*
X382745Y310219D01*
X382721Y310116D01*
X382693Y310014D01*
X382661Y309913D01*
X382626Y309814D01*
X382587Y309715D01*
X382545Y309618D01*
X382500Y309523D01*
X382451Y309429D01*
X382398Y309337D01*
X382343Y309247D01*
X382284Y309159D01*
X382222Y309073D01*
X382157Y308990D01*
X382089Y308909D01*
X382019Y308830D01*
X381945Y308754D01*
X381869Y308680D01*
X381790Y308610D01*
X381709Y308542D01*
X381626Y308477D01*
X381540Y308415D01*
X381452Y308356D01*
X381362Y308301D01*
X381270Y308248D01*
X381176Y308199D01*
X381081Y308154D01*
X380984Y308112D01*
X380885Y308073D01*
X380786Y308038D01*
X380685Y308006D01*
X380583Y307978D01*
X380480Y307954D01*
X380376Y307933D01*
X380272Y307916D01*
X380167Y307903D01*
X380061Y307894D01*
X379956Y307888D01*
X379850Y307886D01*
X376886Y307886D01*
X391957Y318554D02*
X392059Y318552D01*
X392161Y318546D01*
X392263Y318536D01*
X392364Y318523D01*
X392465Y318505D01*
X392565Y318484D01*
X392664Y318459D01*
X392762Y318430D01*
X392858Y318397D01*
X392954Y318361D01*
X393048Y318321D01*
X393140Y318277D01*
X393231Y318230D01*
X393320Y318179D01*
X393407Y318126D01*
X393491Y318068D01*
X393574Y318008D01*
X393654Y317945D01*
X393731Y317878D01*
X393806Y317809D01*
X393879Y317736D01*
X393948Y317661D01*
X394015Y317584D01*
X394078Y317504D01*
X394138Y317421D01*
X394196Y317337D01*
X394249Y317250D01*
X394300Y317161D01*
X394347Y317070D01*
X394391Y316978D01*
X394431Y316884D01*
X394467Y316788D01*
X394500Y316692D01*
X394529Y316594D01*
X394554Y316495D01*
X394575Y316395D01*
X394593Y316294D01*
X394606Y316193D01*
X394616Y316091D01*
X394622Y315989D01*
X394624Y315887D01*
X391957Y318554D02*
X391841Y318552D01*
X391724Y318546D01*
X391608Y318536D01*
X391493Y318522D01*
X391378Y318505D01*
X391263Y318483D01*
X391150Y318457D01*
X391037Y318428D01*
X390925Y318395D01*
X390815Y318358D01*
X390706Y318317D01*
X390598Y318273D01*
X390492Y318225D01*
X390388Y318173D01*
X390285Y318118D01*
X390184Y318060D01*
X390086Y317998D01*
X389989Y317933D01*
X389895Y317864D01*
X389803Y317792D01*
X389714Y317718D01*
X389627Y317640D01*
X389543Y317559D01*
X389462Y317476D01*
X389384Y317390D01*
X389308Y317301D01*
X389236Y317210D01*
X389167Y317116D01*
X389101Y317020D01*
X389038Y316922D01*
X388979Y316822D01*
X388923Y316720D01*
X388871Y316616D01*
X388822Y316510D01*
X388777Y316403D01*
X388735Y316294D01*
X388698Y316184D01*
X393736Y313812D02*
X393811Y313886D01*
X393883Y313963D01*
X393952Y314043D01*
X394019Y314125D01*
X394082Y314209D01*
X394142Y314296D01*
X394199Y314384D01*
X394253Y314475D01*
X394303Y314568D01*
X394350Y314662D01*
X394393Y314758D01*
X394433Y314856D01*
X394469Y314955D01*
X394502Y315055D01*
X394530Y315157D01*
X394555Y315259D01*
X394577Y315363D01*
X394594Y315467D01*
X394608Y315571D01*
X394617Y315676D01*
X394623Y315782D01*
X394625Y315887D01*
X393735Y313813D02*
X388697Y307886D01*
X394624Y307886D01*
X305066Y333716D02*
X305066Y344384D01*
X308029Y344384D01*
X308136Y344382D01*
X308243Y344376D01*
X308349Y344367D01*
X308455Y344353D01*
X308561Y344336D01*
X308666Y344315D01*
X308770Y344290D01*
X308873Y344261D01*
X308975Y344229D01*
X309076Y344193D01*
X309175Y344153D01*
X309273Y344110D01*
X309369Y344063D01*
X309464Y344013D01*
X309557Y343960D01*
X309647Y343903D01*
X309736Y343843D01*
X309822Y343780D01*
X309906Y343714D01*
X309988Y343644D01*
X310067Y343572D01*
X310143Y343497D01*
X310217Y343419D01*
X310287Y343339D01*
X310355Y343256D01*
X310420Y343171D01*
X310481Y343084D01*
X310540Y342994D01*
X310595Y342903D01*
X310647Y342809D01*
X310695Y342713D01*
X310740Y342616D01*
X310782Y342518D01*
X310819Y342418D01*
X310854Y342316D01*
X310884Y342214D01*
X310911Y342110D01*
X310934Y342006D01*
X310953Y341900D01*
X310968Y341794D01*
X310980Y341688D01*
X310988Y341581D01*
X310992Y341474D01*
X310992Y341368D01*
X310988Y341261D01*
X310980Y341154D01*
X310968Y341048D01*
X310953Y340942D01*
X310934Y340836D01*
X310911Y340732D01*
X310884Y340628D01*
X310854Y340526D01*
X310819Y340424D01*
X310782Y340324D01*
X310740Y340226D01*
X310695Y340129D01*
X310647Y340033D01*
X310595Y339940D01*
X310540Y339848D01*
X310481Y339758D01*
X310420Y339671D01*
X310355Y339586D01*
X310287Y339503D01*
X310217Y339423D01*
X310143Y339345D01*
X310067Y339270D01*
X309988Y339198D01*
X309906Y339128D01*
X309822Y339062D01*
X309736Y338999D01*
X309647Y338939D01*
X309557Y338882D01*
X309464Y338829D01*
X309369Y338779D01*
X309273Y338732D01*
X309175Y338689D01*
X309076Y338649D01*
X308975Y338613D01*
X308873Y338581D01*
X308770Y338552D01*
X308666Y338527D01*
X308561Y338506D01*
X308455Y338489D01*
X308349Y338475D01*
X308243Y338466D01*
X308136Y338460D01*
X308029Y338458D01*
X308029Y338457D02*
X305066Y338457D01*
X308622Y338457D02*
X310993Y333716D01*
X316386Y333716D02*
X319349Y333716D01*
X319456Y333718D01*
X319563Y333724D01*
X319669Y333733D01*
X319775Y333747D01*
X319881Y333764D01*
X319986Y333785D01*
X320090Y333810D01*
X320193Y333839D01*
X320295Y333871D01*
X320396Y333907D01*
X320495Y333947D01*
X320593Y333990D01*
X320689Y334037D01*
X320784Y334087D01*
X320877Y334140D01*
X320967Y334197D01*
X321056Y334257D01*
X321142Y334320D01*
X321226Y334386D01*
X321308Y334456D01*
X321387Y334528D01*
X321463Y334603D01*
X321537Y334681D01*
X321607Y334761D01*
X321675Y334844D01*
X321740Y334929D01*
X321801Y335016D01*
X321860Y335106D01*
X321915Y335198D01*
X321967Y335291D01*
X322015Y335387D01*
X322060Y335484D01*
X322102Y335582D01*
X322139Y335682D01*
X322174Y335784D01*
X322204Y335886D01*
X322231Y335990D01*
X322254Y336094D01*
X322273Y336200D01*
X322288Y336306D01*
X322300Y336412D01*
X322308Y336519D01*
X322312Y336626D01*
X322312Y336732D01*
X322308Y336839D01*
X322300Y336946D01*
X322288Y337052D01*
X322273Y337158D01*
X322254Y337264D01*
X322231Y337368D01*
X322204Y337472D01*
X322174Y337574D01*
X322139Y337676D01*
X322102Y337776D01*
X322060Y337874D01*
X322015Y337971D01*
X321967Y338067D01*
X321915Y338161D01*
X321860Y338252D01*
X321801Y338342D01*
X321740Y338429D01*
X321675Y338514D01*
X321607Y338597D01*
X321537Y338677D01*
X321463Y338755D01*
X321387Y338830D01*
X321308Y338902D01*
X321226Y338972D01*
X321142Y339038D01*
X321056Y339101D01*
X320967Y339161D01*
X320877Y339218D01*
X320784Y339271D01*
X320689Y339321D01*
X320593Y339368D01*
X320495Y339411D01*
X320396Y339451D01*
X320295Y339487D01*
X320193Y339519D01*
X320090Y339548D01*
X319986Y339573D01*
X319881Y339594D01*
X319775Y339611D01*
X319669Y339625D01*
X319563Y339634D01*
X319456Y339640D01*
X319349Y339642D01*
X319942Y344384D02*
X316386Y344384D01*
X319942Y344384D02*
X320039Y344382D01*
X320135Y344376D01*
X320231Y344366D01*
X320327Y344352D01*
X320422Y344335D01*
X320517Y344313D01*
X320610Y344288D01*
X320702Y344259D01*
X320793Y344226D01*
X320883Y344189D01*
X320971Y344149D01*
X321057Y344105D01*
X321141Y344058D01*
X321224Y344008D01*
X321304Y343954D01*
X321382Y343896D01*
X321458Y343836D01*
X321531Y343773D01*
X321601Y343707D01*
X321669Y343637D01*
X321734Y343566D01*
X321796Y343491D01*
X321854Y343414D01*
X321910Y343335D01*
X321962Y343254D01*
X322011Y343170D01*
X322057Y343085D01*
X322099Y342998D01*
X322137Y342909D01*
X322172Y342819D01*
X322203Y342727D01*
X322230Y342634D01*
X322254Y342541D01*
X322273Y342446D01*
X322289Y342350D01*
X322301Y342254D01*
X322309Y342158D01*
X322313Y342061D01*
X322313Y341965D01*
X322309Y341868D01*
X322301Y341772D01*
X322289Y341676D01*
X322273Y341580D01*
X322254Y341485D01*
X322230Y341392D01*
X322203Y341299D01*
X322172Y341207D01*
X322137Y341117D01*
X322099Y341028D01*
X322057Y340941D01*
X322011Y340856D01*
X321962Y340772D01*
X321910Y340691D01*
X321854Y340612D01*
X321796Y340535D01*
X321734Y340460D01*
X321669Y340389D01*
X321601Y340319D01*
X321531Y340253D01*
X321458Y340190D01*
X321382Y340130D01*
X321304Y340072D01*
X321224Y340018D01*
X321141Y339968D01*
X321057Y339921D01*
X320971Y339877D01*
X320883Y339837D01*
X320793Y339800D01*
X320702Y339767D01*
X320610Y339738D01*
X320517Y339713D01*
X320422Y339691D01*
X320327Y339674D01*
X320231Y339660D01*
X320135Y339650D01*
X320039Y339644D01*
X319942Y339642D01*
X319942Y339643D02*
X317571Y339643D01*
X270066Y344384D02*
X270066Y333716D01*
X270066Y344384D02*
X273029Y344384D01*
X273136Y344382D01*
X273243Y344376D01*
X273349Y344367D01*
X273455Y344353D01*
X273561Y344336D01*
X273666Y344315D01*
X273770Y344290D01*
X273873Y344261D01*
X273975Y344229D01*
X274076Y344193D01*
X274175Y344153D01*
X274273Y344110D01*
X274369Y344063D01*
X274464Y344013D01*
X274557Y343960D01*
X274647Y343903D01*
X274736Y343843D01*
X274822Y343780D01*
X274906Y343714D01*
X274988Y343644D01*
X275067Y343572D01*
X275143Y343497D01*
X275217Y343419D01*
X275287Y343339D01*
X275355Y343256D01*
X275420Y343171D01*
X275481Y343084D01*
X275540Y342994D01*
X275595Y342903D01*
X275647Y342809D01*
X275695Y342713D01*
X275740Y342616D01*
X275782Y342518D01*
X275819Y342418D01*
X275854Y342316D01*
X275884Y342214D01*
X275911Y342110D01*
X275934Y342006D01*
X275953Y341900D01*
X275968Y341794D01*
X275980Y341688D01*
X275988Y341581D01*
X275992Y341474D01*
X275992Y341368D01*
X275988Y341261D01*
X275980Y341154D01*
X275968Y341048D01*
X275953Y340942D01*
X275934Y340836D01*
X275911Y340732D01*
X275884Y340628D01*
X275854Y340526D01*
X275819Y340424D01*
X275782Y340324D01*
X275740Y340226D01*
X275695Y340129D01*
X275647Y340033D01*
X275595Y339940D01*
X275540Y339848D01*
X275481Y339758D01*
X275420Y339671D01*
X275355Y339586D01*
X275287Y339503D01*
X275217Y339423D01*
X275143Y339345D01*
X275067Y339270D01*
X274988Y339198D01*
X274906Y339128D01*
X274822Y339062D01*
X274736Y338999D01*
X274647Y338939D01*
X274557Y338882D01*
X274464Y338829D01*
X274369Y338779D01*
X274273Y338732D01*
X274175Y338689D01*
X274076Y338649D01*
X273975Y338613D01*
X273873Y338581D01*
X273770Y338552D01*
X273666Y338527D01*
X273561Y338506D01*
X273455Y338489D01*
X273349Y338475D01*
X273243Y338466D01*
X273136Y338460D01*
X273029Y338458D01*
X273029Y338457D02*
X270066Y338457D01*
X273622Y338457D02*
X275993Y333716D01*
X281386Y336087D02*
X283756Y344384D01*
X281386Y336087D02*
X287312Y336087D01*
X285534Y338457D02*
X285534Y333716D01*
D12*
X361250Y320000D03*
D10*
X333316Y332366D02*
X333316Y343034D01*
X333316Y332366D02*
X338057Y332366D01*
X343222Y332366D02*
X347963Y332366D01*
X343222Y332366D02*
X343222Y343034D01*
X347963Y343034D01*
X346778Y338293D02*
X343222Y338293D01*
X353094Y343034D02*
X353094Y332366D01*
X353094Y343034D02*
X356057Y343034D01*
X356163Y343032D01*
X356268Y343026D01*
X356374Y343017D01*
X356479Y343004D01*
X356583Y342987D01*
X356687Y342966D01*
X356790Y342942D01*
X356892Y342914D01*
X356993Y342882D01*
X357092Y342847D01*
X357191Y342808D01*
X357288Y342766D01*
X357383Y342721D01*
X357477Y342672D01*
X357569Y342619D01*
X357659Y342564D01*
X357747Y342505D01*
X357833Y342443D01*
X357916Y342378D01*
X357997Y342310D01*
X358076Y342240D01*
X358152Y342166D01*
X358226Y342090D01*
X358296Y342011D01*
X358364Y341930D01*
X358429Y341847D01*
X358491Y341761D01*
X358550Y341673D01*
X358605Y341583D01*
X358658Y341491D01*
X358707Y341397D01*
X358752Y341302D01*
X358794Y341205D01*
X358833Y341106D01*
X358868Y341007D01*
X358900Y340906D01*
X358928Y340804D01*
X358952Y340701D01*
X358973Y340597D01*
X358990Y340493D01*
X359003Y340388D01*
X359012Y340282D01*
X359018Y340177D01*
X359020Y340071D01*
X359021Y340071D02*
X359021Y335329D01*
X359020Y335329D02*
X359018Y335223D01*
X359012Y335118D01*
X359003Y335012D01*
X358990Y334907D01*
X358973Y334803D01*
X358952Y334699D01*
X358928Y334596D01*
X358900Y334494D01*
X358868Y334393D01*
X358833Y334294D01*
X358794Y334195D01*
X358752Y334098D01*
X358707Y334003D01*
X358658Y333909D01*
X358605Y333817D01*
X358550Y333727D01*
X358491Y333639D01*
X358429Y333553D01*
X358364Y333470D01*
X358296Y333389D01*
X358226Y333310D01*
X358152Y333234D01*
X358076Y333160D01*
X357997Y333090D01*
X357916Y333022D01*
X357833Y332957D01*
X357747Y332895D01*
X357659Y332836D01*
X357569Y332781D01*
X357477Y332728D01*
X357383Y332679D01*
X357288Y332634D01*
X357191Y332592D01*
X357092Y332553D01*
X356993Y332518D01*
X356892Y332486D01*
X356790Y332458D01*
X356687Y332434D01*
X356583Y332413D01*
X356479Y332396D01*
X356374Y332383D01*
X356268Y332374D01*
X356163Y332368D01*
X356057Y332366D01*
X353094Y332366D01*
X364905Y340663D02*
X367868Y343034D01*
X367868Y332366D01*
X364905Y332366D02*
X370832Y332366D01*
X332300Y128430D02*
X338300Y118430D01*
X332300Y128430D02*
X326300Y118430D01*
X338300Y118430D01*
D13*
X332300Y130288D03*
D10*
X324746Y96624D02*
X324746Y85956D01*
X324746Y96624D02*
X327709Y96624D01*
X327815Y96622D01*
X327920Y96616D01*
X328026Y96607D01*
X328131Y96594D01*
X328235Y96577D01*
X328339Y96556D01*
X328442Y96532D01*
X328544Y96504D01*
X328645Y96472D01*
X328744Y96437D01*
X328843Y96398D01*
X328940Y96356D01*
X329035Y96311D01*
X329129Y96262D01*
X329221Y96209D01*
X329311Y96154D01*
X329399Y96095D01*
X329485Y96033D01*
X329568Y95968D01*
X329649Y95900D01*
X329728Y95830D01*
X329804Y95756D01*
X329878Y95680D01*
X329948Y95601D01*
X330016Y95520D01*
X330081Y95437D01*
X330143Y95351D01*
X330202Y95263D01*
X330257Y95173D01*
X330310Y95081D01*
X330359Y94987D01*
X330404Y94892D01*
X330446Y94795D01*
X330485Y94696D01*
X330520Y94597D01*
X330552Y94496D01*
X330580Y94394D01*
X330604Y94291D01*
X330625Y94187D01*
X330642Y94083D01*
X330655Y93978D01*
X330664Y93872D01*
X330670Y93767D01*
X330672Y93661D01*
X330673Y93661D02*
X330673Y88919D01*
X330672Y88919D02*
X330670Y88813D01*
X330664Y88708D01*
X330655Y88602D01*
X330642Y88497D01*
X330625Y88393D01*
X330604Y88289D01*
X330580Y88186D01*
X330552Y88084D01*
X330520Y87983D01*
X330485Y87884D01*
X330446Y87785D01*
X330404Y87688D01*
X330359Y87593D01*
X330310Y87499D01*
X330257Y87407D01*
X330202Y87317D01*
X330143Y87229D01*
X330081Y87143D01*
X330016Y87060D01*
X329948Y86979D01*
X329878Y86900D01*
X329804Y86824D01*
X329728Y86750D01*
X329649Y86680D01*
X329568Y86612D01*
X329485Y86547D01*
X329399Y86485D01*
X329311Y86426D01*
X329221Y86371D01*
X329129Y86318D01*
X329035Y86269D01*
X328940Y86224D01*
X328843Y86182D01*
X328744Y86143D01*
X328645Y86108D01*
X328544Y86076D01*
X328442Y86048D01*
X328339Y86024D01*
X328235Y86003D01*
X328131Y85986D01*
X328026Y85973D01*
X327920Y85964D01*
X327815Y85958D01*
X327709Y85956D01*
X324746Y85956D01*
X336557Y94253D02*
X339520Y96624D01*
X339520Y85956D01*
X336557Y85956D02*
X342484Y85956D01*
X247916Y214266D02*
X247916Y224934D01*
X250879Y224934D01*
X250986Y224932D01*
X251093Y224926D01*
X251199Y224917D01*
X251305Y224903D01*
X251411Y224886D01*
X251516Y224865D01*
X251620Y224840D01*
X251723Y224811D01*
X251825Y224779D01*
X251926Y224743D01*
X252025Y224703D01*
X252123Y224660D01*
X252219Y224613D01*
X252314Y224563D01*
X252407Y224510D01*
X252497Y224453D01*
X252586Y224393D01*
X252672Y224330D01*
X252756Y224264D01*
X252838Y224194D01*
X252917Y224122D01*
X252993Y224047D01*
X253067Y223969D01*
X253137Y223889D01*
X253205Y223806D01*
X253270Y223721D01*
X253331Y223634D01*
X253390Y223544D01*
X253445Y223452D01*
X253497Y223359D01*
X253545Y223263D01*
X253590Y223166D01*
X253632Y223068D01*
X253669Y222968D01*
X253704Y222866D01*
X253734Y222764D01*
X253761Y222660D01*
X253784Y222556D01*
X253803Y222450D01*
X253818Y222344D01*
X253830Y222238D01*
X253838Y222131D01*
X253842Y222024D01*
X253842Y221918D01*
X253838Y221811D01*
X253830Y221704D01*
X253818Y221598D01*
X253803Y221492D01*
X253784Y221386D01*
X253761Y221282D01*
X253734Y221178D01*
X253704Y221076D01*
X253669Y220974D01*
X253632Y220874D01*
X253590Y220776D01*
X253545Y220679D01*
X253497Y220583D01*
X253445Y220490D01*
X253390Y220398D01*
X253331Y220308D01*
X253270Y220221D01*
X253205Y220136D01*
X253137Y220053D01*
X253067Y219973D01*
X252993Y219895D01*
X252917Y219820D01*
X252838Y219748D01*
X252756Y219678D01*
X252672Y219612D01*
X252586Y219549D01*
X252497Y219489D01*
X252407Y219432D01*
X252314Y219379D01*
X252219Y219329D01*
X252123Y219282D01*
X252025Y219239D01*
X251926Y219199D01*
X251825Y219163D01*
X251723Y219131D01*
X251620Y219102D01*
X251516Y219077D01*
X251411Y219056D01*
X251305Y219039D01*
X251199Y219025D01*
X251093Y219016D01*
X250986Y219010D01*
X250879Y219008D01*
X250879Y219007D02*
X247916Y219007D01*
X251472Y219007D02*
X253843Y214266D01*
X259236Y220193D02*
X262792Y220193D01*
X262887Y220191D01*
X262983Y220185D01*
X263078Y220176D01*
X263172Y220162D01*
X263266Y220145D01*
X263359Y220124D01*
X263452Y220099D01*
X263543Y220071D01*
X263633Y220039D01*
X263721Y220003D01*
X263808Y219964D01*
X263894Y219921D01*
X263978Y219875D01*
X264059Y219826D01*
X264139Y219773D01*
X264216Y219717D01*
X264292Y219659D01*
X264364Y219597D01*
X264434Y219532D01*
X264502Y219464D01*
X264567Y219394D01*
X264629Y219322D01*
X264687Y219246D01*
X264743Y219169D01*
X264796Y219089D01*
X264845Y219008D01*
X264891Y218924D01*
X264934Y218838D01*
X264973Y218751D01*
X265009Y218663D01*
X265041Y218573D01*
X265069Y218482D01*
X265094Y218389D01*
X265115Y218296D01*
X265132Y218202D01*
X265146Y218108D01*
X265155Y218013D01*
X265161Y217917D01*
X265163Y217822D01*
X265162Y217822D02*
X265162Y217229D01*
X265160Y217122D01*
X265154Y217015D01*
X265145Y216909D01*
X265131Y216803D01*
X265114Y216697D01*
X265093Y216592D01*
X265068Y216488D01*
X265039Y216385D01*
X265007Y216283D01*
X264971Y216182D01*
X264931Y216083D01*
X264888Y215985D01*
X264841Y215889D01*
X264791Y215794D01*
X264738Y215701D01*
X264681Y215611D01*
X264621Y215522D01*
X264558Y215436D01*
X264492Y215352D01*
X264422Y215270D01*
X264350Y215191D01*
X264275Y215115D01*
X264197Y215041D01*
X264117Y214971D01*
X264034Y214903D01*
X263949Y214838D01*
X263862Y214777D01*
X263772Y214718D01*
X263681Y214663D01*
X263587Y214611D01*
X263491Y214563D01*
X263394Y214518D01*
X263296Y214476D01*
X263196Y214439D01*
X263094Y214404D01*
X262992Y214374D01*
X262888Y214347D01*
X262784Y214324D01*
X262678Y214305D01*
X262572Y214290D01*
X262466Y214278D01*
X262359Y214270D01*
X262252Y214266D01*
X262146Y214266D01*
X262039Y214270D01*
X261932Y214278D01*
X261826Y214290D01*
X261720Y214305D01*
X261614Y214324D01*
X261510Y214347D01*
X261406Y214374D01*
X261304Y214404D01*
X261202Y214439D01*
X261102Y214476D01*
X261004Y214518D01*
X260907Y214563D01*
X260811Y214611D01*
X260718Y214663D01*
X260626Y214718D01*
X260536Y214777D01*
X260449Y214838D01*
X260364Y214903D01*
X260281Y214971D01*
X260201Y215041D01*
X260123Y215115D01*
X260048Y215191D01*
X259976Y215270D01*
X259906Y215352D01*
X259840Y215436D01*
X259777Y215522D01*
X259717Y215611D01*
X259660Y215701D01*
X259607Y215794D01*
X259557Y215889D01*
X259510Y215985D01*
X259467Y216083D01*
X259427Y216182D01*
X259391Y216283D01*
X259359Y216385D01*
X259330Y216488D01*
X259305Y216592D01*
X259284Y216697D01*
X259267Y216803D01*
X259253Y216909D01*
X259244Y217015D01*
X259238Y217122D01*
X259236Y217229D01*
X259236Y220193D01*
X259238Y220328D01*
X259244Y220464D01*
X259253Y220599D01*
X259267Y220733D01*
X259284Y220868D01*
X259305Y221001D01*
X259330Y221135D01*
X259359Y221267D01*
X259392Y221398D01*
X259428Y221529D01*
X259468Y221658D01*
X259512Y221786D01*
X259559Y221913D01*
X259610Y222039D01*
X259664Y222162D01*
X259722Y222285D01*
X259784Y222405D01*
X259849Y222524D01*
X259917Y222641D01*
X259989Y222756D01*
X260063Y222869D01*
X260141Y222980D01*
X260223Y223088D01*
X260307Y223194D01*
X260394Y223298D01*
X260484Y223399D01*
X260577Y223497D01*
X260673Y223593D01*
X260771Y223686D01*
X260872Y223776D01*
X260976Y223863D01*
X261082Y223947D01*
X261190Y224029D01*
X261301Y224107D01*
X261414Y224181D01*
X261529Y224253D01*
X261646Y224321D01*
X261765Y224386D01*
X261885Y224448D01*
X262007Y224506D01*
X262131Y224560D01*
X262257Y224611D01*
X262384Y224658D01*
X262512Y224702D01*
X262641Y224742D01*
X262772Y224778D01*
X262903Y224811D01*
X263035Y224840D01*
X263169Y224865D01*
X263302Y224886D01*
X263437Y224903D01*
X263571Y224917D01*
X263706Y224926D01*
X263842Y224932D01*
X263977Y224934D01*
X202916Y169934D02*
X202916Y159266D01*
X202916Y169934D02*
X205879Y169934D01*
X205986Y169932D01*
X206093Y169926D01*
X206199Y169917D01*
X206305Y169903D01*
X206411Y169886D01*
X206516Y169865D01*
X206620Y169840D01*
X206723Y169811D01*
X206825Y169779D01*
X206926Y169743D01*
X207025Y169703D01*
X207123Y169660D01*
X207219Y169613D01*
X207314Y169563D01*
X207407Y169510D01*
X207497Y169453D01*
X207586Y169393D01*
X207672Y169330D01*
X207756Y169264D01*
X207838Y169194D01*
X207917Y169122D01*
X207993Y169047D01*
X208067Y168969D01*
X208137Y168889D01*
X208205Y168806D01*
X208270Y168721D01*
X208331Y168634D01*
X208390Y168544D01*
X208445Y168452D01*
X208497Y168359D01*
X208545Y168263D01*
X208590Y168166D01*
X208632Y168068D01*
X208669Y167968D01*
X208704Y167866D01*
X208734Y167764D01*
X208761Y167660D01*
X208784Y167556D01*
X208803Y167450D01*
X208818Y167344D01*
X208830Y167238D01*
X208838Y167131D01*
X208842Y167024D01*
X208842Y166918D01*
X208838Y166811D01*
X208830Y166704D01*
X208818Y166598D01*
X208803Y166492D01*
X208784Y166386D01*
X208761Y166282D01*
X208734Y166178D01*
X208704Y166076D01*
X208669Y165974D01*
X208632Y165874D01*
X208590Y165776D01*
X208545Y165679D01*
X208497Y165583D01*
X208445Y165490D01*
X208390Y165398D01*
X208331Y165308D01*
X208270Y165221D01*
X208205Y165136D01*
X208137Y165053D01*
X208067Y164973D01*
X207993Y164895D01*
X207917Y164820D01*
X207838Y164748D01*
X207756Y164678D01*
X207672Y164612D01*
X207586Y164549D01*
X207497Y164489D01*
X207407Y164432D01*
X207314Y164379D01*
X207219Y164329D01*
X207123Y164282D01*
X207025Y164239D01*
X206926Y164199D01*
X206825Y164163D01*
X206723Y164131D01*
X206620Y164102D01*
X206516Y164077D01*
X206411Y164056D01*
X206305Y164039D01*
X206199Y164025D01*
X206093Y164016D01*
X205986Y164010D01*
X205879Y164008D01*
X205879Y164007D02*
X202916Y164007D01*
X206472Y164007D02*
X208843Y159266D01*
X214236Y168749D02*
X214236Y169934D01*
X220162Y169934D01*
X217199Y159266D01*
X196030Y290000D02*
X206030Y296000D01*
X196030Y302000D01*
X196030Y290000D01*
D11*
X207888Y296000D03*
D10*
X233786Y292886D02*
X233786Y303554D01*
X236750Y303554D01*
X236856Y303552D01*
X236961Y303546D01*
X237067Y303537D01*
X237172Y303524D01*
X237276Y303507D01*
X237380Y303486D01*
X237483Y303462D01*
X237585Y303434D01*
X237686Y303402D01*
X237785Y303367D01*
X237884Y303328D01*
X237981Y303286D01*
X238076Y303241D01*
X238170Y303192D01*
X238262Y303139D01*
X238352Y303084D01*
X238440Y303025D01*
X238526Y302963D01*
X238609Y302898D01*
X238690Y302830D01*
X238769Y302760D01*
X238845Y302686D01*
X238919Y302610D01*
X238989Y302531D01*
X239057Y302450D01*
X239122Y302367D01*
X239184Y302281D01*
X239243Y302193D01*
X239298Y302103D01*
X239351Y302011D01*
X239400Y301917D01*
X239445Y301822D01*
X239487Y301725D01*
X239526Y301626D01*
X239561Y301527D01*
X239593Y301426D01*
X239621Y301324D01*
X239645Y301221D01*
X239666Y301117D01*
X239683Y301013D01*
X239696Y300908D01*
X239705Y300802D01*
X239711Y300697D01*
X239713Y300591D01*
X239713Y295849D01*
X239711Y295743D01*
X239705Y295638D01*
X239696Y295532D01*
X239683Y295427D01*
X239666Y295323D01*
X239645Y295219D01*
X239621Y295116D01*
X239593Y295014D01*
X239561Y294913D01*
X239526Y294814D01*
X239487Y294715D01*
X239445Y294618D01*
X239400Y294523D01*
X239351Y294429D01*
X239298Y294337D01*
X239243Y294247D01*
X239184Y294159D01*
X239122Y294073D01*
X239057Y293990D01*
X238989Y293909D01*
X238919Y293830D01*
X238845Y293754D01*
X238769Y293680D01*
X238690Y293610D01*
X238609Y293542D01*
X238526Y293477D01*
X238440Y293415D01*
X238352Y293356D01*
X238262Y293301D01*
X238170Y293248D01*
X238076Y293199D01*
X237981Y293154D01*
X237884Y293112D01*
X237785Y293073D01*
X237686Y293038D01*
X237585Y293006D01*
X237483Y292978D01*
X237380Y292954D01*
X237276Y292933D01*
X237172Y292916D01*
X237067Y292903D01*
X236961Y292894D01*
X236856Y292888D01*
X236750Y292886D01*
X233786Y292886D01*
X245597Y295257D02*
X247968Y303554D01*
X245597Y295257D02*
X251524Y295257D01*
X249746Y297627D02*
X249746Y292886D01*
X130066Y333716D02*
X130066Y344384D01*
X133029Y344384D01*
X133136Y344382D01*
X133243Y344376D01*
X133349Y344367D01*
X133455Y344353D01*
X133561Y344336D01*
X133666Y344315D01*
X133770Y344290D01*
X133873Y344261D01*
X133975Y344229D01*
X134076Y344193D01*
X134175Y344153D01*
X134273Y344110D01*
X134369Y344063D01*
X134464Y344013D01*
X134557Y343960D01*
X134647Y343903D01*
X134736Y343843D01*
X134822Y343780D01*
X134906Y343714D01*
X134988Y343644D01*
X135067Y343572D01*
X135143Y343497D01*
X135217Y343419D01*
X135287Y343339D01*
X135355Y343256D01*
X135420Y343171D01*
X135481Y343084D01*
X135540Y342994D01*
X135595Y342903D01*
X135647Y342809D01*
X135695Y342713D01*
X135740Y342616D01*
X135782Y342518D01*
X135819Y342418D01*
X135854Y342316D01*
X135884Y342214D01*
X135911Y342110D01*
X135934Y342006D01*
X135953Y341900D01*
X135968Y341794D01*
X135980Y341688D01*
X135988Y341581D01*
X135992Y341474D01*
X135992Y341368D01*
X135988Y341261D01*
X135980Y341154D01*
X135968Y341048D01*
X135953Y340942D01*
X135934Y340836D01*
X135911Y340732D01*
X135884Y340628D01*
X135854Y340526D01*
X135819Y340424D01*
X135782Y340324D01*
X135740Y340226D01*
X135695Y340129D01*
X135647Y340033D01*
X135595Y339940D01*
X135540Y339848D01*
X135481Y339758D01*
X135420Y339671D01*
X135355Y339586D01*
X135287Y339503D01*
X135217Y339423D01*
X135143Y339345D01*
X135067Y339270D01*
X134988Y339198D01*
X134906Y339128D01*
X134822Y339062D01*
X134736Y338999D01*
X134647Y338939D01*
X134557Y338882D01*
X134464Y338829D01*
X134369Y338779D01*
X134273Y338732D01*
X134175Y338689D01*
X134076Y338649D01*
X133975Y338613D01*
X133873Y338581D01*
X133770Y338552D01*
X133666Y338527D01*
X133561Y338506D01*
X133455Y338489D01*
X133349Y338475D01*
X133243Y338466D01*
X133136Y338460D01*
X133029Y338458D01*
X133029Y338457D02*
X130066Y338457D01*
X133622Y338457D02*
X135993Y333716D01*
X141386Y336679D02*
X141388Y336786D01*
X141394Y336893D01*
X141403Y336999D01*
X141417Y337105D01*
X141434Y337211D01*
X141455Y337316D01*
X141480Y337420D01*
X141509Y337523D01*
X141541Y337625D01*
X141577Y337726D01*
X141617Y337825D01*
X141660Y337923D01*
X141707Y338019D01*
X141757Y338114D01*
X141810Y338207D01*
X141867Y338297D01*
X141927Y338386D01*
X141990Y338472D01*
X142056Y338556D01*
X142126Y338638D01*
X142198Y338717D01*
X142273Y338793D01*
X142351Y338867D01*
X142431Y338937D01*
X142514Y339005D01*
X142599Y339070D01*
X142686Y339131D01*
X142776Y339190D01*
X142868Y339245D01*
X142961Y339297D01*
X143057Y339345D01*
X143154Y339390D01*
X143252Y339432D01*
X143352Y339469D01*
X143454Y339504D01*
X143556Y339534D01*
X143660Y339561D01*
X143764Y339584D01*
X143870Y339603D01*
X143976Y339618D01*
X144082Y339630D01*
X144189Y339638D01*
X144296Y339642D01*
X144402Y339642D01*
X144509Y339638D01*
X144616Y339630D01*
X144722Y339618D01*
X144828Y339603D01*
X144934Y339584D01*
X145038Y339561D01*
X145142Y339534D01*
X145244Y339504D01*
X145346Y339469D01*
X145446Y339432D01*
X145544Y339390D01*
X145641Y339345D01*
X145737Y339297D01*
X145831Y339245D01*
X145922Y339190D01*
X146012Y339131D01*
X146099Y339070D01*
X146184Y339005D01*
X146267Y338937D01*
X146347Y338867D01*
X146425Y338793D01*
X146500Y338717D01*
X146572Y338638D01*
X146642Y338556D01*
X146708Y338472D01*
X146771Y338386D01*
X146831Y338297D01*
X146888Y338207D01*
X146941Y338114D01*
X146991Y338019D01*
X147038Y337923D01*
X147081Y337825D01*
X147121Y337726D01*
X147157Y337625D01*
X147189Y337523D01*
X147218Y337420D01*
X147243Y337316D01*
X147264Y337211D01*
X147281Y337105D01*
X147295Y336999D01*
X147304Y336893D01*
X147310Y336786D01*
X147312Y336679D01*
X147310Y336572D01*
X147304Y336465D01*
X147295Y336359D01*
X147281Y336253D01*
X147264Y336147D01*
X147243Y336042D01*
X147218Y335938D01*
X147189Y335835D01*
X147157Y335733D01*
X147121Y335632D01*
X147081Y335533D01*
X147038Y335435D01*
X146991Y335339D01*
X146941Y335244D01*
X146888Y335151D01*
X146831Y335061D01*
X146771Y334972D01*
X146708Y334886D01*
X146642Y334802D01*
X146572Y334720D01*
X146500Y334641D01*
X146425Y334565D01*
X146347Y334491D01*
X146267Y334421D01*
X146184Y334353D01*
X146099Y334288D01*
X146012Y334227D01*
X145922Y334168D01*
X145830Y334113D01*
X145737Y334061D01*
X145641Y334013D01*
X145544Y333968D01*
X145446Y333926D01*
X145346Y333889D01*
X145244Y333854D01*
X145142Y333824D01*
X145038Y333797D01*
X144934Y333774D01*
X144828Y333755D01*
X144722Y333740D01*
X144616Y333728D01*
X144509Y333720D01*
X144402Y333716D01*
X144296Y333716D01*
X144189Y333720D01*
X144082Y333728D01*
X143976Y333740D01*
X143870Y333755D01*
X143764Y333774D01*
X143660Y333797D01*
X143556Y333824D01*
X143454Y333854D01*
X143352Y333889D01*
X143252Y333926D01*
X143154Y333968D01*
X143057Y334013D01*
X142961Y334061D01*
X142868Y334113D01*
X142776Y334168D01*
X142686Y334227D01*
X142599Y334288D01*
X142514Y334353D01*
X142431Y334421D01*
X142351Y334491D01*
X142273Y334565D01*
X142198Y334641D01*
X142126Y334720D01*
X142056Y334802D01*
X141990Y334886D01*
X141927Y334972D01*
X141867Y335061D01*
X141810Y335151D01*
X141757Y335244D01*
X141707Y335339D01*
X141660Y335435D01*
X141617Y335533D01*
X141577Y335632D01*
X141541Y335733D01*
X141509Y335835D01*
X141480Y335938D01*
X141455Y336042D01*
X141434Y336147D01*
X141417Y336253D01*
X141403Y336359D01*
X141394Y336465D01*
X141388Y336572D01*
X141386Y336679D01*
X141978Y342013D02*
X141980Y342110D01*
X141986Y342206D01*
X141996Y342302D01*
X142010Y342398D01*
X142027Y342493D01*
X142049Y342588D01*
X142074Y342681D01*
X142103Y342773D01*
X142136Y342864D01*
X142173Y342954D01*
X142213Y343042D01*
X142257Y343128D01*
X142304Y343212D01*
X142354Y343295D01*
X142408Y343375D01*
X142466Y343453D01*
X142526Y343529D01*
X142589Y343602D01*
X142655Y343672D01*
X142725Y343740D01*
X142796Y343805D01*
X142871Y343867D01*
X142948Y343925D01*
X143027Y343981D01*
X143108Y344033D01*
X143192Y344082D01*
X143277Y344128D01*
X143364Y344170D01*
X143453Y344208D01*
X143543Y344243D01*
X143635Y344274D01*
X143728Y344301D01*
X143821Y344325D01*
X143916Y344344D01*
X144012Y344360D01*
X144108Y344372D01*
X144204Y344380D01*
X144301Y344384D01*
X144397Y344384D01*
X144494Y344380D01*
X144590Y344372D01*
X144686Y344360D01*
X144782Y344344D01*
X144877Y344325D01*
X144970Y344301D01*
X145063Y344274D01*
X145155Y344243D01*
X145245Y344208D01*
X145334Y344170D01*
X145421Y344128D01*
X145506Y344082D01*
X145590Y344033D01*
X145671Y343981D01*
X145750Y343925D01*
X145827Y343867D01*
X145902Y343805D01*
X145973Y343740D01*
X146043Y343672D01*
X146109Y343602D01*
X146172Y343529D01*
X146232Y343453D01*
X146290Y343375D01*
X146344Y343295D01*
X146394Y343212D01*
X146441Y343128D01*
X146485Y343042D01*
X146525Y342954D01*
X146562Y342864D01*
X146595Y342773D01*
X146624Y342681D01*
X146649Y342588D01*
X146671Y342493D01*
X146688Y342398D01*
X146702Y342302D01*
X146712Y342206D01*
X146718Y342110D01*
X146720Y342013D01*
X146718Y341916D01*
X146712Y341820D01*
X146702Y341724D01*
X146688Y341628D01*
X146671Y341533D01*
X146649Y341438D01*
X146624Y341345D01*
X146595Y341253D01*
X146562Y341162D01*
X146525Y341072D01*
X146485Y340984D01*
X146441Y340898D01*
X146394Y340814D01*
X146344Y340731D01*
X146290Y340651D01*
X146232Y340573D01*
X146172Y340497D01*
X146109Y340424D01*
X146043Y340354D01*
X145973Y340286D01*
X145902Y340221D01*
X145827Y340159D01*
X145750Y340101D01*
X145671Y340045D01*
X145590Y339993D01*
X145506Y339944D01*
X145421Y339898D01*
X145334Y339856D01*
X145245Y339818D01*
X145155Y339783D01*
X145063Y339752D01*
X144970Y339725D01*
X144877Y339701D01*
X144782Y339682D01*
X144686Y339666D01*
X144590Y339654D01*
X144494Y339646D01*
X144397Y339642D01*
X144301Y339642D01*
X144204Y339646D01*
X144108Y339654D01*
X144012Y339666D01*
X143916Y339682D01*
X143821Y339701D01*
X143728Y339725D01*
X143635Y339752D01*
X143543Y339783D01*
X143453Y339818D01*
X143364Y339856D01*
X143277Y339898D01*
X143192Y339944D01*
X143108Y339993D01*
X143027Y340045D01*
X142948Y340101D01*
X142871Y340159D01*
X142796Y340221D01*
X142725Y340286D01*
X142655Y340354D01*
X142589Y340424D01*
X142526Y340497D01*
X142466Y340573D01*
X142408Y340651D01*
X142354Y340731D01*
X142304Y340814D01*
X142257Y340898D01*
X142213Y340984D01*
X142173Y341072D01*
X142136Y341162D01*
X142103Y341253D01*
X142074Y341345D01*
X142049Y341438D01*
X142027Y341533D01*
X142010Y341628D01*
X141996Y341724D01*
X141986Y341820D01*
X141980Y341916D01*
X141978Y342013D01*
X90066Y344384D02*
X90066Y333716D01*
X90066Y344384D02*
X93029Y344384D01*
X93136Y344382D01*
X93243Y344376D01*
X93349Y344367D01*
X93455Y344353D01*
X93561Y344336D01*
X93666Y344315D01*
X93770Y344290D01*
X93873Y344261D01*
X93975Y344229D01*
X94076Y344193D01*
X94175Y344153D01*
X94273Y344110D01*
X94369Y344063D01*
X94464Y344013D01*
X94557Y343960D01*
X94647Y343903D01*
X94736Y343843D01*
X94822Y343780D01*
X94906Y343714D01*
X94988Y343644D01*
X95067Y343572D01*
X95143Y343497D01*
X95217Y343419D01*
X95287Y343339D01*
X95355Y343256D01*
X95420Y343171D01*
X95481Y343084D01*
X95540Y342994D01*
X95595Y342903D01*
X95647Y342809D01*
X95695Y342713D01*
X95740Y342616D01*
X95782Y342518D01*
X95819Y342418D01*
X95854Y342316D01*
X95884Y342214D01*
X95911Y342110D01*
X95934Y342006D01*
X95953Y341900D01*
X95968Y341794D01*
X95980Y341688D01*
X95988Y341581D01*
X95992Y341474D01*
X95992Y341368D01*
X95988Y341261D01*
X95980Y341154D01*
X95968Y341048D01*
X95953Y340942D01*
X95934Y340836D01*
X95911Y340732D01*
X95884Y340628D01*
X95854Y340526D01*
X95819Y340424D01*
X95782Y340324D01*
X95740Y340226D01*
X95695Y340129D01*
X95647Y340033D01*
X95595Y339940D01*
X95540Y339848D01*
X95481Y339758D01*
X95420Y339671D01*
X95355Y339586D01*
X95287Y339503D01*
X95217Y339423D01*
X95143Y339345D01*
X95067Y339270D01*
X94988Y339198D01*
X94906Y339128D01*
X94822Y339062D01*
X94736Y338999D01*
X94647Y338939D01*
X94557Y338882D01*
X94464Y338829D01*
X94369Y338779D01*
X94273Y338732D01*
X94175Y338689D01*
X94076Y338649D01*
X93975Y338613D01*
X93873Y338581D01*
X93770Y338552D01*
X93666Y338527D01*
X93561Y338506D01*
X93455Y338489D01*
X93349Y338475D01*
X93243Y338466D01*
X93136Y338460D01*
X93029Y338458D01*
X93029Y338457D02*
X90066Y338457D01*
X93622Y338457D02*
X95993Y333716D01*
X103756Y338457D02*
X107312Y338457D01*
X103756Y338457D02*
X103661Y338459D01*
X103565Y338465D01*
X103470Y338474D01*
X103376Y338488D01*
X103282Y338505D01*
X103189Y338526D01*
X103096Y338551D01*
X103005Y338579D01*
X102915Y338611D01*
X102827Y338647D01*
X102740Y338686D01*
X102654Y338729D01*
X102570Y338775D01*
X102489Y338824D01*
X102409Y338877D01*
X102332Y338933D01*
X102256Y338991D01*
X102184Y339053D01*
X102114Y339118D01*
X102046Y339186D01*
X101981Y339256D01*
X101919Y339328D01*
X101861Y339404D01*
X101805Y339481D01*
X101752Y339561D01*
X101703Y339643D01*
X101657Y339726D01*
X101614Y339812D01*
X101575Y339899D01*
X101539Y339987D01*
X101507Y340077D01*
X101479Y340168D01*
X101454Y340261D01*
X101433Y340354D01*
X101416Y340448D01*
X101402Y340542D01*
X101393Y340637D01*
X101387Y340733D01*
X101385Y340828D01*
X101386Y340828D02*
X101386Y341421D01*
X101388Y341528D01*
X101394Y341635D01*
X101403Y341741D01*
X101417Y341847D01*
X101434Y341953D01*
X101455Y342058D01*
X101480Y342162D01*
X101509Y342265D01*
X101541Y342367D01*
X101577Y342468D01*
X101617Y342567D01*
X101660Y342665D01*
X101707Y342761D01*
X101757Y342856D01*
X101810Y342949D01*
X101867Y343039D01*
X101927Y343128D01*
X101990Y343214D01*
X102056Y343298D01*
X102126Y343380D01*
X102198Y343459D01*
X102273Y343535D01*
X102351Y343609D01*
X102431Y343679D01*
X102514Y343747D01*
X102599Y343812D01*
X102686Y343873D01*
X102776Y343932D01*
X102868Y343987D01*
X102961Y344039D01*
X103057Y344087D01*
X103154Y344132D01*
X103252Y344174D01*
X103352Y344211D01*
X103454Y344246D01*
X103556Y344276D01*
X103660Y344303D01*
X103764Y344326D01*
X103870Y344345D01*
X103976Y344360D01*
X104082Y344372D01*
X104189Y344380D01*
X104296Y344384D01*
X104402Y344384D01*
X104509Y344380D01*
X104616Y344372D01*
X104722Y344360D01*
X104828Y344345D01*
X104934Y344326D01*
X105038Y344303D01*
X105142Y344276D01*
X105244Y344246D01*
X105346Y344211D01*
X105446Y344174D01*
X105544Y344132D01*
X105641Y344087D01*
X105737Y344039D01*
X105831Y343987D01*
X105922Y343932D01*
X106012Y343873D01*
X106099Y343812D01*
X106184Y343747D01*
X106267Y343679D01*
X106347Y343609D01*
X106425Y343535D01*
X106500Y343459D01*
X106572Y343380D01*
X106642Y343298D01*
X106708Y343214D01*
X106771Y343128D01*
X106831Y343039D01*
X106888Y342949D01*
X106941Y342856D01*
X106991Y342761D01*
X107038Y342665D01*
X107081Y342567D01*
X107121Y342468D01*
X107157Y342367D01*
X107189Y342265D01*
X107218Y342162D01*
X107243Y342058D01*
X107264Y341953D01*
X107281Y341847D01*
X107295Y341741D01*
X107304Y341635D01*
X107310Y341528D01*
X107312Y341421D01*
X107312Y338457D01*
X107310Y338322D01*
X107304Y338186D01*
X107295Y338051D01*
X107281Y337917D01*
X107264Y337782D01*
X107243Y337649D01*
X107218Y337515D01*
X107189Y337383D01*
X107156Y337252D01*
X107120Y337121D01*
X107080Y336992D01*
X107036Y336864D01*
X106989Y336737D01*
X106938Y336611D01*
X106884Y336488D01*
X106826Y336365D01*
X106764Y336245D01*
X106699Y336126D01*
X106631Y336009D01*
X106559Y335894D01*
X106485Y335781D01*
X106407Y335670D01*
X106325Y335562D01*
X106241Y335456D01*
X106154Y335352D01*
X106064Y335251D01*
X105971Y335153D01*
X105875Y335057D01*
X105777Y334964D01*
X105676Y334874D01*
X105572Y334787D01*
X105466Y334703D01*
X105358Y334621D01*
X105247Y334543D01*
X105134Y334469D01*
X105019Y334397D01*
X104902Y334329D01*
X104783Y334264D01*
X104663Y334202D01*
X104540Y334144D01*
X104417Y334090D01*
X104291Y334039D01*
X104164Y333992D01*
X104036Y333948D01*
X103907Y333908D01*
X103776Y333872D01*
X103645Y333839D01*
X103513Y333810D01*
X103379Y333785D01*
X103246Y333764D01*
X103111Y333747D01*
X102977Y333733D01*
X102842Y333724D01*
X102706Y333718D01*
X102571Y333716D01*
D12*
X181250Y320000D03*
D10*
X168316Y332366D02*
X168316Y343034D01*
X168316Y332366D02*
X173057Y332366D01*
X178222Y332366D02*
X182963Y332366D01*
X178222Y332366D02*
X178222Y343034D01*
X182963Y343034D01*
X181778Y338293D02*
X178222Y338293D01*
X188094Y343034D02*
X188094Y332366D01*
X188094Y343034D02*
X191057Y343034D01*
X191163Y343032D01*
X191268Y343026D01*
X191374Y343017D01*
X191479Y343004D01*
X191583Y342987D01*
X191687Y342966D01*
X191790Y342942D01*
X191892Y342914D01*
X191993Y342882D01*
X192092Y342847D01*
X192191Y342808D01*
X192288Y342766D01*
X192383Y342721D01*
X192477Y342672D01*
X192569Y342619D01*
X192659Y342564D01*
X192747Y342505D01*
X192833Y342443D01*
X192916Y342378D01*
X192997Y342310D01*
X193076Y342240D01*
X193152Y342166D01*
X193226Y342090D01*
X193296Y342011D01*
X193364Y341930D01*
X193429Y341847D01*
X193491Y341761D01*
X193550Y341673D01*
X193605Y341583D01*
X193658Y341491D01*
X193707Y341397D01*
X193752Y341302D01*
X193794Y341205D01*
X193833Y341106D01*
X193868Y341007D01*
X193900Y340906D01*
X193928Y340804D01*
X193952Y340701D01*
X193973Y340597D01*
X193990Y340493D01*
X194003Y340388D01*
X194012Y340282D01*
X194018Y340177D01*
X194020Y340071D01*
X194021Y340071D02*
X194021Y335329D01*
X194020Y335329D02*
X194018Y335223D01*
X194012Y335118D01*
X194003Y335012D01*
X193990Y334907D01*
X193973Y334803D01*
X193952Y334699D01*
X193928Y334596D01*
X193900Y334494D01*
X193868Y334393D01*
X193833Y334294D01*
X193794Y334195D01*
X193752Y334098D01*
X193707Y334003D01*
X193658Y333909D01*
X193605Y333817D01*
X193550Y333727D01*
X193491Y333639D01*
X193429Y333553D01*
X193364Y333470D01*
X193296Y333389D01*
X193226Y333310D01*
X193152Y333234D01*
X193076Y333160D01*
X192997Y333090D01*
X192916Y333022D01*
X192833Y332957D01*
X192747Y332895D01*
X192659Y332836D01*
X192569Y332781D01*
X192477Y332728D01*
X192383Y332679D01*
X192288Y332634D01*
X192191Y332592D01*
X192092Y332553D01*
X191993Y332518D01*
X191892Y332486D01*
X191790Y332458D01*
X191687Y332434D01*
X191583Y332413D01*
X191479Y332396D01*
X191374Y332383D01*
X191268Y332374D01*
X191163Y332368D01*
X191057Y332366D01*
X188094Y332366D01*
X203165Y343034D02*
X203267Y343032D01*
X203369Y343026D01*
X203471Y343016D01*
X203572Y343003D01*
X203673Y342985D01*
X203773Y342964D01*
X203872Y342939D01*
X203970Y342910D01*
X204066Y342877D01*
X204162Y342841D01*
X204256Y342801D01*
X204348Y342757D01*
X204439Y342710D01*
X204528Y342659D01*
X204615Y342606D01*
X204699Y342548D01*
X204782Y342488D01*
X204862Y342425D01*
X204939Y342358D01*
X205014Y342289D01*
X205087Y342216D01*
X205156Y342141D01*
X205223Y342064D01*
X205286Y341984D01*
X205346Y341901D01*
X205404Y341817D01*
X205457Y341730D01*
X205508Y341641D01*
X205555Y341550D01*
X205599Y341458D01*
X205639Y341364D01*
X205675Y341268D01*
X205708Y341172D01*
X205737Y341074D01*
X205762Y340975D01*
X205783Y340875D01*
X205801Y340774D01*
X205814Y340673D01*
X205824Y340571D01*
X205830Y340469D01*
X205832Y340367D01*
X203165Y343034D02*
X203049Y343032D01*
X202932Y343026D01*
X202816Y343016D01*
X202701Y343002D01*
X202586Y342985D01*
X202471Y342963D01*
X202358Y342937D01*
X202245Y342908D01*
X202133Y342875D01*
X202023Y342838D01*
X201914Y342797D01*
X201806Y342753D01*
X201700Y342705D01*
X201596Y342653D01*
X201493Y342598D01*
X201392Y342540D01*
X201294Y342478D01*
X201197Y342413D01*
X201103Y342344D01*
X201011Y342272D01*
X200922Y342198D01*
X200835Y342120D01*
X200751Y342039D01*
X200670Y341956D01*
X200592Y341870D01*
X200516Y341781D01*
X200444Y341690D01*
X200375Y341596D01*
X200309Y341500D01*
X200246Y341402D01*
X200187Y341302D01*
X200131Y341200D01*
X200079Y341096D01*
X200030Y340990D01*
X199985Y340883D01*
X199943Y340774D01*
X199906Y340664D01*
X204943Y338292D02*
X205018Y338366D01*
X205090Y338443D01*
X205159Y338523D01*
X205226Y338605D01*
X205289Y338689D01*
X205349Y338776D01*
X205406Y338864D01*
X205460Y338955D01*
X205510Y339048D01*
X205557Y339142D01*
X205600Y339238D01*
X205640Y339336D01*
X205676Y339435D01*
X205709Y339535D01*
X205737Y339637D01*
X205762Y339739D01*
X205784Y339843D01*
X205801Y339947D01*
X205815Y340051D01*
X205824Y340156D01*
X205830Y340262D01*
X205832Y340367D01*
X204943Y338293D02*
X199905Y332366D01*
X205832Y332366D01*
X261200Y164830D02*
X267200Y154830D01*
X261200Y164830D02*
X255200Y154830D01*
X267200Y154830D01*
D13*
X261200Y166688D03*
D10*
X253646Y192356D02*
X253646Y203024D01*
X256609Y203024D01*
X256715Y203022D01*
X256820Y203016D01*
X256926Y203007D01*
X257031Y202994D01*
X257135Y202977D01*
X257239Y202956D01*
X257342Y202932D01*
X257444Y202904D01*
X257545Y202872D01*
X257644Y202837D01*
X257743Y202798D01*
X257840Y202756D01*
X257935Y202711D01*
X258029Y202662D01*
X258121Y202609D01*
X258211Y202554D01*
X258299Y202495D01*
X258385Y202433D01*
X258468Y202368D01*
X258549Y202300D01*
X258628Y202230D01*
X258704Y202156D01*
X258778Y202080D01*
X258848Y202001D01*
X258916Y201920D01*
X258981Y201837D01*
X259043Y201751D01*
X259102Y201663D01*
X259157Y201573D01*
X259210Y201481D01*
X259259Y201387D01*
X259304Y201292D01*
X259346Y201195D01*
X259385Y201096D01*
X259420Y200997D01*
X259452Y200896D01*
X259480Y200794D01*
X259504Y200691D01*
X259525Y200587D01*
X259542Y200483D01*
X259555Y200378D01*
X259564Y200272D01*
X259570Y200167D01*
X259572Y200061D01*
X259573Y200061D02*
X259573Y195319D01*
X259572Y195319D02*
X259570Y195213D01*
X259564Y195108D01*
X259555Y195002D01*
X259542Y194897D01*
X259525Y194793D01*
X259504Y194689D01*
X259480Y194586D01*
X259452Y194484D01*
X259420Y194383D01*
X259385Y194284D01*
X259346Y194185D01*
X259304Y194088D01*
X259259Y193993D01*
X259210Y193899D01*
X259157Y193807D01*
X259102Y193717D01*
X259043Y193629D01*
X258981Y193543D01*
X258916Y193460D01*
X258848Y193379D01*
X258778Y193300D01*
X258704Y193224D01*
X258628Y193150D01*
X258549Y193080D01*
X258468Y193012D01*
X258385Y192947D01*
X258299Y192885D01*
X258211Y192826D01*
X258121Y192771D01*
X258029Y192718D01*
X257935Y192669D01*
X257840Y192624D01*
X257743Y192582D01*
X257644Y192543D01*
X257545Y192508D01*
X257444Y192476D01*
X257342Y192448D01*
X257239Y192424D01*
X257135Y192403D01*
X257031Y192386D01*
X256926Y192373D01*
X256820Y192364D01*
X256715Y192358D01*
X256609Y192356D01*
X253646Y192356D01*
X265457Y192356D02*
X268420Y192356D01*
X268527Y192358D01*
X268634Y192364D01*
X268740Y192373D01*
X268846Y192387D01*
X268952Y192404D01*
X269057Y192425D01*
X269161Y192450D01*
X269264Y192479D01*
X269366Y192511D01*
X269467Y192547D01*
X269566Y192587D01*
X269664Y192630D01*
X269760Y192677D01*
X269855Y192727D01*
X269948Y192780D01*
X270038Y192837D01*
X270127Y192897D01*
X270213Y192960D01*
X270297Y193026D01*
X270379Y193096D01*
X270458Y193168D01*
X270534Y193243D01*
X270608Y193321D01*
X270678Y193401D01*
X270746Y193484D01*
X270811Y193569D01*
X270872Y193656D01*
X270931Y193746D01*
X270986Y193838D01*
X271038Y193931D01*
X271086Y194027D01*
X271131Y194124D01*
X271173Y194222D01*
X271210Y194322D01*
X271245Y194424D01*
X271275Y194526D01*
X271302Y194630D01*
X271325Y194734D01*
X271344Y194840D01*
X271359Y194946D01*
X271371Y195052D01*
X271379Y195159D01*
X271383Y195266D01*
X271383Y195372D01*
X271379Y195479D01*
X271371Y195586D01*
X271359Y195692D01*
X271344Y195798D01*
X271325Y195904D01*
X271302Y196008D01*
X271275Y196112D01*
X271245Y196214D01*
X271210Y196316D01*
X271173Y196416D01*
X271131Y196514D01*
X271086Y196611D01*
X271038Y196707D01*
X270986Y196800D01*
X270931Y196892D01*
X270872Y196982D01*
X270811Y197069D01*
X270746Y197154D01*
X270678Y197237D01*
X270608Y197317D01*
X270534Y197395D01*
X270458Y197470D01*
X270379Y197542D01*
X270297Y197612D01*
X270213Y197678D01*
X270127Y197741D01*
X270038Y197801D01*
X269948Y197858D01*
X269855Y197911D01*
X269760Y197961D01*
X269664Y198008D01*
X269566Y198051D01*
X269467Y198091D01*
X269366Y198127D01*
X269264Y198159D01*
X269161Y198188D01*
X269057Y198213D01*
X268952Y198234D01*
X268846Y198251D01*
X268740Y198265D01*
X268634Y198274D01*
X268527Y198280D01*
X268420Y198282D01*
X269013Y203024D02*
X265457Y203024D01*
X269013Y203024D02*
X269110Y203022D01*
X269206Y203016D01*
X269302Y203006D01*
X269398Y202992D01*
X269493Y202975D01*
X269588Y202953D01*
X269681Y202928D01*
X269773Y202899D01*
X269864Y202866D01*
X269954Y202829D01*
X270042Y202789D01*
X270128Y202745D01*
X270212Y202698D01*
X270295Y202648D01*
X270375Y202594D01*
X270453Y202536D01*
X270529Y202476D01*
X270602Y202413D01*
X270672Y202347D01*
X270740Y202277D01*
X270805Y202206D01*
X270867Y202131D01*
X270925Y202054D01*
X270981Y201975D01*
X271033Y201894D01*
X271082Y201810D01*
X271128Y201725D01*
X271170Y201638D01*
X271208Y201549D01*
X271243Y201459D01*
X271274Y201367D01*
X271301Y201274D01*
X271325Y201181D01*
X271344Y201086D01*
X271360Y200990D01*
X271372Y200894D01*
X271380Y200798D01*
X271384Y200701D01*
X271384Y200605D01*
X271380Y200508D01*
X271372Y200412D01*
X271360Y200316D01*
X271344Y200220D01*
X271325Y200125D01*
X271301Y200032D01*
X271274Y199939D01*
X271243Y199847D01*
X271208Y199757D01*
X271170Y199668D01*
X271128Y199581D01*
X271082Y199496D01*
X271033Y199412D01*
X270981Y199331D01*
X270925Y199252D01*
X270867Y199175D01*
X270805Y199100D01*
X270740Y199029D01*
X270672Y198959D01*
X270602Y198893D01*
X270529Y198830D01*
X270453Y198770D01*
X270375Y198712D01*
X270295Y198658D01*
X270212Y198608D01*
X270128Y198561D01*
X270042Y198517D01*
X269954Y198477D01*
X269864Y198440D01*
X269773Y198407D01*
X269681Y198378D01*
X269588Y198353D01*
X269493Y198331D01*
X269398Y198314D01*
X269302Y198300D01*
X269206Y198290D01*
X269110Y198284D01*
X269013Y198282D01*
X269013Y198283D02*
X266642Y198283D01*
D14*
X73650Y44500D02*
X60950Y44500D01*
X73650Y44500D02*
X80000Y38150D01*
X80000Y25450D01*
X73650Y19100D01*
X80000Y38150D02*
X86350Y44500D01*
X99050Y44500D01*
X105400Y38150D01*
X105400Y25450D01*
X99050Y19100D01*
X86350Y19100D01*
X80000Y25450D01*
X54600Y25450D02*
X54600Y38150D01*
X60950Y44500D01*
X54600Y25450D02*
X60950Y19100D01*
X73650Y19100D01*
X105400Y38150D02*
X111750Y44500D01*
X124450Y44500D01*
X130800Y38150D01*
X130800Y25450D01*
X124450Y19100D01*
X111750Y19100D01*
X105400Y25450D01*
D10*
X5616Y54326D02*
X5616Y66518D01*
X9003Y66518D01*
X9119Y66516D01*
X9234Y66510D01*
X9349Y66500D01*
X9464Y66486D01*
X9578Y66469D01*
X9692Y66447D01*
X9805Y66422D01*
X9917Y66392D01*
X10028Y66359D01*
X10137Y66322D01*
X10246Y66282D01*
X10352Y66238D01*
X10458Y66190D01*
X10561Y66138D01*
X10663Y66083D01*
X10763Y66025D01*
X10861Y65963D01*
X10956Y65898D01*
X11050Y65830D01*
X11140Y65758D01*
X11229Y65684D01*
X11315Y65606D01*
X11398Y65526D01*
X11478Y65443D01*
X11556Y65357D01*
X11630Y65268D01*
X11702Y65178D01*
X11770Y65084D01*
X11835Y64989D01*
X11897Y64891D01*
X11955Y64791D01*
X12010Y64689D01*
X12062Y64586D01*
X12110Y64480D01*
X12154Y64374D01*
X12194Y64265D01*
X12231Y64156D01*
X12264Y64045D01*
X12294Y63933D01*
X12319Y63820D01*
X12341Y63706D01*
X12358Y63592D01*
X12372Y63477D01*
X12382Y63362D01*
X12388Y63247D01*
X12390Y63131D01*
X12388Y63015D01*
X12382Y62900D01*
X12372Y62785D01*
X12358Y62670D01*
X12341Y62556D01*
X12319Y62442D01*
X12294Y62329D01*
X12264Y62217D01*
X12231Y62106D01*
X12194Y61997D01*
X12154Y61888D01*
X12110Y61782D01*
X12062Y61676D01*
X12010Y61573D01*
X11955Y61471D01*
X11897Y61371D01*
X11835Y61273D01*
X11770Y61178D01*
X11702Y61084D01*
X11630Y60994D01*
X11556Y60905D01*
X11478Y60819D01*
X11398Y60736D01*
X11315Y60656D01*
X11229Y60578D01*
X11140Y60504D01*
X11050Y60432D01*
X10956Y60364D01*
X10861Y60299D01*
X10763Y60237D01*
X10663Y60179D01*
X10561Y60124D01*
X10458Y60072D01*
X10352Y60024D01*
X10246Y59980D01*
X10137Y59940D01*
X10028Y59903D01*
X9917Y59870D01*
X9805Y59840D01*
X9692Y59815D01*
X9578Y59793D01*
X9464Y59776D01*
X9349Y59762D01*
X9234Y59752D01*
X9119Y59746D01*
X9003Y59744D01*
X9003Y59745D02*
X5616Y59745D01*
X17727Y57713D02*
X17727Y63131D01*
X17726Y63131D02*
X17728Y63247D01*
X17734Y63362D01*
X17744Y63477D01*
X17758Y63592D01*
X17775Y63706D01*
X17797Y63820D01*
X17822Y63933D01*
X17852Y64045D01*
X17885Y64156D01*
X17922Y64265D01*
X17962Y64374D01*
X18006Y64480D01*
X18054Y64586D01*
X18106Y64689D01*
X18161Y64791D01*
X18219Y64891D01*
X18281Y64989D01*
X18346Y65084D01*
X18414Y65178D01*
X18486Y65268D01*
X18560Y65357D01*
X18638Y65443D01*
X18718Y65526D01*
X18801Y65606D01*
X18887Y65684D01*
X18976Y65758D01*
X19066Y65830D01*
X19160Y65898D01*
X19255Y65963D01*
X19353Y66025D01*
X19453Y66083D01*
X19555Y66138D01*
X19658Y66190D01*
X19764Y66238D01*
X19870Y66282D01*
X19979Y66322D01*
X20088Y66359D01*
X20199Y66392D01*
X20311Y66422D01*
X20424Y66447D01*
X20538Y66469D01*
X20652Y66486D01*
X20767Y66500D01*
X20882Y66510D01*
X20997Y66516D01*
X21113Y66518D01*
X21229Y66516D01*
X21344Y66510D01*
X21459Y66500D01*
X21574Y66486D01*
X21688Y66469D01*
X21802Y66447D01*
X21915Y66422D01*
X22027Y66392D01*
X22138Y66359D01*
X22247Y66322D01*
X22356Y66282D01*
X22462Y66238D01*
X22568Y66190D01*
X22671Y66138D01*
X22773Y66083D01*
X22873Y66025D01*
X22971Y65963D01*
X23066Y65898D01*
X23160Y65830D01*
X23250Y65758D01*
X23339Y65684D01*
X23425Y65606D01*
X23508Y65526D01*
X23588Y65443D01*
X23666Y65357D01*
X23740Y65268D01*
X23812Y65178D01*
X23880Y65084D01*
X23945Y64989D01*
X24007Y64891D01*
X24065Y64791D01*
X24120Y64689D01*
X24172Y64586D01*
X24220Y64480D01*
X24264Y64374D01*
X24304Y64265D01*
X24341Y64156D01*
X24374Y64045D01*
X24404Y63933D01*
X24429Y63820D01*
X24451Y63706D01*
X24468Y63592D01*
X24482Y63477D01*
X24492Y63362D01*
X24498Y63247D01*
X24500Y63131D01*
X24500Y57713D01*
X24498Y57597D01*
X24492Y57482D01*
X24482Y57367D01*
X24468Y57252D01*
X24451Y57138D01*
X24429Y57024D01*
X24404Y56911D01*
X24374Y56799D01*
X24341Y56688D01*
X24304Y56579D01*
X24264Y56470D01*
X24220Y56364D01*
X24172Y56258D01*
X24120Y56155D01*
X24065Y56053D01*
X24007Y55953D01*
X23945Y55855D01*
X23880Y55760D01*
X23812Y55666D01*
X23740Y55576D01*
X23666Y55487D01*
X23588Y55401D01*
X23508Y55318D01*
X23425Y55238D01*
X23339Y55160D01*
X23250Y55086D01*
X23160Y55014D01*
X23066Y54946D01*
X22971Y54881D01*
X22873Y54819D01*
X22773Y54761D01*
X22671Y54706D01*
X22568Y54654D01*
X22462Y54606D01*
X22356Y54562D01*
X22247Y54522D01*
X22138Y54485D01*
X22027Y54452D01*
X21915Y54422D01*
X21802Y54397D01*
X21688Y54375D01*
X21574Y54358D01*
X21459Y54344D01*
X21344Y54334D01*
X21229Y54328D01*
X21113Y54326D01*
X20997Y54328D01*
X20882Y54334D01*
X20767Y54344D01*
X20652Y54358D01*
X20538Y54375D01*
X20424Y54397D01*
X20311Y54422D01*
X20199Y54452D01*
X20088Y54485D01*
X19979Y54522D01*
X19870Y54562D01*
X19764Y54606D01*
X19658Y54654D01*
X19555Y54706D01*
X19453Y54761D01*
X19353Y54819D01*
X19255Y54881D01*
X19160Y54946D01*
X19066Y55014D01*
X18976Y55086D01*
X18887Y55160D01*
X18801Y55238D01*
X18718Y55318D01*
X18638Y55401D01*
X18560Y55487D01*
X18486Y55576D01*
X18414Y55666D01*
X18346Y55760D01*
X18281Y55855D01*
X18219Y55953D01*
X18161Y56053D01*
X18106Y56155D01*
X18054Y56258D01*
X18006Y56364D01*
X17962Y56470D01*
X17922Y56579D01*
X17885Y56688D01*
X17852Y56799D01*
X17822Y56911D01*
X17797Y57024D01*
X17775Y57138D01*
X17758Y57252D01*
X17744Y57367D01*
X17734Y57482D01*
X17728Y57597D01*
X17726Y57713D01*
X30203Y66518D02*
X32912Y54326D01*
X35622Y62454D01*
X38331Y54326D01*
X41040Y66518D01*
X47206Y54326D02*
X52624Y54326D01*
X47206Y54326D02*
X47206Y66518D01*
X52624Y66518D01*
X51270Y61099D02*
X47206Y61099D01*
X58380Y66518D02*
X58380Y54326D01*
X58380Y66518D02*
X61767Y66518D01*
X61883Y66516D01*
X61998Y66510D01*
X62113Y66500D01*
X62228Y66486D01*
X62342Y66469D01*
X62456Y66447D01*
X62569Y66422D01*
X62681Y66392D01*
X62792Y66359D01*
X62901Y66322D01*
X63010Y66282D01*
X63116Y66238D01*
X63222Y66190D01*
X63325Y66138D01*
X63427Y66083D01*
X63527Y66025D01*
X63625Y65963D01*
X63720Y65898D01*
X63814Y65830D01*
X63904Y65758D01*
X63993Y65684D01*
X64079Y65606D01*
X64162Y65526D01*
X64242Y65443D01*
X64320Y65357D01*
X64394Y65268D01*
X64466Y65178D01*
X64534Y65084D01*
X64599Y64989D01*
X64661Y64891D01*
X64719Y64791D01*
X64774Y64689D01*
X64826Y64586D01*
X64874Y64480D01*
X64918Y64374D01*
X64958Y64265D01*
X64995Y64156D01*
X65028Y64045D01*
X65058Y63933D01*
X65083Y63820D01*
X65105Y63706D01*
X65122Y63592D01*
X65136Y63477D01*
X65146Y63362D01*
X65152Y63247D01*
X65154Y63131D01*
X65152Y63015D01*
X65146Y62900D01*
X65136Y62785D01*
X65122Y62670D01*
X65105Y62556D01*
X65083Y62442D01*
X65058Y62329D01*
X65028Y62217D01*
X64995Y62106D01*
X64958Y61997D01*
X64918Y61888D01*
X64874Y61782D01*
X64826Y61676D01*
X64774Y61573D01*
X64719Y61471D01*
X64661Y61371D01*
X64599Y61273D01*
X64534Y61178D01*
X64466Y61084D01*
X64394Y60994D01*
X64320Y60905D01*
X64242Y60819D01*
X64162Y60736D01*
X64079Y60656D01*
X63993Y60578D01*
X63904Y60504D01*
X63814Y60432D01*
X63720Y60364D01*
X63625Y60299D01*
X63527Y60237D01*
X63427Y60179D01*
X63325Y60124D01*
X63222Y60072D01*
X63116Y60024D01*
X63010Y59980D01*
X62901Y59940D01*
X62792Y59903D01*
X62681Y59870D01*
X62569Y59840D01*
X62456Y59815D01*
X62342Y59793D01*
X62228Y59776D01*
X62113Y59762D01*
X61998Y59752D01*
X61883Y59746D01*
X61767Y59744D01*
X61767Y59745D02*
X58380Y59745D01*
X62444Y59745D02*
X65153Y54326D01*
D14*
X235400Y386350D02*
X241750Y392700D01*
X254450Y392700D01*
X260800Y386350D01*
X260800Y373650D01*
X254450Y367300D01*
X241750Y367300D01*
X235400Y373650D01*
X203650Y392700D02*
X190950Y392700D01*
X203650Y392700D02*
X210000Y386350D01*
X210000Y373650D01*
X203650Y367300D01*
X210000Y386350D02*
X216350Y392700D01*
X229050Y392700D01*
X235400Y386350D01*
X235400Y373650D01*
X229050Y367300D01*
X216350Y367300D01*
X210000Y373650D01*
X184600Y373650D02*
X184600Y386350D01*
X190950Y392700D01*
X184600Y373650D02*
X190950Y367300D01*
X203650Y367300D01*
X267150Y392700D02*
X279850Y392700D01*
X286200Y386350D01*
X286200Y373650D01*
X279850Y367300D01*
X260800Y386350D02*
X267150Y392700D01*
X260800Y373650D02*
X267150Y367300D01*
X279850Y367300D01*
D10*
X237389Y405235D02*
X237387Y405134D01*
X237381Y405033D01*
X237372Y404932D01*
X237359Y404831D01*
X237342Y404731D01*
X237321Y404632D01*
X237297Y404534D01*
X237269Y404437D01*
X237237Y404340D01*
X237202Y404245D01*
X237163Y404152D01*
X237121Y404060D01*
X237075Y403969D01*
X237026Y403881D01*
X236974Y403794D01*
X236918Y403709D01*
X236860Y403626D01*
X236798Y403546D01*
X236733Y403468D01*
X236666Y403392D01*
X236596Y403319D01*
X236523Y403249D01*
X236447Y403182D01*
X236369Y403117D01*
X236289Y403055D01*
X236206Y402997D01*
X236121Y402941D01*
X236035Y402889D01*
X235946Y402840D01*
X235855Y402794D01*
X235763Y402752D01*
X235670Y402713D01*
X235575Y402678D01*
X235478Y402646D01*
X235381Y402618D01*
X235283Y402594D01*
X235184Y402573D01*
X235084Y402556D01*
X234983Y402543D01*
X234882Y402534D01*
X234781Y402528D01*
X234680Y402526D01*
X234529Y402528D01*
X234379Y402534D01*
X234229Y402544D01*
X234079Y402558D01*
X233929Y402575D01*
X233780Y402597D01*
X233631Y402623D01*
X233484Y402652D01*
X233337Y402686D01*
X233191Y402723D01*
X233046Y402764D01*
X232902Y402809D01*
X232760Y402858D01*
X232618Y402910D01*
X232478Y402966D01*
X232340Y403026D01*
X232204Y403089D01*
X232069Y403156D01*
X231935Y403227D01*
X231804Y403301D01*
X231675Y403378D01*
X231548Y403459D01*
X231423Y403543D01*
X231300Y403630D01*
X231180Y403721D01*
X231062Y403815D01*
X230946Y403911D01*
X230833Y404011D01*
X230723Y404114D01*
X230616Y404219D01*
X230955Y412009D02*
X230957Y412110D01*
X230963Y412211D01*
X230972Y412312D01*
X230985Y412413D01*
X231002Y412513D01*
X231023Y412612D01*
X231047Y412710D01*
X231075Y412807D01*
X231107Y412904D01*
X231142Y412999D01*
X231181Y413092D01*
X231223Y413184D01*
X231269Y413275D01*
X231318Y413364D01*
X231370Y413450D01*
X231426Y413535D01*
X231484Y413618D01*
X231546Y413698D01*
X231611Y413776D01*
X231678Y413852D01*
X231748Y413925D01*
X231821Y413995D01*
X231897Y414062D01*
X231975Y414127D01*
X232055Y414189D01*
X232138Y414247D01*
X232223Y414303D01*
X232310Y414355D01*
X232398Y414404D01*
X232489Y414450D01*
X232581Y414492D01*
X232674Y414531D01*
X232769Y414566D01*
X232866Y414598D01*
X232963Y414626D01*
X233061Y414650D01*
X233160Y414671D01*
X233260Y414688D01*
X233361Y414701D01*
X233462Y414710D01*
X233563Y414716D01*
X233664Y414718D01*
X233806Y414716D01*
X233948Y414710D01*
X234090Y414700D01*
X234231Y414686D01*
X234372Y414668D01*
X234513Y414647D01*
X234653Y414621D01*
X234792Y414591D01*
X234930Y414558D01*
X235067Y414520D01*
X235203Y414479D01*
X235338Y414434D01*
X235471Y414386D01*
X235603Y414333D01*
X235734Y414277D01*
X235863Y414217D01*
X235990Y414154D01*
X236116Y414087D01*
X236239Y414017D01*
X236361Y413943D01*
X236480Y413866D01*
X236597Y413786D01*
X236712Y413702D01*
X232309Y409638D02*
X232222Y409691D01*
X232137Y409748D01*
X232054Y409808D01*
X231974Y409871D01*
X231896Y409936D01*
X231820Y410005D01*
X231747Y410076D01*
X231677Y410150D01*
X231609Y410227D01*
X231545Y410306D01*
X231483Y410387D01*
X231424Y410470D01*
X231369Y410556D01*
X231317Y410644D01*
X231268Y410733D01*
X231222Y410824D01*
X231180Y410917D01*
X231141Y411012D01*
X231106Y411108D01*
X231074Y411205D01*
X231046Y411303D01*
X231022Y411402D01*
X231001Y411502D01*
X230984Y411602D01*
X230971Y411703D01*
X230962Y411805D01*
X230956Y411907D01*
X230954Y412009D01*
X236035Y407606D02*
X236122Y407553D01*
X236207Y407496D01*
X236290Y407436D01*
X236370Y407373D01*
X236448Y407308D01*
X236524Y407239D01*
X236597Y407168D01*
X236667Y407094D01*
X236735Y407017D01*
X236799Y406938D01*
X236861Y406857D01*
X236920Y406774D01*
X236975Y406688D01*
X237027Y406600D01*
X237076Y406511D01*
X237122Y406420D01*
X237164Y406327D01*
X237203Y406232D01*
X237238Y406136D01*
X237270Y406039D01*
X237298Y405941D01*
X237322Y405842D01*
X237343Y405742D01*
X237360Y405642D01*
X237373Y405541D01*
X237382Y405439D01*
X237388Y405337D01*
X237390Y405235D01*
X236035Y407606D02*
X232309Y409638D01*
X243817Y414718D02*
X243817Y402526D01*
X242463Y402526D02*
X245172Y402526D01*
X245172Y414718D02*
X242463Y414718D01*
X255840Y409299D02*
X257872Y409299D01*
X257872Y402526D01*
X253808Y402526D01*
X253707Y402528D01*
X253606Y402534D01*
X253505Y402543D01*
X253404Y402556D01*
X253304Y402573D01*
X253205Y402594D01*
X253107Y402618D01*
X253010Y402646D01*
X252913Y402678D01*
X252818Y402713D01*
X252725Y402752D01*
X252633Y402794D01*
X252542Y402840D01*
X252454Y402889D01*
X252367Y402941D01*
X252282Y402997D01*
X252199Y403055D01*
X252119Y403117D01*
X252041Y403182D01*
X251965Y403249D01*
X251892Y403319D01*
X251822Y403392D01*
X251755Y403468D01*
X251690Y403546D01*
X251628Y403626D01*
X251570Y403709D01*
X251514Y403794D01*
X251462Y403881D01*
X251413Y403969D01*
X251367Y404060D01*
X251325Y404152D01*
X251286Y404245D01*
X251251Y404340D01*
X251219Y404437D01*
X251191Y404534D01*
X251167Y404632D01*
X251146Y404731D01*
X251129Y404831D01*
X251116Y404932D01*
X251107Y405033D01*
X251101Y405134D01*
X251099Y405235D01*
X251099Y412009D01*
X251101Y412113D01*
X251107Y412216D01*
X251117Y412320D01*
X251131Y412423D01*
X251149Y412525D01*
X251170Y412626D01*
X251196Y412727D01*
X251225Y412826D01*
X251258Y412925D01*
X251295Y413022D01*
X251336Y413117D01*
X251380Y413211D01*
X251428Y413303D01*
X251479Y413393D01*
X251534Y413482D01*
X251592Y413568D01*
X251654Y413651D01*
X251718Y413733D01*
X251786Y413811D01*
X251856Y413887D01*
X251929Y413961D01*
X252006Y414031D01*
X252084Y414099D01*
X252166Y414163D01*
X252249Y414225D01*
X252335Y414283D01*
X252424Y414338D01*
X252514Y414389D01*
X252606Y414437D01*
X252700Y414481D01*
X252795Y414522D01*
X252892Y414559D01*
X252991Y414592D01*
X253090Y414621D01*
X253191Y414647D01*
X253292Y414668D01*
X253394Y414686D01*
X253497Y414700D01*
X253601Y414710D01*
X253704Y414716D01*
X253808Y414718D01*
X257872Y414718D01*
X387366Y403984D02*
X387366Y393316D01*
X387366Y403984D02*
X390329Y403984D01*
X390436Y403982D01*
X390543Y403976D01*
X390649Y403967D01*
X390755Y403953D01*
X390861Y403936D01*
X390966Y403915D01*
X391070Y403890D01*
X391173Y403861D01*
X391275Y403829D01*
X391376Y403793D01*
X391475Y403753D01*
X391573Y403710D01*
X391669Y403663D01*
X391764Y403613D01*
X391857Y403560D01*
X391947Y403503D01*
X392036Y403443D01*
X392122Y403380D01*
X392206Y403314D01*
X392288Y403244D01*
X392367Y403172D01*
X392443Y403097D01*
X392517Y403019D01*
X392587Y402939D01*
X392655Y402856D01*
X392720Y402771D01*
X392781Y402684D01*
X392840Y402594D01*
X392895Y402503D01*
X392947Y402409D01*
X392995Y402313D01*
X393040Y402216D01*
X393082Y402118D01*
X393119Y402018D01*
X393154Y401916D01*
X393184Y401814D01*
X393211Y401710D01*
X393234Y401606D01*
X393253Y401500D01*
X393268Y401394D01*
X393280Y401288D01*
X393288Y401181D01*
X393292Y401074D01*
X393292Y400968D01*
X393288Y400861D01*
X393280Y400754D01*
X393268Y400648D01*
X393253Y400542D01*
X393234Y400436D01*
X393211Y400332D01*
X393184Y400228D01*
X393154Y400126D01*
X393119Y400024D01*
X393082Y399924D01*
X393040Y399826D01*
X392995Y399729D01*
X392947Y399633D01*
X392895Y399540D01*
X392840Y399448D01*
X392781Y399358D01*
X392720Y399271D01*
X392655Y399186D01*
X392587Y399103D01*
X392517Y399023D01*
X392443Y398945D01*
X392367Y398870D01*
X392288Y398798D01*
X392206Y398728D01*
X392122Y398662D01*
X392036Y398599D01*
X391947Y398539D01*
X391857Y398482D01*
X391764Y398429D01*
X391669Y398379D01*
X391573Y398332D01*
X391475Y398289D01*
X391376Y398249D01*
X391275Y398213D01*
X391173Y398181D01*
X391070Y398152D01*
X390966Y398127D01*
X390861Y398106D01*
X390755Y398089D01*
X390649Y398075D01*
X390543Y398066D01*
X390436Y398060D01*
X390329Y398058D01*
X390329Y398057D02*
X387366Y398057D01*
X390922Y398057D02*
X393293Y393316D01*
X398686Y393316D02*
X402242Y393316D01*
X402337Y393318D01*
X402433Y393324D01*
X402528Y393333D01*
X402622Y393347D01*
X402716Y393364D01*
X402809Y393385D01*
X402902Y393410D01*
X402993Y393438D01*
X403083Y393470D01*
X403171Y393506D01*
X403258Y393545D01*
X403344Y393588D01*
X403428Y393634D01*
X403509Y393683D01*
X403589Y393736D01*
X403666Y393792D01*
X403742Y393850D01*
X403814Y393912D01*
X403884Y393977D01*
X403952Y394045D01*
X404017Y394115D01*
X404079Y394187D01*
X404137Y394263D01*
X404193Y394340D01*
X404246Y394420D01*
X404295Y394502D01*
X404341Y394585D01*
X404384Y394671D01*
X404423Y394758D01*
X404459Y394846D01*
X404491Y394936D01*
X404519Y395027D01*
X404544Y395120D01*
X404565Y395213D01*
X404582Y395307D01*
X404596Y395401D01*
X404605Y395496D01*
X404611Y395592D01*
X404613Y395687D01*
X404612Y395687D02*
X404612Y396872D01*
X404613Y396872D02*
X404611Y396967D01*
X404605Y397063D01*
X404596Y397158D01*
X404582Y397252D01*
X404565Y397346D01*
X404544Y397439D01*
X404519Y397532D01*
X404491Y397623D01*
X404459Y397713D01*
X404423Y397801D01*
X404384Y397888D01*
X404341Y397974D01*
X404295Y398058D01*
X404246Y398139D01*
X404193Y398219D01*
X404137Y398296D01*
X404079Y398372D01*
X404017Y398444D01*
X403952Y398514D01*
X403884Y398582D01*
X403814Y398647D01*
X403742Y398709D01*
X403666Y398767D01*
X403589Y398823D01*
X403509Y398876D01*
X403428Y398925D01*
X403344Y398971D01*
X403258Y399014D01*
X403171Y399053D01*
X403083Y399089D01*
X402993Y399121D01*
X402902Y399149D01*
X402809Y399174D01*
X402716Y399195D01*
X402622Y399212D01*
X402528Y399226D01*
X402433Y399235D01*
X402337Y399241D01*
X402242Y399243D01*
X398686Y399243D01*
X398686Y403984D01*
X404612Y403984D01*
X34666Y404384D02*
X34666Y393716D01*
X34666Y404384D02*
X37629Y404384D01*
X37736Y404382D01*
X37843Y404376D01*
X37949Y404367D01*
X38055Y404353D01*
X38161Y404336D01*
X38266Y404315D01*
X38370Y404290D01*
X38473Y404261D01*
X38575Y404229D01*
X38676Y404193D01*
X38775Y404153D01*
X38873Y404110D01*
X38969Y404063D01*
X39064Y404013D01*
X39157Y403960D01*
X39247Y403903D01*
X39336Y403843D01*
X39422Y403780D01*
X39506Y403714D01*
X39588Y403644D01*
X39667Y403572D01*
X39743Y403497D01*
X39817Y403419D01*
X39887Y403339D01*
X39955Y403256D01*
X40020Y403171D01*
X40081Y403084D01*
X40140Y402994D01*
X40195Y402903D01*
X40247Y402809D01*
X40295Y402713D01*
X40340Y402616D01*
X40382Y402518D01*
X40419Y402418D01*
X40454Y402316D01*
X40484Y402214D01*
X40511Y402110D01*
X40534Y402006D01*
X40553Y401900D01*
X40568Y401794D01*
X40580Y401688D01*
X40588Y401581D01*
X40592Y401474D01*
X40592Y401368D01*
X40588Y401261D01*
X40580Y401154D01*
X40568Y401048D01*
X40553Y400942D01*
X40534Y400836D01*
X40511Y400732D01*
X40484Y400628D01*
X40454Y400526D01*
X40419Y400424D01*
X40382Y400324D01*
X40340Y400226D01*
X40295Y400129D01*
X40247Y400033D01*
X40195Y399940D01*
X40140Y399848D01*
X40081Y399758D01*
X40020Y399671D01*
X39955Y399586D01*
X39887Y399503D01*
X39817Y399423D01*
X39743Y399345D01*
X39667Y399270D01*
X39588Y399198D01*
X39506Y399128D01*
X39422Y399062D01*
X39336Y398999D01*
X39247Y398939D01*
X39157Y398882D01*
X39064Y398829D01*
X38969Y398779D01*
X38873Y398732D01*
X38775Y398689D01*
X38676Y398649D01*
X38575Y398613D01*
X38473Y398581D01*
X38370Y398552D01*
X38266Y398527D01*
X38161Y398506D01*
X38055Y398489D01*
X37949Y398475D01*
X37843Y398466D01*
X37736Y398460D01*
X37629Y398458D01*
X37629Y398457D02*
X34666Y398457D01*
X38222Y398457D02*
X40593Y393716D01*
X45986Y402013D02*
X48949Y404384D01*
X48949Y393716D01*
X45986Y393716D02*
X51912Y393716D01*
X57416Y399050D02*
X57419Y399260D01*
X57426Y399470D01*
X57439Y399679D01*
X57456Y399888D01*
X57479Y400097D01*
X57506Y400305D01*
X57538Y400512D01*
X57576Y400719D01*
X57618Y400924D01*
X57665Y401129D01*
X57717Y401332D01*
X57774Y401534D01*
X57836Y401735D01*
X57902Y401934D01*
X57974Y402131D01*
X58050Y402327D01*
X58130Y402521D01*
X58215Y402713D01*
X58305Y402902D01*
X58336Y402987D01*
X58370Y403071D01*
X58408Y403153D01*
X58450Y403234D01*
X58495Y403313D01*
X58543Y403390D01*
X58594Y403465D01*
X58648Y403537D01*
X58705Y403608D01*
X58765Y403676D01*
X58828Y403741D01*
X58893Y403804D01*
X58961Y403864D01*
X59032Y403921D01*
X59104Y403975D01*
X59179Y404027D01*
X59256Y404075D01*
X59335Y404120D01*
X59416Y404161D01*
X59498Y404199D01*
X59582Y404234D01*
X59667Y404265D01*
X59753Y404293D01*
X59840Y404317D01*
X59929Y404337D01*
X60018Y404354D01*
X60108Y404367D01*
X60198Y404377D01*
X60288Y404382D01*
X60379Y404384D01*
X60470Y404382D01*
X60560Y404377D01*
X60650Y404367D01*
X60740Y404354D01*
X60829Y404337D01*
X60918Y404317D01*
X61005Y404293D01*
X61091Y404265D01*
X61176Y404234D01*
X61260Y404199D01*
X61342Y404161D01*
X61423Y404120D01*
X61502Y404075D01*
X61579Y404027D01*
X61654Y403976D01*
X61726Y403921D01*
X61797Y403864D01*
X61865Y403804D01*
X61930Y403741D01*
X61993Y403676D01*
X62053Y403608D01*
X62110Y403537D01*
X62164Y403465D01*
X62215Y403390D01*
X62263Y403313D01*
X62308Y403234D01*
X62350Y403153D01*
X62388Y403071D01*
X62422Y402987D01*
X62453Y402902D01*
X62543Y402713D01*
X62628Y402521D01*
X62708Y402327D01*
X62784Y402131D01*
X62856Y401934D01*
X62922Y401735D01*
X62984Y401534D01*
X63041Y401332D01*
X63093Y401129D01*
X63140Y400924D01*
X63182Y400719D01*
X63220Y400512D01*
X63252Y400305D01*
X63279Y400097D01*
X63302Y399888D01*
X63319Y399679D01*
X63332Y399470D01*
X63339Y399260D01*
X63342Y399050D01*
X57416Y399050D02*
X57419Y398840D01*
X57426Y398630D01*
X57439Y398421D01*
X57456Y398212D01*
X57479Y398003D01*
X57506Y397795D01*
X57538Y397588D01*
X57576Y397381D01*
X57618Y397176D01*
X57665Y396971D01*
X57717Y396768D01*
X57774Y396566D01*
X57836Y396365D01*
X57902Y396166D01*
X57974Y395969D01*
X58050Y395773D01*
X58130Y395579D01*
X58215Y395388D01*
X58305Y395198D01*
X58336Y395113D01*
X58370Y395029D01*
X58408Y394947D01*
X58450Y394866D01*
X58495Y394787D01*
X58543Y394710D01*
X58594Y394635D01*
X58648Y394563D01*
X58705Y394492D01*
X58765Y394424D01*
X58828Y394359D01*
X58893Y394296D01*
X58961Y394236D01*
X59032Y394179D01*
X59104Y394124D01*
X59179Y394073D01*
X59256Y394025D01*
X59335Y393980D01*
X59416Y393939D01*
X59498Y393901D01*
X59582Y393866D01*
X59667Y393835D01*
X59753Y393807D01*
X59840Y393783D01*
X59929Y393763D01*
X60018Y393746D01*
X60108Y393733D01*
X60198Y393723D01*
X60288Y393718D01*
X60379Y393716D01*
X62453Y395198D02*
X62543Y395388D01*
X62628Y395579D01*
X62708Y395773D01*
X62784Y395969D01*
X62856Y396166D01*
X62922Y396365D01*
X62984Y396566D01*
X63041Y396768D01*
X63093Y396971D01*
X63140Y397176D01*
X63182Y397381D01*
X63220Y397588D01*
X63252Y397795D01*
X63279Y398003D01*
X63302Y398212D01*
X63319Y398421D01*
X63332Y398630D01*
X63339Y398840D01*
X63342Y399050D01*
X62453Y395198D02*
X62422Y395113D01*
X62388Y395029D01*
X62350Y394947D01*
X62308Y394866D01*
X62263Y394787D01*
X62215Y394710D01*
X62164Y394635D01*
X62110Y394563D01*
X62053Y394492D01*
X61993Y394424D01*
X61930Y394359D01*
X61865Y394296D01*
X61797Y394236D01*
X61726Y394179D01*
X61654Y394124D01*
X61579Y394073D01*
X61502Y394025D01*
X61423Y393980D01*
X61342Y393939D01*
X61260Y393901D01*
X61176Y393866D01*
X61091Y393835D01*
X61005Y393807D01*
X60918Y393783D01*
X60829Y393763D01*
X60740Y393746D01*
X60650Y393733D01*
X60560Y393723D01*
X60470Y393718D01*
X60379Y393716D01*
X58008Y396087D02*
X62750Y402013D01*
D15*
X0Y0D02*
X430135Y0D01*
X430135Y422500D01*
X40000Y422500D01*
X0Y382500D01*
X0Y273428D01*
X-3784Y273251D01*
X-7539Y272745D01*
X-11235Y271913D01*
X-14845Y270763D01*
X-18341Y269302D01*
X-21696Y267542D01*
X-24885Y265496D01*
X-27883Y263181D01*
X-30669Y260612D01*
X-33219Y257811D01*
X-35516Y254798D01*
X-37542Y251597D01*
X-39281Y248231D01*
X-40720Y244726D01*
X-41848Y241109D01*
X-42656Y237408D01*
X-43139Y233650D01*
X-43293Y229865D01*
X-43116Y226080D01*
X-42609Y222325D01*
X-41778Y218629D01*
X-40627Y215019D01*
X-39166Y211524D01*
X-37407Y208169D01*
X-35361Y204980D01*
X-33045Y201981D01*
X-30477Y199196D01*
X-27676Y196645D01*
X-24663Y194348D01*
X-21461Y192323D01*
X-18095Y190584D01*
X-14591Y189145D01*
X-10974Y188017D01*
X-7272Y187208D01*
X-3515Y186725D01*
X0Y186572D01*
X0Y0D01*
X19135Y229426D02*
X19066Y228280D01*
X18927Y227140D01*
X18720Y226010D01*
X18446Y224896D01*
X18104Y223799D01*
X17697Y222726D01*
X17225Y221679D01*
X16692Y220662D01*
X16098Y219679D01*
X15446Y218734D01*
X14737Y217830D01*
X13976Y216971D01*
X13164Y216159D01*
X12305Y215398D01*
X11401Y214689D01*
X10456Y214037D01*
X9473Y213443D01*
X8456Y212910D01*
X7409Y212438D01*
X6336Y212031D01*
X5239Y211690D01*
X4125Y211415D01*
X2995Y211208D01*
X1855Y211069D01*
X709Y211000D01*
X-439Y211000D01*
X-1585Y211069D01*
X-2725Y211208D01*
X-3855Y211415D01*
X-4969Y211690D01*
X-6066Y212031D01*
X-7139Y212438D01*
X-8186Y212910D01*
X-9203Y213443D01*
X-10186Y214037D01*
X-11131Y214689D01*
X-12035Y215398D01*
X-12894Y216159D01*
X-13706Y216971D01*
X-14467Y217830D01*
X-15176Y218734D01*
X-15828Y219679D01*
X-16422Y220662D01*
X-16955Y221679D01*
X-17427Y222726D01*
X-17834Y223799D01*
X-18176Y224896D01*
X-18450Y226010D01*
X-18657Y227140D01*
X-18796Y228280D01*
X-18865Y229426D01*
X-18865Y230574D01*
X-18796Y231720D01*
X-18657Y232860D01*
X-18450Y233990D01*
X-18176Y235104D01*
X-17834Y236201D01*
X-17427Y237274D01*
X-16955Y238321D01*
X-16422Y239338D01*
X-15828Y240321D01*
X-15176Y241266D01*
X-14467Y242170D01*
X-13706Y243029D01*
X-12894Y243841D01*
X-12035Y244602D01*
X-11131Y245311D01*
X-10186Y245963D01*
X-9203Y246557D01*
X-8186Y247090D01*
X-7139Y247562D01*
X-6066Y247969D01*
X-4969Y248311D01*
X-3855Y248585D01*
X-2725Y248792D01*
X-1585Y248931D01*
X-439Y249000D01*
X709Y249000D01*
X1855Y248931D01*
X2995Y248792D01*
X4125Y248585D01*
X5239Y248311D01*
X6336Y247969D01*
X7409Y247562D01*
X8456Y247090D01*
X9473Y246557D01*
X10456Y245963D01*
X11401Y245311D01*
X12305Y244602D01*
X13164Y243841D01*
X13976Y243029D01*
X14737Y242170D01*
X15446Y241266D01*
X16098Y240321D01*
X16692Y239338D01*
X17225Y238321D01*
X17697Y237274D01*
X18104Y236201D01*
X18446Y235104D01*
X18720Y233990D01*
X18927Y232860D01*
X19066Y231720D01*
X19135Y230574D01*
X19135Y229426D01*
X379135Y229426D02*
X379066Y228280D01*
X378927Y227140D01*
X378720Y226010D01*
X378446Y224896D01*
X378104Y223799D01*
X377697Y222726D01*
X377225Y221679D01*
X376692Y220662D01*
X376098Y219679D01*
X375446Y218734D01*
X374737Y217830D01*
X373976Y216971D01*
X373164Y216159D01*
X372305Y215398D01*
X371401Y214689D01*
X370456Y214037D01*
X369473Y213443D01*
X368456Y212910D01*
X367409Y212438D01*
X366336Y212031D01*
X365239Y211690D01*
X364125Y211415D01*
X362995Y211208D01*
X361855Y211069D01*
X360709Y211000D01*
X359561Y211000D01*
X358415Y211069D01*
X357275Y211208D01*
X356145Y211415D01*
X355031Y211690D01*
X353934Y212031D01*
X352861Y212438D01*
X351814Y212910D01*
X350797Y213443D01*
X349814Y214037D01*
X348869Y214689D01*
X347965Y215398D01*
X347106Y216159D01*
X346294Y216971D01*
X345533Y217830D01*
X344824Y218734D01*
X344172Y219679D01*
X343578Y220662D01*
X343045Y221679D01*
X342573Y222726D01*
X342166Y223799D01*
X341825Y224896D01*
X341550Y226010D01*
X341343Y227140D01*
X341204Y228280D01*
X341135Y229426D01*
X341135Y230574D01*
X341204Y231720D01*
X341343Y232860D01*
X341550Y233990D01*
X341825Y235104D01*
X342166Y236201D01*
X342573Y237274D01*
X343045Y238321D01*
X343578Y239338D01*
X344172Y240321D01*
X344824Y241266D01*
X345533Y242170D01*
X346294Y243029D01*
X347106Y243841D01*
X347965Y244602D01*
X348869Y245311D01*
X349814Y245963D01*
X350797Y246557D01*
X351814Y247090D01*
X352861Y247562D01*
X353934Y247969D01*
X355031Y248311D01*
X356145Y248585D01*
X357275Y248792D01*
X358415Y248931D01*
X359561Y249000D01*
X360709Y249000D01*
X361855Y248931D01*
X362995Y248792D01*
X364125Y248585D01*
X365239Y248311D01*
X366336Y247969D01*
X367409Y247562D01*
X368456Y247090D01*
X369473Y246557D01*
X370456Y245963D01*
X371401Y245311D01*
X372305Y244602D01*
X373164Y243841D01*
X373976Y243029D01*
X374737Y242170D01*
X375446Y241266D01*
X376098Y240321D01*
X376692Y239338D01*
X377225Y238321D01*
X377697Y237274D01*
X378104Y236201D01*
X378446Y235104D01*
X378720Y233990D01*
X378927Y232860D01*
X379066Y231720D01*
X379135Y230574D01*
X379135Y229426D01*
X199135Y229426D02*
X199066Y228280D01*
X198927Y227140D01*
X198720Y226010D01*
X198446Y224896D01*
X198104Y223799D01*
X197697Y222726D01*
X197225Y221679D01*
X196692Y220662D01*
X196098Y219679D01*
X195446Y218734D01*
X194737Y217830D01*
X193976Y216971D01*
X193164Y216159D01*
X192305Y215398D01*
X191401Y214689D01*
X190456Y214037D01*
X189473Y213443D01*
X188456Y212910D01*
X187409Y212438D01*
X186336Y212031D01*
X185239Y211690D01*
X184125Y211415D01*
X182995Y211208D01*
X181855Y211069D01*
X180709Y211000D01*
X179561Y211000D01*
X178415Y211069D01*
X177275Y211208D01*
X176145Y211415D01*
X175031Y211690D01*
X173934Y212031D01*
X172861Y212438D01*
X171814Y212910D01*
X170797Y213443D01*
X169814Y214037D01*
X168869Y214689D01*
X167965Y215398D01*
X167106Y216159D01*
X166294Y216971D01*
X165533Y217830D01*
X164824Y218734D01*
X164172Y219679D01*
X163578Y220662D01*
X163045Y221679D01*
X162573Y222726D01*
X162166Y223799D01*
X161825Y224896D01*
X161550Y226010D01*
X161343Y227140D01*
X161204Y228280D01*
X161135Y229426D01*
X161135Y230574D01*
X161204Y231720D01*
X161343Y232860D01*
X161550Y233990D01*
X161825Y235104D01*
X162166Y236201D01*
X162573Y237274D01*
X163045Y238321D01*
X163578Y239338D01*
X164172Y240321D01*
X164824Y241266D01*
X165533Y242170D01*
X166294Y243029D01*
X167106Y243841D01*
X167965Y244602D01*
X168869Y245311D01*
X169814Y245963D01*
X170797Y246557D01*
X171814Y247090D01*
X172861Y247562D01*
X173934Y247969D01*
X175031Y248311D01*
X176145Y248585D01*
X177275Y248792D01*
X178415Y248931D01*
X179561Y249000D01*
X180709Y249000D01*
X181855Y248931D01*
X182995Y248792D01*
X184125Y248585D01*
X185239Y248311D01*
X186336Y247969D01*
X187409Y247562D01*
X188456Y247090D01*
X189473Y246557D01*
X190456Y245963D01*
X191401Y245311D01*
X192305Y244602D01*
X193164Y243841D01*
X193976Y243029D01*
X194737Y242170D01*
X195446Y241266D01*
X196098Y240321D01*
X196692Y239338D01*
X197225Y238321D01*
X197697Y237274D01*
X198104Y236201D01*
X198446Y235104D01*
X198720Y233990D01*
X198927Y232860D01*
X199066Y231720D01*
X199135Y230574D01*
X199135Y229426D01*
X185000Y319719D02*
X184937Y319161D01*
X184812Y318614D01*
X184627Y318084D01*
X184383Y317578D01*
X184084Y317102D01*
X183734Y316663D01*
X183337Y316266D01*
X182898Y315916D01*
X182422Y315617D01*
X181916Y315373D01*
X181386Y315188D01*
X180839Y315063D01*
X180281Y315000D01*
X179719Y315000D01*
X179161Y315063D01*
X178614Y315188D01*
X178084Y315373D01*
X177578Y315617D01*
X177102Y315916D01*
X176663Y316266D01*
X176266Y316663D01*
X175916Y317102D01*
X175617Y317578D01*
X175373Y318084D01*
X175188Y318614D01*
X175063Y319161D01*
X175000Y319719D01*
X175000Y320281D01*
X175063Y320839D01*
X175188Y321386D01*
X175373Y321916D01*
X175617Y322422D01*
X175916Y322898D01*
X176266Y323337D01*
X176663Y323734D01*
X177102Y324084D01*
X177578Y324383D01*
X178084Y324627D01*
X178614Y324812D01*
X179161Y324937D01*
X179719Y325000D01*
X180281Y325000D01*
X180839Y324937D01*
X181386Y324812D01*
X181916Y324627D01*
X182422Y324383D01*
X182898Y324084D01*
X183337Y323734D01*
X183734Y323337D01*
X184084Y322898D01*
X184383Y322422D01*
X184627Y321916D01*
X184812Y321386D01*
X184937Y320839D01*
X185000Y320281D01*
X185000Y319719D01*
X365000Y319719D02*
X364937Y319161D01*
X364812Y318614D01*
X364627Y318084D01*
X364383Y317578D01*
X364084Y317102D01*
X363734Y316663D01*
X363337Y316266D01*
X362898Y315916D01*
X362422Y315617D01*
X361916Y315373D01*
X361386Y315188D01*
X360839Y315063D01*
X360281Y315000D01*
X359719Y315000D01*
X359161Y315063D01*
X358614Y315188D01*
X358084Y315373D01*
X357578Y315617D01*
X357102Y315916D01*
X356663Y316266D01*
X356266Y316663D01*
X355916Y317102D01*
X355617Y317578D01*
X355373Y318084D01*
X355188Y318614D01*
X355063Y319161D01*
X355000Y319719D01*
X355000Y320281D01*
X355063Y320839D01*
X355188Y321386D01*
X355373Y321916D01*
X355617Y322422D01*
X355916Y322898D01*
X356266Y323337D01*
X356663Y323734D01*
X357102Y324084D01*
X357578Y324383D01*
X358084Y324627D01*
X358614Y324812D01*
X359161Y324937D01*
X359719Y325000D01*
X360281Y325000D01*
X360839Y324937D01*
X361386Y324812D01*
X361916Y324627D01*
X362422Y324383D01*
X362898Y324084D01*
X363337Y323734D01*
X363734Y323337D01*
X364084Y322898D01*
X364383Y322422D01*
X364627Y321916D01*
X364812Y321386D01*
X364937Y320839D01*
X365000Y320281D01*
X365000Y319719D01*
M02*
