G04 EAGLE Gerber RS-274X export*
G75*
%MOMM*%
%FSLAX34Y34*%
%LPD*%
%INSolderpaste Top*%
%IPPOS*%
%AMOC8*
5,1,8,0,0,1.08239X$1,22.5*%
G01*
%ADD10R,2.200000X0.600000*%
%ADD11R,1.500000X1.300000*%
%ADD12R,1.400000X1.800000*%
%ADD13R,1.300000X1.500000*%
%ADD14R,0.800000X0.800000*%
%ADD15R,1.800000X1.400000*%


D10*
X118700Y91100D03*
X66700Y91100D03*
X118700Y78400D03*
X118700Y103800D03*
X118700Y116500D03*
X66700Y78400D03*
X66700Y103800D03*
X66700Y116500D03*
X118700Y141900D03*
X66700Y141900D03*
X118700Y129200D03*
X118700Y154600D03*
X66700Y129200D03*
X66700Y154600D03*
D11*
X360400Y150800D03*
X360400Y169800D03*
X360400Y110000D03*
X360400Y129000D03*
D12*
X402400Y296000D03*
X368400Y296000D03*
D13*
X305900Y320000D03*
X324900Y320000D03*
X265900Y320000D03*
X284900Y320000D03*
D14*
X367500Y320000D03*
X352500Y320000D03*
D15*
X332300Y141700D03*
X332300Y107700D03*
D11*
X234600Y185100D03*
X234600Y204100D03*
X234600Y145100D03*
X234600Y164100D03*
D12*
X219300Y296000D03*
X185300Y296000D03*
D13*
X125900Y320000D03*
X144900Y320000D03*
X85900Y320000D03*
X104900Y320000D03*
D14*
X187500Y320000D03*
X172500Y320000D03*
D15*
X261200Y178100D03*
X261200Y144100D03*
D13*
X399500Y380000D03*
X380500Y380000D03*
X40500Y380000D03*
X59500Y380000D03*
M02*
