G04 EAGLE Gerber RS-274X export*
G75*
%MOMM*%
%FSLAX34Y34*%
%LPD*%
%INSoldermask Top*%
%IPPOS*%
%AMOC8*
5,1,8,0,0,1.08239X$1,22.5*%
G01*
%ADD10C,4.003200*%
%ADD11C,1.203200*%
%ADD12R,2.403200X0.803200*%
%ADD13R,1.703200X1.503200*%
%ADD14R,1.603200X2.003200*%
%ADD15R,1.503200X1.703200*%
%ADD16R,1.003200X1.003200*%
%ADD17R,2.003200X1.603200*%
%ADD18C,1.727200*%
%ADD19C,8.003200*%
%ADD20C,1.703200*%


D10*
X135Y230000D03*
X360135Y230000D03*
X180135Y230000D03*
D11*
X180000Y320000D03*
X360000Y320000D03*
D12*
X118700Y91100D03*
X66700Y91100D03*
X118700Y78400D03*
X118700Y103800D03*
X118700Y116500D03*
X66700Y78400D03*
X66700Y103800D03*
X66700Y116500D03*
X118700Y141900D03*
X66700Y141900D03*
X118700Y129200D03*
X118700Y154600D03*
X66700Y129200D03*
X66700Y154600D03*
D13*
X360400Y150800D03*
X360400Y169800D03*
X360400Y110000D03*
X360400Y129000D03*
D14*
X402400Y296000D03*
X368400Y296000D03*
D15*
X305900Y320000D03*
X324900Y320000D03*
X265900Y320000D03*
X284900Y320000D03*
D16*
X367500Y320000D03*
X352500Y320000D03*
D17*
X332300Y141700D03*
X332300Y107700D03*
D13*
X234600Y185100D03*
X234600Y204100D03*
X234600Y145100D03*
X234600Y164100D03*
D14*
X219300Y296000D03*
X185300Y296000D03*
D15*
X125900Y320000D03*
X144900Y320000D03*
X85900Y320000D03*
X104900Y320000D03*
D16*
X187500Y320000D03*
X172500Y320000D03*
D17*
X261200Y178100D03*
X261200Y144100D03*
D18*
X67300Y39420D02*
X67300Y24180D01*
X92700Y24180D02*
X92700Y39420D01*
X118100Y39420D02*
X118100Y24180D01*
X197300Y372380D02*
X197300Y387620D01*
X222700Y387620D02*
X222700Y372380D01*
X248100Y372380D02*
X248100Y387620D01*
X273500Y387620D02*
X273500Y372380D01*
D15*
X399500Y380000D03*
X380500Y380000D03*
X40500Y380000D03*
X59500Y380000D03*
D19*
X0Y230000D03*
D20*
X50000Y250000D03*
X50000Y175000D03*
X150000Y125000D03*
X150000Y60000D03*
X175000Y125000D03*
X175000Y167500D03*
X335000Y360000D03*
X335000Y400000D03*
D19*
X360000Y230000D03*
D20*
X310000Y160000D03*
X310000Y55000D03*
D19*
X180000Y230000D03*
M02*
