<svg version="1.1" xmlns="http://www.w3.org/2000/svg" xmlns:xlink="http://www.w3.org/1999/xlink" stroke-linecap="round" stroke-linejoin="round" stroke-width="0" fill-rule="evenodd" width="88.254mm" height="46.254mm" viewBox="-127 -127 88254 46254" id="VH-MHz9x4zLzjbKM0GAs"><defs><mask id="VH-MHz9x4zLzjbKM0GAs_clear-1" fill="#000" stroke="#000"><g><rect x="1016" y="4847.9" width="85968" height="40136.1" fill="#fff"/><path d="M 78204 29739.2 79008.8 29739.2 79008.8 30544 78352.8 30544 78204 30395.2 78204 29739.2"/><path d="M 79415.2 29739.2 80220 29739.2 80220 30395.2 80071.2 30544 79415.2 30544 79415.2 29739.2"/><path d="M 79415.2 28528 80071.2 28528 80220 28676.8 80220 29332.8 79415.2 29332.8 79415.2 28528"/><path d="M 78352.8 28528 79008.8 28528 79008.8 29332.8 78204 29332.8 78204 28676.8 78352.8 28528"/><path d="M 83015.2 22739.2 84674 22739.2 84674 24249.2 84525.2 24398 83015.2 24398 83015.2 22739.2"/><path d="M 68750 22739.2 70408.8 22739.2 70408.8 24398 68898.8 24398 68750 24249.2 68750 22739.2"/><path d="M 80950 22739.2 82608.8 22739.2 82608.8 24398 81098.8 24398 80950 24249.2 80950 22739.2"/><path d="M 70815.2 22739.2 72474 22739.2 72474 24249.2 72325.2 24398 70815.2 24398 70815.2 22739.2"/><path d="M 70815.2 20674 72325.2 20674 72474 20822.8 72474 22332.8 70815.2 22332.8 70815.2 20674"/><path d="M 68898.8 20674 70408.8 20674 70408.8 22332.8 68750 22332.8 68750 20822.8 68898.8 20674"/><path d="M 83015.2 20674 84525.2 20674 84674 20822.8 84674 22332.8 83015.2 22332.8 83015.2 20674"/><path d="M 81098.8 20674 82608.8 20674 82608.8 22332.8 80950 22332.8 80950 20822.8 81098.8 20674"/></g></mask><mask id="VH-MHz9x4zLzjbKM0GAs_clear-2" fill="#000" stroke="#000"><g><rect x="1016" y="3550.8" width="85968" height="41433.2" fill="#fff"/><path d="M 74559.2 11633.2 75260 11633.2 75260 12285.2 75111.2 12434 74559.2 12434 74559.2 11633.2"/><path d="M 78304.8 10426 78856.8 10426 78856.8 11226.8 78156 11226.8 78156 10574.8 78304.8 10426"/><path d="M 74559.2 10426 75111.2 10426 75260 10574.8 75260 11226.8 74559.2 11226.8 74559.2 10426"/></g></mask><rect x="-754" y="-754" width="1508" height="1508" id="VH-MHz9x4zLzjbKM0GAs_pad-11"/><rect x="-1608" y="-1608" width="3216" height="3216" id="VH-MHz9x4zLzjbKM0GAs_pad-12"/><rect x="-750" y="-650" width="1500" height="1300" id="VH-MHz9x4zLzjbKM0GAs_pad-13"/><rect x="-650" y="-750" width="1300" height="1500" id="VH-MHz9x4zLzjbKM0GAs_pad-14"/><circle cx="0" cy="0" r="750" id="VH-MHz9x4zLzjbKM0GAs_pad-17"/></defs><g transform="translate(0,46000) scale(1,-1)" fill="currentColor" stroke="currentColor"><g mask="url(#VH-MHz9x4zLzjbKM0GAs_clear-2)"><g mask="url(#VH-MHz9x4zLzjbKM0GAs_clear-1)"><path d="M 1304.4 40894.6 1225.7 40876 1146 40889.5 1077.8 40933.1 1032.1 40999.8 1016 41079.1 1016 44780.8 1029.7 44854.1 1073.2 44922.2 1139.9 44967.9 1219.2 44984 4570 44984 4640.2 44971.5 4709 44929 4755.8 44863 4773.1 44784 4758.3 44704.5 4713.6 44637.1 2771.7 42695.2 2648 42396.5 2648 42110.8 2634.3 42037.6 2590.8 41969.4 2524.1 41923.7 2444.8 41907.6 2426 41907.6 1921.9 41698.8 1536 41312.9 1406.9 41001.3 1369.6 40942.4 1304.4 40894.6"/><path d="M 86861.5 35499.3 86782.4 35482.6 86703 35498 86546.7 35562.8 86080.9 35562.8 86009.2 35575.9 85940.7 35618.9 85894.4 35685.3 85877.7 35764.4 85893.2 35843.8 86206 36599 86206 37401 85899.1 38142 85332 38709.1 84591 39016 83789 39016 83048 38709.1 82480.9 38142 82174 37401 82174 36599 82486.8 35843.8 82502.2 35772.5 82488.6 35692.8 82445.1 35624.6 82378.4 35578.9 82299.1 35562.8 79648.8 35562.8 79572.6 35577.7 79505.2 35622.3 74814.4 40313.1 74515.7 40436.8 59631.1 40436.8 59554.8 40451.7 59487.4 40496.3 59196.9 40786.8 58692.8 40995.6 56623.2 40995.6 56119.1 40786.8 55733.2 40400.9 55524.4 39896.8 55524.4 39351.2 55733.2 38847.1 56082.6 38497.7 56124.7 38436.2 56142.1 38357.2 56127.2 38277.7 56082.6 38210.3 55744.6 37872.3 55680.2 37828.9 55600.9 37812.8 54282.3 37812.8 53983.6 37689.1 53737.7 37443.2 53679.2 37402.4 53600.5 37383.7 53520.8 37397.3 53452.6 37440.9 53406.9 37507.6 53390.8 37586.8 53390.8 41667.7 53267.1 41966.4 50596.4 44637.1 50555.6 44695.6 50536.9 44774.3 50550.5 44854.1 50594.1 44922.2 50660.8 44967.9 50740 44984 86780.8 44984 86854.1 44970.3 86922.2 44926.8 86967.9 44860.1 86984 44780.8 86984 35685.8 86970.9 35614 86927.9 35545.6 86861.5 35499.3"/><path d="M 34029.8 43072.6 33950.8 43055.3 33871.3 43070.1 33803.9 43114.8 33308.4 43610.3 33267.6 43668.8 33248.9 43747.5 33262.5 43827.3 33306.1 43895.4 33372.8 43941.1 33452 43957.2 34443.2 43957.2 34513.4 43944.7 34582.2 43902.2 34629 43836.2 34646.3 43757.2 34631.5 43677.7 34586.8 43610.3 34091.3 43114.8 34029.8 43072.6"/><path d="M 55929.1 22836.2 55850.1 22818.8 55770.6 22833.6 55703.2 22878.3 51190.3 27391.2 51146.9 27455.6 51130.8 27534.8 51130.8 36079.6 51132.9 36090.4 51130.8 36279.3 51130.8 36281.5 51130.8 36442.2 51067.6 36590.1 51066.8 36592.1 51005.3 36740.6 50890.4 36853 50888.8 36854.5 50755.2 36988.1 50746.1 36994.2 47995.4 39685.1 47951 39749.6 47934.3 39828.7 47949.7 39908.1 48096.8 40263.2 48096.8 40808.8 47888 41312.9 47502.1 41698.8 46998 41907.6 46879 41907.6 46804.2 41921.9 46736.5 41966 46691.3 42033 46652.3 42127.2 45169.2 43610.3 45128.4 43668.8 45109.7 43747.5 45123.3 43827.3 45166.9 43895.4 45233.6 43941.1 45312.8 43957.2 48893.2 43957.2 48969.4 43942.3 49036.8 43897.7 51705.7 41228.8 51749.1 41164.4 51765.2 41085.2 51765.2 32858.3 51888.9 32559.6 53133.6 31314.9 53432.3 31191.2 55684.9 31191.2 55761.2 31176.3 55828.6 31131.7 56082.6 30877.7 56124.7 30816.2 56142.1 30737.2 56127.2 30657.7 56082.6 30590.3 55733.2 30240.9 55524.4 29736.8 55524.4 29191.2 55733.2 28687.1 56082.6 28337.7 56124.7 28276.2 56142.1 28197.2 56127.2 28117.7 56082.6 28050.3 55733.2 27700.9 55524.4 27196.8 55524.4 26651.2 55733.2 26147.1 56082.6 25797.7 56124.7 25736.2 56142.1 25657.2 56127.2 25577.7 56082.6 25510.3 55733.2 25160.9 55524.4 24656.8 55524.4 24111.2 55733.2 23607.1 56082.6 23257.7 56124.7 23196.2 56142.1 23117.2 56127.2 23037.7 56082.6 22970.3 55990.6 22878.3 55929.1 22836.2"/><path d="M 5797.7 4865.9 5718.9 4847.9 5639.2 4862.1 5571.5 4906.3 5526.3 4973.3 5385.6 5312.9 4999.7 5698.8 4495.6 5907.6 4476.8 5907.6 4403.6 5921.3 4335.4 5964.8 4289.7 6031.5 4273.6 6110.8 4273.6 14961.2 4287.3 15034.5 4330.8 15102.6 4397.5 15148.3 4476.8 15164.4 4495.6 15164.4 4999.7 15373.2 5385.6 15759.1 5594.4 16263.2 5594.4 16808.8 5385.6 17312.9 4999.7 17698.8 4495.6 17907.6 4476.8 17907.6 4403.6 17921.3 4335.4 17964.8 4289.7 18031.5 4273.6 18110.8 4273.6 26961.2 4287.3 27034.5 4330.8 27102.6 4397.5 27148.3 4476.8 27164.4 4495.6 27164.4 4999.7 27373.2 5385.6 27759.1 5594.4 28263.2 5594.4 28808.8 5385.6 29312.9 4999.7 29698.8 4495.6 29907.6 4476.8 29907.6 4403.6 29921.3 4335.4 29964.8 4289.7 30031.5 4273.6 30110.8 4273.6 38961.2 4287.3 39034.5 4330.8 39102.6 4397.5 39148.3 4476.8 39164.4 4495.6 39164.4 4999.7 39373.2 5385.6 39759.1 5594.4 40263.2 5594.4 40808.8 5385.6 41312.9 4999.7 41698.8 4626.3 41853.5 4565 41893 4518.2 41959 4500.9 42038 4515.7 42117.5 4560.4 42184.9 6273.2 43897.7 6337.6 43941.1 6416.8 43957.2 9551.2 43957.2 9621.4 43944.7 9690.2 43902.2 9737 43836.2 9754.3 43757.2 9739.5 43677.7 9694.8 43610.3 9274.1 43189.6 9150.4 42890.9 9150.4 42110.8 9136.7 42037.6 9093.2 41969.4 9026.5 41923.7 8947.2 41907.6 8928.4 41907.6 8424.3 41698.8 8038.4 41312.9 7829.6 40808.8 7829.6 40263.2 8038.4 39759.1 8424.3 39373.2 8928.4 39164.4 10998 39164.4 11144.2 39225 11215.5 39240.3 11295.3 39226.8 11363.4 39183.2 11409.1 39116.5 11425.2 39037.2 11425.2 38876.8 11410.3 38800.6 11365.7 38733.2 9310.9 36678.4 9187.2 36379.7 9187.2 36344.4 9174.7 36274.2 9132.2 36205.4 9066.2 36158.6 8987.2 36141.2 8907.7 36156.1 8840.3 36200.7 8332 36709.1 7591 37016 6789 37016 6048 36709.1 5480.9 36142 5174 35401 5174 34599 5480.9 33858 6048 33290.9 6789 32984 7591 32984 8332 33290.9 8840.3 33799.3 8898.8 33840.1 8977.5 33858.7 9057.3 33845.1 9125.4 33801.5 9171.1 33734.8 9187.2 33655.6 9187.2 30110.8 9173.5 30037.6 9130 29969.4 9063.3 29923.7 8984 29907.6 8928.4 29907.6 8424.3 29698.8 8038.4 29312.9 7829.6 28808.8 7829.6 28263.2 8038.4 27759.1 8424.3 27373.2 8928.4 27164.4 10998 27164.4 11352.2 27311.1 11423.5 27326.5 11503.3 27312.9 11571.4 27269.3 11617.1 27202.6 11633.2 27123.4 11633.2 26830.8 11618.3 26754.6 11573.7 26687.2 9310.9 24424.4 9187.2 24125.7 9187.2 18110.8 9173.5 18037.6 9130 17969.4 9063.3 17923.7 8984 17907.6 8928.4 17907.6 8424.3 17698.8 8038.4 17312.9 7829.6 16808.8 7829.6 16263.2 8038.4 15759.1 8424.3 15373.2 8928.4 15164.4 10998 15164.4 11502.1 15373.2 11888 15759.1 12096.8 16263.2 12096.8 16808.8 11888 17312.9 11502.1 17698.8 10983.3 17913.7 10942.8 17921.3 10874.6 17964.8 10828.9 18031.5 10812.8 18110.8 10812.8 23543.2 10827.7 23619.4 10872.3 23686.8 13135.1 25949.6 13258.8 26248.3 13258.8 27545.7 13271.3 27615.9 13313.8 27684.7 13379.8 27731.5 13458.8 27748.9 13538.3 27734 13605.7 27689.4 13921.9 27373.2 14426 27164.4 14444.8 27164.4 14518.1 27150.7 14586.2 27107.2 14631.9 27040.5 14648 26961.2 14648 18110.8 14634.3 18037.6 14590.8 17969.4 14524.1 17923.7 14444.8 17907.6 14426 17907.6 13921.9 17698.8 13536 17312.9 13327.2 16808.8 13327.2 16263.2 13536 15759.1 13921.9 15373.2 14426 15164.4 14444.8 15164.4 14518.1 15150.7 14586.2 15107.2 14631.9 15040.5 14648 14961.2 14648 8798 14634.3 8724.8 14590.8 8656.6 14524.1 8610.9 14444.8 8594.8 7673 8594.8 7604.3 8606.8 7535.1 8648.7 7487.8 8714.3 7469.8 8793.1 7484 8872.8 7528.1 8940.5 7595.2 8985.7 8332 9290.9 8899.1 9858 9206 10599 9206 11401 8899.1 12142 8332 12709.1 7591 13016 6789 13016 6048 12709.1 5480.9 12142 5174 11401 5174 10599 5480.9 9858 6048 9290.9 6784.8 8985.7 6843.7 8948.4 6891.5 8883.2 6910.1 8804.5 6896.6 8724.8 6853 8656.6 6786.3 8610.9 6707.1 8594.8 6568.3 8594.8 6269.6 8471.1 6040.9 8242.4 5917.2 7943.7 5917.2 5051.1 5905.2 4982.4 5863.3 4913.2 5797.7 4865.9"/><path d="M 22037.8 43049.4 21958.8 43032.1 21879.3 43046.9 21811.9 43091.6 21293.2 43610.3 21252.4 43668.8 21233.7 43747.5 21247.3 43827.3 21290.9 43895.4 21357.6 43941.1 21436.8 43957.2 22474.4 43957.2 22544.6 43944.7 22613.4 43902.2 22660.2 43836.2 22677.5 43757.2 22662.7 43677.7 22618 43610.3 22099.3 43091.6 22037.8 43049.4"/><path d="M 11302.7 41848.3 11223.6 41831.6 11144.2 41847 10998 41907.6 10979.2 41907.6 10906 41921.3 10837.8 41964.8 10792.1 42031.5 10776 42110.8 10776 42308.4 10790.9 42384.6 10835.5 42452 11078.3 42694.8 11136.8 42735.6 11215.5 42754.3 11295.3 42740.7 11363.4 42697.1 11409.1 42630.4 11425.2 42551.2 11425.2 42034.8 11412.1 41963 11369.1 41894.6 11302.7 41848.3"/><path d="M 35896.2 41488.5 35817.2 41471.1 35737.7 41486 35670.3 41530.6 35502.1 41698.8 35409.8 41737 35348.6 41776.6 35301.8 41842.5 35284.4 41921.5 35299.3 42001 35343.9 42068.4 35964.2 42688.7 36028.6 42732.1 36107.8 42748.2 36282.2 42748.2 36352.4 42735.7 36421.2 42693.2 36468 42627.2 36485.3 42548.2 36470.5 42468.7 36425.8 42401.3 36140.9 42116.4 36017.2 41817.7 36017.2 41674.3 36004.7 41604.1 35962.2 41535.3 35896.2 41488.5"/><path d="M 43875.2 41059.7 43796.5 41041.1 43716.8 41054.7 43648.6 41098.3 43602.9 41165 43586.8 41244.2 43586.8 42403.2 43599.3 42473.4 43641.8 42542.2 43707.8 42589 43786.8 42606.3 43866.3 42591.5 43933.7 42546.8 44462 42018.5 44503.5 41958.6 44521.5 41879.7 44507.3 41800.1 44463.1 41732.3 44446.7 41721.2 44038.4 41312.9 43977.7 41166.5 43940.4 41107.6 43875.2 41059.7"/><path d="M 41841.7 40759.7 41762.9 40741.7 41683.2 40755.9 41615.5 40800 41570.3 40867.1 41447.2 41164.2 41431.8 41235.5 41445.4 41315.3 41489 41383.4 41555.7 41429.1 41634.9 41445.2 41758 41445.2 41831.3 41431.5 41899.4 41388 41945.1 41321.3 41961.2 41242 41961.2 40944.9 41949.2 40876.2 41907.3 40807 41841.7 40759.7"/><path d="M 53114.4 18824.9 53035.1 18808.8 51131.8 18808.8 51055.6 18823.7 50988.2 18868.3 46561.4 23295.1 46262.7 23418.8 40476.8 23418.8 40403.6 23432.5 40335.4 23476 40289.7 23542.7 40273.6 23622 40273.6 26961.2 40287.3 27034.5 40330.8 27102.6 40397.5 27148.3 40476.8 27164.4 40495.6 27164.4 40999.7 27373.2 41385.6 27759.1 41594.4 28263.2 41594.4 28808.8 41385.6 29312.9 40999.7 29698.8 40495.6 29907.6 40476.8 29907.6 40403.6 29921.3 40335.4 29964.8 40289.7 30031.5 40273.6 30110.8 40273.6 38961.2 40287.3 39034.5 40330.8 39102.6 40397.5 39148.3 40476.8 39164.4 40495.6 39164.4 40999.7 39373.2 41385.6 39759.1 41570.3 40204.9 41607.6 40263.8 41672.8 40311.6 41751.5 40330.2 41831.3 40316.7 41899.4 40273.1 41945.1 40206.4 41961.2 40127.2 41961.2 38314.3 42084.9 38015.6 44877.7 35222.8 44921.1 35158.4 44937.2 35079.2 44937.2 30047 44922.9 29972.3 44878.8 29904.5 44811.8 29859.3 44424.3 29698.8 44038.4 29312.9 43829.6 28808.8 43829.6 28263.2 44038.4 27759.1 44424.3 27373.2 44928.4 27164.4 45095 27164.4 45169.8 27150.1 45237.5 27106 45257.7 27076.1 45390.7 26943.1 45531.3 26802.5 45531.4 26802.4 53178.8 19155.7 53219.6 19097.2 53238.2 19018.5 53224.7 18938.8 53181.1 18870.6 53114.4 18824.9"/><path d="M 1304.4 28894.6 1225.7 28876 1146 28889.5 1077.8 28933.1 1032.1 28999.8 1016 29079.1 1016 39992.9 1028 40061.6 1069.9 40130.8 1135.5 40178.1 1214.3 40196.1 1294 40181.9 1361.7 40137.7 1406.9 40070.7 1536 39759.1 1921.9 39373.2 2426 39164.4 2444.8 39164.4 2518.1 39150.7 2586.2 39107.2 2631.9 39040.5 2648 38961.2 2648 30110.8 2634.3 30037.6 2590.8 29969.4 2524.1 29923.7 2444.8 29907.6 2426 29907.6 1921.9 29698.8 1536 29312.9 1406.9 29001.3 1369.6 28942.4 1304.4 28894.6"/><path d="M 55706.2 20074.9 55626.9 20058.8 54658.8 20058.8 54582.6 20073.7 54515.1 20118.3 47524.6 27108.3 47482.4 27169.7 47465.1 27248.7 47479.9 27328.2 47524.6 27395.6 47888 27759.1 48096.8 28263.2 48096.8 28808.8 47888 29312.9 47502.1 29698.8 46998 29907.6 46766 29907.6 46692.8 29921.3 46624.6 29964.8 46578.9 30031.5 46562.8 30110.8 46562.8 35661.7 46439.1 35960.4 43646.3 38753.2 43602.9 38817.6 43586.8 38896.8 43586.8 39827.8 43598.8 39896.5 43640.7 39965.6 43706.3 40012.9 43785.1 40030.9 43864.8 40016.7 43932.5 39972.6 43977.7 39905.6 44038.4 39759.1 44424.3 39373.2 44928.4 39164.4 46120.1 39164.4 46194.3 39150.4 46262.2 39106.5 49444.1 35993.7 49489.1 35927.7 49505.2 35848.5 49505.2 26952.3 49628.9 26653.6 55127.6 21154.9 55426.3 21031.2 55684.9 21031.2 55761.2 21016.3 55828.6 20971.7 56082.6 20717.7 56124.7 20656.2 56142.1 20577.2 56127.2 20497.7 56082.6 20430.3 55770.6 20118.3 55706.2 20074.9"/><path d="M 35893.3 38590.9 35814 38574.8 33016.8 38574.8 32940.6 38589.7 32873.2 38634.3 32651.6 38855.9 32611.4 38913 32592.2 38991.5 32605.1 39071.3 32648.2 39139.8 32714.5 39186.1 32793.6 39202.8 32873 39187.3 32928.4 39164.4 34998 39164.4 35502.1 39373.2 35670.3 39541.4 35728.8 39582.2 35807.5 39600.8 35887.3 39587.2 35955.4 39543.7 36001.1 39477 36017.2 39397.7 36017.2 38778 36003.5 38704.8 35960 38636.6 35893.3 38590.9"/><path d="M 38339.8 5871.9 38268.5 5856.5 38188.8 5870.1 38120.6 5913.7 38074.9 5980.4 38058.8 6059.6 38058.8 9233.7 37935.1 9532.4 34872.3 12595.2 34828.9 12659.6 34812.8 12738.8 34812.8 14961.2 34826.5 15034.5 34870 15102.6 34936.7 15148.3 34980.7 15157.2 35502.1 15373.2 35888 15759.1 36096.8 16263.2 36096.8 16808.8 35888 17312.9 35502.1 17698.8 34998 17907.6 32928.4 17907.6 32424.3 17698.8 32347.8 17622.3 32283.4 17578.9 32204.1 17562.8 31746 17562.8 31672.8 17576.5 31604.6 17620 31558.9 17686.7 31542.8 17766 31542.8 27934 31554.8 28002.7 31596.7 28071.9 31662.3 28119.2 31741.1 28137.2 31820.8 28123 31888.5 28078.8 31933.7 28011.8 32038.4 27759.1 32424.3 27373.2 32928.4 27164.4 34998 27164.4 35502.1 27373.2 35888 27759.1 36096.8 28263.2 36096.8 28808.8 35888 29312.9 35502.1 29698.8 35196.2 29825.5 35132.6 29867.3 35086.9 29934 35070.8 30013.2 35070.8 36746 35084.5 36819.3 35128 36887.4 35194.7 36933.1 35274 36949.2 36907.7 36949.2 37206.4 37072.9 37519.1 37385.6 37642.8 37684.3 37642.8 39184.7 37655.9 39256.4 37698.9 39324.9 37765.3 39371.2 37844.4 39387.9 37923.8 39372.4 38426 39164.4 38444.8 39164.4 38518.1 39150.7 38586.2 39107.2 38631.9 39040.5 38648 38961.2 38648 30110.8 38634.3 30037.6 38590.8 29969.4 38524.1 29923.7 38444.8 29907.6 38426 29907.6 37921.9 29698.8 37536 29312.9 37327.2 28808.8 37327.2 28263.2 37536 27759.1 37921.9 27373.2 38426 27164.4 38444.8 27164.4 38518.1 27150.7 38586.2 27107.2 38631.9 27040.5 38648 26961.2 38648 18110.8 38634.3 18037.6 38590.8 17969.4 38524.1 17923.7 38444.8 17907.6 38426 17907.6 37921.9 17698.8 37536 17312.9 37327.2 16808.8 37327.2 16263.2 37536 15759.1 37921.9 15373.2 38426 15164.4 38444.8 15164.4 38518.1 15150.7 38586.2 15107.2 38631.9 15040.5 38648 14961.2 38648 6110.8 38634.3 6037.6 38590.8 5969.4 38524.1 5923.7 38444.8 5907.6 38426 5907.6 38339.8 5871.9"/><path d="M 17797.7 28865.9 17718.9 28847.9 17639.2 28862.1 17571.5 28906.3 17526.3 28973.3 17385.6 29312.9 16999.7 29698.8 16495.6 29907.6 16476.8 29907.6 16403.6 29921.3 16335.4 29964.8 16289.7 30031.5 16273.6 30110.8 16273.6 38961.2 16287.3 39034.5 16330.8 39102.6 16397.5 39148.3 16476.8 39164.4 16495.6 39164.4 16940.2 39348.6 17011.5 39363.9 17091.3 39350.4 17159.4 39306.8 17205.1 39240.1 17221.2 39160.8 17221.2 37006.3 17344.9 36707.6 17857.7 36194.8 17901.1 36130.4 17917.2 36051.2 17917.2 29051.1 17905.2 28982.4 17863.3 28913.2 17797.7 28865.9"/><path d="M 29797.7 28865.9 29718.9 28847.9 29639.2 28862.1 29571.5 28906.3 29526.3 28973.3 29385.6 29312.9 28999.7 29698.8 28495.6 29907.6 28476.8 29907.6 28403.6 29921.3 28335.4 29964.8 28289.7 30031.5 28273.6 30110.8 28273.6 38961.2 28287.3 39034.5 28330.8 39102.6 28397.5 39148.3 28476.8 39164.4 28495.6 39164.4 28878.2 39322.9 28949.5 39338.2 29029.3 39324.7 29097.4 39281.1 29143.1 39214.4 29159.2 39135.2 29159.2 37576.3 29282.9 37277.6 29857.7 36702.8 29901.1 36638.4 29917.2 36559.2 29917.2 29051.1 29905.2 28982.4 29863.3 28913.2 29797.7 28865.9"/><path d="M 21529.1 38550.3 21451.3 38534.8 20610.8 38534.8 20534.6 38549.7 20467.2 38594.3 20430.3 38631.2 20386.9 38695.6 20370.8 38774.8 20370.8 39091.2 20383.9 39163 20426.9 39231.5 20493.3 39277.7 20572.4 39294.4 20651.8 39279 20928.4 39164.4 22998 39164.4 23164.2 39233.2 23235.5 39248.6 23315.3 39235.1 23383.4 39191.5 23429.1 39124.8 23445.2 39045.5 23445.2 38738 23431.5 38664.8 23388 38596.6 23321.3 38550.9 23242 38534.8 22048.7 38534.8 21970.9 38550.3 21911.7 38574.8 21588.3 38574.8 21529.1 38550.3"/><path d="M 26339.8 29871.9 26268.5 29856.5 26188.8 29870.1 26120.6 29913.7 26074.9 29980.4 26058.8 30059.6 26058.8 39012.4 26071.9 39084.1 26114.9 39152.6 26181.3 39198.8 26260.4 39215.6 26339.8 39200.1 26426 39164.4 26444.8 39164.4 26518.1 39150.7 26586.2 39107.2 26631.9 39040.5 26648 38961.2 26648 30110.8 26634.3 30037.6 26590.8 29969.4 26524.1 29923.7 26444.8 29907.6 26426 29907.6 26339.8 29871.9"/><path d="M 14339.8 29871.9 14268.5 29856.5 14188.8 29870.1 14120.6 29913.7 14074.9 29980.4 14058.8 30059.6 14058.8 39012.4 14071.9 39084.1 14114.9 39152.6 14181.3 39198.8 14260.4 39215.6 14339.8 39200.1 14426 39164.4 14444.8 39164.4 14518.1 39150.7 14586.2 39107.2 14631.9 39040.5 14648 38961.2 14648 30110.8 14634.3 30037.6 14590.8 29969.4 14524.1 29923.7 14444.8 29907.6 14426 29907.6 14339.8 29871.9"/><path d="M 67380.4 12324.9 67301.2 12308.8 66237.8 12308.8 66161.6 12323.7 66094.2 12368.3 65392.3 13070.2 65348.9 13134.6 65332.8 13213.8 65332.8 33407.7 65331.7 33410.2 65316.4 33481.5 65329.9 33561.3 65373.5 33629.4 65440.2 33675.1 65519.5 33691.2 68825.2 33691.2 68901.4 33676.3 68968.8 33631.7 72788.9 29811.6 72832.3 29747.2 72848.4 29668 72848.4 28660.7 72941.2 28436.7 73112.7 28265.2 73336.7 28172.4 75087.3 28172.4 75311.3 28265.2 75482.8 28436.7 75575.6 28660.7 75575.6 30411.3 75482.8 30635.3 75311.3 30806.8 75087.3 30899.6 74084 30899.6 74007.8 30914.5 73940.4 30959.1 69706.4 35193.1 69407.7 35316.8 59671.1 35316.8 59594.8 35331.7 59527.4 35376.3 59233.4 35670.3 59191.3 35731.8 59173.9 35810.8 59188.8 35890.3 59233.4 35957.7 59582.8 36307.1 59791.6 36811.2 59791.6 37356.8 59582.8 37860.9 59233.4 38210.3 59191.3 38271.8 59173.9 38350.8 59188.8 38430.3 59233.4 38497.7 59487.4 38751.7 59551.8 38795.1 59631.1 38811.2 73933.2 38811.2 74009.4 38796.3 74076.8 38751.7 78767.6 34060.9 79066.3 33937.2 85369 33937.2 85442.3 33923.5 85510.4 33880 85556.1 33813.3 85572.2 33734 85572.2 20192.8 85558.5 20119.6 85515 20051.4 85448.3 20005.7 85369 19989.6 83710.7 19989.6 83486.7 19896.8 83315.2 19725.3 83299.8 19688.2 83258.1 19624.6 83191.4 19578.9 83112.1 19562.8 70303.9 19562.8 70229.1 19577.1 70161.4 19621.2 70116.2 19688.2 70100.8 19725.3 69929.3 19896.8 69705.3 19989.6 67962.7 19989.6 67738.7 19896.8 67567.2 19725.3 67474.4 19501.3 67474.4 17958.7 67516.2 17857.8 67531.7 17781.6 67516.2 17702.2 67474.4 17601.3 67474.4 16058.7 67567.2 15834.7 67738.7 15663.2 67962.7 15570.4 67984 15570.4 68057.3 15556.7 68125.4 15513.2 68171.1 15446.5 68187.2 15367.2 68187.2 14858.8 68173.5 14785.6 68130 14717.4 68063.3 14671.7 67984 14655.6 67962.7 14655.6 67738.7 14562.8 67567.2 14391.3 67474.4 14167.3 67474.4 12624.7 67488.9 12589.8 67504.3 12518.5 67490.7 12438.8 67447.1 12370.6 67380.4 12324.9"/></g><path d="M 31831.2 28953.5 31752.5 28934.9 31672.8 28948.5 31604.6 28992 31558.9 29058.7 31542.8 29138 31542.8 37175.2 31555.3 37245.4 31597.8 37314.2 31663.8 37361 31742.8 37378.3 31822.3 37363.5 31889.7 37318.8 32135.6 37072.9 32434.3 36949.2 33242 36949.2 33315.3 36935.5 33383.4 36892 33429.1 36825.3 33445.2 36746 33445.2 30110.8 33431.5 30037.6 33388 29969.4 33321.3 29923.7 33242 29907.6 32928.4 29907.6 32424.3 29698.8 32038.4 29312.9 31933.7 29060.2 31896.4 29001.3 31831.2 28953.5"/><path d="M 11853 29531.8 11774 29514.4 11694.5 29529.2 11627 29573.9 11502.1 29698.8 10983.3 29913.7 10942.8 29921.3 10874.6 29964.8 10828.9 30031.5 10812.8 30110.8 10812.8 35797.2 10827.7 35873.4 10872.3 35940.8 12086.3 37154.8 12144.8 37195.6 12223.5 37214.3 12303.3 37200.7 12371.4 37157.1 12417.1 37090.4 12433.2 37011.2 12433.2 30176.8 12418.3 30100.6 12373.7 30033.2 11914.4 29573.9 11853 29531.8"/><path d="M 19831.2 28953.5 19752.5 28934.9 19672.8 28948.5 19604.6 28992 19558.9 29058.7 19542.8 29138 19542.8 36633.7 19492.2 36755.8 19476.9 36825.5 19489.8 36905.3 19532.9 36973.8 19599.2 37020 19678.3 37036.8 19757.7 37021.3 20028.3 36909.2 20734 36909.2 20807.3 36895.5 20875.4 36852 20921.1 36785.3 20937.2 36706 20937.2 30047 20922.9 29972.3 20878.8 29904.5 20811.8 29859.3 20424.3 29698.8 20038.4 29312.9 19933.7 29060.2 19896.4 29001.3 19831.2 28953.5"/><path d="M 24313.7 28833.1 24234.9 28815.1 24155.2 28829.3 24087.5 28873.4 24042.3 28940.5 23888 29312.9 23502.1 29698.8 22998 29907.6 22766 29907.6 22692.8 29921.3 22624.6 29964.8 22578.9 30031.5 22562.8 30110.8 22562.8 36706 22576.5 36779.3 22620 36847.4 22686.7 36893.1 22766 36909.2 24230 36909.2 24303.3 36895.5 24371.4 36852 24417.1 36785.3 24433.2 36706 24433.2 29018.2 24421.2 28949.5 24379.3 28880.4 24313.7 28833.1"/><path d="M 55545.2 35007.9 55466.5 34989.2 55386.8 35002.8 55318.6 35046.4 55272.9 35113.1 55256.8 35192.3 55256.8 35984 55270.5 36057.3 55314 36125.4 55380.7 36171.1 55460 36187.2 55768.9 36187.2 55845.2 36172.3 55912.6 36127.7 56082.6 35957.7 56124.7 35896.2 56142.1 35817.2 56127.2 35737.7 56082.6 35670.3 55733.2 35320.9 55647.7 35114.6 55610.4 35055.7 55545.2 35007.9"/><path d="M 54316.4 32832.9 54237.2 32816.8 54014.8 32816.8 53938.6 32831.7 53871.2 32876.3 53450.3 33297.2 53406.9 33361.6 53390.8 33440.8 53390.8 33663.2 53403.3 33733.4 53445.8 33802.2 53511.8 33849 53590.8 33866.3 53670.3 33851.5 53737.7 33806.8 54380.8 33163.7 54421.6 33105.2 54440.3 33026.5 54426.7 32946.8 54383.1 32878.6 54316.4 32832.9"/><path d="M 63586.2 28775 63507.2 28757.7 63427.7 28772.5 63360.3 28817.2 62024.4 30153.1 61725.7 30276.8 59631.1 30276.8 59554.8 30291.7 59487.4 30336.3 59233.4 30590.3 59191.3 30651.8 59173.9 30730.8 59188.8 30810.3 59233.4 30877.7 59582.8 31227.1 59791.6 31731.2 59791.6 32230 59805.3 32303.3 59848.8 32371.4 59915.5 32417.1 59994.8 32433.2 63504 32433.2 63577.3 32419.5 63645.4 32376 63691.1 32309.3 63707.2 32230 63707.2 28960.8 63694.7 28890.6 63652.2 28821.8 63586.2 28775"/><path d="M 62324.2 26267 62245.2 26249.7 62165.7 26264.5 62098.3 26309.2 60794.4 27613.1 60495.7 27736.8 59631.1 27736.8 59554.8 27751.7 59487.4 27796.3 59233.4 28050.3 59191.3 28111.8 59173.9 28190.8 59188.8 28270.3 59233.4 28337.7 59487.4 28591.7 59551.8 28635.1 59631.1 28651.2 61143.2 28651.2 61219.4 28636.3 61286.8 28591.7 62385.7 27492.8 62429.1 27428.4 62445.2 27349.2 62445.2 26452.8 62432.7 26382.6 62390.2 26313.8 62324.2 26267"/><path d="M 23035.4 26042.9 22956.2 26026.8 19746 26026.8 19672.8 26040.5 19604.6 26084 19558.9 26150.7 19542.8 26230 19542.8 27934 19554.8 28002.7 19596.7 28071.9 19662.3 28119.2 19741.1 28137.2 19820.8 28123 19888.5 28078.8 19933.7 28011.8 20038.4 27759.1 20424.3 27373.2 20928.4 27164.4 22998 27164.4 23502.1 27373.2 23888 27759.1 24042.3 28131.5 24079.6 28190.4 24144.8 28238.2 24223.5 28256.9 24303.3 28243.3 24371.4 28199.7 24417.1 28133 24433.2 28053.8 24433.2 27503.8 24418.3 27427.6 24373.7 27360.2 23099.8 26086.3 23035.4 26042.9"/><path d="M 17797.7 16865.9 17718.9 16847.9 17639.2 16862.1 17571.5 16906.3 17526.3 16973.3 17385.6 17312.9 16999.7 17698.8 16495.6 17907.6 16476.8 17907.6 16403.6 17921.3 16335.4 17964.8 16289.7 18031.5 16273.6 18110.8 16273.6 26961.2 16287.3 27034.5 16330.8 27102.6 16397.5 27148.3 16476.8 27164.4 16495.6 27164.4 16999.7 27373.2 17385.6 27759.1 17526.3 28098.7 17563.6 28157.6 17628.8 28205.4 17707.5 28224 17787.3 28210.5 17855.4 28166.9 17901.1 28100.2 17917.2 28020.9 17917.2 17051.1 17905.2 16982.4 17863.3 16913.2 17797.7 16865.9"/><path d="M 29797.7 16865.9 29718.9 16847.9 29639.2 16862.1 29571.5 16906.3 29526.3 16973.3 29385.6 17312.9 28999.7 17698.8 28495.6 17907.6 28476.8 17907.6 28403.6 17921.3 28335.4 17964.8 28289.7 18031.5 28273.6 18110.8 28273.6 26961.2 28287.3 27034.5 28330.8 27102.6 28397.5 27148.3 28476.8 27164.4 28495.6 27164.4 28999.7 27373.2 29385.6 27759.1 29526.3 28098.7 29563.6 28157.6 29628.8 28205.4 29707.5 28224 29787.3 28210.5 29855.4 28166.9 29901.1 28100.2 29917.2 28020.9 29917.2 17051.1 29905.2 16982.4 29863.3 16913.2 29797.7 16865.9"/><path d="M 1304.4 16894.6 1225.7 16876 1146 16889.5 1077.8 16933.1 1032.1 16999.8 1016 17079.1 1016 27992.9 1028 28061.6 1069.9 28130.8 1135.5 28178.1 1214.3 28196.1 1294 28181.9 1361.7 28137.7 1406.9 28070.7 1536 27759.1 1921.9 27373.2 2426 27164.4 2444.8 27164.4 2518.1 27150.7 2586.2 27107.2 2631.9 27040.5 2648 26961.2 2648 18110.8 2634.3 18037.6 2590.8 17969.4 2524.1 17923.7 2444.8 17907.6 2426 17907.6 1921.9 17698.8 1536 17312.9 1406.9 17001.3 1369.6 16942.4 1304.4 16894.6"/><path d="M 19899.8 3566.9 19820.6 3550.8 17603.4 3550.8 17531.7 3563.9 17463.2 3606.9 17417 3673.3 17400.2 3752.4 17415.7 3831.8 17594.4 4263.2 17594.4 4808.8 17385.6 5312.9 16999.7 5698.8 16495.6 5907.6 16476.8 5907.6 16403.6 5921.3 16335.4 5964.8 16289.7 6031.5 16273.6 6110.8 16273.6 14961.2 16287.3 15034.5 16330.8 15102.6 16397.5 15148.3 16476.8 15164.4 16495.6 15164.4 16999.7 15373.2 17385.6 15759.1 17594.4 16263.2 17594.4 16346.1 17606.4 16414.8 17648.3 16483.9 17713.9 16531.2 17792.7 16549.2 17872.4 16535 17940.1 16490.9 17985.3 16423.8 18040.9 16289.6 18269.6 16060.9 18568.3 15937.2 19828.9 15937.2 19903.6 15922.9 19971.4 15878.8 20016.6 15811.8 20038.4 15759 20424.3 15373.2 20928.4 15164.4 22998 15164.4 23502.1 15373.2 23888 15759.1 24096.8 16263.2 24096.8 16808.8 23888 17312.9 23502.1 17698.8 22998 17907.6 20928.4 17907.6 20424.3 17698.8 20347.8 17622.3 20283.4 17578.9 20204.1 17562.8 19746 17562.8 19672.8 17576.5 19604.6 17620 19558.9 17686.7 19542.8 17766 19542.8 24198 19556.5 24271.3 19600 24339.4 19666.7 24385.1 19746 24401.2 23538.7 24401.2 23837.4 24524.9 25935.1 26622.6 26058.8 26921.3 26058.8 27012.4 26071.9 27084.1 26114.9 27152.6 26181.3 27198.8 26260.4 27215.6 26339.8 27200.1 26426 27164.4 26444.8 27164.4 26518.1 27150.7 26586.2 27107.2 26631.9 27040.5 26648 26961.2 26648 18110.8 26634.3 18037.6 26590.8 17969.4 26524.1 17923.7 26444.8 17907.6 26426 17907.6 25921.9 17698.8 25536 17312.9 25327.2 16808.8 25327.2 16263.2 25536 15759.1 25921.9 15373.2 26426 15164.4 26444.8 15164.4 26518.1 15150.7 26586.2 15107.2 26631.9 15040.5 26648 14961.2 26648 6110.8 26634.3 6037.6 26590.8 5969.4 26524.1 5923.7 26444.8 5907.6 26426 5907.6 25921.9 5698.8 25536 5312.9 25327.2 4808.8 25327.2 4263.2 25505.9 3831.8 25521.3 3760.5 25507.7 3680.8 25464.1 3612.6 25397.4 3566.9 25318.2 3550.8 24105.8 3550.8 24034.1 3563.9 23965.6 3606.9 23919.4 3673.3 23902.6 3752.4 23918.1 3831.8 24096.8 4263.2 24096.8 4808.8 23888 5312.9 23502.1 5698.8 22998 5907.6 20928.4 5907.6 20424.3 5698.8 20038.4 5312.9 19829.6 4808.8 19829.6 4263.2 20008.3 3831.8 20023.7 3760.5 20010.1 3680.8 19966.5 3612.6 19899.8 3566.9"/><path d="M 61062.2 24521 60983.2 24503.7 60903.7 24518.5 60836.3 24563.2 60326.4 25073.1 60027.7 25196.8 59631.1 25196.8 59554.8 25211.7 59487.4 25256.3 59233.4 25510.3 59191.3 25571.8 59173.9 25650.8 59188.8 25730.3 59233.4 25797.7 59487.4 26051.7 59551.8 26095.1 59631.1 26111.2 59913.2 26111.2 59989.4 26096.3 60056.8 26051.7 61123.7 24984.8 61167.1 24920.4 61183.2 24841.2 61183.2 24706.8 61170.7 24636.6 61128.2 24567.8 61062.2 24521"/><path d="M 59800.2 22587.3 59721.2 22569.9 59641.7 22584.8 59574.3 22629.4 59233.4 22970.3 59191.3 23031.8 59173.9 23110.8 59188.8 23190.3 59233.4 23257.7 59394.4 23418.7 59455.9 23460.8 59534.9 23478.2 59614.4 23463.4 59681.8 23418.7 59861.7 23238.8 59905.1 23174.4 59921.2 23095.2 59921.2 22773.1 59908.7 22702.9 59866.2 22634.1 59800.2 22587.3"/><path d="M 41230.2 5652.1 41151.2 5634.7 41071.7 5649.6 41004.3 5694.2 40999.7 5698.8 40495.6 5907.6 40476.8 5907.6 40403.6 5921.3 40335.4 5964.8 40289.7 6031.5 40273.6 6110.8 40273.6 14961.2 40287.3 15034.5 40330.8 15102.6 40397.5 15148.3 40476.8 15164.4 40495.6 15164.4 40999.7 15373.2 41385.6 15759.1 41594.4 16263.2 41594.4 16808.8 41385.6 17312.9 40999.7 17698.8 40495.6 17907.6 40476.8 17907.6 40403.6 17921.3 40335.4 17964.8 40289.7 18031.5 40273.6 18110.8 40273.6 21590 40287.3 21663.3 40330.8 21731.4 40397.5 21777.1 40476.8 21793.2 45680.2 21793.2 45756.4 21778.3 45823.8 21733.7 49647.8 17909.7 49688.6 17851.2 49707.3 17772.5 49693.7 17692.8 49650.1 17624.6 49583.4 17578.9 49504.2 17562.8 47722.3 17562.8 47646 17577.7 47578.6 17622.3 47502.1 17698.8 46998 17907.6 44928.4 17907.6 44424.3 17698.8 44038.4 17312.9 43829.6 16808.8 43829.6 16263.2 43986 15885.6 44001.4 15811.1 43986.6 15731.6 43941.9 15664.2 41474.9 13197.2 41351.2 12898.5 41351.2 5837.9 41338.7 5767.7 41296.2 5698.9 41230.2 5652.1"/><path d="M 59800.2 20047.3 59721.2 20029.9 59641.7 20044.8 59574.3 20089.4 59233.4 20430.3 59191.3 20491.8 59173.9 20570.8 59188.8 20650.3 59233.4 20717.7 59574.3 21058.6 59632.8 21099.4 59711.5 21118 59791.3 21104.4 59859.4 21060.9 59905.1 20994.2 59921.2 20914.9 59921.2 20233.1 59908.7 20162.9 59866.2 20094.1 59800.2 20047.3"/><path d="M 83098.5 16078.9 83019.2 16062.8 80639.5 16062.8 80563.2 16077.7 80495.8 16122.3 80311.3 16306.8 80087.3 16399.6 79016 16399.6 78942.8 16413.3 78874.6 16456.8 78828.9 16523.5 78812.8 16602.8 78812.8 17734 78826.5 17807.3 78870 17875.4 78936.7 17921.1 79016 17937.2 83057.4 17937.2 83129.2 17924.1 83197.6 17881.1 83243.9 17814.7 83260.6 17735.6 83245.2 17656.2 83222.4 17601.3 83222.4 16266 83208.7 16192.8 83165.2 16124.6 83098.5 16078.9"/><path d="M 56235.2 5018.9 56155.9 5002.8 54444 5002.8 54370.8 5016.5 54302.6 5060 54256.9 5126.7 54240.8 5206 54240.8 8921.7 54257.7 9002.9 54304.2 9069.2 55837.3 10523.2 55894.9 10561.6 55973.9 10579 56053.4 10564.1 56116.7 10522.2 56389.3 10409.3 56449.4 10370.8 56496.7 10305.3 56514.7 10226.4 56500.5 10146.8 56456.3 10079 56389.3 10033.8 56320.5 10005.3 56034.7 9719.5 55880.5 9347.2 59435.5 9347.2 59281.3 9719.5 58995.5 10005.3 58926.7 10033.8 58866.6 10072.3 58819.3 10137.8 58801.3 10216.7 58815.5 10296.3 58859.7 10364.1 58926.7 10409.3 59196.9 10521.2 59582.8 10907.1 59791.6 11411.2 59791.6 11988 59805.3 12061.3 59848.8 12129.4 59915.5 12175.1 59994.8 12191.2 63419.7 12191.2 63685 12301.1 63759.5 12316.6 63839 12301.7 63906.5 12257.1 65356.6 10806.9 65655.3 10683.2 67355.8 10683.2 67430.6 10668.9 67498.4 10624.8 67543.6 10557.8 67567.2 10500.7 67738.7 10329.2 67962.7 10236.4 69705.3 10236.4 69929.3 10329.2 70100.8 10500.7 70122.8 10553.8 70164.6 10617.4 70231.3 10663.1 70310.5 10679.2 71010.7 10679.2 71085.5 10664.9 71153.3 10620.8 71198.5 10553.8 71289.2 10334.7 71460.7 10163.2 71684.7 10070.4 73227.3 10070.4 73451.3 10163.2 73646.9 10358.8 73650.4 10364.2 73717.1 10409.9 73796.4 10426 74152.8 10426 74152.8 12434 73796.4 12434 73721.6 12448.3 73653.8 12492.4 73650 12498.2 73451.3 12696.8 73227.3 12789.6 71684.7 12789.6 71460.7 12696.8 71289.2 12525.3 71249.8 12430.2 71208.1 12366.6 71141.4 12320.9 71062.1 12304.8 70365.2 12304.8 70293.4 12317.9 70225 12360.9 70178.7 12427.3 70162 12506.4 70177.5 12585.8 70193.6 12624.7 70193.6 14177.4 70182.8 14227.5 70196.4 14307.3 70239.9 14375.4 70306.6 14421.1 70385.9 14437.2 72645.2 14437.2 72718.5 14423.5 72786.6 14380 72832.3 14313.3 72848.4 14234 72848.4 14160.7 72941.2 13936.7 73112.7 13765.2 73336.7 13672.4 75087.3 13672.4 75311.3 13765.2 75482.8 13936.7 75501.5 13981.9 75541.1 14043.2 75607 14090 75686 14107.3 75765.5 14092.5 75832.9 14047.8 75852.8 14028 76508.8 14028 76508.8 16044 75852.8 16044 75832.9 16024.2 75773 15982.7 75694.1 15964.7 75614.5 15978.9 75546.7 16023 75501.5 16090.1 75482.8 16135.3 75311.3 16306.8 75087.3 16399.6 73336.7 16399.6 73112.7 16306.8 72928.2 16122.3 72863.8 16078.9 72784.5 16062.8 70396.8 16062.8 70323.6 16076.5 70255.4 16120 70209.7 16186.7 70193.6 16266 70193.6 17601.3 70170.8 17656.2 70155.5 17727.5 70169 17807.3 70212.6 17875.4 70279.3 17921.1 70358.6 17937.2 76984 17937.2 77057.3 17923.5 77125.4 17880 77171.1 17813.3 77187.2 17734 77187.2 16247.2 77173.5 16174 77130 16105.8 77063.3 16060.1 76984 16044 76915.2 16044 76915.2 14028 76984 14028 77057.3 14014.3 77125.4 13970.8 77171.1 13904.1 77187.2 13824.8 77187.2 13580.3 77310.9 13281.6 77789.6 12802.9 78110.2 12670.2 78129.6 12666.7 78198.5 12624.2 78245.2 12558.2 78262.6 12479.2 78247.8 12399.7 78203.1 12332.3 78156 12285.2 78156 11633.2 79263.2 11633.2 79263.2 10426 79619.6 10426 79694.4 10411.7 79762.2 10367.6 79766 10361.9 79964.7 10163.2 80188.7 10070.4 80956.6 10070.4 81028.3 10057.3 81096.8 10014.3 81143.1 9947.9 81159.8 9868.8 81144.3 9789.4 80936.4 9287.4 80936.4 8891 80921.5 8814.8 80876.9 8747.4 77191.8 5062.3 77127.4 5018.9 77048.2 5002.8 59160.1 5002.8 59091.4 5014.8 59022.2 5056.7 58974.9 5122.3 58956.9 5201.1 58971.1 5280.8 59015.3 5348.5 59082.3 5393.7 59196.9 5441.2 59582.8 5827.1 59791.6 6331.2 59791.6 6876.8 59582.8 7380.9 59196.9 7766.8 58926.7 7878.7 58866.6 7917.2 58819.3 7982.7 58801.3 8061.6 58815.5 8141.2 58859.7 8209 58926.7 8254.2 58995.5 8282.7 59281.3 8568.5 59435.5 8940.8 55880.5 8940.8 56034.7 8568.5 56320.5 8282.7 56389.3 8254.2 56449.4 8215.7 56496.7 8150.2 56514.7 8071.3 56500.5 7991.7 56456.3 7923.9 56389.3 7878.7 56119.1 7766.8 55733.2 7380.9 55524.4 6876.8 55524.4 6331.2 55733.2 5827.1 56119.1 5441.2 56233.7 5393.7 56292.6 5356.4 56340.4 5291.2 56359 5212.5 56345.5 5132.8 56301.9 5064.6 56235.2 5018.9"/></g><path d="M 61059.3 16332.9 60980 16316.8 59994.8 16316.8 59921.6 16330.5 59853.4 16374 59807.7 16440.7 59791.6 16520 59791.6 16980 59805.3 17053.3 59848.8 17121.4 59915.5 17167.1 59994.8 17183.2 60895.7 17183.2 60902.2 17185.9 60973.5 17201.3 61053.3 17187.7 61121.4 17144.1 61167.1 17077.4 61183.2 16998.2 61183.2 16520 61169.5 16446.8 61126 16378.6 61059.3 16332.9"/><path d="M 36309.3 7340.9 36230 7324.8 28476.8 7324.8 28403.6 7338.5 28335.4 7382 28289.7 7448.7 28273.6 7528 28273.6 14961.2 28287.3 15034.5 28330.8 15102.6 28397.5 15148.3 28476.8 15164.4 28495.6 15164.4 28999.7 15373.2 29385.6 15759.1 29594.4 16263.2 29594.4 16346.1 29606.4 16414.8 29648.3 16483.9 29713.9 16531.2 29792.7 16549.2 29872.4 16535 29940.1 16490.9 29985.3 16423.8 30040.9 16289.6 30269.6 16060.9 30568.3 15937.2 31828.9 15937.2 31903.6 15922.9 31971.4 15878.8 32016.6 15811.8 32038.4 15759 32424.3 15373.2 32928.4 15164.4 32984 15164.4 33057.3 15150.7 33125.4 15107.2 33171.1 15040.5 33187.2 14961.2 33187.2 12156.3 33310.9 11857.6 36373.7 8794.8 36417.1 8730.4 36433.2 8651.2 36433.2 7528 36419.5 7454.8 36376 7386.6 36309.3 7340.9"/><path d="M 1304.4 4894.6 1225.7 4876 1146 4889.5 1077.8 4933.1 1032.1 4999.8 1016 5079.1 1016 15992.9 1028 16061.6 1069.9 16130.8 1135.5 16178.1 1214.3 16196.1 1294 16181.9 1361.7 16137.7 1406.9 16070.7 1536 15759.1 1921.9 15373.2 2426 15164.4 2444.8 15164.4 2518.1 15150.7 2586.2 15107.2 2631.9 15040.5 2648 14961.2 2648 6110.8 2634.3 6037.6 2590.8 5969.4 2524.1 5923.7 2444.8 5907.6 2426 5907.6 1921.9 5698.8 1536 5312.9 1406.9 5001.3 1369.6 4942.4 1304.4 4894.6"/><path d="M 43265.2 9984.4 43186.5 9965.7 43106.8 9979.3 43038.6 10022.9 42992.9 10089.6 42976.8 10168.8 42976.8 12316 42991.7 12392.2 43036.3 12459.6 45681.6 15104.9 45746 15148.3 45825.2 15164.4 46998 15164.4 47502.1 15373.2 47888 15759 47909.8 15811.8 47951.6 15875.4 48018.3 15921.1 48097.6 15937.2 48745.2 15937.2 48815.4 15924.7 48884.2 15882.2 48931 15816.2 48948.3 15737.2 48933.5 15657.7 48888.8 15590.3 43323.7 10025.2 43265.2 9984.4"/><path d="M 62321.3 13832.9 62242 13816.8 59994.8 13816.8 59921.6 13830.5 59853.4 13874 59807.7 13940.7 59791.6 14020 59791.6 14488 59805.3 14561.3 59848.8 14629.4 59915.5 14675.1 59994.8 14691.2 62157.7 14691.2 62164.2 14693.9 62235.5 14709.3 62315.3 14695.7 62383.4 14652.1 62429.1 14585.4 62445.2 14506.2 62445.2 14020 62431.5 13946.8 62388 13878.6 62321.3 13832.9"/><path d="M 44527.8 5741.7 44456.5 5726.3 44376.8 5739.9 44308.6 5783.4 44262.9 5850.1 44246.8 5929.4 44246.8 8565.2 44261.7 8641.4 44306.3 8708.8 50229.2 14631.7 50293.6 14675.1 50372.8 14691.2 51253.2 14691.2 51323.4 14678.7 51392.2 14636.2 51439 14570.2 51456.3 14491.2 51441.5 14411.7 51396.8 14344.3 45274.1 8221.6 45150.4 7922.9 45150.4 6110.8 45136.7 6037.6 45093.2 5969.4 45026.5 5923.7 44947.2 5907.6 44928.4 5907.6 44527.8 5741.7"/><path d="M 48343.7 4760.7 48264.9 4742.7 48185.2 4756.9 48117.5 4801 48072.3 4868.1 47888 5312.9 47502.1 5698.8 46998 5907.6 46979.2 5907.6 46906 5921.3 46837.8 5964.8 46792.1 6031.5 46776 6110.8 46776 7340.4 46790.9 7416.6 46835.5 7484 52745.2 13393.7 52809.6 13437.1 52888.8 13453.2 53469.2 13453.2 53539.4 13440.7 53608.2 13398.2 53655 13332.2 53672.3 13253.2 53657.5 13173.7 53612.8 13106.3 48586.9 8080.4 48463.2 7781.7 48463.2 4945.8 48451.2 4877.1 48409.3 4808 48343.7 4760.7"/><path d="M 86860.1 1032.1 86780.8 1016 50144.2 1016 50072.5 1029.1 50004 1072.1 49957.8 1138.5 49941.1 1217.6 49956.5 1297 50088.8 1616.3 50088.8 7199.2 50103.7 7275.4 50148.3 7342.8 52266.9 9461.4 52330.3 9504.4 52409.5 9520.9 52488.8 9505.3 52555.8 9459.9 52599.7 9392 52613.7 9312.4 52610.6 9195.1 52615.2 9170.2 52615.2 4028.3 52738.9 3729.6 52967.6 3500.9 53266.3 3377.2 77630.7 3377.2 77929.4 3500.9 81827.1 7398.6 81885.6 7439.4 81964.3 7458.1 82044.1 7444.5 82112.2 7400.9 82157.9 7334.2 82174 7255 82174 6599 82480.9 5858 83048 5290.9 83789 4984 84591 4984 85332 5290.9 85899.1 5858 86206 6599 86206 7401 85899.1 8142 85332 8709.1 84591 9016 83858.8 9016 83785.6 9029.7 83717.4 9073.2 83671.7 9139.9 83655.6 9219.2 83655.6 9287.4 83448.6 9787.2 83435.5 9800.3 83395.4 9857.3 83376.1 9935.9 83389.1 10015.7 83432.1 10084.2 83498.4 10130.4 83577.6 10147.1 83656.9 10131.7 83710.7 10109.4 85453.3 10109.4 85677.3 10202.2 85848.8 10373.7 85915.3 10534.3 85958.2 10599.1 86025.3 10644.3 86111.4 10679.9 86637.1 11205.6 86695.6 11246.4 86774.3 11265.1 86854.1 11251.5 86922.2 11207.9 86967.9 11141.2 86984 11062 86984 1219.2 86970.3 1146 86926.8 1077.8 86860.1 1032.1"/><path d="M 83174.1 10191.8 83095 10175.1 83015.6 10190.6 82929.4 10226.3 82870.5 10263.6 82822.7 10328.8 82804 10407.5 82817.6 10487.3 82861.2 10555.4 82927.9 10601.1 83007.1 10617.2 83078.6 10617.2 83153.3 10603 83221.1 10558.8 83266.3 10491.8 83281.1 10456.1 83296.4 10386.4 83283.5 10306.6 83240.4 10238.1 83174.1 10191.8"/><path d="M 13397.4 3566.9 13318.2 3550.8 12182.8 3550.8 12106.6 3565.7 12039.2 3610.3 11984.7 3664.8 11941.9 3727.7 11925.2 3806.8 11940.7 3886.2 12096.8 4263.2 12096.8 4808.8 11888 5312.9 11502.1 5698.8 10998 5907.6 8928.4 5907.6 8424.3 5698.8 8038.4 5312.9 7933.7 5060.2 7896.4 5001.3 7831.2 4953.5 7752.5 4934.9 7672.8 4948.5 7604.6 4992 7558.9 5058.7 7542.8 5138 7542.8 6766 7556.5 6839.3 7600 6907.4 7666.7 6953.1 7746 6969.2 14444.8 6969.2 14518.1 6955.5 14586.2 6912 14631.9 6845.3 14648 6766 14648 6110.8 14634.3 6037.6 14590.8 5969.4 14524.1 5923.7 14444.8 5907.6 14426 5907.6 13921.9 5698.8 13536 5312.9 13327.2 4808.8 13327.2 4263.2 13505.9 3831.8 13521.3 3760.5 13507.7 3680.8 13464.1 3612.6 13397.4 3566.9"/><path d="M 31899.8 3566.9 31820.6 3550.8 29603.4 3550.8 29531.7 3563.9 29463.2 3606.9 29417 3673.3 29400.2 3752.4 29415.7 3831.8 29594.4 4263.2 29594.4 4808.8 29385.6 5312.9 29346.2 5352.3 29305.4 5410.8 29286.8 5489.5 29300.4 5569.3 29343.9 5637.4 29410.6 5683.1 29489.9 5699.2 31934.1 5699.2 32004.3 5686.7 32073.1 5644.2 32119.9 5578.2 32137.3 5499.2 32122.4 5419.7 32077.8 5352.3 32038.4 5312.9 31829.6 4808.8 31829.6 4263.2 32008.3 3831.8 32023.7 3760.5 32010.1 3680.8 31966.5 3612.6 31899.8 3566.9"/><path d="M 48140.4 1812.9 48061.2 1796.8 46464.8 1796.8 46394.6 1809.3 46325.8 1851.8 46279 1917.8 46261.7 1996.8 46276.5 2076.3 46321.2 2143.7 46652.3 2474.8 46776 2773.5 46776 2961.2 46789.7 3034.5 46833.2 3102.6 46899.9 3148.3 46979.2 3164.4 46998 3164.4 47502.1 3373.2 47888 3759.1 48072.3 4203.9 48109.6 4262.8 48174.8 4310.7 48253.5 4329.3 48333.3 4315.7 48401.4 4272.1 48447.1 4205.4 48463.2 4126.2 48463.2 2198.8 48448.3 2122.6 48403.7 2055.2 48204.8 1856.3 48140.4 1812.9"/><path d="M 6625.2 1032.1 6546 1016 1219.2 1016 1146 1029.7 1077.8 1073.2 1032.1 1139.9 1016 1219.2 1016 3992.9 1028 4061.6 1069.9 4130.8 1135.5 4178.1 1214.3 4196.1 1294 4181.9 1361.7 4137.7 1406.9 4070.7 1536 3759.1 1921.9 3373.2 2426 3164.4 4495.6 3164.4 4999.7 3373.2 5385.6 3759.1 5526.3 4098.7 5563.6 4157.6 5628.8 4205.4 5707.5 4224 5787.3 4210.5 5855.4 4166.9 5901.1 4100.2 5917.2 4020.9 5917.2 2310.3 6040.9 2011.6 6689.6 1362.9 6730.4 1304.4 6749.1 1225.7 6735.5 1146 6691.9 1077.8 6625.2 1032.1"/><path d="M 11142.4 1812.9 11063.2 1796.8 8638.8 1796.8 8562.6 1811.7 8495.2 1856.3 7602.3 2749.2 7558.9 2813.6 7542.8 2892.8 7542.8 3934 7554.8 4002.7 7596.7 4071.9 7662.3 4119.2 7741.1 4137.2 7820.8 4123 7888.5 4078.8 7933.7 4011.8 8038.4 3759.1 8424.3 3373.2 8928.4 3164.4 10102 3164.4 10178.2 3149.5 10245.6 3104.9 11206.8 2143.7 11247.6 2085.2 11266.3 2006.5 11252.7 1926.8 11209.1 1858.6 11142.4 1812.9"/><path d="M 44535.2 2674.4 44456.5 2655.7 44376.8 2669.3 44308.6 2712.9 44262.9 2779.6 44246.8 2858.8 44246.8 3142.6 44259.9 3214.3 44302.9 3282.8 44369.3 3329.1 44448.4 3345.8 44527.8 3330.3 44728.4 3247.2 44789.7 3207.7 44836.5 3141.7 44853.8 3062.7 44839 2983.2 44794.3 2915.8 44593.7 2715.2 44535.2 2674.4"/><path d="M 33571.3 1812.9 33492 1796.8 32940.8 1796.8 32870.6 1809.3 32801.8 1851.8 32755 1917.8 32737.7 1996.8 32752.5 2076.3 32797.2 2143.7 33348.3 2694.8 33406.8 2735.6 33485.5 2754.3 33565.3 2740.7 33633.4 2697.1 33679.1 2630.4 33695.2 2551.2 33695.2 2000 33681.5 1926.8 33638 1858.6 33571.3 1812.9"/><path d="M 56896 39624 58420 39624 M 58420 37084 56896 37084 M 56896 34544 58420 34544 M 58420 32004 56896 32004 M 56896 29464 58420 29464 M 58420 26924 56896 26924 M 56896 24384 58420 24384 M 58420 21844 56896 21844 M 56896 19304 58420 19304 M 58420 16764 56896 16764 M 56896 14224 58420 14224 M 58420 11684 56896 11684 M 56896 9144 58420 9144 M 58420 6604 56896 6604" fill="none" stroke-width="1524"/><use xlink:href="#VH-MHz9x4zLzjbKM0GAs_pad-11" x="74212" y="15036"/><use xlink:href="#VH-MHz9x4zLzjbKM0GAs_pad-11" x="76712" y="15036"/><use xlink:href="#VH-MHz9x4zLzjbKM0GAs_pad-11" x="79212" y="15036"/><use xlink:href="#VH-MHz9x4zLzjbKM0GAs_pad-11" x="74212" y="29536"/><use xlink:href="#VH-MHz9x4zLzjbKM0GAs_pad-11" x="79212" y="29536"/><use xlink:href="#VH-MHz9x4zLzjbKM0GAs_pad-12" x="70612" y="22536"/><use xlink:href="#VH-MHz9x4zLzjbKM0GAs_pad-12" x="82812" y="22536"/><path d="M 4222.8 40536 2698.8 40536 M 9201.2 40536 10725.2 40536 M 14698.8 40536 16222.8 40536 M 21201.2 40536 22725.2 40536 M 26698.8 40536 28222.8 40536 M 33201.2 40536 34725.2 40536 M 38698.8 40536 40222.8 40536 M 45201.2 40536 46725.2 40536 M 4222.8 28536 2698.8 28536 M 9201.2 28536 10725.2 28536 M 14698.8 28536 16222.8 28536 M 21201.2 28536 22725.2 28536 M 26698.8 28536 28222.8 28536 M 33201.2 28536 34725.2 28536 M 38698.8 28536 40222.8 28536 M 45201.2 28536 46725.2 28536 M 4222.8 16536 2698.8 16536 M 9201.2 16536 10725.2 16536 M 14698.8 16536 16222.8 16536 M 21201.2 16536 22725.2 16536 M 26698.8 16536 28222.8 16536 M 33201.2 16536 34725.2 16536 M 38698.8 16536 40222.8 16536 M 45201.2 16536 46725.2 16536 M 4222.8 4536 2698.8 4536 M 9201.2 4536 10725.2 4536 M 14698.8 4536 16222.8 4536 M 21201.2 4536 22725.2 4536 M 26698.8 4536 28222.8 4536 M 33201.2 4536 34725.2 4536 M 38698.8 4536 40222.8 4536 M 45201.2 4536 46725.2 4536" fill="none" stroke-width="1524"/><use xlink:href="#VH-MHz9x4zLzjbKM0GAs_pad-13" x="68834" y="11496"/><use xlink:href="#VH-MHz9x4zLzjbKM0GAs_pad-13" x="68834" y="13396"/><use xlink:href="#VH-MHz9x4zLzjbKM0GAs_pad-13" x="68834" y="16830"/><use xlink:href="#VH-MHz9x4zLzjbKM0GAs_pad-13" x="68834" y="18730"/><use xlink:href="#VH-MHz9x4zLzjbKM0GAs_pad-13" x="84582" y="16830"/><use xlink:href="#VH-MHz9x4zLzjbKM0GAs_pad-13" x="84582" y="18730"/><use xlink:href="#VH-MHz9x4zLzjbKM0GAs_pad-13" x="84582" y="13269"/><use xlink:href="#VH-MHz9x4zLzjbKM0GAs_pad-13" x="84582" y="11369"/><use xlink:href="#VH-MHz9x4zLzjbKM0GAs_pad-14" x="72456" y="11430"/><use xlink:href="#VH-MHz9x4zLzjbKM0GAs_pad-14" x="74356" y="11430"/><use xlink:href="#VH-MHz9x4zLzjbKM0GAs_pad-14" x="80960" y="11430"/><use xlink:href="#VH-MHz9x4zLzjbKM0GAs_pad-14" x="79060" y="11430"/><path d="M 79000 11492 76750 11492 74500 11492 74356 11430 M 79000 11492 79060 11430 M 76750 11492 76750 15000" fill="none" stroke-width="406.4"/><path d="M 76750 15000 76712 15036" fill="none" stroke-width="152.4"/><use xlink:href="#VH-MHz9x4zLzjbKM0GAs_pad-17" x="66294" y="9144"/><use xlink:href="#VH-MHz9x4zLzjbKM0GAs_pad-17" x="66294" y="14224"/><path d="M 66294 14224 66226 14292 M 3460.8 28536 3460.8 40536 M 3460.8 28536 3460.8 16536 3460.8 4536 M 53594 32004 57658 32004 M 53594 32004 52578 33020 52578 41506 49314 44770 5996 44770 3460.8 42234.8 3460.8 40536 M 15460.8 40536 15460.8 28536 15460.8 16536 15460.8 7782 M 61564 29464 63258 27770 M 61564 29464 57658 29464 M 63258 27770 63258 13004 54660 13004 M 8218 984 6730 2472 6730 7782 15460.8 7782 M 8218 984 48482 984 49276 1778 49276 7620 54660 13004 M 15460.8 7782 15460.8 4536 M 27460.8 28536 27460.8 40536 M 27460.8 28536 27460.8 16536 27460.8 6512 27460.8 4536 M 60334 26924 61996 25262 M 60334 26924 57658 26924 M 61996 25262 61996 15504 49952 15504 M 36258 6512 36258 2492 M 36258 6512 27460.8 6512 M 43434 8986 43434 2540 43386 2492 36258 2492 M 43434 8986 49952 15504 M 39460.8 28536 39460.8 40536 M 39460.8 28536 39460.8 22606 39460.8 16536 39460.8 4536 M 59866 24384 60734 23516 M 59866 24384 57658 24384 M 60734 23516 60734 17996 M 46101 22606 39460.8 22606 M 50711 17996 60734 17996 M 50711 17996 46101 22606 M 9963.2 40536 9963.2 42729.2 11049 43815 19939 43815 21963.2 41790.8 21963.2 40536 M 21963.2 41806 23972.2 43815 M 21963.2 41806 21963.2 40536 M 31954.2 43815 33963.2 41806 33963.2 40536 M 31954.2 43815 23972.2 43815 M 33963.2 41837.2 33963.2 40536 M 33963.2 41837.2 35687 43561 44069 43561 45963.2 41666.8 45963.2 40536 M 50318 27114 55588 21844 M 50318 27114 50318 36275.9 M 55588 21844 57658 21844 M 50318 36275.9 45963.2 40536" fill="none" stroke-width="406.4"/><path d="M 57658 19304 57600 19246" fill="none" stroke-width="152.4"/><path d="M 57600 19246 54238 19246 45963.2 27520.1 45963.2 28536 M 10000 28750 10000 36218 12238 38456 12238 42885" fill="none" stroke-width="406.4"/><path d="M 21750 37762 21790 37722" fill="none" stroke-width="152.4"/><path d="M 21750 37762 21750 28750" fill="none" stroke-width="406.4"/><path d="M 10000 28750 9963.2 28536 M 21750 28750 21963.2 28536" fill="none" stroke-width="152.4"/><path d="M 33963.2 28536 34258 28830.8 34258 37762 M 24258 37722 24258 42885 M 24258 37722 21790 37722 M 45750 35500 45750 28750 M 45750 35500 42774 38476 42774 42258 M 45750 28750 45963.2 28536 M 36830 41656 37432 42258 M 36830 41656 36830 37846 36746 37762 34258 37762 M 37432 42258 42774 42258 M 31496 42164 31496 38862 32596 37762 34258 37762 M 30775 42885 24258 42885 M 30775 42885 31496 42164 M 19558 41910 19558 38354 20190 37722 21790 37722 M 18583 42885 12238 42885 M 18583 42885 19558 41910 M 10000 23964 10000 16750 M 18730 16750 18730 25214 18730 36472 M 18730 16750 21750 16750" fill="none" stroke-width="406.4"/><path d="M 10000 16750 9963.2 16536 M 21750 16750 21963.2 16536" fill="none" stroke-width="152.4"/><path d="M 34000 16500 34000 12318 37246 9072 37246 3246 42164 3246" fill="none" stroke-width="406.4"/><path d="M 34000 16500 33963.2 16536" fill="none" stroke-width="152.4"/><path d="M 46000 16750 57464 16750" fill="none" stroke-width="406.4"/><path d="M 57464 16750 57658 16764" fill="none" stroke-width="152.4"/><path d="M 46000 16750 45963.2 16536 M 23377 25214 18730 25214 M 23377 25214 25246 27083 25246 42004 M 30730 36980 30730 16750 33750 16750" fill="none" stroke-width="406.4"/><path d="M 33750 16750 33963.2 16536" fill="none" stroke-width="152.4"/><path d="M 12446 26410 12446 28956 M 12446 26410 10000 23964 M 13246 29756 13246 41750 M 13246 29756 12446 28956 M 42164 12736.8 45963.2 16536 M 42164 12736.8 42164 3246 M 29972 41148 29116 42004 25246 42004 M 29972 37738 30730 36980 M 29972 37738 29972 41148 M 17686 41750 13246 41750 M 17686 41750 18034 41402 M 18034 37168 18730 36472 M 18034 37168 18034 41402 M 10000 4500 11762 2738 21258 2738 M 21963.2 3443.2 21963.2 4536 M 21963.2 3443.2 21258 2738" fill="none" stroke-width="406.4"/><path d="M 10000 4500 9963.2 4536 M 33963.2 4536 33963.2 4459.2" fill="none" stroke-width="152.4"/><path d="M 33963.2 4459.2 32242 2738 21258 2738 M 45963.2 2935.2 45963.2 4536 M 45963.2 2935.2 44766 1738 34508 1738 34508 4003 33963.2 4536" fill="none" stroke-width="406.4"/><path d="M 57616 14266 57658 14224" fill="none" stroke-width="152.4"/><path d="M 57616 14266 52468 14266 45963.2 7761.2 45963.2 4536 M 74000 29750 69246 34504 57708.9 34504" fill="none" stroke-width="406.4"/><path d="M 74000 29750 74212 29536 M 57708.9 34504 57658 34544" fill="none" stroke-width="152.4"/><path d="M 78000 18750 84500 18750 M 78000 18750 69000 18750" fill="none" stroke-width="406.4"/><path d="M 69000 18750 68834 18730 M 84500 18750 84582 18730" fill="none" stroke-width="152.4"/><path d="M 53428 9358.4 53428 4190 77469 4190 82296 9017 M 78250 13492 78000 13742 78000 18750 M 57658 11684 55880 11684 53428 9358.4" fill="none" stroke-width="406.4"/><use xlink:href="#VH-MHz9x4zLzjbKM0GAs_pad-17" x="82296" y="13462"/><use xlink:href="#VH-MHz9x4zLzjbKM0GAs_pad-17" x="82296" y="9017"/><path d="M 82296 13462 82266 13492 78250 13492 M 69000 15250 69000 16750 M 69000 15250 69000 13488" fill="none" stroke-width="406.4"/><path d="M 69000 13488 68834 13396 M 69000 16750 68834 16830" fill="none" stroke-width="152.4"/><path d="M 69000 15250 74000 15250 74212 15036 M 84750 15250 84750 16750 M 84750 15250 84750 13361" fill="none" stroke-width="406.4"/><path d="M 84750 13361 84582 13269 M 84750 16750 84582 16830" fill="none" stroke-width="152.4"/><path d="M 84750 15250 79250 15250" fill="none" stroke-width="406.4"/><path d="M 79250 15250 79212 15036" fill="none" stroke-width="152.4"/><path d="M 80960 11430 84521 11430 84582 11369 M 85651 11369 86385 12103 M 85651 11369 84582 11369 M 86385 12103 86385 34750 79228 34750 74354 39624 57658 39624 M 68838 11492 72250 11492 M 68838 11492 68834 11496 M 72250 11492 72456 11430 M 68834 11496 65817 11496 64520 12793 64520 33246 55448 33246 54444 34250 54444 37000 57464 37000" fill="none" stroke-width="406.4"/><path d="M 57464 37000 57658 37084" fill="none" stroke-width="152.4"/><path d="M 0 0 88000 0 88000 46000 0 46000 0 0" fill="none" stroke-width="254"/></g></svg>