<svg version="1.1" xmlns="http://www.w3.org/2000/svg" xmlns:xlink="http://www.w3.org/1999/xlink" stroke-linecap="round" stroke-linejoin="round" stroke-width="0" fill-rule="evenodd" width="88.254mm" height="46.254mm" viewBox="-127 -127 88254 46254" id="kNP0FhNNXByCvTZwbE7m"><defs><mask id="kNP0FhNNXByCvTZwbE7m_clear-1" fill="#000" stroke="#000"><g><rect x="47633.6" y="38735" width="1337.2" height="1728.6" fill="#fff"/><path d="M 48736.5 38922.7 48736.5 39545.9 48299.7 39545.9 48247.7 39544.7 48199.1 39541.1 48153.8 39535.2 48111.9 39526.8 48073.3 39516.1 48038.1 39503 48006.2 39487.4 47977.7 39469.6 47952.5 39449.3 47930.7 39426.6 47912.3 39401.5 47897.2 39374.1 47885.4 39344.3 47877 39312 47872 39277.4 47870.3 39240.4 47871.9 39202.1 47876.5 39166.2 47884.1 39132.8 47894.9 39101.8 47908.7 39073.3 47925.5 39047.2 47945.5 39023.6 47968.5 39002.4 47994.8 38983.8 48024.8 38967.6 48058.5 38953.9 48095.8 38942.6 48136.7 38933.9 48181.2 38927.7 48229.5 38923.9 48281.3 38922.7 48736.5 38922.7"/><path d="M 48736.5 39728.7 48736.5 40275.9 48342.6 40275.9 48298.6 40274.9 48257.2 40272.1 48218.6 40267.4 48182.6 40260.8 48149.2 40252.4 48118.6 40242.1 48090.7 40229.8 48065.4 40215.8 48043 40199.5 48023.5 40180.7 48007.1 40159.5 47993.6 40135.7 47983.2 40109.5 47975.7 40080.7 47971.2 40049.5 47969.7 40015.8 47971.1 39980.5 47975.5 39947.5 47982.7 39916.9 47992.9 39888.7 48005.9 39862.8 48021.8 39839.2 48040.6 39818.1 48062.3 39799.3 48087 39782.7 48114.6 39768.4 48145.2 39756.3 48178.7 39746.3 48215.2 39738.6 48254.7 39733.1 48297.2 39729.8 48342.6 39728.7 48736.5 39728.7"/></g></mask><mask id="kNP0FhNNXByCvTZwbE7m_clear-2" fill="#000" stroke="#000"><g><rect x="47506" y="36195" width="8167.9" height="4294.3" fill="#fff"/><path d="M 48659.2 36883.2 48438.3 37451.3 48385.6 37596.3 48347.6 37712.6 48336.5 37746.9 48303.4 37645.1 48269 37543.9 48234.7 37453.7 48012.6 36883.2 48659.2 36883.2"/></g></mask><mask id="kNP0FhNNXByCvTZwbE7m_clear-3" fill="#000" stroke="#000"><g><rect x="45958.6" y="33655" width="9715.3" height="6834.3" fill="#fff"/><path d="M 47061.5 33842.7 47061.5 34465.9 46624.7 34465.9 46572.7 34464.7 46524.1 34461.1 46478.8 34455.2 46436.9 34446.8 46398.3 34436.1 46363.1 34423 46331.2 34407.4 46302.7 34389.6 46277.5 34369.3 46255.7 34346.6 46237.3 34321.5 46222.2 34294.1 46210.4 34264.3 46202 34232 46197 34197.4 46195.3 34160.4 46196.9 34122.1 46201.5 34086.2 46209.1 34052.8 46219.9 34021.8 46233.7 33993.3 46250.5 33967.2 46270.5 33943.6 46293.5 33922.4 46319.8 33903.8 46349.8 33887.6 46383.5 33873.9 46420.8 33862.6 46461.7 33853.9 46506.2 33847.7 46554.5 33843.9 46606.3 33842.7 47061.5 33842.7"/><path d="M 47061.5 34648.7 47061.5 35195.9 46667.6 35195.9 46623.6 35194.9 46582.2 35192.1 46543.6 35187.4 46507.6 35180.8 46474.2 35172.4 46443.6 35162.1 46415.7 35149.8 46390.4 35135.8 46368 35119.5 46348.5 35100.7 46332.1 35079.5 46318.6 35055.7 46308.2 35029.5 46300.7 35000.7 46296.2 34969.5 46294.7 34935.8 46296.1 34900.5 46300.5 34867.5 46307.7 34836.9 46317.9 34808.7 46330.9 34782.8 46346.8 34759.2 46365.6 34738.1 46387.3 34719.3 46412 34702.7 46439.6 34688.4 46470.2 34676.3 46503.7 34666.3 46540.2 34658.6 46579.7 34653.1 46622.2 34649.8 46667.6 34648.7 47061.5 34648.7"/></g></mask><mask id="kNP0FhNNXByCvTZwbE7m_clear-4" fill="#000" stroke="#000"><g><rect x="45958.6" y="33655" width="9715.3" height="6834.3" fill="#fff"/><path d="M 48736.5 34513.8 48736.5 35195.9 48271.5 35195.9 48222.8 35194.6 48177.2 35190.6 48134.7 35184.1 48095.4 35174.9 48059.3 35163.2 48026.3 35148.8 47996.4 35131.8 47969.7 35112.1 47946.1 35089.9 47925.7 35065 47908.4 35037.6 47894.3 35007.5 47883.2 34974.8 47875.4 34939.4 47870.7 34901.5 47869.1 34861 47870.6 34818.9 47875.2 34779.6 47882.9 34743 47893.6 34709.1 47907.4 34677.9 47924.3 34649.4 47944.2 34623.6 47967.2 34600.6 47993.3 34580.2 48022.5 34562.6 48054.7 34547.7 48089.9 34535.5 48128.3 34526 48169.7 34519.2 48214.1 34515.1 48261.7 34513.8 48736.5 34513.8"/></g></mask><mask id="kNP0FhNNXByCvTZwbE7m_clear-5" fill="#000" stroke="#000"><g><rect x="45958.6" y="23495" width="9715.3" height="16994.3" fill="#fff"/><path d="M 47381.2 24060.6 47361.6 24085.1 47295.3 24175.9 46852.4 24828.5 46832.5 24860.4 46804.6 24909.5 46770.2 24974.5 46770.2 24060.6 47381.2 24060.6"/></g></mask><mask id="kNP0FhNNXByCvTZwbE7m_clear-6" fill="#000" stroke="#000"><g><rect x="45958.6" y="20955" width="9715.3" height="19534.3" fill="#fff"/><path d="M 49017.7 21857.9 49017.7 22495.9 48462 22495.9 48415.2 22494.6 48371.3 22490.9 48330.2 22484.7 48291.9 22476.1 48256.4 22465 48223.8 22451.4 48193.9 22435.3 48166.9 22416.7 48142.9 22395.8 48122.1 22372.7 48104.5 22347.3 48090.1 22319.7 48078.9 22289.8 48070.9 22257.7 48066.1 22223.3 48064.5 22186.7 48066.1 22148.8 48070.8 22113.1 48078.7 22079.6 48089.8 22048.2 48104 22019 48121.4 21992 48142 21967.1 48165.7 21944.4 48192.3 21924.1 48221.5 21906.6 48253.4 21891.7 48287.9 21879.6 48325 21870.1 48364.8 21863.3 48407.1 21859.3 48452.1 21857.9 49017.7 21857.9"/></g></mask><mask id="kNP0FhNNXByCvTZwbE7m_clear-7" fill="#000" stroke="#000"><g><rect x="45958.6" y="18415" width="9715.3" height="22074.3" fill="#fff"/><path d="M 49017.7 19317.9 49017.7 19955.9 48462 19955.9 48415.2 19954.6 48371.3 19950.9 48330.2 19944.7 48291.9 19936.1 48256.4 19925 48223.8 19911.4 48193.9 19895.3 48166.9 19876.7 48142.9 19855.8 48122.1 19832.7 48104.5 19807.3 48090.1 19779.7 48078.9 19749.8 48070.9 19717.7 48066.1 19683.3 48064.5 19646.7 48066.1 19608.8 48070.8 19573.1 48078.7 19539.6 48089.8 19508.2 48104 19479 48121.4 19452 48142 19427.1 48165.7 19404.4 48192.3 19384.1 48221.5 19366.6 48253.4 19351.7 48287.9 19339.6 48325 19330.1 48364.8 19323.3 48407.1 19319.3 48452.1 19317.9 49017.7 19317.9"/></g></mask><mask id="kNP0FhNNXByCvTZwbE7m_clear-8" fill="#000" stroke="#000"><g><rect x="45958.6" y="15875" width="9715.3" height="24614.3" fill="#fff"/><path d="M 49017.7 16777.9 49017.7 17415.9 48462 17415.9 48415.2 17414.6 48371.3 17410.9 48330.2 17404.7 48291.9 17396.1 48256.4 17385 48223.8 17371.4 48193.9 17355.3 48166.9 17336.7 48142.9 17315.8 48122.1 17292.7 48104.5 17267.3 48090.1 17239.7 48078.9 17209.8 48070.9 17177.7 48066.1 17143.3 48064.5 17106.7 48066.1 17068.8 48070.8 17033.1 48078.7 16999.6 48089.8 16968.2 48104 16939 48121.4 16912 48142 16887.1 48165.7 16864.4 48192.3 16844.1 48221.5 16826.6 48253.4 16811.7 48287.9 16799.6 48325 16790.1 48364.8 16783.3 48407.1 16779.3 48452.1 16777.9 49017.7 16777.9"/></g></mask><mask id="kNP0FhNNXByCvTZwbE7m_clear-9" fill="#000" stroke="#000"><g><rect x="45958.6" y="13335" width="9715.3" height="27154.3" fill="#fff"/><path d="M 49017.7 14237.9 49017.7 14875.9 48462 14875.9 48415.2 14874.6 48371.3 14870.9 48330.2 14864.7 48291.9 14856.1 48256.4 14845 48223.8 14831.4 48193.9 14815.3 48166.9 14796.7 48142.9 14775.8 48122.1 14752.7 48104.5 14727.3 48090.1 14699.7 48078.9 14669.8 48070.9 14637.7 48066.1 14603.3 48064.5 14566.7 48066.1 14528.8 48070.8 14493.1 48078.7 14459.6 48089.8 14428.2 48104 14399 48121.4 14372 48142 14347.1 48165.7 14324.4 48192.3 14304.1 48221.5 14286.6 48253.4 14271.7 48287.9 14259.6 48325 14250.1 48364.8 14243.3 48407.1 14239.3 48452.1 14237.9 49017.7 14237.9"/></g></mask><mask id="kNP0FhNNXByCvTZwbE7m_clear-10" fill="#000" stroke="#000"><g><rect x="45958.6" y="13335" width="9715.3" height="27154.3" fill="#fff"/><path d="M 47381.2 13900.6 47361.6 13925.1 47295.3 14015.9 46852.4 14668.5 46832.5 14700.4 46804.6 14749.5 46770.2 14814.5 46770.2 13900.6 47381.2 13900.6"/></g></mask><mask id="kNP0FhNNXByCvTZwbE7m_clear-11" fill="#000" stroke="#000"><g><rect x="45958.6" y="8255" width="9798.7" height="32234.3" fill="#fff"/><path d="M 51670.8 8442.7 51670.8 9795.9 51338.4 9795.9 51297.3 9795.2 51257.4 9793.2 51218.8 9789.9 51181.4 9785.3 51145.2 9779.4 51110.3 9772.1 51076.6 9763.6 51044.1 9753.7 51012.8 9742.5 50982.8 9730 50954.1 9716.1 50926.5 9701 50900.2 9684.5 50875.1 9666.7 50851.2 9647.6 50828.6 9627.2 50807.3 9605.5 50787.4 9582.6 50768.8 9558.6 50751.6 9533.3 50735.8 9506.8 50721.3 9479.2 50708.3 9450.3 50696.6 9420.3 50686.3 9389.1 50677.3 9356.7 50669.8 9323 50663.6 9288.2 50658.8 9252.2 50655.3 9215 50653.3 9176.7 50652.6 9137.1 50653.8 9084.6 50657.4 9033.9 50663.4 8984.9 50671.9 8937.7 50682.8 8892.3 50696.1 8848.6 50711.8 8806.7 50729.9 8766.6 50750.2 8728.5 50772.7 8692.7 50797.2 8659.2 50823.9 8627.9 50852.6 8599 50883.4 8572.4 50916.3 8548.1 50951.3 8526.1 50988.1 8506.6 51026.3 8489.6 51065.9 8475.3 51107 8463.6 51149.5 8454.4 51193.4 8447.9 51238.8 8444 51285.6 8442.7 51670.8 8442.7"/></g></mask><mask id="kNP0FhNNXByCvTZwbE7m_clear-12" fill="#000" stroke="#000"><g><rect x="45958.6" y="5690.5" width="23998.3" height="34798.8" fill="#fff"/><path d="M 69789.6 9407.6 69789.6 9863.1 69392.8 9863.1 69359.4 9862.2 69328.1 9859.5 69298.7 9855.1 69271.4 9849 69246.1 9841 69222.8 9831.3 69201.5 9819.8 69182.2 9806.6 69165 9791.7 69150.2 9775.1 69137.6 9757 69127.3 9737.3 69119.3 9716 69113.6 9693 69110.2 9668.5 69109 9642.4 69110.2 9615.3 69113.5 9589.8 69119.2 9565.9 69127.1 9543.5 69137.3 9522.6 69149.7 9503.3 69164.4 9485.6 69181.3 9469.4 69200.3 9454.9 69221.2 9442.4 69243.9 9431.7 69268.5 9423.1 69295 9416.3 69323.4 9411.5 69353.7 9408.6 69385.8 9407.6 69789.6 9407.6"/></g></mask><mask id="kNP0FhNNXByCvTZwbE7m_clear-13" fill="#000" stroke="#000"><g><rect x="45958.6" y="5690.5" width="23998.3" height="34798.8" fill="#fff"/><path d="M 68519.6 20837.6 68519.6 21293.1 68122.8 21293.1 68089.4 21292.2 68058.1 21289.5 68028.7 21285.1 68001.4 21279 67976.1 21271 67952.8 21261.3 67931.5 21249.8 67912.2 21236.6 67895 21221.7 67880.2 21205.1 67867.6 21187 67857.3 21167.3 67849.3 21146 67843.6 21123 67840.2 21098.5 67839 21072.4 67840.2 21045.3 67843.5 21019.8 67849.2 20995.9 67857.1 20973.5 67867.3 20952.6 67879.7 20933.3 67894.4 20915.6 67911.3 20899.4 67930.3 20884.9 67951.2 20872.4 67973.9 20861.7 67998.5 20853.1 68025 20846.3 68053.4 20841.5 68083.7 20838.6 68115.8 20837.6 68519.6 20837.6"/></g></mask><mask id="kNP0FhNNXByCvTZwbE7m_clear-14" fill="#000" stroke="#000"><g><rect x="45958.6" y="5690.5" width="41016.3" height="34798.8" fill="#fff"/><path d="M 86807.6 20964.6 86807.6 21420.1 86410.8 21420.1 86377.4 21419.2 86346.1 21416.5 86316.7 21412.1 86289.4 21406 86264.1 21398 86240.8 21388.3 86219.5 21376.8 86200.2 21363.6 86183 21348.7 86168.2 21332.1 86155.6 21314 86145.3 21294.3 86137.3 21273 86131.6 21250 86128.2 21225.5 86127 21199.4 86128.2 21172.3 86131.5 21146.8 86137.2 21122.9 86145.1 21100.5 86155.3 21079.6 86167.7 21060.3 86182.4 21042.6 86199.3 21026.4 86218.3 21011.9 86239.2 20999.4 86261.9 20988.7 86286.5 20980.1 86313 20973.3 86341.4 20968.5 86371.7 20965.6 86403.8 20964.6 86807.6 20964.6"/></g></mask><mask id="kNP0FhNNXByCvTZwbE7m_clear-15" fill="#000" stroke="#000"><g><rect x="45958.6" y="5690.5" width="41016.3" height="34798.8" fill="#fff"/><path d="M 85672.3 9534.6 85672.3 9990.1 85275.6 9990.1 85242.2 9989.2 85210.8 9986.5 85181.5 9982.1 85154.1 9976 85128.8 9968 85105.5 9958.3 85084.2 9946.8 85064.9 9933.6 85047.8 9918.7 85032.9 9902.1 85020.4 9884 85010.1 9864.3 85002.1 9843 84996.4 9820 84992.9 9795.5 84991.8 9769.4 84992.9 9742.3 84996.3 9716.8 85001.9 9692.9 85009.8 9670.5 85020 9649.6 85032.4 9630.3 85047.1 9612.6 85064 9596.4 85083 9581.9 85103.9 9569.4 85126.7 9558.7 85151.3 9550.1 85177.8 9543.3 85206.2 9538.5 85236.4 9535.6 85268.6 9534.6 85672.3 9534.6"/></g></mask><mask id="kNP0FhNNXByCvTZwbE7m_clear-16" fill="#000" stroke="#000"><g><rect x="45958.6" y="5690.5" width="41016.3" height="34798.8" fill="#fff"/><path d="M 84503.3 9293.8 84489.3 9311.3 84442 9376.1 84125.8 9842.1 84091.7 9899.9 84067.1 9946.3 84067.1 9293.8 84503.3 9293.8"/></g></mask></defs><g transform="translate(0,46000) scale(1,-1)" fill="currentColor" stroke="currentColor"><g mask="url(#kNP0FhNNXByCvTZwbE7m_clear-16)"><g mask="url(#kNP0FhNNXByCvTZwbE7m_clear-15)"><g mask="url(#kNP0FhNNXByCvTZwbE7m_clear-14)"><g mask="url(#kNP0FhNNXByCvTZwbE7m_clear-13)"><g mask="url(#kNP0FhNNXByCvTZwbE7m_clear-12)"><g mask="url(#kNP0FhNNXByCvTZwbE7m_clear-11)"><g mask="url(#kNP0FhNNXByCvTZwbE7m_clear-10)"><g mask="url(#kNP0FhNNXByCvTZwbE7m_clear-9)"><g mask="url(#kNP0FhNNXByCvTZwbE7m_clear-8)"><g mask="url(#kNP0FhNNXByCvTZwbE7m_clear-7)"><g mask="url(#kNP0FhNNXByCvTZwbE7m_clear-6)"><g mask="url(#kNP0FhNNXByCvTZwbE7m_clear-5)"><g mask="url(#kNP0FhNNXByCvTZwbE7m_clear-4)"><g mask="url(#kNP0FhNNXByCvTZwbE7m_clear-3)"><g mask="url(#kNP0FhNNXByCvTZwbE7m_clear-2)"><g mask="url(#kNP0FhNNXByCvTZwbE7m_clear-1)"><path d="M 48970.8 38735 48269 38735 48196.3 38737 48127.6 38743 48063 38753 48002.5 38767.1 47946.1 38785.1 47893.9 38807.1 47845.7 38833.2 47801.6 38863.2 47762.2 38896.9 47728.1 38933.7 47699.2 38973.8 47675.6 39017 47657.2 39063.5 47650 39087.9 47644.1 39113.1 47639.5 39139.2 47636.2 39166 47634.2 39193.6 47633.6 39222 47635.3 39264.4 47640.5 39304.8 47649.3 39343.4 47661.5 39380.1 47677.2 39415 47696.4 39448 47719 39479.2 47745.2 39508.5 47761 39523 47774.6 39535.5 47806.9 39559.7 47842.2 39581.1 47880.5 39599.7 47921.6 39615.6 47965.8 39628.7 48012.9 39639 48062.9 39646.5 48024.8 39656.5 47988.9 39668.6 47955.2 39682.9 47923.7 39699.3 47894.4 39717.8 47867.4 39738.5 47856.5 39748.6 47842.6 39761.4 47820 39786.4 47799.9 39813.2 47782.5 39841.6 47767.7 39871.5 47755.6 39902.9 47746.2 39935.9 47739.5 39970.4 47735.5 40006.4 47734.2 40044 47734.7 40069.8 47736.5 40094.8 47743.7 40142.3 47755.5 40186.6 47772.2 40227.6 47793.6 40265.3 47819.7 40299.7 47850.6 40330.8 47886.3 40358.7 47926.7 40383.3 47971.8 40404.6 48021.8 40422.6 48076.4 40437.3 48135.9 40448.8 48200 40457 48269 40461.9 48342.6 40463.6 48970.8 40463.6 48970.8 38735"/></g><path d="M 52877.6 38735 52595.4 38735 52595.4 40463.6 52806.4 40463.6 52806.4 39330 52805.5 39267.7 52802.8 39188.9 52791.7 38981.6 53726.5 40463.6 53998.9 40463.6 53998.9 38735 53790.3 38735 53790.3 39883.3 53796.5 40088.2 53802.6 40207.2 52877.6 38735"/><path d="M 55673.9 38735 54312.1 38735 54312.1 38926.4 55439.6 38926.4 55439.6 39528.7 54436.1 39528.7 54436.1 39717.7 55439.6 39717.7 55439.6 40272.2 54362.4 40272.2 54362.4 40463.6 55673.9 40463.6 55673.9 38735"/><path d="M 51419 38710.5 51356.1 38712.3 51295.3 38717.8 51236.3 38726.9 51179.3 38739.6 51124.2 38756 51071.1 38776 51019.8 38799.7 50970.6 38827 50923.6 38857.8 50879.4 38892 50837.8 38929.4 50799 38970.2 50762.8 39014.4 50729.4 39061.9 50698.7 39112.7 50670.6 39166.8 50862 39262.5 50885.6 39219 50910.5 39178.3 50936.9 39140.4 50964.7 39105.3 50993.9 39073 51024.5 39043.5 51056.5 39016.8 51089.9 38992.9 51124.7 38971.9 51160.9 38953.6 51198.6 38938.2 51237.6 38925.5 51278.1 38915.7 51320 38908.7 51363.2 38904.5 51407.9 38903.1 51442.9 38903.8 51477 38906.1 51510.1 38909.9 51542.3 38915.1 51573.6 38921.9 51604 38930.2 51633.5 38940.1 51662 38951.4 51689.7 38964.2 51716.4 38978.5 51742.2 38994.4 51767.1 39011.8 51791.1 39030.6 51814.2 39051 51836.3 39072.9 51857.6 39096.3 51896.5 39146.5 51914.1 39173.1 51930.3 39200.7 51945.2 39229.2 51958.9 39258.7 51971.2 39289.2 51982.2 39320.6 51992 39353.1 52000.4 39386.5 52007.6 39420.8 52013.4 39456.2 52017.9 39492.5 52021.2 39529.8 52023.1 39568 52023.8 39607.3 52023.2 39646.9 52021.3 39685.5 52018.2 39723 52013.8 39759.4 52008.2 39794.8 52001.4 39829.1 51993.3 39862.3 51983.9 39894.5 51973.3 39925.6 51961.5 39955.6 51948.4 39984.6 51934.1 40012.5 51918.5 40039.3 51901.7 40065 51864.3 40113.3 51843.9 40135.7 51822.4 40156.6 51800 40176.1 51776.6 40194.1 51752.2 40210.7 51726.7 40225.8 51700.3 40239.5 51672.9 40251.8 51644.5 40262.6 51615.1 40272 51584.7 40279.9 51553.3 40286.4 51520.9 40291.5 51487.5 40295.1 51453.1 40297.2 51417.7 40298 51372.8 40296.7 51329.5 40293 51287.6 40286.7 51247.4 40278 51208.7 40266.8 51171.5 40253.1 51135.9 40236.9 51101.8 40218.2 51069.7 40197.2 51039.9 40173.9 51012.3 40148.4 50987 40120.7 50964 40090.7 50943.2 40058.6 50924.8 40024.2 50908.6 39987.6 50686.6 40061.2 50709.9 40112.6 50736.3 40160.8 50765.7 40205.7 50798.2 40247.3 50833.8 40285.7 50872.4 40320.9 50914.1 40352.8 50958.9 40381.4 51006.7 40406.7 51057.2 40428.6 51110.6 40447.2 51166.9 40462.3 51225.9 40474.2 51287.9 40482.6 51352.6 40487.6 51420.2 40489.3 51468.9 40488.4 51516.3 40485.7 51562.3 40481.1 51607 40474.7 51650.3 40466.5 51692.3 40456.4 51733 40444.5 51772.3 40430.8 51810.3 40415.2 51846.9 40397.8 51882.2 40378.6 51916.1 40357.5 51948.7 40334.6 51980 40309.9 52009.9 40283.4 52038.5 40255 52065.5 40225 52090.8 40193.6 52114.4 40160.8 52136.2 40126.7 52156.3 40091.1 52174.6 40054.1 52191.1 40015.7 52206 39975.9 52219.1 39934.7 52230.4 39892.1 52240 39848.2 52247.8 39802.8 52253.9 39756 52258.3 39707.8 52260.9 39658.2 52261.8 39607.3 52260.2 39539.4 52255.5 39473.9 52247.7 39410.7 52236.8 39349.8 52222.7 39291.2 52205.5 39235 52185.2 39181 52161.8 39129.4 52135.4 39080.4 52106.1 39034.3 52074.1 38991.2 52039.1 38950.9 52001.4 38913.6 51960.8 38879.1 51917.3 38847.6 51871.1 38819 51822.3 38793.6 51771.3 38771.5 51718.1 38752.9 51662.6 38737.6 51605 38725.7 51545.2 38717.3 51483.2 38712.2 51419 38710.5"/><path d="M 50611.8 38235.7 49148.2 38235.7 49148.2 38395.2 50611.8 38395.2 50611.8 38235.7"/><path d="M 47745.2 36195 47506 36195 48200.3 37923.6 48466.6 37923.6 49172 36195 48929.1 36195 48730.3 36700.4 47942.7 36700.4 47745.2 36195"/></g><path d="M 52877.6 36195 52595.4 36195 52595.4 37923.6 52806.4 37923.6 52806.4 36790 52805.5 36727.7 52802.8 36648.9 52791.7 36441.6 53726.5 37923.6 53998.9 37923.6 53998.9 36195 53790.3 36195 53790.3 37343.3 53796.5 37548.2 53802.6 37667.2 52877.6 36195"/><path d="M 55673.9 36195 54312.1 36195 54312.1 36386.4 55439.6 36386.4 55439.6 36988.7 54436.1 36988.7 54436.1 37177.7 55439.6 37177.7 55439.6 37732.2 54362.4 37732.2 54362.4 37923.6 55673.9 37923.6 55673.9 36195"/><path d="M 51419 36170.5 51356.1 36172.3 51295.3 36177.8 51236.3 36186.9 51179.3 36199.6 51124.2 36216 51071.1 36236 51019.8 36259.7 50970.6 36287 50923.6 36317.8 50879.4 36352 50837.8 36389.4 50799 36430.2 50762.8 36474.4 50729.4 36521.9 50698.7 36572.7 50670.6 36626.8 50862 36722.5 50885.6 36679 50910.5 36638.3 50936.9 36600.4 50964.7 36565.3 50993.9 36533 51024.5 36503.5 51056.5 36476.8 51089.9 36452.9 51124.7 36431.9 51160.9 36413.6 51198.6 36398.2 51237.6 36385.5 51278.1 36375.7 51320 36368.7 51363.2 36364.5 51407.9 36363.1 51442.9 36363.8 51477 36366.1 51510.1 36369.9 51542.3 36375.1 51573.6 36381.9 51604 36390.2 51633.5 36400.1 51662 36411.4 51689.7 36424.2 51716.4 36438.5 51742.2 36454.4 51767.1 36471.8 51791.1 36490.6 51814.2 36511 51836.3 36532.9 51857.6 36556.3 51896.5 36606.5 51914.1 36633.1 51930.3 36660.7 51945.2 36689.2 51958.9 36718.7 51971.2 36749.2 51982.2 36780.6 51992 36813.1 52000.4 36846.5 52007.6 36880.8 52013.4 36916.2 52017.9 36952.5 52021.2 36989.8 52023.1 37028 52023.8 37067.3 52023.2 37106.9 52021.3 37145.5 52018.2 37183 52013.8 37219.4 52008.2 37254.8 52001.4 37289.1 51993.3 37322.3 51983.9 37354.5 51973.3 37385.6 51961.5 37415.6 51948.4 37444.6 51934.1 37472.5 51918.5 37499.3 51901.7 37525 51864.3 37573.3 51843.9 37595.7 51822.4 37616.6 51800 37636.1 51776.6 37654.1 51752.2 37670.7 51726.7 37685.8 51700.3 37699.5 51672.9 37711.8 51644.5 37722.6 51615.1 37732 51584.7 37739.9 51553.3 37746.4 51520.9 37751.5 51487.5 37755.1 51453.1 37757.2 51417.7 37758 51372.8 37756.7 51329.5 37753 51287.6 37746.7 51247.4 37738 51208.7 37726.8 51171.5 37713.1 51135.9 37696.9 51101.8 37678.2 51069.7 37657.2 51039.9 37633.9 51012.3 37608.4 50987 37580.7 50964 37550.7 50943.2 37518.6 50924.8 37484.2 50908.6 37447.6 50686.6 37521.2 50709.9 37572.6 50736.3 37620.8 50765.7 37665.7 50798.2 37707.3 50833.8 37745.7 50872.4 37780.9 50914.1 37812.8 50958.9 37841.4 51006.7 37866.7 51057.2 37888.6 51110.6 37907.2 51166.9 37922.3 51225.9 37934.2 51287.9 37942.6 51352.6 37947.6 51420.2 37949.3 51468.9 37948.4 51516.3 37945.7 51562.3 37941.1 51607 37934.7 51650.3 37926.5 51692.3 37916.4 51733 37904.5 51772.3 37890.8 51810.3 37875.2 51846.9 37857.8 51882.2 37838.6 51916.1 37817.5 51948.7 37794.6 51980 37769.9 52009.9 37743.4 52038.5 37715 52065.5 37685 52090.8 37653.6 52114.4 37620.8 52136.2 37586.7 52156.3 37551.1 52174.6 37514.1 52191.1 37475.7 52206 37435.9 52219.1 37394.7 52230.4 37352.1 52240 37308.2 52247.8 37262.8 52253.9 37216 52258.3 37167.8 52260.9 37118.2 52261.8 37067.3 52260.2 36999.4 52255.5 36933.9 52247.7 36870.7 52236.8 36809.8 52222.7 36751.2 52205.5 36695 52185.2 36641 52161.8 36589.4 52135.4 36540.4 52106.1 36494.3 52074.1 36451.2 52039.1 36410.9 52001.4 36373.6 51960.8 36339.1 51917.3 36307.6 51871.1 36279 51822.3 36253.6 51771.3 36231.5 51718.1 36212.9 51662.6 36197.6 51605 36185.7 51545.2 36177.3 51483.2 36172.2 51419 36170.5"/><path d="M 50611.8 35695.7 49148.2 35695.7 49148.2 35855.2 50611.8 35855.2 50611.8 35695.7"/><path d="M 47295.8 33655 46594 33655 46521.3 33657 46452.6 33663 46388 33673 46327.5 33687.1 46271.1 33705.1 46218.9 33727.1 46170.7 33753.2 46126.6 33783.2 46087.2 33816.9 46053.1 33853.7 46024.2 33893.8 46000.6 33937 45982.2 33983.5 45975 34007.9 45969.1 34033.1 45964.5 34059.2 45961.2 34086 45959.2 34113.6 45958.6 34142 45960.3 34184.4 45965.5 34224.8 45974.3 34263.4 45986.5 34300.1 46002.2 34335 46021.4 34368 46044 34399.2 46070.2 34428.5 46086 34443 46099.6 34455.5 46131.9 34479.7 46167.2 34501.1 46205.5 34519.7 46246.6 34535.6 46290.8 34548.7 46337.9 34559 46387.9 34566.5 46349.8 34576.5 46313.9 34588.6 46280.2 34602.9 46248.7 34619.3 46219.4 34637.8 46192.4 34658.5 46181.5 34668.6 46167.6 34681.4 46145 34706.4 46124.9 34733.2 46107.5 34761.6 46092.7 34791.5 46080.6 34822.9 46071.2 34855.9 46064.5 34890.4 46060.5 34926.4 46059.2 34964 46059.7 34989.8 46061.5 35014.8 46068.7 35062.3 46080.5 35106.6 46097.2 35147.6 46118.6 35185.3 46144.7 35219.7 46175.6 35250.8 46211.3 35278.7 46251.7 35303.3 46296.8 35324.6 46346.8 35342.6 46401.4 35357.3 46460.9 35368.8 46525 35377 46594 35381.9 46667.6 35383.6 47295.8 35383.6 47295.8 33655"/></g><path d="M 48970.8 33655 48736.5 33655 48736.5 34328.5 48228.6 34328.5 48161.6 34330.8 48098.3 34337.6 48038.6 34348.9 47982.4 34364.7 47929.9 34385.1 47880.9 34409.9 47835.5 34439.4 47793.7 34473.3 47756.1 34511 47723.6 34551.9 47696.1 34596 47673.6 34643.2 47656.1 34693.5 47643.6 34747 47639.2 34774.9 47636.1 34803.6 47634.2 34833.1 47633.6 34863.4 47634.2 34893.9 47636 34923.6 47639.2 34952.4 47643.5 34980.3 47649.1 35007.4 47656 35033.6 47673.4 35083.3 47695.9 35129.6 47723.3 35172.3 47755.7 35211.6 47793 35247.4 47835 35279.3 47881 35307 47931.1 35330.4 47985.3 35349.5 48043.7 35364.4 48106.1 35375.1 48172.6 35381.4 48243.3 35383.6 48970.8 35383.6 48970.8 33655"/></g><path d="M 52877.6 33655 52595.4 33655 52595.4 35383.6 52806.4 35383.6 52806.4 34250 52805.5 34187.7 52802.8 34108.9 52791.7 33901.6 53726.5 35383.6 53998.9 35383.6 53998.9 33655 53790.3 33655 53790.3 34803.3 53796.5 35008.2 53802.6 35127.2 52877.6 33655"/><path d="M 55673.9 33655 54312.1 33655 54312.1 33846.4 55439.6 33846.4 55439.6 34448.7 54436.1 34448.7 54436.1 34637.7 55439.6 34637.7 55439.6 35192.2 54362.4 35192.2 54362.4 35383.6 55673.9 35383.6 55673.9 33655"/><path d="M 51419 33630.5 51356.1 33632.3 51295.3 33637.8 51236.3 33646.9 51179.3 33659.6 51124.2 33676 51071.1 33696 51019.8 33719.7 50970.6 33747 50923.6 33777.8 50879.4 33812 50837.8 33849.4 50799 33890.2 50762.8 33934.4 50729.4 33981.9 50698.7 34032.7 50670.6 34086.8 50862 34182.5 50885.6 34139 50910.5 34098.3 50936.9 34060.4 50964.7 34025.3 50993.9 33993 51024.5 33963.5 51056.5 33936.8 51089.9 33912.9 51124.7 33891.9 51160.9 33873.6 51198.6 33858.2 51237.6 33845.5 51278.1 33835.7 51320 33828.7 51363.2 33824.5 51407.9 33823.1 51442.9 33823.8 51477 33826.1 51510.1 33829.9 51542.3 33835.1 51573.6 33841.9 51604 33850.2 51633.5 33860.1 51662 33871.4 51689.7 33884.2 51716.4 33898.5 51742.2 33914.4 51767.1 33931.8 51791.1 33950.6 51814.2 33971 51836.3 33992.9 51857.6 34016.3 51896.5 34066.5 51914.1 34093.1 51930.3 34120.7 51945.2 34149.2 51958.9 34178.7 51971.2 34209.2 51982.2 34240.6 51992 34273.1 52000.4 34306.5 52007.6 34340.8 52013.4 34376.2 52017.9 34412.5 52021.2 34449.8 52023.1 34488 52023.8 34527.3 52023.2 34566.9 52021.3 34605.5 52018.2 34643 52013.8 34679.4 52008.2 34714.8 52001.4 34749.1 51993.3 34782.3 51983.9 34814.5 51973.3 34845.6 51961.5 34875.6 51948.4 34904.6 51934.1 34932.5 51918.5 34959.3 51901.7 34985 51864.3 35033.3 51843.9 35055.7 51822.4 35076.6 51800 35096.1 51776.6 35114.1 51752.2 35130.7 51726.7 35145.8 51700.3 35159.5 51672.9 35171.8 51644.5 35182.6 51615.1 35192 51584.7 35199.9 51553.3 35206.4 51520.9 35211.5 51487.5 35215.1 51453.1 35217.2 51417.7 35218 51372.8 35216.7 51329.5 35213 51287.6 35206.7 51247.4 35198 51208.7 35186.8 51171.5 35173.1 51135.9 35156.9 51101.8 35138.2 51069.7 35117.2 51039.9 35093.9 51012.3 35068.4 50987 35040.7 50964 35010.7 50943.2 34978.6 50924.8 34944.2 50908.6 34907.6 50686.6 34981.2 50709.9 35032.6 50736.3 35080.8 50765.7 35125.7 50798.2 35167.3 50833.8 35205.7 50872.4 35240.9 50914.1 35272.8 50958.9 35301.4 51006.7 35326.7 51057.2 35348.6 51110.6 35367.2 51166.9 35382.3 51225.9 35394.2 51287.9 35402.6 51352.6 35407.6 51420.2 35409.3 51468.9 35408.4 51516.3 35405.7 51562.3 35401.1 51607 35394.7 51650.3 35386.5 51692.3 35376.4 51733 35364.5 51772.3 35350.8 51810.3 35335.2 51846.9 35317.8 51882.2 35298.6 51916.1 35277.5 51948.7 35254.6 51980 35229.9 52009.9 35203.4 52038.5 35175 52065.5 35145 52090.8 35113.6 52114.4 35080.8 52136.2 35046.7 52156.3 35011.1 52174.6 34974.1 52191.1 34935.7 52206 34895.9 52219.1 34854.7 52230.4 34812.1 52240 34768.2 52247.8 34722.8 52253.9 34676 52258.3 34627.8 52260.9 34578.2 52261.8 34527.3 52260.2 34459.4 52255.5 34393.9 52247.7 34330.7 52236.8 34269.8 52222.7 34211.2 52205.5 34155 52185.2 34101 52161.8 34049.4 52135.4 34000.4 52106.1 33954.3 52074.1 33911.2 52039.1 33870.9 52001.4 33833.6 51960.8 33799.1 51917.3 33767.6 51871.1 33739 51822.3 33713.6 51771.3 33691.5 51718.1 33672.9 51662.6 33657.6 51605 33645.7 51545.2 33637.3 51483.2 33632.2 51419 33630.5"/><path d="M 50611.8 33155.7 49148.2 33155.7 49148.2 33315.2 50611.8 33315.2 50611.8 33155.7"/><path d="M 53998.9 31115 52637.1 31115 52637.1 31306.4 53764.6 31306.4 53764.6 31908.7 52761.1 31908.7 52761.1 32097.7 53764.6 32097.7 53764.6 32652.2 52687.4 32652.2 52687.4 32843.6 53998.9 32843.6 53998.9 31115"/><path d="M 54523.2 31115 54232.4 31115 55066.6 32092.8 54330.5 32843.6 54606.6 32843.6 55439.6 31977.4 55439.6 32843.6 55673.9 32843.6 55673.9 31115 55439.6 31115 55439.6 31777.5 55213.8 31949.2 54523.2 31115"/><path d="M 48487.7 31090.5 48424.9 31092.3 48364 31097.8 48305.1 31106.9 48248 31119.6 48193 31136 48139.8 31156 48088.6 31179.7 48039.3 31207 47992.4 31237.8 47948.1 31272 47906.6 31309.4 47867.7 31350.2 47831.6 31394.4 47798.1 31441.9 47767.4 31492.7 47739.4 31546.8 47930.8 31642.5 47954.3 31599 47979.3 31558.3 48005.6 31520.4 48033.4 31485.3 48062.6 31453 48093.2 31423.5 48125.2 31396.8 48158.6 31372.9 48193.5 31351.9 48229.7 31333.6 48267.3 31318.2 48306.4 31305.5 48346.8 31295.7 48388.7 31288.7 48432 31284.5 48476.7 31283.1 48511.6 31283.8 48545.7 31286.1 48578.8 31289.9 48611.1 31295.1 48642.4 31301.9 48672.8 31310.2 48702.2 31320.1 48730.8 31331.4 48758.4 31344.2 48785.2 31358.5 48811 31374.4 48835.9 31391.8 48859.9 31410.6 48882.9 31431 48905.1 31452.9 48926.3 31476.3 48965.3 31526.5 48982.8 31553.1 48999 31580.7 49014 31609.2 49027.6 31638.7 49039.9 31669.2 49051 31700.6 49060.7 31733.1 49069.2 31766.5 49076.3 31800.8 49082.2 31836.2 49086.7 31872.5 49089.9 31909.8 49091.9 31948 49092.5 31987.3 49091.9 32026.9 49090 32065.5 49086.9 32103 49082.6 32139.4 49077 32174.8 49070.1 32209.1 49062 32242.3 49052.7 32274.5 49042.1 32305.6 49030.2 32335.6 49017.2 32364.6 49002.8 32392.5 48987.3 32419.3 48970.4 32445 48933.1 32493.3 48912.6 32515.7 48891.2 32536.6 48868.8 32556.1 48845.3 32574.1 48820.9 32590.7 48795.5 32605.8 48769.1 32619.5 48741.7 32631.8 48713.3 32642.6 48683.9 32652 48653.5 32659.9 48622.1 32666.4 48589.7 32671.5 48556.3 32675.1 48521.9 32677.2 48486.5 32678 48441.6 32676.7 48398.2 32673 48356.4 32666.7 48316.1 32658 48277.4 32646.8 48240.3 32633.1 48204.6 32616.9 48170.6 32598.2 48138.5 32577.2 48108.6 32553.9 48081 32528.4 48055.7 32500.7 48032.7 32470.7 48012 32438.6 47993.5 32404.2 47977.4 32367.6 47755.3 32441.2 47778.6 32492.6 47805 32540.8 47834.4 32585.7 47867 32627.3 47902.5 32665.7 47941.2 32700.9 47982.9 32732.8 48027.7 32761.4 48075.4 32786.7 48126 32808.6 48179.4 32827.2 48235.6 32842.3 48294.7 32854.2 48356.6 32862.6 48421.4 32867.6 48489 32869.3 48537.7 32868.4 48585 32865.7 48631 32861.1 48675.7 32854.7 48719.1 32846.5 48761.1 32836.4 48801.7 32824.5 48841 32810.8 48879 32795.2 48915.6 32777.8 48950.9 32758.6 48984.9 32737.5 49017.5 32714.6 49048.8 32689.9 49078.7 32663.4 49107.3 32635 49134.3 32605 49159.6 32573.6 49183.1 32540.8 49204.9 32506.7 49225 32471.1 49243.3 32434.1 49259.9 32395.7 49274.7 32355.9 49287.8 32314.7 49299.1 32272.1 49308.7 32228.2 49316.6 32182.8 49322.7 32136 49327.1 32087.8 49329.7 32038.2 49330.5 31987.3 49329 31919.4 49324.3 31853.9 49316.5 31790.7 49305.5 31729.8 49291.5 31671.2 49274.3 31615 49254 31561 49230.6 31509.4 49204.1 31460.4 49174.9 31414.3 49142.8 31371.2 49107.9 31330.9 49070.1 31293.6 49029.5 31259.1 48986.1 31227.6 48939.8 31199 48891 31173.6 48840 31151.5 48786.8 31132.9 48731.4 31117.6 48673.8 31105.7 48614 31097.3 48551.9 31092.2 48487.7 31090.5"/><path d="M 51809.9 31115 51576.8 31115 51576.8 31831.5 50909.4 32843.6 51167 32843.6 51690.9 32020.4 52217.2 32843.6 52474.8 32843.6 51809.9 31831.5 51809.9 31115"/><path d="M 47451.1 31115 46367.9 31115 46367.9 31302.7 46788.6 31302.7 46788.6 32843.6 46992.3 32843.6 47400.8 32562.6 47400.8 32354.1 47010.7 32632.6 47010.7 31302.7 47451.1 31302.7 47451.1 31115"/><path d="M 50893 30615.7 49429.5 30615.7 49429.5 30775.2 50893 30775.2 50893 30615.7"/><path d="M 53998.9 28575 52637.1 28575 52637.1 28766.4 53764.6 28766.4 53764.6 29368.7 52761.1 29368.7 52761.1 29557.7 53764.6 29557.7 53764.6 30112.2 52687.4 30112.2 52687.4 30303.6 53998.9 30303.6 53998.9 28575"/><path d="M 54523.2 28575 54232.4 28575 55066.6 29552.8 54330.5 30303.6 54606.6 30303.6 55439.6 29437.4 55439.6 30303.6 55673.9 30303.6 55673.9 28575 55439.6 28575 55439.6 29237.5 55213.8 29409.2 54523.2 28575"/><path d="M 48487.7 28550.5 48424.9 28552.3 48364 28557.8 48305.1 28566.9 48248 28579.6 48193 28596 48139.8 28616 48088.6 28639.7 48039.3 28667 47992.4 28697.8 47948.1 28732 47906.6 28769.4 47867.7 28810.2 47831.6 28854.4 47798.1 28901.9 47767.4 28952.7 47739.4 29006.8 47930.8 29102.5 47954.3 29059 47979.3 29018.3 48005.6 28980.4 48033.4 28945.3 48062.6 28913 48093.2 28883.5 48125.2 28856.8 48158.6 28832.9 48193.5 28811.9 48229.7 28793.6 48267.3 28778.2 48306.4 28765.5 48346.8 28755.7 48388.7 28748.7 48432 28744.5 48476.7 28743.1 48511.6 28743.8 48545.7 28746.1 48578.8 28749.9 48611.1 28755.1 48642.4 28761.9 48672.8 28770.2 48702.2 28780.1 48730.8 28791.4 48758.4 28804.2 48785.2 28818.5 48811 28834.4 48835.9 28851.8 48859.9 28870.6 48882.9 28891 48905.1 28912.9 48926.3 28936.3 48965.3 28986.5 48982.8 29013.1 48999 29040.7 49014 29069.2 49027.6 29098.7 49039.9 29129.2 49051 29160.6 49060.7 29193.1 49069.2 29226.5 49076.3 29260.8 49082.2 29296.2 49086.7 29332.5 49089.9 29369.8 49091.9 29408 49092.5 29447.3 49091.9 29486.9 49090 29525.5 49086.9 29563 49082.6 29599.4 49077 29634.8 49070.1 29669.1 49062 29702.3 49052.7 29734.5 49042.1 29765.6 49030.2 29795.6 49017.2 29824.6 49002.8 29852.5 48987.3 29879.3 48970.4 29905 48933.1 29953.3 48912.6 29975.7 48891.2 29996.6 48868.8 30016.1 48845.3 30034.1 48820.9 30050.7 48795.5 30065.8 48769.1 30079.5 48741.7 30091.8 48713.3 30102.6 48683.9 30112 48653.5 30119.9 48622.1 30126.4 48589.7 30131.5 48556.3 30135.1 48521.9 30137.2 48486.5 30138 48441.6 30136.7 48398.2 30133 48356.4 30126.7 48316.1 30118 48277.4 30106.8 48240.3 30093.1 48204.6 30076.9 48170.6 30058.2 48138.5 30037.2 48108.6 30013.9 48081 29988.4 48055.7 29960.7 48032.7 29930.7 48012 29898.6 47993.5 29864.2 47977.4 29827.6 47755.3 29901.2 47778.6 29952.6 47805 30000.8 47834.4 30045.7 47867 30087.3 47902.5 30125.7 47941.2 30160.9 47982.9 30192.8 48027.7 30221.4 48075.4 30246.7 48126 30268.6 48179.4 30287.2 48235.6 30302.3 48294.7 30314.2 48356.6 30322.6 48421.4 30327.6 48489 30329.3 48537.7 30328.4 48585 30325.7 48631 30321.1 48675.7 30314.7 48719.1 30306.5 48761.1 30296.4 48801.7 30284.5 48841 30270.8 48879 30255.2 48915.6 30237.8 48950.9 30218.6 48984.9 30197.5 49017.5 30174.6 49048.8 30149.9 49078.7 30123.4 49107.3 30095 49134.3 30065 49159.6 30033.6 49183.1 30000.8 49204.9 29966.7 49225 29931.1 49243.3 29894.1 49259.9 29855.7 49274.7 29815.9 49287.8 29774.7 49299.1 29732.1 49308.7 29688.2 49316.6 29642.8 49322.7 29596 49327.1 29547.8 49329.7 29498.2 49330.5 29447.3 49329 29379.4 49324.3 29313.9 49316.5 29250.7 49305.5 29189.8 49291.5 29131.2 49274.3 29075 49254 29021 49230.6 28969.4 49204.1 28920.4 49174.9 28874.3 49142.8 28831.2 49107.9 28790.9 49070.1 28753.6 49029.5 28719.1 48986.1 28687.6 48939.8 28659 48891 28633.6 48840 28611.5 48786.8 28592.9 48731.4 28577.6 48673.8 28565.7 48614 28557.3 48551.9 28552.2 48487.7 28550.5"/><path d="M 47516.1 28575 46371.5 28575 46371.5 28762.7 47273.2 28762.7 47251.9 28806.1 47224.8 28850.3 47191.8 28895.3 47153 28941.2 47107.7 28988.9 47055.2 29039.5 46995.4 29092.9 46928.5 29149.1 46810.7 29246.6 46713.5 29330.4 46637.1 29400.6 46581.3 29457.1 46538.7 29506.8 46501.7 29556.4 46470.3 29606.1 46444.5 29655.8 46424.4 29705.6 46410 29755.5 46405 29780.5 46401.4 29805.6 46399.2 29830.7 46398.5 29855.8 46400.7 29910.9 46407.3 29962.8 46418.3 30011.4 46433.6 30056.8 46453.4 30099 46477.5 30137.9 46506.1 30173.6 46539 30206 46576 30234.9 46616.8 30260 46661.3 30281.2 46709.7 30298.5 46761.8 30312 46817.7 30321.6 46877.3 30327.4 46940.8 30329.3 46998.9 30327.4 47054.4 30321.7 47107.1 30312.1 47157.1 30298.7 47204.5 30281.4 47249.1 30260.3 47291.1 30235.4 47330.3 30206.7 47366.2 30174.7 47398.1 30140 47426.1 30102.7 47450 30062.8 47470.1 30020.2 47486.1 29975 47498.2 29927.2 47506.3 29876.6 47280.6 29855.8 47275.4 29889.5 47267.9 29921.2 47258 29951 47245.8 29978.9 47231.2 30004.9 47214.2 30028.9 47194.9 30051 47173.2 30071.1 47149.6 30089.1 47124.4 30104.6 47097.7 30117.8 47069.4 30128.6 47039.6 30137 47008.2 30143 46975.3 30146.6 46940.8 30147.8 46904.7 30146.5 46870.6 30142.9 46838.6 30136.7 46808.6 30128.1 46780.6 30117.1 46754.7 30103.6 46730.8 30087.7 46708.9 30069.3 46689.4 30048.6 46672.4 30026 46658.1 30001.4 46646.3 29974.8 46637.2 29946.2 46630.7 29915.6 46626.8 29883 46625.5 29848.4 46626.2 29822.4 46628.5 29797.1 46632.3 29772.4 46637.6 29748.4 46644.4 29725.2 46652.7 29702.6 46662.6 29680.7 46673.9 29659.5 46700 29618.2 46729.9 29577.9 46763.5 29538.5 46800.9 29500 46884.2 29424 46977 29347.9 47075 29268.6 47173.9 29182.9 47223 29137.1 47270.9 29088.7 47317.7 29037.7 47363.4 28984.1 47406.8 28927.1 47446.7 28865.9 47483.1 28800.5 47516.1 28730.8 47516.1 28575"/><path d="M 51809.9 28575 51576.8 28575 51576.8 29291.5 50909.4 30303.6 51167 30303.6 51690.9 29480.4 52217.2 30303.6 52474.8 30303.6 51809.9 29291.5 51809.9 28575"/><path d="M 50893 28075.7 49429.5 28075.7 49429.5 28235.2 50893 28235.2 50893 28075.7"/><path d="M 53998.9 26035 52637.1 26035 52637.1 26226.4 53764.6 26226.4 53764.6 26828.7 52761.1 26828.7 52761.1 27017.7 53764.6 27017.7 53764.6 27572.2 52687.4 27572.2 52687.4 27763.6 53998.9 27763.6 53998.9 26035"/><path d="M 54523.2 26035 54232.4 26035 55066.6 27012.8 54330.5 27763.6 54606.6 27763.6 55439.6 26897.4 55439.6 27763.6 55673.9 27763.6 55673.9 26035 55439.6 26035 55439.6 26697.5 55213.8 26869.2 54523.2 26035"/><path d="M 48487.7 26010.5 48424.9 26012.3 48364 26017.8 48305.1 26026.9 48248 26039.6 48193 26056 48139.8 26076 48088.6 26099.7 48039.3 26127 47992.4 26157.8 47948.1 26192 47906.6 26229.4 47867.7 26270.2 47831.6 26314.4 47798.1 26361.9 47767.4 26412.7 47739.4 26466.8 47930.8 26562.5 47954.3 26519 47979.3 26478.3 48005.6 26440.4 48033.4 26405.3 48062.6 26373 48093.2 26343.5 48125.2 26316.8 48158.6 26292.9 48193.5 26271.9 48229.7 26253.6 48267.3 26238.2 48306.4 26225.5 48346.8 26215.7 48388.7 26208.7 48432 26204.5 48476.7 26203.1 48511.6 26203.8 48545.7 26206.1 48578.8 26209.9 48611.1 26215.1 48642.4 26221.9 48672.8 26230.2 48702.2 26240.1 48730.8 26251.4 48758.4 26264.2 48785.2 26278.5 48811 26294.4 48835.9 26311.8 48859.9 26330.6 48882.9 26351 48905.1 26372.9 48926.3 26396.3 48965.3 26446.5 48982.8 26473.1 48999 26500.7 49014 26529.2 49027.6 26558.7 49039.9 26589.2 49051 26620.6 49060.7 26653.1 49069.2 26686.5 49076.3 26720.8 49082.2 26756.2 49086.7 26792.5 49089.9 26829.8 49091.9 26868 49092.5 26907.3 49091.9 26946.9 49090 26985.5 49086.9 27023 49082.6 27059.4 49077 27094.8 49070.1 27129.1 49062 27162.3 49052.7 27194.5 49042.1 27225.6 49030.2 27255.6 49017.2 27284.6 49002.8 27312.5 48987.3 27339.3 48970.4 27365 48933.1 27413.3 48912.6 27435.7 48891.2 27456.6 48868.8 27476.1 48845.3 27494.1 48820.9 27510.7 48795.5 27525.8 48769.1 27539.5 48741.7 27551.8 48713.3 27562.6 48683.9 27572 48653.5 27579.9 48622.1 27586.4 48589.7 27591.5 48556.3 27595.1 48521.9 27597.2 48486.5 27598 48441.6 27596.7 48398.2 27593 48356.4 27586.7 48316.1 27578 48277.4 27566.8 48240.3 27553.1 48204.6 27536.9 48170.6 27518.2 48138.5 27497.2 48108.6 27473.9 48081 27448.4 48055.7 27420.7 48032.7 27390.7 48012 27358.6 47993.5 27324.2 47977.4 27287.6 47755.3 27361.2 47778.6 27412.6 47805 27460.8 47834.4 27505.7 47867 27547.3 47902.5 27585.7 47941.2 27620.9 47982.9 27652.8 48027.7 27681.4 48075.4 27706.7 48126 27728.6 48179.4 27747.2 48235.6 27762.3 48294.7 27774.2 48356.6 27782.6 48421.4 27787.6 48489 27789.3 48537.7 27788.4 48585 27785.7 48631 27781.1 48675.7 27774.7 48719.1 27766.5 48761.1 27756.4 48801.7 27744.5 48841 27730.8 48879 27715.2 48915.6 27697.8 48950.9 27678.6 48984.9 27657.5 49017.5 27634.6 49048.8 27609.9 49078.7 27583.4 49107.3 27555 49134.3 27525 49159.6 27493.6 49183.1 27460.8 49204.9 27426.7 49225 27391.1 49243.3 27354.1 49259.9 27315.7 49274.7 27275.9 49287.8 27234.7 49299.1 27192.1 49308.7 27148.2 49316.6 27102.8 49322.7 27056 49327.1 27007.8 49329.7 26958.2 49330.5 26907.3 49329 26839.4 49324.3 26773.9 49316.5 26710.7 49305.5 26649.8 49291.5 26591.2 49274.3 26535 49254 26481 49230.6 26429.4 49204.1 26380.4 49174.9 26334.3 49142.8 26291.2 49107.9 26250.9 49070.1 26213.6 49029.5 26179.1 48986.1 26147.6 48939.8 26119 48891 26093.6 48840 26071.5 48786.8 26052.9 48731.4 26037.6 48673.8 26025.7 48614 26017.3 48551.9 26012.2 48487.7 26010.5"/><path d="M 46942 26010.5 46873.5 26012.5 46809 26018.7 46748.7 26028.9 46692.3 26043.3 46640.1 26061.7 46591.9 26084.3 46547.8 26111 46507.7 26141.7 46472.1 26176.2 46441.2 26214.1 46415 26255.4 46393.6 26300 46377 26348 46365.1 26399.4 46358 26454.1 46356.2 26482.7 46355.6 26512.2 46357.3 26552.8 46362.3 26591.5 46370.8 26628.5 46382.6 26663.7 46397.8 26697.2 46416.3 26728.9 46438.2 26758.9 46463.5 26787 46491.9 26812.9 46522.9 26836.1 46556.6 26856.5 46593 26874.1 46632 26889 46673.8 26901.1 46718.2 26910.5 46765.3 26917.1 46765.3 26922 46722.5 26932.2 46682.3 26944.6 46644.7 26959 46609.7 26975.5 46577.3 26994.1 46547.6 27014.8 46520.5 27037.6 46496.1 27062.5 46474.3 27089.3 46455.5 27118.2 46439.6 27148.9 46426.6 27181.6 46416.5 27216.2 46409.2 27252.8 46404.9 27291.3 46403.4 27331.7 46405.7 27384.2 46412.4 27433.8 46423.7 27480.3 46439.5 27523.9 46459.7 27564.5 46484.5 27602.1 46513.8 27636.8 46547.6 27668.5 46585.4 27696.8 46626.9 27721.4 46672 27742.1 46720.7 27759.1 46773.1 27772.3 46829 27781.8 46888.6 27787.4 46951.8 27789.3 47010 27787.5 47065.4 27781.9 47118.1 27772.6 47168.2 27759.6 47215.5 27742.8 47260.2 27722.4 47302.1 27698.2 47341.3 27670.3 47377.2 27639.1 47409.1 27605 47437.1 27568 47461.1 27528 47481.1 27485.2 47497.2 27439.4 47509.3 27390.7 47517.4 27339.1 47295.3 27321.9 47290.5 27355 47283.2 27386.2 47273.7 27415.4 47261.7 27442.8 47247.4 27468.2 47230.8 27491.7 47211.8 27513.3 47190.4 27532.9 47167 27550.5 47141.9 27565.7 47114.9 27578.5 47086.3 27589.1 47055.9 27597.2 47023.8 27603.1 46989.9 27606.6 46954.3 27607.8 46915.3 27606.5 46878.9 27602.7 46844.9 27596.5 46813.3 27587.7 46784.3 27576.4 46757.7 27562.6 46733.6 27546.2 46712 27527.4 46692.8 27506.4 46676.3 27483.6 46662.3 27458.9 46650.8 27432.5 46641.9 27404.2 46635.5 27374.1 46631.7 27342.2 46630.4 27308.4 46631.9 27274.4 46636.6 27242.3 46644.4 27212.1 46655.4 27183.8 46669.4 27157.3 46686.6 27132.8 46706.9 27110.2 46730.4 27089.4 46756.6 27070.9 46785.5 27054.8 46816.8 27041.2 46850.8 27030.1 46887.2 27021.4 46926.2 27015.3 46967.8 27011.5 47011.9 27010.3 47132.2 27010.3 47132.2 26818.9 47007 26818.9 46957.3 26817.7 46910.6 26814 46866.9 26807.8 46826.2 26799.1 46788.5 26788 46753.9 26774.4 46722.2 26758.3 46693.6 26739.8 46668.1 26719.1 46646.1 26696.4 46627.4 26671.7 46612.1 26645.2 46600.3 26616.7 46591.8 26586.3 46586.7 26553.9 46585 26519.6 46586.5 26480.3 46590.9 26443.6 46598.4 26409.3 46608.8 26377.6 46622.1 26348.3 46638.5 26321.5 46657.8 26297.2 46680.1 26275.5 46705 26256.2 46732.1 26239.5 46761.5 26225.4 46793.1 26213.8 46827 26204.8 46863.1 26198.4 46901.4 26194.5 46942 26193.3 46982.4 26194.5 47020.6 26198.1 47056.5 26204 47090.2 26212.4 47121.6 26223.2 47150.8 26236.4 47177.7 26252 47202.4 26269.9 47224.8 26290.3 47245 26313.1 47262.9 26338.2 47278.5 26365.8 47291.9 26395.7 47303.1 26428.1 47312 26462.8 47318.6 26500 47546.8 26479.1 47537.5 26422.9 47524.2 26370.3 47506.9 26321.2 47485.6 26275.6 47460.4 26233.6 47431.2 26195.1 47398.1 26160.2 47361 26128.9 47320.2 26101.1 47276.1 26077.1 47228.7 26056.7 47178 26040.1 47124 26027.1 47066.6 26017.9 47006 26012.3 46942 26010.5"/><path d="M 51809.9 26035 51576.8 26035 51576.8 26751.5 50909.4 27763.6 51167 27763.6 51690.9 26940.4 52217.2 27763.6 52474.8 27763.6 51809.9 26751.5 51809.9 26035"/><path d="M 50893 25535.7 49429.5 25535.7 49429.5 25695.2 50893 25695.2 50893 25535.7"/><path d="M 46770.2 23495 46561.7 23495 46561.7 23886.4 46318.8 23886.4 46318.8 24060.6 46561.7 24060.6 46561.7 25223.6 46793.6 25223.6 47584.8 24058.1 47584.8 23886.4 46770.2 23886.4 46770.2 23495"/></g><path d="M 53998.9 23495 52637.1 23495 52637.1 23686.4 53764.6 23686.4 53764.6 24288.7 52761.1 24288.7 52761.1 24477.7 53764.6 24477.7 53764.6 25032.2 52687.4 25032.2 52687.4 25223.6 53998.9 25223.6 53998.9 23495"/><path d="M 54523.2 23495 54232.4 23495 55066.6 24472.8 54330.5 25223.6 54606.6 25223.6 55439.6 24357.4 55439.6 25223.6 55673.9 25223.6 55673.9 23495 55439.6 23495 55439.6 24157.5 55213.8 24329.2 54523.2 23495"/><path d="M 48487.7 23470.5 48424.9 23472.3 48364 23477.8 48305.1 23486.9 48248 23499.6 48193 23516 48139.8 23536 48088.6 23559.7 48039.3 23587 47992.4 23617.8 47948.1 23652 47906.6 23689.4 47867.7 23730.2 47831.6 23774.4 47798.1 23821.9 47767.4 23872.7 47739.4 23926.8 47930.8 24022.5 47954.3 23979 47979.3 23938.3 48005.6 23900.4 48033.4 23865.3 48062.6 23833 48093.2 23803.5 48125.2 23776.8 48158.6 23752.9 48193.5 23731.9 48229.7 23713.6 48267.3 23698.2 48306.4 23685.5 48346.8 23675.7 48388.7 23668.7 48432 23664.5 48476.7 23663.1 48511.6 23663.8 48545.7 23666.1 48578.8 23669.9 48611.1 23675.1 48642.4 23681.9 48672.8 23690.2 48702.2 23700.1 48730.8 23711.4 48758.4 23724.2 48785.2 23738.5 48811 23754.4 48835.9 23771.8 48859.9 23790.6 48882.9 23811 48905.1 23832.9 48926.3 23856.3 48965.3 23906.5 48982.8 23933.1 48999 23960.7 49014 23989.2 49027.6 24018.7 49039.9 24049.2 49051 24080.6 49060.7 24113.1 49069.2 24146.5 49076.3 24180.8 49082.2 24216.2 49086.7 24252.5 49089.9 24289.8 49091.9 24328 49092.5 24367.3 49091.9 24406.9 49090 24445.5 49086.9 24483 49082.6 24519.4 49077 24554.8 49070.1 24589.1 49062 24622.3 49052.7 24654.5 49042.1 24685.6 49030.2 24715.6 49017.2 24744.6 49002.8 24772.5 48987.3 24799.3 48970.4 24825 48933.1 24873.3 48912.6 24895.7 48891.2 24916.6 48868.8 24936.1 48845.3 24954.1 48820.9 24970.7 48795.5 24985.8 48769.1 24999.5 48741.7 25011.8 48713.3 25022.6 48683.9 25032 48653.5 25039.9 48622.1 25046.4 48589.7 25051.5 48556.3 25055.1 48521.9 25057.2 48486.5 25058 48441.6 25056.7 48398.2 25053 48356.4 25046.7 48316.1 25038 48277.4 25026.8 48240.3 25013.1 48204.6 24996.9 48170.6 24978.2 48138.5 24957.2 48108.6 24933.9 48081 24908.4 48055.7 24880.7 48032.7 24850.7 48012 24818.6 47993.5 24784.2 47977.4 24747.6 47755.3 24821.2 47778.6 24872.6 47805 24920.8 47834.4 24965.7 47867 25007.3 47902.5 25045.7 47941.2 25080.9 47982.9 25112.8 48027.7 25141.4 48075.4 25166.7 48126 25188.6 48179.4 25207.2 48235.6 25222.3 48294.7 25234.2 48356.6 25242.6 48421.4 25247.6 48489 25249.3 48537.7 25248.4 48585 25245.7 48631 25241.1 48675.7 25234.7 48719.1 25226.5 48761.1 25216.4 48801.7 25204.5 48841 25190.8 48879 25175.2 48915.6 25157.8 48950.9 25138.6 48984.9 25117.5 49017.5 25094.6 49048.8 25069.9 49078.7 25043.4 49107.3 25015 49134.3 24985 49159.6 24953.6 49183.1 24920.8 49204.9 24886.7 49225 24851.1 49243.3 24814.1 49259.9 24775.7 49274.7 24735.9 49287.8 24694.7 49299.1 24652.1 49308.7 24608.2 49316.6 24562.8 49322.7 24516 49327.1 24467.8 49329.7 24418.2 49330.5 24367.3 49329 24299.4 49324.3 24233.9 49316.5 24170.7 49305.5 24109.8 49291.5 24051.2 49274.3 23995 49254 23941 49230.6 23889.4 49204.1 23840.4 49174.9 23794.3 49142.8 23751.2 49107.9 23710.9 49070.1 23673.6 49029.5 23639.1 48986.1 23607.6 48939.8 23579 48891 23553.6 48840 23531.5 48786.8 23512.9 48731.4 23497.6 48673.8 23485.7 48614 23477.3 48551.9 23472.2 48487.7 23470.5"/><path d="M 51809.9 23495 51576.8 23495 51576.8 24211.5 50909.4 25223.6 51167 25223.6 51690.9 24400.4 52217.2 25223.6 52474.8 25223.6 51809.9 24211.5 51809.9 23495"/><path d="M 50893 22995.7 49429.5 22995.7 49429.5 23155.2 50893 23155.2 50893 22995.7"/><path d="M 48030.1 20955 47760.2 20955 48042.1 21382.7 48251 21699.7 48202.9 21709.8 48157.5 21722.9 48114.8 21739.1 48074.8 21758.3 48052.9 21771.2 48037.4 21780.5 48002.6 21805.7 47970.6 21834 47941.2 21865.3 47914.9 21899.1 47892.1 21934.8 47872.8 21972.4 47857 22011.9 47844.7 22053.3 47835.9 22096.7 47830.7 22142 47828.9 22189.2 47829.5 22217.9 47831.4 22245.8 47834.5 22273 47838.9 22299.3 47851.3 22349.6 47868.6 22396.7 47891 22440.5 47918.3 22481.2 47950.6 22518.7 47987.8 22552.9 48029.6 22583.5 48075.6 22610.1 48125.7 22632.5 48179.9 22650.9 48238.4 22665.2 48301 22675.4 48367.7 22681.5 48438.7 22683.6 49252 22683.6 49252 20955 49017.7 20955 49017.7 21672.7 48479.1 21672.7 48030.1 20955"/></g><path d="M 53998.9 20955 52637.1 20955 52637.1 21146.4 53764.6 21146.4 53764.6 21748.7 52761.1 21748.7 52761.1 21937.7 53764.6 21937.7 53764.6 22492.2 52687.4 22492.2 52687.4 22683.6 53998.9 22683.6 53998.9 20955"/><path d="M 54523.2 20955 54232.4 20955 55066.6 21932.8 54330.5 22683.6 54606.6 22683.6 55439.6 21817.4 55439.6 22683.6 55673.9 22683.6 55673.9 20955 55439.6 20955 55439.6 21617.5 55213.8 21789.2 54523.2 20955"/><path d="M 51809.9 20955 51576.8 20955 51576.8 21671.5 50909.4 22683.6 51167 22683.6 51690.9 21860.4 52217.2 22683.6 52474.8 22683.6 51809.9 21671.5 51809.9 20955"/><path d="M 47451.1 20955 46367.9 20955 46367.9 21142.7 46788.6 21142.7 46788.6 22683.6 46992.3 22683.6 47400.8 22402.6 47400.8 22194.1 47010.7 22472.6 47010.7 21142.7 47451.1 21142.7 47451.1 20955"/><path d="M 50893 20455.7 49429.5 20455.7 49429.5 20615.2 50893 20615.2 50893 20455.7"/><path d="M 48030.1 18415 47760.2 18415 48042.1 18842.7 48251 19159.7 48202.9 19169.8 48157.5 19182.9 48114.8 19199.1 48074.8 19218.3 48052.9 19231.2 48037.4 19240.5 48002.6 19265.7 47970.6 19294 47941.2 19325.3 47914.9 19359.1 47892.1 19394.8 47872.8 19432.4 47857 19471.9 47844.7 19513.3 47835.9 19556.7 47830.7 19602 47828.9 19649.2 47829.5 19677.9 47831.4 19705.8 47834.5 19733 47838.9 19759.3 47851.3 19809.6 47868.6 19856.7 47891 19900.5 47918.3 19941.2 47950.6 19978.7 47987.8 20012.9 48029.6 20043.5 48075.6 20070.1 48125.7 20092.5 48179.9 20110.9 48238.4 20125.2 48301 20135.4 48367.7 20141.5 48438.7 20143.6 49252 20143.6 49252 18415 49017.7 18415 49017.7 19132.7 48479.1 19132.7 48030.1 18415"/></g><path d="M 53998.9 18415 52637.1 18415 52637.1 18606.4 53764.6 18606.4 53764.6 19208.7 52761.1 19208.7 52761.1 19397.7 53764.6 19397.7 53764.6 19952.2 52687.4 19952.2 52687.4 20143.6 53998.9 20143.6 53998.9 18415"/><path d="M 54523.2 18415 54232.4 18415 55066.6 19392.8 54330.5 20143.6 54606.6 20143.6 55439.6 19277.4 55439.6 20143.6 55673.9 20143.6 55673.9 18415 55439.6 18415 55439.6 19077.5 55213.8 19249.2 54523.2 18415"/><path d="M 47516.1 18415 46371.5 18415 46371.5 18602.7 47273.2 18602.7 47251.9 18646.1 47224.8 18690.3 47191.8 18735.3 47153 18781.2 47107.7 18828.9 47055.2 18879.5 46995.4 18932.9 46928.5 18989.1 46810.7 19086.6 46713.5 19170.4 46637.1 19240.6 46581.3 19297.1 46538.7 19346.8 46501.7 19396.4 46470.3 19446.1 46444.5 19495.8 46424.4 19545.6 46410 19595.5 46405 19620.5 46401.4 19645.6 46399.2 19670.7 46398.5 19695.8 46400.7 19750.9 46407.3 19802.8 46418.3 19851.4 46433.6 19896.8 46453.4 19939 46477.5 19977.9 46506.1 20013.6 46539 20046 46576 20074.9 46616.8 20100 46661.3 20121.2 46709.7 20138.5 46761.8 20152 46817.7 20161.6 46877.3 20167.4 46940.8 20169.3 46998.9 20167.4 47054.4 20161.7 47107.1 20152.1 47157.1 20138.7 47204.5 20121.4 47249.1 20100.3 47291.1 20075.4 47330.3 20046.7 47366.2 20014.7 47398.1 19980 47426.1 19942.7 47450 19902.8 47470.1 19860.2 47486.1 19815 47498.2 19767.2 47506.3 19716.6 47280.6 19695.8 47275.4 19729.5 47267.9 19761.2 47258 19791 47245.8 19818.9 47231.2 19844.9 47214.2 19868.9 47194.9 19891 47173.2 19911.1 47149.6 19929.1 47124.4 19944.6 47097.7 19957.8 47069.4 19968.6 47039.6 19977 47008.2 19983 46975.3 19986.6 46940.8 19987.8 46904.7 19986.5 46870.6 19982.9 46838.6 19976.7 46808.6 19968.1 46780.6 19957.1 46754.7 19943.6 46730.8 19927.7 46708.9 19909.3 46689.4 19888.6 46672.4 19866 46658.1 19841.4 46646.3 19814.8 46637.2 19786.2 46630.7 19755.6 46626.8 19723 46625.5 19688.4 46626.2 19662.4 46628.5 19637.1 46632.3 19612.4 46637.6 19588.4 46644.4 19565.2 46652.7 19542.6 46662.6 19520.7 46673.9 19499.5 46700 19458.2 46729.9 19417.9 46763.5 19378.5 46800.9 19340 46884.2 19264 46977 19187.9 47075 19108.6 47173.9 19022.9 47223 18977.1 47270.9 18928.7 47317.7 18877.7 47363.4 18824.1 47406.8 18767.1 47446.7 18705.9 47483.1 18640.5 47516.1 18570.8 47516.1 18415"/><path d="M 51809.9 18415 51576.8 18415 51576.8 19131.5 50909.4 20143.6 51167 20143.6 51690.9 19320.4 52217.2 20143.6 52474.8 20143.6 51809.9 19131.5 51809.9 18415"/><path d="M 50893 17915.7 49429.5 17915.7 49429.5 18075.2 50893 18075.2 50893 17915.7"/><path d="M 48030.1 15875 47760.2 15875 48042.1 16302.7 48251 16619.7 48202.9 16629.8 48157.5 16642.9 48114.8 16659.1 48074.8 16678.3 48052.9 16691.2 48037.4 16700.5 48002.6 16725.7 47970.6 16754 47941.2 16785.3 47914.9 16819.1 47892.1 16854.8 47872.8 16892.4 47857 16931.9 47844.7 16973.3 47835.9 17016.7 47830.7 17062 47828.9 17109.2 47829.5 17137.9 47831.4 17165.8 47834.5 17193 47838.9 17219.3 47851.3 17269.6 47868.6 17316.7 47891 17360.5 47918.3 17401.2 47950.6 17438.7 47987.8 17472.9 48029.6 17503.5 48075.6 17530.1 48125.7 17552.5 48179.9 17570.9 48238.4 17585.2 48301 17595.4 48367.7 17601.5 48438.7 17603.6 49252 17603.6 49252 15875 49017.7 15875 49017.7 16592.7 48479.1 16592.7 48030.1 15875"/></g><path d="M 53998.9 15875 52637.1 15875 52637.1 16066.4 53764.6 16066.4 53764.6 16668.7 52761.1 16668.7 52761.1 16857.7 53764.6 16857.7 53764.6 17412.2 52687.4 17412.2 52687.4 17603.6 53998.9 17603.6 53998.9 15875"/><path d="M 54523.2 15875 54232.4 15875 55066.6 16852.8 54330.5 17603.6 54606.6 17603.6 55439.6 16737.4 55439.6 17603.6 55673.9 17603.6 55673.9 15875 55439.6 15875 55439.6 16537.5 55213.8 16709.2 54523.2 15875"/><path d="M 46942 15850.5 46873.5 15852.5 46809 15858.7 46748.7 15868.9 46692.3 15883.3 46640.1 15901.7 46591.9 15924.3 46547.8 15951 46507.7 15981.7 46472.1 16016.2 46441.2 16054.1 46415 16095.4 46393.6 16140 46377 16188 46365.1 16239.4 46358 16294.1 46356.2 16322.7 46355.6 16352.2 46357.3 16392.8 46362.3 16431.5 46370.8 16468.5 46382.6 16503.7 46397.8 16537.2 46416.3 16568.9 46438.2 16598.9 46463.5 16627 46491.9 16652.9 46522.9 16676.1 46556.6 16696.5 46593 16714.1 46632 16729 46673.8 16741.1 46718.2 16750.5 46765.3 16757.1 46765.3 16762 46722.5 16772.2 46682.3 16784.6 46644.7 16799 46609.7 16815.5 46577.3 16834.1 46547.6 16854.8 46520.5 16877.6 46496.1 16902.5 46474.3 16929.3 46455.5 16958.2 46439.6 16988.9 46426.6 17021.6 46416.5 17056.2 46409.2 17092.8 46404.9 17131.3 46403.4 17171.7 46405.7 17224.2 46412.4 17273.8 46423.7 17320.3 46439.5 17363.9 46459.7 17404.5 46484.5 17442.1 46513.8 17476.8 46547.6 17508.5 46585.4 17536.8 46626.9 17561.4 46672 17582.1 46720.7 17599.1 46773.1 17612.3 46829 17621.8 46888.6 17627.4 46951.8 17629.3 47010 17627.5 47065.4 17621.9 47118.1 17612.6 47168.2 17599.6 47215.5 17582.8 47260.2 17562.4 47302.1 17538.2 47341.3 17510.3 47377.2 17479.1 47409.1 17445 47437.1 17408 47461.1 17368 47481.1 17325.2 47497.2 17279.4 47509.3 17230.7 47517.4 17179.1 47295.3 17161.9 47290.5 17195 47283.2 17226.2 47273.7 17255.4 47261.7 17282.8 47247.4 17308.2 47230.8 17331.7 47211.8 17353.3 47190.4 17372.9 47167 17390.5 47141.9 17405.7 47114.9 17418.5 47086.3 17429.1 47055.9 17437.2 47023.8 17443.1 46989.9 17446.6 46954.3 17447.8 46915.3 17446.5 46878.9 17442.7 46844.9 17436.5 46813.3 17427.7 46784.3 17416.4 46757.7 17402.6 46733.6 17386.2 46712 17367.4 46692.8 17346.4 46676.3 17323.6 46662.3 17298.9 46650.8 17272.5 46641.9 17244.2 46635.5 17214.1 46631.7 17182.2 46630.4 17148.4 46631.9 17114.4 46636.6 17082.3 46644.4 17052.1 46655.4 17023.8 46669.4 16997.3 46686.6 16972.8 46706.9 16950.2 46730.4 16929.4 46756.6 16910.9 46785.5 16894.8 46816.8 16881.2 46850.8 16870.1 46887.2 16861.4 46926.2 16855.3 46967.8 16851.5 47011.9 16850.3 47132.2 16850.3 47132.2 16658.9 47007 16658.9 46957.3 16657.7 46910.6 16654 46866.9 16647.8 46826.2 16639.1 46788.5 16628 46753.9 16614.4 46722.2 16598.3 46693.6 16579.8 46668.1 16559.1 46646.1 16536.4 46627.4 16511.7 46612.1 16485.2 46600.3 16456.7 46591.8 16426.3 46586.7 16393.9 46585 16359.6 46586.5 16320.3 46590.9 16283.6 46598.4 16249.3 46608.8 16217.6 46622.1 16188.3 46638.5 16161.5 46657.8 16137.2 46680.1 16115.5 46705 16096.2 46732.1 16079.5 46761.5 16065.4 46793.1 16053.8 46827 16044.8 46863.1 16038.4 46901.4 16034.5 46942 16033.3 46982.4 16034.5 47020.6 16038.1 47056.5 16044 47090.2 16052.4 47121.6 16063.2 47150.8 16076.4 47177.7 16092 47202.4 16109.9 47224.8 16130.3 47245 16153.1 47262.9 16178.2 47278.5 16205.8 47291.9 16235.7 47303.1 16268.1 47312 16302.8 47318.6 16340 47546.8 16319.1 47537.5 16262.9 47524.2 16210.3 47506.9 16161.2 47485.6 16115.6 47460.4 16073.6 47431.2 16035.1 47398.1 16000.2 47361 15968.9 47320.2 15941.1 47276.1 15917.1 47228.7 15896.7 47178 15880.1 47124 15867.1 47066.6 15857.9 47006 15852.3 46942 15850.5"/><path d="M 51809.9 15875 51576.8 15875 51576.8 16591.5 50909.4 17603.6 51167 17603.6 51690.9 16780.4 52217.2 17603.6 52474.8 17603.6 51809.9 16591.5 51809.9 15875"/><path d="M 50893 15375.7 49429.5 15375.7 49429.5 15535.2 50893 15535.2 50893 15375.7"/><path d="M 48030.1 13335 47760.2 13335 48042.1 13762.7 48251 14079.7 48202.9 14089.8 48157.5 14102.9 48114.8 14119.1 48074.8 14138.3 48052.9 14151.2 48037.4 14160.5 48002.6 14185.7 47970.6 14214 47941.2 14245.3 47914.9 14279.1 47892.1 14314.8 47872.8 14352.4 47857 14391.9 47844.7 14433.3 47835.9 14476.7 47830.7 14522 47828.9 14569.2 47829.5 14597.9 47831.4 14625.8 47834.5 14653 47838.9 14679.3 47851.3 14729.6 47868.6 14776.7 47891 14820.5 47918.3 14861.2 47950.6 14898.7 47987.8 14932.9 48029.6 14963.5 48075.6 14990.1 48125.7 15012.5 48179.9 15030.9 48238.4 15045.2 48301 15055.4 48367.7 15061.5 48438.7 15063.6 49252 15063.6 49252 13335 49017.7 13335 49017.7 14052.7 48479.1 14052.7 48030.1 13335"/></g><path d="M 46770.2 13335 46561.7 13335 46561.7 13726.4 46318.8 13726.4 46318.8 13900.6 46561.7 13900.6 46561.7 15063.6 46793.6 15063.6 47584.8 13898.1 47584.8 13726.4 46770.2 13726.4 46770.2 13335"/></g><path d="M 53998.9 13335 52637.1 13335 52637.1 13526.4 53764.6 13526.4 53764.6 14128.7 52761.1 14128.7 52761.1 14317.7 53764.6 14317.7 53764.6 14872.2 52687.4 14872.2 52687.4 15063.6 53998.9 15063.6 53998.9 13335"/><path d="M 54523.2 13335 54232.4 13335 55066.6 14312.8 54330.5 15063.6 54606.6 15063.6 55439.6 14197.4 55439.6 15063.6 55673.9 15063.6 55673.9 13335 55439.6 13335 55439.6 13997.5 55213.8 14169.2 54523.2 13335"/><path d="M 51809.9 13335 51576.8 13335 51576.8 14051.5 50909.4 15063.6 51167 15063.6 51690.9 14240.4 52217.2 15063.6 52474.8 15063.6 51809.9 14051.5 51809.9 13335"/><path d="M 50893 12835.7 49429.5 12835.7 49429.5 12995.2 50893 12995.2 50893 12835.7"/><path d="M 53732.8 10770.5 53697.3 10771.1 53662.7 10772.9 53629.1 10776 53596.5 10780.3 53564.9 10785.8 53534.3 10792.5 53476 10809.7 53421.6 10831.8 53371.1 10858.8 53324.6 10890.7 53282 10927.5 53243.9 10968.6 53210.9 11013.3 53182.9 11061.7 53160.1 11113.7 53150.5 11141 53142.3 11169.3 53135.3 11198.5 53129.6 11228.6 53125.1 11259.6 53122 11291.5 53120.1 11324.4 53119.4 11358.1 53121.8 11416.8 53128.9 11472.7 53140.7 11525.7 53157.3 11575.9 53178.6 11623.2 53204.7 11667.7 53235.4 11709.4 53270.9 11748.2 53310.4 11783.3 53353.2 11813.7 53399.1 11839.4 53448.4 11860.5 53500.8 11876.9 53556.5 11888.5 53615.4 11895.6 53677.6 11897.9 53729.9 11896.2 53780 11891 53827.9 11882.4 53873.6 11870.3 53917.1 11854.8 53958.5 11835.8 53997.6 11813.4 54034.6 11787.5 54001.5 12335.9 53220 12335.9 53220 12523.6 54202.7 12523.6 54260.4 11593.7 54044.4 11593.7 54005.8 11624.9 53967.1 11651.3 53928.5 11672.8 53889.9 11689.3 53850.4 11701.7 53809.5 11710.5 53767 11715.8 53723 11717.6 53681.2 11716 53641.5 11711.3 53604.1 11703.4 53568.9 11692.4 53535.9 11678.3 53505.1 11661 53476.5 11640.5 53450.1 11617 53426.3 11590.8 53405.8 11562.8 53388.4 11532.7 53374.1 11500.7 53363.1 11466.8 53355.2 11430.9 53350.4 11393 53348.8 11353.2 53350.4 11307.5 53355.1 11264.4 53363 11223.7 53374 11185.6 53388.1 11150 53405.4 11116.8 53425.9 11086.2 53449.4 11058.2 53475.8 11033 53504.6 11011.2 53535.8 10992.7 53569.4 10977.6 53605.4 10965.9 53643.8 10957.5 53684.7 10952.5 53727.9 10950.8 53763.3 10951.8 53796.9 10954.8 53828.8 10959.8 53859 10966.8 53887.4 10975.8 53914.2 10986.9 53939.2 10999.9 53962.5 11014.9 53984.2 11031.9 54004 11051 54022.2 11072 54038.7 11095 54053.4 11120.1 54066.5 11147.1 54077.8 11176.2 54087.4 11207.2 54310.7 11181.4 54299.1 11132.9 54284.2 11087.4 54265.9 11044.8 54244.1 11005.1 54218.9 10968.4 54190.4 10934.6 54158.4 10903.8 54123 10876 54084.4 10851.2 54042.9 10829.8 53998.5 10811.7 53951.2 10796.8 53901 10785.3 53847.8 10777.1 53791.8 10772.1 53732.8 10770.5"/><path d="M 52297.9 10795 52055 10795 51349.6 12523.6 51596.2 12523.6 52072.2 11306.6 52175.2 11001.1 52278.3 11306.6 52756.7 12523.6 53003.3 12523.6 52297.9 10795"/><path d="M 55237.2 11015.8 55056.8 11015.8 55056.8 11540.9 54536.6 11540.9 54536.6 11720 55056.8 11720 55056.8 12245.1 55237.2 12245.1 55237.2 11720 55757.3 11720 55757.3 11540.9 55237.2 11540.9 55237.2 11015.8"/><path d="M 51905.1 8255 51258.6 8255 51197 8256.7 51137.2 8261.7 51079.2 8270 51023.1 8281.7 50968.8 8296.7 50916.3 8315 50865.7 8336.7 50817 8361.7 50770.5 8389.9 50726.7 8421 50685.7 8455 50647.4 8491.9 50611.8 8531.8 50578.9 8574.6 50548.7 8620.4 50521.3 8669 50496.9 8720.2 50475.7 8773.5 50457.8 8828.9 50443.1 8886.3 50431.7 8945.9 50423.6 9007.5 50418.7 9071.3 50417 9137.1 50418 9187.1 50420.8 9235.7 50425.4 9282.8 50431.9 9328.5 50440.3 9372.7 50450.6 9415.5 50462.7 9456.8 50476.7 9496.7 50492.5 9535.1 50510.2 9572.1 50529.8 9607.6 50551.3 9641.6 50574.6 9674.2 50599.7 9705.4 50626.8 9735.1 50655.6 9763.4 50686.3 9790 50718.4 9815 50752.2 9838.2 50787.5 9859.7 50824.4 9879.5 50862.8 9897.6 50902.8 9913.9 50944.4 9928.5 50987.6 9941.4 51032.3 9952.6 51078.5 9962.1 51126.4 9969.8 51175.8 9975.8 51226.8 9980.1 51279.3 9982.7 51333.5 9983.6 51905.1 9983.6 51905.1 8255"/></g><path d="M 52599.5 8255 52317.3 8255 52317.3 9983.6 52528.3 9983.6 52528.3 8850 52527.4 8787.7 52524.6 8708.9 52513.6 8501.6 53448.4 9983.6 53720.8 9983.6 53720.8 8255 53512.2 8255 53512.2 9403.3 53518.4 9608.2 53524.5 9727.2 52599.5 8255"/><path d="M 54882.6 8230.5 54824.9 8231.7 54768.2 8235.3 54712.5 8241.2 54658 8249.6 54604.4 8260.4 54551.9 8273.6 54500.5 8289.2 54450.2 8307.1 54401.3 8327.3 54354.4 8349.4 54309.4 8373.5 54266.3 8399.6 54225.2 8427.7 54186 8457.7 54148.7 8489.7 54113.4 8523.7 54113.4 9119.9 54845.8 9119.9 54845.8 8923.6 54329.3 8923.6 54329.3 8612 54352.9 8590.5 54378.2 8570.1 54405.3 8550.9 54434.1 8532.9 54464.6 8516 54496.9 8500.2 54530.9 8485.6 54566.7 8472.1 54603.7 8460.1 54641.4 8449.6 54679.9 8440.7 54719 8433.5 54758.8 8427.9 54799.4 8423.8 54840.6 8421.4 54882.6 8420.6 54919.2 8421.4 54954.8 8423.6 54989.4 8427.3 55023 8432.5 55055.6 8439.1 55087.2 8447.3 55117.7 8456.9 55147.3 8468 55175.8 8480.6 55203.4 8494.7 55229.9 8510.2 55255.5 8527.2 55280 8545.7 55303.5 8565.7 55326.1 8587.2 55347.6 8610.2 55367.9 8634.4 55387 8659.7 55404.7 8686.1 55421.1 8713.6 55436.2 8742.1 55450 8771.7 55462.5 8802.4 55473.6 8834.2 55483.5 8867.1 55492 8901 55499.2 8936 55505.1 8972.1 55509.7 9009.3 55513 9047.5 55515 9086.9 55515.6 9127.3 55515 9167.8 55513.2 9207.1 55510.1 9245.4 55505.8 9282.4 55500.2 9318.3 55493.4 9353.1 55485.3 9386.7 55476.1 9419.1 55465.6 9450.4 55453.8 9480.5 55440.8 9509.5 55426.6 9537.3 55411.2 9563.9 55394.5 9589.4 55376.5 9613.8 55357.4 9637 55337.1 9658.9 55315.6 9679.4 55293.1 9698.5 55269.4 9716.2 55244.7 9732.4 55218.9 9747.3 55191.9 9760.7 55163.9 9772.7 55134.7 9783.3 55104.5 9792.5 55073.1 9800.3 55040.6 9806.6 55007.1 9811.6 54972.4 9815.1 54936.7 9817.2 54899.8 9818 54852.6 9816.9 54807.4 9813.7 54764.2 9808.5 54723 9801.1 54683.7 9791.6 54646.4 9780 54611.1 9766.3 54577.7 9750.5 54546.3 9732.4 54516.5 9711.8 54488.5 9688.7 54462.3 9663.1 54437.8 9635 54415 9604.4 54394 9571.3 54374.7 9535.8 54151.4 9602 54176.9 9653.6 54205 9701.5 54235.7 9745.7 54268.9 9786.4 54304.7 9823.3 54343 9856.7 54384 9886.4 54427.5 9912.4 54473.9 9935.1 54523.8 9954.8 54577 9971.5 54633.6 9985.1 54693.5 9995.7 54756.9 10003.3 54823.6 10007.8 54893.7 10009.3 54944 10008.4 54992.9 10005.7 55040.4 10001.2 55086.5 9994.9 55131.1 9986.8 55174.3 9976.9 55216.1 9965.2 55256.5 9951.7 55295.4 9936.4 55332.9 9919.2 55369 9900.3 55403.6 9879.6 55436.8 9857.1 55468.6 9832.8 55499 9806.6 55527.9 9778.7 55555.2 9749.1 55580.8 9718.1 55604.6 9685.5 55626.7 9651.5 55646.9 9616 55665.5 9579 55682.2 9540.5 55697.2 9500.5 55710.4 9459.1 55721.9 9416.1 55731.6 9371.7 55739.5 9325.8 55745.7 9278.4 55750.1 9229.5 55752.8 9179.1 55753.6 9127.3 55752 9059.7 55747.2 8994.3 55739.1 8931.2 55727.7 8870.4 55713.1 8811.8 55695.3 8755.4 55674.3 8701.3 55650 8649.4 55622.6 8600.1 55592.4 8553.8 55559.2 8510.5 55523.2 8470.2 55484.2 8432.8 55442.4 8398.3 55397.6 8366.9 55350 8338.4 55299.8 8313.1 55247.2 8291.2 55192.3 8272.6 55135 8257.5 55075.4 8245.6 55013.5 8237.2 54949.2 8232.2 54882.6 8230.5"/><path d="M 54552.6 5715 54270.4 5715 54270.4 7443.6 54481.4 7443.6 54481.4 6310 54480.5 6247.7 54477.8 6168.9 54466.7 5961.6 55401.5 7443.6 55673.9 7443.6 55673.9 5715 55465.3 5715 55465.3 6863.3 55471.5 7068.2 55477.6 7187.2 54552.6 5715"/><path d="M 53094 5690.5 53031.1 5692.3 52970.3 5697.8 52911.3 5706.9 52854.3 5719.6 52799.2 5736 52746.1 5756 52694.8 5779.7 52645.6 5807 52598.6 5837.8 52554.4 5872 52512.8 5909.4 52474 5950.2 52437.8 5994.4 52404.4 6041.9 52373.7 6092.7 52345.6 6146.8 52537 6242.5 52560.6 6199 52585.5 6158.3 52611.9 6120.4 52639.7 6085.3 52668.9 6053 52699.5 6023.5 52731.5 5996.8 52764.9 5972.9 52799.7 5951.9 52835.9 5933.6 52873.6 5918.2 52912.6 5905.5 52953.1 5895.7 52995 5888.7 53038.2 5884.5 53082.9 5883.1 53117.9 5883.8 53152 5886.1 53185.1 5889.9 53217.3 5895.1 53248.6 5901.9 53279 5910.2 53308.5 5920.1 53337 5931.4 53364.7 5944.2 53391.4 5958.5 53417.2 5974.4 53442.1 5991.8 53466.1 6010.6 53489.2 6031 53511.3 6052.9 53532.6 6076.3 53571.5 6126.5 53589.1 6153.1 53605.3 6180.7 53620.2 6209.2 53633.9 6238.7 53646.2 6269.2 53657.2 6300.6 53667 6333.1 53675.4 6366.5 53682.6 6400.8 53688.4 6436.2 53692.9 6472.5 53696.2 6509.8 53698.1 6548 53698.8 6587.3 53698.2 6626.9 53696.3 6665.5 53693.2 6703 53688.8 6739.4 53683.2 6774.8 53676.4 6809.1 53668.3 6842.3 53658.9 6874.5 53648.3 6905.6 53636.5 6935.6 53623.4 6964.6 53609.1 6992.5 53593.5 7019.3 53576.7 7045 53539.3 7093.3 53518.9 7115.7 53497.4 7136.6 53475 7156.1 53451.6 7174.1 53427.2 7190.7 53401.7 7205.8 53375.3 7219.5 53347.9 7231.8 53319.5 7242.6 53290.1 7252 53259.7 7259.9 53228.3 7266.4 53195.9 7271.5 53162.5 7275.1 53128.1 7277.2 53092.7 7278 53047.8 7276.7 53004.5 7273 52962.6 7266.7 52922.4 7258 52883.7 7246.8 52846.5 7233.1 52810.9 7216.9 52776.8 7198.2 52744.7 7177.2 52714.9 7153.9 52687.3 7128.4 52662 7100.7 52639 7070.7 52618.2 7038.6 52599.8 7004.2 52583.6 6967.6 52361.6 7041.2 52384.9 7092.6 52411.3 7140.8 52440.7 7185.7 52473.2 7227.3 52508.8 7265.7 52547.4 7300.9 52589.1 7332.8 52633.9 7361.4 52681.7 7386.7 52732.2 7408.6 52785.6 7427.2 52841.9 7442.3 52900.9 7454.2 52962.9 7462.6 53027.6 7467.6 53095.2 7469.3 53143.9 7468.4 53191.3 7465.7 53237.3 7461.1 53282 7454.7 53325.3 7446.5 53367.3 7436.4 53408 7424.5 53447.3 7410.8 53485.3 7395.2 53521.9 7377.8 53557.2 7358.6 53591.1 7337.5 53623.7 7314.6 53655 7289.9 53684.9 7263.4 53713.5 7235 53740.5 7205 53765.8 7173.6 53789.4 7140.8 53811.2 7106.7 53831.3 7071.1 53849.6 7034.1 53866.1 6995.7 53881 6955.9 53894.1 6914.7 53905.4 6872.1 53915 6828.2 53922.8 6782.8 53928.9 6736 53933.3 6687.8 53935.9 6638.2 53936.8 6587.3 53935.2 6519.4 53930.5 6453.9 53922.7 6390.7 53911.8 6329.8 53897.7 6271.2 53880.5 6215 53860.2 6161 53836.8 6109.4 53810.4 6060.4 53781.1 6014.3 53749.1 5971.2 53714.1 5930.9 53676.4 5893.6 53635.8 5859.1 53592.3 5827.6 53546.1 5799 53497.3 5773.6 53446.3 5751.5 53393.1 5732.9 53337.6 5717.6 53280 5705.7 53220.2 5697.3 53158.2 5692.2 53094 5690.5"/><path d="M 69084.5 8763 68891.8 8763 69093 9068.3 69242.2 9294.6 69207.9 9301.9 69175.5 9311.2 69145 9322.8 69116.4 9336.5 69100.8 9345.7 69089.7 9352.3 69064.9 9370.4 69042 9390.5 69021 9412.9 69002.2 9437 68985.9 9462.5 68972.2 9489.3 68960.9 9517.5 68952.1 9547.1 68945.9 9578.1 68942.1 9610.4 68940.9 9644.1 68942.6 9684.6 68948 9722.7 68956.8 9758.6 68969.2 9792.2 68985.2 9823.6 69004.7 9852.6 69027.7 9879.3 69054.3 9903.8 69084.1 9925.7 69116.9 9944.6 69152.7 9960.6 69191.5 9973.8 69233.2 9984 69277.9 9991.2 69325.5 9995.6 69376.2 9997.1 69956.9 9997.1 69956.9 8763 69789.6 8763 69789.6 9275.4 69405.1 9275.4 69084.5 8763"/></g><path d="M 68670.5 8763 67897.1 8763 67897.1 8897 68197.5 8897 68197.5 9997.1 68342.9 9997.1 68634.6 9796.5 68634.6 9647.6 68356.1 9846.4 68356.1 8897 68670.5 8897 68670.5 8763"/><path d="M 67814.5 20193 67621.8 20193 67823 20498.3 67972.2 20724.6 67937.9 20731.9 67905.5 20741.2 67875 20752.8 67846.4 20766.5 67830.8 20775.7 67819.7 20782.3 67794.9 20800.4 67772 20820.5 67751 20842.9 67732.2 20867 67715.9 20892.5 67702.2 20919.3 67690.9 20947.5 67682.1 20977.1 67675.9 21008.1 67672.1 21040.4 67670.9 21074.1 67672.6 21114.6 67678 21152.7 67686.8 21188.6 67699.2 21222.2 67715.2 21253.6 67734.7 21282.6 67757.7 21309.3 67784.3 21333.8 67814.1 21355.7 67846.9 21374.6 67882.7 21390.6 67921.5 21403.8 67963.2 21414 68007.9 21421.2 68055.5 21425.6 68106.2 21427.1 68686.9 21427.1 68686.9 20193 68519.6 20193 68519.6 20705.4 68135.1 20705.4 67814.5 20193"/></g><path d="M 67446.9 20193 66629.7 20193 66629.7 20327 67273.5 20327 67258.3 20358 67238.9 20389.5 67215.4 20421.7 67187.7 20454.4 67155.3 20488.5 67117.8 20524.6 67075.2 20562.7 67027.4 20602.9 66943.2 20672.5 66873.9 20732.3 66819.3 20782.4 66779.5 20822.7 66749.1 20858.2 66722.7 20893.7 66700.3 20929.2 66681.9 20964.6 66667.5 21000.2 66657.2 21035.8 66651.1 21071.5 66649 21107.4 66650.6 21146.7 66655.3 21183.8 66663.1 21218.5 66674.1 21250.9 66688.2 21281 66705.4 21308.8 66725.8 21334.3 66749.3 21357.4 66775.7 21378.1 66804.8 21396 66836.6 21411.1 66871.2 21423.5 66908.4 21433.1 66948.3 21440 66990.8 21444.1 67036.1 21445.5 67077.7 21444.1 67117.2 21440 67154.9 21433.2 67190.6 21423.6 67224.4 21411.3 67256.3 21396.2 67286.2 21378.4 67314.2 21357.9 67339.8 21335 67362.6 21310.3 67382.6 21283.7 67399.7 21255.2 67414 21224.8 67425.5 21192.5 67434.1 21158.3 67439.9 21122.3 67278.8 21107.4 67275.1 21131.4 67269.7 21154.1 67262.6 21175.4 67253.9 21195.3 67243.5 21213.8 67231.4 21231 67217.6 21246.7 67202.1 21261.1 67185.2 21273.9 67167.3 21285.1 67148.2 21294.5 67128 21302.2 67106.7 21308.1 67084.3 21312.4 67060.8 21315 67036.1 21315.8 67010.4 21315 66986.1 21312.3 66963.2 21308 66941.8 21301.8 66921.8 21293.9 66903.3 21284.3 66886.2 21272.9 66870.6 21259.8 66856.6 21245.1 66844.5 21228.9 66834.3 21211.3 66825.9 21192.3 66819.4 21171.9 66814.8 21150.1 66812 21126.8 66811 21102.1 66813.2 21065.5 66819.7 21030.8 66830.5 20998 66845.6 20967.3 66864.3 20937.8 66885.6 20909 66909.6 20880.9 66936.3 20853.4 66995.7 20799.1 67062 20744.8 67131.9 20688.2 67202.6 20627 67237.6 20594.3 67271.9 20559.8 67305.3 20523.4 67337.9 20485.1 67368.8 20444.4 67397.3 20400.7 67423.3 20354 67446.9 20304.2 67446.9 20193"/><path d="M 86102.5 20320 85909.8 20320 86111 20625.3 86260.2 20851.6 86225.9 20858.9 86193.5 20868.2 86163 20879.8 86134.4 20893.5 86118.8 20902.7 86107.7 20909.3 86082.9 20927.4 86060 20947.5 86039 20969.9 86020.2 20994 86003.9 21019.5 85990.2 21046.3 85978.9 21074.5 85970.1 21104.1 85963.9 21135.1 85960.1 21167.4 85958.9 21201.1 85960.6 21241.6 85966 21279.7 85974.8 21315.6 85987.2 21349.2 86003.2 21380.6 86022.7 21409.6 86045.7 21436.3 86072.3 21460.8 86102.1 21482.7 86134.9 21501.6 86170.7 21517.6 86209.5 21530.8 86251.2 21541 86295.9 21548.2 86343.5 21552.6 86394.2 21554.1 86974.9 21554.1 86974.9 20320 86807.6 20320 86807.6 20832.4 86423.1 20832.4 86102.5 20320"/></g><path d="M 85325 20302.5 85276.1 20304 85230.1 20308.3 85187 20315.7 85146.8 20325.9 85109.5 20339.1 85075.1 20355.2 85043.6 20374.2 85015 20396.2 84989.5 20420.8 84967.4 20447.9 84948.8 20477.3 84933.5 20509.2 84921.6 20543.5 84913.1 20580.1 84908.1 20619.2 84906.4 20660.7 84907.6 20689.6 84911.2 20717.3 84917.2 20743.7 84925.6 20768.9 84936.5 20792.8 84949.7 20815.4 84965.4 20836.8 84983.4 20856.9 85003.7 20875.4 85025.8 20891.9 85049.9 20906.5 85075.8 20919.1 85103.7 20929.7 85133.5 20938.4 85165.3 20945 85198.9 20949.7 85198.9 20953.2 85168.3 20960.6 85139.6 20969.4 85112.7 20979.7 85087.8 20991.5 85064.7 21004.7 85043.5 21019.5 85024.1 21035.8 85006.6 21053.5 84991.1 21072.7 84977.7 21093.3 84966.3 21115.3 84957 21138.6 84949.8 21163.3 84944.6 21189.4 84941.5 21216.9 84940.5 21245.8 84942.1 21283.3 84946.9 21318.6 84955 21351.8 84966.2 21383 84980.7 21412 84998.4 21438.8 85019.3 21463.6 85043.4 21486.2 85070.4 21506.4 85100.1 21523.9 85132.3 21538.8 85167 21550.9 85204.4 21560.3 85244.4 21567.1 85286.9 21571.1 85332 21572.5 85373.5 21571.1 85413.1 21567.2 85450.8 21560.5 85486.5 21551.2 85520.3 21539.3 85552.2 21524.7 85582.1 21507.4 85610.1 21487.5 85635.7 21465.2 85658.5 21440.9 85678.5 21414.4 85695.6 21385.9 85709.9 21355.3 85721.4 21322.6 85730 21287.9 85735.8 21251 85577.3 21238.8 85573.8 21262.4 85568.6 21284.6 85561.8 21305.5 85553.3 21325 85543.1 21343.2 85531.2 21360 85517.6 21375.4 85502.4 21389.4 85485.7 21401.9 85467.7 21412.8 85448.5 21422 85428 21429.5 85406.3 21435.3 85383.4 21439.5 85359.2 21442 85333.8 21442.8 85306 21441.9 85279.9 21439.3 85255.7 21434.8 85233.2 21428.5 85212.4 21420.4 85193.4 21410.6 85176.2 21398.9 85160.8 21385.5 85147.1 21370.5 85135.3 21354.2 85125.3 21336.6 85117.1 21317.7 85110.7 21297.5 85106.2 21276 85103.5 21253.2 85102.5 21229.1 85103.7 21204.9 85107 21181.9 85112.6 21160.3 85120.4 21140.1 85130.4 21121.3 85142.7 21103.8 85157.2 21087.6 85173.9 21072.8 85192.7 21059.6 85213.3 21048.1 85235.7 21038.4 85259.9 21030.4 85285.9 21024.2 85313.8 21019.8 85343.4 21017.2 85374.9 21016.3 85460.8 21016.3 85460.8 20879.7 85371.4 20879.7 85335.9 20878.8 85302.6 20876.1 85271.4 20871.7 85242.4 20865.5 85215.5 20857.6 85190.7 20847.9 85168.1 20836.4 85147.7 20823.2 85129.5 20808.4 85113.7 20792.2 85100.4 20774.6 85089.5 20755.6 85081 20735.3 85075 20713.6 85071.4 20690.5 85070.1 20666 85071.2 20637.9 85074.4 20611.7 85079.7 20587.3 85087.1 20564.6 85096.7 20543.7 85108.3 20524.6 85122.1 20507.2 85138 20491.7 85155.8 20477.9 85175.2 20466 85196.1 20455.9 85218.7 20447.7 85242.9 20441.2 85268.7 20436.7 85296 20433.9 85325 20433 85353.9 20433.8 85381.1 20436.4 85406.8 20440.7 85430.8 20446.7 85453.3 20454.4 85474.1 20463.8 85493.3 20474.9 85510.9 20487.7 85526.9 20502.3 85541.3 20518.5 85554.1 20536.5 85565.3 20556.2 85574.8 20577.5 85582.8 20600.6 85589.2 20625.4 85593.9 20651.9 85756.8 20637.1 85750.1 20596.9 85740.6 20559.4 85728.3 20524.3 85713.1 20491.8 85695.1 20461.8 85674.3 20434.3 85650.6 20409.4 85624.1 20387 85595 20367.2 85563.5 20350 85529.7 20335.5 85493.5 20323.6 85454.9 20314.4 85414 20307.8 85370.7 20303.8 85325 20302.5"/><path d="M 84967.3 8890 84774.6 8890 84975.8 9195.3 85124.9 9421.6 85090.6 9428.9 85058.2 9438.2 85027.7 9449.8 84999.1 9463.5 84983.5 9472.7 84972.4 9479.3 84947.6 9497.4 84924.7 9517.5 84903.8 9539.9 84885 9564 84868.7 9589.5 84854.9 9616.3 84843.7 9644.5 84834.9 9674.1 84828.6 9705.1 84824.9 9737.4 84823.6 9771.1 84825.4 9811.6 84830.7 9849.7 84839.6 9885.6 84852 9919.2 84867.9 9950.6 84887.4 9979.6 84910.5 10006.3 84937 10030.8 84966.9 10052.7 84999.7 10071.6 85035.5 10087.6 85074.2 10100.8 85115.9 10111 85160.6 10118.2 85208.3 10122.6 85258.9 10124.1 85839.6 10124.1 85839.6 8890 85672.3 8890 85672.3 9402.4 85287.8 9402.4 84967.3 8890"/></g><path d="M 84067.1 8890 83918.3 8890 83918.3 9169.4 83744.8 9169.4 83744.8 9293.8 83918.3 9293.8 83918.3 10124.1 84083.8 10124.1 84648.7 9292 84648.7 9169.4 84067.1 9169.4 84067.1 8890"/></g><path d="M 74753 8745.5 74708.1 8746.8 74664.6 8750.7 74622.5 8757.2 74581.8 8766.3 74542.5 8778 74504.6 8792.3 74468 8809.2 74432.8 8828.7 74399.3 8850.7 74367.7 8875.1 74338.1 8901.8 74310.3 8930.9 74284.5 8962.5 74260.6 8996.4 74238.7 9032.6 74218.7 9071.3 74355.3 9139.6 74372.1 9108.5 74390 9079.5 74408.8 9052.4 74428.6 9027.3 74449.5 9004.3 74471.3 8983.2 74494.1 8964.2 74518 8947.1 74542.9 8932.1 74568.7 8919.1 74595.6 8908.1 74623.5 8899 74652.4 8892 74682.3 8887 74713.2 8884 74745.1 8883 74794.3 8885.1 74841 8891.6 74885 8902.4 74926.5 8917.5 74965.3 8936.9 75001.5 8960.6 75035.1 8988.6 75066.1 9020.9 75093.9 9056.8 75118 9095.5 75138.4 9136.9 75155.1 9181.1 75168.1 9228.1 75177.3 9277.9 75182.9 9330.4 75184.7 9385.7 75183 9441.6 75177.6 9494.4 75168.7 9544.1 75156.3 9590.8 75140.3 9634.4 75120.7 9675 75097.6 9712.5 75070.9 9747 75041 9777.9 75008.3 9804.7 74972.7 9827.3 74934.3 9845.9 74893 9860.3 74848.9 9870.6 74801.9 9876.8 74752.1 9878.8 74720 9877.9 74689 9875.3 74659.2 9870.8 74630.4 9864.6 74602.8 9856.6 74576.3 9846.8 74550.9 9835.3 74526.5 9821.9 74503.6 9806.9 74482.3 9790.3 74462.6 9772.1 74444.5 9752.3 74428.1 9730.9 74413.3 9707.9 74400.1 9683.4 74388.6 9657.2 74230.1 9709.8 74246.7 9746.5 74265.5 9780.9 74286.6 9813 74309.8 9842.7 74335.2 9870.1 74362.8 9895.2 74392.5 9918 74424.5 9938.4 74458.6 9956.5 74494.7 9972.1 74532.8 9985.4 74573 9996.2 74615.1 10004.6 74659.3 10010.7 74705.6 10014.3 74753.8 10015.5 74788.6 10014.8 74822.4 10012.9 74855.3 10009.6 74887.2 10005 74918.1 9999.1 74948.1 9991.9 74977.1 9983.5 75005.2 9973.6 75032.3 9962.5 75058.5 9950.1 75083.7 9936.4 75107.9 9921.4 75153.5 9887.4 75195.3 9848.2 75232.6 9804.4 75265 9756.5 75292.4 9704.7 75304.2 9677.3 75314.8 9648.9 75324.2 9619.5 75332.2 9589.1 75339.1 9557.7 75344.7 9525.3 75349.1 9491.9 75352.2 9457.5 75354 9422.1 75354.7 9385.7 75353.5 9337.3 75350.2 9290.5 75344.6 9245.4 75336.8 9201.9 75326.8 9160.1 75314.5 9119.9 75300 9081.4 75283.3 9044.6 75264.4 9009.6 75243.5 8976.7 75220.6 8945.9 75195.7 8917.2 75168.7 8890.5 75139.8 8865.9 75108.7 8843.4 75075.7 8823 75040.9 8804.8 75004.5 8789.1 74966.5 8775.8 74926.9 8764.9 74885.8 8756.4 74843.1 8750.3 74798.8 8746.7 74753 8745.5"/><path d="M 74012.2 8763 73238.9 8763 73238.9 8897 73539.3 8897 73539.3 9997.1 73684.7 9997.1 73976.3 9796.5 73976.3 9647.6 73697.8 9846.4 73697.8 8897 74012.2 8897 74012.2 8763"/><path d="M 79571.2 8999.5 79526.3 9000.8 79482.9 9004.7 79440.8 9011.2 79400.1 9020.3 79360.8 9032 79322.8 9046.3 79286.3 9063.2 79251.1 9082.7 79217.6 9104.7 79186 9129.1 79156.3 9155.8 79128.6 9184.9 79102.8 9216.5 79078.9 9250.4 79056.9 9286.6 79036.9 9325.3 79173.6 9393.6 79190.4 9362.5 79208.2 9333.5 79227 9306.4 79246.9 9281.3 79267.7 9258.3 79289.5 9237.2 79312.4 9218.2 79336.3 9201.1 79361.1 9186.1 79387 9173.1 79413.9 9162.1 79441.7 9153 79470.6 9146 79500.5 9141 79531.4 9138 79563.3 9137 79612.6 9139.1 79659.3 9145.6 79703.3 9156.4 79744.7 9171.5 79783.5 9190.9 79819.8 9214.6 79853.3 9242.6 79884.3 9274.9 79912.1 9310.8 79936.2 9349.5 79956.6 9390.9 79973.3 9435.1 79986.3 9482.1 79995.6 9531.9 80001.1 9584.4 80003 9639.7 80001.2 9695.6 79995.9 9748.4 79987 9798.1 79974.5 9844.8 79958.5 9888.4 79939 9929 79915.8 9966.5 79889.1 10001 79859.2 10031.9 79826.5 10058.7 79790.9 10081.3 79752.5 10099.9 79711.2 10114.3 79667.1 10124.6 79620.1 10130.8 79570.3 10132.8 79538.3 10131.9 79507.3 10129.3 79477.4 10124.8 79448.7 10118.6 79421.1 10110.6 79394.5 10100.8 79369.1 10089.3 79344.8 10075.9 79321.9 10060.9 79300.5 10044.3 79280.8 10026.1 79262.8 10006.3 79246.4 9984.9 79231.6 9961.9 79218.4 9937.4 79206.8 9911.2 79048.3 9963.8 79065 10000.5 79083.8 10034.9 79104.8 10067 79128 10096.7 79153.4 10124.1 79181 10149.2 79210.8 10172 79242.8 10192.4 79276.8 10210.5 79312.9 10226.1 79351.1 10239.4 79391.2 10250.2 79433.4 10258.6 79477.6 10264.7 79523.8 10268.3 79572.1 10269.5 79606.9 10268.8 79640.7 10266.9 79673.5 10263.6 79705.4 10259 79736.4 10253.1 79766.4 10245.9 79795.4 10237.5 79823.4 10227.6 79850.6 10216.5 79876.7 10204.1 79901.9 10190.4 79926.1 10175.4 79971.7 10141.4 80013.5 10102.2 80050.9 10058.4 80083.2 10010.5 80110.6 9958.7 80122.5 9931.3 80133.1 9902.9 80142.4 9873.5 80150.5 9843.1 80157.3 9811.7 80163 9779.3 80167.3 9745.9 80170.4 9711.5 80172.3 9676.1 80172.9 9639.7 80171.8 9591.3 80168.5 9544.5 80162.9 9499.4 80155.1 9455.9 80145 9414.1 80132.8 9373.9 80118.3 9335.4 80101.5 9298.6 80082.7 9263.6 80061.8 9230.7 80038.9 9199.9 80013.9 9171.2 79987 9144.5 79958 9119.9 79927 9097.4 79894 9077 79859.1 9058.8 79822.7 9043.1 79784.7 9029.8 79745.2 9018.9 79704 9010.4 79661.3 9004.3 79617.1 9000.7 79571.2 8999.5"/><path d="M 78876.9 9017 78059.7 9017 78059.7 9151 78703.5 9151 78688.3 9182 78668.9 9213.5 78645.4 9245.7 78617.7 9278.4 78585.3 9312.5 78547.8 9348.6 78505.2 9386.7 78457.4 9426.9 78373.2 9496.5 78303.9 9556.3 78249.3 9606.4 78209.5 9646.7 78179.1 9682.2 78152.7 9717.7 78130.3 9753.2 78111.9 9788.6 78097.5 9824.2 78087.2 9859.8 78081.1 9895.5 78079 9931.4 78080.6 9970.7 78085.3 10007.8 78093.1 10042.5 78104.1 10074.9 78118.2 10105 78135.4 10132.8 78155.8 10158.3 78179.3 10181.4 78205.7 10202.1 78234.8 10220 78266.6 10235.1 78301.2 10247.5 78338.4 10257.1 78378.3 10264 78420.8 10268.1 78466.1 10269.5 78507.7 10268.1 78547.2 10264 78584.9 10257.2 78620.6 10247.6 78654.4 10235.3 78686.3 10220.2 78716.2 10202.4 78744.2 10181.9 78769.8 10159 78792.6 10134.3 78812.6 10107.7 78829.7 10079.2 78844 10048.8 78855.5 10016.5 78864.1 9982.3 78869.9 9946.3 78708.8 9931.4 78705.1 9955.4 78699.7 9978.1 78692.6 9999.4 78683.9 10019.3 78673.5 10037.8 78661.4 10055 78647.6 10070.7 78632.1 10085.1 78615.2 10097.9 78597.3 10109.1 78578.2 10118.5 78558 10126.2 78536.7 10132.1 78514.3 10136.4 78490.8 10139 78466.1 10139.8 78440.4 10139 78416.1 10136.3 78393.2 10132 78371.8 10125.8 78351.8 10117.9 78333.3 10108.3 78316.2 10096.9 78300.6 10083.8 78286.6 10069.1 78274.5 10052.9 78264.3 10035.3 78255.9 10016.3 78249.4 9995.9 78244.8 9974.1 78242 9950.8 78241 9926.1 78243.2 9889.5 78249.7 9854.8 78260.5 9822 78275.6 9791.3 78294.3 9761.8 78315.6 9733 78339.6 9704.9 78366.3 9677.4 78425.7 9623.1 78492 9568.8 78561.9 9512.2 78632.6 9451 78667.6 9418.3 78701.9 9383.8 78735.3 9347.4 78767.9 9309.1 78798.8 9268.4 78827.3 9224.7 78853.3 9178 78876.9 9128.2 78876.9 9017"/><path d="M 0 0 88000 0 88000 46000 0 46000 0 0" fill="none" stroke-width="254"/></g></svg>