<svg version="1.1" xmlns="http://www.w3.org/2000/svg" xmlns:xlink="http://www.w3.org/1999/xlink" stroke-linecap="round" stroke-linejoin="round" stroke-width="0" fill-rule="evenodd" width="88.254mm" height="46.254mm" viewBox="-127 -127 88254 46254" id="Z05E4fgbUHptZK2WmJc_"><g transform="translate(0,46000) scale(1,-1)" fill="currentColor" stroke="currentColor"><path d="M 55081.3 38811.2 55803.8 38811.2 55803.8 40436.8 55081.3 40436.8 M 55261.9 39714.3 55803.8 39714.3 M 54452.1 40436.8 54452.1 38811.2 M 53549 38811.2 54452.1 40436.8 M 53549 40436.8 53549 38811.2 M 52479.6 38811.2 52118.3 38811.2 M 52479.6 38811.2 52491.4 38811.4 52503.2 38812 52515 38812.9 52526.7 38814.3 52538.4 38816 52550.1 38818.1 52561.6 38820.6 52573.1 38823.5 52584.5 38826.8 52595.7 38830.4 52606.8 38834.4 52617.8 38838.7 52628.7 38843.4 52639.4 38848.4 52649.9 38853.9 52660.2 38859.6 52670.3 38865.7 52680.3 38872.1 52690 38878.8 52699.5 38885.8 52708.7 38893.2 52717.8 38900.8 52726.5 38908.8 52735 38917 52743.2 38925.5 52751.2 38934.2 52758.8 38943.3 52766.2 38952.5 52773.2 38962 52779.9 38971.7 52786.3 38981.7 52792.4 38991.8 52798.1 39002.1 52803.6 39012.6 52808.6 39023.3 52813.3 39034.2 52817.6 39045.2 52821.6 39056.3 52825.2 39067.5 52828.5 39078.9 52831.4 39090.4 52833.9 39101.9 52836 39113.6 52837.7 39125.3 52839.1 39137 52840 39148.8 52840.6 39160.6 52840.8 39172.4 52840.8 40075.6 52840.6 40087.4 52840 40099.2 52839.1 40111 52837.7 40122.7 52836 40134.4 52833.9 40146.1 52831.4 40157.6 52828.5 40169.1 52825.2 40180.5 52821.6 40191.7 52817.6 40202.8 52813.3 40213.8 52808.6 40224.7 52803.6 40235.4 52798.1 40245.9 52792.4 40256.2 52786.3 40266.3 52779.9 40276.3 52773.2 40286 52766.2 40295.5 52758.8 40304.7 52751.2 40313.8 52743.2 40322.5 52735 40331 52726.5 40339.2 52717.8 40347.2 52708.7 40354.8 52699.5 40362.2 52690 40369.2 52680.3 40375.9 52670.3 40382.3 52660.2 40388.4 52649.9 40394.1 52639.4 40399.6 52628.7 40404.6 52617.8 40409.3 52606.8 40413.6 52595.7 40417.6 52584.5 40421.2 52573.1 40424.5 52561.6 40427.4 52550.1 40429.9 52538.4 40432 52526.7 40433.7 52515 40435.1 52503.2 40436 52491.4 40436.6 52479.6 40436.8 52118.3 40436.8 M 51600.2 38630.6 50877.8 38630.6 M 50210.5 39714.3 49759 39714.3 M 49759 39714.4 49745.7 39714.2 49732.5 39713.6 49719.3 39712.6 49706.1 39711.3 49692.9 39709.5 49679.9 39707.4 49666.8 39704.9 49653.9 39702 49641.1 39698.7 49628.3 39695.1 49615.7 39691.1 49603.2 39686.7 49590.8 39681.9 49578.6 39676.8 49566.5 39671.3 49554.6 39665.5 49542.8 39659.3 49531.3 39652.8 49519.9 39645.9 49508.8 39638.8 49497.9 39631.2 49487.2 39623.4 49476.7 39615.3 49466.5 39606.8 49456.5 39598.1 49446.8 39589.1 49437.3 39579.8 49428.2 39570.2 49419.3 39560.4 49410.7 39550.3 49402.4 39539.9 49394.4 39529.3 49386.8 39518.5 49379.4 39507.5 49372.4 39496.2 49365.7 39484.8 49359.4 39473.1 49353.4 39461.3 49347.7 39449.3 49342.4 39437.1 49337.5 39424.8 49332.9 39412.4 49328.7 39399.8 49324.9 39387.1 49321.4 39374.3 49318.3 39361.4 49315.6 39348.5 49313.3 39335.4 49311.3 39322.3 49309.8 39309.1 49308.6 39295.9 49307.8 39282.7 49307.4 39269.4 49307.4 39256.2 49307.8 39242.9 49308.6 39229.7 49309.8 39216.5 49311.3 39203.3 49313.3 39190.2 49315.6 39177.1 49318.3 39164.2 49321.4 39151.3 49324.9 39138.5 49328.7 39125.8 49332.9 39113.2 49337.5 39100.8 49342.4 39088.5 49347.7 39076.3 49353.4 39064.3 49359.4 39052.5 49365.7 39040.8 49372.4 39029.4 49379.4 39018.1 49386.8 39007.1 49394.4 38996.3 49402.4 38985.7 49410.7 38975.3 49419.3 38965.2 49428.2 38955.4 49437.3 38945.8 49446.8 38936.5 49456.5 38927.5 49466.5 38918.8 49476.7 38910.3 49487.2 38902.2 49497.9 38894.4 49508.8 38886.8 49519.9 38879.7 49531.3 38872.8 49542.8 38866.3 49554.6 38860.1 49566.5 38854.3 49578.6 38848.8 49590.8 38843.7 49603.2 38838.9 49615.7 38834.5 49628.3 38830.5 49641.1 38826.9 49653.9 38823.6 49666.8 38820.7 49679.9 38818.2 49692.9 38816.1 49706.1 38814.3 49719.3 38813 49732.5 38812 49745.7 38811.4 49759 38811.2 50210.5 38811.2 50210.5 40436.8 49759 40436.8 49747.1 40436.6 49735.1 40436 49723.2 40435 49711.4 40433.6 49699.5 40431.9 49687.8 40429.7 49676.1 40427.2 49664.6 40424.2 49653.1 40420.9 49641.7 40417.2 49630.5 40413.2 49619.4 40408.7 49608.5 40403.9 49597.7 40398.8 49587.1 40393.3 49576.7 40387.4 49566.5 40381.2 49556.5 40374.7 49546.7 40367.8 49537.1 40360.6 49527.8 40353.1 49518.8 40345.4 49510 40337.3 49501.5 40328.9 49493.3 40320.2 49485.3 40311.3 49477.7 40302.1 49470.3 40292.7 49463.3 40283 49456.6 40273.2 49450.2 40263.1 49444.2 40252.7 49438.5 40242.2 49433.2 40231.5 49428.2 40220.7 49423.6 40209.7 49419.4 40198.5 49415.5 40187.2 49412 40175.8 49408.9 40164.3 49406.1 40152.6 49403.8 40140.9 49401.8 40129.2 49400.2 40117.3 49399 40105.4 49398.2 40093.5 49397.8 40081.6 49397.8 40069.6 49398.2 40057.7 49399 40045.8 49400.2 40033.9 49401.8 40022 49403.8 40010.3 49406.1 39998.6 49408.9 39986.9 49412 39975.4 49415.5 39964 49419.4 39952.7 49423.6 39941.5 49428.2 39930.5 49433.2 39919.7 49438.5 39909 49444.2 39898.5 49450.2 39888.1 49456.6 39878 49463.3 39868.2 49470.3 39858.5 49477.7 39849.1 49485.3 39839.9 49493.3 39831 49501.5 39822.3 49510 39813.9 49518.8 39805.8 49527.8 39798.1 49537.1 39790.6 49546.7 39783.4 49556.5 39776.5 49566.5 39770 49576.7 39763.8 49587.1 39757.9 49597.7 39752.4 49608.5 39747.3 49619.4 39742.5 49630.5 39738 49641.7 39734 49653.1 39730.3 49664.6 39727 49676.1 39724 49687.8 39721.5 49699.5 39719.3 49711.4 39717.6 49723.2 39716.2 49735.1 39715.2 49747.1 39714.6 49759 39714.4 M 55081.3 36271.2 55803.8 36271.2 55803.8 37896.8 55081.3 37896.8 M 55261.9 37174.3 55803.8 37174.3 M 54452.1 37896.8 54452.1 36271.2 M 53549 36271.2 54452.1 37896.8 M 53549 37896.8 53549 36271.2 M 52479.6 36271.2 52118.3 36271.2 M 52479.6 36271.2 52491.4 36271.4 52503.2 36272 52515 36272.9 52526.7 36274.3 52538.4 36276 52550.1 36278.1 52561.6 36280.6 52573.1 36283.5 52584.5 36286.8 52595.7 36290.4 52606.8 36294.4 52617.8 36298.7 52628.7 36303.4 52639.4 36308.4 52649.9 36313.9 52660.2 36319.6 52670.3 36325.7 52680.3 36332.1 52690 36338.8 52699.5 36345.8 52708.7 36353.2 52717.8 36360.8 52726.5 36368.8 52735 36377 52743.2 36385.5 52751.2 36394.2 52758.8 36403.3 52766.2 36412.5 52773.2 36422 52779.9 36431.7 52786.3 36441.7 52792.4 36451.8 52798.1 36462.1 52803.6 36472.6 52808.6 36483.3 52813.3 36494.2 52817.6 36505.2 52821.6 36516.3 52825.2 36527.5 52828.5 36538.9 52831.4 36550.4 52833.9 36561.9 52836 36573.6 52837.7 36585.3 52839.1 36597 52840 36608.8 52840.6 36620.6 52840.8 36632.4 52840.8 37535.6 52840.6 37547.4 52840 37559.2 52839.1 37571 52837.7 37582.7 52836 37594.4 52833.9 37606.1 52831.4 37617.6 52828.5 37629.1 52825.2 37640.5 52821.6 37651.7 52817.6 37662.8 52813.3 37673.8 52808.6 37684.7 52803.6 37695.4 52798.1 37705.9 52792.4 37716.2 52786.3 37726.3 52779.9 37736.3 52773.2 37746 52766.2 37755.5 52758.8 37764.7 52751.2 37773.8 52743.2 37782.5 52735 37791 52726.5 37799.2 52717.8 37807.2 52708.7 37814.8 52699.5 37822.2 52690 37829.2 52680.3 37835.9 52670.3 37842.3 52660.2 37848.4 52649.9 37854.1 52639.4 37859.6 52628.7 37864.6 52617.8 37869.3 52606.8 37873.6 52595.7 37877.6 52584.5 37881.2 52573.1 37884.5 52561.6 37887.4 52550.1 37889.9 52538.4 37892 52526.7 37893.7 52515 37895.1 52503.2 37896 52491.4 37896.6 52479.6 37896.8 52118.3 37896.8 M 51600.2 36090.6 50877.8 36090.6 M 50374.1 36271.2 49832.2 37896.8 49290.3 36271.2 M 49425.8 36677.6 50238.6 36677.6 M 55081.3 33731.2 55803.8 33731.2 55803.8 35356.8 55081.3 35356.8 M 55261.9 34634.3 55803.8 34634.3 M 54452.1 35356.8 54452.1 33731.2 M 53549 33731.2 54452.1 35356.8 M 53549 35356.8 53549 33731.2 M 52479.6 33731.2 52118.3 33731.2 M 52479.6 33731.2 52491.4 33731.4 52503.2 33732 52515 33732.9 52526.7 33734.3 52538.4 33736 52550.1 33738.1 52561.6 33740.6 52573.1 33743.5 52584.5 33746.8 52595.7 33750.4 52606.8 33754.4 52617.8 33758.7 52628.7 33763.4 52639.4 33768.4 52649.9 33773.9 52660.2 33779.6 52670.3 33785.7 52680.3 33792.1 52690 33798.8 52699.5 33805.8 52708.7 33813.2 52717.8 33820.8 52726.5 33828.8 52735 33837 52743.2 33845.5 52751.2 33854.2 52758.8 33863.3 52766.2 33872.5 52773.2 33882 52779.9 33891.7 52786.3 33901.7 52792.4 33911.8 52798.1 33922.1 52803.6 33932.6 52808.6 33943.3 52813.3 33954.2 52817.6 33965.2 52821.6 33976.3 52825.2 33987.5 52828.5 33998.9 52831.4 34010.4 52833.9 34021.9 52836 34033.6 52837.7 34045.3 52839.1 34057 52840 34068.8 52840.6 34080.6 52840.8 34092.4 52840.8 34995.6 52840.6 35007.4 52840 35019.2 52839.1 35031 52837.7 35042.7 52836 35054.4 52833.9 35066.1 52831.4 35077.6 52828.5 35089.1 52825.2 35100.5 52821.6 35111.7 52817.6 35122.8 52813.3 35133.8 52808.6 35144.7 52803.6 35155.4 52798.1 35165.9 52792.4 35176.2 52786.3 35186.3 52779.9 35196.3 52773.2 35206 52766.2 35215.5 52758.8 35224.7 52751.2 35233.8 52743.2 35242.5 52735 35251 52726.5 35259.2 52717.8 35267.2 52708.7 35274.8 52699.5 35282.2 52690 35289.2 52680.3 35295.9 52670.3 35302.3 52660.2 35308.4 52649.9 35314.1 52639.4 35319.6 52628.7 35324.6 52617.8 35329.3 52606.8 35333.6 52595.7 35337.6 52584.5 35341.2 52573.1 35344.5 52561.6 35347.4 52550.1 35349.9 52538.4 35352 52526.7 35353.7 52515 35355.1 52503.2 35356 52491.4 35356.6 52479.6 35356.8 52118.3 35356.8 M 51600.2 33550.6 50877.8 33550.6 M 50210.5 33731.2 50210.5 35356.8 49759 35356.8 49745.7 35356.6 49732.5 35356 49719.3 35355 49706.1 35353.7 49692.9 35351.9 49679.9 35349.8 49666.8 35347.3 49653.9 35344.4 49641.1 35341.1 49628.3 35337.5 49615.7 35333.5 49603.2 35329.1 49590.8 35324.3 49578.6 35319.2 49566.5 35313.7 49554.6 35307.9 49542.8 35301.7 49531.3 35295.2 49519.9 35288.3 49508.8 35281.2 49497.9 35273.6 49487.2 35265.8 49476.7 35257.7 49466.5 35249.2 49456.5 35240.5 49446.8 35231.5 49437.3 35222.2 49428.2 35212.6 49419.3 35202.8 49410.7 35192.7 49402.4 35182.3 49394.4 35171.7 49386.8 35160.9 49379.4 35149.9 49372.4 35138.6 49365.7 35127.2 49359.4 35115.5 49353.4 35103.7 49347.7 35091.7 49342.4 35079.5 49337.5 35067.2 49332.9 35054.8 49328.7 35042.2 49324.9 35029.5 49321.4 35016.7 49318.3 35003.8 49315.6 34990.9 49313.3 34977.8 49311.3 34964.7 49309.8 34951.5 49308.6 34938.3 49307.8 34925.1 49307.4 34911.8 49307.4 34898.6 49307.8 34885.3 49308.6 34872.1 49309.8 34858.9 49311.3 34845.7 49313.3 34832.6 49315.6 34819.5 49318.3 34806.6 49321.4 34793.7 49324.9 34780.9 49328.7 34768.2 49332.9 34755.6 49337.5 34743.2 49342.4 34730.9 49347.7 34718.7 49353.4 34706.7 49359.4 34694.9 49365.7 34683.2 49372.4 34671.8 49379.4 34660.5 49386.8 34649.5 49394.4 34638.7 49402.4 34628.1 49410.7 34617.7 49419.3 34607.6 49428.2 34597.8 49437.3 34588.2 49446.8 34578.9 49456.5 34569.9 49466.5 34561.2 49476.7 34552.7 49487.2 34544.6 49497.9 34536.8 49508.8 34529.2 49519.9 34522.1 49531.3 34515.2 49542.8 34508.7 49554.6 34502.5 49566.5 34496.7 49578.6 34491.2 49590.8 34486.1 49603.2 34481.3 49615.7 34476.9 49628.3 34472.9 49641.1 34469.3 49653.9 34466 49666.8 34463.1 49679.9 34460.6 49692.9 34458.5 49706.1 34456.7 49719.3 34455.4 49732.5 34454.4 49745.7 34453.8 49759 34453.6 M 49759 34453.7 50210.5 34453.7 M 48647.4 34634.3 48195.9 34634.3 M 48195.9 34634.4 48182.6 34634.2 48169.4 34633.6 48156.2 34632.6 48143 34631.3 48129.8 34629.5 48116.8 34627.4 48103.7 34624.9 48090.8 34622 48078 34618.7 48065.2 34615.1 48052.6 34611.1 48040.1 34606.7 48027.7 34601.9 48015.5 34596.8 48003.4 34591.3 47991.5 34585.5 47979.7 34579.3 47968.2 34572.8 47956.8 34565.9 47945.7 34558.8 47934.8 34551.2 47924.1 34543.4 47913.6 34535.3 47903.4 34526.8 47893.4 34518.1 47883.7 34509.1 47874.2 34499.8 47865.1 34490.2 47856.2 34480.4 47847.6 34470.3 47839.3 34459.9 47831.3 34449.3 47823.7 34438.5 47816.3 34427.5 47809.3 34416.2 47802.6 34404.8 47796.3 34393.1 47790.3 34381.3 47784.6 34369.3 47779.3 34357.1 47774.4 34344.8 47769.8 34332.4 47765.6 34319.8 47761.8 34307.1 47758.3 34294.3 47755.2 34281.4 47752.5 34268.5 47750.2 34255.4 47748.2 34242.3 47746.7 34229.1 47745.5 34215.9 47744.7 34202.7 47744.3 34189.4 47744.3 34176.2 47744.7 34162.9 47745.5 34149.7 47746.7 34136.5 47748.2 34123.3 47750.2 34110.2 47752.5 34097.1 47755.2 34084.2 47758.3 34071.3 47761.8 34058.5 47765.6 34045.8 47769.8 34033.2 47774.4 34020.8 47779.3 34008.5 47784.6 33996.3 47790.3 33984.3 47796.3 33972.5 47802.6 33960.8 47809.3 33949.4 47816.3 33938.1 47823.7 33927.1 47831.3 33916.3 47839.3 33905.7 47847.6 33895.3 47856.2 33885.2 47865.1 33875.4 47874.2 33865.8 47883.7 33856.5 47893.4 33847.5 47903.4 33838.8 47913.6 33830.3 47924.1 33822.2 47934.8 33814.4 47945.7 33806.8 47956.8 33799.7 47968.2 33792.8 47979.7 33786.3 47991.5 33780.1 48003.4 33774.3 48015.5 33768.8 48027.7 33763.7 48040.1 33758.9 48052.6 33754.5 48065.2 33750.5 48078 33746.9 48090.8 33743.6 48103.7 33740.7 48116.8 33738.2 48129.8 33736.1 48143 33734.3 48156.2 33733 48169.4 33732 48182.6 33731.4 48195.9 33731.2 48647.4 33731.2 48647.4 35356.8 48195.9 35356.8 48184 35356.6 48172 35356 48160.1 35355 48148.3 35353.6 48136.4 35351.9 48124.7 35349.7 48113 35347.2 48101.5 35344.2 48090 35340.9 48078.6 35337.2 48067.4 35333.2 48056.3 35328.7 48045.4 35323.9 48034.6 35318.8 48024 35313.3 48013.6 35307.4 48003.4 35301.2 47993.4 35294.7 47983.6 35287.8 47974 35280.6 47964.7 35273.1 47955.7 35265.4 47946.9 35257.3 47938.4 35248.9 47930.2 35240.2 47922.2 35231.3 47914.6 35222.1 47907.2 35212.7 47900.2 35203 47893.5 35193.2 47887.1 35183.1 47881.1 35172.7 47875.4 35162.2 47870.1 35151.5 47865.1 35140.7 47860.5 35129.7 47856.3 35118.5 47852.4 35107.2 47848.9 35095.8 47845.8 35084.3 47843 35072.6 47840.7 35060.9 47838.7 35049.2 47837.1 35037.3 47835.9 35025.4 47835.1 35013.5 47834.7 35001.6 47834.7 34989.6 47835.1 34977.7 47835.9 34965.8 47837.1 34953.9 47838.7 34942 47840.7 34930.3 47843 34918.6 47845.8 34906.9 47848.9 34895.4 47852.4 34884 47856.3 34872.7 47860.5 34861.5 47865.1 34850.5 47870.1 34839.7 47875.4 34829 47881.1 34818.5 47887.1 34808.1 47893.5 34798 47900.2 34788.2 47907.2 34778.5 47914.6 34769.1 47922.2 34759.9 47930.2 34751 47938.4 34742.3 47946.9 34733.9 47955.7 34725.8 47964.7 34718.1 47974 34710.6 47983.6 34703.4 47993.4 34696.5 48003.4 34690 48013.6 34683.8 48024 34677.9 48034.6 34672.4 48045.4 34667.3 48056.3 34662.5 48067.4 34658 48078.6 34654 48090 34650.3 48101.5 34647 48113 34644 48124.7 34641.5 48136.4 34639.3 48148.3 34637.6 48160.1 34636.2 48172 34635.2 48184 34634.6 48195.9 34634.4 M 55803.8 32816.8 55803.8 31191.2 M 55803.8 31823.4 54900.7 32816.8 M 55442.6 32184.6 54900.7 31191.2 M 54258.8 31191.2 53536.3 31191.2 M 54258.8 31191.2 54258.8 32816.8 53536.3 32816.8 M 53716.9 32094.3 54258.8 32094.3 M 53049.5 32816.8 52507.6 32049.2 51965.8 32816.8 M 52507.6 32049.2 52507.6 31191.2 M 51462.1 31010.6 50739.6 31010.6 M 49788.3 31191.2 49427 31191.2 M 49788.3 31191.2 49800.1 31191.4 49811.9 31192 49823.7 31192.9 49835.4 31194.3 49847.1 31196 49858.8 31198.1 49870.3 31200.6 49881.8 31203.5 49893.2 31206.8 49904.4 31210.4 49915.5 31214.4 49926.5 31218.7 49937.4 31223.4 49948.1 31228.4 49958.6 31233.9 49968.9 31239.6 49979 31245.7 49989 31252.1 49998.7 31258.8 50008.2 31265.8 50017.4 31273.2 50026.5 31280.8 50035.2 31288.8 50043.7 31297 50051.9 31305.5 50059.9 31314.2 50067.5 31323.3 50074.9 31332.5 50081.9 31342 50088.6 31351.7 50095 31361.7 50101.1 31371.8 50106.8 31382.1 50112.3 31392.6 50117.3 31403.3 50122 31414.2 50126.3 31425.2 50130.3 31436.3 50133.9 31447.5 50137.2 31458.9 50140.1 31470.4 50142.6 31481.9 50144.7 31493.6 50146.4 31505.3 50147.8 31517 50148.7 31528.8 50149.3 31540.6 50149.5 31552.4 50149.5 32455.6 50149.3 32467.4 50148.7 32479.2 50147.8 32491 50146.4 32502.7 50144.7 32514.4 50142.6 32526.1 50140.1 32537.6 50137.2 32549.1 50133.9 32560.5 50130.3 32571.7 50126.3 32582.8 50122 32593.8 50117.3 32604.7 50112.3 32615.4 50106.8 32625.9 50101.1 32636.2 50095 32646.3 50088.6 32656.3 50081.9 32666 50074.9 32675.5 50067.5 32684.7 50059.9 32693.8 50051.9 32702.5 50043.7 32711 50035.2 32719.2 50026.5 32727.2 50017.4 32734.8 50008.2 32742.2 49998.7 32749.2 49989 32755.9 49979 32762.3 49968.9 32768.4 49958.6 32774.1 49948.1 32779.6 49937.4 32784.6 49926.5 32789.3 49915.5 32793.6 49904.4 32797.6 49893.2 32801.2 49881.8 32804.5 49870.3 32807.4 49858.8 32809.9 49847.1 32812 49835.4 32813.7 49823.7 32815.1 49811.9 32816 49800.1 32816.6 49788.3 32816.8 49427 32816.8 M 48843 32455.6 48391.4 32816.8 48391.4 31191.2 M 48843 31191.2 47939.8 31191.2 M 55803.8 30276.8 55803.8 28651.2 M 55803.8 29283.4 54900.7 30276.8 M 55442.6 29644.6 54900.7 28651.2 M 54258.8 28651.2 53536.3 28651.2 M 54258.8 28651.2 54258.8 30276.8 53536.3 30276.8 M 53716.9 29554.3 54258.8 29554.3 M 53049.5 30276.8 52507.6 29509.2 51965.8 30276.8 M 52507.6 29509.2 52507.6 28651.2 M 51462.1 28470.6 50739.6 28470.6 M 49788.3 28651.2 49427 28651.2 M 49788.3 28651.2 49800.1 28651.4 49811.9 28652 49823.7 28652.9 49835.4 28654.3 49847.1 28656 49858.8 28658.1 49870.3 28660.6 49881.8 28663.5 49893.2 28666.8 49904.4 28670.4 49915.5 28674.4 49926.5 28678.7 49937.4 28683.4 49948.1 28688.4 49958.6 28693.9 49968.9 28699.6 49979 28705.7 49989 28712.1 49998.7 28718.8 50008.2 28725.8 50017.4 28733.2 50026.5 28740.8 50035.2 28748.8 50043.7 28757 50051.9 28765.5 50059.9 28774.2 50067.5 28783.3 50074.9 28792.5 50081.9 28802 50088.6 28811.7 50095 28821.7 50101.1 28831.8 50106.8 28842.1 50112.3 28852.6 50117.3 28863.3 50122 28874.2 50126.3 28885.2 50130.3 28896.3 50133.9 28907.5 50137.2 28918.9 50140.1 28930.4 50142.6 28941.9 50144.7 28953.6 50146.4 28965.3 50147.8 28977 50148.7 28988.8 50149.3 29000.6 50149.5 29012.4 50149.5 29915.6 50149.3 29927.4 50148.7 29939.2 50147.8 29951 50146.4 29962.7 50144.7 29974.4 50142.6 29986.1 50140.1 29997.6 50137.2 30009.1 50133.9 30020.5 50130.3 30031.7 50126.3 30042.8 50122 30053.8 50117.3 30064.7 50112.3 30075.4 50106.8 30085.9 50101.1 30096.2 50095 30106.3 50088.6 30116.3 50081.9 30126 50074.9 30135.5 50067.5 30144.7 50059.9 30153.8 50051.9 30162.5 50043.7 30171 50035.2 30179.2 50026.5 30187.2 50017.4 30194.8 50008.2 30202.2 49998.7 30209.2 49989 30215.9 49979 30222.3 49968.9 30228.4 49958.6 30234.1 49948.1 30239.6 49937.4 30244.6 49926.5 30249.3 49915.5 30253.6 49904.4 30257.6 49893.2 30261.2 49881.8 30264.5 49870.3 30267.4 49858.8 30269.9 49847.1 30272 49835.4 30273.7 49823.7 30275.1 49811.9 30276 49800.1 30276.6 49788.3 30276.8 49427 30276.8 M 48346.2 30276.8 48333.7 30276.6 48321.2 30276 48308.7 30275.1 48296.3 30273.7 48283.9 30272 48271.5 30269.9 48259.3 30267.4 48247.1 30264.5 48235 30261.3 48223 30257.7 48211.1 30253.7 48199.4 30249.4 48187.8 30244.7 48176.3 30239.6 48165.1 30234.2 48153.9 30228.4 48143 30222.4 48132.3 30215.9 48121.7 30209.2 48111.4 30202.1 48101.3 30194.7 48091.4 30187 48081.8 30179 48072.4 30170.7 48063.3 30162.2 48054.4 30153.3 48045.9 30144.2 48037.6 30134.8 48029.6 30125.2 48021.9 30115.3 48014.5 30105.2 48007.4 30094.9 48000.7 30084.3 47994.2 30073.6 47988.2 30062.7 47982.4 30051.5 47977 30040.3 47971.9 30028.8 47967.2 30017.2 47962.9 30005.5 47958.9 29993.6 47955.3 29981.6 47952.1 29969.5 47949.2 29957.3 47946.7 29945.1 47944.6 29932.7 47942.9 29920.3 47941.5 29907.9 47940.6 29895.4 47940 29882.9 47939.8 29870.4 M 48346.2 30276.8 48360.5 30276.6 48374.7 30276 48389 30275 48403.2 30273.7 48417.3 30271.9 48431.5 30269.8 48445.5 30267.3 48459.5 30264.4 48473.4 30261.1 48487.2 30257.4 48500.9 30253.4 48514.4 30249 48527.9 30244.2 48541.2 30239 48554.4 30233.5 48567.4 30227.6 48580.2 30221.4 48592.9 30214.8 48605.4 30207.9 48617.7 30200.7 48629.8 30193.1 48641.6 30185.2 48653.3 30176.9 48664.7 30168.4 48675.9 30159.5 48686.8 30150.4 48697.5 30140.9 48708 30131.2 48718.1 30121.1 48728 30110.8 48737.6 30100.3 48746.9 30089.4 48755.9 30078.3 48764.6 30067 48773 30055.5 48781 30043.7 48788.8 30031.7 48796.2 30019.5 48803.2 30007.1 48810 29994.5 48816.3 29981.7 48822.4 29968.8 48828.1 29955.7 48833.4 29942.5 48838.3 29929.1 48842.9 29915.6 M 48075.4 29554.3 48066 29563.5 48057 29572.9 48048.2 29582.6 48039.7 29592.6 48031.5 29602.8 48023.6 29613.3 48016.1 29624 48008.9 29634.9 48002 29646 47995.4 29657.4 47989.2 29668.9 47983.3 29680.6 47977.8 29692.5 47972.7 29704.5 47967.9 29716.7 47963.4 29729 47959.4 29741.4 47955.7 29754 47952.4 29766.7 47949.5 29779.4 47946.9 29792.3 47944.8 29805.2 47943 29818.2 47941.7 29831.2 47940.7 29844.2 47940.1 29857.3 47939.9 29870.4 M 48075.3 29554.3 48843 28651.2 47939.8 28651.2 M 55803.8 27736.8 55803.8 26111.2 M 55803.8 26743.4 54900.7 27736.8 M 55442.6 27104.6 54900.7 26111.2 M 54258.8 26111.2 53536.3 26111.2 M 54258.8 26111.2 54258.8 27736.8 53536.3 27736.8 M 53716.9 27014.3 54258.8 27014.3 M 53049.5 27736.8 52507.6 26969.2 51965.8 27736.8 M 52507.6 26969.2 52507.6 26111.2 M 51462.1 25930.6 50739.6 25930.6 M 49788.3 26111.2 49427 26111.2 M 49788.3 26111.2 49800.1 26111.4 49811.9 26112 49823.7 26112.9 49835.4 26114.3 49847.1 26116 49858.8 26118.1 49870.3 26120.6 49881.8 26123.5 49893.2 26126.8 49904.4 26130.4 49915.5 26134.4 49926.5 26138.7 49937.4 26143.4 49948.1 26148.4 49958.6 26153.9 49968.9 26159.6 49979 26165.7 49989 26172.1 49998.7 26178.8 50008.2 26185.8 50017.4 26193.2 50026.5 26200.8 50035.2 26208.8 50043.7 26217 50051.9 26225.5 50059.9 26234.2 50067.5 26243.3 50074.9 26252.5 50081.9 26262 50088.6 26271.7 50095 26281.7 50101.1 26291.8 50106.8 26302.1 50112.3 26312.6 50117.3 26323.3 50122 26334.2 50126.3 26345.2 50130.3 26356.3 50133.9 26367.5 50137.2 26378.9 50140.1 26390.4 50142.6 26401.9 50144.7 26413.6 50146.4 26425.3 50147.8 26437 50148.7 26448.8 50149.3 26460.6 50149.5 26472.4 50149.5 27375.6 50149.3 27387.4 50148.7 27399.2 50147.8 27411 50146.4 27422.7 50144.7 27434.4 50142.6 27446.1 50140.1 27457.6 50137.2 27469.1 50133.9 27480.5 50130.3 27491.7 50126.3 27502.8 50122 27513.8 50117.3 27524.7 50112.3 27535.4 50106.8 27545.9 50101.1 27556.2 50095 27566.3 50088.6 27576.3 50081.9 27586 50074.9 27595.5 50067.5 27604.7 50059.9 27613.8 50051.9 27622.5 50043.7 27631 50035.2 27639.2 50026.5 27647.2 50017.4 27654.8 50008.2 27662.2 49998.7 27669.2 49989 27675.9 49979 27682.3 49968.9 27688.4 49958.6 27694.1 49948.1 27699.6 49937.4 27704.6 49926.5 27709.3 49915.5 27713.6 49904.4 27717.6 49893.2 27721.2 49881.8 27724.5 49870.3 27727.4 49858.8 27729.9 49847.1 27732 49835.4 27733.7 49823.7 27735.1 49811.9 27736 49800.1 27736.6 49788.3 27736.8 49427 27736.8 M 48843 26111.2 48391.4 26111.2 48378.1 26111.4 48364.9 26112 48351.7 26113 48338.5 26114.3 48325.3 26116.1 48312.3 26118.2 48299.2 26120.7 48286.3 26123.6 48273.5 26126.9 48260.7 26130.5 48248.1 26134.5 48235.6 26138.9 48223.2 26143.7 48211 26148.8 48198.9 26154.3 48187 26160.1 48175.2 26166.3 48163.7 26172.8 48152.3 26179.7 48141.2 26186.8 48130.3 26194.4 48119.6 26202.2 48109.1 26210.3 48098.9 26218.8 48088.9 26227.5 48079.2 26236.5 48069.7 26245.8 48060.6 26255.4 48051.7 26265.2 48043.1 26275.3 48034.8 26285.7 48026.8 26296.3 48019.2 26307.1 48011.8 26318.1 48004.8 26329.4 47998.1 26340.8 47991.8 26352.5 47985.8 26364.3 47980.1 26376.3 47974.8 26388.5 47969.9 26400.8 47965.3 26413.2 47961.1 26425.8 47957.3 26438.5 47953.8 26451.3 47950.7 26464.2 47948 26477.1 47945.7 26490.2 47943.7 26503.3 47942.2 26516.5 47941 26529.7 47940.2 26542.9 47939.8 26556.2 47939.8 26569.4 47940.2 26582.7 47941 26595.9 47942.2 26609.1 47943.7 26622.3 47945.7 26635.4 47948 26648.5 47950.7 26661.4 47953.8 26674.3 47957.3 26687.1 47961.1 26699.8 47965.3 26712.4 47969.9 26724.8 47974.8 26737.1 47980.1 26749.3 47985.8 26761.3 47991.8 26773.1 47998.1 26784.8 48004.8 26796.2 48011.8 26807.5 48019.2 26818.5 48026.8 26829.3 48034.8 26839.9 48043.1 26850.3 48051.7 26860.4 48060.6 26870.2 48069.7 26879.8 48079.2 26889.1 48088.9 26898.1 48098.9 26906.8 48109.1 26915.3 48119.6 26923.4 48130.3 26931.2 48141.2 26938.8 48152.3 26945.9 48163.7 26952.8 48175.2 26959.3 48187 26965.5 48198.9 26971.3 48211 26976.8 48223.2 26981.9 48235.6 26986.7 48248.1 26991.1 48260.7 26995.1 48273.5 26998.7 48286.3 27002 48299.2 27004.9 48312.3 27007.4 48325.3 27009.5 48338.5 27011.3 48351.7 27012.6 48364.9 27013.6 48378.1 27014.2 48391.4 27014.4 M 48301.1 27736.8 48843 27736.8 M 48301.1 27736.8 48289.2 27736.6 48277.2 27736 48265.3 27735 48253.5 27733.6 48241.6 27731.9 48229.9 27729.7 48218.2 27727.2 48206.7 27724.2 48195.2 27720.9 48183.8 27717.2 48172.6 27713.2 48161.5 27708.7 48150.6 27703.9 48139.8 27698.8 48129.2 27693.3 48118.8 27687.4 48108.6 27681.2 48098.6 27674.7 48088.8 27667.8 48079.2 27660.6 48069.9 27653.1 48060.9 27645.4 48052.1 27637.3 48043.6 27628.9 48035.4 27620.2 48027.4 27611.3 48019.8 27602.1 48012.4 27592.7 48005.4 27583 47998.7 27573.2 47992.3 27563.1 47986.3 27552.7 47980.6 27542.2 47975.3 27531.5 47970.3 27520.7 47965.7 27509.7 47961.5 27498.5 47957.6 27487.2 47954.1 27475.8 47951 27464.3 47948.2 27452.6 47945.9 27440.9 47943.9 27429.2 47942.3 27417.3 47941.1 27405.4 47940.3 27393.5 47939.9 27381.6 47939.9 27369.6 47940.3 27357.7 47941.1 27345.8 47942.3 27333.9 47943.9 27322 47945.9 27310.3 47948.2 27298.6 47951 27286.9 47954.1 27275.4 47957.6 27264 47961.5 27252.7 47965.7 27241.5 47970.3 27230.5 47975.3 27219.7 47980.6 27209 47986.3 27198.5 47992.3 27188.1 47998.7 27178 48005.4 27168.2 48012.4 27158.5 48019.8 27149.1 48027.4 27139.9 48035.4 27131 48043.6 27122.3 48052.1 27113.9 48060.9 27105.8 48069.9 27098.1 48079.2 27090.6 48088.8 27083.4 48098.6 27076.5 48108.6 27070 48118.8 27063.8 48129.2 27057.9 48139.8 27052.4 48150.6 27047.3 48161.5 27042.5 48172.6 27038 48183.8 27034 48195.2 27030.3 48206.7 27027 48218.2 27024 48229.9 27021.5 48241.6 27019.3 48253.5 27017.6 48265.3 27016.2 48277.2 27015.2 48289.2 27014.6 48301.1 27014.4 M 48301.1 27014.3 48662.3 27014.3 M 55803.8 25196.8 55803.8 23571.2 M 55803.8 24203.4 54900.7 25196.8 M 55442.6 24564.6 54900.7 23571.2 M 54258.8 23571.2 53536.3 23571.2 M 54258.8 23571.2 54258.8 25196.8 53536.3 25196.8 M 53716.9 24474.3 54258.8 24474.3 M 53049.5 25196.8 52507.6 24429.2 51965.8 25196.8 M 52507.6 24429.2 52507.6 23571.2 M 51462.1 23390.6 50739.6 23390.6 M 49788.3 23571.2 49427 23571.2 M 49788.3 23571.2 49800.1 23571.4 49811.9 23572 49823.7 23572.9 49835.4 23574.3 49847.1 23576 49858.8 23578.1 49870.3 23580.6 49881.8 23583.5 49893.2 23586.8 49904.4 23590.4 49915.5 23594.4 49926.5 23598.7 49937.4 23603.4 49948.1 23608.4 49958.6 23613.9 49968.9 23619.6 49979 23625.7 49989 23632.1 49998.7 23638.8 50008.2 23645.8 50017.4 23653.2 50026.5 23660.8 50035.2 23668.8 50043.7 23677 50051.9 23685.5 50059.9 23694.2 50067.5 23703.3 50074.9 23712.5 50081.9 23722 50088.6 23731.7 50095 23741.7 50101.1 23751.8 50106.8 23762.1 50112.3 23772.6 50117.3 23783.3 50122 23794.2 50126.3 23805.2 50130.3 23816.3 50133.9 23827.5 50137.2 23838.9 50140.1 23850.4 50142.6 23861.9 50144.7 23873.6 50146.4 23885.3 50147.8 23897 50148.7 23908.8 50149.3 23920.6 50149.5 23932.4 50149.5 24835.6 50149.3 24847.4 50148.7 24859.2 50147.8 24871 50146.4 24882.7 50144.7 24894.4 50142.6 24906.1 50140.1 24917.6 50137.2 24929.1 50133.9 24940.5 50130.3 24951.7 50126.3 24962.8 50122 24973.8 50117.3 24984.7 50112.3 24995.4 50106.8 25005.9 50101.1 25016.2 50095 25026.3 50088.6 25036.3 50081.9 25046 50074.9 25055.5 50067.5 25064.7 50059.9 25073.8 50051.9 25082.5 50043.7 25091 50035.2 25099.2 50026.5 25107.2 50017.4 25114.8 50008.2 25122.2 49998.7 25129.2 49989 25135.9 49979 25142.3 49968.9 25148.4 49958.6 25154.1 49948.1 25159.6 49937.4 25164.6 49926.5 25169.3 49915.5 25173.6 49904.4 25177.6 49893.2 25181.2 49881.8 25184.5 49870.3 25187.4 49858.8 25189.9 49847.1 25192 49835.4 25193.7 49823.7 25195.1 49811.9 25196 49800.1 25196.6 49788.3 25196.8 49427 25196.8 M 48481.7 25196.8 48843 23932.4 47939.8 23932.4 M 48210.8 23571.2 48210.8 24293.7 M 55803.8 22656.8 55803.8 21031.2 M 55803.8 21663.4 54900.7 22656.8 M 55442.6 22024.6 54900.7 21031.2 M 54258.8 21031.2 53536.3 21031.2 M 54258.8 21031.2 54258.8 22656.8 53536.3 22656.8 M 53716.9 21934.3 54258.8 21934.3 M 53049.5 22656.8 52507.6 21889.2 51965.8 22656.8 M 52507.6 21889.2 52507.6 21031.2 M 51462.1 20850.6 50739.6 20850.6 M 50084.3 21031.2 50084.3 22656.8 49632.7 22656.8 49619.4 22656.6 49606.2 22656 49593 22655 49579.8 22653.7 49566.6 22651.9 49553.6 22649.8 49540.5 22647.3 49527.6 22644.4 49514.8 22641.1 49502 22637.5 49489.4 22633.5 49476.9 22629.1 49464.5 22624.3 49452.3 22619.2 49440.2 22613.7 49428.3 22607.9 49416.5 22601.7 49405 22595.2 49393.6 22588.3 49382.5 22581.2 49371.6 22573.6 49360.9 22565.8 49350.4 22557.7 49340.2 22549.2 49330.2 22540.5 49320.5 22531.5 49311 22522.2 49301.9 22512.6 49293 22502.8 49284.4 22492.7 49276.1 22482.3 49268.1 22471.7 49260.5 22460.9 49253.1 22449.9 49246.1 22438.6 49239.4 22427.2 49233.1 22415.5 49227.1 22403.7 49221.4 22391.7 49216.1 22379.5 49211.2 22367.2 49206.6 22354.8 49202.4 22342.2 49198.6 22329.5 49195.1 22316.7 49192 22303.8 49189.3 22290.9 49187 22277.8 49185 22264.7 49183.5 22251.5 49182.3 22238.3 49181.5 22225.1 49181.1 22211.8 49181.1 22198.6 49181.5 22185.3 49182.3 22172.1 49183.5 22158.9 49185 22145.7 49187 22132.6 49189.3 22119.5 49192 22106.6 49195.1 22093.7 49198.6 22080.9 49202.4 22068.2 49206.6 22055.6 49211.2 22043.2 49216.1 22030.9 49221.4 22018.7 49227.1 22006.7 49233.1 21994.9 49239.4 21983.2 49246.1 21971.8 49253.1 21960.5 49260.5 21949.5 49268.1 21938.7 49276.1 21928.1 49284.4 21917.7 49293 21907.6 49301.9 21897.8 49311 21888.2 49320.5 21878.9 49330.2 21869.9 49340.2 21861.2 49350.4 21852.7 49360.9 21844.6 49371.6 21836.8 49382.5 21829.2 49393.6 21822.1 49405 21815.2 49416.5 21808.7 49428.3 21802.5 49440.2 21796.7 49452.3 21791.2 49464.5 21786.1 49476.9 21781.3 49489.4 21776.9 49502 21772.9 49514.8 21769.3 49527.6 21766 49540.5 21763.1 49553.6 21760.6 49566.6 21758.5 49579.8 21756.7 49593 21755.4 49606.2 21754.4 49619.4 21753.8 49632.7 21753.6 M 49632.7 21753.7 50084.3 21753.7 M 49542.4 21753.7 49181.2 21031.2 M 48530.3 22295.6 48078.8 22656.8 48078.8 21031.2 M 48530.3 21031.2 47627.2 21031.2 M 55803.8 20116.8 55803.8 18491.2 M 55803.8 19123.4 54900.7 20116.8 M 55442.6 19484.6 54900.7 18491.2 M 54258.8 18491.2 53536.3 18491.2 M 54258.8 18491.2 54258.8 20116.8 53536.3 20116.8 M 53716.9 19394.3 54258.8 19394.3 M 53049.5 20116.8 52507.6 19349.2 51965.8 20116.8 M 52507.6 19349.2 52507.6 18491.2 M 51462.1 18310.6 50739.6 18310.6 M 50084.3 18491.2 50084.3 20116.8 49632.7 20116.8 49619.4 20116.6 49606.2 20116 49593 20115 49579.8 20113.7 49566.6 20111.9 49553.6 20109.8 49540.5 20107.3 49527.6 20104.4 49514.8 20101.1 49502 20097.5 49489.4 20093.5 49476.9 20089.1 49464.5 20084.3 49452.3 20079.2 49440.2 20073.7 49428.3 20067.9 49416.5 20061.7 49405 20055.2 49393.6 20048.3 49382.5 20041.2 49371.6 20033.6 49360.9 20025.8 49350.4 20017.7 49340.2 20009.2 49330.2 20000.5 49320.5 19991.5 49311 19982.2 49301.9 19972.6 49293 19962.8 49284.4 19952.7 49276.1 19942.3 49268.1 19931.7 49260.5 19920.9 49253.1 19909.9 49246.1 19898.6 49239.4 19887.2 49233.1 19875.5 49227.1 19863.7 49221.4 19851.7 49216.1 19839.5 49211.2 19827.2 49206.6 19814.8 49202.4 19802.2 49198.6 19789.5 49195.1 19776.7 49192 19763.8 49189.3 19750.9 49187 19737.8 49185 19724.7 49183.5 19711.5 49182.3 19698.3 49181.5 19685.1 49181.1 19671.8 49181.1 19658.6 49181.5 19645.3 49182.3 19632.1 49183.5 19618.9 49185 19605.7 49187 19592.6 49189.3 19579.5 49192 19566.6 49195.1 19553.7 49198.6 19540.9 49202.4 19528.2 49206.6 19515.6 49211.2 19503.2 49216.1 19490.9 49221.4 19478.7 49227.1 19466.7 49233.1 19454.9 49239.4 19443.2 49246.1 19431.8 49253.1 19420.5 49260.5 19409.5 49268.1 19398.7 49276.1 19388.1 49284.4 19377.7 49293 19367.6 49301.9 19357.8 49311 19348.2 49320.5 19338.9 49330.2 19329.9 49340.2 19321.2 49350.4 19312.7 49360.9 19304.6 49371.6 19296.8 49382.5 19289.2 49393.6 19282.1 49405 19275.2 49416.5 19268.7 49428.3 19262.5 49440.2 19256.7 49452.3 19251.2 49464.5 19246.1 49476.9 19241.3 49489.4 19236.9 49502 19232.9 49514.8 19229.3 49527.6 19226 49540.5 19223.1 49553.6 19220.6 49566.6 19218.5 49579.8 19216.7 49593 19215.4 49606.2 19214.4 49619.4 19213.8 49632.7 19213.6 M 49632.7 19213.7 50084.3 19213.7 M 49542.4 19213.7 49181.2 18491.2 M 47627.2 19710.4 47627.4 19722.9 47628 19735.4 47628.9 19747.9 47630.3 19760.3 47632 19772.7 47634.1 19785.1 47636.6 19797.3 47639.5 19809.5 47642.7 19821.6 47646.3 19833.6 47650.3 19845.5 47654.6 19857.2 47659.3 19868.8 47664.4 19880.3 47669.8 19891.5 47675.6 19902.7 47681.6 19913.6 47688.1 19924.3 47694.8 19934.9 47701.9 19945.2 47709.3 19955.3 47717 19965.2 47725 19974.8 47733.3 19984.2 47741.8 19993.3 47750.7 20002.2 47759.8 20010.7 47769.2 20019 47778.8 20027 47788.7 20034.7 47798.8 20042.1 47809.1 20049.2 47819.7 20055.9 47830.4 20062.4 47841.3 20068.4 47852.5 20074.2 47863.7 20079.6 47875.2 20084.7 47886.8 20089.4 47898.5 20093.7 47910.4 20097.7 47922.4 20101.3 47934.5 20104.5 47946.7 20107.4 47958.9 20109.9 47971.3 20112 47983.7 20113.7 47996.1 20115.1 48008.6 20116 48021.1 20116.6 48033.6 20116.8 48047.9 20116.6 48062.1 20116 48076.4 20115 48090.6 20113.7 48104.7 20111.9 48118.9 20109.8 48132.9 20107.3 48146.9 20104.4 48160.8 20101.1 48174.6 20097.4 48188.3 20093.4 48201.8 20089 48215.3 20084.2 48228.6 20079 48241.8 20073.5 48254.8 20067.6 48267.6 20061.4 48280.3 20054.8 48292.8 20047.9 48305.1 20040.7 48317.2 20033.1 48329 20025.2 48340.7 20016.9 48352.1 20008.4 48363.3 19999.5 48374.2 19990.4 48384.9 19980.9 48395.4 19971.2 48405.5 19961.1 48415.4 19950.8 48425 19940.3 48434.3 19929.4 48443.3 19918.3 48452 19907 48460.4 19895.5 48468.4 19883.7 48476.2 19871.7 48483.6 19859.5 48490.6 19847.1 48497.4 19834.5 48503.7 19821.7 48509.8 19808.8 48515.5 19795.7 48520.8 19782.5 48525.7 19769.1 48530.3 19755.6 M 47762.7 19394.3 47753.3 19403.5 47744.3 19412.9 47735.5 19422.6 47727 19432.6 47718.8 19442.8 47710.9 19453.3 47703.4 19464 47696.2 19474.9 47689.3 19486 47682.7 19497.4 47676.5 19508.9 47670.6 19520.6 47665.1 19532.5 47660 19544.5 47655.2 19556.7 47650.7 19569 47646.7 19581.4 47643 19594 47639.7 19606.7 47636.8 19619.4 47634.2 19632.3 47632.1 19645.2 47630.3 19658.2 47629 19671.2 47628 19684.2 47627.4 19697.3 47627.2 19710.4 M 47762.7 19394.3 48530.3 18491.2 47627.2 18491.2 M 55803.8 17576.8 55803.8 15951.2 M 55803.8 16583.4 54900.7 17576.8 M 55442.6 16944.6 54900.7 15951.2 M 54258.8 15951.2 53536.3 15951.2 M 54258.8 15951.2 54258.8 17576.8 53536.3 17576.8 M 53716.9 16854.3 54258.8 16854.3 M 53049.5 17576.8 52507.6 16809.2 51965.8 17576.8 M 52507.6 16809.2 52507.6 15951.2 M 51462.1 15770.6 50739.6 15770.6 M 50084.3 15951.2 50084.3 17576.8 49632.7 17576.8 49619.4 17576.6 49606.2 17576 49593 17575 49579.8 17573.7 49566.6 17571.9 49553.6 17569.8 49540.5 17567.3 49527.6 17564.4 49514.8 17561.1 49502 17557.5 49489.4 17553.5 49476.9 17549.1 49464.5 17544.3 49452.3 17539.2 49440.2 17533.7 49428.3 17527.9 49416.5 17521.7 49405 17515.2 49393.6 17508.3 49382.5 17501.2 49371.6 17493.6 49360.9 17485.8 49350.4 17477.7 49340.2 17469.2 49330.2 17460.5 49320.5 17451.5 49311 17442.2 49301.9 17432.6 49293 17422.8 49284.4 17412.7 49276.1 17402.3 49268.1 17391.7 49260.5 17380.9 49253.1 17369.9 49246.1 17358.6 49239.4 17347.2 49233.1 17335.5 49227.1 17323.7 49221.4 17311.7 49216.1 17299.5 49211.2 17287.2 49206.6 17274.8 49202.4 17262.2 49198.6 17249.5 49195.1 17236.7 49192 17223.8 49189.3 17210.9 49187 17197.8 49185 17184.7 49183.5 17171.5 49182.3 17158.3 49181.5 17145.1 49181.1 17131.8 49181.1 17118.6 49181.5 17105.3 49182.3 17092.1 49183.5 17078.9 49185 17065.7 49187 17052.6 49189.3 17039.5 49192 17026.6 49195.1 17013.7 49198.6 17000.9 49202.4 16988.2 49206.6 16975.6 49211.2 16963.2 49216.1 16950.9 49221.4 16938.7 49227.1 16926.7 49233.1 16914.9 49239.4 16903.2 49246.1 16891.8 49253.1 16880.5 49260.5 16869.5 49268.1 16858.7 49276.1 16848.1 49284.4 16837.7 49293 16827.6 49301.9 16817.8 49311 16808.2 49320.5 16798.9 49330.2 16789.9 49340.2 16781.2 49350.4 16772.7 49360.9 16764.6 49371.6 16756.8 49382.5 16749.2 49393.6 16742.1 49405 16735.2 49416.5 16728.7 49428.3 16722.5 49440.2 16716.7 49452.3 16711.2 49464.5 16706.1 49476.9 16701.3 49489.4 16696.9 49502 16692.9 49514.8 16689.3 49527.6 16686 49540.5 16683.1 49553.6 16680.6 49566.6 16678.5 49579.8 16676.7 49593 16675.4 49606.2 16674.4 49619.4 16673.8 49632.7 16673.6 M 49632.7 16673.7 50084.3 16673.7 M 49542.4 16673.7 49181.2 15951.2 M 48530.3 15951.2 48078.8 15951.2 48065.5 15951.4 48052.3 15952 48039.1 15953 48025.9 15954.3 48012.7 15956.1 47999.7 15958.2 47986.6 15960.7 47973.7 15963.6 47960.9 15966.9 47948.1 15970.5 47935.5 15974.5 47923 15978.9 47910.6 15983.7 47898.4 15988.8 47886.3 15994.3 47874.4 16000.1 47862.6 16006.3 47851.1 16012.8 47839.7 16019.7 47828.6 16026.8 47817.7 16034.4 47807 16042.2 47796.5 16050.3 47786.3 16058.8 47776.3 16067.5 47766.6 16076.5 47757.1 16085.8 47748 16095.4 47739.1 16105.2 47730.5 16115.3 47722.2 16125.7 47714.2 16136.3 47706.6 16147.1 47699.2 16158.1 47692.2 16169.4 47685.5 16180.8 47679.2 16192.5 47673.2 16204.3 47667.5 16216.3 47662.2 16228.5 47657.3 16240.8 47652.7 16253.2 47648.5 16265.8 47644.7 16278.5 47641.2 16291.3 47638.1 16304.2 47635.4 16317.1 47633.1 16330.2 47631.1 16343.3 47629.6 16356.5 47628.4 16369.7 47627.6 16382.9 47627.2 16396.2 47627.2 16409.4 47627.6 16422.7 47628.4 16435.9 47629.6 16449.1 47631.1 16462.3 47633.1 16475.4 47635.4 16488.5 47638.1 16501.4 47641.2 16514.3 47644.7 16527.1 47648.5 16539.8 47652.7 16552.4 47657.3 16564.8 47662.2 16577.1 47667.5 16589.3 47673.2 16601.3 47679.2 16613.1 47685.5 16624.8 47692.2 16636.2 47699.2 16647.5 47706.6 16658.5 47714.2 16669.3 47722.2 16679.9 47730.5 16690.3 47739.1 16700.4 47748 16710.2 47757.1 16719.8 47766.6 16729.1 47776.3 16738.1 47786.3 16746.8 47796.5 16755.3 47807 16763.4 47817.7 16771.2 47828.6 16778.8 47839.7 16785.9 47851.1 16792.8 47862.6 16799.3 47874.4 16805.5 47886.3 16811.3 47898.4 16816.8 47910.6 16821.9 47923 16826.7 47935.5 16831.1 47948.1 16835.1 47960.9 16838.7 47973.7 16842 47986.6 16844.9 47999.7 16847.4 48012.7 16849.5 48025.9 16851.3 48039.1 16852.6 48052.3 16853.6 48065.5 16854.2 48078.8 16854.4 M 47988.5 17576.8 48530.3 17576.8 M 47988.5 17576.8 47976.6 17576.6 47964.6 17576 47952.7 17575 47940.9 17573.6 47929 17571.9 47917.3 17569.7 47905.6 17567.2 47894.1 17564.2 47882.6 17560.9 47871.2 17557.2 47860 17553.2 47848.9 17548.7 47838 17543.9 47827.2 17538.8 47816.6 17533.3 47806.2 17527.4 47796 17521.2 47786 17514.7 47776.2 17507.8 47766.6 17500.6 47757.3 17493.1 47748.3 17485.4 47739.5 17477.3 47731 17468.9 47722.8 17460.2 47714.8 17451.3 47707.2 17442.1 47699.8 17432.7 47692.8 17423 47686.1 17413.2 47679.7 17403.1 47673.7 17392.7 47668 17382.2 47662.7 17371.5 47657.7 17360.7 47653.1 17349.7 47648.9 17338.5 47645 17327.2 47641.5 17315.8 47638.4 17304.3 47635.6 17292.6 47633.3 17280.9 47631.3 17269.2 47629.7 17257.3 47628.5 17245.4 47627.7 17233.5 47627.3 17221.6 47627.3 17209.6 47627.7 17197.7 47628.5 17185.8 47629.7 17173.9 47631.3 17162 47633.3 17150.3 47635.6 17138.6 47638.4 17126.9 47641.5 17115.4 47645 17104 47648.9 17092.7 47653.1 17081.5 47657.7 17070.5 47662.7 17059.7 47668 17049 47673.7 17038.5 47679.7 17028.1 47686.1 17018 47692.8 17008.2 47699.8 16998.5 47707.2 16989.1 47714.8 16979.9 47722.8 16971 47731 16962.3 47739.5 16953.9 47748.3 16945.8 47757.3 16938.1 47766.6 16930.6 47776.2 16923.4 47786 16916.5 47796 16910 47806.2 16903.8 47816.6 16897.9 47827.2 16892.4 47838 16887.3 47848.9 16882.5 47860 16878 47871.2 16874 47882.6 16870.3 47894.1 16867 47905.6 16864 47917.3 16861.5 47929 16859.3 47940.9 16857.6 47952.7 16856.2 47964.6 16855.2 47976.6 16854.6 47988.5 16854.4 M 47988.5 16854.3 48349.7 16854.3 M 55803.8 15036.8 55803.8 13411.2 M 55803.8 14043.4 54900.7 15036.8 M 55442.6 14404.6 54900.7 13411.2 M 54258.8 13411.2 53536.3 13411.2 M 54258.8 13411.2 54258.8 15036.8 53536.3 15036.8 M 53716.9 14314.3 54258.8 14314.3 M 53049.5 15036.8 52507.6 14269.2 51965.8 15036.8 M 52507.6 14269.2 52507.6 13411.2 M 51462.1 13230.6 50739.6 13230.6 M 50084.3 13411.2 50084.3 15036.8 49632.7 15036.8 49619.4 15036.6 49606.2 15036 49593 15035 49579.8 15033.7 49566.6 15031.9 49553.6 15029.8 49540.5 15027.3 49527.6 15024.4 49514.8 15021.1 49502 15017.5 49489.4 15013.5 49476.9 15009.1 49464.5 15004.3 49452.3 14999.2 49440.2 14993.7 49428.3 14987.9 49416.5 14981.7 49405 14975.2 49393.6 14968.3 49382.5 14961.2 49371.6 14953.6 49360.9 14945.8 49350.4 14937.7 49340.2 14929.2 49330.2 14920.5 49320.5 14911.5 49311 14902.2 49301.9 14892.6 49293 14882.8 49284.4 14872.7 49276.1 14862.3 49268.1 14851.7 49260.5 14840.9 49253.1 14829.9 49246.1 14818.6 49239.4 14807.2 49233.1 14795.5 49227.1 14783.7 49221.4 14771.7 49216.1 14759.5 49211.2 14747.2 49206.6 14734.8 49202.4 14722.2 49198.6 14709.5 49195.1 14696.7 49192 14683.8 49189.3 14670.9 49187 14657.8 49185 14644.7 49183.5 14631.5 49182.3 14618.3 49181.5 14605.1 49181.1 14591.8 49181.1 14578.6 49181.5 14565.3 49182.3 14552.1 49183.5 14538.9 49185 14525.7 49187 14512.6 49189.3 14499.5 49192 14486.6 49195.1 14473.7 49198.6 14460.9 49202.4 14448.2 49206.6 14435.6 49211.2 14423.2 49216.1 14410.9 49221.4 14398.7 49227.1 14386.7 49233.1 14374.9 49239.4 14363.2 49246.1 14351.8 49253.1 14340.5 49260.5 14329.5 49268.1 14318.7 49276.1 14308.1 49284.4 14297.7 49293 14287.6 49301.9 14277.8 49311 14268.2 49320.5 14258.9 49330.2 14249.9 49340.2 14241.2 49350.4 14232.7 49360.9 14224.6 49371.6 14216.8 49382.5 14209.2 49393.6 14202.1 49405 14195.2 49416.5 14188.7 49428.3 14182.5 49440.2 14176.7 49452.3 14171.2 49464.5 14166.1 49476.9 14161.3 49489.4 14156.9 49502 14152.9 49514.8 14149.3 49527.6 14146 49540.5 14143.1 49553.6 14140.6 49566.6 14138.5 49579.8 14136.7 49593 14135.4 49606.2 14134.4 49619.4 14133.8 49632.7 14133.6 M 49632.7 14133.7 50084.3 14133.7 M 49542.4 14133.7 49181.2 13411.2 M 48530.3 13772.4 48169.1 15036.8 M 48530.3 13772.4 47627.2 13772.4 M 47898.2 13411.2 47898.2 14133.7 M 54720.1 11503.4 55803.8 11503.4 M 55261.9 12045.2 55261.9 10961.5 M 54046.2 10871.2 53504.3 10871.2 53492.5 10871.4 53480.7 10872 53468.9 10872.9 53457.2 10874.3 53445.5 10876 53433.8 10878.1 53422.3 10880.6 53410.8 10883.5 53399.4 10886.8 53388.2 10890.4 53377.1 10894.4 53366.1 10898.7 53355.2 10903.4 53344.5 10908.4 53334 10913.9 53323.7 10919.6 53313.6 10925.7 53303.6 10932.1 53293.9 10938.8 53284.4 10945.8 53275.2 10953.2 53266.1 10960.8 53257.4 10968.8 53248.9 10977 53240.7 10985.5 53232.7 10994.2 53225.1 11003.3 53217.7 11012.5 53210.7 11022 53204 11031.7 53197.6 11041.7 53191.5 11051.8 53185.8 11062.1 53180.3 11072.6 53175.3 11083.3 53170.6 11094.2 53166.3 11105.2 53162.3 11116.3 53158.7 11127.5 53155.4 11138.9 53152.5 11150.4 53150 11161.9 53147.9 11173.6 53146.2 11185.3 53144.8 11197 53143.9 11208.8 53143.3 11220.6 53143.1 11232.4 53143.1 11413.1 53143.3 11424.9 53143.9 11436.7 53144.8 11448.5 53146.2 11460.2 53147.9 11471.9 53150 11483.6 53152.5 11495.1 53155.4 11506.6 53158.7 11518 53162.3 11529.2 53166.3 11540.3 53170.6 11551.3 53175.3 11562.2 53180.3 11572.9 53185.8 11583.4 53191.5 11593.7 53197.6 11603.8 53204 11613.8 53210.7 11623.5 53217.7 11633 53225.1 11642.2 53232.7 11651.3 53240.7 11660 53248.9 11668.5 53257.4 11676.7 53266.1 11684.7 53275.2 11692.3 53284.4 11699.7 53293.9 11706.7 53303.6 11713.4 53313.6 11719.8 53323.7 11725.9 53334 11731.6 53344.5 11737.1 53355.2 11742.1 53366.1 11746.8 53377.1 11751.1 53388.2 11755.1 53399.4 11758.7 53410.8 11762 53422.3 11764.9 53433.8 11767.4 53445.5 11769.5 53457.2 11771.2 53468.9 11772.6 53480.7 11773.5 53492.5 11774.1 53504.3 11774.3 54046.2 11774.3 54046.2 12496.8 53143.1 12496.8 M 52573.3 12496.8 52031.5 10871.2 51489.6 12496.8 M 54900.7 9234.3 55171.6 9234.3 M 54900.7 9234.3 54900.7 8331.2 55442.6 8331.2 55454.4 8331.4 55466.2 8332 55478 8332.9 55489.7 8334.3 55501.4 8336 55513.1 8338.1 55524.6 8340.6 55536.1 8343.5 55547.5 8346.8 55558.7 8350.4 55569.8 8354.4 55580.8 8358.7 55591.7 8363.4 55602.4 8368.4 55612.9 8373.9 55623.2 8379.6 55633.3 8385.7 55643.3 8392.1 55653 8398.8 55662.5 8405.8 55671.7 8413.2 55680.8 8420.8 55689.5 8428.8 55698 8437 55706.2 8445.5 55714.2 8454.2 55721.8 8463.3 55729.2 8472.5 55736.2 8482 55742.9 8491.7 55749.3 8501.7 55755.4 8511.8 55761.1 8522.1 55766.6 8532.6 55771.6 8543.3 55776.3 8554.2 55780.6 8565.2 55784.6 8576.3 55788.2 8587.5 55791.5 8598.9 55794.4 8610.4 55796.9 8621.9 55799 8633.6 55800.7 8645.3 55802.1 8657 55803 8668.8 55803.6 8680.6 55803.8 8692.4 55803.8 9595.6 55803.6 9607.4 55803 9619.2 55802.1 9631 55800.7 9642.7 55799 9654.4 55796.9 9666.1 55794.4 9677.6 55791.5 9689.1 55788.2 9700.5 55784.6 9711.7 55780.6 9722.8 55776.3 9733.8 55771.6 9744.7 55766.6 9755.4 55761.1 9765.9 55755.4 9776.2 55749.3 9786.3 55742.9 9796.3 55736.2 9806 55729.2 9815.5 55721.8 9824.7 55714.2 9833.8 55706.2 9842.5 55698 9851 55689.5 9859.2 55680.8 9867.2 55671.7 9874.8 55662.5 9882.2 55653 9889.2 55643.3 9895.9 55633.3 9902.3 55623.2 9908.4 55612.9 9914.1 55602.4 9919.6 55591.7 9924.6 55580.8 9929.3 55569.8 9933.6 55558.7 9937.6 55547.5 9941.2 55536.1 9944.5 55524.6 9947.4 55513.1 9949.9 55501.4 9952 55489.7 9953.7 55478 9955.1 55466.2 9956 55454.4 9956.6 55442.6 9956.8 54900.7 9956.8 M 54136.5 9956.8 54136.5 8331.2 M 53233.4 8331.2 54136.5 9956.8 M 53233.4 9956.8 53233.4 8331.2 M 52469.1 8331.2 52469.1 9956.8 52017.6 9956.8 52004.5 9956.6 51991.3 9956 51978.2 9955.1 51965.2 9953.7 51952.1 9952 51939.2 9949.9 51926.3 9947.5 51913.5 9944.6 51900.7 9941.4 51888.1 9937.8 51875.6 9933.9 51863.1 9929.6 51850.9 9924.9 51838.7 9919.9 51826.7 9914.5 51814.9 9908.8 51803.3 9902.7 51791.8 9896.3 51780.5 9889.6 51769.4 9882.5 51758.6 9875.1 51747.9 9867.4 51737.5 9859.4 51727.3 9851.1 51717.4 9842.6 51707.7 9833.7 51698.3 9824.5 51689.1 9815.1 51680.2 9805.4 51671.7 9795.5 51663.4 9785.3 51655.4 9774.9 51647.7 9764.2 51640.3 9753.4 51633.2 9742.3 51626.5 9731 51620.1 9719.5 51614 9707.9 51608.3 9696.1 51602.9 9684.1 51597.9 9671.9 51593.2 9659.7 51588.9 9647.2 51585 9634.7 51581.4 9622.1 51578.2 9609.3 51575.3 9596.5 51572.9 9583.6 51570.8 9570.7 51569.1 9557.6 51567.7 9544.6 51566.8 9531.5 51566.2 9518.3 51566 9505.2 51566 8782.8 51566.2 8769.7 51566.8 8756.5 51567.7 8743.4 51569.1 8730.4 51570.8 8717.3 51572.9 8704.4 51575.3 8691.5 51578.2 8678.7 51581.4 8665.9 51585 8653.3 51588.9 8640.8 51593.2 8628.3 51597.9 8616.1 51602.9 8603.9 51608.3 8591.9 51614 8580.1 51620.1 8568.5 51626.5 8557 51633.2 8545.7 51640.3 8534.6 51647.7 8523.8 51655.4 8513.1 51663.4 8502.7 51671.7 8492.5 51680.2 8482.6 51689.1 8472.9 51698.3 8463.5 51707.7 8454.3 51717.4 8445.4 51727.3 8436.9 51737.5 8428.6 51747.9 8420.6 51758.6 8412.9 51769.4 8405.5 51780.5 8398.4 51791.8 8391.7 51803.3 8385.3 51814.9 8379.2 51826.7 8373.5 51838.7 8368.1 51850.9 8363.1 51863.1 8358.4 51875.6 8354.1 51888.1 8350.2 51900.7 8346.6 51913.5 8343.4 51926.3 8340.5 51939.2 8338.1 51952.1 8336 51965.2 8334.3 51978.2 8332.9 51991.3 8332 52004.5 8331.4 52017.6 8331.2 52469.1 8331.2 M 55803.8 7416.8 55803.8 5791.2 M 54900.7 5791.2 55803.8 7416.8 M 54900.7 7416.8 54900.7 5791.2 M 53831.3 5791.2 53470 5791.2 M 53831.3 5791.2 53843.1 5791.4 53854.9 5792 53866.7 5792.9 53878.4 5794.3 53890.1 5796 53901.8 5798.1 53913.3 5800.6 53924.8 5803.5 53936.2 5806.8 53947.4 5810.4 53958.5 5814.4 53969.5 5818.7 53980.4 5823.4 53991.1 5828.4 54001.6 5833.9 54011.9 5839.6 54022 5845.7 54032 5852.1 54041.7 5858.8 54051.2 5865.8 54060.4 5873.2 54069.5 5880.8 54078.2 5888.8 54086.7 5897 54094.9 5905.5 54102.9 5914.2 54110.5 5923.3 54117.9 5932.5 54124.9 5942 54131.6 5951.7 54138 5961.7 54144.1 5971.8 54149.8 5982.1 54155.3 5992.6 54160.3 6003.3 54165 6014.2 54169.3 6025.2 54173.3 6036.3 54176.9 6047.5 54180.2 6058.9 54183.1 6070.4 54185.6 6081.9 54187.7 6093.6 54189.4 6105.3 54190.8 6117 54191.7 6128.8 54192.3 6140.6 54192.5 6152.4 54192.5 7055.6 54192.3 7067.4 54191.7 7079.2 54190.8 7091 54189.4 7102.7 54187.7 7114.4 54185.6 7126.1 54183.1 7137.6 54180.2 7149.1 54176.9 7160.5 54173.3 7171.7 54169.3 7182.8 54165 7193.8 54160.3 7204.7 54155.3 7215.4 54149.8 7225.9 54144.1 7236.2 54138 7246.3 54131.6 7256.3 54124.9 7266 54117.9 7275.5 54110.5 7284.7 54102.9 7293.8 54094.9 7302.5 54086.7 7311 54078.2 7319.2 54069.5 7327.2 54060.4 7334.8 54051.2 7342.2 54041.7 7349.2 54032 7355.9 54022 7362.3 54011.9 7368.4 54001.6 7374.1 53991.1 7379.6 53980.4 7384.6 53969.5 7389.3 53958.5 7393.6 53947.4 7397.6 53936.2 7401.2 53924.8 7404.5 53913.3 7407.4 53901.8 7409.9 53890.1 7412 53878.4 7413.7 53866.7 7415.1 53854.9 7416 53843.1 7416.6 53831.3 7416.8 53470 7416.8" fill="none" stroke-width="152.4"/><path d="M 70053.2 8813.8 70053.2 9982.2 69728.6 9982.2 69717.3 9982 69706 9981.4 69694.7 9980.4 69683.4 9979 69672.2 9977.3 69661.1 9975.1 69650.1 9972.6 69639.1 9969.6 69628.3 9966.3 69617.6 9962.6 69607 9958.6 69596.6 9954.1 69586.3 9949.3 69576.2 9944.2 69566.3 9938.7 69556.6 9932.9 69547.1 9926.7 69537.8 9920.2 69528.8 9913.4 69520 9906.3 69511.4 9898.8 69503.1 9891.1 69495.1 9883.1 69487.4 9874.8 69479.9 9866.2 69472.8 9857.4 69466 9848.4 69459.5 9839.1 69453.3 9829.6 69447.5 9819.9 69442 9810 69436.9 9799.9 69432.1 9789.6 69427.6 9779.2 69423.6 9768.6 69419.9 9757.9 69416.6 9747.1 69413.6 9736.1 69411.1 9725.1 69408.9 9714 69407.2 9702.8 69405.8 9691.5 69404.8 9680.2 69404.2 9668.9 69404 9657.6 69404.2 9646.3 69404.8 9635 69405.8 9623.7 69407.2 9612.4 69408.9 9601.2 69411.1 9590.1 69413.6 9579.1 69416.6 9568.1 69419.9 9557.3 69423.6 9546.6 69427.6 9536 69432.1 9525.6 69436.9 9515.3 69442 9505.2 69447.5 9495.3 69453.3 9485.6 69459.5 9476.1 69466 9466.8 69472.8 9457.8 69479.9 9449 69487.4 9440.4 69495.1 9432.1 69503.1 9424.1 69511.4 9416.4 69520 9408.9 69528.8 9401.8 69537.8 9395 69547.1 9388.5 69556.6 9382.3 69566.3 9376.5 69576.2 9371 69586.3 9365.9 69596.6 9361.1 69607 9356.6 69617.6 9352.6 69628.3 9348.9 69639.1 9345.6 69650.1 9342.6 69661.1 9340.1 69672.2 9337.9 69683.4 9336.2 69694.7 9334.8 69706 9333.8 69717.3 9333.2 69728.6 9333 M 69728.6 9333.1 70053.2 9333.1 M 69663.7 9333.1 69404.1 8813.8 M 68917.6 9722.6 68593 9982.2 68593 8813.8 M 68268.5 8813.8 68917.6 8813.8 M 68783.2 20243.8 68783.2 21412.2 68458.6 21412.2 68447.3 21412 68436 21411.4 68424.7 21410.4 68413.4 21409 68402.2 21407.3 68391.1 21405.1 68380.1 21402.6 68369.1 21399.6 68358.3 21396.3 68347.6 21392.6 68337 21388.6 68326.6 21384.1 68316.3 21379.3 68306.2 21374.2 68296.3 21368.7 68286.6 21362.9 68277.1 21356.7 68267.8 21350.2 68258.8 21343.4 68250 21336.3 68241.4 21328.8 68233.1 21321.1 68225.1 21313.1 68217.4 21304.8 68209.9 21296.2 68202.8 21287.4 68196 21278.4 68189.5 21269.1 68183.3 21259.6 68177.5 21249.9 68172 21240 68166.9 21229.9 68162.1 21219.6 68157.6 21209.2 68153.6 21198.6 68149.9 21187.9 68146.6 21177.1 68143.6 21166.1 68141.1 21155.1 68138.9 21144 68137.2 21132.8 68135.8 21121.5 68134.8 21110.2 68134.2 21098.9 68134 21087.6 68134.2 21076.3 68134.8 21065 68135.8 21053.7 68137.2 21042.4 68138.9 21031.2 68141.1 21020.1 68143.6 21009.1 68146.6 20998.1 68149.9 20987.3 68153.6 20976.6 68157.6 20966 68162.1 20955.6 68166.9 20945.3 68172 20935.2 68177.5 20925.3 68183.3 20915.6 68189.5 20906.1 68196 20896.8 68202.8 20887.8 68209.9 20879 68217.4 20870.4 68225.1 20862.1 68233.1 20854.1 68241.4 20846.4 68250 20838.9 68258.8 20831.8 68267.8 20825 68277.1 20818.5 68286.6 20812.3 68296.3 20806.5 68306.2 20801 68316.3 20795.9 68326.6 20791.1 68337 20786.6 68347.6 20782.6 68358.3 20778.9 68369.1 20775.6 68380.1 20772.6 68391.1 20770.1 68402.2 20767.9 68413.4 20766.2 68424.7 20764.8 68436 20763.8 68447.3 20763.2 68458.6 20763 M 68458.6 20763.1 68783.2 20763.1 M 68393.7 20763.1 68134.1 20243.8 M 66998.5 21120.1 66998.7 21130.8 66999.3 21141.4 67000.3 21152 67001.6 21162.6 67003.4 21173.2 67005.5 21183.6 67008 21194 67010.9 21204.3 67014.1 21214.4 67017.8 21224.4 67021.8 21234.3 67026.1 21244.1 67030.8 21253.7 67035.9 21263.1 67041.3 21272.3 67047 21281.3 67053 21290.1 67059.4 21298.6 67066.1 21306.9 67073.1 21315 67080.3 21322.8 67087.9 21330.4 67095.7 21337.6 67103.8 21344.6 67112.1 21351.3 67120.6 21357.7 67129.4 21363.7 67138.4 21369.4 67147.6 21374.8 67157 21379.9 67166.6 21384.6 67176.4 21388.9 67186.3 21392.9 67196.3 21396.6 67206.4 21399.8 67216.7 21402.7 67227.1 21405.2 67237.5 21407.3 67248.1 21409.1 67258.7 21410.4 67269.3 21411.4 67279.9 21412 67290.6 21412.2 67302.7 21412 67314.8 21411.4 67326.8 21410.4 67338.9 21409.1 67350.8 21407.3 67362.8 21405.2 67374.6 21402.7 67386.3 21399.8 67398 21396.5 67409.5 21392.9 67420.9 21388.8 67432.2 21384.5 67443.4 21379.7 67454.3 21374.6 67465.1 21369.1 67475.8 21363.3 67486.2 21357.2 67496.4 21350.7 67506.4 21343.9 67516.2 21336.8 67525.8 21329.4 67535.1 21321.7 67544.1 21313.6 67552.9 21305.3 67561.4 21296.7 67569.7 21287.8 67577.6 21278.7 67585.3 21269.3 67592.6 21259.7 67599.6 21249.9 67606.3 21239.8 67612.7 21229.5 67618.8 21219 67624.5 21208.3 67629.8 21197.5 67634.8 21186.5 67639.4 21175.3 67643.7 21164 67647.6 21152.5 M 67095.9 20892.9 67088 20900.7 67080.4 20908.7 67073.1 20917 67066.1 20925.6 67059.4 20934.3 67053 20943.4 67047 20952.6 67041.2 20962 67035.8 20971.7 67030.8 20981.5 67026.1 20991.5 67021.7 21001.6 67017.7 21011.9 67014.1 21022.4 67010.9 21032.9 67008 21043.6 67005.5 21054.3 67003.3 21065.2 67001.6 21076.1 67000.2 21087 66999.3 21098 66998.7 21109.1 66998.5 21120.1 M 67095.8 20892.9 67647.6 20243.8 66998.5 20243.8 M 87071.2 20370.8 87071.2 21539.2 86746.6 21539.2 86735.3 21539 86724 21538.4 86712.7 21537.4 86701.4 21536 86690.2 21534.3 86679.1 21532.1 86668.1 21529.6 86657.1 21526.6 86646.3 21523.3 86635.6 21519.6 86625 21515.6 86614.6 21511.1 86604.3 21506.3 86594.2 21501.2 86584.3 21495.7 86574.6 21489.9 86565.1 21483.7 86555.8 21477.2 86546.8 21470.4 86538 21463.3 86529.4 21455.8 86521.1 21448.1 86513.1 21440.1 86505.4 21431.8 86497.9 21423.2 86490.8 21414.4 86484 21405.4 86477.5 21396.1 86471.3 21386.6 86465.5 21376.9 86460 21367 86454.9 21356.9 86450.1 21346.6 86445.6 21336.2 86441.6 21325.6 86437.9 21314.9 86434.6 21304.1 86431.6 21293.1 86429.1 21282.1 86426.9 21271 86425.2 21259.8 86423.8 21248.5 86422.8 21237.2 86422.2 21225.9 86422 21214.6 86422.2 21203.3 86422.8 21192 86423.8 21180.7 86425.2 21169.4 86426.9 21158.2 86429.1 21147.1 86431.6 21136.1 86434.6 21125.1 86437.9 21114.3 86441.6 21103.6 86445.6 21093 86450.1 21082.6 86454.9 21072.3 86460 21062.2 86465.5 21052.3 86471.3 21042.6 86477.5 21033.1 86484 21023.8 86490.8 21014.8 86497.9 21006 86505.4 20997.4 86513.1 20989.1 86521.1 20981.1 86529.4 20973.4 86538 20965.9 86546.8 20958.8 86555.8 20952 86565.1 20945.5 86574.6 20939.3 86584.3 20933.5 86594.2 20928 86604.3 20922.9 86614.6 20918.1 86625 20913.6 86635.6 20909.6 86646.3 20905.9 86657.1 20902.6 86668.1 20899.6 86679.1 20897.1 86690.2 20894.9 86701.4 20893.2 86712.7 20891.8 86724 20890.8 86735.3 20890.2 86746.6 20890 M 86746.6 20890.1 87071.2 20890.1 M 86681.7 20890.1 86422.1 20370.8 M 85935.6 20370.8 85611 20370.8 85599.7 20371 85588.4 20371.6 85577.1 20372.6 85565.8 20374 85554.6 20375.7 85543.5 20377.9 85532.5 20380.4 85521.5 20383.4 85510.7 20386.7 85500 20390.4 85489.4 20394.4 85479 20398.9 85468.7 20403.7 85458.6 20408.8 85448.7 20414.3 85439 20420.1 85429.5 20426.3 85420.2 20432.8 85411.2 20439.6 85402.4 20446.7 85393.8 20454.2 85385.5 20461.9 85377.5 20469.9 85369.8 20478.2 85362.3 20486.8 85355.2 20495.6 85348.4 20504.6 85341.9 20513.9 85335.7 20523.4 85329.9 20533.1 85324.4 20543 85319.3 20553.1 85314.5 20563.4 85310 20573.8 85306 20584.4 85302.3 20595.1 85299 20605.9 85296 20616.9 85293.5 20627.9 85291.3 20639 85289.6 20650.2 85288.2 20661.5 85287.2 20672.8 85286.6 20684.1 85286.4 20695.4 85286.6 20706.7 85287.2 20718 85288.2 20729.3 85289.6 20740.6 85291.3 20751.8 85293.5 20762.9 85296 20773.9 85299 20784.9 85302.3 20795.7 85306 20806.4 85310 20817 85314.5 20827.4 85319.3 20837.7 85324.4 20847.8 85329.9 20857.7 85335.7 20867.4 85341.9 20876.9 85348.4 20886.2 85355.2 20895.2 85362.3 20904 85369.8 20912.6 85377.5 20920.9 85385.5 20928.9 85393.8 20936.6 85402.4 20944.1 85411.2 20951.2 85420.2 20958 85429.5 20964.5 85439 20970.7 85448.7 20976.5 85458.6 20982 85468.7 20987.1 85479 20991.9 85489.4 20996.4 85500 21000.4 85510.7 21004.1 85521.5 21007.4 85532.5 21010.4 85543.5 21012.9 85554.6 21015.1 85565.8 21016.8 85577.1 21018.2 85588.4 21019.2 85599.7 21019.8 85611 21020 M 85546.1 21539.2 85935.6 21539.2 M 85546.1 21539.2 85536 21539 85526 21538.4 85516 21537.4 85506 21536.1 85496.1 21534.3 85486.2 21532.2 85476.5 21529.7 85466.8 21526.8 85457.3 21523.5 85447.9 21519.9 85438.7 21515.9 85429.6 21511.6 85420.7 21506.9 85412 21501.9 85403.4 21496.5 85395.1 21490.8 85387.1 21484.8 85379.2 21478.5 85371.6 21471.8 85364.3 21464.9 85357.3 21457.7 85350.5 21450.3 85344 21442.6 85337.9 21434.6 85332 21426.4 85326.5 21418 85321.3 21409.4 85316.4 21400.6 85311.9 21391.6 85307.7 21382.4 85303.9 21373.1 85300.5 21363.6 85297.4 21354.1 85294.7 21344.4 85292.4 21334.6 85290.4 21324.7 85288.9 21314.7 85287.7 21304.7 85286.9 21294.7 85286.5 21284.6 85286.5 21274.6 85286.9 21264.5 85287.7 21254.5 85288.9 21244.5 85290.4 21234.5 85292.4 21224.6 85294.7 21214.8 85297.4 21205.1 85300.5 21195.6 85303.9 21186.1 85307.7 21176.8 85311.9 21167.6 85316.4 21158.6 85321.3 21149.8 85326.5 21141.2 85332 21132.8 85337.9 21124.6 85344 21116.6 85350.5 21108.9 85357.3 21101.5 85364.3 21094.3 85371.6 21087.4 85379.2 21080.7 85387.1 21074.4 85395.1 21068.4 85403.4 21062.7 85412 21057.3 85420.7 21052.3 85429.6 21047.6 85438.7 21043.3 85447.9 21039.3 85457.3 21035.7 85466.8 21032.4 85476.5 21029.5 85486.2 21027 85496.1 21024.9 85506 21023.1 85516 21021.8 85526 21020.8 85536 21020.2 85546.1 21020 M 85546.1 21019.9 85805.7 21019.9 M 85528.5 10109.2 85528.5 8940.8 M 85528.5 10109.2 85204 10109.2 85192.7 10109 85181.4 10108.4 85170.1 10107.4 85158.8 10106 85147.6 10104.3 85136.5 10102.1 85125.5 10099.6 85114.5 10096.6 85103.7 10093.3 85093 10089.6 85082.4 10085.6 85072 10081.1 85061.7 10076.3 85051.6 10071.2 85041.7 10065.7 85032 10059.9 85022.5 10053.7 85013.2 10047.2 85004.2 10040.4 84995.4 10033.3 84986.8 10025.8 84978.5 10018.1 84970.5 10010.1 84962.8 10001.8 84955.3 9993.2 84948.2 9984.4 84941.4 9975.4 84934.9 9966.1 84928.7 9956.6 84922.9 9946.9 84917.4 9937 84912.3 9926.9 84907.5 9916.6 84903 9906.2 84899 9895.6 84895.3 9884.9 84892 9874.1 84889 9863.1 84886.5 9852.1 84884.3 9841 84882.6 9829.8 84881.2 9818.5 84880.2 9807.2 84879.6 9795.9 84879.4 9784.6 84879.6 9773.3 84880.2 9762 84881.2 9750.7 84882.6 9739.4 84884.3 9728.2 84886.5 9717.1 84889 9706.1 84892 9695.1 84895.3 9684.3 84899 9673.6 84903 9663 84907.5 9652.6 84912.3 9642.3 84917.4 9632.2 84922.9 9622.3 84928.7 9612.6 84934.9 9603.1 84941.4 9593.8 84948.2 9584.8 84955.3 9576 84962.8 9567.4 84970.5 9559.1 84978.5 9551.1 84986.8 9543.4 84995.4 9535.9 85004.2 9528.8 85013.2 9522 85022.5 9515.5 85032 9509.3 85041.7 9503.5 85051.6 9498 85061.7 9492.9 85072 9488.1 85082.4 9483.6 85093 9479.6 85103.7 9475.9 85114.5 9472.6 85125.5 9469.6 85136.5 9467.1 85147.6 9464.9 85158.8 9463.2 85170.1 9461.8 85181.4 9460.8 85192.7 9460.2 85204 9460 M 85204 9460.1 85528.5 9460.1 M 85139.1 9460.1 84879.4 8940.8 M 84392.9 9200.4 84133.3 10109.2 M 84392.9 9200.4 83743.8 9200.4 M 83938.5 9460.1 83938.5 8940.8 M 74548.1 8813.8 74288.4 8813.8 M 74548.1 8813.8 74558 8814 74568 8814.6 74577.9 8815.5 74587.7 8816.8 74597.5 8818.5 74607.3 8820.6 74616.9 8823.1 74626.4 8825.9 74635.8 8829.1 74645.1 8832.6 74654.3 8836.5 74663.3 8840.8 74672.1 8845.3 74680.8 8850.3 74689.2 8855.5 74697.5 8861.1 74705.5 8866.9 74713.3 8873.1 74720.8 8879.6 74728.1 8886.4 74735.1 8893.4 74741.9 8900.7 74748.4 8908.2 74754.6 8916 74760.4 8924 74766 8932.3 74771.2 8940.7 74776.2 8949.4 74780.7 8958.2 74785 8967.2 74788.9 8976.4 74792.4 8985.7 74795.6 8995.1 74798.4 9004.6 74800.9 9014.2 74803 9024 74804.7 9033.8 74806 9043.6 74806.9 9053.5 74807.5 9063.5 74807.7 9073.4 74807.7 9722.6 74807.5 9732.5 74806.9 9742.5 74806 9752.4 74804.7 9762.2 74803 9772 74800.9 9781.8 74798.4 9791.4 74795.6 9800.9 74792.4 9810.3 74788.9 9819.6 74785 9828.8 74780.7 9837.8 74776.2 9846.6 74771.2 9855.3 74766 9863.7 74760.4 9872 74754.6 9880 74748.4 9887.8 74741.9 9895.3 74735.1 9902.6 74728.1 9909.6 74720.8 9916.4 74713.3 9922.9 74705.5 9929.1 74697.5 9934.9 74689.2 9940.5 74680.8 9945.7 74672.1 9950.7 74663.3 9955.2 74654.3 9959.5 74645.1 9963.4 74635.8 9966.9 74626.4 9970.1 74616.9 9972.9 74607.3 9975.4 74597.5 9977.5 74587.7 9979.2 74577.9 9980.5 74568 9981.4 74558 9982 74548.1 9982.2 74288.4 9982.2 M 73851.9 9722.6 73527.4 9982.2 73527.4 8813.8 M 73851.9 8813.8 73202.8 8813.8 M 79693.9 9067.8 79953.6 9067.8 79963.5 9068 79973.5 9068.6 79983.4 9069.5 79993.2 9070.8 80003 9072.5 80012.8 9074.6 80022.4 9077.1 80031.9 9079.9 80041.3 9083.1 80050.6 9086.6 80059.8 9090.5 80068.8 9094.8 80077.6 9099.3 80086.3 9104.3 80094.7 9109.5 80103 9115.1 80111 9120.9 80118.8 9127.1 80126.3 9133.6 80133.6 9140.4 80140.6 9147.4 80147.4 9154.7 80153.9 9162.2 80160.1 9170 80165.9 9178 80171.5 9186.3 80176.7 9194.7 80181.7 9203.4 80186.2 9212.2 80190.5 9221.2 80194.4 9230.4 80197.9 9239.7 80201.1 9249.1 80203.9 9258.6 80206.4 9268.2 80208.5 9278 80210.2 9287.8 80211.5 9297.6 80212.4 9307.5 80213 9317.5 80213.2 9327.4 80213.2 9976.6 80213 9986.5 80212.4 9996.5 80211.5 10006.4 80210.2 10016.2 80208.5 10026 80206.4 10035.8 80203.9 10045.4 80201.1 10054.9 80197.9 10064.3 80194.4 10073.6 80190.5 10082.8 80186.2 10091.8 80181.7 10100.6 80176.7 10109.3 80171.5 10117.7 80165.9 10126 80160.1 10134 80153.9 10141.8 80147.4 10149.3 80140.6 10156.6 80133.6 10163.6 80126.3 10170.4 80118.8 10176.9 80111 10183.1 80103 10188.9 80094.7 10194.5 80086.3 10199.7 80077.6 10204.7 80068.8 10209.2 80059.8 10213.5 80050.6 10217.4 80041.3 10220.9 80031.9 10224.1 80022.4 10226.9 80012.8 10229.4 80003 10231.5 79993.2 10233.2 79983.4 10234.5 79973.5 10235.4 79963.5 10236 79953.6 10236.2 79693.9 10236.2 M 78900.4 10236.2 78889.7 10236 78879.1 10235.4 78868.5 10234.4 78857.9 10233.1 78847.3 10231.3 78836.9 10229.2 78826.5 10226.7 78816.2 10223.8 78806.1 10220.6 78796.1 10216.9 78786.2 10212.9 78776.4 10208.6 78766.8 10203.9 78757.4 10198.8 78748.2 10193.4 78739.2 10187.7 78730.4 10181.7 78721.9 10175.3 78713.6 10168.6 78705.5 10161.6 78697.7 10154.4 78690.1 10146.8 78682.9 10139 78675.9 10130.9 78669.2 10122.6 78662.8 10114.1 78656.8 10105.3 78651.1 10096.3 78645.7 10087.1 78640.6 10077.7 78635.9 10068.1 78631.6 10058.3 78627.6 10048.4 78623.9 10038.4 78620.7 10028.3 78617.8 10018 78615.3 10007.6 78613.2 9997.2 78611.4 9986.6 78610.1 9976 78609.1 9965.4 78608.5 9954.8 78608.3 9944.1 M 78900.4 10236.2 78912.5 10236 78924.6 10235.4 78936.6 10234.4 78948.7 10233.1 78960.6 10231.3 78972.6 10229.2 78984.4 10226.7 78996.1 10223.8 79007.8 10220.5 79019.3 10216.9 79030.7 10212.8 79042 10208.5 79053.2 10203.7 79064.1 10198.6 79074.9 10193.1 79085.6 10187.3 79096 10181.2 79106.2 10174.7 79116.2 10167.9 79126 10160.8 79135.6 10153.4 79144.9 10145.7 79153.9 10137.6 79162.7 10129.3 79171.2 10120.7 79179.5 10111.8 79187.4 10102.7 79195.1 10093.3 79202.4 10083.7 79209.4 10073.9 79216.1 10063.8 79222.5 10053.5 79228.6 10043 79234.3 10032.3 79239.6 10021.5 79244.6 10010.5 79249.2 9999.3 79253.5 9988 79257.4 9976.5 M 78705.7 9716.9 78697.8 9724.7 78690.2 9732.7 78682.9 9741 78675.9 9749.6 78669.2 9758.3 78662.8 9767.4 78656.8 9776.6 78651 9786 78645.6 9795.7 78640.6 9805.5 78635.9 9815.5 78631.5 9825.6 78627.5 9835.9 78623.9 9846.4 78620.7 9856.9 78617.8 9867.6 78615.3 9878.3 78613.1 9889.2 78611.4 9900.1 78610 9911 78609.1 9922 78608.5 9933.1 78608.3 9944.1 M 78705.6 9716.9 79257.4 9067.8 78608.3 9067.8" fill="none" stroke-width="101.6"/><path d="M 0 0 88000 0 88000 46000 0 46000 0 0 M 8190 10956.3 8182.4 10869.4 8167.2 10783.4 8144.6 10699 8114.8 10617 8077.9 10537.8 8034.2 10462.2 7984.1 10390.7 7928 10323.8 7866.2 10262 7799.3 10205.9 7727.8 10155.8 7652.2 10112.1 7573 10075.2 7491 10045.4 7406.6 10022.8 7320.7 10007.6 7233.7 10000 7146.3 10000 7059.4 10007.6 6973.4 10022.8 6889 10045.4 6807 10075.2 6727.8 10112.1 6652.2 10155.8 6580.7 10205.9 6513.8 10262 6452 10323.8 6395.9 10390.7 6345.8 10462.2 6302.1 10537.8 6265.2 10617 6235.4 10699 6212.8 10783.4 6197.6 10869.4 6190 10956.3 6190 11043.7 6197.6 11130.7 6212.8 11216.6 6235.4 11301 6265.2 11383 6302.1 11462.2 6345.8 11537.8 6395.9 11609.3 6452 11676.2 6513.8 11738 6580.7 11794.1 6652.2 11844.2 6727.8 11887.9 6807 11924.8 6889 11954.6 6973.4 11977.2 7059.4 11992.4 7146.3 12000 7233.7 12000 7320.7 11992.4 7406.6 11977.2 7491 11954.6 7573 11924.8 7652.2 11887.9 7727.8 11844.2 7799.3 11794.1 7866.2 11738 7928 11676.2 7984.1 11609.3 8034.2 11537.8 8077.9 11462.2 8114.8 11383 8144.6 11301 8167.2 11216.6 8182.4 11130.7 8190 11043.7 8190 10956.3 M 8190 34956.3 8182.4 34869.4 8167.2 34783.4 8144.6 34699 8114.8 34617 8077.9 34537.8 8034.2 34462.2 7984.1 34390.7 7928 34323.8 7866.2 34262 7799.3 34205.9 7727.8 34155.8 7652.2 34112.1 7573 34075.2 7491 34045.4 7406.6 34022.8 7320.7 34007.6 7233.7 34000 7146.3 34000 7059.4 34007.6 6973.4 34022.8 6889 34045.4 6807 34075.2 6727.8 34112.1 6652.2 34155.8 6580.7 34205.9 6513.8 34262 6452 34323.8 6395.9 34390.7 6345.8 34462.2 6302.1 34537.8 6265.2 34617 6235.4 34699 6212.8 34783.4 6197.6 34869.4 6190 34956.3 6190 35043.7 6197.6 35130.7 6212.8 35216.6 6235.4 35301 6265.2 35383 6302.1 35462.2 6345.8 35537.8 6395.9 35609.3 6452 35676.2 6513.8 35738 6580.7 35794.1 6652.2 35844.2 6727.8 35887.9 6807 35924.8 6889 35954.6 6973.4 35977.2 7059.4 35992.4 7146.3 36000 7233.7 36000 7320.7 35992.4 7406.6 35977.2 7491 35954.6 7573 35924.8 7652.2 35887.9 7727.8 35844.2 7799.3 35794.1 7866.2 35738 7928 35676.2 7984.1 35609.3 8034.2 35537.8 8077.9 35462.2 8114.8 35383 8144.6 35301 8167.2 35216.6 8182.4 35130.7 8190 35043.7 8190 34956.3 M 85190 36956.3 85182.4 36869.4 85167.2 36783.4 85144.6 36699 85114.8 36617 85077.9 36537.8 85034.2 36462.2 84984.1 36390.7 84928 36323.8 84866.2 36262 84799.3 36205.9 84727.8 36155.8 84652.2 36112.1 84573 36075.2 84491 36045.4 84406.6 36022.8 84320.7 36007.6 84233.7 36000 84146.3 36000 84059.4 36007.6 83973.4 36022.8 83889 36045.4 83807 36075.2 83727.8 36112.1 83652.2 36155.8 83580.7 36205.9 83513.8 36262 83452 36323.8 83395.9 36390.7 83345.8 36462.2 83302.1 36537.8 83265.2 36617 83235.4 36699 83212.8 36783.4 83197.6 36869.4 83190 36956.3 83190 37043.7 83197.6 37130.7 83212.8 37216.6 83235.4 37301 83265.2 37383 83302.1 37462.2 83345.8 37537.8 83395.9 37609.3 83452 37676.2 83513.8 37738 83580.7 37794.1 83652.2 37844.2 83727.8 37887.9 83807 37924.8 83889 37954.6 83973.4 37977.2 84059.4 37992.4 84146.3 38000 84233.7 38000 84320.7 37992.4 84406.6 37977.2 84491 37954.6 84573 37924.8 84652.2 37887.9 84727.8 37844.2 84799.3 37794.1 84866.2 37738 84928 37676.2 84984.1 37609.3 85034.2 37537.8 85077.9 37462.2 85114.8 37383 85144.6 37301 85167.2 37216.6 85182.4 37130.7 85190 37043.7 85190 36956.3 M 85190 6956.3 85182.4 6869.4 85167.2 6783.4 85144.6 6699 85114.8 6617 85077.9 6537.8 85034.2 6462.2 84984.1 6390.7 84928 6323.8 84866.2 6262 84799.3 6205.9 84727.8 6155.8 84652.2 6112.1 84573 6075.2 84491 6045.4 84406.6 6022.8 84320.7 6007.6 84233.7 6000 84146.3 6000 84059.4 6007.6 83973.4 6022.8 83889 6045.4 83807 6075.2 83727.8 6112.1 83652.2 6155.8 83580.7 6205.9 83513.8 6262 83452 6323.8 83395.9 6390.7 83345.8 6462.2 83302.1 6537.8 83265.2 6617 83235.4 6699 83212.8 6783.4 83197.6 6869.4 83190 6956.3 83190 7043.7 83197.6 7130.7 83212.8 7216.6 83235.4 7301 83265.2 7383 83302.1 7462.2 83345.8 7537.8 83395.9 7609.3 83452 7676.2 83513.8 7738 83580.7 7794.1 83652.2 7844.2 83727.8 7887.9 83807 7924.8 83889 7954.6 83973.4 7977.2 84059.4 7992.4 84146.3 8000 84233.7 8000 84320.7 7992.4 84406.6 7977.2 84491 7954.6 84573 7924.8 84652.2 7887.9 84727.8 7844.2 84799.3 7794.1 84866.2 7738 84928 7676.2 84984.1 7609.3 85034.2 7537.8 85077.9 7462.2 85114.8 7383 85144.6 7301 85167.2 7216.6 85182.4 7130.7 85190 7043.7 85190 6956.3" fill="none" stroke-width="254"/></g></svg>