G04 EAGLE Gerber RS-274X export*
G75*
%MOMM*%
%FSLAX34Y34*%
%LPD*%
%INTop Copper*%
%IPPOS*%
%AMOC8*
5,1,8,0,0,1.08239X$1,22.5*%
G01*
G04 Define Apertures*
%ADD10C,0.228600*%
%ADD11R,1.903700X0.601500*%
%ADD12C,1.524000*%
%ADD13R,0.800000X0.800000*%
%ADD14R,1.500000X1.300000*%
%ADD15C,3.500000*%
%ADD16C,0.609600*%
%ADD17C,0.254000*%
G36*
X399535Y60D02*
X399238Y0D01*
X762Y0D01*
X487Y51D01*
X232Y215D01*
X60Y465D01*
X0Y762D01*
X0Y399238D01*
X51Y399513D01*
X215Y399768D01*
X465Y399940D01*
X762Y400000D01*
X399238Y400000D01*
X399513Y399949D01*
X399768Y399785D01*
X399940Y399535D01*
X400000Y399238D01*
X400000Y762D01*
X399949Y487D01*
X399785Y232D01*
X399535Y60D01*
G37*
%LPC*%
G36*
X362016Y350000D02*
X367984Y350000D01*
X373497Y352284D01*
X377716Y356503D01*
X380000Y362016D01*
X380000Y367984D01*
X377716Y373497D01*
X373497Y377716D01*
X367984Y380000D01*
X362016Y380000D01*
X356503Y377716D01*
X352284Y373497D01*
X350000Y367984D01*
X350000Y362016D01*
X352284Y356503D01*
X356503Y352284D01*
X362016Y350000D01*
G37*
G36*
X32016Y350000D02*
X37984Y350000D01*
X43497Y352284D01*
X47716Y356503D01*
X50000Y362016D01*
X50000Y367984D01*
X47716Y373497D01*
X43497Y377716D01*
X37984Y380000D01*
X32016Y380000D01*
X26503Y377716D01*
X22284Y373497D01*
X20000Y367984D01*
X20000Y362016D01*
X22284Y356503D01*
X26503Y352284D01*
X32016Y350000D01*
G37*
G36*
X201898Y44252D02*
X293403Y44252D01*
X295809Y45249D01*
X315551Y64991D01*
X316548Y67398D01*
X316548Y82183D01*
X316604Y82469D01*
X316771Y82721D01*
X316961Y82911D01*
X317192Y83069D01*
X317488Y83135D01*
X317786Y83079D01*
X318039Y82911D01*
X319550Y81400D01*
X330450Y81400D01*
X331179Y82129D01*
X331420Y82292D01*
X331717Y82352D01*
X339003Y82352D01*
X341409Y83349D01*
X361151Y103091D01*
X362148Y105498D01*
X362148Y106738D01*
X362199Y107013D01*
X362363Y107268D01*
X362613Y107440D01*
X362910Y107500D01*
X364550Y107500D01*
X366600Y109550D01*
X366600Y125450D01*
X364910Y127140D01*
X364752Y127371D01*
X364687Y127667D01*
X364742Y127965D01*
X364910Y128218D01*
X365640Y128948D01*
X365640Y135738D01*
X345560Y135738D01*
X345560Y128948D01*
X346290Y128218D01*
X346448Y127987D01*
X346513Y127691D01*
X346458Y127393D01*
X346290Y127140D01*
X344600Y125450D01*
X344600Y109550D01*
X346306Y107844D01*
X346464Y107614D01*
X346529Y107317D01*
X346474Y107019D01*
X346306Y106766D01*
X335211Y95671D01*
X334969Y95508D01*
X334672Y95448D01*
X331717Y95448D01*
X331431Y95504D01*
X331179Y95671D01*
X330450Y96400D01*
X319550Y96400D01*
X318039Y94889D01*
X317808Y94731D01*
X317512Y94665D01*
X317214Y94721D01*
X316961Y94889D01*
X315450Y96400D01*
X304550Y96400D01*
X302500Y94350D01*
X302500Y83450D01*
X303229Y82721D01*
X303392Y82480D01*
X303452Y82183D01*
X303452Y71728D01*
X303396Y71442D01*
X303229Y71189D01*
X289611Y57571D01*
X289369Y57408D01*
X289072Y57348D01*
X206228Y57348D01*
X205942Y57404D01*
X205689Y57571D01*
X193769Y69491D01*
X193607Y69733D01*
X193546Y70030D01*
X193546Y84160D01*
X193591Y84418D01*
X193748Y84677D01*
X193994Y84855D01*
X194290Y84922D01*
X194589Y84869D01*
X194843Y84704D01*
X195012Y84452D01*
X198097Y77004D01*
X204004Y71097D01*
X211723Y67900D01*
X220077Y67900D01*
X227796Y71097D01*
X233703Y77004D01*
X236900Y84723D01*
X236900Y93077D01*
X233703Y100796D01*
X227796Y106703D01*
X222918Y108723D01*
X222680Y108880D01*
X222508Y109130D01*
X222448Y109427D01*
X222448Y145354D01*
X221451Y147760D01*
X186560Y182651D01*
X186407Y182871D01*
X186338Y183166D01*
X186388Y183465D01*
X186552Y183720D01*
X186802Y183892D01*
X187099Y183952D01*
X187472Y183952D01*
X187758Y183896D01*
X188011Y183729D01*
X224891Y146849D01*
X227298Y145852D01*
X280703Y145852D01*
X283109Y146849D01*
X315551Y179291D01*
X316548Y181698D01*
X316548Y196483D01*
X316604Y196769D01*
X316771Y197021D01*
X316961Y197211D01*
X317192Y197369D01*
X317488Y197435D01*
X317786Y197379D01*
X318039Y197211D01*
X319550Y195700D01*
X330450Y195700D01*
X331179Y196429D01*
X331420Y196592D01*
X331717Y196652D01*
X334672Y196652D01*
X334958Y196596D01*
X335211Y196429D01*
X344377Y187263D01*
X344540Y187021D01*
X344600Y186724D01*
X344600Y171550D01*
X346290Y169860D01*
X346448Y169630D01*
X346513Y169333D01*
X346458Y169035D01*
X346290Y168782D01*
X345560Y168052D01*
X345560Y161262D01*
X365640Y161262D01*
X365640Y168052D01*
X364910Y168782D01*
X364752Y169013D01*
X364687Y169309D01*
X364742Y169607D01*
X364910Y169860D01*
X366600Y171550D01*
X366600Y187450D01*
X364550Y189500D01*
X360976Y189500D01*
X360690Y189556D01*
X360437Y189723D01*
X341409Y208751D01*
X339003Y209748D01*
X331717Y209748D01*
X331431Y209804D01*
X331179Y209971D01*
X330450Y210700D01*
X319550Y210700D01*
X318039Y209189D01*
X317808Y209031D01*
X317512Y208965D01*
X317214Y209021D01*
X316961Y209189D01*
X315450Y210700D01*
X304550Y210700D01*
X302500Y208650D01*
X302500Y197750D01*
X303229Y197021D01*
X303392Y196780D01*
X303452Y196483D01*
X303452Y186028D01*
X303396Y185742D01*
X303229Y185489D01*
X276911Y159171D01*
X276669Y159008D01*
X276372Y158948D01*
X231628Y158948D01*
X231342Y159004D01*
X231089Y159171D01*
X208179Y182081D01*
X208029Y182295D01*
X207957Y182589D01*
X208005Y182889D01*
X208167Y183146D01*
X208415Y183319D01*
X208712Y183382D01*
X209010Y183324D01*
X211723Y182200D01*
X220077Y182200D01*
X227796Y185397D01*
X233703Y191304D01*
X236900Y199023D01*
X236900Y207377D01*
X233703Y215096D01*
X227796Y221003D01*
X220077Y224200D01*
X213991Y224200D01*
X213728Y224247D01*
X213469Y224406D01*
X213294Y224654D01*
X213229Y224950D01*
X213285Y225248D01*
X213452Y225501D01*
X222480Y234529D01*
X222722Y234692D01*
X223019Y234752D01*
X280703Y234752D01*
X283109Y235749D01*
X315551Y268191D01*
X316548Y270598D01*
X316548Y300783D01*
X316604Y301069D01*
X316771Y301321D01*
X316961Y301511D01*
X317192Y301669D01*
X317488Y301735D01*
X317786Y301679D01*
X318039Y301511D01*
X319550Y300000D01*
X322924Y300000D01*
X323210Y299944D01*
X323463Y299777D01*
X335739Y287501D01*
X335892Y287281D01*
X335962Y286986D01*
X335911Y286687D01*
X335747Y286432D01*
X335497Y286260D01*
X335200Y286200D01*
X333950Y286200D01*
X331900Y284150D01*
X331900Y268250D01*
X333590Y266560D01*
X333748Y266330D01*
X333813Y266033D01*
X333758Y265735D01*
X333590Y265482D01*
X332860Y264752D01*
X332860Y257962D01*
X352940Y257962D01*
X352940Y264752D01*
X352210Y265482D01*
X352052Y265713D01*
X351987Y266009D01*
X352042Y266307D01*
X352210Y266560D01*
X353900Y268250D01*
X353900Y284150D01*
X351850Y286200D01*
X350210Y286200D01*
X349935Y286251D01*
X349680Y286415D01*
X349508Y286665D01*
X349448Y286962D01*
X349448Y290903D01*
X348451Y293309D01*
X332723Y309037D01*
X332560Y309279D01*
X332500Y309576D01*
X332500Y312950D01*
X330450Y315000D01*
X319550Y315000D01*
X318039Y313489D01*
X317808Y313331D01*
X317512Y313265D01*
X317214Y313321D01*
X316961Y313489D01*
X315450Y315000D01*
X304550Y315000D01*
X302500Y312950D01*
X302500Y302050D01*
X303229Y301321D01*
X303392Y301080D01*
X303452Y300783D01*
X303452Y274928D01*
X303396Y274642D01*
X303229Y274389D01*
X276911Y248071D01*
X276669Y247908D01*
X276372Y247848D01*
X221719Y247848D01*
X221455Y247895D01*
X221197Y248054D01*
X221022Y248302D01*
X220957Y248598D01*
X221012Y248896D01*
X221180Y249149D01*
X221451Y249420D01*
X222448Y251827D01*
X222448Y296973D01*
X222501Y297253D01*
X222667Y297507D01*
X222918Y297677D01*
X227796Y299697D01*
X233703Y305604D01*
X236900Y313323D01*
X236900Y321677D01*
X233703Y329396D01*
X227796Y335303D01*
X220077Y338500D01*
X211723Y338500D01*
X204004Y335303D01*
X198097Y329396D01*
X194900Y321677D01*
X194900Y313323D01*
X198097Y305604D01*
X204004Y299697D01*
X208882Y297677D01*
X209120Y297520D01*
X209292Y297270D01*
X209352Y296973D01*
X209352Y256157D01*
X209296Y255871D01*
X209129Y255618D01*
X188882Y235371D01*
X188640Y235208D01*
X188343Y235148D01*
X182748Y235148D01*
X182485Y235195D01*
X182227Y235354D01*
X182051Y235602D01*
X181986Y235898D01*
X182042Y236196D01*
X182209Y236449D01*
X183351Y237591D01*
X184348Y239998D01*
X184348Y327172D01*
X184404Y327458D01*
X184571Y327711D01*
X205689Y348829D01*
X205931Y348992D01*
X206228Y349052D01*
X289072Y349052D01*
X289358Y348996D01*
X289611Y348829D01*
X303229Y335211D01*
X303392Y334969D01*
X303452Y334672D01*
X303452Y334217D01*
X303396Y333931D01*
X303229Y333679D01*
X302500Y332950D01*
X302500Y322050D01*
X304550Y320000D01*
X315450Y320000D01*
X316961Y321511D01*
X317192Y321669D01*
X317488Y321735D01*
X317786Y321679D01*
X318039Y321511D01*
X319550Y320000D01*
X330450Y320000D01*
X331179Y320729D01*
X331420Y320892D01*
X331717Y320952D01*
X342572Y320952D01*
X342858Y320896D01*
X343111Y320729D01*
X374229Y289611D01*
X374392Y289369D01*
X374452Y289072D01*
X374452Y286962D01*
X374401Y286687D01*
X374237Y286432D01*
X373987Y286260D01*
X373690Y286200D01*
X372050Y286200D01*
X370000Y284150D01*
X370000Y268250D01*
X371690Y266560D01*
X371848Y266330D01*
X371913Y266033D01*
X371858Y265735D01*
X371690Y265482D01*
X370960Y264752D01*
X370960Y257962D01*
X391040Y257962D01*
X391040Y264752D01*
X390310Y265482D01*
X390152Y265713D01*
X390087Y266009D01*
X390142Y266307D01*
X390310Y266560D01*
X392000Y268250D01*
X392000Y284150D01*
X389950Y286200D01*
X388310Y286200D01*
X388035Y286251D01*
X387780Y286415D01*
X387608Y286665D01*
X387548Y286962D01*
X387548Y293403D01*
X386551Y295809D01*
X349309Y333051D01*
X346903Y334048D01*
X331717Y334048D01*
X331431Y334104D01*
X331179Y334271D01*
X330450Y335000D01*
X319550Y335000D01*
X318039Y333489D01*
X317808Y333331D01*
X317512Y333265D01*
X317214Y333321D01*
X316961Y333489D01*
X316771Y333679D01*
X316608Y333920D01*
X316548Y334217D01*
X316548Y339003D01*
X315551Y341409D01*
X295809Y361151D01*
X293403Y362148D01*
X201898Y362148D01*
X199491Y361151D01*
X172249Y333909D01*
X171252Y331503D01*
X171252Y273970D01*
X171201Y273695D01*
X171037Y273439D01*
X170787Y273268D01*
X170490Y273208D01*
X167675Y273208D01*
X167400Y273259D01*
X167145Y273422D01*
X166973Y273672D01*
X166913Y273970D01*
X166913Y293403D01*
X165916Y295809D01*
X164074Y297651D01*
X161668Y298648D01*
X42514Y298648D01*
X42228Y298704D01*
X41975Y298871D01*
X39319Y301527D01*
X35232Y303220D01*
X15568Y303220D01*
X11481Y301527D01*
X8353Y298399D01*
X6660Y294312D01*
X6660Y289888D01*
X8353Y285801D01*
X11481Y282673D01*
X15568Y280980D01*
X35232Y280980D01*
X39319Y282673D01*
X41975Y285329D01*
X42216Y285492D01*
X42514Y285552D01*
X94290Y285552D01*
X94565Y285501D01*
X94820Y285337D01*
X94992Y285087D01*
X95052Y284790D01*
X95052Y218928D01*
X94996Y218642D01*
X94829Y218389D01*
X86411Y209971D01*
X86169Y209808D01*
X85872Y209748D01*
X80041Y209748D01*
X79777Y209795D01*
X79519Y209954D01*
X79344Y210202D01*
X79279Y210498D01*
X79334Y210796D01*
X79502Y211049D01*
X80294Y211840D01*
X80294Y215138D01*
X56177Y215138D01*
X56177Y211840D01*
X57249Y210768D01*
X57407Y210537D01*
X57472Y210241D01*
X57417Y209943D01*
X57249Y209690D01*
X55217Y207657D01*
X55217Y198743D01*
X55610Y198349D01*
X55763Y198129D01*
X55833Y197834D01*
X55782Y197535D01*
X55619Y197280D01*
X55369Y197108D01*
X55072Y197048D01*
X42514Y197048D01*
X42228Y197104D01*
X41975Y197271D01*
X39319Y199927D01*
X35232Y201620D01*
X15568Y201620D01*
X11481Y199927D01*
X8353Y196799D01*
X6660Y192712D01*
X6660Y188288D01*
X8353Y184201D01*
X11481Y181073D01*
X15568Y179380D01*
X35232Y179380D01*
X39319Y181073D01*
X41975Y183729D01*
X42216Y183892D01*
X42514Y183952D01*
X45852Y183952D01*
X46115Y183905D01*
X46373Y183746D01*
X46549Y183498D01*
X46614Y183202D01*
X46558Y182904D01*
X46391Y182651D01*
X38935Y175195D01*
X38699Y175035D01*
X38402Y174972D01*
X38105Y175030D01*
X35232Y176220D01*
X15568Y176220D01*
X11481Y174527D01*
X8353Y171399D01*
X6660Y167312D01*
X6660Y162888D01*
X8353Y158801D01*
X11481Y155673D01*
X15568Y153980D01*
X35232Y153980D01*
X39319Y155673D01*
X42447Y158801D01*
X43369Y161027D01*
X43534Y161274D01*
X53289Y171029D01*
X53531Y171192D01*
X53828Y171252D01*
X56429Y171252D01*
X56693Y171205D01*
X56951Y171046D01*
X57126Y170798D01*
X57191Y170502D01*
X57136Y170204D01*
X56968Y169951D01*
X56177Y169160D01*
X56177Y165862D01*
X80294Y165862D01*
X80294Y169160D01*
X79221Y170232D01*
X79063Y170463D01*
X78998Y170759D01*
X79053Y171057D01*
X79221Y171310D01*
X81254Y173343D01*
X81254Y182257D01*
X79900Y183611D01*
X79742Y183842D01*
X79676Y184138D01*
X79732Y184436D01*
X79900Y184689D01*
X81254Y186043D01*
X81254Y194957D01*
X80860Y195351D01*
X80707Y195571D01*
X80637Y195866D01*
X80688Y196165D01*
X80851Y196420D01*
X81101Y196592D01*
X81398Y196652D01*
X90203Y196652D01*
X92609Y197649D01*
X107151Y212191D01*
X108148Y214598D01*
X108148Y284790D01*
X108199Y285065D01*
X108363Y285320D01*
X108613Y285492D01*
X108910Y285552D01*
X153055Y285552D01*
X153330Y285501D01*
X153585Y285337D01*
X153757Y285087D01*
X153817Y284790D01*
X153817Y273970D01*
X153766Y273695D01*
X153602Y273439D01*
X153352Y273268D01*
X153055Y273208D01*
X149397Y273208D01*
X147347Y271157D01*
X147347Y262243D01*
X148700Y260889D01*
X148858Y260658D01*
X148924Y260362D01*
X148868Y260064D01*
X148700Y259811D01*
X147347Y258457D01*
X147347Y249543D01*
X148700Y248189D01*
X148858Y247958D01*
X148924Y247662D01*
X148868Y247364D01*
X148700Y247111D01*
X147347Y245757D01*
X147347Y236843D01*
X148700Y235489D01*
X148858Y235258D01*
X148924Y234962D01*
X148868Y234664D01*
X148700Y234411D01*
X147347Y233057D01*
X147347Y224143D01*
X148700Y222789D01*
X148858Y222558D01*
X148924Y222262D01*
X148868Y221964D01*
X148700Y221711D01*
X147347Y220357D01*
X147347Y211443D01*
X148700Y210089D01*
X148858Y209858D01*
X148924Y209562D01*
X148868Y209264D01*
X148700Y209011D01*
X147347Y207657D01*
X147347Y198743D01*
X148700Y197389D01*
X148858Y197158D01*
X148924Y196862D01*
X148868Y196564D01*
X148700Y196311D01*
X147347Y194957D01*
X147347Y186043D01*
X148700Y184689D01*
X148858Y184458D01*
X148924Y184162D01*
X148868Y183864D01*
X148700Y183611D01*
X147347Y182257D01*
X147347Y173343D01*
X148700Y171989D01*
X148858Y171758D01*
X148924Y171462D01*
X148868Y171164D01*
X148700Y170911D01*
X147347Y169557D01*
X147347Y160643D01*
X149397Y158593D01*
X153055Y158593D01*
X153330Y158541D01*
X153585Y158378D01*
X153757Y158128D01*
X153817Y157831D01*
X153817Y142343D01*
X154814Y139936D01*
X180227Y114523D01*
X180390Y114282D01*
X180450Y113984D01*
X180450Y65699D01*
X181447Y63293D01*
X199491Y45249D01*
X201898Y44252D01*
G37*
G36*
X267462Y318262D02*
X284480Y318262D01*
X284480Y319521D01*
X282933Y323255D01*
X280075Y326113D01*
X276341Y327660D01*
X267462Y327660D01*
X267462Y318262D01*
G37*
G36*
X248920Y318262D02*
X265938Y318262D01*
X265938Y327660D01*
X257059Y327660D01*
X253325Y326113D01*
X250467Y323255D01*
X248920Y319521D01*
X248920Y318262D01*
G37*
G36*
X257059Y307340D02*
X265938Y307340D01*
X265938Y316738D01*
X248920Y316738D01*
X248920Y315479D01*
X250467Y311745D01*
X253325Y308887D01*
X257059Y307340D01*
G37*
G36*
X267462Y307340D02*
X276341Y307340D01*
X280075Y308887D01*
X282933Y311745D01*
X284480Y315479D01*
X284480Y316738D01*
X267462Y316738D01*
X267462Y307340D01*
G37*
G36*
X15568Y204780D02*
X35232Y204780D01*
X39319Y206473D01*
X42447Y209601D01*
X44140Y213688D01*
X44140Y216715D01*
X44196Y217001D01*
X44363Y217254D01*
X54876Y227767D01*
X55095Y227920D01*
X55390Y227989D01*
X55689Y227939D01*
X55945Y227775D01*
X56116Y227525D01*
X56177Y227228D01*
X56177Y224540D01*
X57664Y223053D01*
X67473Y223053D01*
X67473Y229362D01*
X80294Y229362D01*
X80294Y232660D01*
X79221Y233732D01*
X79063Y233963D01*
X78998Y234259D01*
X79053Y234557D01*
X79221Y234810D01*
X81254Y236843D01*
X81254Y245757D01*
X79900Y247111D01*
X79742Y247342D01*
X79676Y247638D01*
X79732Y247936D01*
X79900Y248189D01*
X81254Y249543D01*
X81254Y258457D01*
X79900Y259811D01*
X79742Y260042D01*
X79676Y260338D01*
X79732Y260636D01*
X79900Y260889D01*
X81254Y262243D01*
X81254Y271157D01*
X79203Y273208D01*
X69787Y273208D01*
X69583Y273248D01*
X42514Y273248D01*
X42228Y273304D01*
X41975Y273471D01*
X39319Y276127D01*
X35232Y277820D01*
X15568Y277820D01*
X11481Y276127D01*
X8353Y272999D01*
X6660Y268912D01*
X6660Y264488D01*
X8353Y260401D01*
X11481Y257273D01*
X15568Y255580D01*
X35232Y255580D01*
X39319Y257273D01*
X41975Y259929D01*
X42216Y260092D01*
X42514Y260152D01*
X45852Y260152D01*
X46115Y260105D01*
X46373Y259946D01*
X46549Y259698D01*
X46614Y259402D01*
X46558Y259104D01*
X46391Y258851D01*
X38935Y251395D01*
X38699Y251235D01*
X38402Y251172D01*
X38105Y251230D01*
X35232Y252420D01*
X15568Y252420D01*
X11481Y250727D01*
X8353Y247599D01*
X6660Y243512D01*
X6660Y239088D01*
X8353Y235001D01*
X11481Y231873D01*
X15568Y230180D01*
X35232Y230180D01*
X37730Y231215D01*
X37985Y231272D01*
X38285Y231226D01*
X38543Y231066D01*
X38718Y230819D01*
X38784Y230523D01*
X38728Y230225D01*
X38560Y229972D01*
X35832Y227243D01*
X35590Y227080D01*
X35293Y227020D01*
X15568Y227020D01*
X11481Y225327D01*
X8353Y222199D01*
X6660Y218112D01*
X6660Y213688D01*
X8353Y209601D01*
X11481Y206473D01*
X15568Y204780D01*
G37*
G36*
X343662Y248160D02*
X351452Y248160D01*
X352940Y249648D01*
X352940Y256438D01*
X343662Y256438D01*
X343662Y248160D01*
G37*
G36*
X372448Y248160D02*
X380238Y248160D01*
X380238Y256438D01*
X370960Y256438D01*
X370960Y249648D01*
X372448Y248160D01*
G37*
G36*
X381762Y248160D02*
X389552Y248160D01*
X391040Y249648D01*
X391040Y256438D01*
X381762Y256438D01*
X381762Y248160D01*
G37*
G36*
X334348Y248160D02*
X342138Y248160D01*
X342138Y256438D01*
X332860Y256438D01*
X332860Y249648D01*
X334348Y248160D01*
G37*
G36*
X68997Y223053D02*
X78806Y223053D01*
X80294Y224540D01*
X80294Y227838D01*
X68997Y227838D01*
X68997Y223053D01*
G37*
G36*
X56177Y216662D02*
X67473Y216662D01*
X67473Y221448D01*
X57664Y221448D01*
X56177Y219960D01*
X56177Y216662D01*
G37*
G36*
X68997Y216662D02*
X80294Y216662D01*
X80294Y219960D01*
X78806Y221448D01*
X68997Y221448D01*
X68997Y216662D01*
G37*
G36*
X248920Y203962D02*
X265938Y203962D01*
X265938Y213360D01*
X257059Y213360D01*
X253325Y211813D01*
X250467Y208955D01*
X248920Y205221D01*
X248920Y203962D01*
G37*
G36*
X267462Y203962D02*
X284480Y203962D01*
X284480Y205221D01*
X282933Y208955D01*
X280075Y211813D01*
X276341Y213360D01*
X267462Y213360D01*
X267462Y203962D01*
G37*
G36*
X267462Y193040D02*
X276341Y193040D01*
X280075Y194587D01*
X282933Y197445D01*
X284480Y201179D01*
X284480Y202438D01*
X267462Y202438D01*
X267462Y193040D01*
G37*
G36*
X257059Y193040D02*
X265938Y193040D01*
X265938Y202438D01*
X248920Y202438D01*
X248920Y201179D01*
X250467Y197445D01*
X253325Y194587D01*
X257059Y193040D01*
G37*
G36*
X68997Y159553D02*
X78806Y159553D01*
X80294Y161040D01*
X80294Y164338D01*
X68997Y164338D01*
X68997Y159553D01*
G37*
G36*
X57664Y159553D02*
X67473Y159553D01*
X67473Y164338D01*
X56177Y164338D01*
X56177Y161040D01*
X57664Y159553D01*
G37*
G36*
X347048Y151460D02*
X354838Y151460D01*
X354838Y159738D01*
X345560Y159738D01*
X345560Y152948D01*
X347048Y151460D01*
G37*
G36*
X356362Y151460D02*
X364152Y151460D01*
X365640Y152948D01*
X365640Y159738D01*
X356362Y159738D01*
X356362Y151460D01*
G37*
G36*
X26162Y140462D02*
X43180Y140462D01*
X43180Y141721D01*
X41633Y145455D01*
X38775Y148313D01*
X35041Y149860D01*
X26162Y149860D01*
X26162Y140462D01*
G37*
G36*
X7620Y140462D02*
X24638Y140462D01*
X24638Y149860D01*
X15759Y149860D01*
X12025Y148313D01*
X9167Y145455D01*
X7620Y141721D01*
X7620Y140462D01*
G37*
G36*
X345560Y137262D02*
X354838Y137262D01*
X354838Y145540D01*
X347048Y145540D01*
X345560Y144052D01*
X345560Y137262D01*
G37*
G36*
X356362Y137262D02*
X365640Y137262D01*
X365640Y144052D01*
X364152Y145540D01*
X356362Y145540D01*
X356362Y137262D01*
G37*
G36*
X15759Y129540D02*
X24638Y129540D01*
X24638Y138938D01*
X7620Y138938D01*
X7620Y137679D01*
X9167Y133945D01*
X12025Y131087D01*
X15759Y129540D01*
G37*
G36*
X26162Y129540D02*
X35041Y129540D01*
X38775Y131087D01*
X41633Y133945D01*
X43180Y137679D01*
X43180Y138938D01*
X26162Y138938D01*
X26162Y129540D01*
G37*
G36*
X54291Y59189D02*
X58137Y59189D01*
X60857Y61909D01*
X60857Y62998D01*
X60908Y63273D01*
X61071Y63528D01*
X61321Y63700D01*
X61619Y63760D01*
X61946Y63760D01*
X61966Y63780D01*
X62124Y63901D01*
X65256Y65710D01*
X65429Y65783D01*
X65731Y65806D01*
X66018Y65710D01*
X69151Y63901D01*
X69308Y63780D01*
X69329Y63760D01*
X76984Y63760D01*
X78580Y65355D01*
X78909Y65549D01*
X79212Y65573D01*
X79499Y65476D01*
X82228Y63901D01*
X82385Y63780D01*
X82406Y63760D01*
X84329Y63760D01*
X84329Y63760D01*
X87014Y63760D01*
X88419Y65166D01*
X88749Y65360D01*
X89052Y65383D01*
X89339Y65287D01*
X91984Y63760D01*
X99015Y63760D01*
X100334Y65079D01*
X100664Y65273D01*
X100967Y65297D01*
X101254Y65200D01*
X103749Y63760D01*
X107870Y63760D01*
X111054Y65598D01*
X111423Y65700D01*
X111721Y65645D01*
X111974Y65477D01*
X113691Y63760D01*
X117537Y63760D01*
X118123Y64346D01*
X118353Y64504D01*
X118649Y64569D01*
X118948Y64513D01*
X119200Y64346D01*
X119786Y63760D01*
X123632Y63760D01*
X125227Y65355D01*
X125557Y65549D01*
X125860Y65573D01*
X126147Y65476D01*
X128876Y63901D01*
X129033Y63780D01*
X129053Y63760D01*
X130976Y63760D01*
X130977Y63760D01*
X133662Y63760D01*
X134380Y64478D01*
X134611Y64636D01*
X134907Y64702D01*
X135205Y64646D01*
X135458Y64478D01*
X136176Y63760D01*
X140022Y63760D01*
X142742Y66480D01*
X142742Y66755D01*
X142760Y66917D01*
X142882Y67194D01*
X143102Y67402D01*
X143387Y67508D01*
X143690Y67494D01*
X143963Y67363D01*
X144164Y67136D01*
X144924Y65821D01*
X148493Y63760D01*
X152614Y63760D01*
X156184Y65821D01*
X156447Y65914D01*
X156750Y65900D01*
X157024Y65769D01*
X157135Y65643D01*
X160398Y63760D01*
X162126Y63760D01*
X165281Y64849D01*
X165487Y64890D01*
X165787Y64846D01*
X165926Y64796D01*
X165926Y64796D01*
X168687Y63802D01*
X171622Y63761D01*
X171622Y63760D01*
X174014Y63726D01*
X177737Y66734D01*
X178676Y71427D01*
X177127Y74285D01*
X177035Y74665D01*
X177102Y74961D01*
X177854Y76631D01*
X176491Y80228D01*
X174737Y81017D01*
X172224Y82149D01*
X169469Y82188D01*
X167230Y82220D01*
X167230Y82220D01*
X167076Y82222D01*
X165852Y81234D01*
X165693Y81134D01*
X165398Y81065D01*
X165099Y81115D01*
X164843Y81279D01*
X164672Y81529D01*
X164611Y81826D01*
X164611Y84040D01*
X161892Y86760D01*
X158045Y86760D01*
X155325Y84040D01*
X155325Y81943D01*
X155235Y81583D01*
X155042Y81350D01*
X154772Y81210D01*
X154470Y81187D01*
X154182Y81283D01*
X152614Y82189D01*
X148493Y82189D01*
X146527Y81054D01*
X146158Y80952D01*
X145860Y81007D01*
X145607Y81175D01*
X144594Y82189D01*
X136176Y82189D01*
X135458Y81470D01*
X135227Y81312D01*
X134931Y81247D01*
X134633Y81303D01*
X134380Y81470D01*
X133557Y82293D01*
X133394Y82535D01*
X133334Y82832D01*
X133334Y84040D01*
X130604Y86770D01*
X130396Y86807D01*
X130138Y86966D01*
X129963Y87214D01*
X129898Y87510D01*
X129953Y87808D01*
X130121Y88061D01*
X132238Y90178D01*
X132588Y90378D01*
X132891Y90393D01*
X133176Y90289D01*
X133397Y90082D01*
X133521Y89805D01*
X133584Y89518D01*
X133944Y89290D01*
X134216Y88988D01*
X134407Y88606D01*
X135600Y88209D01*
X135768Y88129D01*
X136829Y87453D01*
X137245Y87546D01*
X137652Y87525D01*
X138056Y87390D01*
X139181Y87953D01*
X139356Y88015D01*
X140582Y88287D01*
X140912Y88287D01*
X142138Y88015D01*
X142313Y87953D01*
X143438Y87390D01*
X143843Y87525D01*
X144249Y87546D01*
X144665Y87453D01*
X145726Y88129D01*
X145894Y88209D01*
X147087Y88606D01*
X147278Y88988D01*
X147550Y89290D01*
X147910Y89518D01*
X148183Y90746D01*
X148245Y90922D01*
X148808Y92047D01*
X148673Y92451D01*
X148652Y92857D01*
X151792Y106987D01*
X149727Y110232D01*
X145972Y111067D01*
X142727Y109002D01*
X142288Y107025D01*
X142236Y106871D01*
X142057Y106627D01*
X141796Y106471D01*
X141496Y106430D01*
X141203Y106509D01*
X141103Y106559D01*
X140988Y106520D01*
X140807Y106483D01*
X140506Y106520D01*
X140391Y106559D01*
X140291Y106509D01*
X140139Y106452D01*
X139836Y106437D01*
X139552Y106541D01*
X139330Y106748D01*
X139207Y107025D01*
X138767Y109002D01*
X135522Y111067D01*
X131767Y110232D01*
X131725Y110166D01*
X131391Y109878D01*
X131095Y109813D01*
X130796Y109869D01*
X130544Y110036D01*
X129820Y110760D01*
X125973Y110760D01*
X124626Y109413D01*
X124396Y109255D01*
X124099Y109189D01*
X123801Y109245D01*
X123548Y109413D01*
X122201Y110760D01*
X118355Y110760D01*
X115635Y108040D01*
X115635Y96284D01*
X115584Y96010D01*
X115420Y95754D01*
X115170Y95583D01*
X114873Y95522D01*
X106836Y95522D01*
X106561Y95573D01*
X106306Y95737D01*
X106134Y95987D01*
X106074Y96284D01*
X106074Y101183D01*
X106054Y101203D01*
X105933Y101361D01*
X104217Y104332D01*
X101246Y106047D01*
X101088Y106169D01*
X101068Y106189D01*
X93413Y106189D01*
X91695Y104472D01*
X91366Y104278D01*
X91063Y104254D01*
X90776Y104351D01*
X87592Y106189D01*
X83471Y106189D01*
X80224Y104314D01*
X79855Y104212D01*
X79557Y104268D01*
X79304Y104435D01*
X77550Y106189D01*
X69849Y106189D01*
X69780Y106141D01*
X69485Y106071D01*
X69186Y106122D01*
X68931Y106285D01*
X68759Y106535D01*
X68699Y106833D01*
X68699Y108040D01*
X65979Y110760D01*
X56038Y110760D01*
X53318Y108040D01*
X53318Y96284D01*
X53267Y96010D01*
X53103Y95754D01*
X52853Y95583D01*
X52556Y95522D01*
X45242Y95522D01*
X44967Y95573D01*
X44712Y95737D01*
X44540Y95987D01*
X44480Y96284D01*
X44480Y97506D01*
X42478Y101008D01*
X42388Y101266D01*
X42400Y101569D01*
X42530Y101843D01*
X43943Y103727D01*
X43399Y107535D01*
X41861Y108689D01*
X40516Y109697D01*
X37327Y110760D01*
X33586Y110760D01*
X29938Y108654D01*
X29917Y108629D01*
X29647Y108489D01*
X29345Y108466D01*
X29057Y108562D01*
X25251Y110760D01*
X17253Y110760D01*
X14533Y108040D01*
X14533Y90480D01*
X17253Y87760D01*
X19609Y87760D01*
X19771Y87743D01*
X20049Y87621D01*
X20257Y87400D01*
X20362Y87116D01*
X20348Y86813D01*
X20217Y86539D01*
X19990Y86338D01*
X16798Y84495D01*
X14533Y80572D01*
X14533Y69948D01*
X16798Y66025D01*
X20721Y63760D01*
X25251Y63760D01*
X29173Y66025D01*
X29287Y66221D01*
X29545Y66488D01*
X29829Y66593D01*
X30132Y66579D01*
X30406Y66448D01*
X30607Y66221D01*
X30956Y65617D01*
X33927Y63901D01*
X34085Y63780D01*
X34105Y63760D01*
X41760Y63760D01*
X43356Y65355D01*
X43686Y65549D01*
X43988Y65573D01*
X44275Y65476D01*
X47004Y63901D01*
X47162Y63780D01*
X47182Y63760D01*
X49105Y63760D01*
X49105Y63760D01*
X50809Y63760D01*
X51083Y63709D01*
X51339Y63545D01*
X51510Y63295D01*
X51571Y62998D01*
X51571Y61909D01*
X54291Y59189D01*
G37*
G36*
X248920Y89662D02*
X265938Y89662D01*
X265938Y99060D01*
X257059Y99060D01*
X253325Y97513D01*
X250467Y94655D01*
X248920Y90921D01*
X248920Y89662D01*
G37*
G36*
X267462Y89662D02*
X284480Y89662D01*
X284480Y90921D01*
X282933Y94655D01*
X280075Y97513D01*
X276341Y99060D01*
X267462Y99060D01*
X267462Y89662D01*
G37*
G36*
X267462Y78740D02*
X276341Y78740D01*
X280075Y80287D01*
X282933Y83145D01*
X284480Y86879D01*
X284480Y88138D01*
X267462Y88138D01*
X267462Y78740D01*
G37*
G36*
X257059Y78740D02*
X265938Y78740D01*
X265938Y88138D01*
X248920Y88138D01*
X248920Y86879D01*
X250467Y83145D01*
X253325Y80287D01*
X257059Y78740D01*
G37*
G36*
X362016Y20000D02*
X367984Y20000D01*
X373497Y22284D01*
X377716Y26503D01*
X380000Y32016D01*
X380000Y37984D01*
X377716Y43497D01*
X373497Y47716D01*
X367984Y50000D01*
X362016Y50000D01*
X356503Y47716D01*
X352284Y43497D01*
X350000Y37984D01*
X350000Y32016D01*
X352284Y26503D01*
X356503Y22284D01*
X362016Y20000D01*
G37*
G36*
X32016Y20000D02*
X37984Y20000D01*
X43497Y22284D01*
X47716Y26503D01*
X50000Y32016D01*
X50000Y37984D01*
X47716Y43497D01*
X43497Y47716D01*
X37984Y50000D01*
X32016Y50000D01*
X26503Y47716D01*
X22284Y43497D01*
X20000Y37984D01*
X20000Y32016D01*
X22284Y26503D01*
X26503Y22284D01*
X32016Y20000D01*
G37*
%LPD*%
D10*
X19176Y92403D02*
X19176Y106117D01*
X22986Y106117D01*
X23108Y106115D01*
X23230Y106109D01*
X23352Y106099D01*
X23473Y106086D01*
X23594Y106068D01*
X23714Y106047D01*
X23834Y106022D01*
X23952Y105992D01*
X24070Y105960D01*
X24186Y105923D01*
X24301Y105883D01*
X24415Y105839D01*
X24528Y105791D01*
X24639Y105740D01*
X24748Y105685D01*
X24855Y105627D01*
X24961Y105565D01*
X25064Y105500D01*
X25165Y105432D01*
X25264Y105361D01*
X25361Y105286D01*
X25455Y105208D01*
X25547Y105128D01*
X25636Y105044D01*
X25722Y104958D01*
X25806Y104869D01*
X25886Y104777D01*
X25964Y104683D01*
X26039Y104586D01*
X26110Y104487D01*
X26178Y104386D01*
X26243Y104283D01*
X26305Y104177D01*
X26363Y104070D01*
X26418Y103961D01*
X26469Y103850D01*
X26517Y103737D01*
X26561Y103623D01*
X26601Y103508D01*
X26638Y103392D01*
X26670Y103274D01*
X26700Y103156D01*
X26725Y103036D01*
X26746Y102916D01*
X26764Y102795D01*
X26777Y102674D01*
X26787Y102552D01*
X26793Y102430D01*
X26795Y102308D01*
X26793Y102186D01*
X26787Y102064D01*
X26777Y101942D01*
X26764Y101821D01*
X26746Y101700D01*
X26725Y101580D01*
X26700Y101460D01*
X26670Y101342D01*
X26638Y101224D01*
X26601Y101108D01*
X26561Y100993D01*
X26517Y100879D01*
X26469Y100766D01*
X26418Y100655D01*
X26363Y100546D01*
X26305Y100439D01*
X26243Y100333D01*
X26178Y100230D01*
X26110Y100129D01*
X26039Y100030D01*
X25964Y99933D01*
X25886Y99839D01*
X25806Y99747D01*
X25722Y99658D01*
X25636Y99572D01*
X25547Y99488D01*
X25455Y99408D01*
X25361Y99330D01*
X25264Y99255D01*
X25165Y99184D01*
X25064Y99116D01*
X24961Y99051D01*
X24855Y98989D01*
X24748Y98931D01*
X24639Y98876D01*
X24528Y98825D01*
X24415Y98777D01*
X24301Y98733D01*
X24186Y98693D01*
X24070Y98656D01*
X23952Y98624D01*
X23834Y98594D01*
X23714Y98569D01*
X23594Y98548D01*
X23473Y98530D01*
X23352Y98517D01*
X23230Y98507D01*
X23108Y98501D01*
X22986Y98499D01*
X22986Y98498D02*
X19176Y98498D01*
X36789Y92403D02*
X36898Y92405D01*
X37006Y92411D01*
X37115Y92420D01*
X37223Y92434D01*
X37330Y92451D01*
X37437Y92473D01*
X37543Y92498D01*
X37648Y92526D01*
X37752Y92559D01*
X37854Y92595D01*
X37955Y92635D01*
X38055Y92678D01*
X38153Y92725D01*
X38250Y92776D01*
X38344Y92830D01*
X38437Y92887D01*
X38527Y92947D01*
X38616Y93011D01*
X38702Y93078D01*
X38785Y93147D01*
X38866Y93220D01*
X38944Y93296D01*
X39020Y93374D01*
X39093Y93455D01*
X39162Y93538D01*
X39229Y93624D01*
X39293Y93713D01*
X39353Y93803D01*
X39410Y93896D01*
X39464Y93990D01*
X39515Y94087D01*
X39562Y94185D01*
X39605Y94285D01*
X39645Y94386D01*
X39681Y94488D01*
X39714Y94592D01*
X39742Y94697D01*
X39767Y94803D01*
X39789Y94910D01*
X39806Y95017D01*
X39820Y95125D01*
X39829Y95234D01*
X39835Y95342D01*
X39837Y95451D01*
X36789Y92403D02*
X36630Y92405D01*
X36471Y92411D01*
X36313Y92421D01*
X36155Y92434D01*
X35997Y92452D01*
X35839Y92473D01*
X35683Y92499D01*
X35526Y92528D01*
X35371Y92561D01*
X35217Y92598D01*
X35063Y92639D01*
X34910Y92683D01*
X34759Y92731D01*
X34609Y92783D01*
X34460Y92839D01*
X34313Y92898D01*
X34167Y92961D01*
X34023Y93028D01*
X33880Y93098D01*
X33739Y93171D01*
X33600Y93248D01*
X33463Y93328D01*
X33328Y93412D01*
X33195Y93499D01*
X33065Y93590D01*
X32936Y93683D01*
X32810Y93780D01*
X32687Y93879D01*
X32565Y93982D01*
X32447Y94088D01*
X32331Y94196D01*
X32218Y94308D01*
X32598Y103069D02*
X32600Y103178D01*
X32606Y103286D01*
X32615Y103395D01*
X32629Y103503D01*
X32646Y103610D01*
X32668Y103717D01*
X32693Y103823D01*
X32721Y103928D01*
X32754Y104032D01*
X32790Y104134D01*
X32830Y104235D01*
X32873Y104335D01*
X32920Y104433D01*
X32971Y104530D01*
X33025Y104624D01*
X33082Y104717D01*
X33142Y104807D01*
X33206Y104896D01*
X33273Y104982D01*
X33342Y105065D01*
X33415Y105146D01*
X33491Y105224D01*
X33569Y105300D01*
X33650Y105373D01*
X33733Y105442D01*
X33819Y105509D01*
X33908Y105573D01*
X33998Y105633D01*
X34091Y105690D01*
X34185Y105744D01*
X34282Y105795D01*
X34380Y105842D01*
X34480Y105885D01*
X34581Y105925D01*
X34683Y105961D01*
X34787Y105994D01*
X34892Y106022D01*
X34998Y106047D01*
X35105Y106069D01*
X35212Y106086D01*
X35320Y106100D01*
X35429Y106109D01*
X35537Y106115D01*
X35646Y106117D01*
X35793Y106115D01*
X35940Y106109D01*
X36087Y106100D01*
X36233Y106087D01*
X36379Y106070D01*
X36525Y106049D01*
X36670Y106024D01*
X36814Y105996D01*
X36958Y105964D01*
X37101Y105929D01*
X37242Y105889D01*
X37383Y105847D01*
X37523Y105800D01*
X37661Y105750D01*
X37798Y105696D01*
X37933Y105639D01*
X38067Y105579D01*
X38200Y105515D01*
X38330Y105447D01*
X38459Y105376D01*
X38586Y105302D01*
X38712Y105225D01*
X38835Y105145D01*
X38956Y105061D01*
X39074Y104974D01*
X34123Y100403D02*
X34028Y100460D01*
X33936Y100522D01*
X33846Y100586D01*
X33758Y100654D01*
X33673Y100725D01*
X33590Y100799D01*
X33510Y100876D01*
X33433Y100955D01*
X33359Y101037D01*
X33288Y101122D01*
X33220Y101210D01*
X33155Y101299D01*
X33093Y101391D01*
X33035Y101486D01*
X32980Y101582D01*
X32928Y101680D01*
X32880Y101780D01*
X32836Y101881D01*
X32795Y101984D01*
X32758Y102089D01*
X32725Y102195D01*
X32696Y102301D01*
X32670Y102409D01*
X32648Y102518D01*
X32631Y102627D01*
X32617Y102737D01*
X32607Y102848D01*
X32601Y102958D01*
X32599Y103069D01*
X38313Y98117D02*
X38408Y98059D01*
X38500Y97998D01*
X38590Y97934D01*
X38678Y97866D01*
X38763Y97795D01*
X38846Y97721D01*
X38926Y97644D01*
X39003Y97565D01*
X39077Y97483D01*
X39148Y97398D01*
X39216Y97310D01*
X39281Y97221D01*
X39343Y97129D01*
X39401Y97034D01*
X39456Y96938D01*
X39508Y96840D01*
X39556Y96740D01*
X39600Y96639D01*
X39641Y96536D01*
X39678Y96431D01*
X39711Y96325D01*
X39740Y96219D01*
X39766Y96111D01*
X39788Y96002D01*
X39805Y95893D01*
X39819Y95783D01*
X39829Y95672D01*
X39835Y95562D01*
X39837Y95451D01*
X38313Y98117D02*
X34123Y100403D01*
X45356Y90879D02*
X51451Y90879D01*
X57961Y92403D02*
X57961Y106117D01*
X64056Y106117D01*
X64056Y100022D02*
X57961Y100022D01*
X71818Y92403D02*
X75627Y92403D01*
X71818Y92403D02*
X71724Y92405D01*
X71629Y92411D01*
X71535Y92421D01*
X71442Y92434D01*
X71349Y92452D01*
X71257Y92473D01*
X71166Y92498D01*
X71076Y92527D01*
X70987Y92559D01*
X70900Y92596D01*
X70814Y92635D01*
X70730Y92679D01*
X70648Y92725D01*
X70568Y92775D01*
X70490Y92829D01*
X70414Y92885D01*
X70341Y92945D01*
X70270Y93007D01*
X70202Y93073D01*
X70136Y93141D01*
X70074Y93212D01*
X70014Y93285D01*
X69958Y93361D01*
X69904Y93439D01*
X69854Y93519D01*
X69808Y93601D01*
X69764Y93685D01*
X69725Y93771D01*
X69688Y93858D01*
X69656Y93947D01*
X69627Y94037D01*
X69602Y94128D01*
X69581Y94220D01*
X69563Y94313D01*
X69550Y94406D01*
X69540Y94500D01*
X69534Y94595D01*
X69532Y94689D01*
X69532Y99260D01*
X69534Y99354D01*
X69540Y99449D01*
X69550Y99543D01*
X69563Y99636D01*
X69581Y99729D01*
X69602Y99821D01*
X69627Y99912D01*
X69656Y100002D01*
X69688Y100091D01*
X69725Y100178D01*
X69764Y100264D01*
X69808Y100348D01*
X69854Y100430D01*
X69904Y100510D01*
X69958Y100588D01*
X70014Y100664D01*
X70074Y100737D01*
X70136Y100808D01*
X70202Y100876D01*
X70270Y100942D01*
X70341Y101004D01*
X70414Y101064D01*
X70490Y101120D01*
X70568Y101174D01*
X70648Y101224D01*
X70730Y101270D01*
X70814Y101314D01*
X70900Y101353D01*
X70987Y101390D01*
X71076Y101422D01*
X71166Y101451D01*
X71257Y101476D01*
X71349Y101497D01*
X71442Y101515D01*
X71535Y101528D01*
X71629Y101538D01*
X71724Y101544D01*
X71818Y101546D01*
X75627Y101546D01*
X75627Y90117D01*
X75628Y90117D02*
X75626Y90023D01*
X75620Y89928D01*
X75610Y89834D01*
X75597Y89741D01*
X75579Y89648D01*
X75558Y89556D01*
X75533Y89465D01*
X75504Y89375D01*
X75472Y89286D01*
X75435Y89199D01*
X75396Y89113D01*
X75352Y89029D01*
X75306Y88947D01*
X75256Y88867D01*
X75202Y88789D01*
X75146Y88713D01*
X75086Y88640D01*
X75024Y88569D01*
X74958Y88501D01*
X74890Y88435D01*
X74819Y88373D01*
X74746Y88313D01*
X74670Y88257D01*
X74592Y88203D01*
X74512Y88153D01*
X74430Y88107D01*
X74346Y88063D01*
X74260Y88024D01*
X74173Y87987D01*
X74084Y87955D01*
X73994Y87926D01*
X73903Y87901D01*
X73811Y87880D01*
X73718Y87862D01*
X73625Y87849D01*
X73531Y87839D01*
X73436Y87833D01*
X73342Y87831D01*
X73342Y87832D02*
X70294Y87832D01*
X84769Y92403D02*
X88579Y92403D01*
X84769Y92403D02*
X84675Y92405D01*
X84580Y92411D01*
X84486Y92421D01*
X84393Y92434D01*
X84300Y92452D01*
X84208Y92473D01*
X84117Y92498D01*
X84027Y92527D01*
X83938Y92559D01*
X83851Y92596D01*
X83765Y92635D01*
X83681Y92679D01*
X83599Y92725D01*
X83519Y92775D01*
X83441Y92829D01*
X83365Y92885D01*
X83292Y92945D01*
X83221Y93007D01*
X83153Y93073D01*
X83087Y93141D01*
X83025Y93212D01*
X82965Y93285D01*
X82909Y93361D01*
X82855Y93439D01*
X82805Y93519D01*
X82759Y93601D01*
X82715Y93685D01*
X82676Y93771D01*
X82639Y93858D01*
X82607Y93947D01*
X82578Y94037D01*
X82553Y94128D01*
X82532Y94220D01*
X82514Y94313D01*
X82501Y94406D01*
X82491Y94500D01*
X82485Y94595D01*
X82483Y94689D01*
X82484Y94689D02*
X82484Y98498D01*
X82483Y98498D02*
X82485Y98607D01*
X82491Y98715D01*
X82500Y98824D01*
X82514Y98932D01*
X82531Y99039D01*
X82553Y99146D01*
X82578Y99252D01*
X82606Y99357D01*
X82639Y99461D01*
X82675Y99563D01*
X82715Y99664D01*
X82758Y99764D01*
X82805Y99862D01*
X82856Y99959D01*
X82910Y100053D01*
X82967Y100146D01*
X83027Y100236D01*
X83091Y100325D01*
X83158Y100411D01*
X83227Y100494D01*
X83300Y100575D01*
X83376Y100653D01*
X83454Y100729D01*
X83535Y100802D01*
X83618Y100871D01*
X83704Y100938D01*
X83793Y101002D01*
X83883Y101062D01*
X83976Y101119D01*
X84070Y101173D01*
X84167Y101224D01*
X84265Y101271D01*
X84365Y101314D01*
X84466Y101354D01*
X84568Y101390D01*
X84672Y101423D01*
X84777Y101451D01*
X84883Y101476D01*
X84990Y101498D01*
X85097Y101515D01*
X85205Y101529D01*
X85314Y101538D01*
X85422Y101544D01*
X85531Y101546D01*
X85640Y101544D01*
X85748Y101538D01*
X85857Y101529D01*
X85965Y101515D01*
X86072Y101498D01*
X86179Y101476D01*
X86285Y101451D01*
X86390Y101423D01*
X86494Y101390D01*
X86596Y101354D01*
X86697Y101314D01*
X86797Y101271D01*
X86895Y101224D01*
X86992Y101173D01*
X87086Y101119D01*
X87179Y101062D01*
X87269Y101002D01*
X87358Y100938D01*
X87444Y100871D01*
X87527Y100802D01*
X87608Y100729D01*
X87686Y100653D01*
X87762Y100575D01*
X87835Y100494D01*
X87904Y100411D01*
X87971Y100325D01*
X88035Y100236D01*
X88095Y100146D01*
X88152Y100053D01*
X88206Y99959D01*
X88257Y99862D01*
X88304Y99764D01*
X88347Y99664D01*
X88387Y99563D01*
X88423Y99461D01*
X88456Y99357D01*
X88484Y99252D01*
X88509Y99146D01*
X88531Y99039D01*
X88548Y98932D01*
X88562Y98824D01*
X88571Y98715D01*
X88577Y98607D01*
X88579Y98498D01*
X88579Y96974D01*
X82484Y96974D01*
X95336Y92403D02*
X95336Y101546D01*
X99145Y101546D01*
X99239Y101544D01*
X99334Y101538D01*
X99428Y101528D01*
X99521Y101515D01*
X99614Y101497D01*
X99706Y101476D01*
X99797Y101451D01*
X99887Y101422D01*
X99976Y101390D01*
X100063Y101353D01*
X100149Y101314D01*
X100233Y101270D01*
X100315Y101224D01*
X100395Y101174D01*
X100473Y101120D01*
X100549Y101064D01*
X100622Y101004D01*
X100693Y100942D01*
X100761Y100876D01*
X100827Y100808D01*
X100889Y100737D01*
X100949Y100664D01*
X101005Y100588D01*
X101059Y100510D01*
X101109Y100430D01*
X101155Y100348D01*
X101199Y100264D01*
X101238Y100178D01*
X101275Y100091D01*
X101307Y100002D01*
X101336Y99912D01*
X101361Y99821D01*
X101382Y99729D01*
X101400Y99636D01*
X101413Y99543D01*
X101423Y99449D01*
X101429Y99354D01*
X101431Y99260D01*
X101431Y92403D01*
X107712Y90879D02*
X113807Y90879D01*
X120278Y92403D02*
X120278Y106117D01*
X120278Y100022D02*
X127897Y100022D01*
X127897Y106117D02*
X127897Y92403D01*
X137700Y92403D02*
X134652Y106117D01*
X140747Y101546D02*
X137700Y92403D01*
X143795Y92403D02*
X140747Y101546D01*
X146842Y106117D02*
X143795Y92403D01*
X19176Y78308D02*
X19176Y72212D01*
X19177Y78308D02*
X19179Y78430D01*
X19185Y78552D01*
X19195Y78674D01*
X19208Y78795D01*
X19226Y78916D01*
X19247Y79036D01*
X19272Y79156D01*
X19302Y79274D01*
X19334Y79392D01*
X19371Y79508D01*
X19411Y79623D01*
X19455Y79737D01*
X19503Y79850D01*
X19554Y79961D01*
X19609Y80070D01*
X19667Y80177D01*
X19729Y80283D01*
X19794Y80386D01*
X19862Y80487D01*
X19933Y80586D01*
X20008Y80683D01*
X20086Y80777D01*
X20166Y80869D01*
X20250Y80958D01*
X20336Y81044D01*
X20425Y81128D01*
X20517Y81208D01*
X20611Y81286D01*
X20708Y81361D01*
X20807Y81432D01*
X20908Y81500D01*
X21011Y81565D01*
X21117Y81627D01*
X21224Y81685D01*
X21333Y81740D01*
X21444Y81791D01*
X21557Y81839D01*
X21671Y81883D01*
X21786Y81923D01*
X21902Y81960D01*
X22020Y81992D01*
X22138Y82022D01*
X22258Y82047D01*
X22378Y82068D01*
X22499Y82086D01*
X22620Y82099D01*
X22742Y82109D01*
X22864Y82115D01*
X22986Y82117D01*
X23108Y82115D01*
X23230Y82109D01*
X23352Y82099D01*
X23473Y82086D01*
X23594Y82068D01*
X23714Y82047D01*
X23834Y82022D01*
X23952Y81992D01*
X24070Y81960D01*
X24186Y81923D01*
X24301Y81883D01*
X24415Y81839D01*
X24528Y81791D01*
X24639Y81740D01*
X24748Y81685D01*
X24855Y81627D01*
X24961Y81565D01*
X25064Y81500D01*
X25165Y81432D01*
X25264Y81361D01*
X25361Y81286D01*
X25455Y81208D01*
X25547Y81128D01*
X25636Y81044D01*
X25722Y80958D01*
X25806Y80869D01*
X25886Y80777D01*
X25964Y80683D01*
X26039Y80586D01*
X26110Y80487D01*
X26178Y80386D01*
X26243Y80283D01*
X26305Y80177D01*
X26363Y80070D01*
X26418Y79961D01*
X26469Y79850D01*
X26517Y79737D01*
X26561Y79623D01*
X26601Y79508D01*
X26638Y79392D01*
X26670Y79274D01*
X26700Y79156D01*
X26725Y79036D01*
X26746Y78916D01*
X26764Y78795D01*
X26777Y78674D01*
X26787Y78552D01*
X26793Y78430D01*
X26795Y78308D01*
X26795Y72212D01*
X26793Y72090D01*
X26787Y71968D01*
X26777Y71846D01*
X26764Y71725D01*
X26746Y71604D01*
X26725Y71484D01*
X26700Y71364D01*
X26670Y71246D01*
X26638Y71128D01*
X26601Y71012D01*
X26561Y70897D01*
X26517Y70783D01*
X26469Y70670D01*
X26418Y70559D01*
X26363Y70450D01*
X26305Y70343D01*
X26243Y70237D01*
X26178Y70134D01*
X26110Y70033D01*
X26039Y69934D01*
X25964Y69837D01*
X25886Y69743D01*
X25806Y69651D01*
X25722Y69562D01*
X25636Y69476D01*
X25547Y69392D01*
X25455Y69312D01*
X25361Y69234D01*
X25264Y69159D01*
X25165Y69088D01*
X25064Y69020D01*
X24961Y68955D01*
X24855Y68893D01*
X24748Y68835D01*
X24639Y68780D01*
X24528Y68729D01*
X24415Y68681D01*
X24301Y68637D01*
X24186Y68597D01*
X24070Y68560D01*
X23952Y68528D01*
X23834Y68498D01*
X23714Y68473D01*
X23594Y68452D01*
X23473Y68434D01*
X23352Y68421D01*
X23230Y68411D01*
X23108Y68405D01*
X22986Y68403D01*
X22864Y68405D01*
X22742Y68411D01*
X22620Y68421D01*
X22499Y68434D01*
X22378Y68452D01*
X22258Y68473D01*
X22138Y68498D01*
X22020Y68528D01*
X21902Y68560D01*
X21786Y68597D01*
X21671Y68637D01*
X21557Y68681D01*
X21444Y68729D01*
X21333Y68780D01*
X21224Y68835D01*
X21117Y68893D01*
X21011Y68955D01*
X20908Y69020D01*
X20807Y69088D01*
X20708Y69159D01*
X20611Y69234D01*
X20517Y69312D01*
X20425Y69392D01*
X20336Y69476D01*
X20250Y69562D01*
X20166Y69651D01*
X20086Y69743D01*
X20008Y69837D01*
X19933Y69934D01*
X19862Y70033D01*
X19794Y70134D01*
X19729Y70237D01*
X19667Y70343D01*
X19609Y70450D01*
X19554Y70559D01*
X19503Y70670D01*
X19455Y70783D01*
X19411Y70897D01*
X19371Y71012D01*
X19334Y71128D01*
X19302Y71246D01*
X19272Y71364D01*
X19247Y71484D01*
X19226Y71604D01*
X19208Y71725D01*
X19195Y71846D01*
X19185Y71968D01*
X19179Y72090D01*
X19177Y72212D01*
X33742Y70689D02*
X33742Y77546D01*
X33742Y70689D02*
X33744Y70595D01*
X33750Y70500D01*
X33760Y70406D01*
X33773Y70313D01*
X33791Y70220D01*
X33812Y70128D01*
X33837Y70037D01*
X33866Y69947D01*
X33898Y69858D01*
X33935Y69771D01*
X33974Y69685D01*
X34018Y69601D01*
X34064Y69519D01*
X34114Y69439D01*
X34168Y69361D01*
X34224Y69285D01*
X34284Y69212D01*
X34346Y69141D01*
X34412Y69073D01*
X34480Y69007D01*
X34551Y68945D01*
X34624Y68885D01*
X34700Y68829D01*
X34778Y68775D01*
X34858Y68725D01*
X34940Y68679D01*
X35024Y68635D01*
X35110Y68596D01*
X35197Y68559D01*
X35286Y68527D01*
X35376Y68498D01*
X35467Y68473D01*
X35559Y68452D01*
X35652Y68434D01*
X35745Y68421D01*
X35839Y68411D01*
X35934Y68405D01*
X36028Y68403D01*
X39837Y68403D01*
X39837Y77546D01*
X45295Y77546D02*
X49867Y77546D01*
X46819Y82117D02*
X46819Y70689D01*
X46821Y70595D01*
X46827Y70500D01*
X46837Y70406D01*
X46850Y70313D01*
X46868Y70220D01*
X46889Y70128D01*
X46914Y70037D01*
X46943Y69947D01*
X46975Y69858D01*
X47012Y69771D01*
X47051Y69685D01*
X47095Y69601D01*
X47141Y69519D01*
X47191Y69439D01*
X47245Y69361D01*
X47301Y69285D01*
X47361Y69212D01*
X47423Y69141D01*
X47489Y69073D01*
X47557Y69007D01*
X47628Y68945D01*
X47701Y68885D01*
X47777Y68829D01*
X47855Y68775D01*
X47935Y68725D01*
X48017Y68679D01*
X48101Y68635D01*
X48187Y68596D01*
X48274Y68559D01*
X48363Y68527D01*
X48453Y68498D01*
X48544Y68473D01*
X48636Y68452D01*
X48729Y68434D01*
X48822Y68421D01*
X48916Y68411D01*
X49011Y68405D01*
X49105Y68403D01*
X49867Y68403D01*
X56214Y63832D02*
X56214Y77546D01*
X60023Y77546D01*
X60117Y77544D01*
X60212Y77538D01*
X60306Y77528D01*
X60399Y77515D01*
X60492Y77497D01*
X60584Y77476D01*
X60675Y77451D01*
X60765Y77422D01*
X60854Y77390D01*
X60941Y77353D01*
X61027Y77314D01*
X61111Y77270D01*
X61193Y77224D01*
X61273Y77174D01*
X61351Y77120D01*
X61427Y77064D01*
X61500Y77004D01*
X61571Y76942D01*
X61639Y76876D01*
X61705Y76808D01*
X61767Y76737D01*
X61827Y76664D01*
X61883Y76588D01*
X61937Y76510D01*
X61987Y76430D01*
X62033Y76348D01*
X62077Y76264D01*
X62116Y76178D01*
X62153Y76091D01*
X62185Y76002D01*
X62214Y75912D01*
X62239Y75821D01*
X62260Y75729D01*
X62278Y75636D01*
X62291Y75543D01*
X62301Y75449D01*
X62307Y75354D01*
X62309Y75260D01*
X62309Y70689D01*
X62307Y70595D01*
X62301Y70500D01*
X62291Y70406D01*
X62278Y70313D01*
X62260Y70220D01*
X62239Y70128D01*
X62214Y70037D01*
X62185Y69947D01*
X62153Y69858D01*
X62116Y69771D01*
X62077Y69685D01*
X62033Y69601D01*
X61987Y69519D01*
X61937Y69439D01*
X61883Y69361D01*
X61827Y69285D01*
X61767Y69212D01*
X61705Y69141D01*
X61639Y69073D01*
X61571Y69007D01*
X61500Y68945D01*
X61427Y68885D01*
X61351Y68829D01*
X61273Y68775D01*
X61193Y68725D01*
X61111Y68679D01*
X61027Y68635D01*
X60941Y68596D01*
X60854Y68559D01*
X60765Y68527D01*
X60675Y68498D01*
X60584Y68473D01*
X60492Y68452D01*
X60399Y68434D01*
X60306Y68421D01*
X60212Y68411D01*
X60117Y68405D01*
X60023Y68403D01*
X56214Y68403D01*
X68966Y70689D02*
X68966Y77546D01*
X68966Y70689D02*
X68968Y70595D01*
X68974Y70500D01*
X68984Y70406D01*
X68997Y70313D01*
X69015Y70220D01*
X69036Y70128D01*
X69061Y70037D01*
X69090Y69947D01*
X69122Y69858D01*
X69159Y69771D01*
X69198Y69685D01*
X69242Y69601D01*
X69288Y69519D01*
X69338Y69439D01*
X69392Y69361D01*
X69448Y69285D01*
X69508Y69212D01*
X69570Y69141D01*
X69636Y69073D01*
X69704Y69007D01*
X69775Y68945D01*
X69848Y68885D01*
X69924Y68829D01*
X70002Y68775D01*
X70082Y68725D01*
X70164Y68679D01*
X70248Y68635D01*
X70334Y68596D01*
X70421Y68559D01*
X70510Y68527D01*
X70600Y68498D01*
X70691Y68473D01*
X70783Y68452D01*
X70876Y68434D01*
X70969Y68421D01*
X71063Y68411D01*
X71158Y68405D01*
X71252Y68403D01*
X75061Y68403D01*
X75061Y77546D01*
X80519Y77546D02*
X85091Y77546D01*
X82043Y82117D02*
X82043Y70689D01*
X82045Y70595D01*
X82051Y70500D01*
X82061Y70406D01*
X82074Y70313D01*
X82092Y70220D01*
X82113Y70128D01*
X82138Y70037D01*
X82167Y69947D01*
X82199Y69858D01*
X82236Y69771D01*
X82275Y69685D01*
X82319Y69601D01*
X82365Y69519D01*
X82415Y69439D01*
X82469Y69361D01*
X82525Y69285D01*
X82585Y69212D01*
X82647Y69141D01*
X82713Y69073D01*
X82781Y69007D01*
X82852Y68945D01*
X82925Y68885D01*
X83001Y68829D01*
X83079Y68775D01*
X83159Y68725D01*
X83241Y68679D01*
X83325Y68635D01*
X83411Y68596D01*
X83498Y68559D01*
X83587Y68527D01*
X83677Y68498D01*
X83768Y68473D01*
X83860Y68452D01*
X83953Y68434D01*
X84046Y68421D01*
X84140Y68411D01*
X84235Y68405D01*
X84329Y68403D01*
X85091Y68403D01*
X94044Y68403D02*
X97092Y68403D01*
X94044Y68403D02*
X93935Y68405D01*
X93827Y68411D01*
X93718Y68420D01*
X93610Y68434D01*
X93503Y68451D01*
X93396Y68473D01*
X93290Y68498D01*
X93185Y68526D01*
X93081Y68559D01*
X92979Y68595D01*
X92878Y68635D01*
X92778Y68678D01*
X92680Y68725D01*
X92583Y68776D01*
X92489Y68830D01*
X92396Y68887D01*
X92306Y68947D01*
X92217Y69011D01*
X92131Y69078D01*
X92048Y69147D01*
X91967Y69220D01*
X91889Y69296D01*
X91813Y69374D01*
X91740Y69455D01*
X91671Y69538D01*
X91604Y69624D01*
X91540Y69713D01*
X91480Y69803D01*
X91423Y69896D01*
X91369Y69990D01*
X91318Y70087D01*
X91271Y70185D01*
X91228Y70285D01*
X91188Y70386D01*
X91152Y70488D01*
X91119Y70592D01*
X91091Y70697D01*
X91066Y70803D01*
X91044Y70910D01*
X91027Y71017D01*
X91013Y71125D01*
X91004Y71234D01*
X90998Y71342D01*
X90996Y71451D01*
X90997Y71451D02*
X90997Y79069D01*
X90996Y79069D02*
X90998Y79178D01*
X91004Y79286D01*
X91013Y79395D01*
X91027Y79503D01*
X91044Y79610D01*
X91066Y79717D01*
X91091Y79823D01*
X91119Y79928D01*
X91152Y80032D01*
X91188Y80134D01*
X91228Y80235D01*
X91271Y80335D01*
X91318Y80433D01*
X91369Y80530D01*
X91423Y80624D01*
X91480Y80717D01*
X91540Y80807D01*
X91604Y80896D01*
X91671Y80982D01*
X91740Y81065D01*
X91813Y81146D01*
X91889Y81224D01*
X91967Y81300D01*
X92048Y81373D01*
X92131Y81442D01*
X92217Y81509D01*
X92306Y81573D01*
X92396Y81633D01*
X92489Y81690D01*
X92583Y81744D01*
X92680Y81795D01*
X92778Y81842D01*
X92878Y81885D01*
X92979Y81925D01*
X93081Y81961D01*
X93185Y81994D01*
X93290Y82022D01*
X93396Y82047D01*
X93503Y82069D01*
X93610Y82086D01*
X93718Y82100D01*
X93827Y82109D01*
X93935Y82115D01*
X94044Y82117D01*
X97092Y82117D01*
X102762Y74498D02*
X102762Y71451D01*
X102762Y74498D02*
X102764Y74607D01*
X102770Y74715D01*
X102779Y74824D01*
X102793Y74932D01*
X102810Y75039D01*
X102832Y75146D01*
X102857Y75252D01*
X102885Y75357D01*
X102918Y75461D01*
X102954Y75563D01*
X102994Y75664D01*
X103037Y75764D01*
X103084Y75862D01*
X103135Y75959D01*
X103189Y76053D01*
X103246Y76146D01*
X103306Y76236D01*
X103370Y76325D01*
X103437Y76411D01*
X103506Y76494D01*
X103579Y76575D01*
X103655Y76653D01*
X103733Y76729D01*
X103814Y76802D01*
X103897Y76871D01*
X103983Y76938D01*
X104072Y77002D01*
X104162Y77062D01*
X104255Y77119D01*
X104349Y77173D01*
X104446Y77224D01*
X104544Y77271D01*
X104644Y77314D01*
X104745Y77354D01*
X104847Y77390D01*
X104951Y77423D01*
X105056Y77451D01*
X105162Y77476D01*
X105269Y77498D01*
X105376Y77515D01*
X105484Y77529D01*
X105593Y77538D01*
X105701Y77544D01*
X105810Y77546D01*
X105919Y77544D01*
X106027Y77538D01*
X106136Y77529D01*
X106244Y77515D01*
X106351Y77498D01*
X106458Y77476D01*
X106564Y77451D01*
X106669Y77423D01*
X106773Y77390D01*
X106875Y77354D01*
X106976Y77314D01*
X107076Y77271D01*
X107174Y77224D01*
X107271Y77173D01*
X107365Y77119D01*
X107458Y77062D01*
X107548Y77002D01*
X107637Y76938D01*
X107723Y76871D01*
X107806Y76802D01*
X107887Y76729D01*
X107965Y76653D01*
X108041Y76575D01*
X108114Y76494D01*
X108183Y76411D01*
X108250Y76325D01*
X108314Y76236D01*
X108374Y76146D01*
X108431Y76053D01*
X108485Y75959D01*
X108536Y75862D01*
X108583Y75764D01*
X108626Y75664D01*
X108666Y75563D01*
X108702Y75461D01*
X108735Y75357D01*
X108763Y75252D01*
X108788Y75146D01*
X108810Y75039D01*
X108827Y74932D01*
X108841Y74824D01*
X108850Y74715D01*
X108856Y74607D01*
X108858Y74498D01*
X108857Y74498D02*
X108857Y71451D01*
X108858Y71451D02*
X108856Y71342D01*
X108850Y71234D01*
X108841Y71125D01*
X108827Y71017D01*
X108810Y70910D01*
X108788Y70803D01*
X108763Y70697D01*
X108735Y70592D01*
X108702Y70488D01*
X108666Y70386D01*
X108626Y70285D01*
X108583Y70185D01*
X108536Y70087D01*
X108485Y69990D01*
X108431Y69896D01*
X108374Y69803D01*
X108314Y69713D01*
X108250Y69624D01*
X108183Y69538D01*
X108114Y69455D01*
X108041Y69374D01*
X107965Y69296D01*
X107887Y69220D01*
X107806Y69147D01*
X107723Y69078D01*
X107637Y69011D01*
X107548Y68947D01*
X107458Y68887D01*
X107365Y68830D01*
X107271Y68776D01*
X107174Y68725D01*
X107076Y68678D01*
X106976Y68635D01*
X106875Y68595D01*
X106773Y68559D01*
X106669Y68526D01*
X106564Y68498D01*
X106458Y68473D01*
X106351Y68451D01*
X106244Y68434D01*
X106136Y68420D01*
X106027Y68411D01*
X105919Y68405D01*
X105810Y68403D01*
X105701Y68405D01*
X105593Y68411D01*
X105484Y68420D01*
X105376Y68434D01*
X105269Y68451D01*
X105162Y68473D01*
X105056Y68498D01*
X104951Y68526D01*
X104847Y68559D01*
X104745Y68595D01*
X104644Y68635D01*
X104544Y68678D01*
X104446Y68725D01*
X104349Y68776D01*
X104255Y68830D01*
X104162Y68887D01*
X104072Y68947D01*
X103983Y69011D01*
X103897Y69078D01*
X103814Y69147D01*
X103733Y69220D01*
X103655Y69296D01*
X103579Y69374D01*
X103506Y69455D01*
X103437Y69538D01*
X103370Y69624D01*
X103306Y69713D01*
X103246Y69803D01*
X103189Y69896D01*
X103135Y69990D01*
X103084Y70087D01*
X103037Y70185D01*
X102994Y70285D01*
X102954Y70386D01*
X102918Y70488D01*
X102885Y70592D01*
X102857Y70697D01*
X102832Y70803D01*
X102810Y70910D01*
X102793Y71017D01*
X102779Y71125D01*
X102770Y71234D01*
X102764Y71342D01*
X102762Y71451D01*
X115614Y68403D02*
X115614Y77546D01*
X119423Y77546D01*
X119517Y77544D01*
X119612Y77538D01*
X119706Y77528D01*
X119799Y77515D01*
X119892Y77497D01*
X119984Y77476D01*
X120075Y77451D01*
X120165Y77422D01*
X120254Y77390D01*
X120341Y77353D01*
X120427Y77314D01*
X120511Y77270D01*
X120593Y77224D01*
X120673Y77174D01*
X120751Y77120D01*
X120827Y77064D01*
X120900Y77004D01*
X120971Y76942D01*
X121039Y76876D01*
X121105Y76808D01*
X121167Y76737D01*
X121227Y76664D01*
X121283Y76588D01*
X121337Y76510D01*
X121387Y76430D01*
X121433Y76348D01*
X121477Y76264D01*
X121516Y76178D01*
X121553Y76091D01*
X121585Y76002D01*
X121614Y75912D01*
X121639Y75821D01*
X121660Y75729D01*
X121678Y75636D01*
X121691Y75543D01*
X121701Y75449D01*
X121707Y75354D01*
X121709Y75260D01*
X121709Y68403D01*
X127167Y77546D02*
X131738Y77546D01*
X128691Y82117D02*
X128691Y70689D01*
X128693Y70595D01*
X128699Y70500D01*
X128709Y70406D01*
X128722Y70313D01*
X128740Y70220D01*
X128761Y70128D01*
X128786Y70037D01*
X128815Y69947D01*
X128847Y69858D01*
X128884Y69771D01*
X128923Y69685D01*
X128967Y69601D01*
X129013Y69519D01*
X129063Y69439D01*
X129117Y69361D01*
X129173Y69285D01*
X129233Y69212D01*
X129295Y69141D01*
X129361Y69073D01*
X129429Y69007D01*
X129500Y68945D01*
X129573Y68885D01*
X129649Y68829D01*
X129727Y68775D01*
X129807Y68725D01*
X129889Y68679D01*
X129973Y68635D01*
X130059Y68596D01*
X130146Y68559D01*
X130235Y68527D01*
X130325Y68498D01*
X130416Y68473D01*
X130508Y68452D01*
X130601Y68434D01*
X130694Y68421D01*
X130788Y68411D01*
X130883Y68405D01*
X130977Y68403D01*
X131738Y68403D01*
X138099Y68403D02*
X138099Y77546D01*
X142671Y77546D01*
X142671Y76022D01*
X147506Y74498D02*
X147506Y71451D01*
X147505Y74498D02*
X147507Y74607D01*
X147513Y74715D01*
X147522Y74824D01*
X147536Y74932D01*
X147553Y75039D01*
X147575Y75146D01*
X147600Y75252D01*
X147628Y75357D01*
X147661Y75461D01*
X147697Y75563D01*
X147737Y75664D01*
X147780Y75764D01*
X147827Y75862D01*
X147878Y75959D01*
X147932Y76053D01*
X147989Y76146D01*
X148049Y76236D01*
X148113Y76325D01*
X148180Y76411D01*
X148249Y76494D01*
X148322Y76575D01*
X148398Y76653D01*
X148476Y76729D01*
X148557Y76802D01*
X148640Y76871D01*
X148726Y76938D01*
X148815Y77002D01*
X148905Y77062D01*
X148998Y77119D01*
X149092Y77173D01*
X149189Y77224D01*
X149287Y77271D01*
X149387Y77314D01*
X149488Y77354D01*
X149590Y77390D01*
X149694Y77423D01*
X149799Y77451D01*
X149905Y77476D01*
X150012Y77498D01*
X150119Y77515D01*
X150227Y77529D01*
X150336Y77538D01*
X150444Y77544D01*
X150553Y77546D01*
X150662Y77544D01*
X150770Y77538D01*
X150879Y77529D01*
X150987Y77515D01*
X151094Y77498D01*
X151201Y77476D01*
X151307Y77451D01*
X151412Y77423D01*
X151516Y77390D01*
X151618Y77354D01*
X151719Y77314D01*
X151819Y77271D01*
X151917Y77224D01*
X152014Y77173D01*
X152108Y77119D01*
X152201Y77062D01*
X152291Y77002D01*
X152380Y76938D01*
X152466Y76871D01*
X152549Y76802D01*
X152630Y76729D01*
X152708Y76653D01*
X152784Y76575D01*
X152857Y76494D01*
X152926Y76411D01*
X152993Y76325D01*
X153057Y76236D01*
X153117Y76146D01*
X153174Y76053D01*
X153228Y75959D01*
X153279Y75862D01*
X153326Y75764D01*
X153369Y75664D01*
X153409Y75563D01*
X153445Y75461D01*
X153478Y75357D01*
X153506Y75252D01*
X153531Y75146D01*
X153553Y75039D01*
X153570Y74932D01*
X153584Y74824D01*
X153593Y74715D01*
X153599Y74607D01*
X153601Y74498D01*
X153601Y71451D01*
X153599Y71342D01*
X153593Y71234D01*
X153584Y71125D01*
X153570Y71017D01*
X153553Y70910D01*
X153531Y70803D01*
X153506Y70697D01*
X153478Y70592D01*
X153445Y70488D01*
X153409Y70386D01*
X153369Y70285D01*
X153326Y70185D01*
X153279Y70087D01*
X153228Y69990D01*
X153174Y69896D01*
X153117Y69803D01*
X153057Y69713D01*
X152993Y69624D01*
X152926Y69538D01*
X152857Y69455D01*
X152784Y69374D01*
X152708Y69296D01*
X152630Y69220D01*
X152549Y69147D01*
X152466Y69078D01*
X152380Y69011D01*
X152291Y68947D01*
X152201Y68887D01*
X152108Y68830D01*
X152014Y68776D01*
X151917Y68725D01*
X151819Y68678D01*
X151719Y68635D01*
X151618Y68595D01*
X151516Y68559D01*
X151412Y68526D01*
X151307Y68498D01*
X151201Y68473D01*
X151094Y68451D01*
X150987Y68434D01*
X150879Y68420D01*
X150770Y68411D01*
X150662Y68405D01*
X150553Y68403D01*
X150444Y68405D01*
X150336Y68411D01*
X150227Y68420D01*
X150119Y68434D01*
X150012Y68451D01*
X149905Y68473D01*
X149799Y68498D01*
X149694Y68526D01*
X149590Y68559D01*
X149488Y68595D01*
X149387Y68635D01*
X149287Y68678D01*
X149189Y68725D01*
X149092Y68776D01*
X148998Y68830D01*
X148905Y68887D01*
X148815Y68947D01*
X148726Y69011D01*
X148640Y69078D01*
X148557Y69147D01*
X148476Y69220D01*
X148398Y69296D01*
X148322Y69374D01*
X148249Y69455D01*
X148180Y69538D01*
X148113Y69624D01*
X148049Y69713D01*
X147989Y69803D01*
X147932Y69896D01*
X147878Y69990D01*
X147827Y70087D01*
X147780Y70185D01*
X147737Y70285D01*
X147697Y70386D01*
X147661Y70488D01*
X147628Y70592D01*
X147600Y70697D01*
X147575Y70803D01*
X147553Y70910D01*
X147536Y71017D01*
X147522Y71125D01*
X147513Y71234D01*
X147507Y71342D01*
X147505Y71451D01*
X159968Y70689D02*
X159968Y82117D01*
X159968Y70689D02*
X159970Y70595D01*
X159976Y70500D01*
X159986Y70406D01*
X159999Y70313D01*
X160017Y70220D01*
X160038Y70128D01*
X160063Y70037D01*
X160092Y69947D01*
X160124Y69858D01*
X160161Y69771D01*
X160200Y69685D01*
X160244Y69601D01*
X160290Y69519D01*
X160340Y69439D01*
X160394Y69361D01*
X160450Y69285D01*
X160510Y69212D01*
X160572Y69141D01*
X160638Y69073D01*
X160706Y69007D01*
X160777Y68945D01*
X160850Y68885D01*
X160926Y68829D01*
X161004Y68775D01*
X161084Y68725D01*
X161166Y68679D01*
X161250Y68635D01*
X161336Y68596D01*
X161423Y68559D01*
X161512Y68527D01*
X161602Y68498D01*
X161693Y68473D01*
X161785Y68452D01*
X161878Y68434D01*
X161971Y68421D01*
X162065Y68411D01*
X162160Y68405D01*
X162254Y68403D01*
X168641Y73736D02*
X172450Y72212D01*
X168641Y73736D02*
X168559Y73771D01*
X168479Y73809D01*
X168402Y73851D01*
X168326Y73896D01*
X168252Y73945D01*
X168180Y73997D01*
X168111Y74052D01*
X168044Y74110D01*
X167980Y74171D01*
X167919Y74234D01*
X167861Y74301D01*
X167805Y74370D01*
X167753Y74441D01*
X167704Y74515D01*
X167659Y74591D01*
X167617Y74668D01*
X167578Y74748D01*
X167543Y74829D01*
X167512Y74912D01*
X167484Y74996D01*
X167461Y75081D01*
X167441Y75167D01*
X167424Y75254D01*
X167412Y75342D01*
X167404Y75430D01*
X167400Y75518D01*
X167399Y75606D01*
X167403Y75695D01*
X167410Y75783D01*
X167422Y75870D01*
X167437Y75957D01*
X167457Y76044D01*
X167480Y76129D01*
X167507Y76213D01*
X167537Y76296D01*
X167572Y76378D01*
X167610Y76457D01*
X167651Y76535D01*
X167696Y76612D01*
X167744Y76686D01*
X167796Y76757D01*
X167851Y76827D01*
X167908Y76894D01*
X167969Y76958D01*
X168033Y77020D01*
X168099Y77078D01*
X168168Y77134D01*
X168239Y77186D01*
X168312Y77235D01*
X168388Y77281D01*
X168465Y77324D01*
X168545Y77362D01*
X168626Y77398D01*
X168708Y77429D01*
X168792Y77457D01*
X168877Y77481D01*
X168963Y77502D01*
X169050Y77518D01*
X169138Y77531D01*
X169226Y77539D01*
X169314Y77544D01*
X169402Y77545D01*
X169403Y77546D02*
X169611Y77541D01*
X169819Y77530D01*
X170026Y77515D01*
X170233Y77494D01*
X170440Y77469D01*
X170645Y77438D01*
X170850Y77403D01*
X171054Y77363D01*
X171258Y77318D01*
X171460Y77268D01*
X171660Y77213D01*
X171860Y77153D01*
X172057Y77089D01*
X172254Y77020D01*
X172448Y76946D01*
X172641Y76867D01*
X172831Y76784D01*
X172449Y72212D02*
X172531Y72177D01*
X172610Y72139D01*
X172688Y72097D01*
X172764Y72052D01*
X172838Y72003D01*
X172910Y71951D01*
X172979Y71896D01*
X173046Y71838D01*
X173110Y71777D01*
X173171Y71714D01*
X173229Y71647D01*
X173285Y71578D01*
X173337Y71507D01*
X173386Y71433D01*
X173431Y71357D01*
X173473Y71280D01*
X173512Y71200D01*
X173547Y71119D01*
X173578Y71036D01*
X173606Y70952D01*
X173629Y70867D01*
X173649Y70781D01*
X173666Y70694D01*
X173678Y70606D01*
X173686Y70518D01*
X173690Y70430D01*
X173691Y70342D01*
X173687Y70253D01*
X173680Y70165D01*
X173668Y70078D01*
X173653Y69991D01*
X173633Y69904D01*
X173610Y69819D01*
X173583Y69735D01*
X173553Y69652D01*
X173518Y69570D01*
X173480Y69491D01*
X173439Y69413D01*
X173394Y69336D01*
X173346Y69262D01*
X173294Y69191D01*
X173239Y69121D01*
X173182Y69054D01*
X173121Y68990D01*
X173057Y68928D01*
X172991Y68870D01*
X172922Y68814D01*
X172851Y68762D01*
X172778Y68713D01*
X172702Y68667D01*
X172625Y68624D01*
X172545Y68586D01*
X172464Y68550D01*
X172382Y68519D01*
X172298Y68491D01*
X172213Y68467D01*
X172127Y68446D01*
X172040Y68430D01*
X171952Y68417D01*
X171864Y68409D01*
X171776Y68404D01*
X171688Y68403D01*
X171383Y68411D01*
X171078Y68427D01*
X170773Y68449D01*
X170469Y68479D01*
X170165Y68515D01*
X169863Y68559D01*
X169561Y68610D01*
X169261Y68669D01*
X168963Y68734D01*
X168666Y68806D01*
X168371Y68886D01*
X168078Y68972D01*
X167787Y69065D01*
X167498Y69165D01*
D11*
X68235Y266700D03*
X68235Y254000D03*
X68235Y241300D03*
X68235Y228600D03*
X68235Y215900D03*
X68235Y203200D03*
X68235Y190500D03*
X68235Y177800D03*
X68235Y165100D03*
X160365Y165100D03*
X160365Y177800D03*
X160365Y190500D03*
X160365Y203200D03*
X160365Y215900D03*
X160365Y228600D03*
X160365Y241300D03*
X160365Y254000D03*
X160365Y266700D03*
D12*
X208280Y88900D02*
X223520Y88900D01*
X259080Y88900D02*
X274320Y88900D01*
X223520Y203200D02*
X208280Y203200D01*
X259080Y203200D02*
X274320Y203200D01*
X223520Y317500D02*
X208280Y317500D01*
X259080Y317500D02*
X274320Y317500D01*
D13*
X325000Y88900D03*
X310000Y88900D03*
X325000Y203200D03*
X310000Y203200D03*
X325000Y307500D03*
X310000Y307500D03*
D14*
X355600Y117500D03*
X355600Y136500D03*
X355600Y179500D03*
X355600Y160500D03*
X342900Y276200D03*
X342900Y257200D03*
D12*
X33020Y292100D02*
X17780Y292100D01*
X17780Y266700D02*
X33020Y266700D01*
X33020Y241300D02*
X17780Y241300D01*
X17780Y215900D02*
X33020Y215900D01*
X33020Y190500D02*
X17780Y190500D01*
X17780Y165100D02*
X33020Y165100D01*
X33020Y139700D02*
X17780Y139700D01*
D13*
X325000Y327500D03*
X310000Y327500D03*
D14*
X381000Y276200D03*
X381000Y257200D03*
D15*
X266700Y88900D03*
D16*
X355600Y106800D02*
X355600Y117500D01*
X355600Y106800D02*
X337700Y88900D01*
X325000Y88900D01*
X355600Y179500D02*
X355600Y185300D01*
X337700Y203200D01*
X325000Y203200D01*
X342900Y289600D02*
X325000Y307500D01*
X342900Y289600D02*
X342900Y276200D01*
X68235Y266700D02*
X25400Y266700D01*
X50800Y254000D02*
X68235Y254000D01*
X38100Y241300D02*
X25400Y241300D01*
X38100Y241300D02*
X50800Y254000D01*
X59149Y241300D02*
X33749Y215900D01*
X25400Y215900D01*
X59149Y241300D02*
X68235Y241300D01*
X68235Y190500D02*
X25400Y190500D01*
X50800Y177800D02*
X68235Y177800D01*
X50800Y177800D02*
X38100Y165100D01*
X25400Y165100D01*
X127000Y292100D02*
X152400Y292100D01*
X160365Y292100D01*
X160365Y266700D01*
X88900Y203200D02*
X68235Y203200D01*
X88900Y203200D02*
X101600Y215900D01*
X101600Y292100D01*
X25400Y292100D01*
X101600Y292100D02*
X127000Y292100D01*
X325000Y327500D02*
X345600Y327500D01*
X381000Y292100D01*
X381000Y276200D01*
X292100Y50800D02*
X203200Y50800D01*
X292100Y50800D02*
X310000Y68700D01*
X310000Y88900D01*
X160365Y143645D02*
X160365Y165100D01*
X186998Y117012D02*
X186998Y67002D01*
X203200Y50800D01*
X186998Y117012D02*
X160365Y143645D01*
D15*
X215900Y88900D03*
D16*
X182151Y177800D02*
X160365Y177800D01*
X215900Y144051D02*
X215900Y88900D01*
X215900Y144051D02*
X182151Y177800D01*
X190500Y190500D02*
X160365Y190500D01*
X190500Y190500D02*
X203200Y177800D01*
X228600Y152400D01*
X266700Y152400D01*
X279400Y152400D01*
X304800Y177800D01*
X310000Y183000D01*
X310000Y203200D01*
X215900Y203200D02*
X160365Y203200D01*
D15*
X215900Y203200D03*
D16*
X279400Y241300D02*
X310000Y271900D01*
X310000Y307500D01*
X194591Y215900D02*
X160365Y215900D01*
X194591Y215900D02*
X219991Y241300D01*
X279400Y241300D01*
X191371Y228600D02*
X160365Y228600D01*
X191371Y228600D02*
X215900Y253129D01*
X215900Y317500D01*
D15*
X215900Y317500D03*
D16*
X177800Y241300D02*
X160365Y241300D01*
X177800Y241300D02*
X177800Y330200D01*
X203200Y355600D01*
X292100Y355600D01*
X310000Y337700D01*
X310000Y327500D01*
D17*
X0Y0D02*
X400000Y0D01*
X400000Y400000D01*
X0Y400000D01*
X0Y0D01*
M02*
