G04 EAGLE Gerber RS-274X export*
G75*
%MOMM*%
%FSLAX34Y34*%
%LPD*%
%INSilkscreen Top*%
%IPPOS*%
%AMOC8*
5,1,8,0,0,1.08239X$1,22.5*%
G01*
G04 Define Apertures*
%ADD10C,0.203200*%
%ADD11C,0.300000*%
%ADD12C,0.500000*%
%ADD13C,0.120000*%
%ADD14C,0.127000*%
%ADD15C,0.152400*%
%ADD16R,0.250000X0.250000*%
%ADD17C,0.254000*%
D10*
X216916Y267716D02*
X216916Y278384D01*
X219879Y278384D01*
X219986Y278382D01*
X220093Y278376D01*
X220199Y278367D01*
X220305Y278353D01*
X220411Y278336D01*
X220516Y278315D01*
X220620Y278290D01*
X220723Y278261D01*
X220825Y278229D01*
X220926Y278193D01*
X221025Y278153D01*
X221123Y278110D01*
X221219Y278063D01*
X221314Y278013D01*
X221407Y277960D01*
X221497Y277903D01*
X221586Y277843D01*
X221672Y277780D01*
X221756Y277714D01*
X221838Y277644D01*
X221917Y277572D01*
X221993Y277497D01*
X222067Y277419D01*
X222137Y277339D01*
X222205Y277256D01*
X222270Y277171D01*
X222331Y277084D01*
X222390Y276994D01*
X222445Y276903D01*
X222497Y276809D01*
X222545Y276713D01*
X222590Y276616D01*
X222632Y276518D01*
X222669Y276418D01*
X222704Y276316D01*
X222734Y276214D01*
X222761Y276110D01*
X222784Y276006D01*
X222803Y275900D01*
X222818Y275794D01*
X222830Y275688D01*
X222838Y275581D01*
X222842Y275474D01*
X222842Y275368D01*
X222838Y275261D01*
X222830Y275154D01*
X222818Y275048D01*
X222803Y274942D01*
X222784Y274836D01*
X222761Y274732D01*
X222734Y274628D01*
X222704Y274526D01*
X222669Y274424D01*
X222632Y274324D01*
X222590Y274226D01*
X222545Y274129D01*
X222497Y274033D01*
X222445Y273940D01*
X222390Y273848D01*
X222331Y273758D01*
X222270Y273671D01*
X222205Y273586D01*
X222137Y273503D01*
X222067Y273423D01*
X221993Y273345D01*
X221917Y273270D01*
X221838Y273198D01*
X221756Y273128D01*
X221672Y273062D01*
X221586Y272999D01*
X221497Y272939D01*
X221407Y272882D01*
X221314Y272829D01*
X221219Y272779D01*
X221123Y272732D01*
X221025Y272689D01*
X220926Y272649D01*
X220825Y272613D01*
X220723Y272581D01*
X220620Y272552D01*
X220516Y272527D01*
X220411Y272506D01*
X220305Y272489D01*
X220199Y272475D01*
X220093Y272466D01*
X219986Y272460D01*
X219879Y272458D01*
X219879Y272457D02*
X216916Y272457D01*
X230886Y267716D02*
X230982Y267718D01*
X231077Y267724D01*
X231172Y267733D01*
X231266Y267747D01*
X231360Y267764D01*
X231453Y267785D01*
X231546Y267810D01*
X231637Y267838D01*
X231727Y267870D01*
X231815Y267906D01*
X231902Y267945D01*
X231988Y267988D01*
X232072Y268034D01*
X232153Y268083D01*
X232233Y268136D01*
X232310Y268192D01*
X232386Y268250D01*
X232458Y268312D01*
X232528Y268377D01*
X232596Y268445D01*
X232661Y268515D01*
X232723Y268587D01*
X232781Y268663D01*
X232837Y268740D01*
X232890Y268820D01*
X232939Y268902D01*
X232985Y268985D01*
X233028Y269071D01*
X233067Y269158D01*
X233103Y269246D01*
X233135Y269336D01*
X233163Y269427D01*
X233188Y269520D01*
X233209Y269613D01*
X233226Y269707D01*
X233240Y269801D01*
X233249Y269896D01*
X233255Y269992D01*
X233257Y270087D01*
X230886Y267716D02*
X230750Y267718D01*
X230613Y267723D01*
X230477Y267733D01*
X230342Y267746D01*
X230206Y267762D01*
X230072Y267783D01*
X229937Y267807D01*
X229804Y267834D01*
X229671Y267866D01*
X229539Y267900D01*
X229408Y267939D01*
X229279Y267981D01*
X229150Y268026D01*
X229023Y268075D01*
X228897Y268128D01*
X228773Y268184D01*
X228650Y268243D01*
X228529Y268305D01*
X228409Y268371D01*
X228292Y268440D01*
X228176Y268513D01*
X228062Y268588D01*
X227951Y268666D01*
X227841Y268748D01*
X227734Y268832D01*
X227630Y268919D01*
X227527Y269009D01*
X227427Y269102D01*
X227330Y269198D01*
X227626Y276013D02*
X227628Y276108D01*
X227634Y276204D01*
X227643Y276299D01*
X227657Y276393D01*
X227674Y276487D01*
X227695Y276580D01*
X227720Y276673D01*
X227748Y276764D01*
X227780Y276854D01*
X227816Y276942D01*
X227855Y277029D01*
X227898Y277115D01*
X227944Y277199D01*
X227993Y277280D01*
X228046Y277360D01*
X228102Y277437D01*
X228160Y277513D01*
X228222Y277585D01*
X228287Y277655D01*
X228355Y277723D01*
X228425Y277788D01*
X228497Y277850D01*
X228573Y277908D01*
X228650Y277964D01*
X228730Y278017D01*
X228812Y278066D01*
X228895Y278112D01*
X228981Y278155D01*
X229068Y278194D01*
X229156Y278230D01*
X229246Y278262D01*
X229337Y278290D01*
X229430Y278315D01*
X229523Y278336D01*
X229617Y278353D01*
X229711Y278367D01*
X229806Y278376D01*
X229902Y278382D01*
X229997Y278384D01*
X230127Y278382D01*
X230257Y278376D01*
X230387Y278367D01*
X230516Y278354D01*
X230645Y278337D01*
X230773Y278316D01*
X230901Y278291D01*
X231028Y278263D01*
X231154Y278231D01*
X231279Y278195D01*
X231403Y278156D01*
X231525Y278113D01*
X231647Y278067D01*
X231767Y278016D01*
X231885Y277963D01*
X232002Y277906D01*
X232117Y277846D01*
X232231Y277782D01*
X232342Y277715D01*
X232452Y277645D01*
X232559Y277571D01*
X232664Y277495D01*
X228812Y273938D02*
X228730Y273989D01*
X228650Y274043D01*
X228572Y274099D01*
X228497Y274159D01*
X228424Y274222D01*
X228354Y274288D01*
X228287Y274356D01*
X228222Y274427D01*
X228160Y274501D01*
X228101Y274577D01*
X228045Y274655D01*
X227993Y274736D01*
X227943Y274818D01*
X227897Y274903D01*
X227855Y274989D01*
X227815Y275077D01*
X227780Y275166D01*
X227748Y275257D01*
X227719Y275349D01*
X227695Y275442D01*
X227674Y275535D01*
X227657Y275630D01*
X227643Y275725D01*
X227634Y275821D01*
X227628Y275917D01*
X227626Y276013D01*
X232072Y272162D02*
X232153Y272111D01*
X232233Y272057D01*
X232311Y272001D01*
X232386Y271941D01*
X232459Y271878D01*
X232529Y271812D01*
X232596Y271744D01*
X232661Y271673D01*
X232723Y271599D01*
X232782Y271523D01*
X232838Y271445D01*
X232890Y271364D01*
X232940Y271282D01*
X232986Y271197D01*
X233028Y271111D01*
X233068Y271023D01*
X233103Y270934D01*
X233135Y270843D01*
X233164Y270751D01*
X233188Y270658D01*
X233209Y270565D01*
X233226Y270470D01*
X233240Y270375D01*
X233249Y270279D01*
X233255Y270183D01*
X233257Y270087D01*
X232071Y272161D02*
X228812Y273939D01*
X216916Y164084D02*
X216916Y153416D01*
X216916Y164084D02*
X219879Y164084D01*
X219985Y164082D01*
X220090Y164076D01*
X220196Y164067D01*
X220301Y164054D01*
X220405Y164037D01*
X220509Y164016D01*
X220612Y163992D01*
X220714Y163964D01*
X220815Y163932D01*
X220914Y163897D01*
X221013Y163858D01*
X221110Y163816D01*
X221205Y163771D01*
X221299Y163722D01*
X221391Y163669D01*
X221481Y163614D01*
X221569Y163555D01*
X221655Y163493D01*
X221738Y163428D01*
X221819Y163360D01*
X221898Y163290D01*
X221974Y163216D01*
X222048Y163140D01*
X222118Y163061D01*
X222186Y162980D01*
X222251Y162897D01*
X222313Y162811D01*
X222372Y162723D01*
X222427Y162633D01*
X222480Y162541D01*
X222529Y162447D01*
X222574Y162352D01*
X222616Y162255D01*
X222655Y162156D01*
X222690Y162057D01*
X222722Y161956D01*
X222750Y161854D01*
X222774Y161751D01*
X222795Y161647D01*
X222812Y161543D01*
X222825Y161438D01*
X222834Y161332D01*
X222840Y161227D01*
X222842Y161121D01*
X222843Y161121D02*
X222843Y156379D01*
X222842Y156379D02*
X222840Y156273D01*
X222834Y156168D01*
X222825Y156062D01*
X222812Y155957D01*
X222795Y155853D01*
X222774Y155749D01*
X222750Y155646D01*
X222722Y155544D01*
X222690Y155443D01*
X222655Y155344D01*
X222616Y155245D01*
X222574Y155148D01*
X222529Y155053D01*
X222480Y154959D01*
X222427Y154867D01*
X222372Y154777D01*
X222313Y154689D01*
X222251Y154603D01*
X222186Y154520D01*
X222118Y154439D01*
X222048Y154360D01*
X221974Y154284D01*
X221898Y154210D01*
X221819Y154140D01*
X221738Y154072D01*
X221655Y154007D01*
X221569Y153945D01*
X221481Y153886D01*
X221391Y153831D01*
X221299Y153778D01*
X221205Y153729D01*
X221110Y153684D01*
X221013Y153642D01*
X220914Y153603D01*
X220815Y153568D01*
X220714Y153536D01*
X220612Y153508D01*
X220509Y153484D01*
X220405Y153463D01*
X220301Y153446D01*
X220196Y153433D01*
X220090Y153424D01*
X219985Y153418D01*
X219879Y153416D01*
X216916Y153416D01*
X229108Y153416D02*
X229108Y164084D01*
X232071Y164084D01*
X232177Y164082D01*
X232282Y164076D01*
X232388Y164067D01*
X232493Y164054D01*
X232597Y164037D01*
X232701Y164016D01*
X232804Y163992D01*
X232906Y163964D01*
X233007Y163932D01*
X233106Y163897D01*
X233205Y163858D01*
X233302Y163816D01*
X233397Y163771D01*
X233491Y163722D01*
X233583Y163669D01*
X233673Y163614D01*
X233761Y163555D01*
X233847Y163493D01*
X233930Y163428D01*
X234011Y163360D01*
X234090Y163290D01*
X234166Y163216D01*
X234240Y163140D01*
X234310Y163061D01*
X234378Y162980D01*
X234443Y162897D01*
X234505Y162811D01*
X234564Y162723D01*
X234619Y162633D01*
X234672Y162541D01*
X234721Y162447D01*
X234766Y162352D01*
X234808Y162255D01*
X234847Y162156D01*
X234882Y162057D01*
X234914Y161956D01*
X234942Y161854D01*
X234966Y161751D01*
X234987Y161647D01*
X235004Y161543D01*
X235017Y161438D01*
X235026Y161332D01*
X235032Y161227D01*
X235034Y161121D01*
X235035Y161121D02*
X235035Y156379D01*
X235034Y156379D02*
X235032Y156273D01*
X235026Y156168D01*
X235017Y156062D01*
X235004Y155957D01*
X234987Y155853D01*
X234966Y155749D01*
X234942Y155646D01*
X234914Y155544D01*
X234882Y155443D01*
X234847Y155344D01*
X234808Y155245D01*
X234766Y155148D01*
X234721Y155053D01*
X234672Y154959D01*
X234619Y154867D01*
X234564Y154777D01*
X234505Y154689D01*
X234443Y154603D01*
X234378Y154520D01*
X234310Y154439D01*
X234240Y154360D01*
X234166Y154284D01*
X234090Y154210D01*
X234011Y154140D01*
X233930Y154072D01*
X233847Y154007D01*
X233761Y153945D01*
X233673Y153886D01*
X233583Y153831D01*
X233491Y153778D01*
X233397Y153729D01*
X233302Y153684D01*
X233205Y153642D01*
X233106Y153603D01*
X233007Y153568D01*
X232906Y153536D01*
X232804Y153508D01*
X232701Y153484D01*
X232597Y153463D01*
X232493Y153446D01*
X232388Y153433D01*
X232282Y153424D01*
X232177Y153418D01*
X232071Y153416D01*
X229108Y153416D01*
X244094Y153416D02*
X244190Y153418D01*
X244285Y153424D01*
X244380Y153433D01*
X244474Y153447D01*
X244568Y153464D01*
X244661Y153485D01*
X244754Y153510D01*
X244845Y153538D01*
X244935Y153570D01*
X245023Y153606D01*
X245110Y153645D01*
X245196Y153688D01*
X245280Y153734D01*
X245361Y153783D01*
X245441Y153836D01*
X245518Y153892D01*
X245594Y153950D01*
X245666Y154012D01*
X245736Y154077D01*
X245804Y154145D01*
X245869Y154215D01*
X245931Y154287D01*
X245989Y154363D01*
X246045Y154440D01*
X246098Y154520D01*
X246147Y154602D01*
X246193Y154685D01*
X246236Y154771D01*
X246275Y154858D01*
X246311Y154946D01*
X246343Y155036D01*
X246371Y155127D01*
X246396Y155220D01*
X246417Y155313D01*
X246434Y155407D01*
X246448Y155501D01*
X246457Y155596D01*
X246463Y155692D01*
X246465Y155787D01*
X244094Y153416D02*
X243958Y153418D01*
X243821Y153423D01*
X243685Y153433D01*
X243550Y153446D01*
X243414Y153462D01*
X243280Y153483D01*
X243145Y153507D01*
X243012Y153534D01*
X242879Y153566D01*
X242747Y153600D01*
X242616Y153639D01*
X242487Y153681D01*
X242358Y153726D01*
X242231Y153775D01*
X242105Y153828D01*
X241981Y153884D01*
X241858Y153943D01*
X241737Y154005D01*
X241617Y154071D01*
X241500Y154140D01*
X241384Y154213D01*
X241270Y154288D01*
X241159Y154366D01*
X241049Y154448D01*
X240942Y154532D01*
X240838Y154619D01*
X240735Y154709D01*
X240635Y154802D01*
X240538Y154898D01*
X240834Y161713D02*
X240836Y161808D01*
X240842Y161904D01*
X240851Y161999D01*
X240865Y162093D01*
X240882Y162187D01*
X240903Y162280D01*
X240928Y162373D01*
X240956Y162464D01*
X240988Y162554D01*
X241024Y162642D01*
X241063Y162729D01*
X241106Y162815D01*
X241152Y162899D01*
X241201Y162980D01*
X241254Y163060D01*
X241310Y163137D01*
X241368Y163213D01*
X241430Y163285D01*
X241495Y163355D01*
X241563Y163423D01*
X241633Y163488D01*
X241705Y163550D01*
X241781Y163608D01*
X241858Y163664D01*
X241938Y163717D01*
X242020Y163766D01*
X242103Y163812D01*
X242189Y163855D01*
X242276Y163894D01*
X242364Y163930D01*
X242454Y163962D01*
X242545Y163990D01*
X242638Y164015D01*
X242731Y164036D01*
X242825Y164053D01*
X242919Y164067D01*
X243014Y164076D01*
X243110Y164082D01*
X243205Y164084D01*
X243335Y164082D01*
X243465Y164076D01*
X243595Y164067D01*
X243724Y164054D01*
X243853Y164037D01*
X243981Y164016D01*
X244109Y163991D01*
X244236Y163963D01*
X244362Y163931D01*
X244487Y163895D01*
X244611Y163856D01*
X244733Y163813D01*
X244855Y163767D01*
X244975Y163716D01*
X245093Y163663D01*
X245210Y163606D01*
X245325Y163546D01*
X245439Y163482D01*
X245550Y163415D01*
X245660Y163345D01*
X245767Y163271D01*
X245872Y163195D01*
X242020Y159638D02*
X241938Y159689D01*
X241858Y159743D01*
X241780Y159799D01*
X241705Y159859D01*
X241632Y159922D01*
X241562Y159988D01*
X241495Y160056D01*
X241430Y160127D01*
X241368Y160201D01*
X241309Y160277D01*
X241253Y160355D01*
X241201Y160436D01*
X241151Y160518D01*
X241105Y160603D01*
X241063Y160689D01*
X241023Y160777D01*
X240988Y160866D01*
X240956Y160957D01*
X240927Y161049D01*
X240903Y161142D01*
X240882Y161235D01*
X240865Y161330D01*
X240851Y161425D01*
X240842Y161521D01*
X240836Y161617D01*
X240834Y161713D01*
X245280Y157862D02*
X245361Y157811D01*
X245441Y157757D01*
X245519Y157701D01*
X245594Y157641D01*
X245667Y157578D01*
X245737Y157512D01*
X245804Y157444D01*
X245869Y157373D01*
X245931Y157299D01*
X245990Y157223D01*
X246046Y157145D01*
X246098Y157064D01*
X246148Y156982D01*
X246194Y156897D01*
X246236Y156811D01*
X246276Y156723D01*
X246311Y156634D01*
X246343Y156543D01*
X246372Y156451D01*
X246396Y156358D01*
X246417Y156265D01*
X246434Y156170D01*
X246448Y156075D01*
X246457Y155979D01*
X246463Y155883D01*
X246465Y155787D01*
X245279Y157861D02*
X242020Y159639D01*
X251587Y161713D02*
X254550Y164084D01*
X254550Y153416D01*
X251587Y153416D02*
X257514Y153416D01*
X216916Y49784D02*
X216916Y39116D01*
X216916Y49784D02*
X219879Y49784D01*
X219985Y49782D01*
X220090Y49776D01*
X220196Y49767D01*
X220301Y49754D01*
X220405Y49737D01*
X220509Y49716D01*
X220612Y49692D01*
X220714Y49664D01*
X220815Y49632D01*
X220914Y49597D01*
X221013Y49558D01*
X221110Y49516D01*
X221205Y49471D01*
X221299Y49422D01*
X221391Y49369D01*
X221481Y49314D01*
X221569Y49255D01*
X221655Y49193D01*
X221738Y49128D01*
X221819Y49060D01*
X221898Y48990D01*
X221974Y48916D01*
X222048Y48840D01*
X222118Y48761D01*
X222186Y48680D01*
X222251Y48597D01*
X222313Y48511D01*
X222372Y48423D01*
X222427Y48333D01*
X222480Y48241D01*
X222529Y48147D01*
X222574Y48052D01*
X222616Y47955D01*
X222655Y47856D01*
X222690Y47757D01*
X222722Y47656D01*
X222750Y47554D01*
X222774Y47451D01*
X222795Y47347D01*
X222812Y47243D01*
X222825Y47138D01*
X222834Y47032D01*
X222840Y46927D01*
X222842Y46821D01*
X222843Y46821D02*
X222843Y42079D01*
X222842Y42079D02*
X222840Y41973D01*
X222834Y41868D01*
X222825Y41762D01*
X222812Y41657D01*
X222795Y41553D01*
X222774Y41449D01*
X222750Y41346D01*
X222722Y41244D01*
X222690Y41143D01*
X222655Y41044D01*
X222616Y40945D01*
X222574Y40848D01*
X222529Y40753D01*
X222480Y40659D01*
X222427Y40567D01*
X222372Y40477D01*
X222313Y40389D01*
X222251Y40303D01*
X222186Y40220D01*
X222118Y40139D01*
X222048Y40060D01*
X221974Y39984D01*
X221898Y39910D01*
X221819Y39840D01*
X221738Y39772D01*
X221655Y39707D01*
X221569Y39645D01*
X221481Y39586D01*
X221391Y39531D01*
X221299Y39478D01*
X221205Y39429D01*
X221110Y39384D01*
X221013Y39342D01*
X220914Y39303D01*
X220815Y39268D01*
X220714Y39236D01*
X220612Y39208D01*
X220509Y39184D01*
X220405Y39163D01*
X220301Y39146D01*
X220196Y39133D01*
X220090Y39124D01*
X219985Y39118D01*
X219879Y39116D01*
X216916Y39116D01*
X229108Y39116D02*
X229108Y49784D01*
X232071Y49784D01*
X232177Y49782D01*
X232282Y49776D01*
X232388Y49767D01*
X232493Y49754D01*
X232597Y49737D01*
X232701Y49716D01*
X232804Y49692D01*
X232906Y49664D01*
X233007Y49632D01*
X233106Y49597D01*
X233205Y49558D01*
X233302Y49516D01*
X233397Y49471D01*
X233491Y49422D01*
X233583Y49369D01*
X233673Y49314D01*
X233761Y49255D01*
X233847Y49193D01*
X233930Y49128D01*
X234011Y49060D01*
X234090Y48990D01*
X234166Y48916D01*
X234240Y48840D01*
X234310Y48761D01*
X234378Y48680D01*
X234443Y48597D01*
X234505Y48511D01*
X234564Y48423D01*
X234619Y48333D01*
X234672Y48241D01*
X234721Y48147D01*
X234766Y48052D01*
X234808Y47955D01*
X234847Y47856D01*
X234882Y47757D01*
X234914Y47656D01*
X234942Y47554D01*
X234966Y47451D01*
X234987Y47347D01*
X235004Y47243D01*
X235017Y47138D01*
X235026Y47032D01*
X235032Y46927D01*
X235034Y46821D01*
X235035Y46821D02*
X235035Y42079D01*
X235034Y42079D02*
X235032Y41973D01*
X235026Y41868D01*
X235017Y41762D01*
X235004Y41657D01*
X234987Y41553D01*
X234966Y41449D01*
X234942Y41346D01*
X234914Y41244D01*
X234882Y41143D01*
X234847Y41044D01*
X234808Y40945D01*
X234766Y40848D01*
X234721Y40753D01*
X234672Y40659D01*
X234619Y40567D01*
X234564Y40477D01*
X234505Y40389D01*
X234443Y40303D01*
X234378Y40220D01*
X234310Y40139D01*
X234240Y40060D01*
X234166Y39984D01*
X234090Y39910D01*
X234011Y39840D01*
X233930Y39772D01*
X233847Y39707D01*
X233761Y39645D01*
X233673Y39586D01*
X233583Y39531D01*
X233491Y39478D01*
X233397Y39429D01*
X233302Y39384D01*
X233205Y39342D01*
X233106Y39303D01*
X233007Y39268D01*
X232906Y39236D01*
X232804Y39208D01*
X232701Y39184D01*
X232597Y39163D01*
X232493Y39146D01*
X232388Y39133D01*
X232282Y39124D01*
X232177Y39118D01*
X232071Y39116D01*
X229108Y39116D01*
X244094Y39116D02*
X244190Y39118D01*
X244285Y39124D01*
X244380Y39133D01*
X244474Y39147D01*
X244568Y39164D01*
X244661Y39185D01*
X244754Y39210D01*
X244845Y39238D01*
X244935Y39270D01*
X245023Y39306D01*
X245110Y39345D01*
X245196Y39388D01*
X245280Y39434D01*
X245361Y39483D01*
X245441Y39536D01*
X245518Y39592D01*
X245594Y39650D01*
X245666Y39712D01*
X245736Y39777D01*
X245804Y39845D01*
X245869Y39915D01*
X245931Y39987D01*
X245989Y40063D01*
X246045Y40140D01*
X246098Y40220D01*
X246147Y40302D01*
X246193Y40385D01*
X246236Y40471D01*
X246275Y40558D01*
X246311Y40646D01*
X246343Y40736D01*
X246371Y40827D01*
X246396Y40920D01*
X246417Y41013D01*
X246434Y41107D01*
X246448Y41201D01*
X246457Y41296D01*
X246463Y41392D01*
X246465Y41487D01*
X244094Y39116D02*
X243958Y39118D01*
X243821Y39123D01*
X243685Y39133D01*
X243550Y39146D01*
X243414Y39162D01*
X243280Y39183D01*
X243145Y39207D01*
X243012Y39234D01*
X242879Y39266D01*
X242747Y39300D01*
X242616Y39339D01*
X242487Y39381D01*
X242358Y39426D01*
X242231Y39475D01*
X242105Y39528D01*
X241981Y39584D01*
X241858Y39643D01*
X241737Y39705D01*
X241617Y39771D01*
X241500Y39840D01*
X241384Y39913D01*
X241270Y39988D01*
X241159Y40066D01*
X241049Y40148D01*
X240942Y40232D01*
X240838Y40319D01*
X240735Y40409D01*
X240635Y40502D01*
X240538Y40598D01*
X240834Y47413D02*
X240836Y47508D01*
X240842Y47604D01*
X240851Y47699D01*
X240865Y47793D01*
X240882Y47887D01*
X240903Y47980D01*
X240928Y48073D01*
X240956Y48164D01*
X240988Y48254D01*
X241024Y48342D01*
X241063Y48429D01*
X241106Y48515D01*
X241152Y48599D01*
X241201Y48680D01*
X241254Y48760D01*
X241310Y48837D01*
X241368Y48913D01*
X241430Y48985D01*
X241495Y49055D01*
X241563Y49123D01*
X241633Y49188D01*
X241705Y49250D01*
X241781Y49308D01*
X241858Y49364D01*
X241938Y49417D01*
X242020Y49466D01*
X242103Y49512D01*
X242189Y49555D01*
X242276Y49594D01*
X242364Y49630D01*
X242454Y49662D01*
X242545Y49690D01*
X242638Y49715D01*
X242731Y49736D01*
X242825Y49753D01*
X242919Y49767D01*
X243014Y49776D01*
X243110Y49782D01*
X243205Y49784D01*
X243335Y49782D01*
X243465Y49776D01*
X243595Y49767D01*
X243724Y49754D01*
X243853Y49737D01*
X243981Y49716D01*
X244109Y49691D01*
X244236Y49663D01*
X244362Y49631D01*
X244487Y49595D01*
X244611Y49556D01*
X244733Y49513D01*
X244855Y49467D01*
X244975Y49416D01*
X245093Y49363D01*
X245210Y49306D01*
X245325Y49246D01*
X245439Y49182D01*
X245550Y49115D01*
X245660Y49045D01*
X245767Y48971D01*
X245872Y48895D01*
X242020Y45338D02*
X241938Y45389D01*
X241858Y45443D01*
X241780Y45499D01*
X241705Y45559D01*
X241632Y45622D01*
X241562Y45688D01*
X241495Y45756D01*
X241430Y45827D01*
X241368Y45901D01*
X241309Y45977D01*
X241253Y46055D01*
X241201Y46136D01*
X241151Y46218D01*
X241105Y46303D01*
X241063Y46389D01*
X241023Y46477D01*
X240988Y46566D01*
X240956Y46657D01*
X240927Y46749D01*
X240903Y46842D01*
X240882Y46935D01*
X240865Y47030D01*
X240851Y47125D01*
X240842Y47221D01*
X240836Y47317D01*
X240834Y47413D01*
X245280Y43562D02*
X245361Y43511D01*
X245441Y43457D01*
X245519Y43401D01*
X245594Y43341D01*
X245667Y43278D01*
X245737Y43212D01*
X245804Y43144D01*
X245869Y43073D01*
X245931Y42999D01*
X245990Y42923D01*
X246046Y42845D01*
X246098Y42764D01*
X246148Y42682D01*
X246194Y42597D01*
X246236Y42511D01*
X246276Y42423D01*
X246311Y42334D01*
X246343Y42243D01*
X246372Y42151D01*
X246396Y42058D01*
X246417Y41965D01*
X246434Y41870D01*
X246448Y41775D01*
X246457Y41679D01*
X246463Y41583D01*
X246465Y41487D01*
X245279Y43561D02*
X242020Y45339D01*
X254847Y49784D02*
X254949Y49782D01*
X255051Y49776D01*
X255153Y49766D01*
X255254Y49753D01*
X255355Y49735D01*
X255455Y49714D01*
X255554Y49689D01*
X255652Y49660D01*
X255748Y49627D01*
X255844Y49591D01*
X255938Y49551D01*
X256030Y49507D01*
X256121Y49460D01*
X256210Y49409D01*
X256297Y49356D01*
X256381Y49298D01*
X256464Y49238D01*
X256544Y49175D01*
X256621Y49108D01*
X256696Y49039D01*
X256769Y48966D01*
X256838Y48891D01*
X256905Y48814D01*
X256968Y48734D01*
X257028Y48651D01*
X257086Y48567D01*
X257139Y48480D01*
X257190Y48391D01*
X257237Y48300D01*
X257281Y48208D01*
X257321Y48114D01*
X257357Y48018D01*
X257390Y47922D01*
X257419Y47824D01*
X257444Y47725D01*
X257465Y47625D01*
X257483Y47524D01*
X257496Y47423D01*
X257506Y47321D01*
X257512Y47219D01*
X257514Y47117D01*
X254847Y49784D02*
X254731Y49782D01*
X254614Y49776D01*
X254498Y49766D01*
X254383Y49752D01*
X254268Y49735D01*
X254153Y49713D01*
X254040Y49687D01*
X253927Y49658D01*
X253815Y49625D01*
X253705Y49588D01*
X253596Y49547D01*
X253488Y49503D01*
X253382Y49455D01*
X253278Y49403D01*
X253175Y49348D01*
X253074Y49290D01*
X252976Y49228D01*
X252879Y49163D01*
X252785Y49094D01*
X252693Y49022D01*
X252604Y48948D01*
X252517Y48870D01*
X252433Y48789D01*
X252352Y48706D01*
X252274Y48620D01*
X252198Y48531D01*
X252126Y48440D01*
X252057Y48346D01*
X251991Y48250D01*
X251928Y48152D01*
X251869Y48052D01*
X251813Y47950D01*
X251761Y47846D01*
X251712Y47740D01*
X251667Y47633D01*
X251625Y47524D01*
X251588Y47414D01*
X256625Y45042D02*
X256700Y45116D01*
X256772Y45193D01*
X256841Y45273D01*
X256908Y45355D01*
X256971Y45439D01*
X257031Y45526D01*
X257088Y45614D01*
X257142Y45705D01*
X257192Y45798D01*
X257239Y45892D01*
X257282Y45988D01*
X257322Y46086D01*
X257358Y46185D01*
X257391Y46285D01*
X257419Y46387D01*
X257444Y46489D01*
X257466Y46593D01*
X257483Y46697D01*
X257497Y46801D01*
X257506Y46906D01*
X257512Y47012D01*
X257514Y47117D01*
X256625Y45043D02*
X251587Y39116D01*
X257514Y39116D01*
D11*
X35000Y350000D02*
X35000Y380000D01*
X20000Y365000D02*
X50000Y365000D01*
X50000Y34800D02*
X20000Y34800D01*
X350200Y34800D02*
X380200Y34800D01*
X380200Y365000D02*
X350200Y365000D01*
X365200Y380000D02*
X365200Y350000D01*
X365200Y49800D02*
X365200Y19800D01*
X35000Y19800D02*
X35000Y49800D01*
D12*
X67758Y274748D03*
D13*
X76800Y273650D02*
X76800Y272248D01*
X76800Y273650D02*
X151800Y273650D01*
X151800Y272248D01*
X76800Y159552D02*
X76800Y158150D01*
X151800Y158150D01*
X151800Y159552D01*
D10*
X104077Y284614D02*
X104077Y295282D01*
X102891Y284614D02*
X105262Y284614D01*
X105262Y295282D02*
X102891Y295282D01*
X112578Y284614D02*
X114949Y284614D01*
X112578Y284614D02*
X112483Y284616D01*
X112387Y284622D01*
X112292Y284631D01*
X112198Y284645D01*
X112104Y284662D01*
X112011Y284683D01*
X111918Y284708D01*
X111827Y284736D01*
X111737Y284768D01*
X111649Y284804D01*
X111562Y284843D01*
X111476Y284886D01*
X111392Y284932D01*
X111311Y284981D01*
X111231Y285034D01*
X111154Y285090D01*
X111078Y285148D01*
X111006Y285210D01*
X110936Y285275D01*
X110868Y285343D01*
X110803Y285413D01*
X110741Y285485D01*
X110683Y285561D01*
X110627Y285638D01*
X110574Y285718D01*
X110525Y285800D01*
X110479Y285883D01*
X110436Y285969D01*
X110397Y286056D01*
X110361Y286144D01*
X110329Y286234D01*
X110301Y286325D01*
X110276Y286418D01*
X110255Y286511D01*
X110238Y286605D01*
X110224Y286699D01*
X110215Y286794D01*
X110209Y286890D01*
X110207Y286985D01*
X110207Y292911D01*
X110209Y293006D01*
X110215Y293102D01*
X110224Y293197D01*
X110238Y293291D01*
X110255Y293385D01*
X110276Y293478D01*
X110301Y293571D01*
X110329Y293662D01*
X110361Y293752D01*
X110397Y293840D01*
X110436Y293927D01*
X110479Y294013D01*
X110525Y294096D01*
X110574Y294178D01*
X110627Y294258D01*
X110683Y294335D01*
X110741Y294411D01*
X110803Y294483D01*
X110868Y294553D01*
X110936Y294621D01*
X111006Y294686D01*
X111078Y294748D01*
X111154Y294806D01*
X111231Y294862D01*
X111311Y294915D01*
X111392Y294964D01*
X111476Y295010D01*
X111562Y295053D01*
X111649Y295092D01*
X111737Y295128D01*
X111827Y295160D01*
X111918Y295188D01*
X112011Y295213D01*
X112104Y295234D01*
X112198Y295251D01*
X112292Y295265D01*
X112387Y295274D01*
X112482Y295280D01*
X112578Y295282D01*
X114949Y295282D01*
X119782Y292911D02*
X122745Y295282D01*
X122745Y284614D01*
X119782Y284614D02*
X125709Y284614D01*
D14*
X211300Y119900D02*
X271300Y119900D01*
X271300Y57900D01*
X211300Y57900D01*
X211300Y119900D01*
D15*
X223520Y88900D02*
X223525Y89336D01*
X223541Y89772D01*
X223568Y90208D01*
X223606Y90643D01*
X223654Y91076D01*
X223712Y91509D01*
X223782Y91940D01*
X223862Y92369D01*
X223952Y92796D01*
X224053Y93220D01*
X224164Y93642D01*
X224286Y94061D01*
X224417Y94477D01*
X224559Y94890D01*
X224711Y95299D01*
X224873Y95704D01*
X225045Y96105D01*
X225227Y96502D01*
X225418Y96894D01*
X225619Y97281D01*
X225830Y97664D01*
X226050Y98041D01*
X226279Y98412D01*
X226516Y98778D01*
X226763Y99138D01*
X227019Y99492D01*
X227283Y99839D01*
X227556Y100180D01*
X227837Y100513D01*
X228126Y100840D01*
X228423Y101160D01*
X228728Y101472D01*
X229040Y101777D01*
X229360Y102074D01*
X229687Y102363D01*
X230020Y102644D01*
X230361Y102917D01*
X230708Y103181D01*
X231062Y103437D01*
X231422Y103684D01*
X231788Y103921D01*
X232159Y104150D01*
X232536Y104370D01*
X232919Y104581D01*
X233306Y104782D01*
X233698Y104973D01*
X234095Y105155D01*
X234496Y105327D01*
X234901Y105489D01*
X235310Y105641D01*
X235723Y105783D01*
X236139Y105914D01*
X236558Y106036D01*
X236980Y106147D01*
X237404Y106248D01*
X237831Y106338D01*
X238260Y106418D01*
X238691Y106488D01*
X239124Y106546D01*
X239557Y106594D01*
X239992Y106632D01*
X240428Y106659D01*
X240864Y106675D01*
X241300Y106680D01*
X241736Y106675D01*
X242172Y106659D01*
X242608Y106632D01*
X243043Y106594D01*
X243476Y106546D01*
X243909Y106488D01*
X244340Y106418D01*
X244769Y106338D01*
X245196Y106248D01*
X245620Y106147D01*
X246042Y106036D01*
X246461Y105914D01*
X246877Y105783D01*
X247290Y105641D01*
X247699Y105489D01*
X248104Y105327D01*
X248505Y105155D01*
X248902Y104973D01*
X249294Y104782D01*
X249681Y104581D01*
X250064Y104370D01*
X250441Y104150D01*
X250812Y103921D01*
X251178Y103684D01*
X251538Y103437D01*
X251892Y103181D01*
X252239Y102917D01*
X252580Y102644D01*
X252913Y102363D01*
X253240Y102074D01*
X253560Y101777D01*
X253872Y101472D01*
X254177Y101160D01*
X254474Y100840D01*
X254763Y100513D01*
X255044Y100180D01*
X255317Y99839D01*
X255581Y99492D01*
X255837Y99138D01*
X256084Y98778D01*
X256321Y98412D01*
X256550Y98041D01*
X256770Y97664D01*
X256981Y97281D01*
X257182Y96894D01*
X257373Y96502D01*
X257555Y96105D01*
X257727Y95704D01*
X257889Y95299D01*
X258041Y94890D01*
X258183Y94477D01*
X258314Y94061D01*
X258436Y93642D01*
X258547Y93220D01*
X258648Y92796D01*
X258738Y92369D01*
X258818Y91940D01*
X258888Y91509D01*
X258946Y91076D01*
X258994Y90643D01*
X259032Y90208D01*
X259059Y89772D01*
X259075Y89336D01*
X259080Y88900D01*
X259075Y88464D01*
X259059Y88028D01*
X259032Y87592D01*
X258994Y87157D01*
X258946Y86724D01*
X258888Y86291D01*
X258818Y85860D01*
X258738Y85431D01*
X258648Y85004D01*
X258547Y84580D01*
X258436Y84158D01*
X258314Y83739D01*
X258183Y83323D01*
X258041Y82910D01*
X257889Y82501D01*
X257727Y82096D01*
X257555Y81695D01*
X257373Y81298D01*
X257182Y80906D01*
X256981Y80519D01*
X256770Y80136D01*
X256550Y79759D01*
X256321Y79388D01*
X256084Y79022D01*
X255837Y78662D01*
X255581Y78308D01*
X255317Y77961D01*
X255044Y77620D01*
X254763Y77287D01*
X254474Y76960D01*
X254177Y76640D01*
X253872Y76328D01*
X253560Y76023D01*
X253240Y75726D01*
X252913Y75437D01*
X252580Y75156D01*
X252239Y74883D01*
X251892Y74619D01*
X251538Y74363D01*
X251178Y74116D01*
X250812Y73879D01*
X250441Y73650D01*
X250064Y73430D01*
X249681Y73219D01*
X249294Y73018D01*
X248902Y72827D01*
X248505Y72645D01*
X248104Y72473D01*
X247699Y72311D01*
X247290Y72159D01*
X246877Y72017D01*
X246461Y71886D01*
X246042Y71764D01*
X245620Y71653D01*
X245196Y71552D01*
X244769Y71462D01*
X244340Y71382D01*
X243909Y71312D01*
X243476Y71254D01*
X243043Y71206D01*
X242608Y71168D01*
X242172Y71141D01*
X241736Y71125D01*
X241300Y71120D01*
X240864Y71125D01*
X240428Y71141D01*
X239992Y71168D01*
X239557Y71206D01*
X239124Y71254D01*
X238691Y71312D01*
X238260Y71382D01*
X237831Y71462D01*
X237404Y71552D01*
X236980Y71653D01*
X236558Y71764D01*
X236139Y71886D01*
X235723Y72017D01*
X235310Y72159D01*
X234901Y72311D01*
X234496Y72473D01*
X234095Y72645D01*
X233698Y72827D01*
X233306Y73018D01*
X232919Y73219D01*
X232536Y73430D01*
X232159Y73650D01*
X231788Y73879D01*
X231422Y74116D01*
X231062Y74363D01*
X230708Y74619D01*
X230361Y74883D01*
X230020Y75156D01*
X229687Y75437D01*
X229360Y75726D01*
X229040Y76023D01*
X228728Y76328D01*
X228423Y76640D01*
X228126Y76960D01*
X227837Y77287D01*
X227556Y77620D01*
X227283Y77961D01*
X227019Y78308D01*
X226763Y78662D01*
X226516Y79022D01*
X226279Y79388D01*
X226050Y79759D01*
X225830Y80136D01*
X225619Y80519D01*
X225418Y80906D01*
X225227Y81298D01*
X225045Y81695D01*
X224873Y82096D01*
X224711Y82501D01*
X224559Y82910D01*
X224417Y83323D01*
X224286Y83739D01*
X224164Y84158D01*
X224053Y84580D01*
X223952Y85004D01*
X223862Y85431D01*
X223782Y85860D01*
X223712Y86291D01*
X223654Y86724D01*
X223606Y87157D01*
X223568Y87592D01*
X223541Y88028D01*
X223525Y88464D01*
X223520Y88900D01*
X238760Y88900D02*
X238762Y89000D01*
X238768Y89101D01*
X238778Y89200D01*
X238792Y89300D01*
X238809Y89399D01*
X238831Y89497D01*
X238857Y89594D01*
X238886Y89690D01*
X238919Y89784D01*
X238956Y89878D01*
X238996Y89970D01*
X239040Y90060D01*
X239088Y90148D01*
X239139Y90235D01*
X239193Y90319D01*
X239251Y90401D01*
X239312Y90481D01*
X239376Y90558D01*
X239443Y90633D01*
X239513Y90705D01*
X239586Y90774D01*
X239661Y90840D01*
X239739Y90904D01*
X239819Y90964D01*
X239902Y91021D01*
X239987Y91074D01*
X240074Y91124D01*
X240163Y91171D01*
X240253Y91214D01*
X240345Y91254D01*
X240439Y91290D01*
X240534Y91322D01*
X240630Y91350D01*
X240728Y91375D01*
X240826Y91395D01*
X240925Y91412D01*
X241025Y91425D01*
X241124Y91434D01*
X241225Y91439D01*
X241325Y91440D01*
X241425Y91437D01*
X241526Y91430D01*
X241625Y91419D01*
X241725Y91404D01*
X241823Y91386D01*
X241921Y91363D01*
X242018Y91336D01*
X242113Y91306D01*
X242208Y91272D01*
X242301Y91234D01*
X242392Y91193D01*
X242482Y91148D01*
X242570Y91100D01*
X242656Y91048D01*
X242740Y90993D01*
X242821Y90934D01*
X242900Y90872D01*
X242977Y90808D01*
X243051Y90740D01*
X243122Y90669D01*
X243191Y90596D01*
X243256Y90520D01*
X243319Y90441D01*
X243378Y90360D01*
X243434Y90277D01*
X243487Y90192D01*
X243536Y90104D01*
X243582Y90015D01*
X243624Y89924D01*
X243663Y89831D01*
X243698Y89737D01*
X243729Y89642D01*
X243757Y89545D01*
X243780Y89448D01*
X243800Y89349D01*
X243816Y89250D01*
X243828Y89151D01*
X243836Y89050D01*
X243840Y88950D01*
X243840Y88850D01*
X243836Y88750D01*
X243828Y88649D01*
X243816Y88550D01*
X243800Y88451D01*
X243780Y88352D01*
X243757Y88255D01*
X243729Y88158D01*
X243698Y88063D01*
X243663Y87969D01*
X243624Y87876D01*
X243582Y87785D01*
X243536Y87696D01*
X243487Y87608D01*
X243434Y87523D01*
X243378Y87440D01*
X243319Y87359D01*
X243256Y87280D01*
X243191Y87204D01*
X243122Y87131D01*
X243051Y87060D01*
X242977Y86992D01*
X242900Y86928D01*
X242821Y86866D01*
X242740Y86807D01*
X242656Y86752D01*
X242570Y86700D01*
X242482Y86652D01*
X242392Y86607D01*
X242301Y86566D01*
X242208Y86528D01*
X242113Y86494D01*
X242018Y86464D01*
X241921Y86437D01*
X241823Y86414D01*
X241725Y86396D01*
X241625Y86381D01*
X241526Y86370D01*
X241425Y86363D01*
X241325Y86360D01*
X241225Y86361D01*
X241124Y86366D01*
X241025Y86375D01*
X240925Y86388D01*
X240826Y86405D01*
X240728Y86425D01*
X240630Y86450D01*
X240534Y86478D01*
X240439Y86510D01*
X240345Y86546D01*
X240253Y86586D01*
X240163Y86629D01*
X240074Y86676D01*
X239987Y86726D01*
X239902Y86779D01*
X239819Y86836D01*
X239739Y86896D01*
X239661Y86960D01*
X239586Y87026D01*
X239513Y87095D01*
X239443Y87167D01*
X239376Y87242D01*
X239312Y87319D01*
X239251Y87399D01*
X239193Y87481D01*
X239139Y87565D01*
X239088Y87652D01*
X239040Y87740D01*
X238996Y87830D01*
X238956Y87922D01*
X238919Y88016D01*
X238886Y88110D01*
X238857Y88206D01*
X238831Y88303D01*
X238809Y88401D01*
X238792Y88500D01*
X238778Y88600D01*
X238768Y88699D01*
X238762Y88800D01*
X238760Y88900D01*
D10*
X215392Y126746D02*
X215488Y126748D01*
X215583Y126754D01*
X215678Y126763D01*
X215772Y126777D01*
X215866Y126794D01*
X215959Y126815D01*
X216052Y126840D01*
X216143Y126868D01*
X216233Y126900D01*
X216321Y126936D01*
X216408Y126975D01*
X216494Y127018D01*
X216578Y127064D01*
X216659Y127113D01*
X216739Y127166D01*
X216816Y127222D01*
X216892Y127280D01*
X216964Y127342D01*
X217034Y127407D01*
X217102Y127475D01*
X217167Y127545D01*
X217229Y127617D01*
X217287Y127693D01*
X217343Y127770D01*
X217396Y127850D01*
X217445Y127932D01*
X217491Y128015D01*
X217534Y128101D01*
X217573Y128188D01*
X217609Y128276D01*
X217641Y128366D01*
X217669Y128457D01*
X217694Y128550D01*
X217715Y128643D01*
X217732Y128737D01*
X217746Y128831D01*
X217755Y128926D01*
X217761Y129022D01*
X217763Y129117D01*
X215392Y126746D02*
X215256Y126748D01*
X215119Y126753D01*
X214983Y126763D01*
X214848Y126776D01*
X214712Y126792D01*
X214578Y126813D01*
X214443Y126837D01*
X214310Y126864D01*
X214177Y126896D01*
X214045Y126930D01*
X213914Y126969D01*
X213785Y127011D01*
X213656Y127056D01*
X213529Y127105D01*
X213403Y127158D01*
X213279Y127214D01*
X213156Y127273D01*
X213035Y127335D01*
X212915Y127401D01*
X212798Y127470D01*
X212682Y127543D01*
X212568Y127618D01*
X212457Y127696D01*
X212347Y127778D01*
X212240Y127862D01*
X212136Y127949D01*
X212033Y128039D01*
X211933Y128132D01*
X211836Y128228D01*
X212132Y135043D02*
X212134Y135138D01*
X212140Y135234D01*
X212149Y135329D01*
X212163Y135423D01*
X212180Y135517D01*
X212201Y135610D01*
X212226Y135703D01*
X212254Y135794D01*
X212286Y135884D01*
X212322Y135972D01*
X212361Y136059D01*
X212404Y136145D01*
X212450Y136229D01*
X212499Y136310D01*
X212552Y136390D01*
X212608Y136467D01*
X212666Y136543D01*
X212728Y136615D01*
X212793Y136685D01*
X212861Y136753D01*
X212931Y136818D01*
X213003Y136880D01*
X213079Y136938D01*
X213156Y136994D01*
X213236Y137047D01*
X213318Y137096D01*
X213401Y137142D01*
X213487Y137185D01*
X213574Y137224D01*
X213662Y137260D01*
X213752Y137292D01*
X213843Y137320D01*
X213936Y137345D01*
X214029Y137366D01*
X214123Y137383D01*
X214217Y137397D01*
X214312Y137406D01*
X214408Y137412D01*
X214503Y137414D01*
X214633Y137412D01*
X214763Y137406D01*
X214893Y137397D01*
X215022Y137384D01*
X215151Y137367D01*
X215279Y137346D01*
X215407Y137321D01*
X215534Y137293D01*
X215660Y137261D01*
X215785Y137225D01*
X215909Y137186D01*
X216031Y137143D01*
X216153Y137097D01*
X216273Y137046D01*
X216391Y136993D01*
X216508Y136936D01*
X216623Y136876D01*
X216737Y136812D01*
X216848Y136745D01*
X216958Y136675D01*
X217065Y136601D01*
X217170Y136525D01*
X213318Y132968D02*
X213236Y133019D01*
X213156Y133073D01*
X213078Y133129D01*
X213003Y133189D01*
X212930Y133252D01*
X212860Y133318D01*
X212793Y133386D01*
X212728Y133457D01*
X212666Y133531D01*
X212607Y133607D01*
X212551Y133685D01*
X212499Y133766D01*
X212449Y133848D01*
X212403Y133933D01*
X212361Y134019D01*
X212321Y134107D01*
X212286Y134196D01*
X212254Y134287D01*
X212225Y134379D01*
X212201Y134472D01*
X212180Y134565D01*
X212163Y134660D01*
X212149Y134755D01*
X212140Y134851D01*
X212134Y134947D01*
X212132Y135043D01*
X216578Y131192D02*
X216659Y131141D01*
X216739Y131087D01*
X216817Y131031D01*
X216892Y130971D01*
X216965Y130908D01*
X217035Y130842D01*
X217102Y130774D01*
X217167Y130703D01*
X217229Y130629D01*
X217288Y130553D01*
X217344Y130475D01*
X217396Y130394D01*
X217446Y130312D01*
X217492Y130227D01*
X217534Y130141D01*
X217574Y130053D01*
X217609Y129964D01*
X217641Y129873D01*
X217670Y129781D01*
X217694Y129688D01*
X217715Y129595D01*
X217732Y129500D01*
X217746Y129405D01*
X217755Y129309D01*
X217761Y129213D01*
X217763Y129117D01*
X216577Y131191D02*
X213318Y132969D01*
X222885Y135043D02*
X225848Y137414D01*
X225848Y126746D01*
X222885Y126746D02*
X228812Y126746D01*
D14*
X211300Y234200D02*
X271300Y234200D01*
X271300Y172200D01*
X211300Y172200D01*
X211300Y234200D01*
D15*
X223520Y203200D02*
X223525Y203636D01*
X223541Y204072D01*
X223568Y204508D01*
X223606Y204943D01*
X223654Y205376D01*
X223712Y205809D01*
X223782Y206240D01*
X223862Y206669D01*
X223952Y207096D01*
X224053Y207520D01*
X224164Y207942D01*
X224286Y208361D01*
X224417Y208777D01*
X224559Y209190D01*
X224711Y209599D01*
X224873Y210004D01*
X225045Y210405D01*
X225227Y210802D01*
X225418Y211194D01*
X225619Y211581D01*
X225830Y211964D01*
X226050Y212341D01*
X226279Y212712D01*
X226516Y213078D01*
X226763Y213438D01*
X227019Y213792D01*
X227283Y214139D01*
X227556Y214480D01*
X227837Y214813D01*
X228126Y215140D01*
X228423Y215460D01*
X228728Y215772D01*
X229040Y216077D01*
X229360Y216374D01*
X229687Y216663D01*
X230020Y216944D01*
X230361Y217217D01*
X230708Y217481D01*
X231062Y217737D01*
X231422Y217984D01*
X231788Y218221D01*
X232159Y218450D01*
X232536Y218670D01*
X232919Y218881D01*
X233306Y219082D01*
X233698Y219273D01*
X234095Y219455D01*
X234496Y219627D01*
X234901Y219789D01*
X235310Y219941D01*
X235723Y220083D01*
X236139Y220214D01*
X236558Y220336D01*
X236980Y220447D01*
X237404Y220548D01*
X237831Y220638D01*
X238260Y220718D01*
X238691Y220788D01*
X239124Y220846D01*
X239557Y220894D01*
X239992Y220932D01*
X240428Y220959D01*
X240864Y220975D01*
X241300Y220980D01*
X241736Y220975D01*
X242172Y220959D01*
X242608Y220932D01*
X243043Y220894D01*
X243476Y220846D01*
X243909Y220788D01*
X244340Y220718D01*
X244769Y220638D01*
X245196Y220548D01*
X245620Y220447D01*
X246042Y220336D01*
X246461Y220214D01*
X246877Y220083D01*
X247290Y219941D01*
X247699Y219789D01*
X248104Y219627D01*
X248505Y219455D01*
X248902Y219273D01*
X249294Y219082D01*
X249681Y218881D01*
X250064Y218670D01*
X250441Y218450D01*
X250812Y218221D01*
X251178Y217984D01*
X251538Y217737D01*
X251892Y217481D01*
X252239Y217217D01*
X252580Y216944D01*
X252913Y216663D01*
X253240Y216374D01*
X253560Y216077D01*
X253872Y215772D01*
X254177Y215460D01*
X254474Y215140D01*
X254763Y214813D01*
X255044Y214480D01*
X255317Y214139D01*
X255581Y213792D01*
X255837Y213438D01*
X256084Y213078D01*
X256321Y212712D01*
X256550Y212341D01*
X256770Y211964D01*
X256981Y211581D01*
X257182Y211194D01*
X257373Y210802D01*
X257555Y210405D01*
X257727Y210004D01*
X257889Y209599D01*
X258041Y209190D01*
X258183Y208777D01*
X258314Y208361D01*
X258436Y207942D01*
X258547Y207520D01*
X258648Y207096D01*
X258738Y206669D01*
X258818Y206240D01*
X258888Y205809D01*
X258946Y205376D01*
X258994Y204943D01*
X259032Y204508D01*
X259059Y204072D01*
X259075Y203636D01*
X259080Y203200D01*
X259075Y202764D01*
X259059Y202328D01*
X259032Y201892D01*
X258994Y201457D01*
X258946Y201024D01*
X258888Y200591D01*
X258818Y200160D01*
X258738Y199731D01*
X258648Y199304D01*
X258547Y198880D01*
X258436Y198458D01*
X258314Y198039D01*
X258183Y197623D01*
X258041Y197210D01*
X257889Y196801D01*
X257727Y196396D01*
X257555Y195995D01*
X257373Y195598D01*
X257182Y195206D01*
X256981Y194819D01*
X256770Y194436D01*
X256550Y194059D01*
X256321Y193688D01*
X256084Y193322D01*
X255837Y192962D01*
X255581Y192608D01*
X255317Y192261D01*
X255044Y191920D01*
X254763Y191587D01*
X254474Y191260D01*
X254177Y190940D01*
X253872Y190628D01*
X253560Y190323D01*
X253240Y190026D01*
X252913Y189737D01*
X252580Y189456D01*
X252239Y189183D01*
X251892Y188919D01*
X251538Y188663D01*
X251178Y188416D01*
X250812Y188179D01*
X250441Y187950D01*
X250064Y187730D01*
X249681Y187519D01*
X249294Y187318D01*
X248902Y187127D01*
X248505Y186945D01*
X248104Y186773D01*
X247699Y186611D01*
X247290Y186459D01*
X246877Y186317D01*
X246461Y186186D01*
X246042Y186064D01*
X245620Y185953D01*
X245196Y185852D01*
X244769Y185762D01*
X244340Y185682D01*
X243909Y185612D01*
X243476Y185554D01*
X243043Y185506D01*
X242608Y185468D01*
X242172Y185441D01*
X241736Y185425D01*
X241300Y185420D01*
X240864Y185425D01*
X240428Y185441D01*
X239992Y185468D01*
X239557Y185506D01*
X239124Y185554D01*
X238691Y185612D01*
X238260Y185682D01*
X237831Y185762D01*
X237404Y185852D01*
X236980Y185953D01*
X236558Y186064D01*
X236139Y186186D01*
X235723Y186317D01*
X235310Y186459D01*
X234901Y186611D01*
X234496Y186773D01*
X234095Y186945D01*
X233698Y187127D01*
X233306Y187318D01*
X232919Y187519D01*
X232536Y187730D01*
X232159Y187950D01*
X231788Y188179D01*
X231422Y188416D01*
X231062Y188663D01*
X230708Y188919D01*
X230361Y189183D01*
X230020Y189456D01*
X229687Y189737D01*
X229360Y190026D01*
X229040Y190323D01*
X228728Y190628D01*
X228423Y190940D01*
X228126Y191260D01*
X227837Y191587D01*
X227556Y191920D01*
X227283Y192261D01*
X227019Y192608D01*
X226763Y192962D01*
X226516Y193322D01*
X226279Y193688D01*
X226050Y194059D01*
X225830Y194436D01*
X225619Y194819D01*
X225418Y195206D01*
X225227Y195598D01*
X225045Y195995D01*
X224873Y196396D01*
X224711Y196801D01*
X224559Y197210D01*
X224417Y197623D01*
X224286Y198039D01*
X224164Y198458D01*
X224053Y198880D01*
X223952Y199304D01*
X223862Y199731D01*
X223782Y200160D01*
X223712Y200591D01*
X223654Y201024D01*
X223606Y201457D01*
X223568Y201892D01*
X223541Y202328D01*
X223525Y202764D01*
X223520Y203200D01*
X238760Y203200D02*
X238762Y203300D01*
X238768Y203401D01*
X238778Y203500D01*
X238792Y203600D01*
X238809Y203699D01*
X238831Y203797D01*
X238857Y203894D01*
X238886Y203990D01*
X238919Y204084D01*
X238956Y204178D01*
X238996Y204270D01*
X239040Y204360D01*
X239088Y204448D01*
X239139Y204535D01*
X239193Y204619D01*
X239251Y204701D01*
X239312Y204781D01*
X239376Y204858D01*
X239443Y204933D01*
X239513Y205005D01*
X239586Y205074D01*
X239661Y205140D01*
X239739Y205204D01*
X239819Y205264D01*
X239902Y205321D01*
X239987Y205374D01*
X240074Y205424D01*
X240163Y205471D01*
X240253Y205514D01*
X240345Y205554D01*
X240439Y205590D01*
X240534Y205622D01*
X240630Y205650D01*
X240728Y205675D01*
X240826Y205695D01*
X240925Y205712D01*
X241025Y205725D01*
X241124Y205734D01*
X241225Y205739D01*
X241325Y205740D01*
X241425Y205737D01*
X241526Y205730D01*
X241625Y205719D01*
X241725Y205704D01*
X241823Y205686D01*
X241921Y205663D01*
X242018Y205636D01*
X242113Y205606D01*
X242208Y205572D01*
X242301Y205534D01*
X242392Y205493D01*
X242482Y205448D01*
X242570Y205400D01*
X242656Y205348D01*
X242740Y205293D01*
X242821Y205234D01*
X242900Y205172D01*
X242977Y205108D01*
X243051Y205040D01*
X243122Y204969D01*
X243191Y204896D01*
X243256Y204820D01*
X243319Y204741D01*
X243378Y204660D01*
X243434Y204577D01*
X243487Y204492D01*
X243536Y204404D01*
X243582Y204315D01*
X243624Y204224D01*
X243663Y204131D01*
X243698Y204037D01*
X243729Y203942D01*
X243757Y203845D01*
X243780Y203748D01*
X243800Y203649D01*
X243816Y203550D01*
X243828Y203451D01*
X243836Y203350D01*
X243840Y203250D01*
X243840Y203150D01*
X243836Y203050D01*
X243828Y202949D01*
X243816Y202850D01*
X243800Y202751D01*
X243780Y202652D01*
X243757Y202555D01*
X243729Y202458D01*
X243698Y202363D01*
X243663Y202269D01*
X243624Y202176D01*
X243582Y202085D01*
X243536Y201996D01*
X243487Y201908D01*
X243434Y201823D01*
X243378Y201740D01*
X243319Y201659D01*
X243256Y201580D01*
X243191Y201504D01*
X243122Y201431D01*
X243051Y201360D01*
X242977Y201292D01*
X242900Y201228D01*
X242821Y201166D01*
X242740Y201107D01*
X242656Y201052D01*
X242570Y201000D01*
X242482Y200952D01*
X242392Y200907D01*
X242301Y200866D01*
X242208Y200828D01*
X242113Y200794D01*
X242018Y200764D01*
X241921Y200737D01*
X241823Y200714D01*
X241725Y200696D01*
X241625Y200681D01*
X241526Y200670D01*
X241425Y200663D01*
X241325Y200660D01*
X241225Y200661D01*
X241124Y200666D01*
X241025Y200675D01*
X240925Y200688D01*
X240826Y200705D01*
X240728Y200725D01*
X240630Y200750D01*
X240534Y200778D01*
X240439Y200810D01*
X240345Y200846D01*
X240253Y200886D01*
X240163Y200929D01*
X240074Y200976D01*
X239987Y201026D01*
X239902Y201079D01*
X239819Y201136D01*
X239739Y201196D01*
X239661Y201260D01*
X239586Y201326D01*
X239513Y201395D01*
X239443Y201467D01*
X239376Y201542D01*
X239312Y201619D01*
X239251Y201699D01*
X239193Y201781D01*
X239139Y201865D01*
X239088Y201952D01*
X239040Y202040D01*
X238996Y202130D01*
X238956Y202222D01*
X238919Y202316D01*
X238886Y202410D01*
X238857Y202506D01*
X238831Y202603D01*
X238809Y202701D01*
X238792Y202800D01*
X238778Y202900D01*
X238768Y202999D01*
X238762Y203100D01*
X238760Y203200D01*
D10*
X215392Y241046D02*
X215488Y241048D01*
X215583Y241054D01*
X215678Y241063D01*
X215772Y241077D01*
X215866Y241094D01*
X215959Y241115D01*
X216052Y241140D01*
X216143Y241168D01*
X216233Y241200D01*
X216321Y241236D01*
X216408Y241275D01*
X216494Y241318D01*
X216578Y241364D01*
X216659Y241413D01*
X216739Y241466D01*
X216816Y241522D01*
X216892Y241580D01*
X216964Y241642D01*
X217034Y241707D01*
X217102Y241775D01*
X217167Y241845D01*
X217229Y241917D01*
X217287Y241993D01*
X217343Y242070D01*
X217396Y242150D01*
X217445Y242232D01*
X217491Y242315D01*
X217534Y242401D01*
X217573Y242488D01*
X217609Y242576D01*
X217641Y242666D01*
X217669Y242757D01*
X217694Y242850D01*
X217715Y242943D01*
X217732Y243037D01*
X217746Y243131D01*
X217755Y243226D01*
X217761Y243322D01*
X217763Y243417D01*
X215392Y241046D02*
X215256Y241048D01*
X215119Y241053D01*
X214983Y241063D01*
X214848Y241076D01*
X214712Y241092D01*
X214578Y241113D01*
X214443Y241137D01*
X214310Y241164D01*
X214177Y241196D01*
X214045Y241230D01*
X213914Y241269D01*
X213785Y241311D01*
X213656Y241356D01*
X213529Y241405D01*
X213403Y241458D01*
X213279Y241514D01*
X213156Y241573D01*
X213035Y241635D01*
X212915Y241701D01*
X212798Y241770D01*
X212682Y241843D01*
X212568Y241918D01*
X212457Y241996D01*
X212347Y242078D01*
X212240Y242162D01*
X212136Y242249D01*
X212033Y242339D01*
X211933Y242432D01*
X211836Y242528D01*
X212132Y249343D02*
X212134Y249438D01*
X212140Y249534D01*
X212149Y249629D01*
X212163Y249723D01*
X212180Y249817D01*
X212201Y249910D01*
X212226Y250003D01*
X212254Y250094D01*
X212286Y250184D01*
X212322Y250272D01*
X212361Y250359D01*
X212404Y250445D01*
X212450Y250529D01*
X212499Y250610D01*
X212552Y250690D01*
X212608Y250767D01*
X212666Y250843D01*
X212728Y250915D01*
X212793Y250985D01*
X212861Y251053D01*
X212931Y251118D01*
X213003Y251180D01*
X213079Y251238D01*
X213156Y251294D01*
X213236Y251347D01*
X213318Y251396D01*
X213401Y251442D01*
X213487Y251485D01*
X213574Y251524D01*
X213662Y251560D01*
X213752Y251592D01*
X213843Y251620D01*
X213936Y251645D01*
X214029Y251666D01*
X214123Y251683D01*
X214217Y251697D01*
X214312Y251706D01*
X214408Y251712D01*
X214503Y251714D01*
X214633Y251712D01*
X214763Y251706D01*
X214893Y251697D01*
X215022Y251684D01*
X215151Y251667D01*
X215279Y251646D01*
X215407Y251621D01*
X215534Y251593D01*
X215660Y251561D01*
X215785Y251525D01*
X215909Y251486D01*
X216031Y251443D01*
X216153Y251397D01*
X216273Y251346D01*
X216391Y251293D01*
X216508Y251236D01*
X216623Y251176D01*
X216737Y251112D01*
X216848Y251045D01*
X216958Y250975D01*
X217065Y250901D01*
X217170Y250825D01*
X213318Y247268D02*
X213236Y247319D01*
X213156Y247373D01*
X213078Y247429D01*
X213003Y247489D01*
X212930Y247552D01*
X212860Y247618D01*
X212793Y247686D01*
X212728Y247757D01*
X212666Y247831D01*
X212607Y247907D01*
X212551Y247985D01*
X212499Y248066D01*
X212449Y248148D01*
X212403Y248233D01*
X212361Y248319D01*
X212321Y248407D01*
X212286Y248496D01*
X212254Y248587D01*
X212225Y248679D01*
X212201Y248772D01*
X212180Y248865D01*
X212163Y248960D01*
X212149Y249055D01*
X212140Y249151D01*
X212134Y249247D01*
X212132Y249343D01*
X216578Y245492D02*
X216659Y245441D01*
X216739Y245387D01*
X216817Y245331D01*
X216892Y245271D01*
X216965Y245208D01*
X217035Y245142D01*
X217102Y245074D01*
X217167Y245003D01*
X217229Y244929D01*
X217288Y244853D01*
X217344Y244775D01*
X217396Y244694D01*
X217446Y244612D01*
X217492Y244527D01*
X217534Y244441D01*
X217574Y244353D01*
X217609Y244264D01*
X217641Y244173D01*
X217670Y244081D01*
X217694Y243988D01*
X217715Y243895D01*
X217732Y243800D01*
X217746Y243705D01*
X217755Y243609D01*
X217761Y243513D01*
X217763Y243417D01*
X216577Y245491D02*
X213318Y247269D01*
X226145Y251714D02*
X226247Y251712D01*
X226349Y251706D01*
X226451Y251696D01*
X226552Y251683D01*
X226653Y251665D01*
X226753Y251644D01*
X226852Y251619D01*
X226950Y251590D01*
X227046Y251557D01*
X227142Y251521D01*
X227236Y251481D01*
X227328Y251437D01*
X227419Y251390D01*
X227508Y251339D01*
X227595Y251286D01*
X227679Y251228D01*
X227762Y251168D01*
X227842Y251105D01*
X227919Y251038D01*
X227994Y250969D01*
X228067Y250896D01*
X228136Y250821D01*
X228203Y250744D01*
X228266Y250664D01*
X228326Y250581D01*
X228384Y250497D01*
X228437Y250410D01*
X228488Y250321D01*
X228535Y250230D01*
X228579Y250138D01*
X228619Y250044D01*
X228655Y249948D01*
X228688Y249852D01*
X228717Y249754D01*
X228742Y249655D01*
X228763Y249555D01*
X228781Y249454D01*
X228794Y249353D01*
X228804Y249251D01*
X228810Y249149D01*
X228812Y249047D01*
X226145Y251714D02*
X226029Y251712D01*
X225912Y251706D01*
X225796Y251696D01*
X225681Y251682D01*
X225566Y251665D01*
X225451Y251643D01*
X225338Y251617D01*
X225225Y251588D01*
X225113Y251555D01*
X225003Y251518D01*
X224894Y251477D01*
X224786Y251433D01*
X224680Y251385D01*
X224576Y251333D01*
X224473Y251278D01*
X224372Y251220D01*
X224274Y251158D01*
X224177Y251093D01*
X224083Y251024D01*
X223991Y250952D01*
X223902Y250878D01*
X223815Y250800D01*
X223731Y250719D01*
X223650Y250636D01*
X223572Y250550D01*
X223496Y250461D01*
X223424Y250370D01*
X223355Y250276D01*
X223289Y250180D01*
X223226Y250082D01*
X223167Y249982D01*
X223111Y249880D01*
X223059Y249776D01*
X223010Y249670D01*
X222965Y249563D01*
X222923Y249454D01*
X222886Y249344D01*
X227923Y246972D02*
X227998Y247046D01*
X228070Y247123D01*
X228139Y247203D01*
X228206Y247285D01*
X228269Y247369D01*
X228329Y247456D01*
X228386Y247544D01*
X228440Y247635D01*
X228490Y247728D01*
X228537Y247822D01*
X228580Y247918D01*
X228620Y248016D01*
X228656Y248115D01*
X228689Y248215D01*
X228717Y248317D01*
X228742Y248419D01*
X228764Y248523D01*
X228781Y248627D01*
X228795Y248731D01*
X228804Y248836D01*
X228810Y248942D01*
X228812Y249047D01*
X227923Y246973D02*
X222885Y241046D01*
X228812Y241046D01*
D14*
X211300Y348500D02*
X271300Y348500D01*
X271300Y286500D01*
X211300Y286500D01*
X211300Y348500D01*
D15*
X223520Y317500D02*
X223525Y317936D01*
X223541Y318372D01*
X223568Y318808D01*
X223606Y319243D01*
X223654Y319676D01*
X223712Y320109D01*
X223782Y320540D01*
X223862Y320969D01*
X223952Y321396D01*
X224053Y321820D01*
X224164Y322242D01*
X224286Y322661D01*
X224417Y323077D01*
X224559Y323490D01*
X224711Y323899D01*
X224873Y324304D01*
X225045Y324705D01*
X225227Y325102D01*
X225418Y325494D01*
X225619Y325881D01*
X225830Y326264D01*
X226050Y326641D01*
X226279Y327012D01*
X226516Y327378D01*
X226763Y327738D01*
X227019Y328092D01*
X227283Y328439D01*
X227556Y328780D01*
X227837Y329113D01*
X228126Y329440D01*
X228423Y329760D01*
X228728Y330072D01*
X229040Y330377D01*
X229360Y330674D01*
X229687Y330963D01*
X230020Y331244D01*
X230361Y331517D01*
X230708Y331781D01*
X231062Y332037D01*
X231422Y332284D01*
X231788Y332521D01*
X232159Y332750D01*
X232536Y332970D01*
X232919Y333181D01*
X233306Y333382D01*
X233698Y333573D01*
X234095Y333755D01*
X234496Y333927D01*
X234901Y334089D01*
X235310Y334241D01*
X235723Y334383D01*
X236139Y334514D01*
X236558Y334636D01*
X236980Y334747D01*
X237404Y334848D01*
X237831Y334938D01*
X238260Y335018D01*
X238691Y335088D01*
X239124Y335146D01*
X239557Y335194D01*
X239992Y335232D01*
X240428Y335259D01*
X240864Y335275D01*
X241300Y335280D01*
X241736Y335275D01*
X242172Y335259D01*
X242608Y335232D01*
X243043Y335194D01*
X243476Y335146D01*
X243909Y335088D01*
X244340Y335018D01*
X244769Y334938D01*
X245196Y334848D01*
X245620Y334747D01*
X246042Y334636D01*
X246461Y334514D01*
X246877Y334383D01*
X247290Y334241D01*
X247699Y334089D01*
X248104Y333927D01*
X248505Y333755D01*
X248902Y333573D01*
X249294Y333382D01*
X249681Y333181D01*
X250064Y332970D01*
X250441Y332750D01*
X250812Y332521D01*
X251178Y332284D01*
X251538Y332037D01*
X251892Y331781D01*
X252239Y331517D01*
X252580Y331244D01*
X252913Y330963D01*
X253240Y330674D01*
X253560Y330377D01*
X253872Y330072D01*
X254177Y329760D01*
X254474Y329440D01*
X254763Y329113D01*
X255044Y328780D01*
X255317Y328439D01*
X255581Y328092D01*
X255837Y327738D01*
X256084Y327378D01*
X256321Y327012D01*
X256550Y326641D01*
X256770Y326264D01*
X256981Y325881D01*
X257182Y325494D01*
X257373Y325102D01*
X257555Y324705D01*
X257727Y324304D01*
X257889Y323899D01*
X258041Y323490D01*
X258183Y323077D01*
X258314Y322661D01*
X258436Y322242D01*
X258547Y321820D01*
X258648Y321396D01*
X258738Y320969D01*
X258818Y320540D01*
X258888Y320109D01*
X258946Y319676D01*
X258994Y319243D01*
X259032Y318808D01*
X259059Y318372D01*
X259075Y317936D01*
X259080Y317500D01*
X259075Y317064D01*
X259059Y316628D01*
X259032Y316192D01*
X258994Y315757D01*
X258946Y315324D01*
X258888Y314891D01*
X258818Y314460D01*
X258738Y314031D01*
X258648Y313604D01*
X258547Y313180D01*
X258436Y312758D01*
X258314Y312339D01*
X258183Y311923D01*
X258041Y311510D01*
X257889Y311101D01*
X257727Y310696D01*
X257555Y310295D01*
X257373Y309898D01*
X257182Y309506D01*
X256981Y309119D01*
X256770Y308736D01*
X256550Y308359D01*
X256321Y307988D01*
X256084Y307622D01*
X255837Y307262D01*
X255581Y306908D01*
X255317Y306561D01*
X255044Y306220D01*
X254763Y305887D01*
X254474Y305560D01*
X254177Y305240D01*
X253872Y304928D01*
X253560Y304623D01*
X253240Y304326D01*
X252913Y304037D01*
X252580Y303756D01*
X252239Y303483D01*
X251892Y303219D01*
X251538Y302963D01*
X251178Y302716D01*
X250812Y302479D01*
X250441Y302250D01*
X250064Y302030D01*
X249681Y301819D01*
X249294Y301618D01*
X248902Y301427D01*
X248505Y301245D01*
X248104Y301073D01*
X247699Y300911D01*
X247290Y300759D01*
X246877Y300617D01*
X246461Y300486D01*
X246042Y300364D01*
X245620Y300253D01*
X245196Y300152D01*
X244769Y300062D01*
X244340Y299982D01*
X243909Y299912D01*
X243476Y299854D01*
X243043Y299806D01*
X242608Y299768D01*
X242172Y299741D01*
X241736Y299725D01*
X241300Y299720D01*
X240864Y299725D01*
X240428Y299741D01*
X239992Y299768D01*
X239557Y299806D01*
X239124Y299854D01*
X238691Y299912D01*
X238260Y299982D01*
X237831Y300062D01*
X237404Y300152D01*
X236980Y300253D01*
X236558Y300364D01*
X236139Y300486D01*
X235723Y300617D01*
X235310Y300759D01*
X234901Y300911D01*
X234496Y301073D01*
X234095Y301245D01*
X233698Y301427D01*
X233306Y301618D01*
X232919Y301819D01*
X232536Y302030D01*
X232159Y302250D01*
X231788Y302479D01*
X231422Y302716D01*
X231062Y302963D01*
X230708Y303219D01*
X230361Y303483D01*
X230020Y303756D01*
X229687Y304037D01*
X229360Y304326D01*
X229040Y304623D01*
X228728Y304928D01*
X228423Y305240D01*
X228126Y305560D01*
X227837Y305887D01*
X227556Y306220D01*
X227283Y306561D01*
X227019Y306908D01*
X226763Y307262D01*
X226516Y307622D01*
X226279Y307988D01*
X226050Y308359D01*
X225830Y308736D01*
X225619Y309119D01*
X225418Y309506D01*
X225227Y309898D01*
X225045Y310295D01*
X224873Y310696D01*
X224711Y311101D01*
X224559Y311510D01*
X224417Y311923D01*
X224286Y312339D01*
X224164Y312758D01*
X224053Y313180D01*
X223952Y313604D01*
X223862Y314031D01*
X223782Y314460D01*
X223712Y314891D01*
X223654Y315324D01*
X223606Y315757D01*
X223568Y316192D01*
X223541Y316628D01*
X223525Y317064D01*
X223520Y317500D01*
X238760Y317500D02*
X238762Y317600D01*
X238768Y317701D01*
X238778Y317800D01*
X238792Y317900D01*
X238809Y317999D01*
X238831Y318097D01*
X238857Y318194D01*
X238886Y318290D01*
X238919Y318384D01*
X238956Y318478D01*
X238996Y318570D01*
X239040Y318660D01*
X239088Y318748D01*
X239139Y318835D01*
X239193Y318919D01*
X239251Y319001D01*
X239312Y319081D01*
X239376Y319158D01*
X239443Y319233D01*
X239513Y319305D01*
X239586Y319374D01*
X239661Y319440D01*
X239739Y319504D01*
X239819Y319564D01*
X239902Y319621D01*
X239987Y319674D01*
X240074Y319724D01*
X240163Y319771D01*
X240253Y319814D01*
X240345Y319854D01*
X240439Y319890D01*
X240534Y319922D01*
X240630Y319950D01*
X240728Y319975D01*
X240826Y319995D01*
X240925Y320012D01*
X241025Y320025D01*
X241124Y320034D01*
X241225Y320039D01*
X241325Y320040D01*
X241425Y320037D01*
X241526Y320030D01*
X241625Y320019D01*
X241725Y320004D01*
X241823Y319986D01*
X241921Y319963D01*
X242018Y319936D01*
X242113Y319906D01*
X242208Y319872D01*
X242301Y319834D01*
X242392Y319793D01*
X242482Y319748D01*
X242570Y319700D01*
X242656Y319648D01*
X242740Y319593D01*
X242821Y319534D01*
X242900Y319472D01*
X242977Y319408D01*
X243051Y319340D01*
X243122Y319269D01*
X243191Y319196D01*
X243256Y319120D01*
X243319Y319041D01*
X243378Y318960D01*
X243434Y318877D01*
X243487Y318792D01*
X243536Y318704D01*
X243582Y318615D01*
X243624Y318524D01*
X243663Y318431D01*
X243698Y318337D01*
X243729Y318242D01*
X243757Y318145D01*
X243780Y318048D01*
X243800Y317949D01*
X243816Y317850D01*
X243828Y317751D01*
X243836Y317650D01*
X243840Y317550D01*
X243840Y317450D01*
X243836Y317350D01*
X243828Y317249D01*
X243816Y317150D01*
X243800Y317051D01*
X243780Y316952D01*
X243757Y316855D01*
X243729Y316758D01*
X243698Y316663D01*
X243663Y316569D01*
X243624Y316476D01*
X243582Y316385D01*
X243536Y316296D01*
X243487Y316208D01*
X243434Y316123D01*
X243378Y316040D01*
X243319Y315959D01*
X243256Y315880D01*
X243191Y315804D01*
X243122Y315731D01*
X243051Y315660D01*
X242977Y315592D01*
X242900Y315528D01*
X242821Y315466D01*
X242740Y315407D01*
X242656Y315352D01*
X242570Y315300D01*
X242482Y315252D01*
X242392Y315207D01*
X242301Y315166D01*
X242208Y315128D01*
X242113Y315094D01*
X242018Y315064D01*
X241921Y315037D01*
X241823Y315014D01*
X241725Y314996D01*
X241625Y314981D01*
X241526Y314970D01*
X241425Y314963D01*
X241325Y314960D01*
X241225Y314961D01*
X241124Y314966D01*
X241025Y314975D01*
X240925Y314988D01*
X240826Y315005D01*
X240728Y315025D01*
X240630Y315050D01*
X240534Y315078D01*
X240439Y315110D01*
X240345Y315146D01*
X240253Y315186D01*
X240163Y315229D01*
X240074Y315276D01*
X239987Y315326D01*
X239902Y315379D01*
X239819Y315436D01*
X239739Y315496D01*
X239661Y315560D01*
X239586Y315626D01*
X239513Y315695D01*
X239443Y315767D01*
X239376Y315842D01*
X239312Y315919D01*
X239251Y315999D01*
X239193Y316081D01*
X239139Y316165D01*
X239088Y316252D01*
X239040Y316340D01*
X238996Y316430D01*
X238956Y316522D01*
X238919Y316616D01*
X238886Y316710D01*
X238857Y316806D01*
X238831Y316903D01*
X238809Y317001D01*
X238792Y317100D01*
X238778Y317200D01*
X238768Y317299D01*
X238762Y317400D01*
X238760Y317500D01*
D10*
X215392Y355346D02*
X215488Y355348D01*
X215583Y355354D01*
X215678Y355363D01*
X215772Y355377D01*
X215866Y355394D01*
X215959Y355415D01*
X216052Y355440D01*
X216143Y355468D01*
X216233Y355500D01*
X216321Y355536D01*
X216408Y355575D01*
X216494Y355618D01*
X216578Y355664D01*
X216659Y355713D01*
X216739Y355766D01*
X216816Y355822D01*
X216892Y355880D01*
X216964Y355942D01*
X217034Y356007D01*
X217102Y356075D01*
X217167Y356145D01*
X217229Y356217D01*
X217287Y356293D01*
X217343Y356370D01*
X217396Y356450D01*
X217445Y356532D01*
X217491Y356615D01*
X217534Y356701D01*
X217573Y356788D01*
X217609Y356876D01*
X217641Y356966D01*
X217669Y357057D01*
X217694Y357150D01*
X217715Y357243D01*
X217732Y357337D01*
X217746Y357431D01*
X217755Y357526D01*
X217761Y357622D01*
X217763Y357717D01*
X215392Y355346D02*
X215256Y355348D01*
X215119Y355353D01*
X214983Y355363D01*
X214848Y355376D01*
X214712Y355392D01*
X214578Y355413D01*
X214443Y355437D01*
X214310Y355464D01*
X214177Y355496D01*
X214045Y355530D01*
X213914Y355569D01*
X213785Y355611D01*
X213656Y355656D01*
X213529Y355705D01*
X213403Y355758D01*
X213279Y355814D01*
X213156Y355873D01*
X213035Y355935D01*
X212915Y356001D01*
X212798Y356070D01*
X212682Y356143D01*
X212568Y356218D01*
X212457Y356296D01*
X212347Y356378D01*
X212240Y356462D01*
X212136Y356549D01*
X212033Y356639D01*
X211933Y356732D01*
X211836Y356828D01*
X212132Y363643D02*
X212134Y363738D01*
X212140Y363834D01*
X212149Y363929D01*
X212163Y364023D01*
X212180Y364117D01*
X212201Y364210D01*
X212226Y364303D01*
X212254Y364394D01*
X212286Y364484D01*
X212322Y364572D01*
X212361Y364659D01*
X212404Y364745D01*
X212450Y364829D01*
X212499Y364910D01*
X212552Y364990D01*
X212608Y365067D01*
X212666Y365143D01*
X212728Y365215D01*
X212793Y365285D01*
X212861Y365353D01*
X212931Y365418D01*
X213003Y365480D01*
X213079Y365538D01*
X213156Y365594D01*
X213236Y365647D01*
X213318Y365696D01*
X213401Y365742D01*
X213487Y365785D01*
X213574Y365824D01*
X213662Y365860D01*
X213752Y365892D01*
X213843Y365920D01*
X213936Y365945D01*
X214029Y365966D01*
X214123Y365983D01*
X214217Y365997D01*
X214312Y366006D01*
X214408Y366012D01*
X214503Y366014D01*
X214633Y366012D01*
X214763Y366006D01*
X214893Y365997D01*
X215022Y365984D01*
X215151Y365967D01*
X215279Y365946D01*
X215407Y365921D01*
X215534Y365893D01*
X215660Y365861D01*
X215785Y365825D01*
X215909Y365786D01*
X216031Y365743D01*
X216153Y365697D01*
X216273Y365646D01*
X216391Y365593D01*
X216508Y365536D01*
X216623Y365476D01*
X216737Y365412D01*
X216848Y365345D01*
X216958Y365275D01*
X217065Y365201D01*
X217170Y365125D01*
X213318Y361568D02*
X213236Y361619D01*
X213156Y361673D01*
X213078Y361729D01*
X213003Y361789D01*
X212930Y361852D01*
X212860Y361918D01*
X212793Y361986D01*
X212728Y362057D01*
X212666Y362131D01*
X212607Y362207D01*
X212551Y362285D01*
X212499Y362366D01*
X212449Y362448D01*
X212403Y362533D01*
X212361Y362619D01*
X212321Y362707D01*
X212286Y362796D01*
X212254Y362887D01*
X212225Y362979D01*
X212201Y363072D01*
X212180Y363165D01*
X212163Y363260D01*
X212149Y363355D01*
X212140Y363451D01*
X212134Y363547D01*
X212132Y363643D01*
X216578Y359792D02*
X216659Y359741D01*
X216739Y359687D01*
X216817Y359631D01*
X216892Y359571D01*
X216965Y359508D01*
X217035Y359442D01*
X217102Y359374D01*
X217167Y359303D01*
X217229Y359229D01*
X217288Y359153D01*
X217344Y359075D01*
X217396Y358994D01*
X217446Y358912D01*
X217492Y358827D01*
X217534Y358741D01*
X217574Y358653D01*
X217609Y358564D01*
X217641Y358473D01*
X217670Y358381D01*
X217694Y358288D01*
X217715Y358195D01*
X217732Y358100D01*
X217746Y358005D01*
X217755Y357909D01*
X217761Y357813D01*
X217763Y357717D01*
X216577Y359791D02*
X213318Y361569D01*
X222885Y355346D02*
X225848Y355346D01*
X225955Y355348D01*
X226062Y355354D01*
X226168Y355363D01*
X226274Y355377D01*
X226380Y355394D01*
X226485Y355415D01*
X226589Y355440D01*
X226692Y355469D01*
X226794Y355501D01*
X226895Y355537D01*
X226994Y355577D01*
X227092Y355620D01*
X227188Y355667D01*
X227283Y355717D01*
X227376Y355770D01*
X227466Y355827D01*
X227555Y355887D01*
X227641Y355950D01*
X227725Y356016D01*
X227807Y356086D01*
X227886Y356158D01*
X227962Y356233D01*
X228036Y356311D01*
X228106Y356391D01*
X228174Y356474D01*
X228239Y356559D01*
X228300Y356646D01*
X228359Y356736D01*
X228414Y356828D01*
X228466Y356921D01*
X228514Y357017D01*
X228559Y357114D01*
X228601Y357212D01*
X228638Y357312D01*
X228673Y357414D01*
X228703Y357516D01*
X228730Y357620D01*
X228753Y357724D01*
X228772Y357830D01*
X228787Y357936D01*
X228799Y358042D01*
X228807Y358149D01*
X228811Y358256D01*
X228811Y358362D01*
X228807Y358469D01*
X228799Y358576D01*
X228787Y358682D01*
X228772Y358788D01*
X228753Y358894D01*
X228730Y358998D01*
X228703Y359102D01*
X228673Y359204D01*
X228638Y359306D01*
X228601Y359406D01*
X228559Y359504D01*
X228514Y359601D01*
X228466Y359697D01*
X228414Y359791D01*
X228359Y359882D01*
X228300Y359972D01*
X228239Y360059D01*
X228174Y360144D01*
X228106Y360227D01*
X228036Y360307D01*
X227962Y360385D01*
X227886Y360460D01*
X227807Y360532D01*
X227725Y360602D01*
X227641Y360668D01*
X227555Y360731D01*
X227466Y360791D01*
X227376Y360848D01*
X227283Y360901D01*
X227188Y360951D01*
X227092Y360998D01*
X226994Y361041D01*
X226895Y361081D01*
X226794Y361117D01*
X226692Y361149D01*
X226589Y361178D01*
X226485Y361203D01*
X226380Y361224D01*
X226274Y361241D01*
X226168Y361255D01*
X226062Y361264D01*
X225955Y361270D01*
X225848Y361272D01*
X226441Y366014D02*
X222885Y366014D01*
X226441Y366014D02*
X226538Y366012D01*
X226634Y366006D01*
X226730Y365996D01*
X226826Y365982D01*
X226921Y365965D01*
X227016Y365943D01*
X227109Y365918D01*
X227201Y365889D01*
X227292Y365856D01*
X227382Y365819D01*
X227470Y365779D01*
X227556Y365735D01*
X227640Y365688D01*
X227723Y365638D01*
X227803Y365584D01*
X227881Y365526D01*
X227957Y365466D01*
X228030Y365403D01*
X228100Y365337D01*
X228168Y365267D01*
X228233Y365196D01*
X228295Y365121D01*
X228353Y365044D01*
X228409Y364965D01*
X228461Y364884D01*
X228510Y364800D01*
X228556Y364715D01*
X228598Y364628D01*
X228636Y364539D01*
X228671Y364449D01*
X228702Y364357D01*
X228729Y364264D01*
X228753Y364171D01*
X228772Y364076D01*
X228788Y363980D01*
X228800Y363884D01*
X228808Y363788D01*
X228812Y363691D01*
X228812Y363595D01*
X228808Y363498D01*
X228800Y363402D01*
X228788Y363306D01*
X228772Y363210D01*
X228753Y363115D01*
X228729Y363022D01*
X228702Y362929D01*
X228671Y362837D01*
X228636Y362747D01*
X228598Y362658D01*
X228556Y362571D01*
X228510Y362486D01*
X228461Y362402D01*
X228409Y362321D01*
X228353Y362242D01*
X228295Y362165D01*
X228233Y362090D01*
X228168Y362019D01*
X228100Y361949D01*
X228030Y361883D01*
X227957Y361820D01*
X227881Y361760D01*
X227803Y361702D01*
X227723Y361648D01*
X227640Y361598D01*
X227556Y361551D01*
X227470Y361507D01*
X227382Y361467D01*
X227292Y361430D01*
X227201Y361397D01*
X227109Y361368D01*
X227016Y361343D01*
X226921Y361321D01*
X226826Y361304D01*
X226730Y361290D01*
X226634Y361280D01*
X226538Y361274D01*
X226441Y361272D01*
X226441Y361273D02*
X224070Y361273D01*
D16*
X318750Y88900D03*
D10*
X305816Y96266D02*
X305816Y106934D01*
X305816Y96266D02*
X310557Y96266D01*
X315722Y96266D02*
X320463Y96266D01*
X315722Y96266D02*
X315722Y106934D01*
X320463Y106934D01*
X319278Y102193D02*
X315722Y102193D01*
X325594Y106934D02*
X325594Y96266D01*
X325594Y106934D02*
X328557Y106934D01*
X328663Y106932D01*
X328768Y106926D01*
X328874Y106917D01*
X328979Y106904D01*
X329083Y106887D01*
X329187Y106866D01*
X329290Y106842D01*
X329392Y106814D01*
X329493Y106782D01*
X329592Y106747D01*
X329691Y106708D01*
X329788Y106666D01*
X329883Y106621D01*
X329977Y106572D01*
X330069Y106519D01*
X330159Y106464D01*
X330247Y106405D01*
X330333Y106343D01*
X330416Y106278D01*
X330497Y106210D01*
X330576Y106140D01*
X330652Y106066D01*
X330726Y105990D01*
X330796Y105911D01*
X330864Y105830D01*
X330929Y105747D01*
X330991Y105661D01*
X331050Y105573D01*
X331105Y105483D01*
X331158Y105391D01*
X331207Y105297D01*
X331252Y105202D01*
X331294Y105105D01*
X331333Y105006D01*
X331368Y104907D01*
X331400Y104806D01*
X331428Y104704D01*
X331452Y104601D01*
X331473Y104497D01*
X331490Y104393D01*
X331503Y104288D01*
X331512Y104182D01*
X331518Y104077D01*
X331520Y103971D01*
X331521Y103971D02*
X331521Y99229D01*
X331520Y99229D02*
X331518Y99123D01*
X331512Y99018D01*
X331503Y98912D01*
X331490Y98807D01*
X331473Y98703D01*
X331452Y98599D01*
X331428Y98496D01*
X331400Y98394D01*
X331368Y98293D01*
X331333Y98194D01*
X331294Y98095D01*
X331252Y97998D01*
X331207Y97903D01*
X331158Y97809D01*
X331105Y97717D01*
X331050Y97627D01*
X330991Y97539D01*
X330929Y97453D01*
X330864Y97370D01*
X330796Y97289D01*
X330726Y97210D01*
X330652Y97134D01*
X330576Y97060D01*
X330497Y96990D01*
X330416Y96922D01*
X330333Y96857D01*
X330247Y96795D01*
X330159Y96736D01*
X330069Y96681D01*
X329977Y96628D01*
X329883Y96579D01*
X329788Y96534D01*
X329691Y96492D01*
X329592Y96453D01*
X329493Y96418D01*
X329392Y96386D01*
X329290Y96358D01*
X329187Y96334D01*
X329083Y96313D01*
X328979Y96296D01*
X328874Y96283D01*
X328768Y96274D01*
X328663Y96268D01*
X328557Y96266D01*
X325594Y96266D01*
X337405Y104563D02*
X340368Y106934D01*
X340368Y96266D01*
X337405Y96266D02*
X343332Y96266D01*
D16*
X318750Y203200D03*
D10*
X305816Y210566D02*
X305816Y221234D01*
X305816Y210566D02*
X310557Y210566D01*
X315722Y210566D02*
X320463Y210566D01*
X315722Y210566D02*
X315722Y221234D01*
X320463Y221234D01*
X319278Y216493D02*
X315722Y216493D01*
X325594Y221234D02*
X325594Y210566D01*
X325594Y221234D02*
X328557Y221234D01*
X328663Y221232D01*
X328768Y221226D01*
X328874Y221217D01*
X328979Y221204D01*
X329083Y221187D01*
X329187Y221166D01*
X329290Y221142D01*
X329392Y221114D01*
X329493Y221082D01*
X329592Y221047D01*
X329691Y221008D01*
X329788Y220966D01*
X329883Y220921D01*
X329977Y220872D01*
X330069Y220819D01*
X330159Y220764D01*
X330247Y220705D01*
X330333Y220643D01*
X330416Y220578D01*
X330497Y220510D01*
X330576Y220440D01*
X330652Y220366D01*
X330726Y220290D01*
X330796Y220211D01*
X330864Y220130D01*
X330929Y220047D01*
X330991Y219961D01*
X331050Y219873D01*
X331105Y219783D01*
X331158Y219691D01*
X331207Y219597D01*
X331252Y219502D01*
X331294Y219405D01*
X331333Y219306D01*
X331368Y219207D01*
X331400Y219106D01*
X331428Y219004D01*
X331452Y218901D01*
X331473Y218797D01*
X331490Y218693D01*
X331503Y218588D01*
X331512Y218482D01*
X331518Y218377D01*
X331520Y218271D01*
X331521Y218271D02*
X331521Y213529D01*
X331520Y213529D02*
X331518Y213423D01*
X331512Y213318D01*
X331503Y213212D01*
X331490Y213107D01*
X331473Y213003D01*
X331452Y212899D01*
X331428Y212796D01*
X331400Y212694D01*
X331368Y212593D01*
X331333Y212494D01*
X331294Y212395D01*
X331252Y212298D01*
X331207Y212203D01*
X331158Y212109D01*
X331105Y212017D01*
X331050Y211927D01*
X330991Y211839D01*
X330929Y211753D01*
X330864Y211670D01*
X330796Y211589D01*
X330726Y211510D01*
X330652Y211434D01*
X330576Y211360D01*
X330497Y211290D01*
X330416Y211222D01*
X330333Y211157D01*
X330247Y211095D01*
X330159Y211036D01*
X330069Y210981D01*
X329977Y210928D01*
X329883Y210879D01*
X329788Y210834D01*
X329691Y210792D01*
X329592Y210753D01*
X329493Y210718D01*
X329392Y210686D01*
X329290Y210658D01*
X329187Y210634D01*
X329083Y210613D01*
X328979Y210596D01*
X328874Y210583D01*
X328768Y210574D01*
X328663Y210568D01*
X328557Y210566D01*
X325594Y210566D01*
X340665Y221234D02*
X340767Y221232D01*
X340869Y221226D01*
X340971Y221216D01*
X341072Y221203D01*
X341173Y221185D01*
X341273Y221164D01*
X341372Y221139D01*
X341470Y221110D01*
X341566Y221077D01*
X341662Y221041D01*
X341756Y221001D01*
X341848Y220957D01*
X341939Y220910D01*
X342028Y220859D01*
X342115Y220806D01*
X342199Y220748D01*
X342282Y220688D01*
X342362Y220625D01*
X342439Y220558D01*
X342514Y220489D01*
X342587Y220416D01*
X342656Y220341D01*
X342723Y220264D01*
X342786Y220184D01*
X342846Y220101D01*
X342904Y220017D01*
X342957Y219930D01*
X343008Y219841D01*
X343055Y219750D01*
X343099Y219658D01*
X343139Y219564D01*
X343175Y219468D01*
X343208Y219372D01*
X343237Y219274D01*
X343262Y219175D01*
X343283Y219075D01*
X343301Y218974D01*
X343314Y218873D01*
X343324Y218771D01*
X343330Y218669D01*
X343332Y218567D01*
X340665Y221234D02*
X340549Y221232D01*
X340432Y221226D01*
X340316Y221216D01*
X340201Y221202D01*
X340086Y221185D01*
X339971Y221163D01*
X339858Y221137D01*
X339745Y221108D01*
X339633Y221075D01*
X339523Y221038D01*
X339414Y220997D01*
X339306Y220953D01*
X339200Y220905D01*
X339096Y220853D01*
X338993Y220798D01*
X338892Y220740D01*
X338794Y220678D01*
X338697Y220613D01*
X338603Y220544D01*
X338511Y220472D01*
X338422Y220398D01*
X338335Y220320D01*
X338251Y220239D01*
X338170Y220156D01*
X338092Y220070D01*
X338016Y219981D01*
X337944Y219890D01*
X337875Y219796D01*
X337809Y219700D01*
X337746Y219602D01*
X337687Y219502D01*
X337631Y219400D01*
X337579Y219296D01*
X337530Y219190D01*
X337485Y219083D01*
X337443Y218974D01*
X337406Y218864D01*
X342443Y216492D02*
X342518Y216566D01*
X342590Y216643D01*
X342659Y216723D01*
X342726Y216805D01*
X342789Y216889D01*
X342849Y216976D01*
X342906Y217064D01*
X342960Y217155D01*
X343010Y217248D01*
X343057Y217342D01*
X343100Y217438D01*
X343140Y217536D01*
X343176Y217635D01*
X343209Y217735D01*
X343237Y217837D01*
X343262Y217939D01*
X343284Y218043D01*
X343301Y218147D01*
X343315Y218251D01*
X343324Y218356D01*
X343330Y218462D01*
X343332Y218567D01*
X342443Y216493D02*
X337405Y210566D01*
X343332Y210566D01*
D16*
X318750Y307500D03*
D10*
X305816Y301284D02*
X305816Y290616D01*
X310557Y290616D01*
X315722Y290616D02*
X320463Y290616D01*
X315722Y290616D02*
X315722Y301284D01*
X320463Y301284D01*
X319278Y296543D02*
X315722Y296543D01*
X325594Y301284D02*
X325594Y290616D01*
X325594Y301284D02*
X328557Y301284D01*
X328663Y301282D01*
X328768Y301276D01*
X328874Y301267D01*
X328979Y301254D01*
X329083Y301237D01*
X329187Y301216D01*
X329290Y301192D01*
X329392Y301164D01*
X329493Y301132D01*
X329592Y301097D01*
X329691Y301058D01*
X329788Y301016D01*
X329883Y300971D01*
X329977Y300922D01*
X330069Y300869D01*
X330159Y300814D01*
X330247Y300755D01*
X330333Y300693D01*
X330416Y300628D01*
X330497Y300560D01*
X330576Y300490D01*
X330652Y300416D01*
X330726Y300340D01*
X330796Y300261D01*
X330864Y300180D01*
X330929Y300097D01*
X330991Y300011D01*
X331050Y299923D01*
X331105Y299833D01*
X331158Y299741D01*
X331207Y299647D01*
X331252Y299552D01*
X331294Y299455D01*
X331333Y299356D01*
X331368Y299257D01*
X331400Y299156D01*
X331428Y299054D01*
X331452Y298951D01*
X331473Y298847D01*
X331490Y298743D01*
X331503Y298638D01*
X331512Y298532D01*
X331518Y298427D01*
X331520Y298321D01*
X331521Y298321D02*
X331521Y293579D01*
X331520Y293579D02*
X331518Y293473D01*
X331512Y293368D01*
X331503Y293262D01*
X331490Y293157D01*
X331473Y293053D01*
X331452Y292949D01*
X331428Y292846D01*
X331400Y292744D01*
X331368Y292643D01*
X331333Y292544D01*
X331294Y292445D01*
X331252Y292348D01*
X331207Y292253D01*
X331158Y292159D01*
X331105Y292067D01*
X331050Y291977D01*
X330991Y291889D01*
X330929Y291803D01*
X330864Y291720D01*
X330796Y291639D01*
X330726Y291560D01*
X330652Y291484D01*
X330576Y291410D01*
X330497Y291340D01*
X330416Y291272D01*
X330333Y291207D01*
X330247Y291145D01*
X330159Y291086D01*
X330069Y291031D01*
X329977Y290978D01*
X329883Y290929D01*
X329788Y290884D01*
X329691Y290842D01*
X329592Y290803D01*
X329493Y290768D01*
X329392Y290736D01*
X329290Y290708D01*
X329187Y290684D01*
X329083Y290663D01*
X328979Y290646D01*
X328874Y290633D01*
X328768Y290624D01*
X328663Y290618D01*
X328557Y290616D01*
X325594Y290616D01*
X337405Y290616D02*
X340368Y290616D01*
X340475Y290618D01*
X340582Y290624D01*
X340688Y290633D01*
X340794Y290647D01*
X340900Y290664D01*
X341005Y290685D01*
X341109Y290710D01*
X341212Y290739D01*
X341314Y290771D01*
X341415Y290807D01*
X341514Y290847D01*
X341612Y290890D01*
X341708Y290937D01*
X341803Y290987D01*
X341896Y291040D01*
X341986Y291097D01*
X342075Y291157D01*
X342161Y291220D01*
X342245Y291286D01*
X342327Y291356D01*
X342406Y291428D01*
X342482Y291503D01*
X342556Y291581D01*
X342626Y291661D01*
X342694Y291744D01*
X342759Y291829D01*
X342820Y291916D01*
X342879Y292006D01*
X342934Y292098D01*
X342986Y292191D01*
X343034Y292287D01*
X343079Y292384D01*
X343121Y292482D01*
X343158Y292582D01*
X343193Y292684D01*
X343223Y292786D01*
X343250Y292890D01*
X343273Y292994D01*
X343292Y293100D01*
X343307Y293206D01*
X343319Y293312D01*
X343327Y293419D01*
X343331Y293526D01*
X343331Y293632D01*
X343327Y293739D01*
X343319Y293846D01*
X343307Y293952D01*
X343292Y294058D01*
X343273Y294164D01*
X343250Y294268D01*
X343223Y294372D01*
X343193Y294474D01*
X343158Y294576D01*
X343121Y294676D01*
X343079Y294774D01*
X343034Y294871D01*
X342986Y294967D01*
X342934Y295061D01*
X342879Y295152D01*
X342820Y295242D01*
X342759Y295329D01*
X342694Y295414D01*
X342626Y295497D01*
X342556Y295577D01*
X342482Y295655D01*
X342406Y295730D01*
X342327Y295802D01*
X342245Y295872D01*
X342161Y295938D01*
X342075Y296001D01*
X341986Y296061D01*
X341896Y296118D01*
X341803Y296171D01*
X341708Y296221D01*
X341612Y296268D01*
X341514Y296311D01*
X341415Y296351D01*
X341314Y296387D01*
X341212Y296419D01*
X341109Y296448D01*
X341005Y296473D01*
X340900Y296494D01*
X340794Y296511D01*
X340688Y296525D01*
X340582Y296534D01*
X340475Y296540D01*
X340368Y296542D01*
X340961Y301284D02*
X337405Y301284D01*
X340961Y301284D02*
X341058Y301282D01*
X341154Y301276D01*
X341250Y301266D01*
X341346Y301252D01*
X341441Y301235D01*
X341536Y301213D01*
X341629Y301188D01*
X341721Y301159D01*
X341812Y301126D01*
X341902Y301089D01*
X341990Y301049D01*
X342076Y301005D01*
X342160Y300958D01*
X342243Y300908D01*
X342323Y300854D01*
X342401Y300796D01*
X342477Y300736D01*
X342550Y300673D01*
X342620Y300607D01*
X342688Y300537D01*
X342753Y300466D01*
X342815Y300391D01*
X342873Y300314D01*
X342929Y300235D01*
X342981Y300154D01*
X343030Y300070D01*
X343076Y299985D01*
X343118Y299898D01*
X343156Y299809D01*
X343191Y299719D01*
X343222Y299627D01*
X343249Y299534D01*
X343273Y299441D01*
X343292Y299346D01*
X343308Y299250D01*
X343320Y299154D01*
X343328Y299058D01*
X343332Y298961D01*
X343332Y298865D01*
X343328Y298768D01*
X343320Y298672D01*
X343308Y298576D01*
X343292Y298480D01*
X343273Y298385D01*
X343249Y298292D01*
X343222Y298199D01*
X343191Y298107D01*
X343156Y298017D01*
X343118Y297928D01*
X343076Y297841D01*
X343030Y297756D01*
X342981Y297672D01*
X342929Y297591D01*
X342873Y297512D01*
X342815Y297435D01*
X342753Y297360D01*
X342688Y297289D01*
X342620Y297219D01*
X342550Y297153D01*
X342477Y297090D01*
X342401Y297030D01*
X342323Y296972D01*
X342243Y296918D01*
X342160Y296868D01*
X342076Y296821D01*
X341990Y296777D01*
X341902Y296737D01*
X341812Y296700D01*
X341721Y296667D01*
X341629Y296638D01*
X341536Y296613D01*
X341441Y296591D01*
X341346Y296574D01*
X341250Y296560D01*
X341154Y296550D01*
X341058Y296544D01*
X340961Y296542D01*
X340961Y296543D02*
X338590Y296543D01*
X324866Y138684D02*
X324866Y128016D01*
X324866Y138684D02*
X327829Y138684D01*
X327936Y138682D01*
X328043Y138676D01*
X328149Y138667D01*
X328255Y138653D01*
X328361Y138636D01*
X328466Y138615D01*
X328570Y138590D01*
X328673Y138561D01*
X328775Y138529D01*
X328876Y138493D01*
X328975Y138453D01*
X329073Y138410D01*
X329169Y138363D01*
X329264Y138313D01*
X329357Y138260D01*
X329447Y138203D01*
X329536Y138143D01*
X329622Y138080D01*
X329706Y138014D01*
X329788Y137944D01*
X329867Y137872D01*
X329943Y137797D01*
X330017Y137719D01*
X330087Y137639D01*
X330155Y137556D01*
X330220Y137471D01*
X330281Y137384D01*
X330340Y137294D01*
X330395Y137202D01*
X330447Y137109D01*
X330495Y137013D01*
X330540Y136916D01*
X330582Y136818D01*
X330619Y136718D01*
X330654Y136616D01*
X330684Y136514D01*
X330711Y136410D01*
X330734Y136306D01*
X330753Y136200D01*
X330768Y136094D01*
X330780Y135988D01*
X330788Y135881D01*
X330792Y135774D01*
X330792Y135668D01*
X330788Y135561D01*
X330780Y135454D01*
X330768Y135348D01*
X330753Y135242D01*
X330734Y135136D01*
X330711Y135032D01*
X330684Y134928D01*
X330654Y134826D01*
X330619Y134724D01*
X330582Y134624D01*
X330540Y134526D01*
X330495Y134429D01*
X330447Y134333D01*
X330395Y134240D01*
X330340Y134148D01*
X330281Y134058D01*
X330220Y133971D01*
X330155Y133886D01*
X330087Y133803D01*
X330017Y133723D01*
X329943Y133645D01*
X329867Y133570D01*
X329788Y133498D01*
X329706Y133428D01*
X329622Y133362D01*
X329536Y133299D01*
X329447Y133239D01*
X329357Y133182D01*
X329264Y133129D01*
X329169Y133079D01*
X329073Y133032D01*
X328975Y132989D01*
X328876Y132949D01*
X328775Y132913D01*
X328673Y132881D01*
X328570Y132852D01*
X328466Y132827D01*
X328361Y132806D01*
X328255Y132789D01*
X328149Y132775D01*
X328043Y132766D01*
X327936Y132760D01*
X327829Y132758D01*
X327829Y132757D02*
X324866Y132757D01*
X328422Y132757D02*
X330793Y128016D01*
X336186Y136313D02*
X339149Y138684D01*
X339149Y128016D01*
X336186Y128016D02*
X342112Y128016D01*
X324866Y171016D02*
X324866Y181684D01*
X327829Y181684D01*
X327936Y181682D01*
X328043Y181676D01*
X328149Y181667D01*
X328255Y181653D01*
X328361Y181636D01*
X328466Y181615D01*
X328570Y181590D01*
X328673Y181561D01*
X328775Y181529D01*
X328876Y181493D01*
X328975Y181453D01*
X329073Y181410D01*
X329169Y181363D01*
X329264Y181313D01*
X329357Y181260D01*
X329447Y181203D01*
X329536Y181143D01*
X329622Y181080D01*
X329706Y181014D01*
X329788Y180944D01*
X329867Y180872D01*
X329943Y180797D01*
X330017Y180719D01*
X330087Y180639D01*
X330155Y180556D01*
X330220Y180471D01*
X330281Y180384D01*
X330340Y180294D01*
X330395Y180202D01*
X330447Y180109D01*
X330495Y180013D01*
X330540Y179916D01*
X330582Y179818D01*
X330619Y179718D01*
X330654Y179616D01*
X330684Y179514D01*
X330711Y179410D01*
X330734Y179306D01*
X330753Y179200D01*
X330768Y179094D01*
X330780Y178988D01*
X330788Y178881D01*
X330792Y178774D01*
X330792Y178668D01*
X330788Y178561D01*
X330780Y178454D01*
X330768Y178348D01*
X330753Y178242D01*
X330734Y178136D01*
X330711Y178032D01*
X330684Y177928D01*
X330654Y177826D01*
X330619Y177724D01*
X330582Y177624D01*
X330540Y177526D01*
X330495Y177429D01*
X330447Y177333D01*
X330395Y177240D01*
X330340Y177148D01*
X330281Y177058D01*
X330220Y176971D01*
X330155Y176886D01*
X330087Y176803D01*
X330017Y176723D01*
X329943Y176645D01*
X329867Y176570D01*
X329788Y176498D01*
X329706Y176428D01*
X329622Y176362D01*
X329536Y176299D01*
X329447Y176239D01*
X329357Y176182D01*
X329264Y176129D01*
X329169Y176079D01*
X329073Y176032D01*
X328975Y175989D01*
X328876Y175949D01*
X328775Y175913D01*
X328673Y175881D01*
X328570Y175852D01*
X328466Y175827D01*
X328361Y175806D01*
X328255Y175789D01*
X328149Y175775D01*
X328043Y175766D01*
X327936Y175760D01*
X327829Y175758D01*
X327829Y175757D02*
X324866Y175757D01*
X328422Y175757D02*
X330793Y171016D01*
X339445Y181684D02*
X339547Y181682D01*
X339649Y181676D01*
X339751Y181666D01*
X339852Y181653D01*
X339953Y181635D01*
X340053Y181614D01*
X340152Y181589D01*
X340250Y181560D01*
X340346Y181527D01*
X340442Y181491D01*
X340536Y181451D01*
X340628Y181407D01*
X340719Y181360D01*
X340808Y181309D01*
X340895Y181256D01*
X340979Y181198D01*
X341062Y181138D01*
X341142Y181075D01*
X341219Y181008D01*
X341294Y180939D01*
X341367Y180866D01*
X341436Y180791D01*
X341503Y180714D01*
X341566Y180634D01*
X341626Y180551D01*
X341684Y180467D01*
X341737Y180380D01*
X341788Y180291D01*
X341835Y180200D01*
X341879Y180108D01*
X341919Y180014D01*
X341955Y179918D01*
X341988Y179822D01*
X342017Y179724D01*
X342042Y179625D01*
X342063Y179525D01*
X342081Y179424D01*
X342094Y179323D01*
X342104Y179221D01*
X342110Y179119D01*
X342112Y179017D01*
X339445Y181684D02*
X339329Y181682D01*
X339212Y181676D01*
X339096Y181666D01*
X338981Y181652D01*
X338866Y181635D01*
X338751Y181613D01*
X338638Y181587D01*
X338525Y181558D01*
X338413Y181525D01*
X338303Y181488D01*
X338194Y181447D01*
X338086Y181403D01*
X337980Y181355D01*
X337876Y181303D01*
X337773Y181248D01*
X337672Y181190D01*
X337574Y181128D01*
X337477Y181063D01*
X337383Y180994D01*
X337291Y180922D01*
X337202Y180848D01*
X337115Y180770D01*
X337031Y180689D01*
X336950Y180606D01*
X336872Y180520D01*
X336796Y180431D01*
X336724Y180340D01*
X336655Y180246D01*
X336589Y180150D01*
X336526Y180052D01*
X336467Y179952D01*
X336411Y179850D01*
X336359Y179746D01*
X336310Y179640D01*
X336265Y179533D01*
X336223Y179424D01*
X336186Y179314D01*
X341224Y176942D02*
X341299Y177016D01*
X341371Y177093D01*
X341440Y177173D01*
X341507Y177255D01*
X341570Y177339D01*
X341630Y177426D01*
X341687Y177514D01*
X341741Y177605D01*
X341791Y177698D01*
X341838Y177792D01*
X341881Y177888D01*
X341921Y177986D01*
X341957Y178085D01*
X341990Y178185D01*
X342018Y178287D01*
X342043Y178389D01*
X342065Y178493D01*
X342082Y178597D01*
X342096Y178701D01*
X342105Y178806D01*
X342111Y178912D01*
X342113Y179017D01*
X341223Y176943D02*
X336186Y171016D01*
X342112Y171016D01*
X334506Y229616D02*
X334506Y240284D01*
X337469Y240284D01*
X337576Y240282D01*
X337683Y240276D01*
X337789Y240267D01*
X337895Y240253D01*
X338001Y240236D01*
X338106Y240215D01*
X338210Y240190D01*
X338313Y240161D01*
X338415Y240129D01*
X338516Y240093D01*
X338615Y240053D01*
X338713Y240010D01*
X338809Y239963D01*
X338904Y239913D01*
X338997Y239860D01*
X339087Y239803D01*
X339176Y239743D01*
X339262Y239680D01*
X339346Y239614D01*
X339428Y239544D01*
X339507Y239472D01*
X339583Y239397D01*
X339657Y239319D01*
X339727Y239239D01*
X339795Y239156D01*
X339860Y239071D01*
X339921Y238984D01*
X339980Y238894D01*
X340035Y238802D01*
X340087Y238709D01*
X340135Y238613D01*
X340180Y238516D01*
X340222Y238418D01*
X340259Y238318D01*
X340294Y238216D01*
X340324Y238114D01*
X340351Y238010D01*
X340374Y237906D01*
X340393Y237800D01*
X340408Y237694D01*
X340420Y237588D01*
X340428Y237481D01*
X340432Y237374D01*
X340432Y237268D01*
X340428Y237161D01*
X340420Y237054D01*
X340408Y236948D01*
X340393Y236842D01*
X340374Y236736D01*
X340351Y236632D01*
X340324Y236528D01*
X340294Y236426D01*
X340259Y236324D01*
X340222Y236224D01*
X340180Y236126D01*
X340135Y236029D01*
X340087Y235933D01*
X340035Y235840D01*
X339980Y235748D01*
X339921Y235658D01*
X339860Y235571D01*
X339795Y235486D01*
X339727Y235403D01*
X339657Y235323D01*
X339583Y235245D01*
X339507Y235170D01*
X339428Y235098D01*
X339346Y235028D01*
X339262Y234962D01*
X339176Y234899D01*
X339087Y234839D01*
X338997Y234782D01*
X338904Y234729D01*
X338809Y234679D01*
X338713Y234632D01*
X338615Y234589D01*
X338516Y234549D01*
X338415Y234513D01*
X338313Y234481D01*
X338210Y234452D01*
X338106Y234427D01*
X338001Y234406D01*
X337895Y234389D01*
X337789Y234375D01*
X337683Y234366D01*
X337576Y234360D01*
X337469Y234358D01*
X337469Y234357D02*
X334506Y234357D01*
X338062Y234357D02*
X340433Y229616D01*
X345826Y229616D02*
X348789Y229616D01*
X348896Y229618D01*
X349003Y229624D01*
X349109Y229633D01*
X349215Y229647D01*
X349321Y229664D01*
X349426Y229685D01*
X349530Y229710D01*
X349633Y229739D01*
X349735Y229771D01*
X349836Y229807D01*
X349935Y229847D01*
X350033Y229890D01*
X350129Y229937D01*
X350224Y229987D01*
X350317Y230040D01*
X350407Y230097D01*
X350496Y230157D01*
X350582Y230220D01*
X350666Y230286D01*
X350748Y230356D01*
X350827Y230428D01*
X350903Y230503D01*
X350977Y230581D01*
X351047Y230661D01*
X351115Y230744D01*
X351180Y230829D01*
X351241Y230916D01*
X351300Y231006D01*
X351355Y231098D01*
X351407Y231191D01*
X351455Y231287D01*
X351500Y231384D01*
X351542Y231482D01*
X351579Y231582D01*
X351614Y231684D01*
X351644Y231786D01*
X351671Y231890D01*
X351694Y231994D01*
X351713Y232100D01*
X351728Y232206D01*
X351740Y232312D01*
X351748Y232419D01*
X351752Y232526D01*
X351752Y232632D01*
X351748Y232739D01*
X351740Y232846D01*
X351728Y232952D01*
X351713Y233058D01*
X351694Y233164D01*
X351671Y233268D01*
X351644Y233372D01*
X351614Y233474D01*
X351579Y233576D01*
X351542Y233676D01*
X351500Y233774D01*
X351455Y233871D01*
X351407Y233967D01*
X351355Y234060D01*
X351300Y234152D01*
X351241Y234242D01*
X351180Y234329D01*
X351115Y234414D01*
X351047Y234497D01*
X350977Y234577D01*
X350903Y234655D01*
X350827Y234730D01*
X350748Y234802D01*
X350666Y234872D01*
X350582Y234938D01*
X350496Y235001D01*
X350407Y235061D01*
X350317Y235118D01*
X350224Y235171D01*
X350129Y235221D01*
X350033Y235268D01*
X349935Y235311D01*
X349836Y235351D01*
X349735Y235387D01*
X349633Y235419D01*
X349530Y235448D01*
X349426Y235473D01*
X349321Y235494D01*
X349215Y235511D01*
X349109Y235525D01*
X349003Y235534D01*
X348896Y235540D01*
X348789Y235542D01*
X349382Y240284D02*
X345826Y240284D01*
X349382Y240284D02*
X349479Y240282D01*
X349575Y240276D01*
X349671Y240266D01*
X349767Y240252D01*
X349862Y240235D01*
X349957Y240213D01*
X350050Y240188D01*
X350142Y240159D01*
X350233Y240126D01*
X350323Y240089D01*
X350411Y240049D01*
X350497Y240005D01*
X350581Y239958D01*
X350664Y239908D01*
X350744Y239854D01*
X350822Y239796D01*
X350898Y239736D01*
X350971Y239673D01*
X351041Y239607D01*
X351109Y239537D01*
X351174Y239466D01*
X351236Y239391D01*
X351294Y239314D01*
X351350Y239235D01*
X351402Y239154D01*
X351451Y239070D01*
X351497Y238985D01*
X351539Y238898D01*
X351577Y238809D01*
X351612Y238719D01*
X351643Y238627D01*
X351670Y238534D01*
X351694Y238441D01*
X351713Y238346D01*
X351729Y238250D01*
X351741Y238154D01*
X351749Y238058D01*
X351753Y237961D01*
X351753Y237865D01*
X351749Y237768D01*
X351741Y237672D01*
X351729Y237576D01*
X351713Y237480D01*
X351694Y237385D01*
X351670Y237292D01*
X351643Y237199D01*
X351612Y237107D01*
X351577Y237017D01*
X351539Y236928D01*
X351497Y236841D01*
X351451Y236756D01*
X351402Y236672D01*
X351350Y236591D01*
X351294Y236512D01*
X351236Y236435D01*
X351174Y236360D01*
X351109Y236289D01*
X351041Y236219D01*
X350971Y236153D01*
X350898Y236090D01*
X350822Y236030D01*
X350744Y235972D01*
X350664Y235918D01*
X350581Y235868D01*
X350497Y235821D01*
X350411Y235777D01*
X350323Y235737D01*
X350233Y235700D01*
X350142Y235667D01*
X350050Y235638D01*
X349957Y235613D01*
X349862Y235591D01*
X349767Y235574D01*
X349671Y235560D01*
X349575Y235550D01*
X349479Y235544D01*
X349382Y235542D01*
X349382Y235543D02*
X347011Y235543D01*
D16*
X318750Y327500D03*
D10*
X305816Y334866D02*
X305816Y345534D01*
X305816Y334866D02*
X310557Y334866D01*
X315722Y334866D02*
X320463Y334866D01*
X315722Y334866D02*
X315722Y345534D01*
X320463Y345534D01*
X319278Y340793D02*
X315722Y340793D01*
X325594Y345534D02*
X325594Y334866D01*
X325594Y345534D02*
X328557Y345534D01*
X328663Y345532D01*
X328768Y345526D01*
X328874Y345517D01*
X328979Y345504D01*
X329083Y345487D01*
X329187Y345466D01*
X329290Y345442D01*
X329392Y345414D01*
X329493Y345382D01*
X329592Y345347D01*
X329691Y345308D01*
X329788Y345266D01*
X329883Y345221D01*
X329977Y345172D01*
X330069Y345119D01*
X330159Y345064D01*
X330247Y345005D01*
X330333Y344943D01*
X330416Y344878D01*
X330497Y344810D01*
X330576Y344740D01*
X330652Y344666D01*
X330726Y344590D01*
X330796Y344511D01*
X330864Y344430D01*
X330929Y344347D01*
X330991Y344261D01*
X331050Y344173D01*
X331105Y344083D01*
X331158Y343991D01*
X331207Y343897D01*
X331252Y343802D01*
X331294Y343705D01*
X331333Y343606D01*
X331368Y343507D01*
X331400Y343406D01*
X331428Y343304D01*
X331452Y343201D01*
X331473Y343097D01*
X331490Y342993D01*
X331503Y342888D01*
X331512Y342782D01*
X331518Y342677D01*
X331520Y342571D01*
X331521Y342571D02*
X331521Y337829D01*
X331520Y337829D02*
X331518Y337723D01*
X331512Y337618D01*
X331503Y337512D01*
X331490Y337407D01*
X331473Y337303D01*
X331452Y337199D01*
X331428Y337096D01*
X331400Y336994D01*
X331368Y336893D01*
X331333Y336794D01*
X331294Y336695D01*
X331252Y336598D01*
X331207Y336503D01*
X331158Y336409D01*
X331105Y336317D01*
X331050Y336227D01*
X330991Y336139D01*
X330929Y336053D01*
X330864Y335970D01*
X330796Y335889D01*
X330726Y335810D01*
X330652Y335734D01*
X330576Y335660D01*
X330497Y335590D01*
X330416Y335522D01*
X330333Y335457D01*
X330247Y335395D01*
X330159Y335336D01*
X330069Y335281D01*
X329977Y335228D01*
X329883Y335179D01*
X329788Y335134D01*
X329691Y335092D01*
X329592Y335053D01*
X329493Y335018D01*
X329392Y334986D01*
X329290Y334958D01*
X329187Y334934D01*
X329083Y334913D01*
X328979Y334896D01*
X328874Y334883D01*
X328768Y334874D01*
X328663Y334868D01*
X328557Y334866D01*
X325594Y334866D01*
X337405Y337237D02*
X339776Y345534D01*
X337405Y337237D02*
X343332Y337237D01*
X341554Y339607D02*
X341554Y334866D01*
X375666Y240284D02*
X375666Y229616D01*
X375666Y240284D02*
X378629Y240284D01*
X378736Y240282D01*
X378843Y240276D01*
X378949Y240267D01*
X379055Y240253D01*
X379161Y240236D01*
X379266Y240215D01*
X379370Y240190D01*
X379473Y240161D01*
X379575Y240129D01*
X379676Y240093D01*
X379775Y240053D01*
X379873Y240010D01*
X379969Y239963D01*
X380064Y239913D01*
X380157Y239860D01*
X380247Y239803D01*
X380336Y239743D01*
X380422Y239680D01*
X380506Y239614D01*
X380588Y239544D01*
X380667Y239472D01*
X380743Y239397D01*
X380817Y239319D01*
X380887Y239239D01*
X380955Y239156D01*
X381020Y239071D01*
X381081Y238984D01*
X381140Y238894D01*
X381195Y238802D01*
X381247Y238709D01*
X381295Y238613D01*
X381340Y238516D01*
X381382Y238418D01*
X381419Y238318D01*
X381454Y238216D01*
X381484Y238114D01*
X381511Y238010D01*
X381534Y237906D01*
X381553Y237800D01*
X381568Y237694D01*
X381580Y237588D01*
X381588Y237481D01*
X381592Y237374D01*
X381592Y237268D01*
X381588Y237161D01*
X381580Y237054D01*
X381568Y236948D01*
X381553Y236842D01*
X381534Y236736D01*
X381511Y236632D01*
X381484Y236528D01*
X381454Y236426D01*
X381419Y236324D01*
X381382Y236224D01*
X381340Y236126D01*
X381295Y236029D01*
X381247Y235933D01*
X381195Y235840D01*
X381140Y235748D01*
X381081Y235658D01*
X381020Y235571D01*
X380955Y235486D01*
X380887Y235403D01*
X380817Y235323D01*
X380743Y235245D01*
X380667Y235170D01*
X380588Y235098D01*
X380506Y235028D01*
X380422Y234962D01*
X380336Y234899D01*
X380247Y234839D01*
X380157Y234782D01*
X380064Y234729D01*
X379969Y234679D01*
X379873Y234632D01*
X379775Y234589D01*
X379676Y234549D01*
X379575Y234513D01*
X379473Y234481D01*
X379370Y234452D01*
X379266Y234427D01*
X379161Y234406D01*
X379055Y234389D01*
X378949Y234375D01*
X378843Y234366D01*
X378736Y234360D01*
X378629Y234358D01*
X378629Y234357D02*
X375666Y234357D01*
X379222Y234357D02*
X381593Y229616D01*
X386986Y231987D02*
X389356Y240284D01*
X386986Y231987D02*
X392912Y231987D01*
X391134Y234357D02*
X391134Y229616D01*
D17*
X0Y0D02*
X400000Y0D01*
X400000Y400000D01*
X0Y400000D01*
X0Y0D01*
M02*
